<?xml version="1.0" encoding="UTF-8"?>
<svg xmlns="http://www.w3.org/2000/svg" xmlns:xlink="http://www.w3.org/1999/xlink"
     width="1316" height="275" viewBox="-548 -20 1316 275">
<defs>
</defs>
<rect x="3" y="3" width="220" height="225" fill="#000000" fill-opacity="0.1" rx="2" ry="2" />
<path d="M0,0 H220 V66 H214 V106 H220 V225 H0 V106 H6 V66 H0 Z" fill="#ffffff" stroke="#000000" stroke-width="2" />
<path d="M0,30 L220,30" stroke="#000000" stroke-width="1" />
<text x="110.0" y="84.0" font-size="14" fontWeight="bold" font-family="Verdana, sans-serif" font-style="italic" text-anchor="middle" dominant-baseline="central">WORDS_TO_ARR08B_BE</text>
<text x="110.0" y="98.0" font-size="10" fill="#000" font-family="Consolas, monospace" text-anchor="middle" dominant-baseline="central">1.0</text>
<path d="M-5,37 L-5,47 L0,42 Z" fill="#63B31F" stroke="none" />
<text x="12" y="46" font-size="12" text-anchor="start" font-family="Consolas, monospace">REQ</text>
<text x="-23" y="45" font-size="11" text-anchor="end" fill="#888" font-style="italic" font-family="Verdana, sans-serif">Event</text>
<path d="M-5,118 L-5,128 L0,123 Z" fill="#82A3A9" stroke="none" />
<text x="12" y="127" font-size="12" text-anchor="start" font-family="Consolas, monospace">IN_00</text>
<text x="-23" y="126" font-size="11" text-anchor="end" fill="#82A3A9" font-style="italic" font-family="Verdana, sans-serif">WORD</text>
<text x="-81" y="126" font-size="11" text-anchor="end" fill="#666666" font-family="Verdana, sans-serif">WORD 00</text>
<path d="M-5,144 L-5,154 L0,149 Z" fill="#82A3A9" stroke="none" />
<text x="12" y="153" font-size="12" text-anchor="start" font-family="Consolas, monospace">IN_01</text>
<text x="-23" y="152" font-size="11" text-anchor="end" fill="#82A3A9" font-style="italic" font-family="Verdana, sans-serif">WORD</text>
<text x="-81" y="152" font-size="11" text-anchor="end" fill="#666666" font-family="Verdana, sans-serif">WORD 01</text>
<path d="M-5,170 L-5,180 L0,175 Z" fill="#82A3A9" stroke="none" />
<text x="12" y="179" font-size="12" text-anchor="start" font-family="Consolas, monospace">IN_02</text>
<text x="-23" y="178" font-size="11" text-anchor="end" fill="#82A3A9" font-style="italic" font-family="Verdana, sans-serif">WORD</text>
<text x="-81" y="178" font-size="11" text-anchor="end" fill="#666666" font-family="Verdana, sans-serif">WORD 02</text>
<path d="M-5,196 L-5,206 L0,201 Z" fill="#82A3A9" stroke="none" />
<text x="12" y="205" font-size="12" text-anchor="start" font-family="Consolas, monospace">IN_03</text>
<text x="-23" y="204" font-size="11" text-anchor="end" fill="#82A3A9" font-style="italic" font-family="Verdana, sans-serif">WORD</text>
<text x="-81" y="204" font-size="11" text-anchor="end" fill="#666666" font-family="Verdana, sans-serif">WORD 03</text>
<path d="M220,37 L220,47 L225,42 Z" fill="#63B31F" stroke="none" />
<text x="208" y="46" font-size="12" text-anchor="end" font-family="Consolas, monospace">CNF</text>
<text x="243" y="45" font-size="11" text-anchor="start" fill="#888" font-style="italic" font-family="Verdana, sans-serif">Event</text>
<path d="M220,118 L220,128 L225,123 Z" fill="#82A3A9" stroke="none" />
<text x="208" y="127" font-size="12" text-anchor="end" font-family="Consolas, monospace">OUT</text>
<text x="243" y="126" font-size="11" text-anchor="start" fill="#82A3A9" font-style="italic" font-family="Verdana, sans-serif">BYTE</text>
<text x="313" y="126" font-size="11" text-anchor="start" fill="#666666" font-family="Verdana, sans-serif">ARR08B Output</text>
<path d="M-12,42 L-12,201" stroke="#404040" stroke-width="1" />
<path d="M0,42 L-12,42" stroke="#404040" />
<rect x="-14" y="40" width="4" height="4" fill="white" stroke="black" stroke-width="1" />
<path d="M-12,123 L-5,123" stroke="#404040" />
<rect x="-14" y="121" width="4" height="4" fill="white" stroke="black" stroke-width="1" />
<path d="M-12,149 L-5,149" stroke="#404040" />
<rect x="-14" y="147" width="4" height="4" fill="white" stroke="black" stroke-width="1" />
<path d="M-12,175 L-5,175" stroke="#404040" />
<rect x="-14" y="173" width="4" height="4" fill="white" stroke="black" stroke-width="1" />
<path d="M-12,201 L-5,201" stroke="#404040" />
<rect x="-14" y="199" width="4" height="4" fill="white" stroke="black" stroke-width="1" />
<path d="M232,42 L232,123" stroke="#404040" stroke-width="1" />
<path d="M220,42 L232,42" stroke="#404040" />
<rect x="230" y="40" width="4" height="4" fill="white" stroke="black" stroke-width="1" />
<path d="M232,123 L225,123" stroke="#404040" />
<rect x="230" y="121" width="4" height="4" fill="white" stroke="black" stroke-width="1" />
</svg>