<?xml version="1.0" encoding="UTF-8"?>
<svg xmlns="http://www.w3.org/2000/svg" xmlns:xlink="http://www.w3.org/1999/xlink"
     width="1334" height="275" viewBox="-556 -20 1334 275">

  <style>
    @font-face {
      font-family: "TGL";
      src: local("TGL 0-17_std"), local("TGL 0-17"), local("TGL 0-17 alt");
      font-style: normal;
      font-weight: normal;
    }
    @font-face {
      font-family: "TGL";
      src: local("TGL 0-16_std"), local("TGL 0-16");
      font-style: italic;
      font-weight: normal;
    }
  </style>
<defs>
    <filter id="dropShadow" x="-20%" y="-20%" width="140%" height="140%">
      <feGaussianBlur in="SourceAlpha" stdDeviation="3" result="blur"/>
      <feOffset in="blur" dx="1" dy="1" result="offsetBlur"/>
      <feFlood flood-color="#000000" flood-opacity="0.5" result="shadowColor"/>
      <feComposite in="shadowColor" in2="offsetBlur" operator="in" result="shadow"/>
      <feMerge>
        <feMergeNode in="shadow"/>
        <feMergeNode in="SourceGraphic"/>
      </feMerge>
    </filter>
  </defs>
<path d="M 3 0
            L 227 0
            A 3 3 0 0 1 230 3
            L 230 89
            A 3 3 0 0 1 227 92
            L 224 92
            L 224 132
            L 227 132
            A 3 3 0 0 1 230 135
            L 230 222
            A 3 3 0 0 1 227 225
            L 3 225
            A 3 3 0 0 1 0 222
            L 0 135
            A 3 3 0 0 1 3 132
            L 6 132
            L 6 92
            L 3 92
            A 3 3 0 0 1 0 89
            L 0 3
            A 3 3 0 0 1 3 0
            Z" fill="#FFFFFF" 
            stroke="#A0A0A0" stroke-width="1.5" 
            stroke-linejoin="round" filter="url(#dropShadow)"/>
<path d="M 28.5 103.0
            L 44.5 103.0
            A 1 1 0 0 1 45.5 104.0
            L 45.5 107.5
            L 43.5 107.5
            L 43.5 110.5
            L 45.5 110.5
            L 45.5 120.0
            A 1 1 0 0 1 44.5 121.0
            L 28.5 121.0
            A 1 1 0 0 1 27.5 120.0
            L 27.5 110.5
            L 29.5 110.5
            L 29.5 107.5
            L 27.5 107.5
            L 27.5 104.0
            A 1 1 0 0 1 28.5 103.0
            Z" fill="#87CEEB" stroke="#1565C0" stroke-width="1" />
<text x="36.5" y="117.0" font-size="12" font-weight="bold" font-family="TGL, 'Times New Roman', Times, serif" text-anchor="middle" dominant-baseline="central">C</text>
<text x="50.5" y="117.0" font-size="14" font-family="TGL, 'Times New Roman', Times, serif" font-style="italic">E_D_FF_ANY_HYS_TMIN</text>
<text x="115.0" y="132.0" font-size="12" fill="#666666" font-family="TGL, 'Times New Roman', Times, serif" text-anchor="middle" dominant-baseline="central">1.0</text>
<path d="M-5,37 L-5,47 L0,42 Z" fill="#63B31F" stroke="none" />
<text x="12" y="46" font-size="12" text-anchor="start" font-family="TGL, 'Times New Roman', Times, serif">INIT</text>
<text x="-31" y="45" font-size="11" text-anchor="end" fill="#888" font-style="italic" font-family="TGL, 'Times New Roman', Times, serif">Event</text>
<text x="-143" y="45" font-size="11" text-anchor="end" fill="#666666" font-family="TGL, 'Times New Roman', Times, serif">Init Request</text>
<path d="M-5,63 L-5,73 L0,68 Z" fill="#63B31F" stroke="none" />
<text x="12" y="72" font-size="12" text-anchor="start" font-family="TGL, 'Times New Roman', Times, serif">CLK</text>
<text x="-31" y="71" font-size="11" text-anchor="end" fill="#888" font-style="italic" font-family="TGL, 'Times New Roman', Times, serif">Event</text>
<text x="-143" y="71" font-size="11" text-anchor="end" fill="#666666" font-family="TGL, 'Times New Roman', Times, serif">Clock</text>
<path d="M-5,144 L-5,154 L0,149 Z" fill="#3366FF" stroke="none" />
<text x="12" y="153" font-size="12" text-anchor="start" font-family="TGL, 'Times New Roman', Times, serif">D</text>
<text x="-31" y="152" font-size="11" text-anchor="end" fill="#3366FF" font-style="italic" font-family="TGL, 'Times New Roman', Times, serif">ANY_NUM</text>
<text x="-143" y="152" font-size="11" text-anchor="end" fill="#666666" font-family="TGL, 'Times New Roman', Times, serif">Value to latch</text>
<path d="M-5,170 L-5,180 L0,175 Z" fill="#3366FF" stroke="none" />
<text x="12" y="179" font-size="12" text-anchor="start" font-family="TGL, 'Times New Roman', Times, serif">HYSTERESIS</text>
<text x="-31" y="178" font-size="11" text-anchor="end" fill="#3366FF" font-style="italic" font-family="TGL, 'Times New Roman', Times, serif">ANY_NUM</text>
<text x="-143" y="178" font-size="11" text-anchor="end" fill="#666666" font-family="TGL, 'Times New Roman', Times, serif">Hysteresis band</text>
<path d="M-5,196 L-5,206 L0,201 Z" fill="#3366FF" stroke="none" />
<text x="12" y="205" font-size="12" text-anchor="start" font-family="TGL, 'Times New Roman', Times, serif">Tmin</text>
<text x="-31" y="204" font-size="11" text-anchor="end" fill="#3366FF" font-style="italic" font-family="TGL, 'Times New Roman', Times, serif">TIME</text>
<text x="-143" y="204" font-size="11" text-anchor="end" fill="#666666" font-family="TGL, 'Times New Roman', Times, serif">Minimum inter-arrival time between EI events</text>
<path d="M230,37 L230,47 L235,42 Z" fill="#63B31F" stroke="none" />
<text x="218" y="46" font-size="12" text-anchor="end" font-family="TGL, 'Times New Roman', Times, serif">INITO</text>
<text x="253" y="45" font-size="11" text-anchor="start" fill="#888" font-style="italic" font-family="TGL, 'Times New Roman', Times, serif">Event</text>
<text x="323" y="45" font-size="11" text-anchor="start" fill="#666666" font-family="TGL, 'Times New Roman', Times, serif">Init Confirmation</text>
<path d="M230,63 L230,73 L235,68 Z" fill="#63B31F" stroke="none" />
<text x="218" y="72" font-size="12" text-anchor="end" font-family="TGL, 'Times New Roman', Times, serif">EO</text>
<text x="253" y="71" font-size="11" text-anchor="start" fill="#888" font-style="italic" font-family="TGL, 'Times New Roman', Times, serif">Event</text>
<text x="323" y="71" font-size="11" text-anchor="start" fill="#666666" font-family="TGL, 'Times New Roman', Times, serif">Triggered if clock results in a change of Q</text>
<path d="M230,144 L230,154 L235,149 Z" fill="#3366FF" stroke="none" />
<text x="218" y="153" font-size="12" text-anchor="end" font-family="TGL, 'Times New Roman', Times, serif">Q</text>
<text x="253" y="152" font-size="11" text-anchor="start" fill="#3366FF" font-style="italic" font-family="TGL, 'Times New Roman', Times, serif">ANY_NUM</text>
<text x="323" y="152" font-size="11" text-anchor="start" fill="#666666" font-family="TGL, 'Times New Roman', Times, serif">Latched value</text>
<path d="M-12,42 L-12,201" stroke="#000000" stroke-width="1" />
<path d="M0,42 L-12,42" stroke="#000000" />
<rect x="-14" y="40" width="4" height="4" fill="white" stroke="black" stroke-width="1" />
<path d="M-12,201 L-5,201" stroke="#000000" />
<rect x="-14" y="199" width="4" height="4" fill="white" stroke="black" stroke-width="1" />
<path d="M-20,68 L-20,175" stroke="#000000" stroke-width="1" />
<path d="M0,68 L-20,68" stroke="#000000" />
<rect x="-22" y="66" width="4" height="4" fill="white" stroke="black" stroke-width="1" />
<path d="M-20,149 L-5,149" stroke="#000000" />
<rect x="-22" y="147" width="4" height="4" fill="white" stroke="black" stroke-width="1" />
<path d="M-20,175 L-5,175" stroke="#000000" />
<rect x="-22" y="173" width="4" height="4" fill="white" stroke="black" stroke-width="1" />
<path d="M242,68 L242,149" stroke="#000000" stroke-width="1" />
<path d="M230,68 L242,68" stroke="#000000" />
<rect x="240" y="66" width="4" height="4" fill="white" stroke="black" stroke-width="1" />
<path d="M242,149 L235,149" stroke="#000000" />
<rect x="240" y="147" width="4" height="4" fill="white" stroke="black" stroke-width="1" />
</svg>