<?xml version="1.0" encoding="UTF-8"?>
<svg xmlns="http://www.w3.org/2000/svg" xmlns:xlink="http://www.w3.org/1999/xlink"
     width="968" height="275" viewBox="-548 -20 968 275">
<defs>
</defs>
<rect x="3" y="3" width="130" height="225" fill="#000000" fill-opacity="0.1" rx="2" ry="2" />
<path d="M0,0 H130 V66 H124 V106 H130 V225 H0 V106 H6 V66 H0 Z" fill="#ffffff" stroke="#000000" stroke-width="2" />
<path d="M0,30 L130,30" stroke="#000000" stroke-width="1" />
<text x="65.0" y="84.0" font-size="14" fontWeight="bold" font-family="Verdana, sans-serif" font-style="italic" text-anchor="middle" dominant-baseline="central">AX_MUX_3</text>
<text x="65.0" y="98.0" font-size="10" fill="#000" font-family="Consolas, monospace" text-anchor="middle" dominant-baseline="central">1.0</text>
<path d="M-5,37 L-5,47 L0,42 Z" fill="#63B31F" stroke="none" />
<text x="12" y="46" font-size="12" text-anchor="start" font-family="Consolas, monospace">REQ</text>
<text x="-23" y="45" font-size="11" text-anchor="end" fill="#888" font-style="italic" font-family="Verdana, sans-serif">Event</text>
<text x="-93" y="45" font-size="11" text-anchor="end" fill="#666666" font-family="Verdana, sans-serif">Set Index K</text>
<rect x="-5.0" y="118.0" width="10" height="10" fill="white" stroke="#845DAF" stroke-width="2.5" />
<text x="12" y="127" font-size="12" text-anchor="start" font-family="Consolas, monospace">IN1</text>
<text x="-23" y="126" font-size="11" text-anchor="end" fill="#000" font-style="italic" font-family="Verdana, sans-serif">AX</text>
<text x="-93" y="126" font-size="11" text-anchor="end" fill="#666666" font-family="Verdana, sans-serif">Input value 1</text>
<rect x="-5.0" y="144.0" width="10" height="10" fill="white" stroke="#845DAF" stroke-width="2.5" />
<text x="12" y="153" font-size="12" text-anchor="start" font-family="Consolas, monospace">IN2</text>
<text x="-23" y="152" font-size="11" text-anchor="end" fill="#000" font-style="italic" font-family="Verdana, sans-serif">AX</text>
<text x="-93" y="152" font-size="11" text-anchor="end" fill="#666666" font-family="Verdana, sans-serif">Input value 2</text>
<rect x="-5.0" y="170.0" width="10" height="10" fill="white" stroke="#845DAF" stroke-width="2.5" />
<text x="12" y="179" font-size="12" text-anchor="start" font-family="Consolas, monospace">IN3</text>
<text x="-23" y="178" font-size="11" text-anchor="end" fill="#000" font-style="italic" font-family="Verdana, sans-serif">AX</text>
<text x="-93" y="178" font-size="11" text-anchor="end" fill="#666666" font-family="Verdana, sans-serif">Input value 3</text>
<path d="M-5,196 L-5,206 L0,201 Z" fill="#18519E" stroke="none" />
<text x="12" y="205" font-size="12" text-anchor="start" font-family="Consolas, monospace">K</text>
<text x="-23" y="204" font-size="11" text-anchor="end" fill="#18519E" font-style="italic" font-family="Verdana, sans-serif">UINT</text>
<text x="-93" y="204" font-size="11" text-anchor="end" fill="#666666" font-family="Verdana, sans-serif">index</text>
<path d="M130,37 L130,47 L135,42 Z" fill="#63B31F" stroke="none" />
<text x="118" y="46" font-size="12" text-anchor="end" font-family="Consolas, monospace">CNF</text>
<text x="145" y="45" font-size="11" text-anchor="start" fill="#888" font-style="italic" font-family="Verdana, sans-serif">Event</text>
<text x="215" y="45" font-size="11" text-anchor="start" fill="#666666" font-family="Verdana, sans-serif">Confirmation of Set Index K</text>
<rect x="125.0" y="118.0" width="10" height="10" fill="#845DAF" stroke="none" />
<text x="118" y="127" font-size="12" text-anchor="end" font-family="Consolas, monospace">OUT</text>
<text x="145" y="126" font-size="11" text-anchor="start" fill="#000" font-style="italic" font-family="Verdana, sans-serif">AX</text>
<text x="215" y="126" font-size="11" text-anchor="start" fill="#666666" font-family="Verdana, sans-serif">IN1 for K = 0, IN2 for K = 1, IN3 for K = 2</text>
<path d="M-12,42 L-12,201" stroke="#404040" stroke-width="1" />
<path d="M0,42 L-12,42" stroke="#404040" />
<rect x="-14" y="40" width="4" height="4" fill="white" stroke="black" stroke-width="1" />
<path d="M-12,201 L-5,201" stroke="#404040" />
<rect x="-14" y="199" width="4" height="4" fill="white" stroke="black" stroke-width="1" />
</svg>