<?xml version="1.0" encoding="UTF-8"?>
<svg xmlns="http://www.w3.org/2000/svg" xmlns:xlink="http://www.w3.org/1999/xlink"
     width="1018" height="249" viewBox="-540 -20 1018 249">
<defs>
</defs>
<rect x="3" y="3" width="180" height="199" fill="#000000" fill-opacity="0.1" rx="2" ry="2" />
<path d="M0,0 H180 V66 H174 V106 H180 V199 H0 V106 H6 V66 H0 Z" fill="#ffffff" stroke="#000000" stroke-width="2" />
<path d="M0,30 L180,30" stroke="#000000" stroke-width="1" />
<text x="90.0" y="84.0" font-size="14" fontWeight="bold" font-family="Verdana, sans-serif" font-style="italic" text-anchor="middle" dominant-baseline="central">LinksRechts_AX</text>
<text x="90.0" y="98.0" font-size="10" fill="#000" font-family="Consolas, monospace" text-anchor="middle" dominant-baseline="central">1.1</text>
<rect x="-5.0" y="118.0" width="10" height="10" fill="white" stroke="#845DAF" stroke-width="2.5" />
<text x="12" y="127" font-size="12" text-anchor="start" font-family="Consolas, monospace">EIN</text>
<text x="-15" y="126" font-size="11" text-anchor="end" fill="#000" font-style="italic" font-family="Verdana, sans-serif">AX</text>
<text x="-85" y="126" font-size="11" text-anchor="end" fill="#666666" font-family="Verdana, sans-serif">Einschalten</text>
<rect x="-5.0" y="144.0" width="10" height="10" fill="white" stroke="#845DAF" stroke-width="2.5" />
<text x="12" y="153" font-size="12" text-anchor="start" font-family="Consolas, monospace">DI_Rechts</text>
<text x="-15" y="152" font-size="11" text-anchor="end" fill="#000" font-style="italic" font-family="Verdana, sans-serif">AX</text>
<text x="-85" y="152" font-size="11" text-anchor="end" fill="#666666" font-family="Verdana, sans-serif">Nur Rechtslauf</text>
<rect x="-5.0" y="170.0" width="10" height="10" fill="white" stroke="#845DAF" stroke-width="2.5" />
<text x="12" y="179" font-size="12" text-anchor="start" font-family="Consolas, monospace">DI_Links</text>
<text x="-15" y="178" font-size="11" text-anchor="end" fill="#000" font-style="italic" font-family="Verdana, sans-serif">AX</text>
<text x="-85" y="178" font-size="11" text-anchor="end" fill="#666666" font-family="Verdana, sans-serif">Nur Linkslauf</text>
<path d="M180,37 L180,47 L185,42 Z" fill="#63B31F" stroke="none" />
<text x="168" y="46" font-size="12" text-anchor="end" font-family="Consolas, monospace">EO</text>
<text x="203" y="45" font-size="11" text-anchor="start" fill="#888" font-style="italic" font-family="Verdana, sans-serif">Event</text>
<rect x="175.0" y="118.0" width="10" height="10" fill="#845DAF" stroke="none" />
<text x="168" y="127" font-size="12" text-anchor="end" font-family="Consolas, monospace">Rechts</text>
<text x="203" y="126" font-size="11" text-anchor="start" fill="#000" font-style="italic" font-family="Verdana, sans-serif">AX</text>
<text x="273" y="126" font-size="11" text-anchor="start" fill="#666666" font-family="Verdana, sans-serif">Rechtslauf</text>
<rect x="175.0" y="144.0" width="10" height="10" fill="#845DAF" stroke="none" />
<text x="168" y="153" font-size="12" text-anchor="end" font-family="Consolas, monospace">Links</text>
<text x="203" y="152" font-size="11" text-anchor="start" fill="#000" font-style="italic" font-family="Verdana, sans-serif">AX</text>
<text x="273" y="152" font-size="11" text-anchor="start" fill="#666666" font-family="Verdana, sans-serif">Linkslauf</text>
<path d="M180,170 L180,180 L185,175 Z" fill="#BD8663" stroke="none" />
<text x="168" y="179" font-size="12" text-anchor="end" font-family="Consolas, monospace">STATE</text>
<text x="203" y="178" font-size="11" text-anchor="start" fill="#BD8663" font-style="italic" font-family="Verdana, sans-serif">STRING</text>
<path d="M192,42 L192,175" stroke="#404040" stroke-width="1" />
<path d="M180,42 L192,42" stroke="#404040" />
<rect x="190" y="40" width="4" height="4" fill="white" stroke="black" stroke-width="1" />
<path d="M192,175 L185,175" stroke="#404040" />
<rect x="190" y="173" width="4" height="4" fill="white" stroke="black" stroke-width="1" />
</svg>