<?xml version="1.0" encoding="UTF-8"?>
<svg xmlns="http://www.w3.org/2000/svg" xmlns:xlink="http://www.w3.org/1999/xlink"
     width="976" height="249" viewBox="-540 -20 976 249">
<defs>
</defs>
<rect x="3" y="3" width="130" height="199" fill="#000000" fill-opacity="0.1" rx="2" ry="2" />
<path d="M0,0 H130 V92 H124 V132 H130 V199 H0 V132 H6 V92 H0 Z" fill="#ffffff" stroke="#606060" stroke-width="2" />
<path d="M0,30 L130,30" stroke="#606060" stroke-width="1" />
<text x="65.0" y="110.0" font-size="14" fontWeight="bold" font-family="Verdana, sans-serif" font-style="italic" text-anchor="middle" dominant-baseline="central">A2X</text>
<text x="65.0" y="124.0" font-size="10" fill="#000" font-family="Consolas, monospace" text-anchor="middle" dominant-baseline="central">1.0</text>
<path d="M130,37 L130,47 L135,42 Z" fill="#5cb85c" stroke="none" />
<text x="118" y="46" font-size="12" text-anchor="end" font-family="Consolas, monospace">E_UP</text>
<text x="161" y="45" font-size="11" text-anchor="start" fill="#888" font-style="italic" font-family="Verdana, sans-serif">Event</text>
<text x="231" y="45" font-size="11" text-anchor="start" fill="#666666" font-family="Verdana, sans-serif">UP</text>
<path d="M130,63 L130,73 L135,68 Z" fill="#5cb85c" stroke="none" />
<text x="118" y="72" font-size="12" text-anchor="end" font-family="Consolas, monospace">E_DOWN</text>
<text x="161" y="71" font-size="11" text-anchor="start" fill="#888" font-style="italic" font-family="Verdana, sans-serif">Event</text>
<text x="231" y="71" font-size="11" text-anchor="start" fill="#666666" font-family="Verdana, sans-serif">DOWN</text>
<path d="M130,144 L130,154 L135,149 Z" fill="#0066cc" stroke="none" />
<text x="118" y="153" font-size="12" text-anchor="end" font-family="Consolas, monospace">UP</text>
<text x="161" y="152" font-size="11" text-anchor="start" fill="#0066cc" font-style="italic" font-family="Verdana, sans-serif">BOOL</text>
<text x="231" y="152" font-size="11" text-anchor="start" fill="#666666" font-family="Verdana, sans-serif">TRUE = forward, up, right, clockwise</text>
<path d="M130,170 L130,180 L135,175 Z" fill="#0066cc" stroke="none" />
<text x="118" y="179" font-size="12" text-anchor="end" font-family="Consolas, monospace">DOWN</text>
<text x="161" y="178" font-size="11" text-anchor="start" fill="#0066cc" font-style="italic" font-family="Verdana, sans-serif">BOOL</text>
<text x="231" y="178" font-size="11" text-anchor="start" fill="#666666" font-family="Verdana, sans-serif">TRUE = backward, down, left, counter-clockwise</text>
<path d="M142,42 L142,149" stroke="#404040" stroke-width="1" />
<path d="M130,42 L142,42" stroke="#404040" />
<rect x="140" y="40" width="4" height="4" fill="white" stroke="black" stroke-width="1" />
<path d="M142,149 L135,149" stroke="#404040" />
<rect x="140" y="147" width="4" height="4" fill="white" stroke="black" stroke-width="1" />
<path d="M150,68 L150,175" stroke="#404040" stroke-width="1" />
<path d="M130,68 L150,68" stroke="#404040" />
<rect x="148" y="66" width="4" height="4" fill="white" stroke="black" stroke-width="1" />
<path d="M150,175 L135,175" stroke="#404040" />
<rect x="148" y="173" width="4" height="4" fill="white" stroke="black" stroke-width="1" />
</svg>