<?xml version="1.0" encoding="UTF-8"?>
<svg xmlns="http://www.w3.org/2000/svg" xmlns:xlink="http://www.w3.org/1999/xlink"
     width="2338.0" height="852.3076923076924" viewBox="0 0 2338.0 852.3076923076924">
<defs>
</defs>
<rect x="0" y="0" width="2338.0" height="852.3076923076924" fill="#ffffff" />
<text x="1169.0" y="25" font-size="16" font-weight="bold" font-family="Verdana, sans-serif" fill="#000000" text-anchor="middle" dominant-baseline="central">Uebung_214: Standard IEC 61131-3 FB_CTU_ULINT (Vorwärtszähler, ULINT) mit Terminal-Ausgabe</text>
<path d="M327.0,289.38461538461536 C534.2307692307693,289.38461538461536,810.5384615384615,375.84615384615387,1017.7692307692308,375.84615384615387" stroke="#404040" stroke-width="1.5" fill="none" />
<path d="M317.0,566.3076923076924 C527.2307692307693,566.3076923076924,807.5384615384615,375.84615384615387,1017.7692307692308,375.84615384615387" stroke="#404040" stroke-width="1.5" fill="none" />
<path d="M1197.769230769231,375.84615384615387 C1393.0000000000002,375.84615384615387,1653.3076923076924,208.0,1848.5384615384617,208.0" stroke="#404040" stroke-width="1.5" fill="none" />
<path d="M1197.769230769231,375.84615384615387 C1268.3846153846155,375.84615384615387,1362.5384615384617,514.3076923076924,1433.1538461538462,514.3076923076924" stroke="#404040" stroke-width="1.5" fill="none" />
<path d="M1653.1538461538462,514.3076923076924 C1753.3076923076924,514.3076923076924,1886.8461538461538,484.92307692307696,1987.0,484.92307692307696" stroke="#404040" stroke-width="1.5" fill="none" />
<path d="M327.0,422.38461538461536 C534.2307692307693,422.38461538461536,810.5384615384615,456.84615384615387,1017.7692307692308,456.84615384615387" stroke="#404040" stroke-width="1.5" fill="none" />
<path d="M317.0,699.3076923076924 C527.2307692307693,699.3076923076924,807.5384615384615,482.84615384615387,1017.7692307692308,482.84615384615387" stroke="#404040" stroke-width="1.5" fill="none" />
<path d="M1197.769230769231,456.84615384615387 C1393.0000000000002,456.84615384615387,1653.3076923076924,341.0,1848.5384615384617,341.0" stroke="#404040" stroke-width="1.5" fill="none" />
<path d="M1197.769230769231,482.84615384615387 C1268.3846153846155,482.84615384615387,1362.5384615384617,595.3076923076924,1433.1538461538462,595.3076923076924" stroke="#404040" stroke-width="1.5" fill="none" />
<path d="M1653.1538461538462,595.3076923076924 C1753.3076923076924,595.3076923076924,1886.8461538461538,591.9230769230769,1987.0,591.9230769230769" stroke="#404040" stroke-width="1.5" fill="none" />
<rect x="1020.7692307692308" y="336.84615384615387" width="180" height="216" fill="#000000" fill-opacity="0.1" rx="2" ry="2" />
<path d="M1017.7692307692308,333.84615384615387 H1197.769230769231 V399.84615384615387 H1191.769230769231 V439.84615384615387 H1197.769230769231 V549.8461538461538 H1017.7692307692308 V439.84615384615387 H1023.7692307692308 V399.84615384615387 H1017.7692307692308 Z" fill="#ffffff" stroke="#000000" stroke-width="2" />
<path d="M1017.7692307692308,363.84615384615387 L1197.769230769231,363.84615384615387" stroke="#000000" stroke-width="1" />
<text x="1107.769230769231" y="417.84615384615387" font-size="14" font-weight="bold" font-family="Verdana, sans-serif" font-style="italic" text-anchor="middle" dominant-baseline="central">FB_CTU_ULINT</text>
<text x="1107.769230769231" y="431.84615384615387" font-size="10" fill="#666" font-family="Consolas, monospace" text-anchor="middle" dominant-baseline="central">FB_CTU_ULINT</text>
<text x="1107.769230769231" y="443.84615384615387" font-size="9" fill="#888" font-family="Consolas, monospace" text-anchor="middle" dominant-baseline="central">PV=ULINT#5</text>
<path d="M1012.7692307692308,370.84615384615387 L1012.7692307692308,380.84615384615387 L1017.7692307692308,375.84615384615387 Z" fill="#63B31F" stroke="none" />
<text x="1029.769230769231" y="379.84615384615387" font-size="12" text-anchor="start" font-family="Consolas, monospace">REQ</text>
<text x="1002.7692307692308" y="378.84615384615387" font-size="11" text-anchor="end" fill="#63B31F" font-style="italic" font-family="Verdana, sans-serif">Event</text>
<path d="M1012.7692307692308,451.84615384615387 L1012.7692307692308,461.84615384615387 L1017.7692307692308,456.84615384615387 Z" fill="#9FA48A" stroke="none" />
<text x="1029.769230769231" y="460.84615384615387" font-size="12" text-anchor="start" font-family="Consolas, monospace">CU</text>
<text x="1002.7692307692308" y="459.84615384615387" font-size="11" text-anchor="end" fill="#9FA48A" font-style="italic" font-family="Verdana, sans-serif">BOOL</text>
<path d="M1012.7692307692308,477.84615384615387 L1012.7692307692308,487.84615384615387 L1017.7692307692308,482.84615384615387 Z" fill="#9FA48A" stroke="none" />
<text x="1029.769230769231" y="486.84615384615387" font-size="12" text-anchor="start" font-family="Consolas, monospace">R</text>
<text x="1002.7692307692308" y="485.84615384615387" font-size="11" text-anchor="end" fill="#9FA48A" font-style="italic" font-family="Verdana, sans-serif">BOOL</text>
<path d="M1012.7692307692308,503.84615384615387 L1012.7692307692308,513.8461538461538 L1017.7692307692308,508.84615384615387 Z" fill="#18519E" stroke="none" />
<text x="1029.769230769231" y="512.8461538461538" font-size="12" text-anchor="start" font-family="Consolas, monospace">PV</text>
<text x="1002.7692307692308" y="511.84615384615387" font-size="11" text-anchor="end" fill="#18519E" font-style="italic" font-family="Verdana, sans-serif">ULINT</text>
<path d="M1202.769230769231,370.84615384615387 L1202.769230769231,380.84615384615387 L1197.769230769231,375.84615384615387 Z" fill="#63B31F" stroke="none" />
<text x="1185.769230769231" y="379.84615384615387" font-size="12" text-anchor="end" font-family="Consolas, monospace">CNF</text>
<text x="1212.769230769231" y="378.84615384615387" font-size="11" text-anchor="start" fill="#63B31F" font-style="italic" font-family="Verdana, sans-serif">Event</text>
<path d="M1202.769230769231,451.84615384615387 L1202.769230769231,461.84615384615387 L1197.769230769231,456.84615384615387 Z" fill="#9FA48A" stroke="none" />
<text x="1185.769230769231" y="460.84615384615387" font-size="12" text-anchor="end" font-family="Consolas, monospace">Q</text>
<text x="1212.769230769231" y="459.84615384615387" font-size="11" text-anchor="start" fill="#9FA48A" font-style="italic" font-family="Verdana, sans-serif">BOOL</text>
<path d="M1202.769230769231,477.84615384615387 L1202.769230769231,487.84615384615387 L1197.769230769231,482.84615384615387 Z" fill="#18519E" stroke="none" />
<text x="1185.769230769231" y="486.84615384615387" font-size="12" text-anchor="end" font-family="Consolas, monospace">CV</text>
<text x="1212.769230769231" y="485.84615384615387" font-size="11" text-anchor="start" fill="#18519E" font-style="italic" font-family="Verdana, sans-serif">ULINT</text>
<rect x="190.0" y="198.3846153846154" width="140" height="280" fill="#000000" fill-opacity="0.1" rx="2" ry="2" />
<path d="M187.0,195.3846153846154 H327.0 V313.38461538461536 H321.0 V353.38461538461536 H327.0 V475.38461538461536 H187.0 V353.38461538461536 H193.0 V313.38461538461536 H187.0 Z" fill="#ffffff" stroke="#000000" stroke-width="2" />
<path d="M187.0,225.3846153846154 L327.0,225.3846153846154" stroke="#000000" stroke-width="1" />
<text x="257.0" y="331.38461538461536" font-size="14" font-weight="bold" font-family="Verdana, sans-serif" font-style="italic" text-anchor="middle" dominant-baseline="central">Input_CU</text>
<text x="257.0" y="345.38461538461536" font-size="10" fill="#666" font-family="Consolas, monospace" text-anchor="middle" dominant-baseline="central">logiBUS_IX</text>
<text x="257.0" y="357.38461538461536" font-size="9" fill="#888" font-family="Consolas, monospace" text-anchor="middle" dominant-baseline="central">QI=TRUE</text>
<text x="257.0" y="369.38461538461536" font-size="9" fill="#888" font-family="Consolas, monospace" text-anchor="middle" dominant-baseline="central">Input=Input_I1</text>
<path d="M182.0,232.3846153846154 L182.0,242.3846153846154 L187.0,237.3846153846154 Z" fill="#63B31F" stroke="none" />
<text x="199.0" y="241.3846153846154" font-size="12" text-anchor="start" font-family="Consolas, monospace">INIT</text>
<text x="172.0" y="240.3846153846154" font-size="11" text-anchor="end" fill="#63B31F" font-style="italic" font-family="Verdana, sans-serif">Event</text>
<path d="M182.0,258.38461538461536 L182.0,268.38461538461536 L187.0,263.38461538461536 Z" fill="#63B31F" stroke="none" />
<text x="199.0" y="267.38461538461536" font-size="12" text-anchor="start" font-family="Consolas, monospace">REQ</text>
<text x="172.0" y="266.38461538461536" font-size="11" text-anchor="end" fill="#63B31F" font-style="italic" font-family="Verdana, sans-serif">Event</text>
<path d="M182.0,365.38461538461536 L182.0,375.38461538461536 L187.0,370.38461538461536 Z" fill="#9FA48A" stroke="none" />
<text x="199.0" y="374.38461538461536" font-size="12" text-anchor="start" font-family="Consolas, monospace">QI</text>
<text x="172.0" y="373.38461538461536" font-size="11" text-anchor="end" fill="#9FA48A" font-style="italic" font-family="Verdana, sans-serif">BOOL</text>
<path d="M182.0,391.38461538461536 L182.0,401.38461538461536 L187.0,396.38461538461536 Z" fill="#BD8663" stroke="none" />
<text x="199.0" y="400.38461538461536" font-size="12" text-anchor="start" font-family="Consolas, monospace">PARAMS</text>
<text x="172.0" y="399.38461538461536" font-size="11" text-anchor="end" fill="#BD8663" font-style="italic" font-family="Verdana, sans-serif">STRING</text>
<path d="M182.0,417.38461538461536 L182.0,427.38461538461536 L187.0,422.38461538461536 Z" fill="#000000" stroke="none" />
<text x="199.0" y="426.38461538461536" font-size="12" text-anchor="start" font-family="Consolas, monospace">Input</text>
<text x="172.0" y="425.38461538461536" font-size="11" text-anchor="end" fill="#000000" font-style="italic" font-family="Verdana, sans-serif">logiBUS_DI_S</text>
<path d="M332.0,232.3846153846154 L332.0,242.3846153846154 L327.0,237.3846153846154 Z" fill="#63B31F" stroke="none" />
<text x="315.0" y="241.3846153846154" font-size="12" text-anchor="end" font-family="Consolas, monospace">INITO</text>
<text x="342.0" y="240.3846153846154" font-size="11" text-anchor="start" fill="#63B31F" font-style="italic" font-family="Verdana, sans-serif">Event</text>
<path d="M332.0,258.38461538461536 L332.0,268.38461538461536 L327.0,263.38461538461536 Z" fill="#63B31F" stroke="none" />
<text x="315.0" y="267.38461538461536" font-size="12" text-anchor="end" font-family="Consolas, monospace">CNF</text>
<text x="342.0" y="266.38461538461536" font-size="11" text-anchor="start" fill="#63B31F" font-style="italic" font-family="Verdana, sans-serif">Event</text>
<path d="M332.0,284.38461538461536 L332.0,294.38461538461536 L327.0,289.38461538461536 Z" fill="#63B31F" stroke="none" />
<text x="315.0" y="293.38461538461536" font-size="12" text-anchor="end" font-family="Consolas, monospace">IND</text>
<text x="342.0" y="292.38461538461536" font-size="11" text-anchor="start" fill="#63B31F" font-style="italic" font-family="Verdana, sans-serif">Event</text>
<path d="M332.0,365.38461538461536 L332.0,375.38461538461536 L327.0,370.38461538461536 Z" fill="#9FA48A" stroke="none" />
<text x="315.0" y="374.38461538461536" font-size="12" text-anchor="end" font-family="Consolas, monospace">QO</text>
<text x="342.0" y="373.38461538461536" font-size="11" text-anchor="start" fill="#9FA48A" font-style="italic" font-family="Verdana, sans-serif">BOOL</text>
<path d="M332.0,391.38461538461536 L332.0,401.38461538461536 L327.0,396.38461538461536 Z" fill="#BD8663" stroke="none" />
<text x="315.0" y="400.38461538461536" font-size="12" text-anchor="end" font-family="Consolas, monospace">STATUS</text>
<text x="342.0" y="399.38461538461536" font-size="11" text-anchor="start" fill="#BD8663" font-style="italic" font-family="Verdana, sans-serif">STRING</text>
<path d="M332.0,417.38461538461536 L332.0,427.38461538461536 L327.0,422.38461538461536 Z" fill="#9FA48A" stroke="none" />
<text x="315.0" y="426.38461538461536" font-size="12" text-anchor="end" font-family="Consolas, monospace">IN</text>
<text x="342.0" y="425.38461538461536" font-size="11" text-anchor="start" fill="#9FA48A" font-style="italic" font-family="Verdana, sans-serif">BOOL</text>
<rect x="190.0" y="475.3076923076923" width="130" height="280" fill="#000000" fill-opacity="0.1" rx="2" ry="2" />
<path d="M187.0,472.3076923076923 H317.0 V590.3076923076924 H311.0 V630.3076923076924 H317.0 V752.3076923076924 H187.0 V630.3076923076924 H193.0 V590.3076923076924 H187.0 Z" fill="#ffffff" stroke="#000000" stroke-width="2" />
<path d="M187.0,502.3076923076923 L317.0,502.3076923076923" stroke="#000000" stroke-width="1" />
<text x="252.0" y="608.3076923076924" font-size="14" font-weight="bold" font-family="Verdana, sans-serif" font-style="italic" text-anchor="middle" dominant-baseline="central">Input_R</text>
<text x="252.0" y="622.3076923076924" font-size="10" fill="#666" font-family="Consolas, monospace" text-anchor="middle" dominant-baseline="central">logiBUS_IX</text>
<text x="252.0" y="634.3076923076924" font-size="9" fill="#888" font-family="Consolas, monospace" text-anchor="middle" dominant-baseline="central">QI=TRUE</text>
<text x="252.0" y="646.3076923076924" font-size="9" fill="#888" font-family="Consolas, monospace" text-anchor="middle" dominant-baseline="central">Input=Input_I2</text>
<path d="M182.0,509.3076923076924 L182.0,519.3076923076924 L187.0,514.3076923076924 Z" fill="#63B31F" stroke="none" />
<text x="199.0" y="518.3076923076924" font-size="12" text-anchor="start" font-family="Consolas, monospace">INIT</text>
<text x="172.0" y="517.3076923076924" font-size="11" text-anchor="end" fill="#63B31F" font-style="italic" font-family="Verdana, sans-serif">Event</text>
<path d="M182.0,535.3076923076924 L182.0,545.3076923076924 L187.0,540.3076923076924 Z" fill="#63B31F" stroke="none" />
<text x="199.0" y="544.3076923076924" font-size="12" text-anchor="start" font-family="Consolas, monospace">REQ</text>
<text x="172.0" y="543.3076923076924" font-size="11" text-anchor="end" fill="#63B31F" font-style="italic" font-family="Verdana, sans-serif">Event</text>
<path d="M182.0,642.3076923076924 L182.0,652.3076923076924 L187.0,647.3076923076924 Z" fill="#9FA48A" stroke="none" />
<text x="199.0" y="651.3076923076924" font-size="12" text-anchor="start" font-family="Consolas, monospace">QI</text>
<text x="172.0" y="650.3076923076924" font-size="11" text-anchor="end" fill="#9FA48A" font-style="italic" font-family="Verdana, sans-serif">BOOL</text>
<path d="M182.0,668.3076923076924 L182.0,678.3076923076924 L187.0,673.3076923076924 Z" fill="#BD8663" stroke="none" />
<text x="199.0" y="677.3076923076924" font-size="12" text-anchor="start" font-family="Consolas, monospace">PARAMS</text>
<text x="172.0" y="676.3076923076924" font-size="11" text-anchor="end" fill="#BD8663" font-style="italic" font-family="Verdana, sans-serif">STRING</text>
<path d="M182.0,694.3076923076924 L182.0,704.3076923076924 L187.0,699.3076923076924 Z" fill="#000000" stroke="none" />
<text x="199.0" y="703.3076923076924" font-size="12" text-anchor="start" font-family="Consolas, monospace">Input</text>
<text x="172.0" y="702.3076923076924" font-size="11" text-anchor="end" fill="#000000" font-style="italic" font-family="Verdana, sans-serif">logiBUS_DI_S</text>
<path d="M322.0,509.3076923076924 L322.0,519.3076923076924 L317.0,514.3076923076924 Z" fill="#63B31F" stroke="none" />
<text x="305.0" y="518.3076923076924" font-size="12" text-anchor="end" font-family="Consolas, monospace">INITO</text>
<text x="332.0" y="517.3076923076924" font-size="11" text-anchor="start" fill="#63B31F" font-style="italic" font-family="Verdana, sans-serif">Event</text>
<path d="M322.0,535.3076923076924 L322.0,545.3076923076924 L317.0,540.3076923076924 Z" fill="#63B31F" stroke="none" />
<text x="305.0" y="544.3076923076924" font-size="12" text-anchor="end" font-family="Consolas, monospace">CNF</text>
<text x="332.0" y="543.3076923076924" font-size="11" text-anchor="start" fill="#63B31F" font-style="italic" font-family="Verdana, sans-serif">Event</text>
<path d="M322.0,561.3076923076924 L322.0,571.3076923076924 L317.0,566.3076923076924 Z" fill="#63B31F" stroke="none" />
<text x="305.0" y="570.3076923076924" font-size="12" text-anchor="end" font-family="Consolas, monospace">IND</text>
<text x="332.0" y="569.3076923076924" font-size="11" text-anchor="start" fill="#63B31F" font-style="italic" font-family="Verdana, sans-serif">Event</text>
<path d="M322.0,642.3076923076924 L322.0,652.3076923076924 L317.0,647.3076923076924 Z" fill="#9FA48A" stroke="none" />
<text x="305.0" y="651.3076923076924" font-size="12" text-anchor="end" font-family="Consolas, monospace">QO</text>
<text x="332.0" y="650.3076923076924" font-size="11" text-anchor="start" fill="#9FA48A" font-style="italic" font-family="Verdana, sans-serif">BOOL</text>
<path d="M322.0,668.3076923076924 L322.0,678.3076923076924 L317.0,673.3076923076924 Z" fill="#BD8663" stroke="none" />
<text x="305.0" y="677.3076923076924" font-size="12" text-anchor="end" font-family="Consolas, monospace">STATUS</text>
<text x="332.0" y="676.3076923076924" font-size="11" text-anchor="start" fill="#BD8663" font-style="italic" font-family="Verdana, sans-serif">STRING</text>
<path d="M322.0,694.3076923076924 L322.0,704.3076923076924 L317.0,699.3076923076924 Z" fill="#9FA48A" stroke="none" />
<text x="305.0" y="703.3076923076924" font-size="12" text-anchor="end" font-family="Consolas, monospace">IN</text>
<text x="332.0" y="702.3076923076924" font-size="11" text-anchor="start" fill="#9FA48A" font-style="italic" font-family="Verdana, sans-serif">BOOL</text>
<rect x="1851.5384615384617" y="143.0" width="150" height="280" fill="#000000" fill-opacity="0.1" rx="2" ry="2" />
<path d="M1848.5384615384617,140.0 H1998.5384615384617 V232.0 H1992.5384615384617 V272.0 H1998.5384615384617 V420.0 H1848.5384615384617 V272.0 H1854.5384615384617 V232.0 H1848.5384615384617 Z" fill="#ffffff" stroke="#000000" stroke-width="2" />
<path d="M1848.5384615384617,170.0 L1998.5384615384617,170.0" stroke="#000000" stroke-width="1" />
<text x="1923.5384615384617" y="250.0" font-size="14" font-weight="bold" font-family="Verdana, sans-serif" font-style="italic" text-anchor="middle" dominant-baseline="central">Output_Q1</text>
<text x="1923.5384615384617" y="264.0" font-size="10" fill="#666" font-family="Consolas, monospace" text-anchor="middle" dominant-baseline="central">logiBUS_QX</text>
<text x="1923.5384615384617" y="276.0" font-size="9" fill="#888" font-family="Consolas, monospace" text-anchor="middle" dominant-baseline="central">QI=TRUE</text>
<text x="1923.5384615384617" y="288.0" font-size="9" fill="#888" font-family="Consolas, monospace" text-anchor="middle" dominant-baseline="central">Output=Output_Q1</text>
<path d="M1843.5384615384617,177.0 L1843.5384615384617,187.0 L1848.5384615384617,182.0 Z" fill="#63B31F" stroke="none" />
<text x="1860.5384615384617" y="186.0" font-size="12" text-anchor="start" font-family="Consolas, monospace">INIT</text>
<text x="1833.5384615384617" y="185.0" font-size="11" text-anchor="end" fill="#63B31F" font-style="italic" font-family="Verdana, sans-serif">Event</text>
<path d="M1843.5384615384617,203.0 L1843.5384615384617,213.0 L1848.5384615384617,208.0 Z" fill="#63B31F" stroke="none" />
<text x="1860.5384615384617" y="212.0" font-size="12" text-anchor="start" font-family="Consolas, monospace">REQ</text>
<text x="1833.5384615384617" y="211.0" font-size="11" text-anchor="end" fill="#63B31F" font-style="italic" font-family="Verdana, sans-serif">Event</text>
<path d="M1843.5384615384617,284.0 L1843.5384615384617,294.0 L1848.5384615384617,289.0 Z" fill="#9FA48A" stroke="none" />
<text x="1860.5384615384617" y="293.0" font-size="12" text-anchor="start" font-family="Consolas, monospace">QI</text>
<text x="1833.5384615384617" y="292.0" font-size="11" text-anchor="end" fill="#9FA48A" font-style="italic" font-family="Verdana, sans-serif">BOOL</text>
<path d="M1843.5384615384617,310.0 L1843.5384615384617,320.0 L1848.5384615384617,315.0 Z" fill="#BD8663" stroke="none" />
<text x="1860.5384615384617" y="319.0" font-size="12" text-anchor="start" font-family="Consolas, monospace">PARAMS</text>
<text x="1833.5384615384617" y="318.0" font-size="11" text-anchor="end" fill="#BD8663" font-style="italic" font-family="Verdana, sans-serif">STRING</text>
<path d="M1843.5384615384617,336.0 L1843.5384615384617,346.0 L1848.5384615384617,341.0 Z" fill="#9FA48A" stroke="none" />
<text x="1860.5384615384617" y="345.0" font-size="12" text-anchor="start" font-family="Consolas, monospace">OUT</text>
<text x="1833.5384615384617" y="344.0" font-size="11" text-anchor="end" fill="#9FA48A" font-style="italic" font-family="Verdana, sans-serif">BOOL</text>
<path d="M1843.5384615384617,362.0 L1843.5384615384617,372.0 L1848.5384615384617,367.0 Z" fill="#000000" stroke="none" />
<text x="1860.5384615384617" y="371.0" font-size="12" text-anchor="start" font-family="Consolas, monospace">Output</text>
<text x="1833.5384615384617" y="370.0" font-size="11" text-anchor="end" fill="#000000" font-style="italic" font-family="Verdana, sans-serif">logiBUS_DO_S</text>
<path d="M2003.5384615384617,177.0 L2003.5384615384617,187.0 L1998.5384615384617,182.0 Z" fill="#63B31F" stroke="none" />
<text x="1986.5384615384617" y="186.0" font-size="12" text-anchor="end" font-family="Consolas, monospace">INITO</text>
<text x="2013.5384615384617" y="185.0" font-size="11" text-anchor="start" fill="#63B31F" font-style="italic" font-family="Verdana, sans-serif">Event</text>
<path d="M2003.5384615384617,203.0 L2003.5384615384617,213.0 L1998.5384615384617,208.0 Z" fill="#63B31F" stroke="none" />
<text x="1986.5384615384617" y="212.0" font-size="12" text-anchor="end" font-family="Consolas, monospace">CNF</text>
<text x="2013.5384615384617" y="211.0" font-size="11" text-anchor="start" fill="#63B31F" font-style="italic" font-family="Verdana, sans-serif">Event</text>
<path d="M2003.5384615384617,284.0 L2003.5384615384617,294.0 L1998.5384615384617,289.0 Z" fill="#9FA48A" stroke="none" />
<text x="1986.5384615384617" y="293.0" font-size="12" text-anchor="end" font-family="Consolas, monospace">QO</text>
<text x="2013.5384615384617" y="292.0" font-size="11" text-anchor="start" fill="#9FA48A" font-style="italic" font-family="Verdana, sans-serif">BOOL</text>
<path d="M2003.5384615384617,310.0 L2003.5384615384617,320.0 L1998.5384615384617,315.0 Z" fill="#BD8663" stroke="none" />
<text x="1986.5384615384617" y="319.0" font-size="12" text-anchor="end" font-family="Consolas, monospace">STATUS</text>
<text x="2013.5384615384617" y="318.0" font-size="11" text-anchor="start" fill="#BD8663" font-style="italic" font-family="Verdana, sans-serif">STRING</text>
<rect x="1436.1538461538462" y="475.3076923076923" width="220" height="142" fill="#000000" fill-opacity="0.1" rx="2" ry="2" />
<path d="M1433.1538461538462,472.3076923076923 H1653.1538461538462 V538.3076923076924 H1647.1538461538462 V578.3076923076924 H1653.1538461538462 V614.3076923076924 H1433.1538461538462 V578.3076923076924 H1439.1538461538462 V538.3076923076924 H1433.1538461538462 Z" fill="#ffffff" stroke="#000000" stroke-width="2" />
<path d="M1433.1538461538462,502.3076923076923 L1653.1538461538462,502.3076923076923" stroke="#000000" stroke-width="1" />
<text x="1543.1538461538462" y="556.3076923076924" font-size="14" font-weight="bold" font-family="Verdana, sans-serif" font-style="italic" text-anchor="middle" dominant-baseline="central">F_ULINT_TO_UDINT</text>
<text x="1543.1538461538462" y="570.3076923076924" font-size="10" fill="#666" font-family="Consolas, monospace" text-anchor="middle" dominant-baseline="central">F_ULINT_TO_UDINT</text>
<path d="M1428.1538461538462,509.3076923076924 L1428.1538461538462,519.3076923076924 L1433.1538461538462,514.3076923076924 Z" fill="#63B31F" stroke="none" />
<text x="1445.1538461538462" y="518.3076923076924" font-size="12" text-anchor="start" font-family="Consolas, monospace">REQ</text>
<text x="1418.1538461538462" y="517.3076923076924" font-size="11" text-anchor="end" fill="#63B31F" font-style="italic" font-family="Verdana, sans-serif">Event</text>
<path d="M1428.1538461538462,590.3076923076924 L1428.1538461538462,600.3076923076924 L1433.1538461538462,595.3076923076924 Z" fill="#18519E" stroke="none" />
<text x="1445.1538461538462" y="599.3076923076924" font-size="12" text-anchor="start" font-family="Consolas, monospace">IN</text>
<text x="1418.1538461538462" y="598.3076923076924" font-size="11" text-anchor="end" fill="#18519E" font-style="italic" font-family="Verdana, sans-serif">ULINT</text>
<path d="M1658.1538461538462,509.3076923076924 L1658.1538461538462,519.3076923076924 L1653.1538461538462,514.3076923076924 Z" fill="#63B31F" stroke="none" />
<text x="1641.1538461538462" y="518.3076923076924" font-size="12" text-anchor="end" font-family="Consolas, monospace">CNF</text>
<text x="1668.1538461538462" y="517.3076923076924" font-size="11" text-anchor="start" fill="#63B31F" font-style="italic" font-family="Verdana, sans-serif">Event</text>
<path d="M1658.1538461538462,590.3076923076924 L1658.1538461538462,600.3076923076924 L1653.1538461538462,595.3076923076924 Z" fill="#18519E" stroke="none" />
<text x="1641.1538461538462" y="599.3076923076924" font-size="12" text-anchor="end" font-family="Consolas, monospace">OUT</text>
<text x="1668.1538461538462" y="598.3076923076924" font-size="11" text-anchor="start" fill="#18519E" font-style="italic" font-family="Verdana, sans-serif">UDINT</text>
<rect x="1990.0" y="419.92307692307696" width="200" height="242" fill="#000000" fill-opacity="0.1" rx="2" ry="2" />
<path d="M1987.0,416.92307692307696 H2187.0 V508.92307692307696 H2181.0 V548.9230769230769 H2187.0 V658.9230769230769 H1987.0 V548.9230769230769 H1993.0 V508.92307692307696 H1987.0 Z" fill="#ffffff" stroke="#000000" stroke-width="2" />
<path d="M1987.0,446.92307692307696 L2187.0,446.92307692307696" stroke="#000000" stroke-width="1" />
<text x="2087.0" y="526.9230769230769" font-size="14" font-weight="bold" font-family="Verdana, sans-serif" font-style="italic" text-anchor="middle" dominant-baseline="central">Q_NumericValue</text>
<text x="2087.0" y="540.9230769230769" font-size="10" fill="#666" font-family="Consolas, monospace" text-anchor="middle" dominant-baseline="central">Q_NumericValue</text>
<text x="2087.0" y="552.9230769230769" font-size="9" fill="#888" font-family="Consolas, monospace" text-anchor="middle" dominant-baseline="central">u16ObjId=OutputNumber_N1</text>
<path d="M1982.0,453.92307692307696 L1982.0,463.92307692307696 L1987.0,458.92307692307696 Z" fill="#63B31F" stroke="none" />
<text x="1999.0" y="462.92307692307696" font-size="12" text-anchor="start" font-family="Consolas, monospace">INIT</text>
<text x="1972.0" y="461.92307692307696" font-size="11" text-anchor="end" fill="#63B31F" font-style="italic" font-family="Verdana, sans-serif">Event</text>
<path d="M1982.0,479.92307692307696 L1982.0,489.92307692307696 L1987.0,484.92307692307696 Z" fill="#63B31F" stroke="none" />
<text x="1999.0" y="488.92307692307696" font-size="12" text-anchor="start" font-family="Consolas, monospace">REQ</text>
<text x="1972.0" y="487.92307692307696" font-size="11" text-anchor="end" fill="#63B31F" font-style="italic" font-family="Verdana, sans-serif">Event</text>
<path d="M1982.0,560.9230769230769 L1982.0,570.9230769230769 L1987.0,565.9230769230769 Z" fill="#18519E" stroke="none" />
<text x="1999.0" y="569.9230769230769" font-size="12" text-anchor="start" font-family="Consolas, monospace">u16ObjId</text>
<text x="1972.0" y="568.9230769230769" font-size="11" text-anchor="end" fill="#18519E" font-style="italic" font-family="Verdana, sans-serif">UINT</text>
<path d="M1982.0,586.9230769230769 L1982.0,596.9230769230769 L1987.0,591.9230769230769 Z" fill="#18519E" stroke="none" />
<text x="1999.0" y="595.9230769230769" font-size="12" text-anchor="start" font-family="Consolas, monospace">u32NewValue</text>
<text x="1972.0" y="594.9230769230769" font-size="11" text-anchor="end" fill="#18519E" font-style="italic" font-family="Verdana, sans-serif">UDINT</text>
<path d="M2192.0,453.92307692307696 L2192.0,463.92307692307696 L2187.0,458.92307692307696 Z" fill="#63B31F" stroke="none" />
<text x="2175.0" y="462.92307692307696" font-size="12" text-anchor="end" font-family="Consolas, monospace">INITO</text>
<text x="2202.0" y="461.92307692307696" font-size="11" text-anchor="start" fill="#63B31F" font-style="italic" font-family="Verdana, sans-serif">Event</text>
<path d="M2192.0,479.92307692307696 L2192.0,489.92307692307696 L2187.0,484.92307692307696 Z" fill="#63B31F" stroke="none" />
<text x="2175.0" y="488.92307692307696" font-size="12" text-anchor="end" font-family="Consolas, monospace">CNF</text>
<text x="2202.0" y="487.92307692307696" font-size="11" text-anchor="start" fill="#63B31F" font-style="italic" font-family="Verdana, sans-serif">Event</text>
<path d="M2192.0,560.9230769230769 L2192.0,570.9230769230769 L2187.0,565.9230769230769 Z" fill="#BD8663" stroke="none" />
<text x="2175.0" y="569.9230769230769" font-size="12" text-anchor="end" font-family="Consolas, monospace">STATUS</text>
<text x="2202.0" y="568.9230769230769" font-size="11" text-anchor="start" fill="#BD8663" font-style="italic" font-family="Verdana, sans-serif">STRING</text>
<path d="M2192.0,586.9230769230769 L2192.0,596.9230769230769 L2187.0,591.9230769230769 Z" fill="#18519E" stroke="none" />
<text x="2175.0" y="595.9230769230769" font-size="12" text-anchor="end" font-family="Consolas, monospace">u32OldValue</text>
<text x="2202.0" y="594.9230769230769" font-size="11" text-anchor="start" fill="#18519E" font-style="italic" font-family="Verdana, sans-serif">UDINT</text>
<path d="M2192.0,612.9230769230769 L2192.0,622.9230769230769 L2187.0,617.9230769230769 Z" fill="#18519E" stroke="none" />
<text x="2175.0" y="621.9230769230769" font-size="12" text-anchor="end" font-family="Consolas, monospace">s16result</text>
<text x="2202.0" y="620.9230769230769" font-size="11" text-anchor="start" fill="#18519E" font-style="italic" font-family="Verdana, sans-serif">INT</text>
</svg>