<?xml version="1.0" encoding="UTF-8"?>
<svg xmlns="http://www.w3.org/2000/svg" xmlns:xlink="http://www.w3.org/1999/xlink"
     width="1044" height="327" viewBox="-548 -20 1044 327">
<defs>
</defs>
<rect x="3" y="3" width="190" height="277" fill="#000000" fill-opacity="0.1" rx="2" ry="2" />
<path d="M0,0 H190 V118 H184 V158 H190 V277 H0 V158 H6 V118 H0 Z" fill="#ffffff" stroke="#000000" stroke-width="2" />
<path d="M0,30 L190,30" stroke="#000000" stroke-width="1" />
<text x="95.0" y="136.0" font-size="14" fontWeight="bold" font-family="Verdana, sans-serif" font-style="italic" text-anchor="middle" dominant-baseline="central">strip_set_pixel</text>
<text x="95.0" y="150.0" font-size="10" fill="#000" font-family="Consolas, monospace" text-anchor="middle" dominant-baseline="central">1.0</text>
<path d="M-5,37 L-5,47 L0,42 Z" fill="#63B31F" stroke="none" />
<text x="12" y="46" font-size="12" text-anchor="start" font-family="Consolas, monospace">INIT</text>
<text x="-23" y="45" font-size="11" text-anchor="end" fill="#888" font-style="italic" font-family="Verdana, sans-serif">Event</text>
<text x="-93" y="45" font-size="11" text-anchor="end" fill="#666666" font-family="Verdana, sans-serif">Service Initialization</text>
<path d="M-5,63 L-5,73 L0,68 Z" fill="#63B31F" stroke="none" />
<text x="12" y="72" font-size="12" text-anchor="start" font-family="Consolas, monospace">set_pixel</text>
<text x="-23" y="71" font-size="11" text-anchor="end" fill="#888" font-style="italic" font-family="Verdana, sans-serif">Event</text>
<text x="-93" y="71" font-size="11" text-anchor="end" fill="#666666" font-family="Verdana, sans-serif">Set RGB for a specific pixel</text>
<path d="M-5,89 L-5,99 L0,94 Z" fill="#63B31F" stroke="none" />
<text x="12" y="98" font-size="12" text-anchor="start" font-family="Consolas, monospace">clear</text>
<text x="-23" y="97" font-size="11" text-anchor="end" fill="#888" font-style="italic" font-family="Verdana, sans-serif">Event</text>
<text x="-93" y="97" font-size="11" text-anchor="end" fill="#666666" font-family="Verdana, sans-serif">Clear LED strip (turn off all LEDs)</text>
<path d="M-5,170 L-5,180 L0,175 Z" fill="#18519E" stroke="none" />
<text x="12" y="179" font-size="12" text-anchor="start" font-family="Consolas, monospace">index</text>
<text x="-23" y="178" font-size="11" text-anchor="end" fill="#18519E" font-style="italic" font-family="Verdana, sans-serif">UDINT</text>
<text x="-93" y="178" font-size="11" text-anchor="end" fill="#666666" font-family="Verdana, sans-serif">index of pixel to set</text>
<path d="M-5,196 L-5,206 L0,201 Z" fill="#18519E" stroke="none" />
<text x="12" y="205" font-size="12" text-anchor="start" font-family="Consolas, monospace">red</text>
<text x="-23" y="204" font-size="11" text-anchor="end" fill="#18519E" font-style="italic" font-family="Verdana, sans-serif">UDINT</text>
<text x="-93" y="204" font-size="11" text-anchor="end" fill="#666666" font-family="Verdana, sans-serif">red part of color</text>
<path d="M-5,222 L-5,232 L0,227 Z" fill="#18519E" stroke="none" />
<text x="12" y="231" font-size="12" text-anchor="start" font-family="Consolas, monospace">green</text>
<text x="-23" y="230" font-size="11" text-anchor="end" fill="#18519E" font-style="italic" font-family="Verdana, sans-serif">UDINT</text>
<text x="-93" y="230" font-size="11" text-anchor="end" fill="#666666" font-family="Verdana, sans-serif">green part of color</text>
<path d="M-5,248 L-5,258 L0,253 Z" fill="#18519E" stroke="none" />
<text x="12" y="257" font-size="12" text-anchor="start" font-family="Consolas, monospace">blue</text>
<text x="-23" y="256" font-size="11" text-anchor="end" fill="#18519E" font-style="italic" font-family="Verdana, sans-serif">UDINT</text>
<text x="-93" y="256" font-size="11" text-anchor="end" fill="#666666" font-family="Verdana, sans-serif">blue part of color</text>
<path d="M190,37 L190,47 L195,42 Z" fill="#63B31F" stroke="none" />
<text x="178" y="46" font-size="12" text-anchor="end" font-family="Consolas, monospace">INITO</text>
<text x="221" y="45" font-size="11" text-anchor="start" fill="#888" font-style="italic" font-family="Verdana, sans-serif">Event</text>
<text x="291" y="45" font-size="11" text-anchor="start" fill="#666666" font-family="Verdana, sans-serif">Initialization Confirm</text>
<path d="M190,63 L190,73 L195,68 Z" fill="#63B31F" stroke="none" />
<text x="178" y="72" font-size="12" text-anchor="end" font-family="Consolas, monospace">set_pixel_CNF</text>
<text x="221" y="71" font-size="11" text-anchor="start" fill="#888" font-style="italic" font-family="Verdana, sans-serif">Event</text>
<text x="291" y="71" font-size="11" text-anchor="start" fill="#666666" font-family="Verdana, sans-serif">Confirmation of set_pixel</text>
<path d="M190,89 L190,99 L195,94 Z" fill="#63B31F" stroke="none" />
<text x="178" y="98" font-size="12" text-anchor="end" font-family="Consolas, monospace">clear_CNF</text>
<text x="221" y="97" font-size="11" text-anchor="start" fill="#888" font-style="italic" font-family="Verdana, sans-serif">Event</text>
<text x="291" y="97" font-size="11" text-anchor="start" fill="#666666" font-family="Verdana, sans-serif">Confirmation of clear</text>
<path d="M190,170 L190,180 L195,175 Z" fill="#18519E" stroke="none" />
<text x="178" y="179" font-size="12" text-anchor="end" font-family="Consolas, monospace">set_pixel_return</text>
<text x="221" y="178" font-size="11" text-anchor="start" fill="#18519E" font-style="italic" font-family="Verdana, sans-serif">DINT</text>
<text x="291" y="178" font-size="11" text-anchor="start" fill="#666666" font-family="Verdana, sans-serif">Error indication</text>
<path d="M190,196 L190,206 L195,201 Z" fill="#18519E" stroke="none" />
<text x="178" y="205" font-size="12" text-anchor="end" font-family="Consolas, monospace">clear_return</text>
<text x="221" y="204" font-size="11" text-anchor="start" fill="#18519E" font-style="italic" font-family="Verdana, sans-serif">DINT</text>
<path d="M-12,68 L-12,253" stroke="#404040" stroke-width="1" />
<path d="M0,68 L-12,68" stroke="#404040" />
<rect x="-14" y="66" width="4" height="4" fill="white" stroke="black" stroke-width="1" />
<path d="M-12,175 L-5,175" stroke="#404040" />
<rect x="-14" y="173" width="4" height="4" fill="white" stroke="black" stroke-width="1" />
<path d="M-12,201 L-5,201" stroke="#404040" />
<rect x="-14" y="199" width="4" height="4" fill="white" stroke="black" stroke-width="1" />
<path d="M-12,227 L-5,227" stroke="#404040" />
<rect x="-14" y="225" width="4" height="4" fill="white" stroke="black" stroke-width="1" />
<path d="M-12,253 L-5,253" stroke="#404040" />
<rect x="-14" y="251" width="4" height="4" fill="white" stroke="black" stroke-width="1" />
<path d="M202,68 L202,175" stroke="#404040" stroke-width="1" />
<path d="M190,68 L202,68" stroke="#404040" />
<rect x="200" y="66" width="4" height="4" fill="white" stroke="black" stroke-width="1" />
<path d="M202,175 L195,175" stroke="#404040" />
<rect x="200" y="173" width="4" height="4" fill="white" stroke="black" stroke-width="1" />
<path d="M210,94 L210,201" stroke="#404040" stroke-width="1" />
<path d="M190,94 L210,94" stroke="#404040" />
<rect x="208" y="92" width="4" height="4" fill="white" stroke="black" stroke-width="1" />
<path d="M210,201 L195,201" stroke="#404040" />
<rect x="208" y="199" width="4" height="4" fill="white" stroke="black" stroke-width="1" />
</svg>