<?xml version="1.0" encoding="UTF-8"?>
<svg xmlns="http://www.w3.org/2000/svg" xmlns:xlink="http://www.w3.org/1999/xlink"
     width="960" height="265" viewBox="-540 -20 960 265">
<defs>
</defs>
<rect x="3" y="3" width="130" height="215" fill="#000000" fill-opacity="0.1" rx="2" ry="2" />
<path d="M0,0 H130 V30 H124 V70 H130 V215 H0 V70 H6 V30 H0 Z" fill="#ffffff" stroke="#606060" stroke-width="2" />
<path d="M0,30 L130,30" stroke="#606060" stroke-width="1" />
<text x="65.0" y="48.0" font-size="14" fontWeight="bold" font-family="Verdana, sans-serif" font-style="italic" text-anchor="middle" dominant-baseline="central">AX_OR_5</text>
<text x="65.0" y="62.0" font-size="10" fill="#000" font-family="Consolas, monospace" text-anchor="middle" dominant-baseline="central">1.0</text>
<rect x="-5.0" y="82.0" width="10" height="10" fill="white" stroke="#985ec9" stroke-width="2.5" />
<text x="12" y="91" font-size="12" text-anchor="start" font-family="Consolas, monospace">IN1</text>
<text x="-15" y="90" font-size="11" text-anchor="end" fill="#000" font-style="italic" font-family="Verdana, sans-serif">AX</text>
<text x="-85" y="90" font-size="11" text-anchor="end" fill="#666666" font-family="Verdana, sans-serif">OR input 1</text>
<rect x="-5.0" y="108.0" width="10" height="10" fill="white" stroke="#985ec9" stroke-width="2.5" />
<text x="12" y="117" font-size="12" text-anchor="start" font-family="Consolas, monospace">IN2</text>
<text x="-15" y="116" font-size="11" text-anchor="end" fill="#000" font-style="italic" font-family="Verdana, sans-serif">AX</text>
<text x="-85" y="116" font-size="11" text-anchor="end" fill="#666666" font-family="Verdana, sans-serif">OR input 2</text>
<rect x="-5.0" y="134.0" width="10" height="10" fill="white" stroke="#985ec9" stroke-width="2.5" />
<text x="12" y="143" font-size="12" text-anchor="start" font-family="Consolas, monospace">IN3</text>
<text x="-15" y="142" font-size="11" text-anchor="end" fill="#000" font-style="italic" font-family="Verdana, sans-serif">AX</text>
<text x="-85" y="142" font-size="11" text-anchor="end" fill="#666666" font-family="Verdana, sans-serif">OR input 3</text>
<rect x="-5.0" y="160.0" width="10" height="10" fill="white" stroke="#985ec9" stroke-width="2.5" />
<text x="12" y="169" font-size="12" text-anchor="start" font-family="Consolas, monospace">IN4</text>
<text x="-15" y="168" font-size="11" text-anchor="end" fill="#000" font-style="italic" font-family="Verdana, sans-serif">AX</text>
<text x="-85" y="168" font-size="11" text-anchor="end" fill="#666666" font-family="Verdana, sans-serif">OR input 4</text>
<rect x="-5.0" y="186.0" width="10" height="10" fill="white" stroke="#985ec9" stroke-width="2.5" />
<text x="12" y="195" font-size="12" text-anchor="start" font-family="Consolas, monospace">IN5</text>
<text x="-15" y="194" font-size="11" text-anchor="end" fill="#000" font-style="italic" font-family="Verdana, sans-serif">AX</text>
<text x="-85" y="194" font-size="11" text-anchor="end" fill="#666666" font-family="Verdana, sans-serif">OR input 5</text>
<rect x="125.0" y="82.0" width="10" height="10" fill="#985ec9" stroke="none" />
<text x="118" y="91" font-size="12" text-anchor="end" font-family="Consolas, monospace">OUT</text>
<text x="145" y="90" font-size="11" text-anchor="start" fill="#000" font-style="italic" font-family="Verdana, sans-serif">AX</text>
<text x="215" y="90" font-size="11" text-anchor="start" fill="#666666" font-family="Verdana, sans-serif">OR result</text>
</svg>