<?xml version="1.0" encoding="UTF-8"?>
<svg xmlns="http://www.w3.org/2000/svg" xmlns:xlink="http://www.w3.org/1999/xlink"
     width="996" height="431" viewBox="-548 -20 996 431">
<defs>
</defs>
<rect x="3" y="3" width="150" height="381" fill="#000000" fill-opacity="0.1" rx="2" ry="2" />
<path d="M0,0 H150 V66 H144 V106 H150 V381 H0 V106 H6 V66 H0 Z" fill="#ffffff" stroke="#000000" stroke-width="2" />
<path d="M0,30 L150,30" stroke="#000000" stroke-width="1" />
<text x="75.0" y="84.0" font-size="14" fontWeight="bold" font-family="Verdana, sans-serif" font-style="italic" text-anchor="middle" dominant-baseline="central">XOR_10_BOOL</text>
<text x="75.0" y="98.0" font-size="10" fill="#000" font-family="Consolas, monospace" text-anchor="middle" dominant-baseline="central">1.0</text>
<path d="M-5,37 L-5,47 L0,42 Z" fill="#63B31F" stroke="none" />
<text x="12" y="46" font-size="12" text-anchor="start" font-family="Consolas, monospace">REQ</text>
<text x="-23" y="45" font-size="11" text-anchor="end" fill="#888" font-style="italic" font-family="Verdana, sans-serif">Event</text>
<text x="-93" y="45" font-size="11" text-anchor="end" fill="#666666" font-family="Verdana, sans-serif">Normal Execution Request</text>
<path d="M-5,118 L-5,128 L0,123 Z" fill="#9FA48A" stroke="none" />
<text x="12" y="127" font-size="12" text-anchor="start" font-family="Consolas, monospace">IN1</text>
<text x="-23" y="126" font-size="11" text-anchor="end" fill="#9FA48A" font-style="italic" font-family="Verdana, sans-serif">BOOL</text>
<text x="-93" y="126" font-size="11" text-anchor="end" fill="#666666" font-family="Verdana, sans-serif">XOR input 1</text>
<path d="M-5,144 L-5,154 L0,149 Z" fill="#9FA48A" stroke="none" />
<text x="12" y="153" font-size="12" text-anchor="start" font-family="Consolas, monospace">IN2</text>
<text x="-23" y="152" font-size="11" text-anchor="end" fill="#9FA48A" font-style="italic" font-family="Verdana, sans-serif">BOOL</text>
<text x="-93" y="152" font-size="11" text-anchor="end" fill="#666666" font-family="Verdana, sans-serif">XOR input 2</text>
<path d="M-5,170 L-5,180 L0,175 Z" fill="#9FA48A" stroke="none" />
<text x="12" y="179" font-size="12" text-anchor="start" font-family="Consolas, monospace">IN3</text>
<text x="-23" y="178" font-size="11" text-anchor="end" fill="#9FA48A" font-style="italic" font-family="Verdana, sans-serif">BOOL</text>
<text x="-93" y="178" font-size="11" text-anchor="end" fill="#666666" font-family="Verdana, sans-serif">XOR input 3</text>
<path d="M-5,196 L-5,206 L0,201 Z" fill="#9FA48A" stroke="none" />
<text x="12" y="205" font-size="12" text-anchor="start" font-family="Consolas, monospace">IN4</text>
<text x="-23" y="204" font-size="11" text-anchor="end" fill="#9FA48A" font-style="italic" font-family="Verdana, sans-serif">BOOL</text>
<text x="-93" y="204" font-size="11" text-anchor="end" fill="#666666" font-family="Verdana, sans-serif">XOR input 4</text>
<path d="M-5,222 L-5,232 L0,227 Z" fill="#9FA48A" stroke="none" />
<text x="12" y="231" font-size="12" text-anchor="start" font-family="Consolas, monospace">IN5</text>
<text x="-23" y="230" font-size="11" text-anchor="end" fill="#9FA48A" font-style="italic" font-family="Verdana, sans-serif">BOOL</text>
<text x="-93" y="230" font-size="11" text-anchor="end" fill="#666666" font-family="Verdana, sans-serif">XOR input 5</text>
<path d="M-5,248 L-5,258 L0,253 Z" fill="#9FA48A" stroke="none" />
<text x="12" y="257" font-size="12" text-anchor="start" font-family="Consolas, monospace">IN6</text>
<text x="-23" y="256" font-size="11" text-anchor="end" fill="#9FA48A" font-style="italic" font-family="Verdana, sans-serif">BOOL</text>
<text x="-93" y="256" font-size="11" text-anchor="end" fill="#666666" font-family="Verdana, sans-serif">XOR input 6</text>
<path d="M-5,274 L-5,284 L0,279 Z" fill="#9FA48A" stroke="none" />
<text x="12" y="283" font-size="12" text-anchor="start" font-family="Consolas, monospace">IN7</text>
<text x="-23" y="282" font-size="11" text-anchor="end" fill="#9FA48A" font-style="italic" font-family="Verdana, sans-serif">BOOL</text>
<text x="-93" y="282" font-size="11" text-anchor="end" fill="#666666" font-family="Verdana, sans-serif">XOR input 7</text>
<path d="M-5,300 L-5,310 L0,305 Z" fill="#9FA48A" stroke="none" />
<text x="12" y="309" font-size="12" text-anchor="start" font-family="Consolas, monospace">IN8</text>
<text x="-23" y="308" font-size="11" text-anchor="end" fill="#9FA48A" font-style="italic" font-family="Verdana, sans-serif">BOOL</text>
<text x="-93" y="308" font-size="11" text-anchor="end" fill="#666666" font-family="Verdana, sans-serif">XOR input 8</text>
<path d="M-5,326 L-5,336 L0,331 Z" fill="#9FA48A" stroke="none" />
<text x="12" y="335" font-size="12" text-anchor="start" font-family="Consolas, monospace">IN9</text>
<text x="-23" y="334" font-size="11" text-anchor="end" fill="#9FA48A" font-style="italic" font-family="Verdana, sans-serif">BOOL</text>
<text x="-93" y="334" font-size="11" text-anchor="end" fill="#666666" font-family="Verdana, sans-serif">XOR input 9</text>
<path d="M-5,352 L-5,362 L0,357 Z" fill="#9FA48A" stroke="none" />
<text x="12" y="361" font-size="12" text-anchor="start" font-family="Consolas, monospace">IN10</text>
<text x="-23" y="360" font-size="11" text-anchor="end" fill="#9FA48A" font-style="italic" font-family="Verdana, sans-serif">BOOL</text>
<text x="-93" y="360" font-size="11" text-anchor="end" fill="#666666" font-family="Verdana, sans-serif">XOR input 10</text>
<path d="M150,37 L150,47 L155,42 Z" fill="#63B31F" stroke="none" />
<text x="138" y="46" font-size="12" text-anchor="end" font-family="Consolas, monospace">CNF</text>
<text x="173" y="45" font-size="11" text-anchor="start" fill="#888" font-style="italic" font-family="Verdana, sans-serif">Event</text>
<text x="243" y="45" font-size="11" text-anchor="start" fill="#666666" font-family="Verdana, sans-serif">Execution Confirmation</text>
<path d="M150,118 L150,128 L155,123 Z" fill="#9FA48A" stroke="none" />
<text x="138" y="127" font-size="12" text-anchor="end" font-family="Consolas, monospace">OUT</text>
<text x="173" y="126" font-size="11" text-anchor="start" fill="#9FA48A" font-style="italic" font-family="Verdana, sans-serif">BOOL</text>
<text x="243" y="126" font-size="11" text-anchor="start" fill="#666666" font-family="Verdana, sans-serif">XOR result</text>
<path d="M-12,42 L-12,357" stroke="#404040" stroke-width="1" />
<path d="M0,42 L-12,42" stroke="#404040" />
<rect x="-14" y="40" width="4" height="4" fill="white" stroke="black" stroke-width="1" />
<path d="M-12,123 L-5,123" stroke="#404040" />
<rect x="-14" y="121" width="4" height="4" fill="white" stroke="black" stroke-width="1" />
<path d="M-12,149 L-5,149" stroke="#404040" />
<rect x="-14" y="147" width="4" height="4" fill="white" stroke="black" stroke-width="1" />
<path d="M-12,175 L-5,175" stroke="#404040" />
<rect x="-14" y="173" width="4" height="4" fill="white" stroke="black" stroke-width="1" />
<path d="M-12,201 L-5,201" stroke="#404040" />
<rect x="-14" y="199" width="4" height="4" fill="white" stroke="black" stroke-width="1" />
<path d="M-12,227 L-5,227" stroke="#404040" />
<rect x="-14" y="225" width="4" height="4" fill="white" stroke="black" stroke-width="1" />
<path d="M-12,253 L-5,253" stroke="#404040" />
<rect x="-14" y="251" width="4" height="4" fill="white" stroke="black" stroke-width="1" />
<path d="M-12,279 L-5,279" stroke="#404040" />
<rect x="-14" y="277" width="4" height="4" fill="white" stroke="black" stroke-width="1" />
<path d="M-12,305 L-5,305" stroke="#404040" />
<rect x="-14" y="303" width="4" height="4" fill="white" stroke="black" stroke-width="1" />
<path d="M-12,331 L-5,331" stroke="#404040" />
<rect x="-14" y="329" width="4" height="4" fill="white" stroke="black" stroke-width="1" />
<path d="M-12,357 L-5,357" stroke="#404040" />
<rect x="-14" y="355" width="4" height="4" fill="white" stroke="black" stroke-width="1" />
<path d="M162,42 L162,123" stroke="#404040" stroke-width="1" />
<path d="M150,42 L162,42" stroke="#404040" />
<rect x="160" y="40" width="4" height="4" fill="white" stroke="black" stroke-width="1" />
<path d="M162,123 L155,123" stroke="#404040" />
<rect x="160" y="121" width="4" height="4" fill="white" stroke="black" stroke-width="1" />
</svg>