<?xml version="1.0" encoding="UTF-8"?>
<svg xmlns="http://www.w3.org/2000/svg" xmlns:xlink="http://www.w3.org/1999/xlink"
     width="1352" height="275" viewBox="-556 -20 1352 275">
<defs>
</defs>
<rect x="3" y="3" width="240" height="225" fill="#000000" fill-opacity="0.1" rx="2" ry="2" />
<path d="M0,0 H240 V92 H234 V132 H240 V225 H0 V132 H6 V92 H0 Z" fill="#ffffff" stroke="#000000" stroke-width="2" />
<path d="M0,30 L240,30" stroke="#000000" stroke-width="1" />
<text x="120.0" y="110.0" font-size="14" fontWeight="bold" font-family="Verdana, sans-serif" font-style="italic" text-anchor="middle" dominant-baseline="central">ILOCK_SWITCH_PROTECT</text>
<text x="120.0" y="124.0" font-size="10" fill="#000" font-family="Consolas, monospace" text-anchor="middle" dominant-baseline="central">1.0</text>
<path d="M-5,37 L-5,47 L0,42 Z" fill="#63B31F" stroke="none" />
<text x="12" y="46" font-size="12" text-anchor="start" font-family="Consolas, monospace">EI_UP</text>
<text x="-31" y="45" font-size="11" text-anchor="end" fill="#888" font-style="italic" font-family="Verdana, sans-serif">Event</text>
<path d="M-5,63 L-5,73 L0,68 Z" fill="#63B31F" stroke="none" />
<text x="12" y="72" font-size="12" text-anchor="start" font-family="Consolas, monospace">EI_DOWN</text>
<text x="-31" y="71" font-size="11" text-anchor="end" fill="#888" font-style="italic" font-family="Verdana, sans-serif">Event</text>
<path d="M-5,144 L-5,154 L0,149 Z" fill="#9FA48A" stroke="none" />
<text x="12" y="153" font-size="12" text-anchor="start" font-family="Consolas, monospace">DI_UP</text>
<text x="-31" y="152" font-size="11" text-anchor="end" fill="#9FA48A" font-style="italic" font-family="Verdana, sans-serif">BOOL</text>
<text x="-152" y="152" font-size="11" text-anchor="end" fill="#666666" font-family="Verdana, sans-serif">TRUE = forward, up, right, clockwise</text>
<path d="M-5,170 L-5,180 L0,175 Z" fill="#9FA48A" stroke="none" />
<text x="12" y="179" font-size="12" text-anchor="start" font-family="Consolas, monospace">DI_DOWN</text>
<text x="-31" y="178" font-size="11" text-anchor="end" fill="#9FA48A" font-style="italic" font-family="Verdana, sans-serif">BOOL</text>
<text x="-152" y="178" font-size="11" text-anchor="end" fill="#666666" font-family="Verdana, sans-serif">TRUE = backward, down, left, counter-clockwise</text>
<path d="M-5,196 L-5,206 L0,201 Z" fill="#0000FF" stroke="none" />
<text x="12" y="205" font-size="12" text-anchor="start" font-family="Consolas, monospace">DT_PROTECT</text>
<text x="-31" y="204" font-size="11" text-anchor="end" fill="#0000FF" font-style="italic" font-family="Verdana, sans-serif">TIME</text>
<text x="-152" y="204" font-size="11" text-anchor="end" fill="#666666" font-family="Verdana, sans-serif">Protection Dead-Time</text>
<path d="M240,37 L240,47 L245,42 Z" fill="#63B31F" stroke="none" />
<text x="228" y="46" font-size="12" text-anchor="end" font-family="Consolas, monospace">EO_UP</text>
<text x="271" y="45" font-size="11" text-anchor="start" fill="#888" font-style="italic" font-family="Verdana, sans-serif">Event</text>
<path d="M240,63 L240,73 L245,68 Z" fill="#63B31F" stroke="none" />
<text x="228" y="72" font-size="12" text-anchor="end" font-family="Consolas, monospace">EO_DOWN</text>
<text x="271" y="71" font-size="11" text-anchor="start" fill="#888" font-style="italic" font-family="Verdana, sans-serif">Event</text>
<rect x="235.0" y="144.0" width="10" height="10" fill="#845DAF" stroke="none" />
<text x="228" y="153" font-size="12" text-anchor="end" font-family="Consolas, monospace">timeOut</text>
<text x="271" y="152" font-size="11" text-anchor="start" fill="#000" font-style="italic" font-family="Verdana, sans-serif">ATimeOut</text>
<text x="341" y="152" font-size="11" text-anchor="start" fill="#666666" font-family="Verdana, sans-serif">Protection Timer Adapter</text>
<path d="M240,170 L240,180 L245,175 Z" fill="#9FA48A" stroke="none" />
<text x="228" y="179" font-size="12" text-anchor="end" font-family="Consolas, monospace">DO_UP</text>
<text x="271" y="178" font-size="11" text-anchor="start" fill="#9FA48A" font-style="italic" font-family="Verdana, sans-serif">BOOL</text>
<text x="341" y="178" font-size="11" text-anchor="start" fill="#666666" font-family="Verdana, sans-serif">TRUE = forward, up, right, clockwise</text>
<path d="M240,196 L240,206 L245,201 Z" fill="#9FA48A" stroke="none" />
<text x="228" y="205" font-size="12" text-anchor="end" font-family="Consolas, monospace">DO_DOWN</text>
<text x="271" y="204" font-size="11" text-anchor="start" fill="#9FA48A" font-style="italic" font-family="Verdana, sans-serif">BOOL</text>
<text x="341" y="204" font-size="11" text-anchor="start" fill="#666666" font-family="Verdana, sans-serif">TRUE = backward, down, left, counter-clockwise</text>
<path d="M-12,42 L-12,201" stroke="#404040" stroke-width="1" />
<path d="M0,42 L-12,42" stroke="#404040" />
<rect x="-14" y="40" width="4" height="4" fill="white" stroke="black" stroke-width="1" />
<path d="M-12,149 L-5,149" stroke="#404040" />
<rect x="-14" y="147" width="4" height="4" fill="white" stroke="black" stroke-width="1" />
<path d="M-12,201 L-5,201" stroke="#404040" />
<rect x="-14" y="199" width="4" height="4" fill="white" stroke="black" stroke-width="1" />
<path d="M-20,68 L-20,201" stroke="#404040" stroke-width="1" />
<path d="M0,68 L-20,68" stroke="#404040" />
<rect x="-22" y="66" width="4" height="4" fill="white" stroke="black" stroke-width="1" />
<path d="M-20,175 L-5,175" stroke="#404040" />
<rect x="-22" y="173" width="4" height="4" fill="white" stroke="black" stroke-width="1" />
<path d="M-20,201 L-5,201" stroke="#404040" />
<rect x="-22" y="199" width="4" height="4" fill="white" stroke="black" stroke-width="1" />
<path d="M252,42 L252,175" stroke="#404040" stroke-width="1" />
<path d="M240,42 L252,42" stroke="#404040" />
<rect x="250" y="40" width="4" height="4" fill="white" stroke="black" stroke-width="1" />
<path d="M252,175 L245,175" stroke="#404040" />
<rect x="250" y="173" width="4" height="4" fill="white" stroke="black" stroke-width="1" />
<path d="M260,68 L260,201" stroke="#404040" stroke-width="1" />
<path d="M240,68 L260,68" stroke="#404040" />
<rect x="258" y="66" width="4" height="4" fill="white" stroke="black" stroke-width="1" />
<path d="M260,201 L245,201" stroke="#404040" />
<rect x="258" y="199" width="4" height="4" fill="white" stroke="black" stroke-width="1" />
</svg>