<?xml version="1.0" encoding="UTF-8"?>
<svg xmlns="http://www.w3.org/2000/svg" xmlns:xlink="http://www.w3.org/1999/xlink"
     width="1200" height="800" viewBox="0 0 1200 800">
<defs>
</defs>
<rect x="0" y="0" width="1200" height="800" fill="#ffffff" />
<text x="600" y="25" font-size="14" fontWeight="bold" font-family="Verdana, sans-serif" fill="#000000" text-anchor="middle" dominant-baseline="central">ECC: ILOCK_BLOCK_AX</text>
<rect x="10.0" y="330.0" width="80" height="32" fill="#f5f5f5" stroke="#000000" stroke-width="2" rx="8" ry="8" />
<text x="50.0" y="346.0" font-size="12" fontWeight="bold" font-family="Verdana, sans-serif" fill="#000000" text-anchor="middle" dominant-baseline="central">STOP</text>
<rect x="526.0000000000001" y="654.0" width="84.8" height="32" fill="#f5f5f5" stroke="#000000" stroke-width="2" rx="8" ry="8" />
<text x="568.4000000000001" y="670.0" font-size="12" fontWeight="bold" font-family="Verdana, sans-serif" fill="#000000" text-anchor="middle" dominant-baseline="central">DOWN_STOP</text>
<rect x="620.8000000000001" y="654.0" width="161" height="22" fill="#ffffff" stroke="#cccccc" stroke-width="1" rx="4" ry="4" />
<path d="M610.8000000000001,670.0 L620.8000000000001,665.0" stroke="#000000" stroke-width="2" />
<path d="M700.8000000000001,654.0 L700.8000000000001,676.0" stroke="#cccccc" stroke-width="1" />
<rect x="620.8000000000001" y="658.0" width="80" height="14" fill="#e6f7e6" stroke="#cccccc" stroke-width="0.5" />
<text x="660.8000000000001" y="666.0" font-size="10" font-family="Consolas, monospace" fill="#000000" text-anchor="middle" dominant-baseline="central">STOP</text>
<rect x="701.8000000000001" y="658.0" width="80" height="14" fill="#ffe6e6" stroke="#cccccc" stroke-width="0.5" />
<text x="741.8000000000001" y="666.0" font-size="10" font-family="Consolas, monospace" fill="#000000" text-anchor="middle" dominant-baseline="central">DOWN_OUT.E1</text>
<rect x="550.0" y="459.6" width="80" height="32" fill="#f5f5f5" stroke="#000000" stroke-width="2" rx="8" ry="8" />
<text x="590.0" y="475.6" font-size="12" fontWeight="bold" font-family="Verdana, sans-serif" fill="#000000" text-anchor="middle" dominant-baseline="central">DOWN</text>
<rect x="640.0" y="459.6" width="161" height="22" fill="#ffffff" stroke="#cccccc" stroke-width="1" rx="4" ry="4" />
<path d="M630.0,475.6 L640.0,470.6" stroke="#000000" stroke-width="2" />
<path d="M720.0,459.6 L720.0,481.6" stroke="#cccccc" stroke-width="1" />
<rect x="640.0" y="463.6" width="80" height="14" fill="#e6f7e6" stroke="#cccccc" stroke-width="0.5" />
<text x="680.0" y="471.6" font-size="10" font-family="Consolas, monospace" fill="#000000" text-anchor="middle" dominant-baseline="central">DOWN</text>
<rect x="721.0" y="463.6" width="80" height="14" fill="#ffe6e6" stroke="#cccccc" stroke-width="0.5" />
<text x="761.0" y="471.6" font-size="10" font-family="Consolas, monospace" fill="#000000" text-anchor="middle" dominant-baseline="central">DOWN_OUT.E1</text>
<rect x="614.8000000000001" y="286.8" width="80" height="32" fill="#f5f5f5" stroke="#000000" stroke-width="2" rx="8" ry="8" />
<text x="654.8000000000001" y="302.8" font-size="12" fontWeight="bold" font-family="Verdana, sans-serif" fill="#000000" text-anchor="middle" dominant-baseline="central">UP_STOP</text>
<rect x="704.8000000000001" y="286.8" width="161" height="22" fill="#ffffff" stroke="#cccccc" stroke-width="1" rx="4" ry="4" />
<path d="M694.8000000000001,302.8 L704.8000000000001,297.8" stroke="#000000" stroke-width="2" />
<path d="M784.8000000000001,286.8 L784.8000000000001,308.8" stroke="#cccccc" stroke-width="1" />
<rect x="704.8000000000001" y="290.8" width="80" height="14" fill="#e6f7e6" stroke="#cccccc" stroke-width="0.5" />
<text x="744.8000000000001" y="298.8" font-size="10" font-family="Consolas, monospace" fill="#000000" text-anchor="middle" dominant-baseline="central">STOP</text>
<rect x="785.8000000000001" y="290.8" width="80" height="14" fill="#ffe6e6" stroke="#cccccc" stroke-width="0.5" />
<text x="825.8000000000001" y="298.8" font-size="10" font-family="Consolas, monospace" fill="#000000" text-anchor="middle" dominant-baseline="central">UP_OUT.E1</text>
<rect x="636.4000000000001" y="114.0" width="80" height="32" fill="#f5f5f5" stroke="#000000" stroke-width="2" rx="8" ry="8" />
<text x="676.4000000000001" y="130.0" font-size="12" fontWeight="bold" font-family="Verdana, sans-serif" fill="#000000" text-anchor="middle" dominant-baseline="central">UP</text>
<rect x="726.4000000000001" y="114.0" width="161" height="22" fill="#ffffff" stroke="#cccccc" stroke-width="1" rx="4" ry="4" />
<path d="M716.4000000000001,130.0 L726.4000000000001,125.0" stroke="#000000" stroke-width="2" />
<path d="M806.4000000000001,114.0 L806.4000000000001,136.0" stroke="#cccccc" stroke-width="1" />
<rect x="726.4000000000001" y="118.0" width="80" height="14" fill="#e6f7e6" stroke="#cccccc" stroke-width="0.5" />
<text x="766.4000000000001" y="126.0" font-size="10" font-family="Consolas, monospace" fill="#000000" text-anchor="middle" dominant-baseline="central">UP</text>
<rect x="807.4000000000001" y="118.0" width="80" height="14" fill="#ffe6e6" stroke="#cccccc" stroke-width="0.5" />
<text x="847.4000000000001" y="126.0" font-size="10" font-family="Consolas, monospace" fill="#000000" text-anchor="middle" dominant-baseline="central">UP_OUT.E1</text>
<path d="M90.0,346.0 C295.0970345958225,346.0,590.0,254.50296540417753,590.0,459.6" stroke="#404040" stroke-width="1.2" fill="none" />
<path d="M590.0,459.6 L586.0,452.6717967697245 L594.0,452.6717967697245 L590.0,459.6" fill="#404040" stroke="#404040" stroke-width="1" />
<g transform="translate(416.9113879734334,325.8886120265666)">
<rect x="-75.5" y="-7.5" width="151.0" height="15" fill="#ffffff" opacity="0.9" rx="3" ry="3" />
<text x="0" y="3.5" font-size="10" font-family="Consolas, monospace" fill="#000000" text-anchor="middle" dominant-baseline="central">DOWN_IN.E1[DOWN_IN.D1]</text>
</g>
<path d="M90.0,346.0 C337.8273463522539,346.0,676.4000000000001,393.8273463522539,676.4000000000001,146.0" stroke="#404040" stroke-width="1.2" fill="none" />
<path d="M676.4000000000001,146.0 L680.4000000000001,152.9282032302755 L672.4000000000001,152.9282032302755 L676.4000000000001,146.0" fill="#404040" stroke="#404040" stroke-width="1" />
<g transform="translate(476.13525488209524,338.93525488209525)">
<rect x="-62.5" y="-7.5" width="125.0" height="15" fill="#ffffff" opacity="0.9" rx="3" ry="3" />
<text x="0" y="3.5" font-size="10" font-family="Consolas, monospace" fill="#000000" text-anchor="middle" dominant-baseline="central">UP_IN.E1[UP_IN.D1]</text>
</g>
<path d="M590.0,491.6 C590.0,571.6,568.4000000000001,572.8,568.4000000000001,654.0" stroke="#404040" stroke-width="1.2" fill="none" />
<path d="M568.4000000000001,654.0 L564.4000000000001,647.0717967697245 L572.4000000000001,647.0717967697245 L568.4000000000001,654.0" fill="#404040" stroke="#404040" stroke-width="1" />
<g transform="translate(579.2,572.35)">
<rect x="-88.5" y="-7.5" width="177.0" height="15" fill="#ffffff" opacity="0.9" rx="3" ry="3" />
<text x="0" y="3.5" font-size="10" font-family="Consolas, monospace" fill="#000000" text-anchor="middle" dominant-baseline="central">DOWN_IN.E1[NOT DOWN_IN.D1]</text>
</g>
<path d="M676.4000000000001,146.0 C676.4000000000001,226.0,654.8000000000001,206.8,654.8000000000001,286.8" stroke="#404040" stroke-width="1.2" fill="none" />
<path d="M654.8000000000001,286.8 L650.8000000000001,279.8717967697245 L658.8000000000001,279.8717967697245 L654.8000000000001,286.8" fill="#404040" stroke="#404040" stroke-width="1" />
<g transform="translate(665.6,216.4)">
<rect x="-75.5" y="-7.5" width="151.0" height="15" fill="#ffffff" opacity="0.9" rx="3" ry="3" />
<text x="0" y="3.5" font-size="10" font-family="Consolas, monospace" fill="#000000" text-anchor="middle" dominant-baseline="central">UP_IN.E1[NOT UP_IN.D1]</text>
</g>
<path d="M526.0000000000001,670.0 C296.6927824947501,670.0,42.5,591.30721750525,42.5,362.0" stroke="#404040" stroke-width="1.2" fill="none" />
<path d="M42.5,362.0 L46.5,368.9282032302755 L38.5,368.9282032302755 L42.5,362.0" fill="#404040" stroke="#404040" stroke-width="1" />
<g transform="translate(198.2597934355313,601.9902065644687)">
<rect x="-7.25" y="-7.5" width="14.5" height="15" fill="#ffffff" opacity="0.9" rx="3" ry="3" />
<text x="0" y="3.5" font-size="10" font-family="Consolas, monospace" fill="#000000" text-anchor="middle" dominant-baseline="central">1</text>
</g>
<path d="M614.8000000000001,302.8 C391.6146492262541,302.8,57.5,106.81464922625403,57.5,330.0" stroke="#404040" stroke-width="1.2" fill="none" />
<path d="M57.5,330.0 L53.5,323.0717967697245 L61.5,323.0717967697245 L57.5,330.0" fill="#404040" stroke="#404040" stroke-width="1" />
<g transform="translate(252.4554934598453,232.7054934598453)">
<rect x="-7.25" y="-7.5" width="14.5" height="15" fill="#ffffff" opacity="0.9" rx="3" ry="3" />
<text x="0" y="3.5" font-size="10" font-family="Consolas, monospace" fill="#000000" text-anchor="middle" dominant-baseline="central">1</text>
</g>
</svg>