<?xml version="1.0" encoding="UTF-8"?>
<svg xmlns="http://www.w3.org/2000/svg" xmlns:xlink="http://www.w3.org/1999/xlink"
     width="1340" height="249" viewBox="-540 -20 1340 249">
<defs>
</defs>
<rect x="3" y="3" width="260" height="199" fill="#000000" fill-opacity="0.1" rx="2" ry="2" />
<path d="M0,0 H260 V66 H254 V106 H260 V199 H0 V106 H6 V66 H0 Z" fill="#ffffff" stroke="#000000" stroke-width="2" />
<path d="M0,30 L260,30" stroke="#000000" stroke-width="1" />
<text x="130.0" y="84.0" font-size="14" fontWeight="bold" font-family="Verdana, sans-serif" font-style="italic" text-anchor="middle" dominant-baseline="central">ILOCK_CONFLICT_TRIP_AX</text>
<text x="130.0" y="98.0" font-size="10" fill="#000" font-family="Consolas, monospace" text-anchor="middle" dominant-baseline="central">1.0</text>
<path d="M-5,37 L-5,47 L0,42 Z" fill="#63B31F" stroke="none" />
<text x="12" y="46" font-size="12" text-anchor="start" font-family="Consolas, monospace">EI_RESET</text>
<text x="-15" y="45" font-size="11" text-anchor="end" fill="#888" font-style="italic" font-family="Verdana, sans-serif">Event</text>
<rect x="-5.0" y="118.0" width="10" height="10" fill="white" stroke="#845DAF" stroke-width="2.5" />
<text x="12" y="127" font-size="12" text-anchor="start" font-family="Consolas, monospace">UP_IN</text>
<text x="-15" y="126" font-size="11" text-anchor="end" fill="#000" font-style="italic" font-family="Verdana, sans-serif">AX</text>
<text x="-113" y="126" font-size="11" text-anchor="end" fill="#666666" font-family="Verdana, sans-serif">Input for forward/up direction</text>
<rect x="-5.0" y="144.0" width="10" height="10" fill="white" stroke="#845DAF" stroke-width="2.5" />
<text x="12" y="153" font-size="12" text-anchor="start" font-family="Consolas, monospace">DOWN_IN</text>
<text x="-15" y="152" font-size="11" text-anchor="end" fill="#000" font-style="italic" font-family="Verdana, sans-serif">AX</text>
<text x="-113" y="152" font-size="11" text-anchor="end" fill="#666666" font-family="Verdana, sans-serif">Input for backward/down direction</text>
<rect x="255.0" y="118.0" width="10" height="10" fill="#845DAF" stroke="none" />
<text x="248" y="127" font-size="12" text-anchor="end" font-family="Consolas, monospace">UP_OUT</text>
<text x="275" y="126" font-size="11" text-anchor="start" fill="#000" font-style="italic" font-family="Verdana, sans-serif">AX</text>
<text x="345" y="126" font-size="11" text-anchor="start" fill="#666666" font-family="Verdana, sans-serif">Output for forward/up direction</text>
<rect x="255.0" y="144.0" width="10" height="10" fill="#845DAF" stroke="none" />
<text x="248" y="153" font-size="12" text-anchor="end" font-family="Consolas, monospace">DOWN_OUT</text>
<text x="275" y="152" font-size="11" text-anchor="start" fill="#000" font-style="italic" font-family="Verdana, sans-serif">AX</text>
<text x="345" y="152" font-size="11" text-anchor="start" fill="#666666" font-family="Verdana, sans-serif">Output for backward/down direction</text>
<rect x="255.0" y="170.0" width="10" height="10" fill="#845DAF" stroke="none" />
<text x="248" y="179" font-size="12" text-anchor="end" font-family="Consolas, monospace">TRIP_OUT</text>
<text x="275" y="178" font-size="11" text-anchor="start" fill="#000" font-style="italic" font-family="Verdana, sans-serif">AX</text>
<text x="345" y="178" font-size="11" text-anchor="start" fill="#666666" font-family="Verdana, sans-serif">Trip State Output</text>
</svg>