<?xml version="1.0" encoding="UTF-8"?>
<svg xmlns="http://www.w3.org/2000/svg" xmlns:xlink="http://www.w3.org/1999/xlink"
     width="1270" height="187" viewBox="-540 -20 1270 187">
<defs>
</defs>
<rect x="3" y="3" width="190" height="137" fill="#000000" fill-opacity="0.1" rx="2" ry="2" />
<path d="M0,0 H190 V30 H184 V70 H190 V137 H0 V70 H6 V30 H0 Z" fill="#ffffff" stroke="#000000" stroke-width="2" />
<path d="M0,30 L190,30" stroke="#000000" stroke-width="1" />
<text x="95.0" y="48.0" font-size="14" fontWeight="bold" font-family="Verdana, sans-serif" font-style="italic" text-anchor="middle" dominant-baseline="central">ILOCK_SWITCH_AX</text>
<text x="95.0" y="62.0" font-size="10" fill="#000" font-family="Consolas, monospace" text-anchor="middle" dominant-baseline="central">1.0</text>
<rect x="-5.0" y="82.0" width="10" height="10" fill="white" stroke="#845DAF" stroke-width="2.5" />
<text x="12" y="91" font-size="12" text-anchor="start" font-family="Consolas, monospace">UP_IN</text>
<text x="-15" y="90" font-size="11" text-anchor="end" fill="#000" font-style="italic" font-family="Verdana, sans-serif">AX</text>
<text x="-113" y="90" font-size="11" text-anchor="end" fill="#666666" font-family="Verdana, sans-serif">Input for forward/up direction</text>
<rect x="-5.0" y="108.0" width="10" height="10" fill="white" stroke="#845DAF" stroke-width="2.5" />
<text x="12" y="117" font-size="12" text-anchor="start" font-family="Consolas, monospace">DOWN_IN</text>
<text x="-15" y="116" font-size="11" text-anchor="end" fill="#000" font-style="italic" font-family="Verdana, sans-serif">AX</text>
<text x="-113" y="116" font-size="11" text-anchor="end" fill="#666666" font-family="Verdana, sans-serif">Input for backward/down direction</text>
<rect x="185.0" y="82.0" width="10" height="10" fill="#845DAF" stroke="none" />
<text x="178" y="91" font-size="12" text-anchor="end" font-family="Consolas, monospace">UP_OUT</text>
<text x="205" y="90" font-size="11" text-anchor="start" fill="#000" font-style="italic" font-family="Verdana, sans-serif">AX</text>
<text x="275" y="90" font-size="11" text-anchor="start" fill="#666666" font-family="Verdana, sans-serif">Output for forward/up direction</text>
<rect x="185.0" y="108.0" width="10" height="10" fill="#845DAF" stroke="none" />
<text x="178" y="117" font-size="12" text-anchor="end" font-family="Consolas, monospace">DOWN_OUT</text>
<text x="205" y="116" font-size="11" text-anchor="start" fill="#000" font-style="italic" font-family="Verdana, sans-serif">AX</text>
<text x="275" y="116" font-size="11" text-anchor="start" fill="#666666" font-family="Verdana, sans-serif">Output for backward/down direction</text>
</svg>