<?xml version="1.0" encoding="UTF-8"?>
<svg xmlns="http://www.w3.org/2000/svg" xmlns:xlink="http://www.w3.org/1999/xlink"
     width="1358" height="249" viewBox="-548 -20 1358 249">
<defs>
</defs>
<rect x="3" y="3" width="270" height="199" fill="#000000" fill-opacity="0.1" rx="2" ry="2" />
<path d="M0,0 H270 V66 H264 V106 H270 V199 H0 V106 H6 V66 H0 Z" fill="#ffffff" stroke="#000000" stroke-width="2" />
<path d="M0,30 L270,30" stroke="#000000" stroke-width="1" />
<text x="135.0" y="84.0" font-size="14" fontWeight="bold" font-family="Verdana, sans-serif" font-style="italic" text-anchor="middle" dominant-baseline="central">ILOCK_SWITCH_PROTECT_AX</text>
<text x="135.0" y="98.0" font-size="10" fill="#000" font-family="Consolas, monospace" text-anchor="middle" dominant-baseline="central">1.2</text>
<path d="M-5,37 L-5,47 L0,42 Z" fill="#63B31F" stroke="none" />
<text x="12" y="46" font-size="12" text-anchor="start" font-family="Consolas, monospace">UPDATE</text>
<text x="-23" y="45" font-size="11" text-anchor="end" fill="#888" font-style="italic" font-family="Verdana, sans-serif">Event</text>
<text x="-121" y="45" font-size="11" text-anchor="end" fill="#666666" font-family="Verdana, sans-serif">Update parameters</text>
<rect x="-5.0" y="118.0" width="10" height="10" fill="white" stroke="#845DAF" stroke-width="2.5" />
<text x="12" y="127" font-size="12" text-anchor="start" font-family="Consolas, monospace">UP_IN</text>
<text x="-23" y="126" font-size="11" text-anchor="end" fill="#000" font-style="italic" font-family="Verdana, sans-serif">AX</text>
<text x="-121" y="126" font-size="11" text-anchor="end" fill="#666666" font-family="Verdana, sans-serif">Input for forward/up direction</text>
<rect x="-5.0" y="144.0" width="10" height="10" fill="white" stroke="#845DAF" stroke-width="2.5" />
<text x="12" y="153" font-size="12" text-anchor="start" font-family="Consolas, monospace">DOWN_IN</text>
<text x="-23" y="152" font-size="11" text-anchor="end" fill="#000" font-style="italic" font-family="Verdana, sans-serif">AX</text>
<text x="-121" y="152" font-size="11" text-anchor="end" fill="#666666" font-family="Verdana, sans-serif">Input for backward/down direction</text>
<path d="M-5,170 L-5,180 L0,175 Z" fill="#0000FF" stroke="none" />
<text x="12" y="179" font-size="12" text-anchor="start" font-family="Consolas, monospace">DT_PROTECT</text>
<text x="-23" y="178" font-size="11" text-anchor="end" fill="#0000FF" font-style="italic" font-family="Verdana, sans-serif">TIME</text>
<text x="-121" y="178" font-size="11" text-anchor="end" fill="#666666" font-family="Verdana, sans-serif">Protection Dead-Time</text>
<rect x="265.0" y="118.0" width="10" height="10" fill="#845DAF" stroke="none" />
<text x="258" y="127" font-size="12" text-anchor="end" font-family="Consolas, monospace">UP_OUT</text>
<text x="285" y="126" font-size="11" text-anchor="start" fill="#000" font-style="italic" font-family="Verdana, sans-serif">AX</text>
<text x="355" y="126" font-size="11" text-anchor="start" fill="#666666" font-family="Verdana, sans-serif">Output for forward/up direction</text>
<rect x="265.0" y="144.0" width="10" height="10" fill="#845DAF" stroke="none" />
<text x="258" y="153" font-size="12" text-anchor="end" font-family="Consolas, monospace">DOWN_OUT</text>
<text x="285" y="152" font-size="11" text-anchor="start" fill="#000" font-style="italic" font-family="Verdana, sans-serif">AX</text>
<text x="355" y="152" font-size="11" text-anchor="start" fill="#666666" font-family="Verdana, sans-serif">Output for backward/down direction</text>
<rect x="265.0" y="170.0" width="10" height="10" fill="#845DAF" stroke="none" />
<text x="258" y="179" font-size="12" text-anchor="end" font-family="Consolas, monospace">timeOut</text>
<text x="285" y="178" font-size="11" text-anchor="start" fill="#000" font-style="italic" font-family="Verdana, sans-serif">ATimeOut</text>
<text x="355" y="178" font-size="11" text-anchor="start" fill="#666666" font-family="Verdana, sans-serif">Protection Timer Adapter</text>
<path d="M-12,42 L-12,175" stroke="#404040" stroke-width="1" />
<path d="M0,42 L-12,42" stroke="#404040" />
<rect x="-14" y="40" width="4" height="4" fill="white" stroke="black" stroke-width="1" />
<path d="M-12,175 L-5,175" stroke="#404040" />
<rect x="-14" y="173" width="4" height="4" fill="white" stroke="black" stroke-width="1" />
</svg>