<?xml version="1.0" encoding="UTF-8"?>
<svg xmlns="http://www.w3.org/2000/svg" xmlns:xlink="http://www.w3.org/1999/xlink"
     width="1220" height="223" viewBox="-540 -20 1220 223">
<defs>
</defs>
<rect x="3" y="3" width="140" height="173" fill="#000000" fill-opacity="0.1" rx="2" ry="2" />
<path d="M0,0 H140 V66 H134 V106 H140 V173 H0 V106 H6 V66 H0 Z" fill="#ffffff" stroke="#000000" stroke-width="2" />
<path d="M0,30 L140,30" stroke="#000000" stroke-width="1" />
<text x="70.0" y="84.0" font-size="14" fontWeight="bold" font-family="Verdana, sans-serif" font-style="italic" text-anchor="middle" dominant-baseline="central">ILOCK_T_FF</text>
<text x="70.0" y="98.0" font-size="10" fill="#000" font-family="Consolas, monospace" text-anchor="middle" dominant-baseline="central">1.1</text>
<path d="M-5,37 L-5,47 L0,42 Z" fill="#63B31F" stroke="none" />
<text x="12" y="46" font-size="12" text-anchor="start" font-family="Consolas, monospace">CLK</text>
<text x="-15" y="45" font-size="11" text-anchor="end" fill="#888" font-style="italic" font-family="Verdana, sans-serif">Event</text>
<text x="-114" y="45" font-size="11" text-anchor="end" fill="#666666" font-family="Verdana, sans-serif">Clock for triggering a output toggle</text>
<rect x="-5.0" y="118.0" width="10" height="10" fill="white" stroke="#845DAF" stroke-width="2.5" />
<text x="12" y="127" font-size="12" text-anchor="start" font-family="Consolas, monospace">ILOCK_IN</text>
<text x="-15" y="126" font-size="11" text-anchor="end" fill="#000" font-style="italic" font-family="Verdana, sans-serif">AE2</text>
<path d="M140,37 L140,47 L145,42 Z" fill="#63B31F" stroke="none" />
<text x="128" y="46" font-size="12" text-anchor="end" font-family="Consolas, monospace">EO</text>
<text x="155" y="45" font-size="11" text-anchor="start" fill="#888" font-style="italic" font-family="Verdana, sans-serif">Event</text>
<rect x="135.0" y="118.0" width="10" height="10" fill="#845DAF" stroke="none" />
<text x="128" y="127" font-size="12" text-anchor="end" font-family="Consolas, monospace">ILOCK_OUT</text>
<text x="155" y="126" font-size="11" text-anchor="start" fill="#000" font-style="italic" font-family="Verdana, sans-serif">AE2</text>
<path d="M140,144 L140,154 L145,149 Z" fill="#9FA48A" stroke="none" />
<text x="128" y="153" font-size="12" text-anchor="end" font-family="Consolas, monospace">Q</text>
<text x="155" y="152" font-size="11" text-anchor="start" fill="#9FA48A" font-style="italic" font-family="Verdana, sans-serif">BOOL</text>
<text x="225" y="152" font-size="11" text-anchor="start" fill="#666666" font-family="Verdana, sans-serif">Output</text>
</svg>