<?xml version="1.0" encoding="UTF-8"?>
<svg xmlns="http://www.w3.org/2000/svg" xmlns:xlink="http://www.w3.org/1999/xlink"
     width="1200" height="800" viewBox="0 0 1200 800">
<defs>
</defs>
<rect x="0" y="0" width="1200" height="800" fill="#ffffff" />
<text x="600" y="25" font-size="14" fontWeight="bold" font-family="Verdana, sans-serif" fill="#000000" text-anchor="middle" dominant-baseline="central">ECC: ILOCK_2_E</text>
<rect x="10.0" y="270.25" width="80" height="32" fill="#f5f5f5" stroke="#000000" stroke-width="2" rx="8" ry="8" />
<text x="50.0" y="286.25" font-size="12" fontWeight="bold" font-family="Verdana, sans-serif" fill="#000000" text-anchor="middle" dominant-baseline="central">STOP</text>
<rect x="505.0" y="654.0" width="80" height="32" fill="#f5f5f5" stroke="#000000" stroke-width="2" rx="8" ry="8" />
<text x="545.0" y="670.0" font-size="12" fontWeight="bold" font-family="Verdana, sans-serif" fill="#000000" text-anchor="middle" dominant-baseline="central">RESET</text>
<rect x="595.0" y="654.0" width="161" height="22" fill="#ffffff" stroke="#cccccc" stroke-width="1" rx="4" ry="4" />
<path d="M585.0,670.0 L595.0,665.0" stroke="#000000" stroke-width="2" />
<path d="M675.0,654.0 L675.0,676.0" stroke="#cccccc" stroke-width="1" />
<rect x="595.0" y="658.0" width="80" height="14" fill="#e6f7e6" stroke="#cccccc" stroke-width="0.5" />
<text x="635.0" y="666.0" font-size="10" font-family="Consolas, monospace" fill="#000000" text-anchor="middle" dominant-baseline="central">RESET</text>
<rect x="676.0" y="658.0" width="80" height="14" fill="#ffe6e6" stroke="#cccccc" stroke-width="0.5" />
<text x="716.0" y="666.0" font-size="10" font-family="Consolas, monospace" fill="#000000" text-anchor="middle" dominant-baseline="central">EO</text>
<rect x="545.0" y="494.0" width="80" height="32" fill="#f5f5f5" stroke="#000000" stroke-width="2" rx="8" ry="8" />
<text x="585.0" y="510.0" font-size="12" fontWeight="bold" font-family="Verdana, sans-serif" fill="#000000" text-anchor="middle" dominant-baseline="central">TOGGLE1</text>
<rect x="635.0" y="494.0" width="161" height="22" fill="#ffffff" stroke="#cccccc" stroke-width="1" rx="4" ry="4" />
<path d="M625.0,510.0 L635.0,505.0" stroke="#000000" stroke-width="2" />
<path d="M715.0,494.0 L715.0,516.0" stroke="#cccccc" stroke-width="1" />
<rect x="635.0" y="498.0" width="80" height="14" fill="#e6f7e6" stroke="#cccccc" stroke-width="0.5" />
<text x="675.0" y="506.0" font-size="10" font-family="Consolas, monospace" fill="#000000" text-anchor="middle" dominant-baseline="central">TOGGLE1</text>
<rect x="716.0" y="498.0" width="80" height="14" fill="#ffe6e6" stroke="#cccccc" stroke-width="0.5" />
<text x="756.0" y="506.0" font-size="10" font-family="Consolas, monospace" fill="#000000" text-anchor="middle" dominant-baseline="central">EO</text>
<rect x="565.0" y="354.0" width="80" height="32" fill="#f5f5f5" stroke="#000000" stroke-width="2" rx="8" ry="8" />
<text x="605.0" y="370.0" font-size="12" fontWeight="bold" font-family="Verdana, sans-serif" fill="#000000" text-anchor="middle" dominant-baseline="central">SET1</text>
<rect x="655.0" y="354.0" width="161" height="22" fill="#ffffff" stroke="#cccccc" stroke-width="1" rx="4" ry="4" />
<path d="M645.0,370.0 L655.0,365.0" stroke="#000000" stroke-width="2" />
<path d="M735.0,354.0 L735.0,376.0" stroke="#cccccc" stroke-width="1" />
<rect x="655.0" y="358.0" width="80" height="14" fill="#e6f7e6" stroke="#cccccc" stroke-width="0.5" />
<text x="695.0" y="366.0" font-size="10" font-family="Consolas, monospace" fill="#000000" text-anchor="middle" dominant-baseline="central">SET1</text>
<rect x="736.0" y="358.0" width="80" height="14" fill="#ffe6e6" stroke="#cccccc" stroke-width="0.5" />
<text x="776.0" y="366.0" font-size="10" font-family="Consolas, monospace" fill="#000000" text-anchor="middle" dominant-baseline="central">EO</text>
<rect x="625.0" y="214.0" width="80" height="32" fill="#f5f5f5" stroke="#000000" stroke-width="2" rx="8" ry="8" />
<text x="665.0" y="230.0" font-size="12" fontWeight="bold" font-family="Verdana, sans-serif" fill="#000000" text-anchor="middle" dominant-baseline="central">SET2</text>
<rect x="715.0" y="214.0" width="161" height="22" fill="#ffffff" stroke="#cccccc" stroke-width="1" rx="4" ry="4" />
<path d="M705.0,230.0 L715.0,225.0" stroke="#000000" stroke-width="2" />
<path d="M795.0,214.0 L795.0,236.0" stroke="#cccccc" stroke-width="1" />
<rect x="715.0" y="218.0" width="80" height="14" fill="#e6f7e6" stroke="#cccccc" stroke-width="0.5" />
<text x="755.0" y="226.0" font-size="10" font-family="Consolas, monospace" fill="#000000" text-anchor="middle" dominant-baseline="central">SET2</text>
<rect x="796.0" y="218.0" width="80" height="14" fill="#ffe6e6" stroke="#cccccc" stroke-width="0.5" />
<text x="836.0" y="226.0" font-size="10" font-family="Consolas, monospace" fill="#000000" text-anchor="middle" dominant-baseline="central">EO</text>
<rect x="625.0" y="114.0" width="80" height="32" fill="#f5f5f5" stroke="#000000" stroke-width="2" rx="8" ry="8" />
<text x="665.0" y="130.0" font-size="12" fontWeight="bold" font-family="Verdana, sans-serif" fill="#000000" text-anchor="middle" dominant-baseline="central">TOGGLE2</text>
<rect x="715.0" y="114.0" width="161" height="22" fill="#ffffff" stroke="#cccccc" stroke-width="1" rx="4" ry="4" />
<path d="M705.0,130.0 L715.0,125.0" stroke="#000000" stroke-width="2" />
<path d="M795.0,114.0 L795.0,136.0" stroke="#cccccc" stroke-width="1" />
<rect x="715.0" y="118.0" width="80" height="14" fill="#e6f7e6" stroke="#cccccc" stroke-width="0.5" />
<text x="755.0" y="126.0" font-size="10" font-family="Consolas, monospace" fill="#000000" text-anchor="middle" dominant-baseline="central">TOGGLE2</text>
<rect x="796.0" y="118.0" width="80" height="14" fill="#ffe6e6" stroke="#cccccc" stroke-width="0.5" />
<text x="836.0" y="126.0" font-size="10" font-family="Consolas, monospace" fill="#000000" text-anchor="middle" dominant-baseline="central">EO</text>
<path d="M90.0,278.75 C298.1874395826991,278.75,605.0,145.8125604173009,605.0,354.0" stroke="#404040" stroke-width="1.2" fill="none" />
<path d="M605.0,354.0 L601.0,347.0717967697245 L609.0,347.0717967697245 L605.0,354.0" fill="#404040" stroke="#404040" stroke-width="1" />
<g transform="translate(425.57028984351217,238.30471015648783)">
<rect x="-17.0" y="-7.5" width="34.0" height="15" fill="#ffffff" opacity="0.9" rx="3" ry="3" />
<text x="0" y="3.5" font-size="10" font-family="Consolas, monospace" fill="#000000" text-anchor="middle" dominant-baseline="central">SET1</text>
</g>
<path d="M90.0,278.75 C320.37276314703524,278.75,665.0,476.37276314703524,665.0,246.0" stroke="#404040" stroke-width="1.2" fill="none" />
<path d="M665.0,246.0 L669.0,252.9282032302755 L661.0,252.9282032302755 L665.0,246.0" fill="#404040" stroke="#404040" stroke-width="1" />
<g transform="translate(463.88978618013823,348.76478618013823)">
<rect x="-17.0" y="-7.5" width="34.0" height="15" fill="#ffffff" opacity="0.9" rx="3" ry="3" />
<text x="0" y="3.5" font-size="10" font-family="Consolas, monospace" fill="#000000" text-anchor="middle" dominant-baseline="central">SET2</text>
</g>
<path d="M90.0,278.75 C305.910189662276,278.75,585.0,278.089810337724,585.0,494.0" stroke="#404040" stroke-width="1.2" fill="none" />
<path d="M585.0,494.0 L581.0,487.0717967697245 L589.0,487.0717967697245 L585.0,494.0" fill="#404040" stroke="#404040" stroke-width="1" />
<g transform="translate(418.4663211233535,305.4086788766465)">
<rect x="-17.0" y="-7.5" width="34.0" height="15" fill="#ffffff" opacity="0.9" rx="3" ry="3" />
<text x="0" y="3.5" font-size="10" font-family="Consolas, monospace" fill="#000000" text-anchor="middle" dominant-baseline="central">CLK1</text>
</g>
<path d="M90.0,278.75 C326.05001588646417,278.75,665.0,382.05001588646417,665.0,146.0" stroke="#404040" stroke-width="1.2" fill="none" />
<path d="M665.0,146.0 L669.0,152.9282032302755 L661.0,152.9282032302755 L665.0,146.0" fill="#404040" stroke="#404040" stroke-width="1" />
<g transform="translate(466.01875595742405,300.89375595742405)">
<rect x="-17.0" y="-7.5" width="34.0" height="15" fill="#ffffff" opacity="0.9" rx="3" ry="3" />
<text x="0" y="3.5" font-size="10" font-family="Consolas, monospace" fill="#000000" text-anchor="middle" dominant-baseline="central">CLK2</text>
</g>
<path d="M90.0,278.75 C325.91102136186856,278.75,545.0,418.08897863813144,545.0,654.0" stroke="#404040" stroke-width="1.2" fill="none" />
<path d="M545.0,654.0 L541.0,647.0717967697245 L549.0,647.0717967697245 L545.0,654.0" fill="#404040" stroke="#404040" stroke-width="1" />
<g transform="translate(405.9666330107007,377.9083669892993)">
<rect x="-7.25" y="-7.5" width="14.5" height="15" fill="#ffffff" opacity="0.9" rx="3" ry="3" />
<text x="0" y="3.5" font-size="10" font-family="Consolas, monospace" fill="#000000" text-anchor="middle" dominant-baseline="central">R</text>
</g>
<path d="M545.0,517.5 C303.03478240047446,517.5,20.0,544.2152175995255,20.0,302.25" stroke="#404040" stroke-width="1.2" fill="none" />
<path d="M20.0,302.25 L24.0,309.1782032302755 L16.0,309.1782032302755 L20.0,302.25" fill="#404040" stroke="#404040" stroke-width="1" />
<g transform="translate(191.76304340017793,500.61195659982207)">
<rect x="-7.25" y="-7.5" width="14.5" height="15" fill="#ffffff" opacity="0.9" rx="3" ry="3" />
<text x="0" y="3.5" font-size="10" font-family="Consolas, monospace" fill="#000000" text-anchor="middle" dominant-baseline="central">1</text>
</g>
<path d="M565.0,377.5 C335.8738455956395,377.5,35.0,531.3761544043605,35.0,302.25" stroke="#404040" stroke-width="1.2" fill="none" />
<path d="M35.0,302.25 L39.0,309.1782032302755 L31.0,309.1782032302755 L35.0,302.25" fill="#404040" stroke="#404040" stroke-width="1" />
<g transform="translate(214.07769209836482,425.7973079016352)">
<rect x="-7.25" y="-7.5" width="14.5" height="15" fill="#ffffff" opacity="0.9" rx="3" ry="3" />
<text x="0" y="3.5" font-size="10" font-family="Consolas, monospace" fill="#000000" text-anchor="middle" dominant-baseline="central">1</text>
</g>
<path d="M625.0,237.5 C379.62723685296476,237.5,50.0,24.877236852964728,50.0,270.25" stroke="#404040" stroke-width="1.2" fill="none" />
<path d="M50.0,270.25 L46.0,263.3217967697245 L54.0,263.3217967697245 L50.0,270.25" fill="#404040" stroke="#404040" stroke-width="1" />
<g transform="translate(245.48521381986177,161.86021381986177)">
<rect x="-7.25" y="-7.5" width="14.5" height="15" fill="#ffffff" opacity="0.9" rx="3" ry="3" />
<text x="0" y="3.5" font-size="10" font-family="Consolas, monospace" fill="#000000" text-anchor="middle" dominant-baseline="central">1</text>
</g>
<path d="M625.0,137.5 C379.7922460037455,137.5,65.0,25.042246003745532,65.0,270.25" stroke="#404040" stroke-width="1.2" fill="none" />
<path d="M65.0,270.25 L61.0,263.3217967697245 L69.0,263.3217967697245 L65.0,270.25" fill="#404040" stroke="#404040" stroke-width="1" />
<g transform="translate(253.04709225140456,111.92209225140458)">
<rect x="-7.25" y="-7.5" width="14.5" height="15" fill="#ffffff" opacity="0.9" rx="3" ry="3" />
<text x="0" y="3.5" font-size="10" font-family="Consolas, monospace" fill="#000000" text-anchor="middle" dominant-baseline="central">1</text>
</g>
<path d="M505.0,677.5 C263.21814446477424,677.5,80.0,544.0318555352258,80.0,302.25" stroke="#404040" stroke-width="1.2" fill="none" />
<path d="M80.0,302.25 L84.0,309.1782032302755 L76.0,309.1782032302755 L80.0,302.25" fill="#404040" stroke="#404040" stroke-width="1" />
<g transform="translate(201.83180417429034,580.5431958257096)">
<rect x="-7.25" y="-7.5" width="14.5" height="15" fill="#ffffff" opacity="0.9" rx="3" ry="3" />
<text x="0" y="3.5" font-size="10" font-family="Consolas, monospace" fill="#000000" text-anchor="middle" dominant-baseline="central">1</text>
</g>
</svg>