<?xml version="1.0" encoding="UTF-8"?>
<svg xmlns="http://www.w3.org/2000/svg" xmlns:xlink="http://www.w3.org/1999/xlink"
     width="1200" height="800" viewBox="0 0 1200 800">
<defs>
</defs>
<rect x="0" y="0" width="1200" height="800" fill="#ffffff" />
<text x="600" y="25" font-size="14" fontWeight="bold" font-family="Verdana, sans-serif" fill="#000000" text-anchor="middle" dominant-baseline="central">ECC: ILOCK_FB_SR_AX</text>
<rect x="515.9248687496815" y="375.0" width="80" height="32" fill="#f5f5f5" stroke="#000000" stroke-width="2" rx="8" ry="8" />
<text x="555.9248687496815" y="391.0" font-size="12" fontWeight="bold" font-family="Verdana, sans-serif" fill="#000000" text-anchor="middle" dominant-baseline="central">REQ</text>
<rect x="605.9248687496815" y="375.0" width="167.0" height="50" fill="#ffffff" stroke="#cccccc" stroke-width="1" rx="4" ry="4" />
<path d="M595.9248687496815,391.0 L605.9248687496815,386.0" stroke="#000000" stroke-width="2" />
<path d="M685.9248687496815,375.0 L685.9248687496815,425.0" stroke="#cccccc" stroke-width="1" />
<rect x="605.9248687496815" y="379.0" width="80" height="14" fill="#e6f7e6" stroke="#cccccc" stroke-width="0.5" />
<text x="645.9248687496815" y="387.0" font-size="10" font-family="Consolas, monospace" fill="#000000" text-anchor="middle" dominant-baseline="central">REQ</text>
<rect x="686.9248687496815" y="379.0" width="86.0" height="14" fill="#ffe6e6" stroke="#cccccc" stroke-width="0.5" />
<text x="729.9248687496815" y="387.0" font-size="10" font-family="Consolas, monospace" fill="#000000" text-anchor="middle" dominant-baseline="central">Q1.E1</text>
<path d="M605.9248687496815,393.0 L772.9248687496815,393.0" stroke="#cccccc" stroke-width="0.5" />
<rect x="605.9248687496815" y="393.0" width="80" height="14" fill="#e6f7e6" stroke="#cccccc" stroke-width="0.5" />
<text x="645.9248687496815" y="401.0" font-size="10" font-family="Consolas, monospace" fill="#000000" text-anchor="middle" dominant-baseline="central"></text>
<rect x="686.9248687496815" y="393.0" width="86.0" height="14" fill="#ffe6e6" stroke="#cccccc" stroke-width="0.5" />
<text x="729.9248687496815" y="401.0" font-size="10" font-family="Consolas, monospace" fill="#000000" text-anchor="middle" dominant-baseline="central">ILOCK_IN.EI1</text>
<path d="M605.9248687496815,407.0 L772.9248687496815,407.0" stroke="#cccccc" stroke-width="0.5" />
<rect x="605.9248687496815" y="407.0" width="80" height="14" fill="#e6f7e6" stroke="#cccccc" stroke-width="0.5" />
<text x="645.9248687496815" y="415.0" font-size="10" font-family="Consolas, monospace" fill="#000000" text-anchor="middle" dominant-baseline="central"></text>
<rect x="686.9248687496815" y="407.0" width="86.0" height="14" fill="#ffe6e6" stroke="#cccccc" stroke-width="0.5" />
<text x="729.9248687496815" y="415.0" font-size="10" font-family="Consolas, monospace" fill="#000000" text-anchor="middle" dominant-baseline="central">ILOCK_OUT.EO1</text>
<path d="M575.9248687496815,407.0 C635.9248687496815,463.0,475.92486874968154,463.0,535.9248687496815,407.0" stroke="#404040" stroke-width="1.2" fill="none" />
<path d="M535.9248687496815,407.0 L533.5892422801714,414.6514605791916 L528.1306962772913,408.80301843324867 L535.9248687496815,407.0" fill="#404040" stroke="#404040" stroke-width="1" />
<g transform="translate(555.9248687496815,427.0)">
<rect x="-26.75" y="-7.5" width="53.5" height="15" fill="#ffffff" opacity="0.9" rx="3" ry="3" />
<text x="0" y="3.5" font-size="10" font-family="Consolas, monospace" fill="#000000" text-anchor="middle" dominant-baseline="central">SET1.E1</text>
</g>
<path d="M575.9248687496815,407.0 C635.9248687496815,488.0,475.92486874968154,488.0,535.9248687496815,407.0" stroke="#404040" stroke-width="1.2" fill="none" />
<path d="M535.9248687496815,407.0 L535.0152400840662,414.9481177451451 L528.5867825373083,410.1862973401392 L535.9248687496815,407.0" fill="#404040" stroke="#404040" stroke-width="1" />
<g transform="translate(555.9248687496815,457.5)">
<rect x="-30.0" y="-7.5" width="60.0" height="15" fill="#ffffff" opacity="0.9" rx="3" ry="3" />
<text x="0" y="3.5" font-size="10" font-family="Consolas, monospace" fill="#000000" text-anchor="middle" dominant-baseline="central">RESET.E1</text>
</g>
<path d="M575.9248687496815,407.0 C635.9248687496815,513.0,475.92486874968154,513.0,535.9248687496815,407.0" stroke="#404040" stroke-width="1.2" fill="none" />
<path d="M535.9248687496815,407.0 L535.9930755919623,414.9997092338826 L529.0310207513907,411.0589234750684 L535.9248687496815,407.0" fill="#404040" stroke="#404040" stroke-width="1" />
<g transform="translate(555.9248687496815,488.0)">
<rect x="-43.0" y="-7.5" width="86.0" height="15" fill="#ffffff" opacity="0.9" rx="3" ry="3" />
<text x="0" y="3.5" font-size="10" font-family="Consolas, monospace" fill="#000000" text-anchor="middle" dominant-baseline="central">ILOCK_IN.EO1</text>
</g>
<path d="M575.9248687496815,407.0 C635.9248687496815,538.0,475.92486874968154,538.0,535.9248687496815,407.0" stroke="#404040" stroke-width="1.2" fill="none" />
<path d="M535.9248687496815,407.0 L536.6765533013726,414.9646073559686 L529.4031587240898,411.63328159538105 L535.9248687496815,407.0" fill="#404040" stroke="#404040" stroke-width="1" />
<g transform="translate(555.9248687496815,518.5)">
<rect x="-46.25" y="-7.5" width="92.5" height="15" fill="#ffffff" opacity="0.9" rx="3" ry="3" />
<text x="0" y="3.5" font-size="10" font-family="Consolas, monospace" fill="#000000" text-anchor="middle" dominant-baseline="central">ILOCK_OUT.EI1</text>
</g>
</svg>