<?xml version="1.0" encoding="UTF-8"?>
<svg xmlns="http://www.w3.org/2000/svg" xmlns:xlink="http://www.w3.org/1999/xlink"
     width="1200" height="800" viewBox="0 0 1200 800">
<defs>
</defs>
<rect x="0" y="0" width="1200" height="800" fill="#ffffff" />
<text x="600" y="25" font-size="14" fontWeight="bold" font-family="Verdana, sans-serif" fill="#000000" text-anchor="middle" dominant-baseline="central">ECC: ILOCK_SWITCH_PROTECT_AX</text>
<rect x="87.66445283277463" y="368.2944075472129" width="80" height="32" fill="#f5f5f5" stroke="#000000" stroke-width="2" rx="8" ry="8" />
<text x="127.66445283277463" y="384.2944075472129" font-size="12" fontWeight="bold" font-family="Verdana, sans-serif" fill="#000000" text-anchor="middle" dominant-baseline="central">STOP</text>
<rect x="430.3042641524519" y="532.761516980658" width="80" height="32" fill="#f5f5f5" stroke="#000000" stroke-width="2" rx="8" ry="8" />
<text x="470.3042641524519" y="548.761516980658" font-size="12" fontWeight="bold" font-family="Verdana, sans-serif" fill="#000000" text-anchor="middle" dominant-baseline="central">DOWN</text>
<rect x="520.3042641524519" y="532.761516980658" width="161" height="36" fill="#ffffff" stroke="#cccccc" stroke-width="1" rx="4" ry="4" />
<path d="M510.3042641524519,548.761516980658 L520.3042641524519,543.761516980658" stroke="#000000" stroke-width="2" />
<path d="M600.3042641524519,532.761516980658 L600.3042641524519,568.761516980658" stroke="#cccccc" stroke-width="1" />
<rect x="520.3042641524519" y="536.761516980658" width="80" height="14" fill="#e6f7e6" stroke="#cccccc" stroke-width="0.5" />
<text x="560.3042641524519" y="544.761516980658" font-size="10" font-family="Consolas, monospace" fill="#000000" text-anchor="middle" dominant-baseline="central">DOWN</text>
<rect x="601.3042641524519" y="536.761516980658" width="80" height="14" fill="#ffe6e6" stroke="#cccccc" stroke-width="0.5" />
<text x="641.3042641524519" y="544.761516980658" font-size="10" font-family="Consolas, monospace" fill="#000000" text-anchor="middle" dominant-baseline="central">DOWN_OUT.E1</text>
<path d="M520.3042641524519,550.761516980658 L681.3042641524519,550.761516980658" stroke="#cccccc" stroke-width="0.5" />
<rect x="520.3042641524519" y="550.761516980658" width="80" height="14" fill="#e6f7e6" stroke="#cccccc" stroke-width="0.5" />
<text x="560.3042641524519" y="558.761516980658" font-size="10" font-family="Consolas, monospace" fill="#000000" text-anchor="middle" dominant-baseline="central"></text>
<rect x="601.3042641524519" y="550.761516980658" width="80" height="14" fill="#ffe6e6" stroke="#cccccc" stroke-width="0.5" />
<text x="641.3042641524519" y="558.761516980658" font-size="10" font-family="Consolas, monospace" fill="#000000" text-anchor="middle" dominant-baseline="central">UP_OUT.E1</text>
<rect x="471.42104151081315" y="382.0" width="80" height="32" fill="#f5f5f5" stroke="#000000" stroke-width="2" rx="8" ry="8" />
<text x="511.42104151081315" y="398.0" font-size="12" fontWeight="bold" font-family="Verdana, sans-serif" fill="#000000" text-anchor="middle" dominant-baseline="central">PROTECT</text>
<rect x="561.4210415108132" y="382.0" width="167.0" height="50" fill="#ffffff" stroke="#cccccc" stroke-width="1" rx="4" ry="4" />
<path d="M551.4210415108132,398.0 L561.4210415108132,393.0" stroke="#000000" stroke-width="2" />
<path d="M641.4210415108132,382.0 L641.4210415108132,432.0" stroke="#cccccc" stroke-width="1" />
<rect x="561.4210415108132" y="386.0" width="80" height="14" fill="#e6f7e6" stroke="#cccccc" stroke-width="0.5" />
<text x="601.4210415108132" y="394.0" font-size="10" font-family="Consolas, monospace" fill="#000000" text-anchor="middle" dominant-baseline="central">STOP</text>
<rect x="642.4210415108132" y="386.0" width="86.0" height="14" fill="#ffe6e6" stroke="#cccccc" stroke-width="0.5" />
<text x="685.4210415108132" y="394.0" font-size="10" font-family="Consolas, monospace" fill="#000000" text-anchor="middle" dominant-baseline="central">UP_OUT.E1</text>
<path d="M561.4210415108132,400.0 L728.4210415108132,400.0" stroke="#cccccc" stroke-width="0.5" />
<rect x="561.4210415108132" y="400.0" width="80" height="14" fill="#e6f7e6" stroke="#cccccc" stroke-width="0.5" />
<text x="601.4210415108132" y="408.0" font-size="10" font-family="Consolas, monospace" fill="#000000" text-anchor="middle" dominant-baseline="central"></text>
<rect x="642.4210415108132" y="400.0" width="86.0" height="14" fill="#ffe6e6" stroke="#cccccc" stroke-width="0.5" />
<text x="685.4210415108132" y="408.0" font-size="10" font-family="Consolas, monospace" fill="#000000" text-anchor="middle" dominant-baseline="central">DOWN_OUT.E1</text>
<path d="M561.4210415108132,414.0 L728.4210415108132,414.0" stroke="#cccccc" stroke-width="0.5" />
<rect x="561.4210415108132" y="414.0" width="80" height="14" fill="#e6f7e6" stroke="#cccccc" stroke-width="0.5" />
<text x="601.4210415108132" y="422.0" font-size="10" font-family="Consolas, monospace" fill="#000000" text-anchor="middle" dominant-baseline="central"></text>
<rect x="642.4210415108132" y="414.0" width="86.0" height="14" fill="#ffe6e6" stroke="#cccccc" stroke-width="0.5" />
<text x="685.4210415108132" y="422.0" font-size="10" font-family="Consolas, monospace" fill="#000000" text-anchor="middle" dominant-baseline="central">timeOut.START</text>
<rect x="485.12663396360017" y="231.238483019342" width="80" height="32" fill="#f5f5f5" stroke="#000000" stroke-width="2" rx="8" ry="8" />
<text x="525.1266339636002" y="247.238483019342" font-size="12" fontWeight="bold" font-family="Verdana, sans-serif" fill="#000000" text-anchor="middle" dominant-baseline="central">UP</text>
<rect x="575.1266339636002" y="231.238483019342" width="161" height="36" fill="#ffffff" stroke="#cccccc" stroke-width="1" rx="4" ry="4" />
<path d="M565.1266339636002,247.238483019342 L575.1266339636002,242.238483019342" stroke="#000000" stroke-width="2" />
<path d="M655.1266339636002,231.238483019342 L655.1266339636002,267.23848301934197" stroke="#cccccc" stroke-width="1" />
<rect x="575.1266339636002" y="235.238483019342" width="80" height="14" fill="#e6f7e6" stroke="#cccccc" stroke-width="0.5" />
<text x="615.1266339636002" y="243.238483019342" font-size="10" font-family="Consolas, monospace" fill="#000000" text-anchor="middle" dominant-baseline="central">UP</text>
<rect x="656.1266339636002" y="235.238483019342" width="80" height="14" fill="#ffe6e6" stroke="#cccccc" stroke-width="0.5" />
<text x="696.1266339636002" y="243.238483019342" font-size="10" font-family="Consolas, monospace" fill="#000000" text-anchor="middle" dominant-baseline="central">UP_OUT.E1</text>
<path d="M575.1266339636002,249.238483019342 L736.1266339636002,249.238483019342" stroke="#cccccc" stroke-width="0.5" />
<rect x="575.1266339636002" y="249.238483019342" width="80" height="14" fill="#e6f7e6" stroke="#cccccc" stroke-width="0.5" />
<text x="615.1266339636002" y="257.23848301934197" font-size="10" font-family="Consolas, monospace" fill="#000000" text-anchor="middle" dominant-baseline="central"></text>
<rect x="656.1266339636002" y="249.238483019342" width="80" height="14" fill="#ffe6e6" stroke="#cccccc" stroke-width="0.5" />
<text x="696.1266339636002" y="257.23848301934197" font-size="10" font-family="Consolas, monospace" fill="#000000" text-anchor="middle" dominant-baseline="central">DOWN_OUT.E1</text>
<rect x="910.0" y="382.0" width="80" height="32" fill="#f5f5f5" stroke="#000000" stroke-width="2" rx="8" ry="8" />
<text x="950.0" y="398.0" font-size="12" fontWeight="bold" font-family="Verdana, sans-serif" fill="#000000" text-anchor="middle" dominant-baseline="central">EVAL</text>
<path d="M167.66445283277463,384.2944075472129 C312.9558193309558,384.2944075472129,510.12663396360017,408.52984951752313,510.12663396360017,263.23848301934197" stroke="#404040" stroke-width="1.2" fill="none" />
<path d="M510.12663396360017,263.23848301934197 L514.1266339636002,270.1666862496175 L506.12663396360017,270.1666862496175 L510.12663396360017,263.23848301934197" fill="#404040" stroke="#404040" stroke-width="1" />
<g transform="translate(393.3798058350054,378.25070772009536)">
<rect x="-62.5" y="-7.5" width="125.0" height="15" fill="#ffffff" opacity="0.9" rx="3" ry="3" />
<text x="0" y="3.5" font-size="10" font-family="Consolas, monospace" fill="#000000" text-anchor="middle" dominant-baseline="central">UP_IN.E1[UP_IN.D1]</text>
</g>
<path d="M167.66445283277463,384.2944075472129 C297.1428795390284,384.2944075472129,455.3042641524519,403.28309027440423,455.3042641524519,532.761516980658" stroke="#404040" stroke-width="1.2" fill="none" />
<path d="M455.3042641524519,532.761516980658 L451.3042641524519,525.8333137503826 L459.3042641524519,525.8333137503826 L455.3042641524519,532.761516980658" fill="#404040" stroke="#404040" stroke-width="1" />
<g transform="translate(360.03876850745837,409.97355224909035)">
<rect x="-75.5" y="-7.5" width="151.0" height="15" fill="#ffffff" opacity="0.9" rx="3" ry="3" />
<text x="0" y="3.5" font-size="10" font-family="Consolas, monospace" fill="#000000" text-anchor="middle" dominant-baseline="central">DOWN_IN.E1[DOWN_IN.D1]</text>
</g>
<path d="M517.6266339636002,263.23848301934197 C517.6266339636002,343.23848301934197,481.42104151081315,302.0,481.42104151081315,382.0" stroke="#404040" stroke-width="1.2" fill="none" />
<path d="M481.42104151081315,382.0 L477.42104151081315,375.0717967697245 L485.42104151081315,375.0717967697245 L481.42104151081315,382.0" fill="#404040" stroke="#404040" stroke-width="1" />
<g transform="translate(499.52383773720663,322.619241509671)">
<rect x="-75.5" y="-7.5" width="151.0" height="15" fill="#ffffff" opacity="0.9" rx="3" ry="3" />
<text x="0" y="3.5" font-size="10" font-family="Consolas, monospace" fill="#000000" text-anchor="middle" dominant-baseline="central">UP_IN.E1[NOT UP_IN.D1]</text>
</g>
<path d="M532.6266339636002,263.23848301934197 C532.6266339636002,358.23848301934197,496.42104151081315,287.0,496.42104151081315,382.0" stroke="#404040" stroke-width="1.2" fill="none" />
<path d="M496.42104151081315,382.0 L492.42104151081315,375.0717967697245 L500.42104151081315,375.0717967697245 L496.42104151081315,382.0" fill="#404040" stroke="#404040" stroke-width="1" />
<g transform="translate(514.5238377372066,340.619241509671)">
<rect x="-75.5" y="-7.5" width="151.0" height="15" fill="#ffffff" opacity="0.9" rx="3" ry="3" />
<text x="0" y="3.5" font-size="10" font-family="Consolas, monospace" fill="#000000" text-anchor="middle" dominant-baseline="central">DOWN_IN.E1[DOWN_IN.D1]</text>
</g>
<path d="M462.8042641524519,532.761516980658 C462.8042641524519,452.76151698065803,511.42104151081315,494.0,511.42104151081315,414.0" stroke="#404040" stroke-width="1.2" fill="none" />
<path d="M511.42104151081315,414.0 L515.4210415108131,420.9282032302755 L507.42104151081315,420.9282032302755 L511.42104151081315,414.0" fill="#404040" stroke="#404040" stroke-width="1" />
<g transform="translate(487.1126528316325,473.380758490329)">
<rect x="-88.5" y="-7.5" width="177.0" height="15" fill="#ffffff" opacity="0.9" rx="3" ry="3" />
<text x="0" y="3.5" font-size="10" font-family="Consolas, monospace" fill="#000000" text-anchor="middle" dominant-baseline="central">DOWN_IN.E1[NOT DOWN_IN.D1]</text>
</g>
<path d="M477.8042641524519,532.761516980658 C477.8042641524519,437.76151698065803,526.4210415108132,509.0,526.4210415108132,414.0" stroke="#404040" stroke-width="1.2" fill="none" />
<path d="M526.4210415108132,414.0 L530.4210415108132,420.9282032302755 L522.4210415108132,420.9282032302755 L526.4210415108132,414.0" fill="#404040" stroke="#404040" stroke-width="1" />
<g transform="translate(502.11265283163254,491.380758490329)">
<rect x="-62.5" y="-7.5" width="125.0" height="15" fill="#ffffff" opacity="0.9" rx="3" ry="3" />
<text x="0" y="3.5" font-size="10" font-family="Consolas, monospace" fill="#000000" text-anchor="middle" dominant-baseline="central">UP_IN.E1[UP_IN.D1]</text>
</g>
<path d="M551.4210415108132,390.5 C591.4210415108132,390.5,950.0,342.0,950.0,382.0" stroke="#404040" stroke-width="1.2" fill="none" />
<path d="M950.0,382.0 L946.0,375.0717967697245 L954.0,375.0717967697245 L950.0,382.0" fill="#404040" stroke="#404040" stroke-width="1" />
<g transform="translate(765.7105207554066,371.25)">
<rect x="-52.75" y="-7.5" width="105.5" height="15" fill="#ffffff" opacity="0.9" rx="3" ry="3" />
<text x="0" y="3.5" font-size="10" font-family="Consolas, monospace" fill="#000000" text-anchor="middle" dominant-baseline="central">timeOut.TimeOut</text>
</g>
<path d="M910.0,398.0 C746.886211818563,398.0,525.1266339636002,426.35227120077894,525.1266339636002,263.23848301934197" stroke="#404040" stroke-width="1.2" fill="none" />
<path d="M525.1266339636002,263.23848301934197 L529.1266339636002,270.1666862496175 L521.1266339636002,270.1666862496175 L525.1266339636002,263.23848301934197" fill="#404040" stroke="#404040" stroke-width="1" />
<g transform="translate(656.3956464137613,391.7869120777098)">
<rect x="-98.25" y="-7.5" width="196.5" height="15" fill="#ffffff" opacity="0.9" rx="3" ry="3" />
<text x="0" y="3.5" font-size="10" font-family="Consolas, monospace" fill="#000000" text-anchor="middle" dominant-baseline="central">[UP_IN.D1 AND NOT DOWN_IN.D1]</text>
</g>
<path d="M910.0,398.0 C726.0465247595707,398.0,470.3042641524519,348.8080417402288,470.3042641524519,532.761516980658" stroke="#404040" stroke-width="1.2" fill="none" />
<path d="M470.3042641524519,532.761516980658 L466.3042641524519,525.8333137503826 L474.3042641524519,525.8333137503826 L470.3042641524519,532.761516980658" fill="#404040" stroke="#404040" stroke-width="1" />
<g transform="translate(621.1695788610649,396.3982052751681)">
<rect x="-98.25" y="-7.5" width="196.5" height="15" fill="#ffffff" opacity="0.9" rx="3" ry="3" />
<text x="0" y="3.5" font-size="10" font-family="Consolas, monospace" fill="#000000" text-anchor="middle" dominant-baseline="central">[DOWN_IN.D1 AND NOT UP_IN.D1]</text>
</g>
<path d="M910.0,398.0 C870.0,398.0,120.16445283277463,440.2944075472129,120.16445283277463,400.2944075472129" stroke="#404040" stroke-width="1.2" fill="none" />
<path d="M120.16445283277463,400.2944075472129 L124.16445283277463,407.22261077748846 L116.16445283277463,407.22261077748846 L120.16445283277463,400.2944075472129" fill="#404040" stroke="#404040" stroke-width="1" />
<g transform="translate(500.0822264163873,414.14720377360646)">
<rect x="-111.25" y="-7.5" width="222.5" height="15" fill="#ffffff" opacity="0.9" rx="3" ry="3" />
<text x="0" y="3.5" font-size="10" font-family="Consolas, monospace" fill="#000000" text-anchor="middle" dominant-baseline="central">[NOT UP_IN.D1 AND NOT DOWN_IN.D1]</text>
</g>
<path d="M910.0,405.5 C747.2690561102522,405.5,541.4210415108132,219.26905611025225,541.4210415108132,382.0" stroke="#404040" stroke-width="1.2" fill="none" />
<path d="M541.4210415108132,382.0 L537.4210415108132,375.0717967697245 L545.4210415108132,375.0717967697245 L541.4210415108132,382.0" fill="#404040" stroke="#404040" stroke-width="1" />
<g transform="translate(664.6864167967512,332.7258960413446)">
<rect x="-85.25" y="-7.5" width="170.5" height="15" fill="#ffffff" opacity="0.9" rx="3" ry="3" />
<text x="0" y="3.5" font-size="10" font-family="Consolas, monospace" fill="#000000" text-anchor="middle" dominant-baseline="central">[UP_IN.D1 AND DOWN_IN.D1]</text>
</g>
<path d="M147.66445283277463,400.2944075472129 C207.66445283277463,456.2944075472129,47.66445283277463,456.2944075472129,107.66445283277463,400.2944075472129" stroke="#404040" stroke-width="1.2" fill="none" />
<path d="M107.66445283277463,400.2944075472129 L105.3288263632645,407.94586812640455 L99.87028036038441,402.0974259804616 L107.66445283277463,400.2944075472129" fill="#404040" stroke="#404040" stroke-width="1" />
<g transform="translate(127.66445283277463,420.2944075472129)">
<rect x="-23.5" y="-7.5" width="47.0" height="15" fill="#ffffff" opacity="0.9" rx="3" ry="3" />
<text x="0" y="3.5" font-size="10" font-family="Consolas, monospace" fill="#000000" text-anchor="middle" dominant-baseline="central">UPDATE</text>
</g>
<path d="M545.1266339636002,263.23848301934197 C605.1266339636002,319.23848301934197,445.12663396360017,319.23848301934197,505.12663396360017,263.23848301934197" stroke="#404040" stroke-width="1.2" fill="none" />
<path d="M505.12663396360017,263.23848301934197 L502.79100749409,270.8899435985336 L497.3324614912099,265.04150145259064 L505.12663396360017,263.23848301934197" fill="#404040" stroke="#404040" stroke-width="1" />
<g transform="translate(525.1266339636002,283.23848301934197)">
<rect x="-23.5" y="-7.5" width="47.0" height="15" fill="#ffffff" opacity="0.9" rx="3" ry="3" />
<text x="0" y="3.5" font-size="10" font-family="Consolas, monospace" fill="#000000" text-anchor="middle" dominant-baseline="central">UPDATE</text>
</g>
<path d="M490.3042641524519,564.761516980658 C550.3042641524519,620.761516980658,390.3042641524519,620.761516980658,450.3042641524519,564.761516980658" stroke="#404040" stroke-width="1.2" fill="none" />
<path d="M450.3042641524519,564.761516980658 L447.96863768294173,572.4129775598497 L442.51009168006163,566.5645354139067 L450.3042641524519,564.761516980658" fill="#404040" stroke="#404040" stroke-width="1" />
<g transform="translate(470.3042641524519,584.761516980658)">
<rect x="-23.5" y="-7.5" width="47.0" height="15" fill="#ffffff" opacity="0.9" rx="3" ry="3" />
<text x="0" y="3.5" font-size="10" font-family="Consolas, monospace" fill="#000000" text-anchor="middle" dominant-baseline="central">UPDATE</text>
</g>
</svg>