<?xml version="1.0" encoding="UTF-8"?>
<svg xmlns="http://www.w3.org/2000/svg" xmlns:xlink="http://www.w3.org/1999/xlink"
     width="1008" height="327" viewBox="-540 -20 1008 327">
<defs>
</defs>
<rect x="3" y="3" width="170" height="277" fill="#000000" fill-opacity="0.1" rx="2" ry="2" />
<path d="M0,0 H170 V170 H164 V210 H170 V277 H0 V210 H6 V170 H0 Z" fill="#ffffff" stroke="#000000" stroke-width="2" />
<path d="M0,30 L170,30" stroke="#000000" stroke-width="1" />
<text x="85.0" y="188.0" font-size="14" fontWeight="bold" font-family="Verdana, sans-serif" font-style="italic" text-anchor="middle" dominant-baseline="central">Q_INTERLOCK_2</text>
<text x="85.0" y="202.0" font-size="10" fill="#000" font-family="Consolas, monospace" text-anchor="middle" dominant-baseline="central">3.0</text>
<path d="M-5,37 L-5,47 L0,42 Z" fill="#63B31F" stroke="none" />
<text x="12" y="46" font-size="12" text-anchor="start" font-family="Consolas, monospace">SET1</text>
<text x="-15" y="45" font-size="11" text-anchor="end" fill="#888" font-style="italic" font-family="Verdana, sans-serif">Event</text>
<text x="-85" y="45" font-size="11" text-anchor="end" fill="#666666" font-family="Verdana, sans-serif">Set output OUT1</text>
<path d="M-5,63 L-5,73 L0,68 Z" fill="#63B31F" stroke="none" />
<text x="12" y="72" font-size="12" text-anchor="start" font-family="Consolas, monospace">CLK1</text>
<text x="-15" y="71" font-size="11" text-anchor="end" fill="#888" font-style="italic" font-family="Verdana, sans-serif">Event</text>
<text x="-85" y="71" font-size="11" text-anchor="end" fill="#666666" font-family="Verdana, sans-serif">Clock for triggering a output toggle on OUT1</text>
<path d="M-5,89 L-5,99 L0,94 Z" fill="#63B31F" stroke="none" />
<text x="12" y="98" font-size="12" text-anchor="start" font-family="Consolas, monospace">SET2</text>
<text x="-15" y="97" font-size="11" text-anchor="end" fill="#888" font-style="italic" font-family="Verdana, sans-serif">Event</text>
<text x="-85" y="97" font-size="11" text-anchor="end" fill="#666666" font-family="Verdana, sans-serif">Set output OUT2</text>
<path d="M-5,115 L-5,125 L0,120 Z" fill="#63B31F" stroke="none" />
<text x="12" y="124" font-size="12" text-anchor="start" font-family="Consolas, monospace">CLK2</text>
<text x="-15" y="123" font-size="11" text-anchor="end" fill="#888" font-style="italic" font-family="Verdana, sans-serif">Event</text>
<text x="-85" y="123" font-size="11" text-anchor="end" fill="#666666" font-family="Verdana, sans-serif">Clock for triggering a output toggle on OUT2</text>
<path d="M-5,141 L-5,151 L0,146 Z" fill="#63B31F" stroke="none" />
<text x="12" y="150" font-size="12" text-anchor="start" font-family="Consolas, monospace">R</text>
<text x="-15" y="149" font-size="11" text-anchor="end" fill="#888" font-style="italic" font-family="Verdana, sans-serif">Event</text>
<text x="-85" y="149" font-size="11" text-anchor="end" fill="#666666" font-family="Verdana, sans-serif">Reset all outputs</text>
<path d="M170,37 L170,47 L175,42 Z" fill="#63B31F" stroke="none" />
<text x="158" y="46" font-size="12" text-anchor="end" font-family="Consolas, monospace">EO</text>
<text x="193" y="45" font-size="11" text-anchor="start" fill="#888" font-style="italic" font-family="Verdana, sans-serif">Event</text>
<text x="263" y="45" font-size="11" text-anchor="start" fill="#666666" font-family="Verdana, sans-serif">Output has changed</text>
<path d="M170,222 L170,232 L175,227 Z" fill="#9FA48A" stroke="none" />
<text x="158" y="231" font-size="12" text-anchor="end" font-family="Consolas, monospace">OUT1</text>
<text x="193" y="230" font-size="11" text-anchor="start" fill="#9FA48A" font-style="italic" font-family="Verdana, sans-serif">BOOL</text>
<text x="263" y="230" font-size="11" text-anchor="start" fill="#666666" font-family="Verdana, sans-serif">value of flip flop</text>
<path d="M170,248 L170,258 L175,253 Z" fill="#9FA48A" stroke="none" />
<text x="158" y="257" font-size="12" text-anchor="end" font-family="Consolas, monospace">OUT2</text>
<text x="193" y="256" font-size="11" text-anchor="start" fill="#9FA48A" font-style="italic" font-family="Verdana, sans-serif">BOOL</text>
<text x="263" y="256" font-size="11" text-anchor="start" fill="#666666" font-family="Verdana, sans-serif">value of flip flop</text>
<path d="M182,42 L182,253" stroke="#404040" stroke-width="1" />
<path d="M170,42 L182,42" stroke="#404040" />
<rect x="180" y="40" width="4" height="4" fill="white" stroke="black" stroke-width="1" />
<path d="M182,227 L175,227" stroke="#404040" />
<rect x="180" y="225" width="4" height="4" fill="white" stroke="black" stroke-width="1" />
<path d="M182,253 L175,253" stroke="#404040" />
<rect x="180" y="251" width="4" height="4" fill="white" stroke="black" stroke-width="1" />
</svg>