<?xml version="1.0" encoding="UTF-8"?>
<svg xmlns="http://www.w3.org/2000/svg" xmlns:xlink="http://www.w3.org/1999/xlink"
     width="1250.2857142857142" height="800" viewBox="0 0 1250.2857142857142 800">
<defs>
</defs>
<rect x="0" y="0" width="1250.2857142857142" height="800" fill="#ffffff" />
<text x="625.0" y="25" font-size="14" fontWeight="bold" font-family="Verdana, sans-serif" fill="#000000" text-anchor="middle" dominant-baseline="central">ECC: AUDI_CTUD_UDINT</text>
<rect x="35.0017857142857" y="171.42857142857142" width="80" height="32" fill="#f5f5f5" stroke="#000000" stroke-width="2" rx="8" ry="8" />
<text x="75.0017857142857" y="187.42857142857142" font-size="12" fontWeight="bold" font-family="Verdana, sans-serif" fill="#000000" text-anchor="middle" dominant-baseline="central">CU</text>
<rect x="125.0017857142857" y="171.42857142857142" width="161" height="50" fill="#ffffff" stroke="#cccccc" stroke-width="1" rx="4" ry="4" />
<path d="M115.0017857142857,187.42857142857142 L125.0017857142857,182.42857142857142" stroke="#000000" stroke-width="2" />
<path d="M205.0017857142857,171.42857142857142 L205.0017857142857,221.42857142857142" stroke="#cccccc" stroke-width="1" />
<rect x="125.0017857142857" y="175.42857142857142" width="80" height="14" fill="#e6f7e6" stroke="#cccccc" stroke-width="0.5" />
<text x="165.0017857142857" y="183.42857142857142" font-size="10" font-family="Consolas, monospace" fill="#000000" text-anchor="middle" dominant-baseline="central">CountUp</text>
<rect x="206.0017857142857" y="175.42857142857142" width="80" height="14" fill="#ffe6e6" stroke="#cccccc" stroke-width="0.5" />
<text x="246.0017857142857" y="183.42857142857142" font-size="10" font-family="Consolas, monospace" fill="#000000" text-anchor="middle" dominant-baseline="central">CV.E1</text>
<path d="M125.0017857142857,189.42857142857142 L286.0017857142857,189.42857142857142" stroke="#cccccc" stroke-width="0.5" />
<rect x="125.0017857142857" y="189.42857142857142" width="80" height="14" fill="#e6f7e6" stroke="#cccccc" stroke-width="0.5" />
<text x="165.0017857142857" y="197.42857142857142" font-size="10" font-family="Consolas, monospace" fill="#000000" text-anchor="middle" dominant-baseline="central">UpdateQD</text>
<rect x="206.0017857142857" y="189.42857142857142" width="80" height="14" fill="#ffe6e6" stroke="#cccccc" stroke-width="0.5" />
<text x="246.0017857142857" y="197.42857142857142" font-size="10" font-family="Consolas, monospace" fill="#000000" text-anchor="middle" dominant-baseline="central">QD.E1</text>
<path d="M125.0017857142857,203.42857142857142 L286.0017857142857,203.42857142857142" stroke="#cccccc" stroke-width="0.5" />
<rect x="125.0017857142857" y="203.42857142857142" width="80" height="14" fill="#e6f7e6" stroke="#cccccc" stroke-width="0.5" />
<text x="165.0017857142857" y="211.42857142857142" font-size="10" font-family="Consolas, monospace" fill="#000000" text-anchor="middle" dominant-baseline="central">UpdateQU</text>
<rect x="206.0017857142857" y="203.42857142857142" width="80" height="14" fill="#ffe6e6" stroke="#cccccc" stroke-width="0.5" />
<text x="246.0017857142857" y="211.42857142857142" font-size="10" font-family="Consolas, monospace" fill="#000000" text-anchor="middle" dominant-baseline="central">QU.E1</text>
<rect x="35.0017857142857" y="578.5714285714286" width="80" height="32" fill="#f5f5f5" stroke="#000000" stroke-width="2" rx="8" ry="8" />
<text x="75.0017857142857" y="594.5714285714286" font-size="12" fontWeight="bold" font-family="Verdana, sans-serif" fill="#000000" text-anchor="middle" dominant-baseline="central">R</text>
<rect x="125.0017857142857" y="578.5714285714286" width="161" height="50" fill="#ffffff" stroke="#cccccc" stroke-width="1" rx="4" ry="4" />
<path d="M115.0017857142857,594.5714285714286 L125.0017857142857,589.5714285714286" stroke="#000000" stroke-width="2" />
<path d="M205.0017857142857,578.5714285714286 L205.0017857142857,628.5714285714286" stroke="#cccccc" stroke-width="1" />
<rect x="125.0017857142857" y="582.5714285714286" width="80" height="14" fill="#e6f7e6" stroke="#cccccc" stroke-width="0.5" />
<text x="165.0017857142857" y="590.5714285714286" font-size="10" font-family="Consolas, monospace" fill="#000000" text-anchor="middle" dominant-baseline="central">Reset</text>
<rect x="206.0017857142857" y="582.5714285714286" width="80" height="14" fill="#ffe6e6" stroke="#cccccc" stroke-width="0.5" />
<text x="246.0017857142857" y="590.5714285714286" font-size="10" font-family="Consolas, monospace" fill="#000000" text-anchor="middle" dominant-baseline="central">CV.E1</text>
<path d="M125.0017857142857,596.5714285714286 L286.0017857142857,596.5714285714286" stroke="#cccccc" stroke-width="0.5" />
<rect x="125.0017857142857" y="596.5714285714286" width="80" height="14" fill="#e6f7e6" stroke="#cccccc" stroke-width="0.5" />
<text x="165.0017857142857" y="604.5714285714286" font-size="10" font-family="Consolas, monospace" fill="#000000" text-anchor="middle" dominant-baseline="central">UpdateQD</text>
<rect x="206.0017857142857" y="596.5714285714286" width="80" height="14" fill="#ffe6e6" stroke="#cccccc" stroke-width="0.5" />
<text x="246.0017857142857" y="604.5714285714286" font-size="10" font-family="Consolas, monospace" fill="#000000" text-anchor="middle" dominant-baseline="central">QD.E1</text>
<path d="M125.0017857142857,610.5714285714286 L286.0017857142857,610.5714285714286" stroke="#cccccc" stroke-width="0.5" />
<rect x="125.0017857142857" y="610.5714285714286" width="80" height="14" fill="#e6f7e6" stroke="#cccccc" stroke-width="0.5" />
<text x="165.0017857142857" y="618.5714285714286" font-size="10" font-family="Consolas, monospace" fill="#000000" text-anchor="middle" dominant-baseline="central">UpdateQU</text>
<rect x="206.0017857142857" y="610.5714285714286" width="80" height="14" fill="#ffe6e6" stroke="#cccccc" stroke-width="0.5" />
<text x="246.0017857142857" y="618.5714285714286" font-size="10" font-family="Consolas, monospace" fill="#000000" text-anchor="middle" dominant-baseline="central">QU.E1</text>
<rect x="645.7160714285715" y="375.0" width="80" height="32" fill="#f5f5f5" stroke="#000000" stroke-width="2" rx="8" ry="8" />
<text x="685.7160714285715" y="391.0" font-size="12" fontWeight="bold" font-family="Verdana, sans-serif" fill="#000000" text-anchor="middle" dominant-baseline="central">START</text>
<rect x="849.2875" y="171.42857142857142" width="80" height="32" fill="#f5f5f5" stroke="#000000" stroke-width="2" rx="8" ry="8" />
<text x="889.2875" y="187.42857142857142" font-size="12" fontWeight="bold" font-family="Verdana, sans-serif" fill="#000000" text-anchor="middle" dominant-baseline="central">CD</text>
<rect x="939.2875" y="171.42857142857142" width="161" height="50" fill="#ffffff" stroke="#cccccc" stroke-width="1" rx="4" ry="4" />
<path d="M929.2875,187.42857142857142 L939.2875,182.42857142857142" stroke="#000000" stroke-width="2" />
<path d="M1019.2875,171.42857142857142 L1019.2875,221.42857142857142" stroke="#cccccc" stroke-width="1" />
<rect x="939.2875" y="175.42857142857142" width="80" height="14" fill="#e6f7e6" stroke="#cccccc" stroke-width="0.5" />
<text x="979.2875" y="183.42857142857142" font-size="10" font-family="Consolas, monospace" fill="#000000" text-anchor="middle" dominant-baseline="central">CountDown</text>
<rect x="1020.2875" y="175.42857142857142" width="80" height="14" fill="#ffe6e6" stroke="#cccccc" stroke-width="0.5" />
<text x="1060.2875" y="183.42857142857142" font-size="10" font-family="Consolas, monospace" fill="#000000" text-anchor="middle" dominant-baseline="central">CV.E1</text>
<path d="M939.2875,189.42857142857142 L1100.2875,189.42857142857142" stroke="#cccccc" stroke-width="0.5" />
<rect x="939.2875" y="189.42857142857142" width="80" height="14" fill="#e6f7e6" stroke="#cccccc" stroke-width="0.5" />
<text x="979.2875" y="197.42857142857142" font-size="10" font-family="Consolas, monospace" fill="#000000" text-anchor="middle" dominant-baseline="central">UpdateQD</text>
<rect x="1020.2875" y="189.42857142857142" width="80" height="14" fill="#ffe6e6" stroke="#cccccc" stroke-width="0.5" />
<text x="1060.2875" y="197.42857142857142" font-size="10" font-family="Consolas, monospace" fill="#000000" text-anchor="middle" dominant-baseline="central">QD.E1</text>
<path d="M939.2875,203.42857142857142 L1100.2875,203.42857142857142" stroke="#cccccc" stroke-width="0.5" />
<rect x="939.2875" y="203.42857142857142" width="80" height="14" fill="#e6f7e6" stroke="#cccccc" stroke-width="0.5" />
<text x="979.2875" y="211.42857142857142" font-size="10" font-family="Consolas, monospace" fill="#000000" text-anchor="middle" dominant-baseline="central">UpdateQU</text>
<rect x="1020.2875" y="203.42857142857142" width="80" height="14" fill="#ffe6e6" stroke="#cccccc" stroke-width="0.5" />
<text x="1060.2875" y="211.42857142857142" font-size="10" font-family="Consolas, monospace" fill="#000000" text-anchor="middle" dominant-baseline="central">QU.E1</text>
<rect x="899.2857142857142" y="578.5714285714286" width="80" height="32" fill="#f5f5f5" stroke="#000000" stroke-width="2" rx="8" ry="8" />
<text x="939.2857142857142" y="594.5714285714286" font-size="12" fontWeight="bold" font-family="Verdana, sans-serif" fill="#000000" text-anchor="middle" dominant-baseline="central">LD</text>
<rect x="989.2857142857142" y="578.5714285714286" width="161" height="50" fill="#ffffff" stroke="#cccccc" stroke-width="1" rx="4" ry="4" />
<path d="M979.2857142857142,594.5714285714286 L989.2857142857142,589.5714285714286" stroke="#000000" stroke-width="2" />
<path d="M1069.2857142857142,578.5714285714286 L1069.2857142857142,628.5714285714286" stroke="#cccccc" stroke-width="1" />
<rect x="989.2857142857142" y="582.5714285714286" width="80" height="14" fill="#e6f7e6" stroke="#cccccc" stroke-width="0.5" />
<text x="1029.2857142857142" y="590.5714285714286" font-size="10" font-family="Consolas, monospace" fill="#000000" text-anchor="middle" dominant-baseline="central">Load</text>
<rect x="1070.2857142857142" y="582.5714285714286" width="80" height="14" fill="#ffe6e6" stroke="#cccccc" stroke-width="0.5" />
<text x="1110.2857142857142" y="590.5714285714286" font-size="10" font-family="Consolas, monospace" fill="#000000" text-anchor="middle" dominant-baseline="central">CV.E1</text>
<path d="M989.2857142857142,596.5714285714286 L1150.2857142857142,596.5714285714286" stroke="#cccccc" stroke-width="0.5" />
<rect x="989.2857142857142" y="596.5714285714286" width="80" height="14" fill="#e6f7e6" stroke="#cccccc" stroke-width="0.5" />
<text x="1029.2857142857142" y="604.5714285714286" font-size="10" font-family="Consolas, monospace" fill="#000000" text-anchor="middle" dominant-baseline="central">UpdateQD</text>
<rect x="1070.2857142857142" y="596.5714285714286" width="80" height="14" fill="#ffe6e6" stroke="#cccccc" stroke-width="0.5" />
<text x="1110.2857142857142" y="604.5714285714286" font-size="10" font-family="Consolas, monospace" fill="#000000" text-anchor="middle" dominant-baseline="central">QD.E1</text>
<path d="M989.2857142857142,610.5714285714286 L1150.2857142857142,610.5714285714286" stroke="#cccccc" stroke-width="0.5" />
<rect x="989.2857142857142" y="610.5714285714286" width="80" height="14" fill="#e6f7e6" stroke="#cccccc" stroke-width="0.5" />
<text x="1029.2857142857142" y="618.5714285714286" font-size="10" font-family="Consolas, monospace" fill="#000000" text-anchor="middle" dominant-baseline="central">UpdateQU</text>
<rect x="1070.2857142857142" y="610.5714285714286" width="80" height="14" fill="#ffe6e6" stroke="#cccccc" stroke-width="0.5" />
<text x="1110.2857142857142" y="618.5714285714286" font-size="10" font-family="Consolas, monospace" fill="#000000" text-anchor="middle" dominant-baseline="central">QU.E1</text>
<path d="M645.7160714285715,383.5 C406.3367021233207,383.5,75.0017857142857,442.80794073382214,75.0017857142857,203.42857142857142" stroke="#404040" stroke-width="1.2" fill="none" />
<path d="M75.0017857142857,203.42857142857142 L79.0017857142857,210.35677465884692 L71.0017857142857,210.35677465884692 L75.0017857142857,203.42857142857142" fill="#404040" stroke="#404040" stroke-width="1" />
<g transform="translate(270.59166508195955,383.23154920375475)">
<rect x="-75.5" y="-7.5" width="151.0" height="15" fill="#ffffff" opacity="0.9" rx="3" ry="3" />
<text x="0" y="3.5" font-size="10" font-family="Consolas, monospace" fill="#000000" text-anchor="middle" dominant-baseline="central">CU[(CV.D1&lt;4294967295)]</text>
</g>
<path d="M115.0017857142857,194.92857142857142 C360.81413285333446,194.92857142857142,663.2160714285715,129.18765286095126,663.2160714285715,375.0" stroke="#404040" stroke-width="1.2" fill="none" />
<path d="M663.2160714285715,375.0 L659.2160714285715,368.0717967697245 L667.2160714285715,368.0717967697245 L663.2160714285715,375.0" fill="#404040" stroke="#404040" stroke-width="1" />
<g transform="translate(481.28855874857186,192.78465553714244)">
<rect x="-7.25" y="-7.5" width="14.5" height="15" fill="#ffffff" opacity="0.9" rx="3" ry="3" />
<text x="0" y="3.5" font-size="10" font-family="Consolas, monospace" fill="#000000" text-anchor="middle" dominant-baseline="central">1</text>
</g>
<path d="M645.7160714285715,383.5 C404.4634542280063,383.5,75.0017857142857,337.3188113708634,75.0017857142857,578.5714285714286" stroke="#404040" stroke-width="1.2" fill="none" />
<path d="M75.0017857142857,578.5714285714286 L71.0017857142857,571.6432253411531 L79.0017857142857,571.6432253411531 L75.0017857142857,578.5714285714286" fill="#404040" stroke="#404040" stroke-width="1" />
<g transform="translate(269.8891971212166,390.5659828355023)">
<rect x="-7.25" y="-7.5" width="14.5" height="15" fill="#ffffff" opacity="0.9" rx="3" ry="3" />
<text x="0" y="3.5" font-size="10" font-family="Consolas, monospace" fill="#000000" text-anchor="middle" dominant-baseline="central">R</text>
</g>
<path d="M115.0017857142857,602.0714285714286 C368.41762205996173,602.0714285714286,678.2160714285715,660.415836345676,678.2160714285715,407.0" stroke="#404040" stroke-width="1.2" fill="none" />
<path d="M678.2160714285715,407.0 L682.2160714285715,413.9282032302755 L674.2160714285715,413.9282032302755 L678.2160714285715,407.0" fill="#404040" stroke="#404040" stroke-width="1" />
<g transform="translate(491.6398672010571,599.5666529153427)">
<rect x="-7.25" y="-7.5" width="14.5" height="15" fill="#ffffff" opacity="0.9" rx="3" ry="3" />
<text x="0" y="3.5" font-size="10" font-family="Consolas, monospace" fill="#000000" text-anchor="middle" dominant-baseline="central">1</text>
</g>
<path d="M725.7160714285715,383.5 C823.0249253999573,383.5,889.2875,300.73742539995726,889.2875,203.42857142857142" stroke="#404040" stroke-width="1.2" fill="none" />
<path d="M889.2875,203.42857142857142 L893.2875,210.35677465884692 L885.2875,210.35677465884692 L889.2875,203.42857142857142" fill="#404040" stroke="#404040" stroke-width="1" />
<g transform="translate(843.9926059535555,329.9551059535554)">
<rect x="-52.75" y="-7.5" width="105.5" height="15" fill="#ffffff" opacity="0.9" rx="3" ry="3" />
<text x="0" y="3.5" font-size="10" font-family="Consolas, monospace" fill="#000000" text-anchor="middle" dominant-baseline="central">CD[(CV.D1 &gt; 0)]</text>
</g>
<path d="M849.2875,194.92857142857142 C738.9699169806375,194.92857142857142,693.2160714285715,264.6824169806375,693.2160714285715,375.0" stroke="#404040" stroke-width="1.2" fill="none" />
<path d="M693.2160714285715,375.0 L689.2160714285715,368.0717967697245 L697.2160714285715,368.0717967697245 L693.2160714285715,375.0" fill="#404040" stroke="#404040" stroke-width="1" />
<g transform="translate(729.8826920820247,243.59519208202477)">
<rect x="-7.25" y="-7.5" width="14.5" height="15" fill="#ffffff" opacity="0.9" rx="3" ry="3" />
<text x="0" y="3.5" font-size="10" font-family="Consolas, monospace" fill="#000000" text-anchor="middle" dominant-baseline="central">1</text>
</g>
<path d="M725.7160714285715,383.5 C841.4155819513221,383.5,939.2857142857142,462.87191804867797,939.2857142857142,578.5714285714286" stroke="#404040" stroke-width="1.2" fill="none" />
<path d="M939.2857142857142,578.5714285714286 L935.2857142857142,571.6432253411531 L943.2857142857142,571.6432253411531 L939.2857142857142,578.5714285714286" fill="#404040" stroke="#404040" stroke-width="1" />
<g transform="translate(875.8882093031743,437.6483978396828)">
<rect x="-20.25" y="-7.5" width="40.5" height="15" fill="#ffffff" opacity="0.9" rx="3" ry="3" />
<text x="0" y="3.5" font-size="10" font-family="Consolas, monospace" fill="#000000" text-anchor="middle" dominant-baseline="central">PV.E1</text>
</g>
<path d="M899.2857142857142,602.0714285714286 C775.0626612857516,602.0714285714286,708.2160714285715,531.2230529999626,708.2160714285715,407.0" stroke="#404040" stroke-width="1.2" fill="none" />
<path d="M708.2160714285715,407.0 L712.2160714285715,413.9282032302755 L704.2160714285715,413.9282032302755 L708.2160714285715,407.0" fill="#404040" stroke="#404040" stroke-width="1" />
<g transform="translate(757.1672479821568,551.1193591607002)">
<rect x="-7.25" y="-7.5" width="14.5" height="15" fill="#ffffff" opacity="0.9" rx="3" ry="3" />
<text x="0" y="3.5" font-size="10" font-family="Consolas, monospace" fill="#000000" text-anchor="middle" dominant-baseline="central">1</text>
</g>
</svg>