<?xml version="1.0" encoding="UTF-8"?>
<svg xmlns="http://www.w3.org/2000/svg" xmlns:xlink="http://www.w3.org/1999/xlink"
     width="1020" height="301" viewBox="-540 -20 1020 301">
<defs>
</defs>
<rect x="3" y="3" width="190" height="251" fill="#000000" fill-opacity="0.1" rx="2" ry="2" />
<path d="M0,0 H190 V118 H184 V158 H190 V251 H0 V158 H6 V118 H0 Z" fill="#ffffff" stroke="#000000" stroke-width="2" />
<path d="M0,30 L190,30" stroke="#000000" stroke-width="1" />
<text x="95.0" y="136.0" font-size="14" fontWeight="bold" font-family="Verdana, sans-serif" font-style="italic" text-anchor="middle" dominant-baseline="central">AUDI_CTUD_UDINT</text>
<text x="95.0" y="150.0" font-size="10" fill="#000" font-family="Consolas, monospace" text-anchor="middle" dominant-baseline="central">3.0</text>
<path d="M-5,37 L-5,47 L0,42 Z" fill="#63B31F" stroke="none" />
<text x="12" y="46" font-size="12" text-anchor="start" font-family="Consolas, monospace">CU</text>
<text x="-15" y="45" font-size="11" text-anchor="end" fill="#888" font-style="italic" font-family="Verdana, sans-serif">Event</text>
<text x="-85" y="45" font-size="11" text-anchor="end" fill="#666666" font-family="Verdana, sans-serif">Count Up</text>
<path d="M-5,63 L-5,73 L0,68 Z" fill="#63B31F" stroke="none" />
<text x="12" y="72" font-size="12" text-anchor="start" font-family="Consolas, monospace">CD</text>
<text x="-15" y="71" font-size="11" text-anchor="end" fill="#888" font-style="italic" font-family="Verdana, sans-serif">Event</text>
<text x="-85" y="71" font-size="11" text-anchor="end" fill="#666666" font-family="Verdana, sans-serif">Count Down</text>
<path d="M-5,89 L-5,99 L0,94 Z" fill="#63B31F" stroke="none" />
<text x="12" y="98" font-size="12" text-anchor="start" font-family="Consolas, monospace">R</text>
<text x="-15" y="97" font-size="11" text-anchor="end" fill="#888" font-style="italic" font-family="Verdana, sans-serif">Event</text>
<text x="-85" y="97" font-size="11" text-anchor="end" fill="#666666" font-family="Verdana, sans-serif">Reset</text>
<rect x="-5.0" y="170.0" width="10" height="10" fill="white" stroke="#845DAF" stroke-width="2.5" />
<text x="12" y="179" font-size="12" text-anchor="start" font-family="Consolas, monospace">PV</text>
<text x="-15" y="178" font-size="11" text-anchor="end" fill="#000" font-style="italic" font-family="Verdana, sans-serif">AUDI</text>
<text x="-85" y="178" font-size="11" text-anchor="end" fill="#666666" font-family="Verdana, sans-serif">Preset Value</text>
<rect x="185.0" y="170.0" width="10" height="10" fill="#845DAF" stroke="none" />
<text x="178" y="179" font-size="12" text-anchor="end" font-family="Consolas, monospace">QU</text>
<text x="205" y="178" font-size="11" text-anchor="start" fill="#000" font-style="italic" font-family="Verdana, sans-serif">AX</text>
<text x="275" y="178" font-size="11" text-anchor="start" fill="#666666" font-family="Verdana, sans-serif">CV.D1 &gt;= PV.D1</text>
<rect x="185.0" y="196.0" width="10" height="10" fill="#845DAF" stroke="none" />
<text x="178" y="205" font-size="12" text-anchor="end" font-family="Consolas, monospace">QD</text>
<text x="205" y="204" font-size="11" text-anchor="start" fill="#000" font-style="italic" font-family="Verdana, sans-serif">AX</text>
<text x="275" y="204" font-size="11" text-anchor="start" fill="#666666" font-family="Verdana, sans-serif">CV.D1 &lt;= 0</text>
<rect x="185.0" y="222.0" width="10" height="10" fill="#845DAF" stroke="none" />
<text x="178" y="231" font-size="12" text-anchor="end" font-family="Consolas, monospace">CV</text>
<text x="205" y="230" font-size="11" text-anchor="start" fill="#000" font-style="italic" font-family="Verdana, sans-serif">AUDI</text>
<text x="275" y="230" font-size="11" text-anchor="start" fill="#666666" font-family="Verdana, sans-serif">Counter Value</text>
</svg>