<?xml version="1.0" encoding="UTF-8"?>
<svg xmlns="http://www.w3.org/2000/svg" xmlns:xlink="http://www.w3.org/1999/xlink"
     width="970" height="457" viewBox="-540 -20 970 457">
<defs>
</defs>
<rect x="3" y="3" width="140" height="407" fill="#000000" fill-opacity="0.1" rx="2" ry="2" />
<path d="M0,0 H140 V66 H134 V106 H140 V407 H0 V106 H6 V66 H0 Z" fill="#ffffff" stroke="#000000" stroke-width="2" />
<path d="M0,30 L140,30" stroke="#000000" stroke-width="1" />
<text x="70.0" y="84.0" font-size="14" fontWeight="bold" font-family="Verdana, sans-serif" font-style="italic" text-anchor="middle" dominant-baseline="central">EliteBoard</text>
<text x="70.0" y="98.0" font-size="10" fill="#000" font-family="Consolas, monospace" text-anchor="middle" dominant-baseline="central">3.0</text>
<path d="M-5,37 L-5,47 L0,42 Z" fill="#63B31F" stroke="none" />
<text x="12" y="46" font-size="12" text-anchor="start" font-family="Consolas, monospace">MAP</text>
<text x="-15" y="45" font-size="11" text-anchor="end" fill="#888" font-style="italic" font-family="Verdana, sans-serif">Event</text>
<path d="M140,37 L140,47 L145,42 Z" fill="#63B31F" stroke="none" />
<text x="128" y="46" font-size="12" text-anchor="end" font-family="Consolas, monospace">MAPO</text>
<text x="155" y="45" font-size="11" text-anchor="start" fill="#888" font-style="italic" font-family="Verdana, sans-serif">Event</text>
<rect x="135.0" y="118.0" width="10" height="10" fill="#845DAF" stroke="none" />
<text x="128" y="127" font-size="12" text-anchor="end" font-family="Consolas, monospace">PortA</text>
<text x="155" y="126" font-size="11" text-anchor="start" fill="#000" font-style="italic" font-family="Verdana, sans-serif">PortAdapter</text>
<rect x="135.0" y="144.0" width="10" height="10" fill="#845DAF" stroke="none" />
<text x="128" y="153" font-size="12" text-anchor="end" font-family="Consolas, monospace">PortB</text>
<text x="155" y="152" font-size="11" text-anchor="start" fill="#000" font-style="italic" font-family="Verdana, sans-serif">PortAdapter</text>
<rect x="135.0" y="170.0" width="10" height="10" fill="#845DAF" stroke="none" />
<text x="128" y="179" font-size="12" text-anchor="end" font-family="Consolas, monospace">PortC</text>
<text x="155" y="178" font-size="11" text-anchor="start" fill="#000" font-style="italic" font-family="Verdana, sans-serif">PortAdapter</text>
<rect x="135.0" y="196.0" width="10" height="10" fill="#845DAF" stroke="none" />
<text x="128" y="205" font-size="12" text-anchor="end" font-family="Consolas, monospace">PortD</text>
<text x="155" y="204" font-size="11" text-anchor="start" fill="#000" font-style="italic" font-family="Verdana, sans-serif">PortAdapter</text>
<rect x="135.0" y="222.0" width="10" height="10" fill="#845DAF" stroke="none" />
<text x="128" y="231" font-size="12" text-anchor="end" font-family="Consolas, monospace">PortE</text>
<text x="155" y="230" font-size="11" text-anchor="start" fill="#000" font-style="italic" font-family="Verdana, sans-serif">PortAdapter</text>
<rect x="135.0" y="248.0" width="10" height="10" fill="#845DAF" stroke="none" />
<text x="128" y="257" font-size="12" text-anchor="end" font-family="Consolas, monospace">PortF</text>
<text x="155" y="256" font-size="11" text-anchor="start" fill="#000" font-style="italic" font-family="Verdana, sans-serif">PortAdapter</text>
<rect x="135.0" y="274.0" width="10" height="10" fill="#845DAF" stroke="none" />
<text x="128" y="283" font-size="12" text-anchor="end" font-family="Consolas, monospace">PortG</text>
<text x="155" y="282" font-size="11" text-anchor="start" fill="#000" font-style="italic" font-family="Verdana, sans-serif">PortAdapter</text>
<rect x="135.0" y="300.0" width="10" height="10" fill="#845DAF" stroke="none" />
<text x="128" y="309" font-size="12" text-anchor="end" font-family="Consolas, monospace">PortH</text>
<text x="155" y="308" font-size="11" text-anchor="start" fill="#000" font-style="italic" font-family="Verdana, sans-serif">PortAdapter</text>
<rect x="135.0" y="326.0" width="10" height="10" fill="#845DAF" stroke="none" />
<text x="128" y="335" font-size="12" text-anchor="end" font-family="Consolas, monospace">PortI</text>
<text x="155" y="334" font-size="11" text-anchor="start" fill="#000" font-style="italic" font-family="Verdana, sans-serif">PortAdapter</text>
<rect x="135.0" y="352.0" width="10" height="10" fill="#845DAF" stroke="none" />
<text x="128" y="361" font-size="12" text-anchor="end" font-family="Consolas, monospace">PortJ</text>
<text x="155" y="360" font-size="11" text-anchor="start" fill="#000" font-style="italic" font-family="Verdana, sans-serif">PortAdapter</text>
<rect x="135.0" y="378.0" width="10" height="10" fill="#845DAF" stroke="none" />
<text x="128" y="387" font-size="12" text-anchor="end" font-family="Consolas, monospace">PortK</text>
<text x="155" y="386" font-size="11" text-anchor="start" fill="#000" font-style="italic" font-family="Verdana, sans-serif">PortAdapter</text>
</svg>