<?xml version="1.0" encoding="UTF-8"?>
<svg xmlns="http://www.w3.org/2000/svg" xmlns:xlink="http://www.w3.org/1999/xlink"
     width="987" height="577" viewBox="-540 -20 987 577">
<defs>
</defs>
<rect x="3" y="3" width="157" height="527" fill="#000000" fill-opacity="0.1" rx="2" ry="2" />
<path d="M0,0 H157 V30 H151 V70 H157 V527 H0 V70 H6 V30 H0 Z" fill="#ffffff" stroke="#606060" stroke-width="2" />
<path d="M0,30 L157,30" stroke="#606060" stroke-width="1" />
<text x="78.5" y="48.0" font-size="14" fontWeight="bold" font-family="Verdana, sans-serif" font-style="italic" text-anchor="middle" dominant-baseline="central">Port</text>
<text x="78.5" y="62.0" font-size="10" fill="#000" font-family="Consolas, monospace" text-anchor="middle" dominant-baseline="central">3.0</text>
<rect x="-5.0" y="82.0" width="10" height="10" fill="white" stroke="#985ec9" stroke-width="2.5" />
<text x="12" y="91" font-size="12" text-anchor="start" font-family="Consolas, monospace">PortInAdapter</text>
<text x="-15" y="90" font-size="11" text-anchor="end" fill="#000" font-style="italic" font-family="Verdana, sans-serif">PortAdapter</text>
<path d="M-5,108 L-5,118 L0,113 Z" fill="#0066cc" stroke="none" />
<text x="12" y="117" font-size="12" text-anchor="start" font-family="Consolas, monospace">Pin0</text>
<text x="-15" y="116" font-size="11" text-anchor="end" fill="#0066cc" font-style="italic" font-family="Verdana, sans-serif">STRING</text>
<text x="-85" y="116" font-size="11" text-anchor="end" fill="#666666" font-family="Verdana, sans-serif">Name of the Pin</text>
<path d="M-5,134 L-5,144 L0,139 Z" fill="#0066cc" stroke="none" />
<text x="12" y="143" font-size="12" text-anchor="start" font-family="Consolas, monospace">Pin1</text>
<text x="-15" y="142" font-size="11" text-anchor="end" fill="#0066cc" font-style="italic" font-family="Verdana, sans-serif">STRING</text>
<text x="-85" y="142" font-size="11" text-anchor="end" fill="#666666" font-family="Verdana, sans-serif">Name of the Pin</text>
<path d="M-5,160 L-5,170 L0,165 Z" fill="#0066cc" stroke="none" />
<text x="12" y="169" font-size="12" text-anchor="start" font-family="Consolas, monospace">Pin2</text>
<text x="-15" y="168" font-size="11" text-anchor="end" fill="#0066cc" font-style="italic" font-family="Verdana, sans-serif">STRING</text>
<text x="-85" y="168" font-size="11" text-anchor="end" fill="#666666" font-family="Verdana, sans-serif">Name of the Pin</text>
<path d="M-5,186 L-5,196 L0,191 Z" fill="#0066cc" stroke="none" />
<text x="12" y="195" font-size="12" text-anchor="start" font-family="Consolas, monospace">Pin3</text>
<text x="-15" y="194" font-size="11" text-anchor="end" fill="#0066cc" font-style="italic" font-family="Verdana, sans-serif">STRING</text>
<text x="-85" y="194" font-size="11" text-anchor="end" fill="#666666" font-family="Verdana, sans-serif">Name of the Pin</text>
<path d="M-5,212 L-5,222 L0,217 Z" fill="#0066cc" stroke="none" />
<text x="12" y="221" font-size="12" text-anchor="start" font-family="Consolas, monospace">Pin4</text>
<text x="-15" y="220" font-size="11" text-anchor="end" fill="#0066cc" font-style="italic" font-family="Verdana, sans-serif">STRING</text>
<text x="-85" y="220" font-size="11" text-anchor="end" fill="#666666" font-family="Verdana, sans-serif">Name of the Pin</text>
<path d="M-5,238 L-5,248 L0,243 Z" fill="#0066cc" stroke="none" />
<text x="12" y="247" font-size="12" text-anchor="start" font-family="Consolas, monospace">Pin5</text>
<text x="-15" y="246" font-size="11" text-anchor="end" fill="#0066cc" font-style="italic" font-family="Verdana, sans-serif">STRING</text>
<text x="-85" y="246" font-size="11" text-anchor="end" fill="#666666" font-family="Verdana, sans-serif">Name of the Pin</text>
<path d="M-5,264 L-5,274 L0,269 Z" fill="#0066cc" stroke="none" />
<text x="12" y="273" font-size="12" text-anchor="start" font-family="Consolas, monospace">Pin6</text>
<text x="-15" y="272" font-size="11" text-anchor="end" fill="#0066cc" font-style="italic" font-family="Verdana, sans-serif">STRING</text>
<text x="-85" y="272" font-size="11" text-anchor="end" fill="#666666" font-family="Verdana, sans-serif">Name of the Pin</text>
<path d="M-5,290 L-5,300 L0,295 Z" fill="#0066cc" stroke="none" />
<text x="12" y="299" font-size="12" text-anchor="start" font-family="Consolas, monospace">Pin7</text>
<text x="-15" y="298" font-size="11" text-anchor="end" fill="#0066cc" font-style="italic" font-family="Verdana, sans-serif">STRING</text>
<text x="-85" y="298" font-size="11" text-anchor="end" fill="#666666" font-family="Verdana, sans-serif">Name of the Pin</text>
<path d="M-5,316 L-5,326 L0,321 Z" fill="#0066cc" stroke="none" />
<text x="12" y="325" font-size="12" text-anchor="start" font-family="Consolas, monospace">Pin8</text>
<text x="-15" y="324" font-size="11" text-anchor="end" fill="#0066cc" font-style="italic" font-family="Verdana, sans-serif">STRING</text>
<text x="-85" y="324" font-size="11" text-anchor="end" fill="#666666" font-family="Verdana, sans-serif">Name of the Pin</text>
<path d="M-5,342 L-5,352 L0,347 Z" fill="#0066cc" stroke="none" />
<text x="12" y="351" font-size="12" text-anchor="start" font-family="Consolas, monospace">Pin9</text>
<text x="-15" y="350" font-size="11" text-anchor="end" fill="#0066cc" font-style="italic" font-family="Verdana, sans-serif">STRING</text>
<text x="-85" y="350" font-size="11" text-anchor="end" fill="#666666" font-family="Verdana, sans-serif">Name of the Pin</text>
<path d="M-5,368 L-5,378 L0,373 Z" fill="#0066cc" stroke="none" />
<text x="12" y="377" font-size="12" text-anchor="start" font-family="Consolas, monospace">Pin10</text>
<text x="-15" y="376" font-size="11" text-anchor="end" fill="#0066cc" font-style="italic" font-family="Verdana, sans-serif">STRING</text>
<text x="-85" y="376" font-size="11" text-anchor="end" fill="#666666" font-family="Verdana, sans-serif">Name of the Pin</text>
<path d="M-5,394 L-5,404 L0,399 Z" fill="#0066cc" stroke="none" />
<text x="12" y="403" font-size="12" text-anchor="start" font-family="Consolas, monospace">Pin11</text>
<text x="-15" y="402" font-size="11" text-anchor="end" fill="#0066cc" font-style="italic" font-family="Verdana, sans-serif">STRING</text>
<text x="-85" y="402" font-size="11" text-anchor="end" fill="#666666" font-family="Verdana, sans-serif">Name of the Pin</text>
<path d="M-5,420 L-5,430 L0,425 Z" fill="#0066cc" stroke="none" />
<text x="12" y="429" font-size="12" text-anchor="start" font-family="Consolas, monospace">Pin12</text>
<text x="-15" y="428" font-size="11" text-anchor="end" fill="#0066cc" font-style="italic" font-family="Verdana, sans-serif">STRING</text>
<text x="-85" y="428" font-size="11" text-anchor="end" fill="#666666" font-family="Verdana, sans-serif">Name of the Pin</text>
<path d="M-5,446 L-5,456 L0,451 Z" fill="#0066cc" stroke="none" />
<text x="12" y="455" font-size="12" text-anchor="start" font-family="Consolas, monospace">Pin13</text>
<text x="-15" y="454" font-size="11" text-anchor="end" fill="#0066cc" font-style="italic" font-family="Verdana, sans-serif">STRING</text>
<text x="-85" y="454" font-size="11" text-anchor="end" fill="#666666" font-family="Verdana, sans-serif">Name of the Pin</text>
<path d="M-5,472 L-5,482 L0,477 Z" fill="#0066cc" stroke="none" />
<text x="12" y="481" font-size="12" text-anchor="start" font-family="Consolas, monospace">Pin14</text>
<text x="-15" y="480" font-size="11" text-anchor="end" fill="#0066cc" font-style="italic" font-family="Verdana, sans-serif">STRING</text>
<text x="-85" y="480" font-size="11" text-anchor="end" fill="#666666" font-family="Verdana, sans-serif">Name of the Pin</text>
<path d="M-5,498 L-5,508 L0,503 Z" fill="#0066cc" stroke="none" />
<text x="12" y="507" font-size="12" text-anchor="start" font-family="Consolas, monospace">Pin15</text>
<text x="-15" y="506" font-size="11" text-anchor="end" fill="#0066cc" font-style="italic" font-family="Verdana, sans-serif">STRING</text>
<text x="-85" y="506" font-size="11" text-anchor="end" fill="#666666" font-family="Verdana, sans-serif">Name of the Pin</text>
</svg>