<?xml version="1.0" encoding="UTF-8"?>
<svg xmlns="http://www.w3.org/2000/svg" xmlns:xlink="http://www.w3.org/1999/xlink"
     width="1016" height="249" viewBox="-548 -20 1016 249">
<defs>
</defs>
<rect x="3" y="3" width="170" height="199" fill="#000000" fill-opacity="0.1" rx="2" ry="2" />
<path d="M0,0 H170 V66 H164 V106 H170 V199 H0 V106 H6 V66 H0 Z" fill="#ffffff" stroke="#000000" stroke-width="2" />
<path d="M0,30 L170,30" stroke="#000000" stroke-width="1" />
<text x="85.0" y="84.0" font-size="14" fontWeight="bold" font-family="Verdana, sans-serif" font-style="italic" text-anchor="middle" dominant-baseline="central">EC_START_ELEM</text>
<text x="85.0" y="98.0" font-size="10" fill="#000" font-family="Consolas, monospace" text-anchor="middle" dominant-baseline="central">3.0</text>
<path d="M-5,37 L-5,47 L0,42 Z" fill="#63B31F" stroke="none" />
<text x="12" y="46" font-size="12" text-anchor="start" font-family="Consolas, monospace">REQ</text>
<text x="-23" y="45" font-size="11" text-anchor="end" fill="#888" font-style="italic" font-family="Verdana, sans-serif">Event</text>
<text x="-93" y="45" font-size="11" text-anchor="end" fill="#666666" font-family="Verdana, sans-serif">Event to require starting an element</text>
<path d="M-5,118 L-5,128 L0,123 Z" fill="#9FA48A" stroke="none" />
<text x="12" y="127" font-size="12" text-anchor="start" font-family="Consolas, monospace">QI</text>
<text x="-23" y="126" font-size="11" text-anchor="end" fill="#9FA48A" font-style="italic" font-family="Verdana, sans-serif">BOOL</text>
<text x="-93" y="126" font-size="11" text-anchor="end" fill="#666666" font-family="Verdana, sans-serif">Event Input Qualifier</text>
<path d="M-5,144 L-5,154 L0,149 Z" fill="#BD8663" stroke="none" />
<text x="12" y="153" font-size="12" text-anchor="start" font-family="Consolas, monospace">ELEM_NAME</text>
<text x="-23" y="152" font-size="11" text-anchor="end" fill="#BD8663" font-style="italic" font-family="Verdana, sans-serif">WSTRING</text>
<text x="-93" y="152" font-size="11" text-anchor="end" fill="#666666" font-family="Verdana, sans-serif">Element instance name</text>
<path d="M-5,170 L-5,180 L0,175 Z" fill="#BD8663" stroke="none" />
<text x="12" y="179" font-size="12" text-anchor="start" font-family="Consolas, monospace">DST</text>
<text x="-23" y="178" font-size="11" text-anchor="end" fill="#BD8663" font-style="italic" font-family="Verdana, sans-serif">WSTRING</text>
<text x="-150" y="178" font-size="11" text-anchor="end" fill="#666666" font-family="Verdana, sans-serif">Destination where the element has to be started (Syntax: ResourceName)</text>
<path d="M170,37 L170,47 L175,42 Z" fill="#63B31F" stroke="none" />
<text x="158" y="46" font-size="12" text-anchor="end" font-family="Consolas, monospace">CNF</text>
<text x="193" y="45" font-size="11" text-anchor="start" fill="#888" font-style="italic" font-family="Verdana, sans-serif">Event</text>
<text x="263" y="45" font-size="11" text-anchor="start" fill="#666666" font-family="Verdana, sans-serif">Event to confirm that the element has been started</text>
<path d="M170,118 L170,128 L175,123 Z" fill="#9FA48A" stroke="none" />
<text x="158" y="127" font-size="12" text-anchor="end" font-family="Consolas, monospace">QO</text>
<text x="193" y="126" font-size="11" text-anchor="start" fill="#9FA48A" font-style="italic" font-family="Verdana, sans-serif">BOOL</text>
<text x="263" y="126" font-size="11" text-anchor="start" fill="#666666" font-family="Verdana, sans-serif">Event Output Qualifier</text>
<path d="M170,144 L170,154 L175,149 Z" fill="#BD8663" stroke="none" />
<text x="158" y="153" font-size="12" text-anchor="end" font-family="Consolas, monospace">STATUS</text>
<text x="193" y="152" font-size="11" text-anchor="start" fill="#BD8663" font-style="italic" font-family="Verdana, sans-serif">WSTRING</text>
<text x="263" y="152" font-size="11" text-anchor="start" fill="#666666" font-family="Verdana, sans-serif">Service Status: RDY, NO_SUCH_OBJECT, INVALID_STATE</text>
<path d="M-12,42 L-12,175" stroke="#404040" stroke-width="1" />
<path d="M0,42 L-12,42" stroke="#404040" />
<rect x="-14" y="40" width="4" height="4" fill="white" stroke="black" stroke-width="1" />
<path d="M-12,149 L-5,149" stroke="#404040" />
<rect x="-14" y="147" width="4" height="4" fill="white" stroke="black" stroke-width="1" />
<path d="M-12,175 L-5,175" stroke="#404040" />
<rect x="-14" y="173" width="4" height="4" fill="white" stroke="black" stroke-width="1" />
<path d="M-12,123 L-5,123" stroke="#404040" />
<rect x="-14" y="121" width="4" height="4" fill="white" stroke="black" stroke-width="1" />
<path d="M182,42 L182,149" stroke="#404040" stroke-width="1" />
<path d="M170,42 L182,42" stroke="#404040" />
<rect x="180" y="40" width="4" height="4" fill="white" stroke="black" stroke-width="1" />
<path d="M182,149 L175,149" stroke="#404040" />
<rect x="180" y="147" width="4" height="4" fill="white" stroke="black" stroke-width="1" />
<path d="M182,123 L175,123" stroke="#404040" />
<rect x="180" y="121" width="4" height="4" fill="white" stroke="black" stroke-width="1" />
</svg>