<?xml version="1.0" encoding="UTF-8"?>
<svg xmlns="http://www.w3.org/2000/svg" xmlns:xlink="http://www.w3.org/1999/xlink"
     width="1026" height="327" viewBox="-548 -20 1026 327">
<defs>
</defs>
<rect x="3" y="3" width="180" height="277" fill="#000000" fill-opacity="0.1" rx="2" ry="2" />
<path d="M0,0 H180 V66 H174 V106 H180 V277 H0 V106 H6 V66 H0 Z" fill="#ffffff" stroke="#000000" stroke-width="2" />
<path d="M0,30 L180,30" stroke="#000000" stroke-width="1" />
<text x="90.0" y="84.0" font-size="14" fontWeight="bold" font-family="Verdana, sans-serif" font-style="italic" text-anchor="middle" dominant-baseline="central">ST_CREATE_CONN</text>
<text x="90.0" y="98.0" font-size="10" fill="#000" font-family="Consolas, monospace" text-anchor="middle" dominant-baseline="central">3.0</text>
<path d="M-5,37 L-5,47 L0,42 Z" fill="#63B31F" stroke="none" />
<text x="12" y="46" font-size="12" text-anchor="start" font-family="Consolas, monospace">REQ</text>
<text x="-23" y="45" font-size="11" text-anchor="end" fill="#888" font-style="italic" font-family="Verdana, sans-serif">Event</text>
<text x="-93" y="45" font-size="11" text-anchor="end" fill="#666666" font-family="Verdana, sans-serif">Event to require creation of a connection</text>
<path d="M-5,118 L-5,128 L0,123 Z" fill="#9FA48A" stroke="none" />
<text x="12" y="127" font-size="12" text-anchor="start" font-family="Consolas, monospace">QI</text>
<text x="-23" y="126" font-size="11" text-anchor="end" fill="#9FA48A" font-style="italic" font-family="Verdana, sans-serif">BOOL</text>
<text x="-93" y="126" font-size="11" text-anchor="end" fill="#666666" font-family="Verdana, sans-serif">Event Input Qualifier</text>
<path d="M-5,144 L-5,154 L0,149 Z" fill="#BD8663" stroke="none" />
<text x="12" y="153" font-size="12" text-anchor="start" font-family="Consolas, monospace">SRC_FB</text>
<text x="-23" y="152" font-size="11" text-anchor="end" fill="#BD8663" font-style="italic" font-family="Verdana, sans-serif">WSTRING</text>
<text x="-93" y="152" font-size="11" text-anchor="end" fill="#666666" font-family="Verdana, sans-serif">Reference to Source FB instance</text>
<path d="M-5,170 L-5,180 L0,175 Z" fill="#BD8663" stroke="none" />
<text x="12" y="179" font-size="12" text-anchor="start" font-family="Consolas, monospace">SRC_FB_OUT</text>
<text x="-23" y="178" font-size="11" text-anchor="end" fill="#BD8663" font-style="italic" font-family="Verdana, sans-serif">WSTRING</text>
<text x="-129" y="178" font-size="11" text-anchor="end" fill="#666666" font-family="Verdana, sans-serif">Reference to Source FB instance Event/Data-Output</text>
<path d="M-5,196 L-5,206 L0,201 Z" fill="#BD8663" stroke="none" />
<text x="12" y="205" font-size="12" text-anchor="start" font-family="Consolas, monospace">DST_FB</text>
<text x="-23" y="204" font-size="11" text-anchor="end" fill="#BD8663" font-style="italic" font-family="Verdana, sans-serif">WSTRING</text>
<text x="-93" y="204" font-size="11" text-anchor="end" fill="#666666" font-family="Verdana, sans-serif">Reference to Destination FB instance</text>
<path d="M-5,222 L-5,232 L0,227 Z" fill="#BD8663" stroke="none" />
<text x="12" y="231" font-size="12" text-anchor="start" font-family="Consolas, monospace">DST_FB_IN</text>
<text x="-23" y="230" font-size="11" text-anchor="end" fill="#BD8663" font-style="italic" font-family="Verdana, sans-serif">WSTRING</text>
<text x="-133" y="230" font-size="11" text-anchor="end" fill="#666666" font-family="Verdana, sans-serif">Reference to Destination FB instance Event/Data-Input</text>
<path d="M-5,248 L-5,258 L0,253 Z" fill="#BD8663" stroke="none" />
<text x="12" y="257" font-size="12" text-anchor="start" font-family="Consolas, monospace">DST</text>
<text x="-23" y="256" font-size="11" text-anchor="end" fill="#BD8663" font-style="italic" font-family="Verdana, sans-serif">WSTRING</text>
<text x="-153" y="256" font-size="11" text-anchor="end" fill="#666666" font-family="Verdana, sans-serif">Destination where the connection has to be created (Syntax: ResourceName)</text>
<path d="M180,37 L180,47 L185,42 Z" fill="#63B31F" stroke="none" />
<text x="168" y="46" font-size="12" text-anchor="end" font-family="Consolas, monospace">CNF</text>
<text x="203" y="45" font-size="11" text-anchor="start" fill="#888" font-style="italic" font-family="Verdana, sans-serif">Event</text>
<text x="273" y="45" font-size="11" text-anchor="start" fill="#666666" font-family="Verdana, sans-serif">Event to confirm that the connection has been created</text>
<path d="M180,118 L180,128 L185,123 Z" fill="#9FA48A" stroke="none" />
<text x="168" y="127" font-size="12" text-anchor="end" font-family="Consolas, monospace">QO</text>
<text x="203" y="126" font-size="11" text-anchor="start" fill="#9FA48A" font-style="italic" font-family="Verdana, sans-serif">BOOL</text>
<text x="273" y="126" font-size="11" text-anchor="start" fill="#666666" font-family="Verdana, sans-serif">Event Output Qualifier</text>
<path d="M180,144 L180,154 L185,149 Z" fill="#BD8663" stroke="none" />
<text x="168" y="153" font-size="12" text-anchor="end" font-family="Consolas, monospace">STATUS</text>
<text x="203" y="152" font-size="11" text-anchor="start" fill="#BD8663" font-style="italic" font-family="Verdana, sans-serif">WSTRING</text>
<text x="273" y="152" font-size="11" text-anchor="start" fill="#666666" font-family="Verdana, sans-serif">Service Status: RDY, NO_SUCH_OBJECT, INVALID_STATE</text>
<path d="M-12,42 L-12,253" stroke="#404040" stroke-width="1" />
<path d="M0,42 L-12,42" stroke="#404040" />
<rect x="-14" y="40" width="4" height="4" fill="white" stroke="black" stroke-width="1" />
<path d="M-12,149 L-5,149" stroke="#404040" />
<rect x="-14" y="147" width="4" height="4" fill="white" stroke="black" stroke-width="1" />
<path d="M-12,175 L-5,175" stroke="#404040" />
<rect x="-14" y="173" width="4" height="4" fill="white" stroke="black" stroke-width="1" />
<path d="M-12,201 L-5,201" stroke="#404040" />
<rect x="-14" y="199" width="4" height="4" fill="white" stroke="black" stroke-width="1" />
<path d="M-12,227 L-5,227" stroke="#404040" />
<rect x="-14" y="225" width="4" height="4" fill="white" stroke="black" stroke-width="1" />
<path d="M-12,253 L-5,253" stroke="#404040" />
<rect x="-14" y="251" width="4" height="4" fill="white" stroke="black" stroke-width="1" />
<path d="M-12,123 L-5,123" stroke="#404040" />
<rect x="-14" y="121" width="4" height="4" fill="white" stroke="black" stroke-width="1" />
<path d="M192,42 L192,149" stroke="#404040" stroke-width="1" />
<path d="M180,42 L192,42" stroke="#404040" />
<rect x="190" y="40" width="4" height="4" fill="white" stroke="black" stroke-width="1" />
<path d="M192,149 L185,149" stroke="#404040" />
<rect x="190" y="147" width="4" height="4" fill="white" stroke="black" stroke-width="1" />
<path d="M192,123 L185,123" stroke="#404040" />
<rect x="190" y="121" width="4" height="4" fill="white" stroke="black" stroke-width="1" />
</svg>