<?xml version="1.0" encoding="UTF-8"?>
<svg xmlns="http://www.w3.org/2000/svg" xmlns:xlink="http://www.w3.org/1999/xlink"
     width="1200" height="808.0" viewBox="0 0 1200 808.0">
<defs>
</defs>
<rect x="0" y="0" width="1200" height="808.0" fill="#ffffff" />
<text x="600" y="25" font-size="14" fontWeight="bold" font-family="Verdana, sans-serif" fill="#000000" text-anchor="middle" dominant-baseline="central">ECC: sequence_E_08_loop_AX</text>
<rect x="344.1252088282555" y="67.0" width="80" height="32" fill="#f5f5f5" stroke="#000000" stroke-width="2" rx="8" ry="8" />
<text x="384.1252088282555" y="83.0" font-size="12" fontWeight="bold" font-family="Verdana, sans-serif" fill="#000000" text-anchor="middle" dominant-baseline="central">xSTART</text>
<rect x="344.1252088282555" y="607.0" width="80" height="32" fill="#f5f5f5" stroke="#000000" stroke-width="2" rx="8" ry="8" />
<text x="384.1252088282555" y="623.0" font-size="12" fontWeight="bold" font-family="Verdana, sans-serif" fill="#000000" text-anchor="middle" dominant-baseline="central">sRESET</text>
<rect x="434.1252088282555" y="607.0" width="161" height="134" fill="#ffffff" stroke="#cccccc" stroke-width="1" rx="4" ry="4" />
<path d="M424.1252088282555,623.0 L434.1252088282555,618.0" stroke="#000000" stroke-width="2" />
<path d="M514.1252088282555,607.0 L514.1252088282555,741.0" stroke="#cccccc" stroke-width="1" />
<rect x="434.1252088282555" y="611.0" width="80" height="14" fill="#e6f7e6" stroke="#cccccc" stroke-width="0.5" />
<text x="474.1252088282555" y="619.0" font-size="10" font-family="Consolas, monospace" fill="#000000" text-anchor="middle" dominant-baseline="central">State_01_X</text>
<rect x="515.1252088282555" y="611.0" width="80" height="14" fill="#ffe6e6" stroke="#cccccc" stroke-width="0.5" />
<text x="555.1252088282555" y="619.0" font-size="10" font-family="Consolas, monospace" fill="#000000" text-anchor="middle" dominant-baseline="central">DO_S1.E1</text>
<path d="M434.1252088282555,625.0 L595.1252088282555,625.0" stroke="#cccccc" stroke-width="0.5" />
<rect x="434.1252088282555" y="625.0" width="80" height="14" fill="#e6f7e6" stroke="#cccccc" stroke-width="0.5" />
<text x="474.1252088282555" y="633.0" font-size="10" font-family="Consolas, monospace" fill="#000000" text-anchor="middle" dominant-baseline="central">State_02_X</text>
<rect x="515.1252088282555" y="625.0" width="80" height="14" fill="#ffe6e6" stroke="#cccccc" stroke-width="0.5" />
<text x="555.1252088282555" y="633.0" font-size="10" font-family="Consolas, monospace" fill="#000000" text-anchor="middle" dominant-baseline="central">DO_S2.E1</text>
<path d="M434.1252088282555,639.0 L595.1252088282555,639.0" stroke="#cccccc" stroke-width="0.5" />
<rect x="434.1252088282555" y="639.0" width="80" height="14" fill="#e6f7e6" stroke="#cccccc" stroke-width="0.5" />
<text x="474.1252088282555" y="647.0" font-size="10" font-family="Consolas, monospace" fill="#000000" text-anchor="middle" dominant-baseline="central">State_03_X</text>
<rect x="515.1252088282555" y="639.0" width="80" height="14" fill="#ffe6e6" stroke="#cccccc" stroke-width="0.5" />
<text x="555.1252088282555" y="647.0" font-size="10" font-family="Consolas, monospace" fill="#000000" text-anchor="middle" dominant-baseline="central">DO_S3.E1</text>
<path d="M434.1252088282555,653.0 L595.1252088282555,653.0" stroke="#cccccc" stroke-width="0.5" />
<rect x="434.1252088282555" y="653.0" width="80" height="14" fill="#e6f7e6" stroke="#cccccc" stroke-width="0.5" />
<text x="474.1252088282555" y="661.0" font-size="10" font-family="Consolas, monospace" fill="#000000" text-anchor="middle" dominant-baseline="central">State_04_X</text>
<rect x="515.1252088282555" y="653.0" width="80" height="14" fill="#ffe6e6" stroke="#cccccc" stroke-width="0.5" />
<text x="555.1252088282555" y="661.0" font-size="10" font-family="Consolas, monospace" fill="#000000" text-anchor="middle" dominant-baseline="central">DO_S4.E1</text>
<path d="M434.1252088282555,667.0 L595.1252088282555,667.0" stroke="#cccccc" stroke-width="0.5" />
<rect x="434.1252088282555" y="667.0" width="80" height="14" fill="#e6f7e6" stroke="#cccccc" stroke-width="0.5" />
<text x="474.1252088282555" y="675.0" font-size="10" font-family="Consolas, monospace" fill="#000000" text-anchor="middle" dominant-baseline="central">State_05_X</text>
<rect x="515.1252088282555" y="667.0" width="80" height="14" fill="#ffe6e6" stroke="#cccccc" stroke-width="0.5" />
<text x="555.1252088282555" y="675.0" font-size="10" font-family="Consolas, monospace" fill="#000000" text-anchor="middle" dominant-baseline="central">DO_S5.E1</text>
<path d="M434.1252088282555,681.0 L595.1252088282555,681.0" stroke="#cccccc" stroke-width="0.5" />
<rect x="434.1252088282555" y="681.0" width="80" height="14" fill="#e6f7e6" stroke="#cccccc" stroke-width="0.5" />
<text x="474.1252088282555" y="689.0" font-size="10" font-family="Consolas, monospace" fill="#000000" text-anchor="middle" dominant-baseline="central">State_06_X</text>
<rect x="515.1252088282555" y="681.0" width="80" height="14" fill="#ffe6e6" stroke="#cccccc" stroke-width="0.5" />
<text x="555.1252088282555" y="689.0" font-size="10" font-family="Consolas, monospace" fill="#000000" text-anchor="middle" dominant-baseline="central">DO_S6.E1</text>
<path d="M434.1252088282555,695.0 L595.1252088282555,695.0" stroke="#cccccc" stroke-width="0.5" />
<rect x="434.1252088282555" y="695.0" width="80" height="14" fill="#e6f7e6" stroke="#cccccc" stroke-width="0.5" />
<text x="474.1252088282555" y="703.0" font-size="10" font-family="Consolas, monospace" fill="#000000" text-anchor="middle" dominant-baseline="central">State_07_X</text>
<rect x="515.1252088282555" y="695.0" width="80" height="14" fill="#ffe6e6" stroke="#cccccc" stroke-width="0.5" />
<text x="555.1252088282555" y="703.0" font-size="10" font-family="Consolas, monospace" fill="#000000" text-anchor="middle" dominant-baseline="central">DO_S7.E1</text>
<path d="M434.1252088282555,709.0 L595.1252088282555,709.0" stroke="#cccccc" stroke-width="0.5" />
<rect x="434.1252088282555" y="709.0" width="80" height="14" fill="#e6f7e6" stroke="#cccccc" stroke-width="0.5" />
<text x="474.1252088282555" y="717.0" font-size="10" font-family="Consolas, monospace" fill="#000000" text-anchor="middle" dominant-baseline="central">State_08_X</text>
<rect x="515.1252088282555" y="709.0" width="80" height="14" fill="#ffe6e6" stroke="#cccccc" stroke-width="0.5" />
<text x="555.1252088282555" y="717.0" font-size="10" font-family="Consolas, monospace" fill="#000000" text-anchor="middle" dominant-baseline="central">DO_S8.E1</text>
<path d="M434.1252088282555,723.0 L595.1252088282555,723.0" stroke="#cccccc" stroke-width="0.5" />
<rect x="434.1252088282555" y="723.0" width="80" height="14" fill="#e6f7e6" stroke="#cccccc" stroke-width="0.5" />
<text x="474.1252088282555" y="731.0" font-size="10" font-family="Consolas, monospace" fill="#000000" text-anchor="middle" dominant-baseline="central">State_00_C</text>
<rect x="515.1252088282555" y="723.0" width="80" height="14" fill="#ffe6e6" stroke="#cccccc" stroke-width="0.5" />
<text x="555.1252088282555" y="731.0" font-size="10" font-family="Consolas, monospace" fill="#000000" text-anchor="middle" dominant-baseline="central">CNF</text>
<rect x="679.2260947663093" y="134.4993671871045" width="84.8" height="32" fill="#f5f5f5" stroke="#000000" stroke-width="2" rx="8" ry="8" />
<text x="721.6260947663093" y="150.4993671871045" font-size="12" fontWeight="bold" font-family="Verdana, sans-serif" fill="#000000" text-anchor="middle" dominant-baseline="central">sState_01</text>
<rect x="774.0260947663093" y="134.4993671871045" width="161" height="50" fill="#ffffff" stroke="#cccccc" stroke-width="1" rx="4" ry="4" />
<path d="M764.0260947663093,150.4993671871045 L774.0260947663093,145.4993671871045" stroke="#000000" stroke-width="2" />
<path d="M854.0260947663093,134.4993671871045 L854.0260947663093,184.4993671871045" stroke="#cccccc" stroke-width="1" />
<rect x="774.0260947663093" y="138.4993671871045" width="80" height="14" fill="#e6f7e6" stroke="#cccccc" stroke-width="0.5" />
<text x="814.0260947663093" y="146.4993671871045" font-size="10" font-family="Consolas, monospace" fill="#000000" text-anchor="middle" dominant-baseline="central">State_08_X</text>
<rect x="855.0260947663093" y="138.4993671871045" width="80" height="14" fill="#ffe6e6" stroke="#cccccc" stroke-width="0.5" />
<text x="895.0260947663093" y="146.4993671871045" font-size="10" font-family="Consolas, monospace" fill="#000000" text-anchor="middle" dominant-baseline="central">DO_S8.E1</text>
<path d="M774.0260947663093,152.4993671871045 L935.0260947663093,152.4993671871045" stroke="#cccccc" stroke-width="0.5" />
<rect x="774.0260947663093" y="152.4993671871045" width="80" height="14" fill="#e6f7e6" stroke="#cccccc" stroke-width="0.5" />
<text x="814.0260947663093" y="160.4993671871045" font-size="10" font-family="Consolas, monospace" fill="#000000" text-anchor="middle" dominant-baseline="central">State_01_C</text>
<rect x="855.0260947663093" y="152.4993671871045" width="80" height="14" fill="#ffe6e6" stroke="#cccccc" stroke-width="0.5" />
<text x="895.0260947663093" y="160.4993671871045" font-size="10" font-family="Consolas, monospace" fill="#000000" text-anchor="middle" dominant-baseline="central">CNF</text>
<path d="M774.0260947663093,166.4993671871045 L935.0260947663093,166.4993671871045" stroke="#cccccc" stroke-width="0.5" />
<rect x="774.0260947663093" y="166.4993671871045" width="80" height="14" fill="#e6f7e6" stroke="#cccccc" stroke-width="0.5" />
<text x="814.0260947663093" y="174.4993671871045" font-size="10" font-family="Consolas, monospace" fill="#000000" text-anchor="middle" dominant-baseline="central">State_01_E</text>
<rect x="855.0260947663093" y="166.4993671871045" width="80" height="14" fill="#ffe6e6" stroke="#cccccc" stroke-width="0.5" />
<text x="895.0260947663093" y="174.4993671871045" font-size="10" font-family="Consolas, monospace" fill="#000000" text-anchor="middle" dominant-baseline="central">DO_S1.E1</text>
<rect x="679.2260947663093" y="201.99974687484178" width="84.8" height="32" fill="#f5f5f5" stroke="#000000" stroke-width="2" rx="8" ry="8" />
<text x="721.6260947663093" y="217.99974687484178" font-size="12" fontWeight="bold" font-family="Verdana, sans-serif" fill="#000000" text-anchor="middle" dominant-baseline="central">sState_02</text>
<rect x="774.0260947663093" y="201.99974687484178" width="161" height="50" fill="#ffffff" stroke="#cccccc" stroke-width="1" rx="4" ry="4" />
<path d="M764.0260947663093,217.99974687484178 L774.0260947663093,212.99974687484178" stroke="#000000" stroke-width="2" />
<path d="M854.0260947663093,201.99974687484178 L854.0260947663093,251.99974687484178" stroke="#cccccc" stroke-width="1" />
<rect x="774.0260947663093" y="205.99974687484178" width="80" height="14" fill="#e6f7e6" stroke="#cccccc" stroke-width="0.5" />
<text x="814.0260947663093" y="213.99974687484178" font-size="10" font-family="Consolas, monospace" fill="#000000" text-anchor="middle" dominant-baseline="central">State_01_X</text>
<rect x="855.0260947663093" y="205.99974687484178" width="80" height="14" fill="#ffe6e6" stroke="#cccccc" stroke-width="0.5" />
<text x="895.0260947663093" y="213.99974687484178" font-size="10" font-family="Consolas, monospace" fill="#000000" text-anchor="middle" dominant-baseline="central">DO_S1.E1</text>
<path d="M774.0260947663093,219.99974687484178 L935.0260947663093,219.99974687484178" stroke="#cccccc" stroke-width="0.5" />
<rect x="774.0260947663093" y="219.99974687484178" width="80" height="14" fill="#e6f7e6" stroke="#cccccc" stroke-width="0.5" />
<text x="814.0260947663093" y="227.99974687484178" font-size="10" font-family="Consolas, monospace" fill="#000000" text-anchor="middle" dominant-baseline="central">State_02_C</text>
<rect x="855.0260947663093" y="219.99974687484178" width="80" height="14" fill="#ffe6e6" stroke="#cccccc" stroke-width="0.5" />
<text x="895.0260947663093" y="227.99974687484178" font-size="10" font-family="Consolas, monospace" fill="#000000" text-anchor="middle" dominant-baseline="central">CNF</text>
<path d="M774.0260947663093,233.99974687484178 L935.0260947663093,233.99974687484178" stroke="#cccccc" stroke-width="0.5" />
<rect x="774.0260947663093" y="233.99974687484178" width="80" height="14" fill="#e6f7e6" stroke="#cccccc" stroke-width="0.5" />
<text x="814.0260947663093" y="241.99974687484178" font-size="10" font-family="Consolas, monospace" fill="#000000" text-anchor="middle" dominant-baseline="central">State_02_E</text>
<rect x="855.0260947663093" y="233.99974687484178" width="80" height="14" fill="#ffe6e6" stroke="#cccccc" stroke-width="0.5" />
<text x="895.0260947663093" y="241.99974687484178" font-size="10" font-family="Consolas, monospace" fill="#000000" text-anchor="middle" dominant-baseline="central">DO_S2.E1</text>
<rect x="679.2260947663093" y="269.5001265625791" width="84.8" height="32" fill="#f5f5f5" stroke="#000000" stroke-width="2" rx="8" ry="8" />
<text x="721.6260947663093" y="285.5001265625791" font-size="12" fontWeight="bold" font-family="Verdana, sans-serif" fill="#000000" text-anchor="middle" dominant-baseline="central">sState_03</text>
<rect x="774.0260947663093" y="269.5001265625791" width="161" height="50" fill="#ffffff" stroke="#cccccc" stroke-width="1" rx="4" ry="4" />
<path d="M764.0260947663093,285.5001265625791 L774.0260947663093,280.5001265625791" stroke="#000000" stroke-width="2" />
<path d="M854.0260947663093,269.5001265625791 L854.0260947663093,319.5001265625791" stroke="#cccccc" stroke-width="1" />
<rect x="774.0260947663093" y="273.5001265625791" width="80" height="14" fill="#e6f7e6" stroke="#cccccc" stroke-width="0.5" />
<text x="814.0260947663093" y="281.5001265625791" font-size="10" font-family="Consolas, monospace" fill="#000000" text-anchor="middle" dominant-baseline="central">State_02_X</text>
<rect x="855.0260947663093" y="273.5001265625791" width="80" height="14" fill="#ffe6e6" stroke="#cccccc" stroke-width="0.5" />
<text x="895.0260947663093" y="281.5001265625791" font-size="10" font-family="Consolas, monospace" fill="#000000" text-anchor="middle" dominant-baseline="central">DO_S2.E1</text>
<path d="M774.0260947663093,287.5001265625791 L935.0260947663093,287.5001265625791" stroke="#cccccc" stroke-width="0.5" />
<rect x="774.0260947663093" y="287.5001265625791" width="80" height="14" fill="#e6f7e6" stroke="#cccccc" stroke-width="0.5" />
<text x="814.0260947663093" y="295.5001265625791" font-size="10" font-family="Consolas, monospace" fill="#000000" text-anchor="middle" dominant-baseline="central">State_03_C</text>
<rect x="855.0260947663093" y="287.5001265625791" width="80" height="14" fill="#ffe6e6" stroke="#cccccc" stroke-width="0.5" />
<text x="895.0260947663093" y="295.5001265625791" font-size="10" font-family="Consolas, monospace" fill="#000000" text-anchor="middle" dominant-baseline="central">CNF</text>
<path d="M774.0260947663093,301.5001265625791 L935.0260947663093,301.5001265625791" stroke="#cccccc" stroke-width="0.5" />
<rect x="774.0260947663093" y="301.5001265625791" width="80" height="14" fill="#e6f7e6" stroke="#cccccc" stroke-width="0.5" />
<text x="814.0260947663093" y="309.5001265625791" font-size="10" font-family="Consolas, monospace" fill="#000000" text-anchor="middle" dominant-baseline="central">State_03_E</text>
<rect x="855.0260947663093" y="301.5001265625791" width="80" height="14" fill="#ffe6e6" stroke="#cccccc" stroke-width="0.5" />
<text x="895.0260947663093" y="309.5001265625791" font-size="10" font-family="Consolas, monospace" fill="#000000" text-anchor="middle" dominant-baseline="central">DO_S3.E1</text>
<rect x="679.2260947663093" y="336.99949374968355" width="84.8" height="32" fill="#f5f5f5" stroke="#000000" stroke-width="2" rx="8" ry="8" />
<text x="721.6260947663093" y="352.99949374968355" font-size="12" fontWeight="bold" font-family="Verdana, sans-serif" fill="#000000" text-anchor="middle" dominant-baseline="central">sState_04</text>
<rect x="774.0260947663093" y="336.99949374968355" width="161" height="50" fill="#ffffff" stroke="#cccccc" stroke-width="1" rx="4" ry="4" />
<path d="M764.0260947663093,352.99949374968355 L774.0260947663093,347.99949374968355" stroke="#000000" stroke-width="2" />
<path d="M854.0260947663093,336.99949374968355 L854.0260947663093,386.99949374968355" stroke="#cccccc" stroke-width="1" />
<rect x="774.0260947663093" y="340.99949374968355" width="80" height="14" fill="#e6f7e6" stroke="#cccccc" stroke-width="0.5" />
<text x="814.0260947663093" y="348.99949374968355" font-size="10" font-family="Consolas, monospace" fill="#000000" text-anchor="middle" dominant-baseline="central">State_03_X</text>
<rect x="855.0260947663093" y="340.99949374968355" width="80" height="14" fill="#ffe6e6" stroke="#cccccc" stroke-width="0.5" />
<text x="895.0260947663093" y="348.99949374968355" font-size="10" font-family="Consolas, monospace" fill="#000000" text-anchor="middle" dominant-baseline="central">DO_S3.E1</text>
<path d="M774.0260947663093,354.99949374968355 L935.0260947663093,354.99949374968355" stroke="#cccccc" stroke-width="0.5" />
<rect x="774.0260947663093" y="354.99949374968355" width="80" height="14" fill="#e6f7e6" stroke="#cccccc" stroke-width="0.5" />
<text x="814.0260947663093" y="362.99949374968355" font-size="10" font-family="Consolas, monospace" fill="#000000" text-anchor="middle" dominant-baseline="central">State_04_C</text>
<rect x="855.0260947663093" y="354.99949374968355" width="80" height="14" fill="#ffe6e6" stroke="#cccccc" stroke-width="0.5" />
<text x="895.0260947663093" y="362.99949374968355" font-size="10" font-family="Consolas, monospace" fill="#000000" text-anchor="middle" dominant-baseline="central">CNF</text>
<path d="M774.0260947663093,368.99949374968355 L935.0260947663093,368.99949374968355" stroke="#cccccc" stroke-width="0.5" />
<rect x="774.0260947663093" y="368.99949374968355" width="80" height="14" fill="#e6f7e6" stroke="#cccccc" stroke-width="0.5" />
<text x="814.0260947663093" y="376.99949374968355" font-size="10" font-family="Consolas, monospace" fill="#000000" text-anchor="middle" dominant-baseline="central">State_04_E</text>
<rect x="855.0260947663093" y="368.99949374968355" width="80" height="14" fill="#ffe6e6" stroke="#cccccc" stroke-width="0.5" />
<text x="895.0260947663093" y="376.99949374968355" font-size="10" font-family="Consolas, monospace" fill="#000000" text-anchor="middle" dominant-baseline="central">DO_S4.E1</text>
<rect x="679.2260947663093" y="404.4998734374209" width="84.8" height="32" fill="#f5f5f5" stroke="#000000" stroke-width="2" rx="8" ry="8" />
<text x="721.6260947663093" y="420.4998734374209" font-size="12" fontWeight="bold" font-family="Verdana, sans-serif" fill="#000000" text-anchor="middle" dominant-baseline="central">sState_05</text>
<rect x="774.0260947663093" y="404.4998734374209" width="161" height="50" fill="#ffffff" stroke="#cccccc" stroke-width="1" rx="4" ry="4" />
<path d="M764.0260947663093,420.4998734374209 L774.0260947663093,415.4998734374209" stroke="#000000" stroke-width="2" />
<path d="M854.0260947663093,404.4998734374209 L854.0260947663093,454.4998734374209" stroke="#cccccc" stroke-width="1" />
<rect x="774.0260947663093" y="408.4998734374209" width="80" height="14" fill="#e6f7e6" stroke="#cccccc" stroke-width="0.5" />
<text x="814.0260947663093" y="416.4998734374209" font-size="10" font-family="Consolas, monospace" fill="#000000" text-anchor="middle" dominant-baseline="central">State_04_X</text>
<rect x="855.0260947663093" y="408.4998734374209" width="80" height="14" fill="#ffe6e6" stroke="#cccccc" stroke-width="0.5" />
<text x="895.0260947663093" y="416.4998734374209" font-size="10" font-family="Consolas, monospace" fill="#000000" text-anchor="middle" dominant-baseline="central">DO_S4.E1</text>
<path d="M774.0260947663093,422.4998734374209 L935.0260947663093,422.4998734374209" stroke="#cccccc" stroke-width="0.5" />
<rect x="774.0260947663093" y="422.4998734374209" width="80" height="14" fill="#e6f7e6" stroke="#cccccc" stroke-width="0.5" />
<text x="814.0260947663093" y="430.4998734374209" font-size="10" font-family="Consolas, monospace" fill="#000000" text-anchor="middle" dominant-baseline="central">State_05_C</text>
<rect x="855.0260947663093" y="422.4998734374209" width="80" height="14" fill="#ffe6e6" stroke="#cccccc" stroke-width="0.5" />
<text x="895.0260947663093" y="430.4998734374209" font-size="10" font-family="Consolas, monospace" fill="#000000" text-anchor="middle" dominant-baseline="central">CNF</text>
<path d="M774.0260947663093,436.4998734374209 L935.0260947663093,436.4998734374209" stroke="#cccccc" stroke-width="0.5" />
<rect x="774.0260947663093" y="436.4998734374209" width="80" height="14" fill="#e6f7e6" stroke="#cccccc" stroke-width="0.5" />
<text x="814.0260947663093" y="444.4998734374209" font-size="10" font-family="Consolas, monospace" fill="#000000" text-anchor="middle" dominant-baseline="central">State_05_E</text>
<rect x="855.0260947663093" y="436.4998734374209" width="80" height="14" fill="#ffe6e6" stroke="#cccccc" stroke-width="0.5" />
<text x="895.0260947663093" y="444.4998734374209" font-size="10" font-family="Consolas, monospace" fill="#000000" text-anchor="middle" dominant-baseline="central">DO_S5.E1</text>
<rect x="679.2260947663093" y="472.00025312515817" width="84.8" height="32" fill="#f5f5f5" stroke="#000000" stroke-width="2" rx="8" ry="8" />
<text x="721.6260947663093" y="488.00025312515817" font-size="12" fontWeight="bold" font-family="Verdana, sans-serif" fill="#000000" text-anchor="middle" dominant-baseline="central">sState_06</text>
<rect x="774.0260947663093" y="472.00025312515817" width="161" height="50" fill="#ffffff" stroke="#cccccc" stroke-width="1" rx="4" ry="4" />
<path d="M764.0260947663093,488.00025312515817 L774.0260947663093,483.00025312515817" stroke="#000000" stroke-width="2" />
<path d="M854.0260947663093,472.00025312515817 L854.0260947663093,522.0002531251582" stroke="#cccccc" stroke-width="1" />
<rect x="774.0260947663093" y="476.00025312515817" width="80" height="14" fill="#e6f7e6" stroke="#cccccc" stroke-width="0.5" />
<text x="814.0260947663093" y="484.00025312515817" font-size="10" font-family="Consolas, monospace" fill="#000000" text-anchor="middle" dominant-baseline="central">State_05_X</text>
<rect x="855.0260947663093" y="476.00025312515817" width="80" height="14" fill="#ffe6e6" stroke="#cccccc" stroke-width="0.5" />
<text x="895.0260947663093" y="484.00025312515817" font-size="10" font-family="Consolas, monospace" fill="#000000" text-anchor="middle" dominant-baseline="central">DO_S5.E1</text>
<path d="M774.0260947663093,490.00025312515817 L935.0260947663093,490.00025312515817" stroke="#cccccc" stroke-width="0.5" />
<rect x="774.0260947663093" y="490.00025312515817" width="80" height="14" fill="#e6f7e6" stroke="#cccccc" stroke-width="0.5" />
<text x="814.0260947663093" y="498.00025312515817" font-size="10" font-family="Consolas, monospace" fill="#000000" text-anchor="middle" dominant-baseline="central">State_06_C</text>
<rect x="855.0260947663093" y="490.00025312515817" width="80" height="14" fill="#ffe6e6" stroke="#cccccc" stroke-width="0.5" />
<text x="895.0260947663093" y="498.00025312515817" font-size="10" font-family="Consolas, monospace" fill="#000000" text-anchor="middle" dominant-baseline="central">CNF</text>
<path d="M774.0260947663093,504.00025312515817 L935.0260947663093,504.00025312515817" stroke="#cccccc" stroke-width="0.5" />
<rect x="774.0260947663093" y="504.00025312515817" width="80" height="14" fill="#e6f7e6" stroke="#cccccc" stroke-width="0.5" />
<text x="814.0260947663093" y="512.0002531251582" font-size="10" font-family="Consolas, monospace" fill="#000000" text-anchor="middle" dominant-baseline="central">State_06_E</text>
<rect x="855.0260947663093" y="504.00025312515817" width="80" height="14" fill="#ffe6e6" stroke="#cccccc" stroke-width="0.5" />
<text x="895.0260947663093" y="512.0002531251582" font-size="10" font-family="Consolas, monospace" fill="#000000" text-anchor="middle" dominant-baseline="central">DO_S6.E1</text>
<rect x="679.2260947663093" y="539.4996203122627" width="84.8" height="32" fill="#f5f5f5" stroke="#000000" stroke-width="2" rx="8" ry="8" />
<text x="721.6260947663093" y="555.4996203122627" font-size="12" fontWeight="bold" font-family="Verdana, sans-serif" fill="#000000" text-anchor="middle" dominant-baseline="central">sState_07</text>
<rect x="774.0260947663093" y="539.4996203122627" width="161" height="50" fill="#ffffff" stroke="#cccccc" stroke-width="1" rx="4" ry="4" />
<path d="M764.0260947663093,555.4996203122627 L774.0260947663093,550.4996203122627" stroke="#000000" stroke-width="2" />
<path d="M854.0260947663093,539.4996203122627 L854.0260947663093,589.4996203122627" stroke="#cccccc" stroke-width="1" />
<rect x="774.0260947663093" y="543.4996203122627" width="80" height="14" fill="#e6f7e6" stroke="#cccccc" stroke-width="0.5" />
<text x="814.0260947663093" y="551.4996203122627" font-size="10" font-family="Consolas, monospace" fill="#000000" text-anchor="middle" dominant-baseline="central">State_06_X</text>
<rect x="855.0260947663093" y="543.4996203122627" width="80" height="14" fill="#ffe6e6" stroke="#cccccc" stroke-width="0.5" />
<text x="895.0260947663093" y="551.4996203122627" font-size="10" font-family="Consolas, monospace" fill="#000000" text-anchor="middle" dominant-baseline="central">DO_S6.E1</text>
<path d="M774.0260947663093,557.4996203122627 L935.0260947663093,557.4996203122627" stroke="#cccccc" stroke-width="0.5" />
<rect x="774.0260947663093" y="557.4996203122627" width="80" height="14" fill="#e6f7e6" stroke="#cccccc" stroke-width="0.5" />
<text x="814.0260947663093" y="565.4996203122627" font-size="10" font-family="Consolas, monospace" fill="#000000" text-anchor="middle" dominant-baseline="central">State_07_C</text>
<rect x="855.0260947663093" y="557.4996203122627" width="80" height="14" fill="#ffe6e6" stroke="#cccccc" stroke-width="0.5" />
<text x="895.0260947663093" y="565.4996203122627" font-size="10" font-family="Consolas, monospace" fill="#000000" text-anchor="middle" dominant-baseline="central">CNF</text>
<path d="M774.0260947663093,571.4996203122627 L935.0260947663093,571.4996203122627" stroke="#cccccc" stroke-width="0.5" />
<rect x="774.0260947663093" y="571.4996203122627" width="80" height="14" fill="#e6f7e6" stroke="#cccccc" stroke-width="0.5" />
<text x="814.0260947663093" y="579.4996203122627" font-size="10" font-family="Consolas, monospace" fill="#000000" text-anchor="middle" dominant-baseline="central">State_07_E</text>
<rect x="855.0260947663093" y="571.4996203122627" width="80" height="14" fill="#ffe6e6" stroke="#cccccc" stroke-width="0.5" />
<text x="895.0260947663093" y="579.4996203122627" font-size="10" font-family="Consolas, monospace" fill="#000000" text-anchor="middle" dominant-baseline="central">DO_S7.E1</text>
<rect x="679.2260947663093" y="607.0" width="84.8" height="32" fill="#f5f5f5" stroke="#000000" stroke-width="2" rx="8" ry="8" />
<text x="721.6260947663093" y="623.0" font-size="12" fontWeight="bold" font-family="Verdana, sans-serif" fill="#000000" text-anchor="middle" dominant-baseline="central">sState_08</text>
<rect x="774.0260947663093" y="607.0" width="161" height="50" fill="#ffffff" stroke="#cccccc" stroke-width="1" rx="4" ry="4" />
<path d="M764.0260947663093,623.0 L774.0260947663093,618.0" stroke="#000000" stroke-width="2" />
<path d="M854.0260947663093,607.0 L854.0260947663093,657.0" stroke="#cccccc" stroke-width="1" />
<rect x="774.0260947663093" y="611.0" width="80" height="14" fill="#e6f7e6" stroke="#cccccc" stroke-width="0.5" />
<text x="814.0260947663093" y="619.0" font-size="10" font-family="Consolas, monospace" fill="#000000" text-anchor="middle" dominant-baseline="central">State_07_X</text>
<rect x="855.0260947663093" y="611.0" width="80" height="14" fill="#ffe6e6" stroke="#cccccc" stroke-width="0.5" />
<text x="895.0260947663093" y="619.0" font-size="10" font-family="Consolas, monospace" fill="#000000" text-anchor="middle" dominant-baseline="central">DO_S7.E1</text>
<path d="M774.0260947663093,625.0 L935.0260947663093,625.0" stroke="#cccccc" stroke-width="0.5" />
<rect x="774.0260947663093" y="625.0" width="80" height="14" fill="#e6f7e6" stroke="#cccccc" stroke-width="0.5" />
<text x="814.0260947663093" y="633.0" font-size="10" font-family="Consolas, monospace" fill="#000000" text-anchor="middle" dominant-baseline="central">State_08_C</text>
<rect x="855.0260947663093" y="625.0" width="80" height="14" fill="#ffe6e6" stroke="#cccccc" stroke-width="0.5" />
<text x="895.0260947663093" y="633.0" font-size="10" font-family="Consolas, monospace" fill="#000000" text-anchor="middle" dominant-baseline="central">CNF</text>
<path d="M774.0260947663093,639.0 L935.0260947663093,639.0" stroke="#cccccc" stroke-width="0.5" />
<rect x="774.0260947663093" y="639.0" width="80" height="14" fill="#e6f7e6" stroke="#cccccc" stroke-width="0.5" />
<text x="814.0260947663093" y="647.0" font-size="10" font-family="Consolas, monospace" fill="#000000" text-anchor="middle" dominant-baseline="central">State_08_E</text>
<rect x="855.0260947663093" y="639.0" width="80" height="14" fill="#ffe6e6" stroke="#cccccc" stroke-width="0.5" />
<text x="895.0260947663093" y="647.0" font-size="10" font-family="Consolas, monospace" fill="#000000" text-anchor="middle" dominant-baseline="central">DO_S8.E1</text>
<path d="M721.6260947663093,166.4993671871045 C721.6260947663093,173.59944312465194,721.6260947663093,194.89967093729433,721.6260947663093,201.99974687484178" stroke="#404040" stroke-width="1.2" fill="none" />
<path d="M721.6260947663093,201.99974687484178 L717.6260947663093,195.07154364456628 L725.6260947663093,195.07154364456628 L721.6260947663093,201.99974687484178" fill="#404040" stroke="#404040" stroke-width="1" />
<g transform="translate(721.6260947663093,184.24955703097314)">
<rect x="-20.25" y="-7.5" width="40.5" height="15" fill="#ffffff" opacity="0.9" rx="3" ry="3" />
<text x="0" y="3.5" font-size="10" font-family="Consolas, monospace" fill="#000000" text-anchor="middle" dominant-baseline="central">S1_S2</text>
</g>
<path d="M721.6260947663093,233.99974687484178 C721.6260947663093,241.09982281238925,721.6260947663093,262.40005062503167,721.6260947663093,269.5001265625791" stroke="#404040" stroke-width="1.2" fill="none" />
<path d="M721.6260947663093,269.5001265625791 L717.6260947663093,262.5719233323036 L725.6260947663093,262.5719233323036 L721.6260947663093,269.5001265625791" fill="#404040" stroke="#404040" stroke-width="1" />
<g transform="translate(721.6260947663093,251.74993671871044)">
<rect x="-20.25" y="-7.5" width="40.5" height="15" fill="#ffffff" opacity="0.9" rx="3" ry="3" />
<text x="0" y="3.5" font-size="10" font-family="Consolas, monospace" fill="#000000" text-anchor="middle" dominant-baseline="central">S2_S3</text>
</g>
<path d="M721.6260947663093,301.5001265625791 C721.6260947663093,308.6,721.6260947663093,329.89962031226264,721.6260947663093,336.99949374968355" stroke="#404040" stroke-width="1.2" fill="none" />
<path d="M721.6260947663093,336.99949374968355 L717.6260947663093,330.071290519408 L725.6260947663093,330.071290519408 L721.6260947663093,336.99949374968355" fill="#404040" stroke="#404040" stroke-width="1" />
<g transform="translate(721.6260947663093,319.24981015613133)">
<rect x="-20.25" y="-7.5" width="40.5" height="15" fill="#ffffff" opacity="0.9" rx="3" ry="3" />
<text x="0" y="3.5" font-size="10" font-family="Consolas, monospace" fill="#000000" text-anchor="middle" dominant-baseline="central">S3_S4</text>
</g>
<path d="M424.1252088282555,83.0 C541.9404531155909,83.0,714.1260947663093,16.68412289976905,714.1260947663093,134.4993671871045" stroke="#404040" stroke-width="1.2" fill="none" />
<path d="M714.1260947663093,134.4993671871045 L710.1260947663093,127.57116395682898 L718.1260947663093,127.57116395682898 L714.1260947663093,134.4993671871045" fill="#404040" stroke="#404040" stroke-width="1" />
<g transform="translate(613.3063684050331,64.56896698580147)">
<rect x="-30.0" y="-7.5" width="60.0" height="15" fill="#ffffff" opacity="0.9" rx="3" ry="3" />
<text x="0" y="3.5" font-size="10" font-family="Consolas, monospace" fill="#000000" text-anchor="middle" dominant-baseline="central">START_S1</text>
</g>
<path d="M679.2260947663093,150.4993671871045 C453.887443787597,150.4993671871045,349.1252088282555,378.7496835935523,349.1252088282555,607.0" stroke="#404040" stroke-width="1.2" fill="none" />
<path d="M349.1252088282555,607.0 L345.1252088282555,600.0717967697245 L353.1252088282555,600.0717967697245 L349.1252088282555,607.0" fill="#404040" stroke="#404040" stroke-width="1" />
<g transform="translate(429.6736576802653,293.1558149411344)">
<rect x="-20.25" y="-7.5" width="40.5" height="15" fill="#ffffff" opacity="0.9" rx="3" ry="3" />
<text x="0" y="3.5" font-size="10" font-family="Consolas, monospace" fill="#000000" text-anchor="middle" dominant-baseline="central">RESET</text>
</g>
<path d="M679.2260947663093,217.99974687484178 C477.7174749567283,217.99974687484178,359.1252088282555,405.491380190419,359.1252088282555,607.0" stroke="#404040" stroke-width="1.2" fill="none" />
<path d="M359.1252088282555,607.0 L355.1252088282555,600.0717967697245 L363.1252088282555,600.0717967697245 L359.1252088282555,607.0" fill="#404040" stroke="#404040" stroke-width="1" />
<g transform="translate(443.60991936868953,336.934141008828)">
<rect x="-20.25" y="-7.5" width="40.5" height="15" fill="#ffffff" opacity="0.9" rx="3" ry="3" />
<text x="0" y="3.5" font-size="10" font-family="Consolas, monospace" fill="#000000" text-anchor="middle" dominant-baseline="central">RESET</text>
</g>
<path d="M679.2260947663093,285.5001265625791 C500.5533310534956,285.5001265625791,369.1252088282555,428.3272362871863,369.1252088282555,607.0" stroke="#404040" stroke-width="1.2" fill="none" />
<path d="M369.1252088282555,607.0 L365.1252088282555,600.0717967697245 L373.1252088282555,600.0717967697245 L369.1252088282555,607.0" fill="#404040" stroke="#404040" stroke-width="1" />
<g transform="translate(457.17336540497723,379.2477768889844)">
<rect x="-20.25" y="-7.5" width="40.5" height="15" fill="#ffffff" opacity="0.9" rx="3" ry="3" />
<text x="0" y="3.5" font-size="10" font-family="Consolas, monospace" fill="#000000" text-anchor="middle" dominant-baseline="central">RESET</text>
</g>
<path d="M721.6260947663093,368.99949374968355 C721.6260947663093,376.099569687231,721.6260947663093,397.39979749987344,721.6260947663093,404.4998734374209" stroke="#404040" stroke-width="1.2" fill="none" />
<path d="M721.6260947663093,404.4998734374209 L717.6260947663093,397.57167020714536 L725.6260947663093,397.57167020714536 L721.6260947663093,404.4998734374209" fill="#404040" stroke="#404040" stroke-width="1" />
<g transform="translate(721.6260947663093,386.7496835935522)">
<rect x="-20.25" y="-7.5" width="40.5" height="15" fill="#ffffff" opacity="0.9" rx="3" ry="3" />
<text x="0" y="3.5" font-size="10" font-family="Consolas, monospace" fill="#000000" text-anchor="middle" dominant-baseline="central">S4_S5</text>
</g>
<path d="M679.2260947663093,352.99949374968355 C521.9610705982016,352.99949374968355,379.1252088282555,449.7349758318923,379.1252088282555,607.0" stroke="#404040" stroke-width="1.2" fill="none" />
<path d="M379.1252088282555,607.0 L375.1252088282555,600.0717967697245 L383.1252088282555,600.0717967697245 L379.1252088282555,607.0" fill="#404040" stroke="#404040" stroke-width="1" />
<g transform="translate(470.201267734242,421.0253628118014)">
<rect x="-20.25" y="-7.5" width="40.5" height="15" fill="#ffffff" opacity="0.9" rx="3" ry="3" />
<text x="0" y="3.5" font-size="10" font-family="Consolas, monospace" fill="#000000" text-anchor="middle" dominant-baseline="central">RESET</text>
</g>
<path d="M721.6260947663093,436.4998734374209 C721.6260947663093,443.59994937496833,721.6260947663093,464.9001771876107,721.6260947663093,472.00025312515817" stroke="#404040" stroke-width="1.2" fill="none" />
<path d="M721.6260947663093,472.00025312515817 L717.6260947663093,465.07204989488264 L725.6260947663093,465.07204989488264 L721.6260947663093,472.00025312515817" fill="#404040" stroke="#404040" stroke-width="1" />
<g transform="translate(721.6260947663093,454.2500632812895)">
<rect x="-20.25" y="-7.5" width="40.5" height="15" fill="#ffffff" opacity="0.9" rx="3" ry="3" />
<text x="0" y="3.5" font-size="10" font-family="Consolas, monospace" fill="#000000" text-anchor="middle" dominant-baseline="central">S5_S6</text>
</g>
<path d="M679.2260947663093,420.4998734374209 C541.2749026845288,420.4998734374209,389.1252088282555,469.04880791821955,389.1252088282555,607.0" stroke="#404040" stroke-width="1.2" fill="none" />
<path d="M389.1252088282555,607.0 L385.1252088282555,600.0717967697245 L393.1252088282555,600.0717967697245 L389.1252088282555,607.0" fill="#404040" stroke="#404040" stroke-width="1" />
<g transform="translate(482.4439547666147,462.01823968804274)">
<rect x="-20.25" y="-7.5" width="40.5" height="15" fill="#ffffff" opacity="0.9" rx="3" ry="3" />
<text x="0" y="3.5" font-size="10" font-family="Consolas, monospace" fill="#000000" text-anchor="middle" dominant-baseline="central">RESET</text>
</g>
<path d="M721.6260947663093,571.4996203122627 C721.6260947663093,578.5996962498101,721.6260947663093,599.8999240624526,721.6260947663093,607.0" stroke="#404040" stroke-width="1.2" fill="none" />
<path d="M721.6260947663093,607.0 L717.6260947663093,600.0717967697245 L725.6260947663093,600.0717967697245 L721.6260947663093,607.0" fill="#404040" stroke="#404040" stroke-width="1" />
<g transform="translate(721.6260947663093,589.2498101561314)">
<rect x="-20.25" y="-7.5" width="40.5" height="15" fill="#ffffff" opacity="0.9" rx="3" ry="3" />
<text x="0" y="3.5" font-size="10" font-family="Consolas, monospace" fill="#000000" text-anchor="middle" dominant-baseline="central">S7_S8</text>
</g>
<path d="M679.2260947663093,555.4996203122627 C565.3076710333494,555.4996203122627,399.1252088282555,493.08157626704013,399.1252088282555,607.0" stroke="#404040" stroke-width="1.2" fill="none" />
<path d="M399.1252088282555,607.0 L395.1252088282555,600.0717967697245 L403.1252088282555,600.0717967697245 L399.1252088282555,607.0" fill="#404040" stroke="#404040" stroke-width="1" />
<g transform="translate(496.45624289742244,538.5304012562714)">
<rect x="-20.25" y="-7.5" width="40.5" height="15" fill="#ffffff" opacity="0.9" rx="3" ry="3" />
<text x="0" y="3.5" font-size="10" font-family="Consolas, monospace" fill="#000000" text-anchor="middle" dominant-baseline="central">RESET</text>
</g>
<path d="M721.6260947663093,504.00025312515817 C721.6260947663093,511.1001265625791,721.6260947663093,532.3997468748418,721.6260947663093,539.4996203122627" stroke="#404040" stroke-width="1.2" fill="none" />
<path d="M721.6260947663093,539.4996203122627 L717.6260947663093,532.5714170819872 L725.6260947663093,532.5714170819872 L721.6260947663093,539.4996203122627" fill="#404040" stroke="#404040" stroke-width="1" />
<g transform="translate(721.6260947663093,521.7499367187104)">
<rect x="-20.25" y="-7.5" width="40.5" height="15" fill="#ffffff" opacity="0.9" rx="3" ry="3" />
<text x="0" y="3.5" font-size="10" font-family="Consolas, monospace" fill="#000000" text-anchor="middle" dominant-baseline="central">S6_S7</text>
</g>
<path d="M721.6260947663093,607.0 C861.6260947663093,567.0,869.1260947663093,206.4993671871045,729.1260947663093,166.4993671871045" stroke="#404040" stroke-width="1.2" fill="none" />
<path d="M729.1260947663093,166.4993671871045 L736.8866125979312,164.55659520226476 L734.6888435747521,172.24878678339132 L729.1260947663093,166.4993671871045" fill="#404040" stroke="#404040" stroke-width="1" />
<g transform="translate(830.3760947663093,386.7496835935522)">
<rect x="-20.25" y="-7.5" width="40.5" height="15" fill="#ffffff" opacity="0.9" rx="3" ry="3" />
<text x="0" y="3.5" font-size="10" font-family="Consolas, monospace" fill="#000000" text-anchor="middle" dominant-baseline="central">S8_S1</text>
</g>
<path d="M679.2260947663093,488.00025312515817 C561.1648033345801,488.00025312515817,409.1252088282555,488.93870856827084,409.1252088282555,607.0" stroke="#404040" stroke-width="1.2" fill="none" />
<path d="M409.1252088282555,607.0 L405.1252088282555,600.0717967697245 L413.1252088282555,600.0717967697245 L409.1252088282555,607.0" fill="#404040" stroke="#404040" stroke-width="1" />
<g transform="translate(499.902667510384,503.22714227568065)">
<rect x="-20.25" y="-7.5" width="40.5" height="15" fill="#ffffff" opacity="0.9" rx="3" ry="3" />
<text x="0" y="3.5" font-size="10" font-family="Consolas, monospace" fill="#000000" text-anchor="middle" dominant-baseline="central">RESET</text>
</g>
<path d="M384.1252088282555,607.0 C384.1252088282555,567.0,384.1252088282555,139.0,384.1252088282555,99.0" stroke="#404040" stroke-width="1.2" fill="none" />
<path d="M384.1252088282555,99.0 L388.1252088282555,105.92820323027551 L380.1252088282555,105.92820323027551 L384.1252088282555,99.0" fill="#404040" stroke="#404040" stroke-width="1" />
<g transform="translate(384.1252088282555,353.0)">
<rect x="-7.25" y="-7.5" width="14.5" height="15" fill="#ffffff" opacity="0.9" rx="3" ry="3" />
<text x="0" y="3.5" font-size="10" font-family="Consolas, monospace" fill="#000000" text-anchor="middle" dominant-baseline="central">1</text>
</g>
<path d="M679.2260947663093,623.0 C639.2260947663093,623.0,419.1252088282555,567.0,419.1252088282555,607.0" stroke="#404040" stroke-width="1.2" fill="none" />
<path d="M419.1252088282555,607.0 L415.1252088282555,600.0717967697245 L423.1252088282555,600.0717967697245 L419.1252088282555,607.0" fill="#404040" stroke="#404040" stroke-width="1" />
<g transform="translate(534.1756517972824,600.0)">
<rect x="-20.25" y="-7.5" width="40.5" height="15" fill="#ffffff" opacity="0.9" rx="3" ry="3" />
<text x="0" y="3.5" font-size="10" font-family="Consolas, monospace" fill="#000000" text-anchor="middle" dominant-baseline="central">RESET</text>
</g>
</svg>