<?xml version="1.0" encoding="UTF-8"?>
<svg xmlns="http://www.w3.org/2000/svg" xmlns:xlink="http://www.w3.org/1999/xlink"
     width="1318" height="639" viewBox="-540 -20 1318 639">
<defs>
</defs>
<rect x="3" y="3" width="230" height="589" fill="#000000" fill-opacity="0.1" rx="2" ry="2" />
<path d="M0,0 H230 V300 H224 V340 H230 V589 H0 V340 H6 V300 H0 Z" fill="#ffffff" stroke="#000000" stroke-width="2" />
<path d="M0,30 L230,30" stroke="#000000" stroke-width="1" />
<text x="115.0" y="318.0" font-size="14" fontWeight="bold" font-family="Verdana, sans-serif" font-style="italic" text-anchor="middle" dominant-baseline="central">sequence_E_08_AX_DM</text>
<text x="115.0" y="332.0" font-size="10" fill="#000" font-family="Consolas, monospace" text-anchor="middle" dominant-baseline="central">1.0</text>
<path d="M-5,37 L-5,47 L0,42 Z" fill="#63B31F" stroke="none" />
<text x="12" y="46" font-size="12" text-anchor="start" font-family="Consolas, monospace">START_S1</text>
<text x="-15" y="45" font-size="11" text-anchor="end" fill="#888" font-style="italic" font-family="Verdana, sans-serif">Event</text>
<text x="-112" y="45" font-size="11" text-anchor="end" fill="#666666" font-family="Verdana, sans-serif">jump from START to State_01</text>
<path d="M-5,63 L-5,73 L0,68 Z" fill="#63B31F" stroke="none" />
<text x="12" y="72" font-size="12" text-anchor="start" font-family="Consolas, monospace">S1_S2</text>
<text x="-15" y="71" font-size="11" text-anchor="end" fill="#888" font-style="italic" font-family="Verdana, sans-serif">Event</text>
<text x="-112" y="71" font-size="11" text-anchor="end" fill="#666666" font-family="Verdana, sans-serif">jump from State_01 to State_02</text>
<path d="M-5,89 L-5,99 L0,94 Z" fill="#63B31F" stroke="none" />
<text x="12" y="98" font-size="12" text-anchor="start" font-family="Consolas, monospace">S2_S3</text>
<text x="-15" y="97" font-size="11" text-anchor="end" fill="#888" font-style="italic" font-family="Verdana, sans-serif">Event</text>
<text x="-112" y="97" font-size="11" text-anchor="end" fill="#666666" font-family="Verdana, sans-serif">jump from State_02 to State_03</text>
<path d="M-5,115 L-5,125 L0,120 Z" fill="#63B31F" stroke="none" />
<text x="12" y="124" font-size="12" text-anchor="start" font-family="Consolas, monospace">S3_S4</text>
<text x="-15" y="123" font-size="11" text-anchor="end" fill="#888" font-style="italic" font-family="Verdana, sans-serif">Event</text>
<text x="-112" y="123" font-size="11" text-anchor="end" fill="#666666" font-family="Verdana, sans-serif">jump from State_03 to State_04</text>
<path d="M-5,141 L-5,151 L0,146 Z" fill="#63B31F" stroke="none" />
<text x="12" y="150" font-size="12" text-anchor="start" font-family="Consolas, monospace">S4_S5</text>
<text x="-15" y="149" font-size="11" text-anchor="end" fill="#888" font-style="italic" font-family="Verdana, sans-serif">Event</text>
<text x="-112" y="149" font-size="11" text-anchor="end" fill="#666666" font-family="Verdana, sans-serif">jump from State_04 to State_05</text>
<path d="M-5,167 L-5,177 L0,172 Z" fill="#63B31F" stroke="none" />
<text x="12" y="176" font-size="12" text-anchor="start" font-family="Consolas, monospace">S5_S6</text>
<text x="-15" y="175" font-size="11" text-anchor="end" fill="#888" font-style="italic" font-family="Verdana, sans-serif">Event</text>
<text x="-112" y="175" font-size="11" text-anchor="end" fill="#666666" font-family="Verdana, sans-serif">jump from State_05 to State_06</text>
<path d="M-5,193 L-5,203 L0,198 Z" fill="#63B31F" stroke="none" />
<text x="12" y="202" font-size="12" text-anchor="start" font-family="Consolas, monospace">S6_S7</text>
<text x="-15" y="201" font-size="11" text-anchor="end" fill="#888" font-style="italic" font-family="Verdana, sans-serif">Event</text>
<text x="-112" y="201" font-size="11" text-anchor="end" fill="#666666" font-family="Verdana, sans-serif">jump from State_06 to State_07</text>
<path d="M-5,219 L-5,229 L0,224 Z" fill="#63B31F" stroke="none" />
<text x="12" y="228" font-size="12" text-anchor="start" font-family="Consolas, monospace">S7_S8</text>
<text x="-15" y="227" font-size="11" text-anchor="end" fill="#888" font-style="italic" font-family="Verdana, sans-serif">Event</text>
<text x="-112" y="227" font-size="11" text-anchor="end" fill="#666666" font-family="Verdana, sans-serif">jump from State_07 to State_08</text>
<path d="M-5,245 L-5,255 L0,250 Z" fill="#63B31F" stroke="none" />
<text x="12" y="254" font-size="12" text-anchor="start" font-family="Consolas, monospace">S8_START</text>
<text x="-15" y="253" font-size="11" text-anchor="end" fill="#888" font-style="italic" font-family="Verdana, sans-serif">Event</text>
<text x="-112" y="253" font-size="11" text-anchor="end" fill="#666666" font-family="Verdana, sans-serif">jump from State_08 to START</text>
<path d="M-5,271 L-5,281 L0,276 Z" fill="#63B31F" stroke="none" />
<text x="12" y="280" font-size="12" text-anchor="start" font-family="Consolas, monospace">RESET</text>
<text x="-15" y="279" font-size="11" text-anchor="end" fill="#888" font-style="italic" font-family="Verdana, sans-serif">Event</text>
<text x="-112" y="279" font-size="11" text-anchor="end" fill="#666666" font-family="Verdana, sans-serif">Reset from any State to START</text>
<rect x="-5.0" y="352.0" width="10" height="10" fill="white" stroke="#845DAF" stroke-width="2.5" />
<text x="12" y="361" font-size="12" text-anchor="start" font-family="Consolas, monospace">DM</text>
<text x="-15" y="360" font-size="11" text-anchor="end" fill="#000" font-style="italic" font-family="Verdana, sans-serif">AX</text>
<text x="-112" y="360" font-size="11" text-anchor="end" fill="#666666" font-family="Verdana, sans-serif">Dead mans Switch</text>
<path d="M230,37 L230,47 L235,42 Z" fill="#63B31F" stroke="none" />
<text x="218" y="46" font-size="12" text-anchor="end" font-family="Consolas, monospace">CNF</text>
<text x="253" y="45" font-size="11" text-anchor="start" fill="#888" font-style="italic" font-family="Verdana, sans-serif">Event</text>
<text x="323" y="45" font-size="11" text-anchor="start" fill="#666666" font-family="Verdana, sans-serif">Execution Confirmation</text>
<rect x="225.0" y="352.0" width="10" height="10" fill="#845DAF" stroke="none" />
<text x="218" y="361" font-size="12" text-anchor="end" font-family="Consolas, monospace">DO_S1</text>
<text x="253" y="360" font-size="11" text-anchor="start" fill="#000" font-style="italic" font-family="Verdana, sans-serif">AX</text>
<text x="323" y="360" font-size="11" text-anchor="start" fill="#666666" font-family="Verdana, sans-serif">Output if State_01 is active</text>
<rect x="225.0" y="378.0" width="10" height="10" fill="#845DAF" stroke="none" />
<text x="218" y="387" font-size="12" text-anchor="end" font-family="Consolas, monospace">DO_S2</text>
<text x="253" y="386" font-size="11" text-anchor="start" fill="#000" font-style="italic" font-family="Verdana, sans-serif">AX</text>
<text x="323" y="386" font-size="11" text-anchor="start" fill="#666666" font-family="Verdana, sans-serif">Output if State_02 is active</text>
<rect x="225.0" y="404.0" width="10" height="10" fill="#845DAF" stroke="none" />
<text x="218" y="413" font-size="12" text-anchor="end" font-family="Consolas, monospace">DO_S3</text>
<text x="253" y="412" font-size="11" text-anchor="start" fill="#000" font-style="italic" font-family="Verdana, sans-serif">AX</text>
<text x="323" y="412" font-size="11" text-anchor="start" fill="#666666" font-family="Verdana, sans-serif">Output if State_03 is active</text>
<rect x="225.0" y="430.0" width="10" height="10" fill="#845DAF" stroke="none" />
<text x="218" y="439" font-size="12" text-anchor="end" font-family="Consolas, monospace">DO_S4</text>
<text x="253" y="438" font-size="11" text-anchor="start" fill="#000" font-style="italic" font-family="Verdana, sans-serif">AX</text>
<text x="323" y="438" font-size="11" text-anchor="start" fill="#666666" font-family="Verdana, sans-serif">Output if State_04 is active</text>
<rect x="225.0" y="456.0" width="10" height="10" fill="#845DAF" stroke="none" />
<text x="218" y="465" font-size="12" text-anchor="end" font-family="Consolas, monospace">DO_S5</text>
<text x="253" y="464" font-size="11" text-anchor="start" fill="#000" font-style="italic" font-family="Verdana, sans-serif">AX</text>
<text x="323" y="464" font-size="11" text-anchor="start" fill="#666666" font-family="Verdana, sans-serif">Output if State_05 is active</text>
<rect x="225.0" y="482.0" width="10" height="10" fill="#845DAF" stroke="none" />
<text x="218" y="491" font-size="12" text-anchor="end" font-family="Consolas, monospace">DO_S6</text>
<text x="253" y="490" font-size="11" text-anchor="start" fill="#000" font-style="italic" font-family="Verdana, sans-serif">AX</text>
<text x="323" y="490" font-size="11" text-anchor="start" fill="#666666" font-family="Verdana, sans-serif">Output if State_06 is active</text>
<rect x="225.0" y="508.0" width="10" height="10" fill="#845DAF" stroke="none" />
<text x="218" y="517" font-size="12" text-anchor="end" font-family="Consolas, monospace">DO_S7</text>
<text x="253" y="516" font-size="11" text-anchor="start" fill="#000" font-style="italic" font-family="Verdana, sans-serif">AX</text>
<text x="323" y="516" font-size="11" text-anchor="start" fill="#666666" font-family="Verdana, sans-serif">Output if State_07 is active</text>
<rect x="225.0" y="534.0" width="10" height="10" fill="#845DAF" stroke="none" />
<text x="218" y="543" font-size="12" text-anchor="end" font-family="Consolas, monospace">DO_S8</text>
<text x="253" y="542" font-size="11" text-anchor="start" fill="#000" font-style="italic" font-family="Verdana, sans-serif">AX</text>
<text x="323" y="542" font-size="11" text-anchor="start" fill="#666666" font-family="Verdana, sans-serif">Output if State_08 is active</text>
<path d="M230,560 L230,570 L235,565 Z" fill="#18519E" stroke="none" />
<text x="218" y="569" font-size="12" text-anchor="end" font-family="Consolas, monospace">STATE_NR</text>
<text x="253" y="568" font-size="11" text-anchor="start" fill="#18519E" font-style="italic" font-family="Verdana, sans-serif">SINT</text>
<text x="323" y="568" font-size="11" text-anchor="start" fill="#666666" font-family="Verdana, sans-serif">State Number, START = 0, State_01 = 1 and so on. </text>
<path d="M242,42 L242,565" stroke="#404040" stroke-width="1" />
<path d="M230,42 L242,42" stroke="#404040" />
<rect x="240" y="40" width="4" height="4" fill="white" stroke="black" stroke-width="1" />
<path d="M242,565 L235,565" stroke="#404040" />
<rect x="240" y="563" width="4" height="4" fill="white" stroke="black" stroke-width="1" />
</svg>