<?xml version="1.0" encoding="UTF-8"?>
<svg xmlns="http://www.w3.org/2000/svg" xmlns:xlink="http://www.w3.org/1999/xlink"
     width="1200" height="800" viewBox="0 0 1200 800">
<defs>
</defs>
<rect x="0" y="0" width="1200" height="800" fill="#ffffff" />
<text x="600" y="25" font-size="14" fontWeight="bold" font-family="Verdana, sans-serif" fill="#000000" text-anchor="middle" dominant-baseline="central">ECC: sequence_E_04_loop</text>
<rect x="25.308621929437976" y="444.58815615504164" width="80" height="32" fill="#f5f5f5" stroke="#000000" stroke-width="2" rx="8" ry="8" />
<text x="65.30862192943798" y="460.58815615504164" font-size="12" fontWeight="bold" font-family="Verdana, sans-serif" fill="#000000" text-anchor="middle" dominant-baseline="central">sRESET</text>
<rect x="115.30862192943798" y="444.58815615504164" width="161" height="78" fill="#ffffff" stroke="#cccccc" stroke-width="1" rx="4" ry="4" />
<path d="M105.30862192943798,460.58815615504164 L115.30862192943798,455.58815615504164" stroke="#000000" stroke-width="2" />
<path d="M195.30862192943798,444.58815615504164 L195.30862192943798,522.5881561550416" stroke="#cccccc" stroke-width="1" />
<rect x="115.30862192943798" y="448.58815615504164" width="80" height="14" fill="#e6f7e6" stroke="#cccccc" stroke-width="0.5" />
<text x="155.30862192943798" y="456.58815615504164" font-size="10" font-family="Consolas, monospace" fill="#000000" text-anchor="middle" dominant-baseline="central">State_01_X</text>
<rect x="196.30862192943798" y="448.58815615504164" width="80" height="14" fill="#ffe6e6" stroke="#cccccc" stroke-width="0.5" />
<text x="236.30862192943798" y="456.58815615504164" font-size="10" font-family="Consolas, monospace" fill="#000000" text-anchor="middle" dominant-baseline="central">EO_S1</text>
<path d="M115.30862192943798,462.58815615504164 L276.308621929438,462.58815615504164" stroke="#cccccc" stroke-width="0.5" />
<rect x="115.30862192943798" y="462.58815615504164" width="80" height="14" fill="#e6f7e6" stroke="#cccccc" stroke-width="0.5" />
<text x="155.30862192943798" y="470.58815615504164" font-size="10" font-family="Consolas, monospace" fill="#000000" text-anchor="middle" dominant-baseline="central">State_02_X</text>
<rect x="196.30862192943798" y="462.58815615504164" width="80" height="14" fill="#ffe6e6" stroke="#cccccc" stroke-width="0.5" />
<text x="236.30862192943798" y="470.58815615504164" font-size="10" font-family="Consolas, monospace" fill="#000000" text-anchor="middle" dominant-baseline="central">EO_S2</text>
<path d="M115.30862192943798,476.58815615504164 L276.308621929438,476.58815615504164" stroke="#cccccc" stroke-width="0.5" />
<rect x="115.30862192943798" y="476.58815615504164" width="80" height="14" fill="#e6f7e6" stroke="#cccccc" stroke-width="0.5" />
<text x="155.30862192943798" y="484.58815615504164" font-size="10" font-family="Consolas, monospace" fill="#000000" text-anchor="middle" dominant-baseline="central">State_03_X</text>
<rect x="196.30862192943798" y="476.58815615504164" width="80" height="14" fill="#ffe6e6" stroke="#cccccc" stroke-width="0.5" />
<text x="236.30862192943798" y="484.58815615504164" font-size="10" font-family="Consolas, monospace" fill="#000000" text-anchor="middle" dominant-baseline="central">EO_S3</text>
<path d="M115.30862192943798,490.58815615504164 L276.308621929438,490.58815615504164" stroke="#cccccc" stroke-width="0.5" />
<rect x="115.30862192943798" y="490.58815615504164" width="80" height="14" fill="#e6f7e6" stroke="#cccccc" stroke-width="0.5" />
<text x="155.30862192943798" y="498.58815615504164" font-size="10" font-family="Consolas, monospace" fill="#000000" text-anchor="middle" dominant-baseline="central">State_04_X</text>
<rect x="196.30862192943798" y="490.58815615504164" width="80" height="14" fill="#ffe6e6" stroke="#cccccc" stroke-width="0.5" />
<text x="236.30862192943798" y="498.58815615504164" font-size="10" font-family="Consolas, monospace" fill="#000000" text-anchor="middle" dominant-baseline="central">EO_S4</text>
<path d="M115.30862192943798,504.58815615504164 L276.308621929438,504.58815615504164" stroke="#cccccc" stroke-width="0.5" />
<rect x="115.30862192943798" y="504.58815615504164" width="80" height="14" fill="#e6f7e6" stroke="#cccccc" stroke-width="0.5" />
<text x="155.30862192943798" y="512.5881561550416" font-size="10" font-family="Consolas, monospace" fill="#000000" text-anchor="middle" dominant-baseline="central">State_00_C</text>
<rect x="196.30862192943798" y="504.58815615504164" width="80" height="14" fill="#ffe6e6" stroke="#cccccc" stroke-width="0.5" />
<text x="236.30862192943798" y="512.5881561550416" font-size="10" font-family="Consolas, monospace" fill="#000000" text-anchor="middle" dominant-baseline="central">CNF</text>
<rect x="331.4956739579226" y="110.56667671823897" width="80" height="32" fill="#f5f5f5" stroke="#000000" stroke-width="2" rx="8" ry="8" />
<text x="371.4956739579226" y="126.56667671823897" font-size="12" fontWeight="bold" font-family="Verdana, sans-serif" fill="#000000" text-anchor="middle" dominant-baseline="central">xSTART</text>
<rect x="718.7880958456079" y="221.9064739857577" width="84.8" height="32" fill="#f5f5f5" stroke="#000000" stroke-width="2" rx="8" ry="8" />
<text x="761.1880958456079" y="237.9064739857577" font-size="12" fontWeight="bold" font-family="Verdana, sans-serif" fill="#000000" text-anchor="middle" dominant-baseline="central">sState_01</text>
<rect x="813.5880958456079" y="221.9064739857577" width="161" height="50" fill="#ffffff" stroke="#cccccc" stroke-width="1" rx="4" ry="4" />
<path d="M803.5880958456079,237.9064739857577 L813.5880958456079,232.9064739857577" stroke="#000000" stroke-width="2" />
<path d="M893.5880958456079,221.9064739857577 L893.5880958456079,271.9064739857577" stroke="#cccccc" stroke-width="1" />
<rect x="813.5880958456079" y="225.9064739857577" width="80" height="14" fill="#e6f7e6" stroke="#cccccc" stroke-width="0.5" />
<text x="853.5880958456079" y="233.9064739857577" font-size="10" font-family="Consolas, monospace" fill="#000000" text-anchor="middle" dominant-baseline="central">State_04_X</text>
<rect x="894.5880958456079" y="225.9064739857577" width="80" height="14" fill="#ffe6e6" stroke="#cccccc" stroke-width="0.5" />
<text x="934.5880958456079" y="233.9064739857577" font-size="10" font-family="Consolas, monospace" fill="#000000" text-anchor="middle" dominant-baseline="central">EO_S4</text>
<path d="M813.5880958456079,239.9064739857577 L974.5880958456079,239.9064739857577" stroke="#cccccc" stroke-width="0.5" />
<rect x="813.5880958456079" y="239.9064739857577" width="80" height="14" fill="#e6f7e6" stroke="#cccccc" stroke-width="0.5" />
<text x="853.5880958456079" y="247.9064739857577" font-size="10" font-family="Consolas, monospace" fill="#000000" text-anchor="middle" dominant-baseline="central">State_01_C</text>
<rect x="894.5880958456079" y="239.9064739857577" width="80" height="14" fill="#ffe6e6" stroke="#cccccc" stroke-width="0.5" />
<text x="934.5880958456079" y="247.9064739857577" font-size="10" font-family="Consolas, monospace" fill="#000000" text-anchor="middle" dominant-baseline="central">CNF</text>
<path d="M813.5880958456079,253.9064739857577 L974.5880958456079,253.9064739857577" stroke="#cccccc" stroke-width="0.5" />
<rect x="813.5880958456079" y="253.9064739857577" width="80" height="14" fill="#e6f7e6" stroke="#cccccc" stroke-width="0.5" />
<text x="853.5880958456079" y="261.9064739857577" font-size="10" font-family="Consolas, monospace" fill="#000000" text-anchor="middle" dominant-baseline="central">State_01_E</text>
<rect x="894.5880958456079" y="253.9064739857577" width="80" height="14" fill="#ffe6e6" stroke="#cccccc" stroke-width="0.5" />
<text x="934.5880958456079" y="261.9064739857577" font-size="10" font-family="Consolas, monospace" fill="#000000" text-anchor="middle" dominant-baseline="central">EO_S1</text>
<rect x="718.7880958456079" y="361.08278629584095" width="84.8" height="32" fill="#f5f5f5" stroke="#000000" stroke-width="2" rx="8" ry="8" />
<text x="761.1880958456079" y="377.08278629584095" font-size="12" fontWeight="bold" font-family="Verdana, sans-serif" fill="#000000" text-anchor="middle" dominant-baseline="central">sState_02</text>
<rect x="813.5880958456079" y="361.08278629584095" width="161" height="50" fill="#ffffff" stroke="#cccccc" stroke-width="1" rx="4" ry="4" />
<path d="M803.5880958456079,377.08278629584095 L813.5880958456079,372.08278629584095" stroke="#000000" stroke-width="2" />
<path d="M893.5880958456079,361.08278629584095 L893.5880958456079,411.08278629584095" stroke="#cccccc" stroke-width="1" />
<rect x="813.5880958456079" y="365.08278629584095" width="80" height="14" fill="#e6f7e6" stroke="#cccccc" stroke-width="0.5" />
<text x="853.5880958456079" y="373.08278629584095" font-size="10" font-family="Consolas, monospace" fill="#000000" text-anchor="middle" dominant-baseline="central">State_01_X</text>
<rect x="894.5880958456079" y="365.08278629584095" width="80" height="14" fill="#ffe6e6" stroke="#cccccc" stroke-width="0.5" />
<text x="934.5880958456079" y="373.08278629584095" font-size="10" font-family="Consolas, monospace" fill="#000000" text-anchor="middle" dominant-baseline="central">EO_S1</text>
<path d="M813.5880958456079,379.08278629584095 L974.5880958456079,379.08278629584095" stroke="#cccccc" stroke-width="0.5" />
<rect x="813.5880958456079" y="379.08278629584095" width="80" height="14" fill="#e6f7e6" stroke="#cccccc" stroke-width="0.5" />
<text x="853.5880958456079" y="387.08278629584095" font-size="10" font-family="Consolas, monospace" fill="#000000" text-anchor="middle" dominant-baseline="central">State_02_C</text>
<rect x="894.5880958456079" y="379.08278629584095" width="80" height="14" fill="#ffe6e6" stroke="#cccccc" stroke-width="0.5" />
<text x="934.5880958456079" y="387.08278629584095" font-size="10" font-family="Consolas, monospace" fill="#000000" text-anchor="middle" dominant-baseline="central">CNF</text>
<path d="M813.5880958456079,393.08278629584095 L974.5880958456079,393.08278629584095" stroke="#cccccc" stroke-width="0.5" />
<rect x="813.5880958456079" y="393.08278629584095" width="80" height="14" fill="#e6f7e6" stroke="#cccccc" stroke-width="0.5" />
<text x="853.5880958456079" y="401.08278629584095" font-size="10" font-family="Consolas, monospace" fill="#000000" text-anchor="middle" dominant-baseline="central">State_02_E</text>
<rect x="894.5880958456079" y="393.08278629584095" width="80" height="14" fill="#ffe6e6" stroke="#cccccc" stroke-width="0.5" />
<text x="934.5880958456079" y="401.08278629584095" font-size="10" font-family="Consolas, monospace" fill="#000000" text-anchor="middle" dominant-baseline="central">EO_S2</text>
<rect x="718.7880958456079" y="500.25909860592424" width="84.8" height="32" fill="#f5f5f5" stroke="#000000" stroke-width="2" rx="8" ry="8" />
<text x="761.1880958456079" y="516.2590986059242" font-size="12" fontWeight="bold" font-family="Verdana, sans-serif" fill="#000000" text-anchor="middle" dominant-baseline="central">sState_03</text>
<rect x="813.5880958456079" y="500.2590986059243" width="161" height="50" fill="#ffffff" stroke="#cccccc" stroke-width="1" rx="4" ry="4" />
<path d="M803.5880958456079,516.2590986059242 L813.5880958456079,511.2590986059243" stroke="#000000" stroke-width="2" />
<path d="M893.5880958456079,500.2590986059243 L893.5880958456079,550.2590986059242" stroke="#cccccc" stroke-width="1" />
<rect x="813.5880958456079" y="504.2590986059243" width="80" height="14" fill="#e6f7e6" stroke="#cccccc" stroke-width="0.5" />
<text x="853.5880958456079" y="512.2590986059242" font-size="10" font-family="Consolas, monospace" fill="#000000" text-anchor="middle" dominant-baseline="central">State_02_X</text>
<rect x="894.5880958456079" y="504.2590986059243" width="80" height="14" fill="#ffe6e6" stroke="#cccccc" stroke-width="0.5" />
<text x="934.5880958456079" y="512.2590986059242" font-size="10" font-family="Consolas, monospace" fill="#000000" text-anchor="middle" dominant-baseline="central">EO_S2</text>
<path d="M813.5880958456079,518.2590986059242 L974.5880958456079,518.2590986059242" stroke="#cccccc" stroke-width="0.5" />
<rect x="813.5880958456079" y="518.2590986059242" width="80" height="14" fill="#e6f7e6" stroke="#cccccc" stroke-width="0.5" />
<text x="853.5880958456079" y="526.2590986059242" font-size="10" font-family="Consolas, monospace" fill="#000000" text-anchor="middle" dominant-baseline="central">State_03_C</text>
<rect x="894.5880958456079" y="518.2590986059242" width="80" height="14" fill="#ffe6e6" stroke="#cccccc" stroke-width="0.5" />
<text x="934.5880958456079" y="526.2590986059242" font-size="10" font-family="Consolas, monospace" fill="#000000" text-anchor="middle" dominant-baseline="central">CNF</text>
<path d="M813.5880958456079,532.2590986059242 L974.5880958456079,532.2590986059242" stroke="#cccccc" stroke-width="0.5" />
<rect x="813.5880958456079" y="532.2590986059242" width="80" height="14" fill="#e6f7e6" stroke="#cccccc" stroke-width="0.5" />
<text x="853.5880958456079" y="540.2590986059242" font-size="10" font-family="Consolas, monospace" fill="#000000" text-anchor="middle" dominant-baseline="central">State_03_E</text>
<rect x="894.5880958456079" y="532.2590986059242" width="80" height="14" fill="#ffe6e6" stroke="#cccccc" stroke-width="0.5" />
<text x="934.5880958456079" y="540.2590986059242" font-size="10" font-family="Consolas, monospace" fill="#000000" text-anchor="middle" dominant-baseline="central">EO_S3</text>
<rect x="718.7880958456079" y="639.433323281761" width="84.8" height="32" fill="#f5f5f5" stroke="#000000" stroke-width="2" rx="8" ry="8" />
<text x="761.1880958456079" y="655.433323281761" font-size="12" fontWeight="bold" font-family="Verdana, sans-serif" fill="#000000" text-anchor="middle" dominant-baseline="central">sState_04</text>
<rect x="813.5880958456079" y="639.433323281761" width="161" height="50" fill="#ffffff" stroke="#cccccc" stroke-width="1" rx="4" ry="4" />
<path d="M803.5880958456079,655.433323281761 L813.5880958456079,650.433323281761" stroke="#000000" stroke-width="2" />
<path d="M893.5880958456079,639.433323281761 L893.5880958456079,689.433323281761" stroke="#cccccc" stroke-width="1" />
<rect x="813.5880958456079" y="643.433323281761" width="80" height="14" fill="#e6f7e6" stroke="#cccccc" stroke-width="0.5" />
<text x="853.5880958456079" y="651.433323281761" font-size="10" font-family="Consolas, monospace" fill="#000000" text-anchor="middle" dominant-baseline="central">State_03_X</text>
<rect x="894.5880958456079" y="643.433323281761" width="80" height="14" fill="#ffe6e6" stroke="#cccccc" stroke-width="0.5" />
<text x="934.5880958456079" y="651.433323281761" font-size="10" font-family="Consolas, monospace" fill="#000000" text-anchor="middle" dominant-baseline="central">EO_S3</text>
<path d="M813.5880958456079,657.433323281761 L974.5880958456079,657.433323281761" stroke="#cccccc" stroke-width="0.5" />
<rect x="813.5880958456079" y="657.433323281761" width="80" height="14" fill="#e6f7e6" stroke="#cccccc" stroke-width="0.5" />
<text x="853.5880958456079" y="665.433323281761" font-size="10" font-family="Consolas, monospace" fill="#000000" text-anchor="middle" dominant-baseline="central">State_04_C</text>
<rect x="894.5880958456079" y="657.433323281761" width="80" height="14" fill="#ffe6e6" stroke="#cccccc" stroke-width="0.5" />
<text x="934.5880958456079" y="665.433323281761" font-size="10" font-family="Consolas, monospace" fill="#000000" text-anchor="middle" dominant-baseline="central">CNF</text>
<path d="M813.5880958456079,671.433323281761 L974.5880958456079,671.433323281761" stroke="#cccccc" stroke-width="0.5" />
<rect x="813.5880958456079" y="671.433323281761" width="80" height="14" fill="#e6f7e6" stroke="#cccccc" stroke-width="0.5" />
<text x="853.5880958456079" y="679.433323281761" font-size="10" font-family="Consolas, monospace" fill="#000000" text-anchor="middle" dominant-baseline="central">State_04_E</text>
<rect x="894.5880958456079" y="671.433323281761" width="80" height="14" fill="#ffe6e6" stroke="#cccccc" stroke-width="0.5" />
<text x="934.5880958456079" y="679.433323281761" font-size="10" font-family="Consolas, monospace" fill="#000000" text-anchor="middle" dominant-baseline="central">EO_S4</text>
<path d="M761.1880958456079,253.9064739857577 C761.1880958456079,275.34173644777434,761.1880958456079,339.6475238338243,761.1880958456079,361.08278629584095" stroke="#404040" stroke-width="1.2" fill="none" />
<path d="M761.1880958456079,361.08278629584095 L757.1880958456079,354.1545830655654 L765.1880958456079,354.1545830655654 L761.1880958456079,361.08278629584095" fill="#404040" stroke="#404040" stroke-width="1" />
<g transform="translate(761.1880958456079,307.4946301407993)">
<rect x="-20.25" y="-7.5" width="40.5" height="15" fill="#ffffff" opacity="0.9" rx="3" ry="3" />
<text x="0" y="3.5" font-size="10" font-family="Consolas, monospace" fill="#000000" text-anchor="middle" dominant-baseline="central">S1_S2</text>
</g>
<path d="M761.1880958456079,393.08278629584095 C761.1880958456079,414.5180487578576,761.1880958456079,478.82383614390756,761.1880958456079,500.25909860592424" stroke="#404040" stroke-width="1.2" fill="none" />
<path d="M761.1880958456079,500.25909860592424 L757.1880958456079,493.3308953756487 L765.1880958456079,493.3308953756487 L761.1880958456079,500.25909860592424" fill="#404040" stroke="#404040" stroke-width="1" />
<g transform="translate(761.1880958456079,446.67094245088254)">
<rect x="-20.25" y="-7.5" width="40.5" height="15" fill="#ffffff" opacity="0.9" rx="3" ry="3" />
<text x="0" y="3.5" font-size="10" font-family="Consolas, monospace" fill="#000000" text-anchor="middle" dominant-baseline="central">S2_S3</text>
</g>
<path d="M761.1880958456079,532.2590986059242 C761.1880958456079,553.6939435410916,761.1880958456079,617.9984783465936,761.1880958456079,639.433323281761" stroke="#404040" stroke-width="1.2" fill="none" />
<path d="M761.1880958456079,639.433323281761 L757.1880958456079,632.5051200514855 L765.1880958456079,632.5051200514855 L761.1880958456079,639.433323281761" fill="#404040" stroke="#404040" stroke-width="1" />
<g transform="translate(761.1880958456079,585.8462109438426)">
<rect x="-20.25" y="-7.5" width="40.5" height="15" fill="#ffffff" opacity="0.9" rx="3" ry="3" />
<text x="0" y="3.5" font-size="10" font-family="Consolas, monospace" fill="#000000" text-anchor="middle" dominant-baseline="central">S3_S4</text>
</g>
<path d="M411.4956739579226,126.56667671823897 C553.5859723123824,126.56667671823897,753.6880958456079,79.81617563129794,753.6880958456079,221.9064739857577" stroke="#404040" stroke-width="1.2" fill="none" />
<path d="M753.6880958456079,221.9064739857577 L749.6880958456079,214.9782707554822 L757.6880958456079,214.9782707554822 L753.6880958456079,221.9064739857577" fill="#404040" stroke="#404040" stroke-width="1" />
<g transform="translate(635.8757467846876,120.95271346907592)">
<rect x="-30.0" y="-7.5" width="60.0" height="15" fill="#ffffff" opacity="0.9" rx="3" ry="3" />
<text x="0" y="3.5" font-size="10" font-family="Consolas, monospace" fill="#000000" text-anchor="middle" dominant-baseline="central">START_S1</text>
</g>
<path d="M718.7880958456079,237.9064739857577 C436.0399911586815,237.9064739857577,42.808621929437976,161.84005146811523,42.808621929437976,444.58815615504164" stroke="#404040" stroke-width="1.2" fill="none" />
<path d="M42.808621929437976,444.58815615504164 L38.808621929437976,437.6599529247661 L46.808621929437976,437.6599529247661 L42.808621929437976,444.58815615504164" fill="#404040" stroke="#404040" stroke-width="1" />
<g transform="translate(274.7678196299255,235.21677581280227)">
<rect x="-20.25" y="-7.5" width="40.5" height="15" fill="#ffffff" opacity="0.9" rx="3" ry="3" />
<text x="0" y="3.5" font-size="10" font-family="Consolas, monospace" fill="#000000" text-anchor="middle" dominant-baseline="central">RESET</text>
</g>
<path d="M718.7880958456079,655.433323281761 C444.8890023843609,655.433323281761,57.808621929437976,750.4872496162886,57.808621929437976,476.58815615504164" stroke="#404040" stroke-width="1.2" fill="none" />
<path d="M57.808621929437976,476.58815615504164 L61.808621929437976,483.5163593853172 L53.808621929437976,483.5163593853172 L57.808621929437976,476.58815615504164" fill="#404040" stroke="#404040" stroke-width="1" />
<g transform="translate(285.58619883955527,668.7228997663689)">
<rect x="-20.25" y="-7.5" width="40.5" height="15" fill="#ffffff" opacity="0.9" rx="3" ry="3" />
<text x="0" y="3.5" font-size="10" font-family="Consolas, monospace" fill="#000000" text-anchor="middle" dominant-baseline="central">RESET</text>
</g>
<path d="M718.7880958456079,377.08278629584095 C458.98926422980895,377.08278629584095,72.80862192943798,184.78932453924267,72.80862192943798,444.58815615504164" stroke="#404040" stroke-width="1.2" fill="none" />
<path d="M72.80862192943798,444.58815615504164 L68.80862192943798,437.6599529247661 L76.80862192943798,437.6599529247661 L72.80862192943798,444.58815615504164" fill="#404040" stroke="#404040" stroke-width="1" />
<g transform="translate(298.3737970315983,313.4109093695167)">
<rect x="-20.25" y="-7.5" width="40.5" height="15" fill="#ffffff" opacity="0.9" rx="3" ry="3" />
<text x="0" y="3.5" font-size="10" font-family="Consolas, monospace" fill="#000000" text-anchor="middle" dominant-baseline="central">RESET</text>
</g>
<path d="M718.7880958456079,516.2590986059242 C465.89795995937993,516.2590986059242,87.80862192943798,729.4782920412697,87.80862192943798,476.58815615504164" stroke="#404040" stroke-width="1.2" fill="none" />
<path d="M87.80862192943798,476.58815615504164 L91.80862192943798,483.5163593853172 L83.80862192943798,483.5163593853172 L87.80862192943798,476.58815615504164" fill="#404040" stroke="#404040" stroke-width="1" />
<g transform="translate(308.4645579301874,591.2574283378184)">
<rect x="-20.25" y="-7.5" width="40.5" height="15" fill="#ffffff" opacity="0.9" rx="3" ry="3" />
<text x="0" y="3.5" font-size="10" font-family="Consolas, monospace" fill="#000000" text-anchor="middle" dominant-baseline="central">RESET</text>
</g>
<path d="M761.1880958456079,639.433323281761 C901.1880958456079,599.433323281761,908.6880958456079,293.9064739857577,768.6880958456079,253.9064739857577" stroke="#404040" stroke-width="1.2" fill="none" />
<path d="M768.6880958456079,253.9064739857577 L776.4486136772298,251.96370200091798 L774.2508446540508,259.65589358204454 L768.6880958456079,253.9064739857577" fill="#404040" stroke="#404040" stroke-width="1" />
<g transform="translate(869.9380958456079,446.6698986337593)">
<rect x="-20.25" y="-7.5" width="40.5" height="15" fill="#ffffff" opacity="0.9" rx="3" ry="3" />
<text x="0" y="3.5" font-size="10" font-family="Consolas, monospace" fill="#000000" text-anchor="middle" dominant-baseline="central">S4_S1</text>
</g>
<path d="M105.30862192943798,460.58815615504164 C271.1968773549685,460.58815615504164,371.4956739579226,308.4549321437695,371.4956739579226,142.56667671823897" stroke="#404040" stroke-width="1.2" fill="none" />
<path d="M371.4956739579226,142.56667671823897 L375.4956739579226,149.49487994851447 L367.4956739579226,149.49487994851447 L371.4956739579226,142.56667671823897" fill="#404040" stroke="#404040" stroke-width="1" />
<g transform="translate(300.6102437282542,363.7855122212142)">
<rect x="-7.25" y="-7.5" width="14.5" height="15" fill="#ffffff" opacity="0.9" rx="3" ry="3" />
<text x="0" y="3.5" font-size="10" font-family="Consolas, monospace" fill="#000000" text-anchor="middle" dominant-baseline="central">1</text>
</g>
</svg>