<?xml version="1.0" encoding="UTF-8"?>
<svg xmlns="http://www.w3.org/2000/svg" xmlns:xlink="http://www.w3.org/1999/xlink"
     width="1048" height="483" viewBox="-540 -20 1048 483">
<defs>
</defs>
<rect x="3" y="3" width="170" height="433" fill="#000000" fill-opacity="0.1" rx="2" ry="2" />
<path d="M0,0 H170 V222 H164 V262 H170 V433 H0 V262 H6 V222 H0 Z" fill="#ffffff" stroke="#606060" stroke-width="2" />
<path d="M0,30 L170,30" stroke="#606060" stroke-width="1" />
<text x="85.0" y="240.0" font-size="14" fontWeight="bold" font-family="Verdana, sans-serif" font-style="italic" text-anchor="middle" dominant-baseline="central">sequence_E_05</text>
<text x="85.0" y="254.0" font-size="10" fill="#000" font-family="Consolas, monospace" text-anchor="middle" dominant-baseline="central">1.0</text>
<path d="M-5,37 L-5,47 L0,42 Z" fill="#5cb85c" stroke="none" />
<text x="12" y="46" font-size="12" text-anchor="start" font-family="Consolas, monospace">START_S1</text>
<text x="-15" y="45" font-size="11" text-anchor="end" fill="#888" font-style="italic" font-family="Verdana, sans-serif">Event</text>
<text x="-85" y="45" font-size="11" text-anchor="end" fill="#666666" font-family="Verdana, sans-serif">jump from START to State_01</text>
<path d="M-5,63 L-5,73 L0,68 Z" fill="#5cb85c" stroke="none" />
<text x="12" y="72" font-size="12" text-anchor="start" font-family="Consolas, monospace">S1_S2</text>
<text x="-15" y="71" font-size="11" text-anchor="end" fill="#888" font-style="italic" font-family="Verdana, sans-serif">Event</text>
<text x="-85" y="71" font-size="11" text-anchor="end" fill="#666666" font-family="Verdana, sans-serif">jump from State_01 to State_02</text>
<path d="M-5,89 L-5,99 L0,94 Z" fill="#5cb85c" stroke="none" />
<text x="12" y="98" font-size="12" text-anchor="start" font-family="Consolas, monospace">S2_S3</text>
<text x="-15" y="97" font-size="11" text-anchor="end" fill="#888" font-style="italic" font-family="Verdana, sans-serif">Event</text>
<text x="-85" y="97" font-size="11" text-anchor="end" fill="#666666" font-family="Verdana, sans-serif">jump from State_02 to State_03</text>
<path d="M-5,115 L-5,125 L0,120 Z" fill="#5cb85c" stroke="none" />
<text x="12" y="124" font-size="12" text-anchor="start" font-family="Consolas, monospace">S3_S4</text>
<text x="-15" y="123" font-size="11" text-anchor="end" fill="#888" font-style="italic" font-family="Verdana, sans-serif">Event</text>
<text x="-85" y="123" font-size="11" text-anchor="end" fill="#666666" font-family="Verdana, sans-serif">jump from State_03 to State_04</text>
<path d="M-5,141 L-5,151 L0,146 Z" fill="#5cb85c" stroke="none" />
<text x="12" y="150" font-size="12" text-anchor="start" font-family="Consolas, monospace">S4_S5</text>
<text x="-15" y="149" font-size="11" text-anchor="end" fill="#888" font-style="italic" font-family="Verdana, sans-serif">Event</text>
<text x="-85" y="149" font-size="11" text-anchor="end" fill="#666666" font-family="Verdana, sans-serif">jump from State_04 to State_05</text>
<path d="M-5,167 L-5,177 L0,172 Z" fill="#5cb85c" stroke="none" />
<text x="12" y="176" font-size="12" text-anchor="start" font-family="Consolas, monospace">S5_START</text>
<text x="-15" y="175" font-size="11" text-anchor="end" fill="#888" font-style="italic" font-family="Verdana, sans-serif">Event</text>
<text x="-85" y="175" font-size="11" text-anchor="end" fill="#666666" font-family="Verdana, sans-serif">jump from State_05 to START</text>
<path d="M-5,193 L-5,203 L0,198 Z" fill="#5cb85c" stroke="none" />
<text x="12" y="202" font-size="12" text-anchor="start" font-family="Consolas, monospace">RESET</text>
<text x="-15" y="201" font-size="11" text-anchor="end" fill="#888" font-style="italic" font-family="Verdana, sans-serif">Event</text>
<text x="-85" y="201" font-size="11" text-anchor="end" fill="#666666" font-family="Verdana, sans-serif">Reset from any State to START</text>
<path d="M170,37 L170,47 L175,42 Z" fill="#5cb85c" stroke="none" />
<text x="158" y="46" font-size="12" text-anchor="end" font-family="Consolas, monospace">CNF</text>
<text x="233" y="45" font-size="11" text-anchor="start" fill="#888" font-style="italic" font-family="Verdana, sans-serif">Event</text>
<text x="303" y="45" font-size="11" text-anchor="start" fill="#666666" font-family="Verdana, sans-serif">Execution Confirmation</text>
<path d="M170,63 L170,73 L175,68 Z" fill="#5cb85c" stroke="none" />
<text x="158" y="72" font-size="12" text-anchor="end" font-family="Consolas, monospace">EO_S1</text>
<text x="233" y="71" font-size="11" text-anchor="start" fill="#888" font-style="italic" font-family="Verdana, sans-serif">Event</text>
<path d="M170,89 L170,99 L175,94 Z" fill="#5cb85c" stroke="none" />
<text x="158" y="98" font-size="12" text-anchor="end" font-family="Consolas, monospace">EO_S2</text>
<text x="233" y="97" font-size="11" text-anchor="start" fill="#888" font-style="italic" font-family="Verdana, sans-serif">Event</text>
<path d="M170,115 L170,125 L175,120 Z" fill="#5cb85c" stroke="none" />
<text x="158" y="124" font-size="12" text-anchor="end" font-family="Consolas, monospace">EO_S3</text>
<text x="233" y="123" font-size="11" text-anchor="start" fill="#888" font-style="italic" font-family="Verdana, sans-serif">Event</text>
<path d="M170,141 L170,151 L175,146 Z" fill="#5cb85c" stroke="none" />
<text x="158" y="150" font-size="12" text-anchor="end" font-family="Consolas, monospace">EO_S4</text>
<text x="233" y="149" font-size="11" text-anchor="start" fill="#888" font-style="italic" font-family="Verdana, sans-serif">Event</text>
<path d="M170,167 L170,177 L175,172 Z" fill="#5cb85c" stroke="none" />
<text x="158" y="176" font-size="12" text-anchor="end" font-family="Consolas, monospace">EO_S5</text>
<text x="233" y="175" font-size="11" text-anchor="start" fill="#888" font-style="italic" font-family="Verdana, sans-serif">Event</text>
<path d="M170,274 L170,284 L175,279 Z" fill="#0066cc" stroke="none" />
<text x="158" y="283" font-size="12" text-anchor="end" font-family="Consolas, monospace">STATE_NR</text>
<text x="233" y="282" font-size="11" text-anchor="start" fill="#0066cc" font-style="italic" font-family="Verdana, sans-serif">SINT</text>
<text x="303" y="282" font-size="11" text-anchor="start" fill="#666666" font-family="Verdana, sans-serif">State Number, START = 0, State_01 = 1 and so on. </text>
<path d="M170,300 L170,310 L175,305 Z" fill="#0066cc" stroke="none" />
<text x="158" y="309" font-size="12" text-anchor="end" font-family="Consolas, monospace">DO_S1</text>
<text x="233" y="308" font-size="11" text-anchor="start" fill="#0066cc" font-style="italic" font-family="Verdana, sans-serif">BOOL</text>
<text x="303" y="308" font-size="11" text-anchor="start" fill="#666666" font-family="Verdana, sans-serif">Output if State_01 is active</text>
<path d="M170,326 L170,336 L175,331 Z" fill="#0066cc" stroke="none" />
<text x="158" y="335" font-size="12" text-anchor="end" font-family="Consolas, monospace">DO_S2</text>
<text x="233" y="334" font-size="11" text-anchor="start" fill="#0066cc" font-style="italic" font-family="Verdana, sans-serif">BOOL</text>
<text x="303" y="334" font-size="11" text-anchor="start" fill="#666666" font-family="Verdana, sans-serif">Output if State_02 is active</text>
<path d="M170,352 L170,362 L175,357 Z" fill="#0066cc" stroke="none" />
<text x="158" y="361" font-size="12" text-anchor="end" font-family="Consolas, monospace">DO_S3</text>
<text x="233" y="360" font-size="11" text-anchor="start" fill="#0066cc" font-style="italic" font-family="Verdana, sans-serif">BOOL</text>
<text x="303" y="360" font-size="11" text-anchor="start" fill="#666666" font-family="Verdana, sans-serif">Output if State_03 is active</text>
<path d="M170,378 L170,388 L175,383 Z" fill="#0066cc" stroke="none" />
<text x="158" y="387" font-size="12" text-anchor="end" font-family="Consolas, monospace">DO_S4</text>
<text x="233" y="386" font-size="11" text-anchor="start" fill="#0066cc" font-style="italic" font-family="Verdana, sans-serif">BOOL</text>
<text x="303" y="386" font-size="11" text-anchor="start" fill="#666666" font-family="Verdana, sans-serif">Output if State_04 is active</text>
<path d="M170,404 L170,414 L175,409 Z" fill="#0066cc" stroke="none" />
<text x="158" y="413" font-size="12" text-anchor="end" font-family="Consolas, monospace">DO_S5</text>
<text x="233" y="412" font-size="11" text-anchor="start" fill="#0066cc" font-style="italic" font-family="Verdana, sans-serif">BOOL</text>
<text x="303" y="412" font-size="11" text-anchor="start" fill="#666666" font-family="Verdana, sans-serif">Output if State_05 is active</text>
<path d="M182,42 L182,279" stroke="#404040" stroke-width="1" />
<path d="M170,42 L182,42" stroke="#404040" />
<rect x="180" y="40" width="4" height="4" fill="white" stroke="black" stroke-width="1" />
<path d="M182,279 L175,279" stroke="#404040" />
<rect x="180" y="277" width="4" height="4" fill="white" stroke="black" stroke-width="1" />
<path d="M190,68 L190,305" stroke="#404040" stroke-width="1" />
<path d="M170,68 L190,68" stroke="#404040" />
<rect x="188" y="66" width="4" height="4" fill="white" stroke="black" stroke-width="1" />
<path d="M190,305 L175,305" stroke="#404040" />
<rect x="188" y="303" width="4" height="4" fill="white" stroke="black" stroke-width="1" />
<path d="M198,94 L198,331" stroke="#404040" stroke-width="1" />
<path d="M170,94 L198,94" stroke="#404040" />
<rect x="196" y="92" width="4" height="4" fill="white" stroke="black" stroke-width="1" />
<path d="M198,331 L175,331" stroke="#404040" />
<rect x="196" y="329" width="4" height="4" fill="white" stroke="black" stroke-width="1" />
<path d="M206,120 L206,357" stroke="#404040" stroke-width="1" />
<path d="M170,120 L206,120" stroke="#404040" />
<rect x="204" y="118" width="4" height="4" fill="white" stroke="black" stroke-width="1" />
<path d="M206,357 L175,357" stroke="#404040" />
<rect x="204" y="355" width="4" height="4" fill="white" stroke="black" stroke-width="1" />
<path d="M214,146 L214,383" stroke="#404040" stroke-width="1" />
<path d="M170,146 L214,146" stroke="#404040" />
<rect x="212" y="144" width="4" height="4" fill="white" stroke="black" stroke-width="1" />
<path d="M214,383 L175,383" stroke="#404040" />
<rect x="212" y="381" width="4" height="4" fill="white" stroke="black" stroke-width="1" />
<path d="M222,172 L222,409" stroke="#404040" stroke-width="1" />
<path d="M170,172 L222,172" stroke="#404040" />
<rect x="220" y="170" width="4" height="4" fill="white" stroke="black" stroke-width="1" />
<path d="M222,409 L175,409" stroke="#404040" />
<rect x="220" y="407" width="4" height="4" fill="white" stroke="black" stroke-width="1" />
</svg>