<?xml version="1.0" encoding="UTF-8"?>
<svg xmlns="http://www.w3.org/2000/svg" xmlns:xlink="http://www.w3.org/1999/xlink"
     width="1040" height="223" viewBox="-540 -20 1040 223">
<defs>
</defs>
<rect x="3" y="3" width="210" height="173" fill="#000000" fill-opacity="0.1" rx="2" ry="2" />
<path d="M0,0 H210 V92 H204 V132 H210 V173 H0 V132 H6 V92 H0 Z" fill="#ffffff" stroke="#000000" stroke-width="2" />
<path d="M0,30 L210,30" stroke="#000000" stroke-width="1" />
<text x="105.0" y="110.0" font-size="14" fontWeight="bold" font-family="Verdana, sans-serif" font-style="italic" text-anchor="middle" dominant-baseline="central">ASR_SR_TO_2EVENTS</text>
<text x="105.0" y="124.0" font-size="10" fill="#000" font-family="Consolas, monospace" text-anchor="middle" dominant-baseline="central">1.0</text>
<rect x="-5.0" y="144.0" width="10" height="10" fill="white" stroke="#845DAF" stroke-width="2.5" />
<text x="12" y="153" font-size="12" text-anchor="start" font-family="Consolas, monospace">ASR_IN</text>
<text x="-15" y="152" font-size="11" text-anchor="end" fill="#000" font-style="italic" font-family="Verdana, sans-serif">ASR</text>
<text x="-85" y="152" font-size="11" text-anchor="end" fill="#666666" font-family="Verdana, sans-serif">Adapter Input</text>
<path d="M210,37 L210,47 L215,42 Z" fill="#63B31F" stroke="none" />
<text x="198" y="46" font-size="12" text-anchor="end" font-family="Consolas, monospace">SET</text>
<text x="225" y="45" font-size="11" text-anchor="start" fill="#888" font-style="italic" font-family="Verdana, sans-serif">Event</text>
<text x="295" y="45" font-size="11" text-anchor="start" fill="#666666" font-family="Verdana, sans-serif">Set / Switch on</text>
<path d="M210,63 L210,73 L215,68 Z" fill="#63B31F" stroke="none" />
<text x="198" y="72" font-size="12" text-anchor="end" font-family="Consolas, monospace">RESET</text>
<text x="225" y="71" font-size="11" text-anchor="start" fill="#888" font-style="italic" font-family="Verdana, sans-serif">Event</text>
<text x="295" y="71" font-size="11" text-anchor="start" fill="#666666" font-family="Verdana, sans-serif">Reset / Switch off</text>
</svg>