<?xml version="1.0" encoding="UTF-8"?>
<svg xmlns="http://www.w3.org/2000/svg" xmlns:xlink="http://www.w3.org/1999/xlink"
     width="1026" height="249" viewBox="-540 -20 1026 249">
<defs>
</defs>
<rect x="3" y="3" width="180" height="199" fill="#000000" fill-opacity="0.1" rx="2" ry="2" />
<path d="M0,0 H180 V92 H174 V132 H180 V199 H0 V132 H6 V92 H0 Z" fill="#ffffff" stroke="#606060" stroke-width="2" />
<path d="M0,30 L180,30" stroke="#606060" stroke-width="1" />
<text x="90.0" y="110.0" font-size="14" fontWeight="bold" font-family="Verdana, sans-serif" font-style="italic" text-anchor="middle" dominant-baseline="central">A2X_2X_TO_BOOL</text>
<text x="90.0" y="124.0" font-size="10" fill="#000" font-family="Consolas, monospace" text-anchor="middle" dominant-baseline="central">1.0</text>
<rect x="-5.0" y="144.0" width="10" height="10" fill="white" stroke="#985ec9" stroke-width="2.5" />
<text x="12" y="153" font-size="12" text-anchor="start" font-family="Consolas, monospace">A2X_IN</text>
<text x="-15" y="152" font-size="11" text-anchor="end" fill="#000" font-style="italic" font-family="Verdana, sans-serif">A2X</text>
<text x="-85" y="152" font-size="11" text-anchor="end" fill="#666666" font-family="Verdana, sans-serif">Adapter Input</text>
<path d="M180,37 L180,47 L185,42 Z" fill="#5cb85c" stroke="none" />
<text x="168" y="46" font-size="12" text-anchor="end" font-family="Consolas, monospace">E_UP</text>
<text x="211" y="45" font-size="11" text-anchor="start" fill="#888" font-style="italic" font-family="Verdana, sans-serif">Event</text>
<text x="281" y="45" font-size="11" text-anchor="start" fill="#666666" font-family="Verdana, sans-serif">UP</text>
<path d="M180,63 L180,73 L185,68 Z" fill="#5cb85c" stroke="none" />
<text x="168" y="72" font-size="12" text-anchor="end" font-family="Consolas, monospace">E_DOWN</text>
<text x="211" y="71" font-size="11" text-anchor="start" fill="#888" font-style="italic" font-family="Verdana, sans-serif">Event</text>
<text x="281" y="71" font-size="11" text-anchor="start" fill="#666666" font-family="Verdana, sans-serif">DOWN</text>
<path d="M180,144 L180,154 L185,149 Z" fill="#0066cc" stroke="none" />
<text x="168" y="153" font-size="12" text-anchor="end" font-family="Consolas, monospace">UP</text>
<text x="211" y="152" font-size="11" text-anchor="start" fill="#0066cc" font-style="italic" font-family="Verdana, sans-serif">BOOL</text>
<text x="281" y="152" font-size="11" text-anchor="start" fill="#666666" font-family="Verdana, sans-serif">TRUE = forward, up, right, clockwise</text>
<path d="M180,170 L180,180 L185,175 Z" fill="#0066cc" stroke="none" />
<text x="168" y="179" font-size="12" text-anchor="end" font-family="Consolas, monospace">DOWN</text>
<text x="211" y="178" font-size="11" text-anchor="start" fill="#0066cc" font-style="italic" font-family="Verdana, sans-serif">BOOL</text>
<text x="281" y="178" font-size="11" text-anchor="start" fill="#666666" font-family="Verdana, sans-serif">TRUE = backward, down, left, counter-clockwise</text>
<path d="M192,42 L192,149" stroke="#404040" stroke-width="1" />
<path d="M180,42 L192,42" stroke="#404040" />
<rect x="190" y="40" width="4" height="4" fill="white" stroke="black" stroke-width="1" />
<path d="M192,149 L185,149" stroke="#404040" />
<rect x="190" y="147" width="4" height="4" fill="white" stroke="black" stroke-width="1" />
<path d="M200,68 L200,175" stroke="#404040" stroke-width="1" />
<path d="M180,68 L200,68" stroke="#404040" />
<rect x="198" y="66" width="4" height="4" fill="white" stroke="black" stroke-width="1" />
<path d="M200,175 L185,175" stroke="#404040" />
<rect x="198" y="173" width="4" height="4" fill="white" stroke="black" stroke-width="1" />
</svg>