<?xml version="1.0" encoding="UTF-8"?>
<svg xmlns="http://www.w3.org/2000/svg" xmlns:xlink="http://www.w3.org/1999/xlink"
     width="1230" height="301" viewBox="-540 -20 1230 301">
<defs>
</defs>
<rect x="3" y="3" width="150" height="251" fill="#000000" fill-opacity="0.1" rx="2" ry="2" />
<path d="M0,0 H150 V66 H144 V106 H150 V251 H0 V106 H6 V66 H0 Z" fill="#ffffff" stroke="#000000" stroke-width="2" />
<path d="M0,30 L150,30" stroke="#000000" stroke-width="1" />
<text x="75.0" y="84.0" font-size="14" fontWeight="bold" font-family="Verdana, sans-serif" font-style="italic" text-anchor="middle" dominant-baseline="central">ADI_FB_CTUD</text>
<text x="75.0" y="98.0" font-size="10" fill="#000" font-family="Consolas, monospace" text-anchor="middle" dominant-baseline="central">1.0</text>
<rect x="-5.0" y="118.0" width="10" height="10" fill="white" stroke="#845DAF" stroke-width="2.5" />
<text x="12" y="127" font-size="12" text-anchor="start" font-family="Consolas, monospace">CU</text>
<text x="-15" y="126" font-size="11" text-anchor="end" fill="#000" font-style="italic" font-family="Verdana, sans-serif">AX</text>
<text x="-72" y="126" font-size="11" text-anchor="end" fill="#666666" font-family="Verdana, sans-serif">Count up</text>
<rect x="-5.0" y="144.0" width="10" height="10" fill="white" stroke="#845DAF" stroke-width="2.5" />
<text x="12" y="153" font-size="12" text-anchor="start" font-family="Consolas, monospace">CD</text>
<text x="-15" y="152" font-size="11" text-anchor="end" fill="#000" font-style="italic" font-family="Verdana, sans-serif">AX</text>
<text x="-72" y="152" font-size="11" text-anchor="end" fill="#666666" font-family="Verdana, sans-serif">Count down</text>
<rect x="-5.0" y="170.0" width="10" height="10" fill="white" stroke="#845DAF" stroke-width="2.5" />
<text x="12" y="179" font-size="12" text-anchor="start" font-family="Consolas, monospace">R</text>
<text x="-15" y="178" font-size="11" text-anchor="end" fill="#000" font-style="italic" font-family="Verdana, sans-serif">AX</text>
<text x="-72" y="178" font-size="11" text-anchor="end" fill="#666666" font-family="Verdana, sans-serif">Reset</text>
<rect x="-5.0" y="196.0" width="10" height="10" fill="white" stroke="#845DAF" stroke-width="2.5" />
<text x="12" y="205" font-size="12" text-anchor="start" font-family="Consolas, monospace">LD</text>
<text x="-15" y="204" font-size="11" text-anchor="end" fill="#000" font-style="italic" font-family="Verdana, sans-serif">AX</text>
<text x="-72" y="204" font-size="11" text-anchor="end" fill="#666666" font-family="Verdana, sans-serif">Load</text>
<rect x="-5.0" y="222.0" width="10" height="10" fill="white" stroke="#845DAF" stroke-width="2.5" />
<text x="12" y="231" font-size="12" text-anchor="start" font-family="Consolas, monospace">PV</text>
<text x="-15" y="230" font-size="11" text-anchor="end" fill="#000" font-style="italic" font-family="Verdana, sans-serif">ADI</text>
<text x="-72" y="230" font-size="11" text-anchor="end" fill="#666666" font-family="Verdana, sans-serif">Preset value</text>
<path d="M150,37 L150,47 L155,42 Z" fill="#63B31F" stroke="none" />
<text x="138" y="46" font-size="12" text-anchor="end" font-family="Consolas, monospace">CNF</text>
<text x="165" y="45" font-size="11" text-anchor="start" fill="#888" font-style="italic" font-family="Verdana, sans-serif">Event</text>
<text x="235" y="45" font-size="11" text-anchor="start" fill="#666666" font-family="Verdana, sans-serif">Execution Confirmation</text>
<rect x="145.0" y="118.0" width="10" height="10" fill="#845DAF" stroke="none" />
<text x="138" y="127" font-size="12" text-anchor="end" font-family="Consolas, monospace">QU</text>
<text x="165" y="126" font-size="11" text-anchor="start" fill="#000" font-style="italic" font-family="Verdana, sans-serif">AX</text>
<text x="235" y="126" font-size="11" text-anchor="start" fill="#666666" font-family="Verdana, sans-serif">Output Up</text>
<rect x="145.0" y="144.0" width="10" height="10" fill="#845DAF" stroke="none" />
<text x="138" y="153" font-size="12" text-anchor="end" font-family="Consolas, monospace">QD</text>
<text x="165" y="152" font-size="11" text-anchor="start" fill="#000" font-style="italic" font-family="Verdana, sans-serif">AX</text>
<text x="235" y="152" font-size="11" text-anchor="start" fill="#666666" font-family="Verdana, sans-serif">Output Down</text>
<rect x="145.0" y="170.0" width="10" height="10" fill="#845DAF" stroke="none" />
<text x="138" y="179" font-size="12" text-anchor="end" font-family="Consolas, monospace">CV</text>
<text x="165" y="178" font-size="11" text-anchor="start" fill="#000" font-style="italic" font-family="Verdana, sans-serif">ADI</text>
<text x="235" y="178" font-size="11" text-anchor="start" fill="#666666" font-family="Verdana, sans-serif">Count value</text>
</svg>