<?xml version="1.0" encoding="UTF-8"?>
<svg xmlns="http://www.w3.org/2000/svg" xmlns:xlink="http://www.w3.org/1999/xlink"
     width="986" height="223" viewBox="-540 -20 986 223">
<defs>
</defs>
<rect x="3" y="3" width="140" height="173" fill="#000000" fill-opacity="0.1" rx="2" ry="2" />
<path d="M0,0 H140 V92 H134 V132 H140 V173 H0 V132 H6 V92 H0 Z" fill="#ffffff" stroke="#606060" stroke-width="2" />
<path d="M0,30 L140,30" stroke="#606060" stroke-width="1" />
<text x="70.0" y="110.0" font-size="14" fontWeight="bold" font-family="Verdana, sans-serif" font-style="italic" text-anchor="middle" dominant-baseline="central">SYS_ONTIME</text>
<text x="70.0" y="124.0" font-size="10" fill="#000" font-family="Consolas, monospace" text-anchor="middle" dominant-baseline="central">1.0</text>
<path d="M-5,37 L-5,47 L0,42 Z" fill="#5cb85c" stroke="none" />
<text x="12" y="46" font-size="12" text-anchor="start" font-family="Consolas, monospace">INIT</text>
<text x="-15" y="45" font-size="11" text-anchor="end" fill="#888" font-style="italic" font-family="Verdana, sans-serif">Event</text>
<text x="-85" y="45" font-size="11" text-anchor="end" fill="#666666" font-family="Verdana, sans-serif">Service Initialization</text>
<path d="M140,37 L140,47 L145,42 Z" fill="#5cb85c" stroke="none" />
<text x="128" y="46" font-size="12" text-anchor="end" font-family="Consolas, monospace">INITO</text>
<text x="171" y="45" font-size="11" text-anchor="start" fill="#888" font-style="italic" font-family="Verdana, sans-serif">Event</text>
<text x="241" y="45" font-size="11" text-anchor="start" fill="#666666" font-family="Verdana, sans-serif">Initialization Confirm</text>
<path d="M140,63 L140,73 L145,68 Z" fill="#5cb85c" stroke="none" />
<text x="128" y="72" font-size="12" text-anchor="end" font-family="Consolas, monospace">IND</text>
<text x="171" y="71" font-size="11" text-anchor="start" fill="#888" font-style="italic" font-family="Verdana, sans-serif">Event</text>
<text x="241" y="71" font-size="11" text-anchor="start" fill="#666666" font-family="Verdana, sans-serif">Indication from Resource</text>
<path d="M140,144 L140,154 L145,149 Z" fill="#0066cc" stroke="none" />
<text x="128" y="153" font-size="12" text-anchor="end" font-family="Consolas, monospace">ONTIME</text>
<text x="171" y="152" font-size="11" text-anchor="start" fill="#0066cc" font-style="italic" font-family="Verdana, sans-serif">UINT</text>
<text x="241" y="152" font-size="11" text-anchor="start" fill="#666666" font-family="Verdana, sans-serif">Input data from resource: ONTIME in Decimal minute (0.01 Hours)</text>
<path d="M152,42 L152,149" stroke="#404040" stroke-width="1" />
<path d="M140,42 L152,42" stroke="#404040" />
<rect x="150" y="40" width="4" height="4" fill="white" stroke="black" stroke-width="1" />
<path d="M152,149 L145,149" stroke="#404040" />
<rect x="150" y="147" width="4" height="4" fill="white" stroke="black" stroke-width="1" />
<path d="M160,68 L160,149" stroke="#404040" stroke-width="1" />
<path d="M140,68 L160,68" stroke="#404040" />
<rect x="158" y="66" width="4" height="4" fill="white" stroke="black" stroke-width="1" />
<path d="M160,149 L145,149" stroke="#404040" />
<rect x="158" y="147" width="4" height="4" fill="white" stroke="black" stroke-width="1" />
</svg>