<?xml version="1.0" encoding="UTF-8"?>
<svg xmlns="http://www.w3.org/2000/svg" xmlns:xlink="http://www.w3.org/1999/xlink"
     width="1311.0" height="800" viewBox="0 0 1311.0 800">
<defs>
</defs>
<rect x="0" y="0" width="1311.0" height="800" fill="#ffffff" />
<text x="655.0" y="25" font-size="14" fontWeight="bold" font-family="Verdana, sans-serif" fill="#000000" text-anchor="middle" dominant-baseline="central">ECC: AX_PERMIT</text>
<rect x="10.0" y="384.0" width="80" height="32" fill="#f5f5f5" stroke="#000000" stroke-width="2" rx="8" ry="8" />
<text x="50.0" y="400.0" font-size="12" fontWeight="bold" font-family="Verdana, sans-serif" fill="#000000" text-anchor="middle" dominant-baseline="central">START</text>
<rect x="960.0" y="384.0" width="80" height="32" fill="#f5f5f5" stroke="#000000" stroke-width="2" rx="8" ry="8" />
<text x="1000.0" y="400.0" font-size="12" fontWeight="bold" font-family="Verdana, sans-serif" fill="#000000" text-anchor="middle" dominant-baseline="central">EO</text>
<rect x="1050.0" y="384.0" width="161" height="22" fill="#ffffff" stroke="#cccccc" stroke-width="1" rx="4" ry="4" />
<path d="M1040.0,400.0 L1050.0,395.0" stroke="#000000" stroke-width="2" />
<path d="M1130.0,384.0 L1130.0,406.0" stroke="#cccccc" stroke-width="1" />
<rect x="1050.0" y="388.0" width="80" height="14" fill="#e6f7e6" stroke="#cccccc" stroke-width="0.5" />
<text x="1090.0" y="396.0" font-size="10" font-family="Consolas, monospace" fill="#000000" text-anchor="middle" dominant-baseline="central"></text>
<rect x="1131.0" y="388.0" width="80" height="14" fill="#ffe6e6" stroke="#cccccc" stroke-width="0.5" />
<text x="1171.0" y="396.0" font-size="10" font-family="Consolas, monospace" fill="#000000" text-anchor="middle" dominant-baseline="central">EO</text>
<path d="M90.0,392.5 C130.0,392.5,1000.0,344.0,1000.0,384.0" stroke="#404040" stroke-width="1.2" fill="none" />
<path d="M1000.0,384.0 L996.0,377.0717967697245 L1004.0,377.0717967697245 L1000.0,384.0" fill="#404040" stroke="#404040" stroke-width="1" />
<g transform="translate(560.0,373.25)">
<rect x="-39.75" y="-7.5" width="79.5" height="15" fill="#ffffff" opacity="0.9" rx="3" ry="3" />
<text x="0" y="3.5" font-size="10" font-family="Consolas, monospace" fill="#000000" text-anchor="middle" dominant-baseline="central">[PERMIT.D1]</text>
</g>
<path d="M960.0,407.5 C580.8786466025372,407.5,50.0,4.878646602537174,50.0,384.0" stroke="#404040" stroke-width="1.2" fill="none" />
<path d="M50.0,384.0 L46.0,377.0717967697245 L54.0,377.0717967697245 L50.0,384.0" fill="#404040" stroke="#404040" stroke-width="1" />
<g transform="translate(362.82949247595144,253.57949247595144)">
<rect x="-7.25" y="-7.5" width="14.5" height="15" fill="#ffffff" opacity="0.9" rx="3" ry="3" />
<text x="0" y="3.5" font-size="10" font-family="Consolas, monospace" fill="#000000" text-anchor="middle" dominant-baseline="central">1</text>
</g>
</svg>