<?xml version="1.0" encoding="UTF-8"?>
<svg xmlns="http://www.w3.org/2000/svg" xmlns:xlink="http://www.w3.org/1999/xlink"
     width="1200" height="800" viewBox="0 0 1200 800">
<defs>
</defs>
<rect x="0" y="0" width="1200" height="800" fill="#ffffff" />
<text x="600" y="25" font-size="14" fontWeight="bold" font-family="Verdana, sans-serif" fill="#000000" text-anchor="middle" dominant-baseline="central">ECC: AX_SELECT</text>
<rect x="195.0" y="114.0" width="80" height="32" fill="#f5f5f5" stroke="#000000" stroke-width="2" rx="8" ry="8" />
<text x="235.0" y="130.0" font-size="12" fontWeight="bold" font-family="Verdana, sans-serif" fill="#000000" text-anchor="middle" dominant-baseline="central">START</text>
<rect x="225.0" y="654.0" width="80" height="32" fill="#f5f5f5" stroke="#000000" stroke-width="2" rx="8" ry="8" />
<text x="265.0" y="670.0" font-size="12" fontWeight="bold" font-family="Verdana, sans-serif" fill="#000000" text-anchor="middle" dominant-baseline="central">EO</text>
<rect x="315.0" y="654.0" width="161" height="22" fill="#ffffff" stroke="#cccccc" stroke-width="1" rx="4" ry="4" />
<path d="M305.0,670.0 L315.0,665.0" stroke="#000000" stroke-width="2" />
<path d="M395.0,654.0 L395.0,676.0" stroke="#cccccc" stroke-width="1" />
<rect x="315.0" y="658.0" width="80" height="14" fill="#e6f7e6" stroke="#cccccc" stroke-width="0.5" />
<text x="355.0" y="666.0" font-size="10" font-family="Consolas, monospace" fill="#000000" text-anchor="middle" dominant-baseline="central"></text>
<rect x="396.0" y="658.0" width="80" height="14" fill="#ffe6e6" stroke="#cccccc" stroke-width="0.5" />
<text x="436.0" y="666.0" font-size="10" font-family="Consolas, monospace" fill="#000000" text-anchor="middle" dominant-baseline="central">EO</text>
<path d="M250.0,654.0 C250.0,614.0,235.0,186.0,235.0,146.0" stroke="#404040" stroke-width="1.2" fill="none" />
<path d="M235.0,146.0 L239.0,152.9282032302755 L231.0,152.9282032302755 L235.0,146.0" fill="#404040" stroke="#404040" stroke-width="1" />
<g transform="translate(242.5,400.0)">
<rect x="-7.25" y="-7.5" width="14.5" height="15" fill="#ffffff" opacity="0.9" rx="3" ry="3" />
<text x="0" y="3.5" font-size="10" font-family="Consolas, monospace" fill="#000000" text-anchor="middle" dominant-baseline="central">1</text>
</g>
<path d="M275.0,130.0 C320.0,130.0,257.5,609.0,257.5,654.0" stroke="#404040" stroke-width="1.2" fill="none" />
<path d="M257.5,654.0 L253.5,647.0717967697245 L261.5,647.0717967697245 L257.5,654.0" fill="#404040" stroke="#404040" stroke-width="1" />
<g transform="translate(283.125,375.125)">
<rect x="-46.25" y="-7.5" width="92.5" height="15" fill="#ffffff" opacity="0.9" rx="3" ry="3" />
<text x="0" y="3.5" font-size="10" font-family="Consolas, monospace" fill="#000000" text-anchor="middle" dominant-baseline="central">EI0[NOT G.D1]</text>
</g>
<path d="M275.0,145.0 C325.0,145.0,272.5,604.0,272.5,654.0" stroke="#404040" stroke-width="1.2" fill="none" />
<path d="M272.5,654.0 L268.5,647.0717967697245 L276.5,647.0717967697245 L272.5,654.0" fill="#404040" stroke="#404040" stroke-width="1" />
<g transform="translate(292.5,398.75)">
<rect x="-33.25" y="-7.5" width="66.5" height="15" fill="#ffffff" opacity="0.9" rx="3" ry="3" />
<text x="0" y="3.5" font-size="10" font-family="Consolas, monospace" fill="#000000" text-anchor="middle" dominant-baseline="central">EI1[G.D1]</text>
</g>
</svg>