<?xml version="1.0" encoding="UTF-8"?>
<svg xmlns="http://www.w3.org/2000/svg" xmlns:xlink="http://www.w3.org/1999/xlink"
     width="1320" height="275" viewBox="-540 -20 1320 275">
<defs>
</defs>
<rect x="3" y="3" width="240" height="225" fill="#000000" fill-opacity="0.1" rx="2" ry="2" />
<path d="M0,0 H240 V118 H234 V158 H240 V225 H0 V158 H6 V118 H0 Z" fill="#ffffff" stroke="#000000" stroke-width="2" />
<path d="M0,30 L240,30" stroke="#000000" stroke-width="1" />
<text x="120.0" y="136.0" font-size="14" fontWeight="bold" font-family="Verdana, sans-serif" font-style="italic" text-anchor="middle" dominant-baseline="central">AX_T_FF_SR_SYM_STORE</text>
<text x="120.0" y="150.0" font-size="10" fill="#000" font-family="Consolas, monospace" text-anchor="middle" dominant-baseline="central">3.0</text>
<path d="M-5,37 L-5,47 L0,42 Z" fill="#63B31F" stroke="none" />
<text x="12" y="46" font-size="12" text-anchor="start" font-family="Consolas, monospace">S</text>
<text x="-15" y="45" font-size="11" text-anchor="end" fill="#888" font-style="italic" font-family="Verdana, sans-serif">Event</text>
<text x="-114" y="45" font-size="11" text-anchor="end" fill="#666666" font-family="Verdana, sans-serif">Set output Q</text>
<path d="M-5,63 L-5,73 L0,68 Z" fill="#63B31F" stroke="none" />
<text x="12" y="72" font-size="12" text-anchor="start" font-family="Consolas, monospace">R</text>
<text x="-15" y="71" font-size="11" text-anchor="end" fill="#888" font-style="italic" font-family="Verdana, sans-serif">Event</text>
<text x="-114" y="71" font-size="11" text-anchor="end" fill="#666666" font-family="Verdana, sans-serif">Reset output Q</text>
<path d="M-5,89 L-5,99 L0,94 Z" fill="#63B31F" stroke="none" />
<text x="12" y="98" font-size="12" text-anchor="start" font-family="Consolas, monospace">CLK</text>
<text x="-15" y="97" font-size="11" text-anchor="end" fill="#888" font-style="italic" font-family="Verdana, sans-serif">Event</text>
<text x="-114" y="97" font-size="11" text-anchor="end" fill="#666666" font-family="Verdana, sans-serif">Clock for triggering a output toggle</text>
<rect x="235.0" y="170.0" width="10" height="10" fill="#845DAF" stroke="none" />
<text x="228" y="179" font-size="12" text-anchor="end" font-family="Consolas, monospace">Q</text>
<text x="255" y="178" font-size="11" text-anchor="start" fill="#000" font-style="italic" font-family="Verdana, sans-serif">AX</text>
<text x="325" y="178" font-size="11" text-anchor="start" fill="#666666" font-family="Verdana, sans-serif">value of flip flop</text>
<rect x="235.0" y="196.0" width="10" height="10" fill="#845DAF" stroke="none" />
<text x="228" y="205" font-size="12" text-anchor="end" font-family="Consolas, monospace">Q_INIT</text>
<text x="255" y="204" font-size="11" text-anchor="start" fill="#000" font-style="italic" font-family="Verdana, sans-serif">AX2</text>
<text x="325" y="204" font-size="11" text-anchor="start" fill="#666666" font-family="Verdana, sans-serif">Value of Q at INIT</text>
</svg>