<?xml version="1.0" encoding="UTF-8"?>
<svg xmlns="http://www.w3.org/2000/svg" xmlns:xlink="http://www.w3.org/1999/xlink"
     width="1200" height="800" viewBox="0 0 1200 800">
<defs>
</defs>
<rect x="0" y="0" width="1200" height="800" fill="#ffffff" />
<text x="600" y="25" font-size="14" fontWeight="bold" font-family="Verdana, sans-serif" fill="#000000" text-anchor="middle" dominant-baseline="central">ECC: AX_T_FF_SR_SYM_INIT</text>
<rect x="10.0" y="298.43669503812066" width="80" height="32" fill="#f5f5f5" stroke="#000000" stroke-width="2" rx="8" ry="8" />
<text x="50.0" y="314.43669503812066" font-size="12" fontWeight="bold" font-family="Verdana, sans-serif" fill="#000000" text-anchor="middle" dominant-baseline="central">START</text>
<rect x="238.16881323167848" y="260.40855949950753" width="80" height="32" fill="#f5f5f5" stroke="#000000" stroke-width="2" rx="8" ry="8" />
<text x="278.1688132316785" y="276.40855949950753" font-size="12" fontWeight="bold" font-family="Verdana, sans-serif" fill="#000000" text-anchor="middle" dominant-baseline="central">Init</text>
<rect x="328.1688132316785" y="260.40855949950753" width="161" height="22" fill="#ffffff" stroke="#cccccc" stroke-width="1" rx="4" ry="4" />
<path d="M318.1688132316785,276.40855949950753 L328.1688132316785,271.40855949950753" stroke="#000000" stroke-width="2" />
<path d="M408.1688132316785,260.40855949950753 L408.1688132316785,282.40855949950753" stroke="#cccccc" stroke-width="1" />
<rect x="328.1688132316785" y="264.40855949950753" width="80" height="14" fill="#e6f7e6" stroke="#cccccc" stroke-width="0.5" />
<text x="368.1688132316785" y="272.40855949950753" font-size="10" font-family="Consolas, monospace" fill="#000000" text-anchor="middle" dominant-baseline="central">initialize</text>
<rect x="409.1688132316785" y="264.40855949950753" width="80" height="14" fill="#ffe6e6" stroke="#cccccc" stroke-width="0.5" />
<text x="449.1688132316785" y="272.40855949950753" font-size="10" font-family="Consolas, monospace" fill="#000000" text-anchor="middle" dominant-baseline="central">INITO</text>
<rect x="238.16881323167848" y="355.47889834604024" width="80" height="32" fill="#f5f5f5" stroke="#000000" stroke-width="2" rx="8" ry="8" />
<text x="278.1688132316785" y="371.47889834604024" font-size="12" fontWeight="bold" font-family="Verdana, sans-serif" fill="#000000" text-anchor="middle" dominant-baseline="central">DeInit</text>
<rect x="328.1688132316785" y="355.47889834604024" width="161" height="22" fill="#ffffff" stroke="#cccccc" stroke-width="1" rx="4" ry="4" />
<path d="M318.1688132316785,371.47889834604024 L328.1688132316785,366.47889834604024" stroke="#000000" stroke-width="2" />
<path d="M408.1688132316785,355.47889834604024 L408.1688132316785,377.47889834604024" stroke="#cccccc" stroke-width="1" />
<rect x="328.1688132316785" y="359.47889834604024" width="80" height="14" fill="#e6f7e6" stroke="#cccccc" stroke-width="0.5" />
<text x="368.1688132316785" y="367.47889834604024" font-size="10" font-family="Consolas, monospace" fill="#000000" text-anchor="middle" dominant-baseline="central">deInitialize</text>
<rect x="409.1688132316785" y="359.47889834604024" width="80" height="14" fill="#ffe6e6" stroke="#cccccc" stroke-width="0.5" />
<text x="449.1688132316785" y="367.47889834604024" font-size="10" font-family="Consolas, monospace" fill="#000000" text-anchor="middle" dominant-baseline="central">INITO</text>
<rect x="789.5767785415682" y="507.5914405004926" width="80" height="32" fill="#f5f5f5" stroke="#000000" stroke-width="2" rx="8" ry="8" />
<text x="829.5767785415682" y="523.5914405004926" font-size="12" fontWeight="bold" font-family="Verdana, sans-serif" fill="#000000" text-anchor="middle" dominant-baseline="central">RESET</text>
<rect x="879.5767785415682" y="507.5914405004925" width="161" height="22" fill="#ffffff" stroke="#cccccc" stroke-width="1" rx="4" ry="4" />
<path d="M869.5767785415682,523.5914405004926 L879.5767785415682,518.5914405004926" stroke="#000000" stroke-width="2" />
<path d="M959.5767785415682,507.5914405004925 L959.5767785415682,529.5914405004926" stroke="#cccccc" stroke-width="1" />
<rect x="879.5767785415682" y="511.5914405004925" width="80" height="14" fill="#e6f7e6" stroke="#cccccc" stroke-width="0.5" />
<text x="919.5767785415682" y="519.5914405004926" font-size="10" font-family="Consolas, monospace" fill="#000000" text-anchor="middle" dominant-baseline="central">RESET</text>
<rect x="960.5767785415682" y="511.5914405004925" width="80" height="14" fill="#ffe6e6" stroke="#cccccc" stroke-width="0.5" />
<text x="1000.5767785415682" y="519.5914405004926" font-size="10" font-family="Consolas, monospace" fill="#000000" text-anchor="middle" dominant-baseline="central">Q.E1</text>
<rect x="797.4985145259554" y="401.42876986904065" width="80" height="32" fill="#f5f5f5" stroke="#000000" stroke-width="2" rx="8" ry="8" />
<text x="837.4985145259554" y="417.42876986904065" font-size="12" fontWeight="bold" font-family="Verdana, sans-serif" fill="#000000" text-anchor="middle" dominant-baseline="central">SET</text>
<rect x="887.4985145259554" y="401.42876986904065" width="161" height="22" fill="#ffffff" stroke="#cccccc" stroke-width="1" rx="4" ry="4" />
<path d="M877.4985145259554,417.42876986904065 L887.4985145259554,412.42876986904065" stroke="#000000" stroke-width="2" />
<path d="M967.4985145259554,401.42876986904065 L967.4985145259554,423.42876986904065" stroke="#cccccc" stroke-width="1" />
<rect x="887.4985145259554" y="405.42876986904065" width="80" height="14" fill="#e6f7e6" stroke="#cccccc" stroke-width="0.5" />
<text x="927.4985145259554" y="413.42876986904065" font-size="10" font-family="Consolas, monospace" fill="#000000" text-anchor="middle" dominant-baseline="central">SET</text>
<rect x="968.4985145259554" y="405.42876986904065" width="80" height="14" fill="#ffe6e6" stroke="#cccccc" stroke-width="0.5" />
<text x="1008.4985145259554" y="413.42876986904065" font-size="10" font-family="Consolas, monospace" fill="#000000" text-anchor="middle" dominant-baseline="central">Q.E1</text>
<path d="M814.9985145259554,433.42876986904065 C814.9985145259554,448.26154381922237,814.5767785415682,492.75866655031086,814.5767785415682,507.5914405004926" stroke="#404040" stroke-width="1.2" fill="none" />
<path d="M814.5767785415682,507.5914405004926 L810.5767785415682,500.66323727021705 L818.5767785415682,500.66323727021705 L814.5767785415682,507.5914405004926" fill="#404040" stroke="#404040" stroke-width="1" />
<g transform="translate(814.7876465337617,470.51010518476664)">
<rect x="-7.25" y="-7.5" width="14.5" height="15" fill="#ffffff" opacity="0.9" rx="3" ry="3" />
<text x="0" y="3.5" font-size="10" font-family="Consolas, monospace" fill="#000000" text-anchor="middle" dominant-baseline="central">R</text>
</g>
<path d="M822.0767785415682,507.5914405004926 C822.0767785415682,492.75866655031086,822.4985145259554,448.26154381922237,822.4985145259554,433.42876986904065" stroke="#404040" stroke-width="1.2" fill="none" />
<path d="M822.4985145259554,433.42876986904065 L826.4985145259554,440.3569730993162 L818.4985145259554,440.3569730993162 L822.4985145259554,433.42876986904065" fill="#404040" stroke="#404040" stroke-width="1" />
<g transform="translate(822.2876465337619,488.5101051847666)">
<rect x="-7.25" y="-7.5" width="14.5" height="15" fill="#ffffff" opacity="0.9" rx="3" ry="3" />
<text x="0" y="3.5" font-size="10" font-family="Consolas, monospace" fill="#000000" text-anchor="middle" dominant-baseline="central">S</text>
</g>
<path d="M844.9985145259554,433.42876986904065 C844.9985145259554,448.5785971366518,829.5767785415682,492.4416132328814,829.5767785415682,507.5914405004926" stroke="#404040" stroke-width="1.2" fill="none" />
<path d="M829.5767785415682,507.5914405004926 L825.5767785415682,500.66323727021705 L833.5767785415682,500.66323727021705 L829.5767785415682,507.5914405004926" fill="#404040" stroke="#404040" stroke-width="1" />
<g transform="translate(837.2876465337617,470.51010518476664)">
<rect x="-13.75" y="-7.5" width="27.5" height="15" fill="#ffffff" opacity="0.9" rx="3" ry="3" />
<text x="0" y="3.5" font-size="10" font-family="Consolas, monospace" fill="#000000" text-anchor="middle" dominant-baseline="central">CLK</text>
</g>
<path d="M852.0767785415682,507.5914405004926 C852.0767785415682,492.47505535470043,837.4985145259554,448.5451550148328,837.4985145259554,433.42876986904065" stroke="#404040" stroke-width="1.2" fill="none" />
<path d="M837.4985145259554,433.42876986904065 L841.4985145259554,440.3569730993162 L833.4985145259554,440.3569730993162 L837.4985145259554,433.42876986904065" fill="#404040" stroke="#404040" stroke-width="1" />
<g transform="translate(844.7876465337619,488.5101051847666)">
<rect x="-13.75" y="-7.5" width="27.5" height="15" fill="#ffffff" opacity="0.9" rx="3" ry="3" />
<text x="0" y="3.5" font-size="10" font-family="Consolas, monospace" fill="#000000" text-anchor="middle" dominant-baseline="central">CLK</text>
</g>
<path d="M90.0,314.43669503812066 C170.0,314.43669503812066,278.1688132316785,372.40855949950753,278.1688132316785,292.40855949950753" stroke="#404040" stroke-width="1.2" fill="none" />
<path d="M278.1688132316785,292.40855949950753 L282.1688132316785,299.33676272978306 L274.1688132316785,299.33676272978306 L278.1688132316785,292.40855949950753" fill="#404040" stroke="#404040" stroke-width="1" />
<g transform="translate(214.08440661583924,333.4226272688141)">
<rect x="-52.75" y="-7.5" width="105.5" height="15" fill="#ffffff" opacity="0.9" rx="3" ry="3" />
<text x="0" y="3.5" font-size="10" font-family="Consolas, monospace" fill="#000000" text-anchor="middle" dominant-baseline="central">INIT[TRUE = QI]</text>
</g>
<path d="M318.1688132316785,276.40855949950753 C548.1430275808924,276.40855949950753,844.5767785415682,277.6172261512786,844.5767785415682,507.5914405004926" stroke="#404040" stroke-width="1.2" fill="none" />
<path d="M844.5767785415682,507.5914405004926 L840.5767785415682,500.66323727021705 L848.5767785415682,500.66323727021705 L844.5767785415682,507.5914405004926" fill="#404040" stroke="#404040" stroke-width="1" />
<g transform="translate(667.6131262675785,305.7596696190448)">
<rect x="-56.0" y="-7.5" width="112.0" height="15" fill="#ffffff" opacity="0.9" rx="3" ry="3" />
<text x="0" y="3.5" font-size="10" font-family="Consolas, monospace" fill="#000000" text-anchor="middle" dominant-baseline="central">[FALSE = Q_INIT]</text>
</g>
<path d="M238.16881323167848,371.47889834604024 C158.16881323167848,371.47889834604024,50.0,410.43669503812066,50.0,330.43669503812066" stroke="#404040" stroke-width="1.2" fill="none" />
<path d="M50.0,330.43669503812066 L54.0,337.3648982683962 L46.0,337.3648982683962 L50.0,330.43669503812066" fill="#404040" stroke="#404040" stroke-width="1" />
<g transform="translate(114.08440661583924,380.9577966920805)">
<rect x="-7.25" y="-7.5" width="14.5" height="15" fill="#ffffff" opacity="0.9" rx="3" ry="3" />
<text x="0" y="3.5" font-size="10" font-family="Consolas, monospace" fill="#000000" text-anchor="middle" dominant-baseline="central">1</text>
</g>
<path d="M789.5767785415682,523.5914405004926 C574.9917462233574,523.5914405004926,270.6688132316785,602.0639306642511,270.6688132316785,387.47889834604024" stroke="#404040" stroke-width="1.2" fill="none" />
<path d="M270.6688132316785,387.47889834604024 L274.6688132316785,394.40710157631577 L266.6688132316785,394.40710157631577 L270.6688132316785,387.47889834604024" fill="#404040" stroke="#404040" stroke-width="1" />
<g transform="translate(449.6534087672943,536.0045565425954)">
<rect x="-56.0" y="-7.5" width="112.0" height="15" fill="#ffffff" opacity="0.9" rx="3" ry="3" />
<text x="0" y="3.5" font-size="10" font-family="Consolas, monospace" fill="#000000" text-anchor="middle" dominant-baseline="central">INIT[FALSE = QI]</text>
</g>
<path d="M797.4985145259554,417.42876986904065 C592.4164283531322,417.42876986904065,285.6688132316785,592.5609845188635,285.6688132316785,387.47889834604024" stroke="#404040" stroke-width="1.2" fill="none" />
<path d="M285.6688132316785,387.47889834604024 L289.6688132316785,394.40710157631577 L281.6688132316785,394.40710157631577 L285.6688132316785,387.47889834604024" fill="#404040" stroke="#404040" stroke-width="1" />
<g transform="translate(464.6778815640083,479.3596164223492)">
<rect x="-56.0" y="-7.5" width="112.0" height="15" fill="#ffffff" opacity="0.9" rx="3" ry="3" />
<text x="0" y="3.5" font-size="10" font-family="Consolas, monospace" fill="#000000" text-anchor="middle" dominant-baseline="central">INIT[FALSE = QI]</text>
</g>
<path d="M318.1688132316785,276.40855949950753 C537.6730847841286,276.40855949950753,852.4985145259554,181.92449831659053,852.4985145259554,401.42876986904065" stroke="#404040" stroke-width="1.2" fill="none" />
<path d="M852.4985145259554,401.42876986904065 L848.4985145259554,394.5005666387651 L856.4985145259554,394.5005666387651 L852.4985145259554,401.42876986904065" fill="#404040" stroke="#404040" stroke-width="1" />
<g transform="translate(667.6477657109857,256.6045628521053)">
<rect x="-52.75" y="-7.5" width="105.5" height="15" fill="#ffffff" opacity="0.9" rx="3" ry="3" />
<text x="0" y="3.5" font-size="10" font-family="Consolas, monospace" fill="#000000" text-anchor="middle" dominant-baseline="central">[TRUE = Q_INIT]</text>
</g>
</svg>