<?xml version="1.0" encoding="UTF-8"?>
<svg xmlns="http://www.w3.org/2000/svg" xmlns:xlink="http://www.w3.org/1999/xlink"
     width="1256" height="249" viewBox="-548 -20 1256 249">
<defs>
</defs>
<rect x="3" y="3" width="160" height="199" fill="#000000" fill-opacity="0.1" rx="2" ry="2" />
<path d="M0,0 H160 V92 H154 V132 H160 V199 H0 V132 H6 V92 H0 Z" fill="#ffffff" stroke="#000000" stroke-width="2" />
<path d="M0,30 L160,30" stroke="#000000" stroke-width="1" />
<text x="80.0" y="110.0" font-size="14" fontWeight="bold" font-family="Verdana, sans-serif" font-style="italic" text-anchor="middle" dominant-baseline="central">AX_T_FF_INIT</text>
<text x="80.0" y="124.0" font-size="10" fill="#000" font-family="Consolas, monospace" text-anchor="middle" dominant-baseline="central">3.0</text>
<path d="M-5,37 L-5,47 L0,42 Z" fill="#63B31F" stroke="none" />
<text x="12" y="46" font-size="12" text-anchor="start" font-family="Consolas, monospace">INIT</text>
<text x="-23" y="45" font-size="11" text-anchor="end" fill="#888" font-style="italic" font-family="Verdana, sans-serif">Event</text>
<text x="-122" y="45" font-size="11" text-anchor="end" fill="#666666" font-family="Verdana, sans-serif">Initialization Request</text>
<path d="M-5,63 L-5,73 L0,68 Z" fill="#63B31F" stroke="none" />
<text x="12" y="72" font-size="12" text-anchor="start" font-family="Consolas, monospace">CLK</text>
<text x="-23" y="71" font-size="11" text-anchor="end" fill="#888" font-style="italic" font-family="Verdana, sans-serif">Event</text>
<text x="-122" y="71" font-size="11" text-anchor="end" fill="#666666" font-family="Verdana, sans-serif">Clock for triggering a output toggle</text>
<path d="M-5,144 L-5,154 L0,149 Z" fill="#9FA48A" stroke="none" />
<text x="12" y="153" font-size="12" text-anchor="start" font-family="Consolas, monospace">QI</text>
<text x="-23" y="152" font-size="11" text-anchor="end" fill="#9FA48A" font-style="italic" font-family="Verdana, sans-serif">BOOL</text>
<text x="-122" y="152" font-size="11" text-anchor="end" fill="#666666" font-family="Verdana, sans-serif">Input event qualifier</text>
<path d="M-5,170 L-5,180 L0,175 Z" fill="#9FA48A" stroke="none" />
<text x="12" y="179" font-size="12" text-anchor="start" font-family="Consolas, monospace">Q_INIT</text>
<text x="-23" y="178" font-size="11" text-anchor="end" fill="#9FA48A" font-style="italic" font-family="Verdana, sans-serif">BOOL</text>
<text x="-122" y="178" font-size="11" text-anchor="end" fill="#666666" font-family="Verdana, sans-serif">Value of Q at INIT</text>
<path d="M160,37 L160,47 L165,42 Z" fill="#63B31F" stroke="none" />
<text x="148" y="46" font-size="12" text-anchor="end" font-family="Consolas, monospace">INITO</text>
<text x="183" y="45" font-size="11" text-anchor="start" fill="#888" font-style="italic" font-family="Verdana, sans-serif">Event</text>
<text x="253" y="45" font-size="11" text-anchor="start" fill="#666666" font-family="Verdana, sans-serif">Initialization Confirm</text>
<rect x="155.0" y="144.0" width="10" height="10" fill="#845DAF" stroke="none" />
<text x="148" y="153" font-size="12" text-anchor="end" font-family="Consolas, monospace">Q</text>
<text x="183" y="152" font-size="11" text-anchor="start" fill="#000" font-style="italic" font-family="Verdana, sans-serif">AX</text>
<text x="253" y="152" font-size="11" text-anchor="start" fill="#666666" font-family="Verdana, sans-serif">value of flip flop</text>
<path d="M160,170 L160,180 L165,175 Z" fill="#9FA48A" stroke="none" />
<text x="148" y="179" font-size="12" text-anchor="end" font-family="Consolas, monospace">QO</text>
<text x="183" y="178" font-size="11" text-anchor="start" fill="#9FA48A" font-style="italic" font-family="Verdana, sans-serif">BOOL</text>
<text x="253" y="178" font-size="11" text-anchor="start" fill="#666666" font-family="Verdana, sans-serif">Output event qualifier</text>
<path d="M-12,42 L-12,175" stroke="#404040" stroke-width="1" />
<path d="M0,42 L-12,42" stroke="#404040" />
<rect x="-14" y="40" width="4" height="4" fill="white" stroke="black" stroke-width="1" />
<path d="M-12,149 L-5,149" stroke="#404040" />
<rect x="-14" y="147" width="4" height="4" fill="white" stroke="black" stroke-width="1" />
<path d="M-12,175 L-5,175" stroke="#404040" />
<rect x="-14" y="173" width="4" height="4" fill="white" stroke="black" stroke-width="1" />
<path d="M172,42 L172,175" stroke="#404040" stroke-width="1" />
<path d="M160,42 L172,42" stroke="#404040" />
<rect x="170" y="40" width="4" height="4" fill="white" stroke="black" stroke-width="1" />
<path d="M172,175 L165,175" stroke="#404040" />
<rect x="170" y="173" width="4" height="4" fill="white" stroke="black" stroke-width="1" />
</svg>