<?xml version="1.0" encoding="UTF-8"?>
<svg xmlns="http://www.w3.org/2000/svg" xmlns:xlink="http://www.w3.org/1999/xlink"
     width="1326" height="301" viewBox="-548 -20 1326 301">
<defs>
</defs>
<rect x="3" y="3" width="230" height="251" fill="#000000" fill-opacity="0.1" rx="2" ry="2" />
<path d="M0,0 H230 V144 H224 V184 H230 V251 H0 V184 H6 V144 H0 Z" fill="#ffffff" stroke="#000000" stroke-width="2" />
<path d="M0,30 L230,30" stroke="#000000" stroke-width="1" />
<text x="115.0" y="162.0" font-size="14" fontWeight="bold" font-family="Verdana, sans-serif" font-style="italic" text-anchor="middle" dominant-baseline="central">AX_T_FF_SR_SYM_INIT</text>
<text x="115.0" y="176.0" font-size="10" fill="#000" font-family="Consolas, monospace" text-anchor="middle" dominant-baseline="central">3.0</text>
<path d="M-5,37 L-5,47 L0,42 Z" fill="#63B31F" stroke="none" />
<text x="12" y="46" font-size="12" text-anchor="start" font-family="Consolas, monospace">INIT</text>
<text x="-23" y="45" font-size="11" text-anchor="end" fill="#888" font-style="italic" font-family="Verdana, sans-serif">Event</text>
<text x="-122" y="45" font-size="11" text-anchor="end" fill="#666666" font-family="Verdana, sans-serif">Initialization Request</text>
<path d="M-5,63 L-5,73 L0,68 Z" fill="#63B31F" stroke="none" />
<text x="12" y="72" font-size="12" text-anchor="start" font-family="Consolas, monospace">S</text>
<text x="-23" y="71" font-size="11" text-anchor="end" fill="#888" font-style="italic" font-family="Verdana, sans-serif">Event</text>
<text x="-122" y="71" font-size="11" text-anchor="end" fill="#666666" font-family="Verdana, sans-serif">Set output Q</text>
<path d="M-5,89 L-5,99 L0,94 Z" fill="#63B31F" stroke="none" />
<text x="12" y="98" font-size="12" text-anchor="start" font-family="Consolas, monospace">R</text>
<text x="-23" y="97" font-size="11" text-anchor="end" fill="#888" font-style="italic" font-family="Verdana, sans-serif">Event</text>
<text x="-122" y="97" font-size="11" text-anchor="end" fill="#666666" font-family="Verdana, sans-serif">Reset output Q</text>
<path d="M-5,115 L-5,125 L0,120 Z" fill="#63B31F" stroke="none" />
<text x="12" y="124" font-size="12" text-anchor="start" font-family="Consolas, monospace">CLK</text>
<text x="-23" y="123" font-size="11" text-anchor="end" fill="#888" font-style="italic" font-family="Verdana, sans-serif">Event</text>
<text x="-122" y="123" font-size="11" text-anchor="end" fill="#666666" font-family="Verdana, sans-serif">Clock for triggering a output toggle</text>
<path d="M-5,196 L-5,206 L0,201 Z" fill="#9FA48A" stroke="none" />
<text x="12" y="205" font-size="12" text-anchor="start" font-family="Consolas, monospace">QI</text>
<text x="-23" y="204" font-size="11" text-anchor="end" fill="#9FA48A" font-style="italic" font-family="Verdana, sans-serif">BOOL</text>
<text x="-122" y="204" font-size="11" text-anchor="end" fill="#666666" font-family="Verdana, sans-serif">Input event qualifier</text>
<path d="M-5,222 L-5,232 L0,227 Z" fill="#9FA48A" stroke="none" />
<text x="12" y="231" font-size="12" text-anchor="start" font-family="Consolas, monospace">Q_INIT</text>
<text x="-23" y="230" font-size="11" text-anchor="end" fill="#9FA48A" font-style="italic" font-family="Verdana, sans-serif">BOOL</text>
<text x="-122" y="230" font-size="11" text-anchor="end" fill="#666666" font-family="Verdana, sans-serif">Value of Q at INIT</text>
<path d="M230,37 L230,47 L235,42 Z" fill="#63B31F" stroke="none" />
<text x="218" y="46" font-size="12" text-anchor="end" font-family="Consolas, monospace">INITO</text>
<text x="253" y="45" font-size="11" text-anchor="start" fill="#888" font-style="italic" font-family="Verdana, sans-serif">Event</text>
<text x="323" y="45" font-size="11" text-anchor="start" fill="#666666" font-family="Verdana, sans-serif">Initialization Confirm</text>
<rect x="225.0" y="196.0" width="10" height="10" fill="#845DAF" stroke="none" />
<text x="218" y="205" font-size="12" text-anchor="end" font-family="Consolas, monospace">Q</text>
<text x="253" y="204" font-size="11" text-anchor="start" fill="#000" font-style="italic" font-family="Verdana, sans-serif">AX</text>
<text x="323" y="204" font-size="11" text-anchor="start" fill="#666666" font-family="Verdana, sans-serif">value of flip flop</text>
<path d="M230,222 L230,232 L235,227 Z" fill="#9FA48A" stroke="none" />
<text x="218" y="231" font-size="12" text-anchor="end" font-family="Consolas, monospace">QO</text>
<text x="253" y="230" font-size="11" text-anchor="start" fill="#9FA48A" font-style="italic" font-family="Verdana, sans-serif">BOOL</text>
<text x="323" y="230" font-size="11" text-anchor="start" fill="#666666" font-family="Verdana, sans-serif">Output event qualifier</text>
<path d="M-12,42 L-12,227" stroke="#404040" stroke-width="1" />
<path d="M0,42 L-12,42" stroke="#404040" />
<rect x="-14" y="40" width="4" height="4" fill="white" stroke="black" stroke-width="1" />
<path d="M-12,201 L-5,201" stroke="#404040" />
<rect x="-14" y="199" width="4" height="4" fill="white" stroke="black" stroke-width="1" />
<path d="M-12,227 L-5,227" stroke="#404040" />
<rect x="-14" y="225" width="4" height="4" fill="white" stroke="black" stroke-width="1" />
<path d="M242,42 L242,227" stroke="#404040" stroke-width="1" />
<path d="M230,42 L242,42" stroke="#404040" />
<rect x="240" y="40" width="4" height="4" fill="white" stroke="black" stroke-width="1" />
<path d="M242,227 L235,227" stroke="#404040" />
<rect x="240" y="225" width="4" height="4" fill="white" stroke="black" stroke-width="1" />
</svg>