<?xml version="1.0" encoding="UTF-8"?>
<svg xmlns="http://www.w3.org/2000/svg" xmlns:xlink="http://www.w3.org/1999/xlink"
     width="1318" height="275" viewBox="-540 -20 1318 275">
<defs>
</defs>
<rect x="3" y="3" width="230" height="225" fill="#000000" fill-opacity="0.1" rx="2" ry="2" />
<path d="M0,0 H230 V118 H224 V158 H230 V225 H0 V158 H6 V118 H0 Z" fill="#ffffff" stroke="#000000" stroke-width="2" />
<path d="M0,30 L230,30" stroke="#000000" stroke-width="1" />
<text x="115.0" y="136.0" font-size="14" fontWeight="bold" font-family="Verdana, sans-serif" font-style="italic" text-anchor="middle" dominant-baseline="central">E_T_FF_SR_SYM_STORE</text>
<text x="115.0" y="150.0" font-size="10" fill="#000" font-family="Consolas, monospace" text-anchor="middle" dominant-baseline="central">1.0</text>
<path d="M-5,37 L-5,47 L0,42 Z" fill="#63B31F" stroke="none" />
<text x="12" y="46" font-size="12" text-anchor="start" font-family="Consolas, monospace">S</text>
<text x="-15" y="45" font-size="11" text-anchor="end" fill="#888" font-style="italic" font-family="Verdana, sans-serif">Event</text>
<text x="-114" y="45" font-size="11" text-anchor="end" fill="#666666" font-family="Verdana, sans-serif">Set output Q</text>
<path d="M-5,63 L-5,73 L0,68 Z" fill="#63B31F" stroke="none" />
<text x="12" y="72" font-size="12" text-anchor="start" font-family="Consolas, monospace">R</text>
<text x="-15" y="71" font-size="11" text-anchor="end" fill="#888" font-style="italic" font-family="Verdana, sans-serif">Event</text>
<text x="-114" y="71" font-size="11" text-anchor="end" fill="#666666" font-family="Verdana, sans-serif">Reset output Q</text>
<path d="M-5,89 L-5,99 L0,94 Z" fill="#63B31F" stroke="none" />
<text x="12" y="98" font-size="12" text-anchor="start" font-family="Consolas, monospace">CLK</text>
<text x="-15" y="97" font-size="11" text-anchor="end" fill="#888" font-style="italic" font-family="Verdana, sans-serif">Event</text>
<text x="-114" y="97" font-size="11" text-anchor="end" fill="#666666" font-family="Verdana, sans-serif">Clock for triggering a output toggle</text>
<path d="M230,37 L230,47 L235,42 Z" fill="#63B31F" stroke="none" />
<text x="218" y="46" font-size="12" text-anchor="end" font-family="Consolas, monospace">EO</text>
<text x="253" y="45" font-size="11" text-anchor="start" fill="#888" font-style="italic" font-family="Verdana, sans-serif">Event</text>
<text x="323" y="45" font-size="11" text-anchor="start" fill="#666666" font-family="Verdana, sans-serif">Output Q has changed</text>
<rect x="225.0" y="170.0" width="10" height="10" fill="#845DAF" stroke="none" />
<text x="218" y="179" font-size="12" text-anchor="end" font-family="Consolas, monospace">Q_INIT</text>
<text x="253" y="178" font-size="11" text-anchor="start" fill="#000" font-style="italic" font-family="Verdana, sans-serif">AX2</text>
<text x="323" y="178" font-size="11" text-anchor="start" fill="#666666" font-family="Verdana, sans-serif">Value of Q at INIT</text>
<path d="M230,196 L230,206 L235,201 Z" fill="#9FA48A" stroke="none" />
<text x="218" y="205" font-size="12" text-anchor="end" font-family="Consolas, monospace">Q</text>
<text x="253" y="204" font-size="11" text-anchor="start" fill="#9FA48A" font-style="italic" font-family="Verdana, sans-serif">BOOL</text>
<text x="323" y="204" font-size="11" text-anchor="start" fill="#666666" font-family="Verdana, sans-serif">value of flip flop</text>
<path d="M242,42 L242,201" stroke="#404040" stroke-width="1" />
<path d="M230,42 L242,42" stroke="#404040" />
<rect x="240" y="40" width="4" height="4" fill="white" stroke="black" stroke-width="1" />
<path d="M242,201 L235,201" stroke="#404040" />
<rect x="240" y="199" width="4" height="4" fill="white" stroke="black" stroke-width="1" />
</svg>