<?xml version="1.0" encoding="UTF-8"?>
<svg xmlns="http://www.w3.org/2000/svg" xmlns:xlink="http://www.w3.org/1999/xlink"
     width="1200" height="800" viewBox="0 0 1200 800">
<defs>
</defs>
<rect x="0" y="0" width="1200" height="800" fill="#ffffff" />
<text x="600" y="25" font-size="14" fontWeight="bold" font-family="Verdana, sans-serif" fill="#000000" text-anchor="middle" dominant-baseline="central">ECC: AX_FB_RS_T_FF</text>
<rect x="204.84157298158257" y="384.0" width="80" height="32" fill="#f5f5f5" stroke="#000000" stroke-width="2" rx="8" ry="8" />
<text x="244.84157298158257" y="400.0" font-size="12" fontWeight="bold" font-family="Verdana, sans-serif" fill="#000000" text-anchor="middle" dominant-baseline="central">REQ</text>
<rect x="294.84157298158254" y="384.0" width="161" height="22" fill="#ffffff" stroke="#cccccc" stroke-width="1" rx="4" ry="4" />
<path d="M284.84157298158254,400.0 L294.84157298158254,395.0" stroke="#000000" stroke-width="2" />
<path d="M374.84157298158254,384.0 L374.84157298158254,406.0" stroke="#cccccc" stroke-width="1" />
<rect x="294.84157298158254" y="388.0" width="80" height="14" fill="#e6f7e6" stroke="#cccccc" stroke-width="0.5" />
<text x="334.84157298158254" y="396.0" font-size="10" font-family="Consolas, monospace" fill="#000000" text-anchor="middle" dominant-baseline="central">REQ</text>
<rect x="375.84157298158254" y="388.0" width="80" height="14" fill="#ffe6e6" stroke="#cccccc" stroke-width="0.5" />
<text x="415.84157298158254" y="396.0" font-size="10" font-family="Consolas, monospace" fill="#000000" text-anchor="middle" dominant-baseline="central">Q1.E1</text>
<path d="M264.84157298158254,416.0 C324.84157298158254,472.0,164.84157298158257,472.0,224.84157298158257,416.0" stroke="#404040" stroke-width="1.2" fill="none" />
<path d="M224.84157298158257,416.0 L222.50594651207246,423.6514605791916 L217.04740050919236,417.80301843324867 L224.84157298158257,416.0" fill="#404040" stroke="#404040" stroke-width="1" />
<g transform="translate(244.84157298158254,436.0)">
<rect x="-33.25" y="-7.5" width="66.5" height="15" fill="#ffffff" opacity="0.9" rx="3" ry="3" />
<text x="0" y="3.5" font-size="10" font-family="Consolas, monospace" fill="#000000" text-anchor="middle" dominant-baseline="central">RESET1.E1</text>
</g>
<path d="M264.84157298158254,416.0 C324.84157298158254,497.0,164.84157298158257,497.0,224.84157298158257,416.0" stroke="#404040" stroke-width="1.2" fill="none" />
<path d="M224.84157298158257,416.0 L223.93194431596734,423.9481177451451 L217.5034867692094,419.1862973401392 L224.84157298158257,416.0" fill="#404040" stroke="#404040" stroke-width="1" />
<g transform="translate(244.84157298158254,466.5)">
<rect x="-23.5" y="-7.5" width="47.0" height="15" fill="#ffffff" opacity="0.9" rx="3" ry="3" />
<text x="0" y="3.5" font-size="10" font-family="Consolas, monospace" fill="#000000" text-anchor="middle" dominant-baseline="central">SET.E1</text>
</g>
<path d="M264.84157298158254,416.0 C324.84157298158254,522.0,164.84157298158257,522.0,224.84157298158257,416.0" stroke="#404040" stroke-width="1.2" fill="none" />
<path d="M224.84157298158257,416.0 L224.9097798238634,423.9997092338826 L217.94772498329175,420.0589234750684 L224.84157298158257,416.0" fill="#404040" stroke="#404040" stroke-width="1" />
<g transform="translate(244.84157298158254,497.0)">
<rect x="-23.5" y="-7.5" width="47.0" height="15" fill="#ffffff" opacity="0.9" rx="3" ry="3" />
<text x="0" y="3.5" font-size="10" font-family="Consolas, monospace" fill="#000000" text-anchor="middle" dominant-baseline="central">CLK.E1</text>
</g>
</svg>