<?xml version="1.0" encoding="UTF-8"?>
<svg xmlns="http://www.w3.org/2000/svg" xmlns:xlink="http://www.w3.org/1999/xlink"
     width="1012" height="353" viewBox="-564 -20 1012 353">
<defs>
</defs>
<rect x="3" y="3" width="150" height="303" fill="#000000" fill-opacity="0.1" rx="2" ry="2" />
<path d="M0,0 H150 V118 H144 V158 H150 V303 H0 V158 H6 V118 H0 Z" fill="#ffffff" stroke="#606060" stroke-width="2" />
<path d="M0,30 L150,30" stroke="#606060" stroke-width="1" />
<text x="75.0" y="136.0" font-size="14" fontWeight="bold" font-family="Verdana, sans-serif" font-style="italic" text-anchor="middle" dominant-baseline="central">RT_E_SELECT</text>
<text x="75.0" y="150.0" font-size="10" fill="#000" font-family="Consolas, monospace" text-anchor="middle" dominant-baseline="central">3.0</text>
<path d="M-5,37 L-5,47 L0,42 Z" fill="#5cb85c" stroke="none" />
<text x="12" y="46" font-size="12" text-anchor="start" font-family="Consolas, monospace">INIT</text>
<text x="-39" y="45" font-size="11" text-anchor="end" fill="#888" font-style="italic" font-family="Verdana, sans-serif">Event</text>
<path d="M-5,63 L-5,73 L0,68 Z" fill="#5cb85c" stroke="none" />
<text x="12" y="72" font-size="12" text-anchor="start" font-family="Consolas, monospace">EI0</text>
<text x="-39" y="71" font-size="11" text-anchor="end" fill="#888" font-style="italic" font-family="Verdana, sans-serif">Event</text>
<text x="-109" y="71" font-size="11" text-anchor="end" fill="#666666" font-family="Verdana, sans-serif">Input event,selected when G=0</text>
<path d="M-5,89 L-5,99 L0,94 Z" fill="#5cb85c" stroke="none" />
<text x="12" y="98" font-size="12" text-anchor="start" font-family="Consolas, monospace">EI1</text>
<text x="-39" y="97" font-size="11" text-anchor="end" fill="#888" font-style="italic" font-family="Verdana, sans-serif">Event</text>
<text x="-109" y="97" font-size="11" text-anchor="end" fill="#666666" font-family="Verdana, sans-serif">Input event,selected when G=1</text>
<path d="M-5,170 L-5,180 L0,175 Z" fill="#0066cc" stroke="none" />
<text x="12" y="179" font-size="12" text-anchor="start" font-family="Consolas, monospace">QI</text>
<text x="-39" y="178" font-size="11" text-anchor="end" fill="#0066cc" font-style="italic" font-family="Verdana, sans-serif">BOOL</text>
<path d="M-5,196 L-5,206 L0,201 Z" fill="#0066cc" stroke="none" />
<text x="12" y="205" font-size="12" text-anchor="start" font-family="Consolas, monospace">G</text>
<text x="-39" y="204" font-size="11" text-anchor="end" fill="#0066cc" font-style="italic" font-family="Verdana, sans-serif">BOOL</text>
<text x="-109" y="204" font-size="11" text-anchor="end" fill="#666666" font-family="Verdana, sans-serif">Select EI0 when G=0,EI1 when G=1</text>
<path d="M-5,222 L-5,232 L0,227 Z" fill="#0066cc" stroke="none" />
<text x="12" y="231" font-size="12" text-anchor="start" font-family="Consolas, monospace">Tmin</text>
<text x="-39" y="230" font-size="11" text-anchor="end" fill="#0066cc" font-style="italic" font-family="Verdana, sans-serif">TIME</text>
<path d="M-5,248 L-5,258 L0,253 Z" fill="#0066cc" stroke="none" />
<text x="12" y="257" font-size="12" text-anchor="start" font-family="Consolas, monospace">Deadline</text>
<text x="-39" y="256" font-size="11" text-anchor="end" fill="#0066cc" font-style="italic" font-family="Verdana, sans-serif">TIME</text>
<path d="M-5,274 L-5,284 L0,279 Z" fill="#0066cc" stroke="none" />
<text x="12" y="283" font-size="12" text-anchor="start" font-family="Consolas, monospace">WCET</text>
<text x="-39" y="282" font-size="11" text-anchor="end" fill="#0066cc" font-style="italic" font-family="Verdana, sans-serif">TIME</text>
<path d="M150,37 L150,47 L155,42 Z" fill="#5cb85c" stroke="none" />
<text x="138" y="46" font-size="12" text-anchor="end" font-family="Consolas, monospace">INITO</text>
<text x="173" y="45" font-size="11" text-anchor="start" fill="#888" font-style="italic" font-family="Verdana, sans-serif">Event</text>
<path d="M150,63 L150,73 L155,68 Z" fill="#5cb85c" stroke="none" />
<text x="138" y="72" font-size="12" text-anchor="end" font-family="Consolas, monospace">EO</text>
<text x="173" y="71" font-size="11" text-anchor="start" fill="#888" font-style="italic" font-family="Verdana, sans-serif">Event</text>
<text x="243" y="71" font-size="11" text-anchor="start" fill="#666666" font-family="Verdana, sans-serif">Output Event</text>
<path d="M150,170 L150,180 L155,175 Z" fill="#0066cc" stroke="none" />
<text x="138" y="179" font-size="12" text-anchor="end" font-family="Consolas, monospace">QO</text>
<text x="173" y="178" font-size="11" text-anchor="start" fill="#0066cc" font-style="italic" font-family="Verdana, sans-serif">BOOL</text>
<path d="M-12,42 L-12,279" stroke="#404040" stroke-width="1" />
<path d="M0,42 L-12,42" stroke="#404040" />
<rect x="-14" y="40" width="4" height="4" fill="white" stroke="black" stroke-width="1" />
<path d="M-12,175 L-5,175" stroke="#404040" />
<rect x="-14" y="173" width="4" height="4" fill="white" stroke="black" stroke-width="1" />
<path d="M-12,227 L-5,227" stroke="#404040" />
<rect x="-14" y="225" width="4" height="4" fill="white" stroke="black" stroke-width="1" />
<path d="M-12,253 L-5,253" stroke="#404040" />
<rect x="-14" y="251" width="4" height="4" fill="white" stroke="black" stroke-width="1" />
<path d="M-12,279 L-5,279" stroke="#404040" />
<rect x="-14" y="277" width="4" height="4" fill="white" stroke="black" stroke-width="1" />
<path d="M-20,68 L-20,201" stroke="#404040" stroke-width="1" />
<path d="M0,68 L-20,68" stroke="#404040" />
<rect x="-22" y="66" width="4" height="4" fill="white" stroke="black" stroke-width="1" />
<path d="M-20,201 L-5,201" stroke="#404040" />
<rect x="-22" y="199" width="4" height="4" fill="white" stroke="black" stroke-width="1" />
<path d="M-28,94 L-28,201" stroke="#404040" stroke-width="1" />
<path d="M0,94 L-28,94" stroke="#404040" />
<rect x="-30" y="92" width="4" height="4" fill="white" stroke="black" stroke-width="1" />
<path d="M-28,201 L-5,201" stroke="#404040" />
<rect x="-30" y="199" width="4" height="4" fill="white" stroke="black" stroke-width="1" />
<path d="M162,42 L162,175" stroke="#404040" stroke-width="1" />
<path d="M150,42 L162,42" stroke="#404040" />
<rect x="160" y="40" width="4" height="4" fill="white" stroke="black" stroke-width="1" />
<path d="M162,175 L155,175" stroke="#404040" />
<rect x="160" y="173" width="4" height="4" fill="white" stroke="black" stroke-width="1" />
</svg>