<?xml version="1.0" encoding="UTF-8"?>
<svg xmlns="http://www.w3.org/2000/svg" xmlns:xlink="http://www.w3.org/1999/xlink"
     width="976" height="353" viewBox="-548 -20 976 353">
<defs>
</defs>
<rect x="3" y="3" width="130" height="303" fill="#000000" fill-opacity="0.1" rx="2" ry="2" />
<path d="M0,0 H130 V144 H124 V184 H130 V303 H0 V184 H6 V144 H0 Z" fill="#ffffff" stroke="#000000" stroke-width="2" />
<path d="M0,30 L130,30" stroke="#000000" stroke-width="1" />
<text x="65.0" y="162.0" font-size="14" fontWeight="bold" font-family="Verdana, sans-serif" font-style="italic" text-anchor="middle" dominant-baseline="central">RT_E_REND</text>
<text x="65.0" y="176.0" font-size="10" fill="#000" font-family="Consolas, monospace" text-anchor="middle" dominant-baseline="central">3.0</text>
<path d="M-5,37 L-5,47 L0,42 Z" fill="#63B31F" stroke="none" />
<text x="12" y="46" font-size="12" text-anchor="start" font-family="Consolas, monospace">INIT</text>
<text x="-23" y="45" font-size="11" text-anchor="end" fill="#888" font-style="italic" font-family="Verdana, sans-serif">Event</text>
<path d="M-5,63 L-5,73 L0,68 Z" fill="#63B31F" stroke="none" />
<text x="12" y="72" font-size="12" text-anchor="start" font-family="Consolas, monospace">EI1</text>
<text x="-23" y="71" font-size="11" text-anchor="end" fill="#888" font-style="italic" font-family="Verdana, sans-serif">Event</text>
<text x="-93" y="71" font-size="11" text-anchor="end" fill="#666666" font-family="Verdana, sans-serif">First Event Input</text>
<path d="M-5,89 L-5,99 L0,94 Z" fill="#63B31F" stroke="none" />
<text x="12" y="98" font-size="12" text-anchor="start" font-family="Consolas, monospace">EI2</text>
<text x="-23" y="97" font-size="11" text-anchor="end" fill="#888" font-style="italic" font-family="Verdana, sans-serif">Event</text>
<text x="-93" y="97" font-size="11" text-anchor="end" fill="#666666" font-family="Verdana, sans-serif">Second Event Input</text>
<path d="M-5,115 L-5,125 L0,120 Z" fill="#63B31F" stroke="none" />
<text x="12" y="124" font-size="12" text-anchor="start" font-family="Consolas, monospace">R</text>
<text x="-23" y="123" font-size="11" text-anchor="end" fill="#888" font-style="italic" font-family="Verdana, sans-serif">Event</text>
<text x="-93" y="123" font-size="11" text-anchor="end" fill="#666666" font-family="Verdana, sans-serif">Reset Event</text>
<path d="M-5,196 L-5,206 L0,201 Z" fill="#9FA48A" stroke="none" />
<text x="12" y="205" font-size="12" text-anchor="start" font-family="Consolas, monospace">QI</text>
<text x="-23" y="204" font-size="11" text-anchor="end" fill="#9FA48A" font-style="italic" font-family="Verdana, sans-serif">BOOL</text>
<path d="M-5,222 L-5,232 L0,227 Z" fill="#0000FF" stroke="none" />
<text x="12" y="231" font-size="12" text-anchor="start" font-family="Consolas, monospace">Tmin</text>
<text x="-23" y="230" font-size="11" text-anchor="end" fill="#0000FF" font-style="italic" font-family="Verdana, sans-serif">TIME</text>
<path d="M-5,248 L-5,258 L0,253 Z" fill="#0000FF" stroke="none" />
<text x="12" y="257" font-size="12" text-anchor="start" font-family="Consolas, monospace">Deadline</text>
<text x="-23" y="256" font-size="11" text-anchor="end" fill="#0000FF" font-style="italic" font-family="Verdana, sans-serif">TIME</text>
<path d="M-5,274 L-5,284 L0,279 Z" fill="#0000FF" stroke="none" />
<text x="12" y="283" font-size="12" text-anchor="start" font-family="Consolas, monospace">WCET</text>
<text x="-23" y="282" font-size="11" text-anchor="end" fill="#0000FF" font-style="italic" font-family="Verdana, sans-serif">TIME</text>
<path d="M130,37 L130,47 L135,42 Z" fill="#63B31F" stroke="none" />
<text x="118" y="46" font-size="12" text-anchor="end" font-family="Consolas, monospace">INITO</text>
<text x="153" y="45" font-size="11" text-anchor="start" fill="#888" font-style="italic" font-family="Verdana, sans-serif">Event</text>
<path d="M130,63 L130,73 L135,68 Z" fill="#63B31F" stroke="none" />
<text x="118" y="72" font-size="12" text-anchor="end" font-family="Consolas, monospace">EO</text>
<text x="153" y="71" font-size="11" text-anchor="start" fill="#888" font-style="italic" font-family="Verdana, sans-serif">Event</text>
<text x="223" y="71" font-size="11" text-anchor="start" fill="#666666" font-family="Verdana, sans-serif">Rendezvous Output Event</text>
<path d="M130,196 L130,206 L135,201 Z" fill="#9FA48A" stroke="none" />
<text x="118" y="205" font-size="12" text-anchor="end" font-family="Consolas, monospace">QO</text>
<text x="153" y="204" font-size="11" text-anchor="start" fill="#9FA48A" font-style="italic" font-family="Verdana, sans-serif">BOOL</text>
<path d="M-12,42 L-12,279" stroke="#404040" stroke-width="1" />
<path d="M0,42 L-12,42" stroke="#404040" />
<rect x="-14" y="40" width="4" height="4" fill="white" stroke="black" stroke-width="1" />
<path d="M-12,201 L-5,201" stroke="#404040" />
<rect x="-14" y="199" width="4" height="4" fill="white" stroke="black" stroke-width="1" />
<path d="M-12,227 L-5,227" stroke="#404040" />
<rect x="-14" y="225" width="4" height="4" fill="white" stroke="black" stroke-width="1" />
<path d="M-12,253 L-5,253" stroke="#404040" />
<rect x="-14" y="251" width="4" height="4" fill="white" stroke="black" stroke-width="1" />
<path d="M-12,279 L-5,279" stroke="#404040" />
<rect x="-14" y="277" width="4" height="4" fill="white" stroke="black" stroke-width="1" />
<path d="M142,42 L142,201" stroke="#404040" stroke-width="1" />
<path d="M130,42 L142,42" stroke="#404040" />
<rect x="140" y="40" width="4" height="4" fill="white" stroke="black" stroke-width="1" />
<path d="M142,201 L135,201" stroke="#404040" />
<rect x="140" y="199" width="4" height="4" fill="white" stroke="black" stroke-width="1" />
</svg>