<?xml version="1.0" encoding="UTF-8"?>
<svg xmlns="http://www.w3.org/2000/svg" xmlns:xlink="http://www.w3.org/1999/xlink"
     width="994" height="561" viewBox="-556 -20 994 561">
<defs>
</defs>
<rect x="3" y="3" width="140" height="511" fill="#000000" fill-opacity="0.1" rx="2" ry="2" />
<path d="M0,0 H140 V170 H134 V210 H140 V511 H0 V210 H6 V170 H0 Z" fill="#ffffff" stroke="#000000" stroke-width="2" />
<path d="M0,30 L140,30" stroke="#000000" stroke-width="1" />
<text x="70.0" y="188.0" font-size="14" fontWeight="bold" font-family="Verdana, sans-serif" font-style="italic" text-anchor="middle" dominant-baseline="central">RT_E_DEMUX</text>
<text x="70.0" y="202.0" font-size="10" fill="#000" font-family="Consolas, monospace" text-anchor="middle" dominant-baseline="central">3.0</text>
<path d="M-5,37 L-5,47 L0,42 Z" fill="#63B31F" stroke="none" />
<text x="12" y="46" font-size="12" text-anchor="start" font-family="Consolas, monospace">INIT</text>
<text x="-31" y="45" font-size="11" text-anchor="end" fill="#888" font-style="italic" font-family="Verdana, sans-serif">Event</text>
<path d="M-5,63 L-5,73 L0,68 Z" fill="#63B31F" stroke="none" />
<text x="12" y="72" font-size="12" text-anchor="start" font-family="Consolas, monospace">EI</text>
<text x="-31" y="71" font-size="11" text-anchor="end" fill="#888" font-style="italic" font-family="Verdana, sans-serif">Event</text>
<text x="-101" y="71" font-size="11" text-anchor="end" fill="#666666" font-family="Verdana, sans-serif">Event to demultiplex</text>
<path d="M-5,222 L-5,232 L0,227 Z" fill="#9FA48A" stroke="none" />
<text x="12" y="231" font-size="12" text-anchor="start" font-family="Consolas, monospace">QI</text>
<text x="-31" y="230" font-size="11" text-anchor="end" fill="#9FA48A" font-style="italic" font-family="Verdana, sans-serif">BOOL</text>
<path d="M-5,248 L-5,258 L0,253 Z" fill="#18519E" stroke="none" />
<text x="12" y="257" font-size="12" text-anchor="start" font-family="Consolas, monospace">K</text>
<text x="-31" y="256" font-size="11" text-anchor="end" fill="#18519E" font-style="italic" font-family="Verdana, sans-serif">UINT</text>
<text x="-132" y="256" font-size="11" text-anchor="end" fill="#666666" font-family="Verdana, sans-serif">Event index,maximum is implementation dependent</text>
<path d="M-5,274 L-5,284 L0,279 Z" fill="#0000FF" stroke="none" />
<text x="12" y="283" font-size="12" text-anchor="start" font-family="Consolas, monospace">Tmin</text>
<text x="-31" y="282" font-size="11" text-anchor="end" fill="#0000FF" font-style="italic" font-family="Verdana, sans-serif">TIME</text>
<path d="M-5,300 L-5,310 L0,305 Z" fill="#0000FF" stroke="none" />
<text x="12" y="309" font-size="12" text-anchor="start" font-family="Consolas, monospace">Deadline0</text>
<text x="-31" y="308" font-size="11" text-anchor="end" fill="#0000FF" font-style="italic" font-family="Verdana, sans-serif">TIME</text>
<path d="M-5,326 L-5,336 L0,331 Z" fill="#0000FF" stroke="none" />
<text x="12" y="335" font-size="12" text-anchor="start" font-family="Consolas, monospace">WCET0</text>
<text x="-31" y="334" font-size="11" text-anchor="end" fill="#0000FF" font-style="italic" font-family="Verdana, sans-serif">TIME</text>
<path d="M-5,352 L-5,362 L0,357 Z" fill="#0000FF" stroke="none" />
<text x="12" y="361" font-size="12" text-anchor="start" font-family="Consolas, monospace">Deadline1</text>
<text x="-31" y="360" font-size="11" text-anchor="end" fill="#0000FF" font-style="italic" font-family="Verdana, sans-serif">TIME</text>
<path d="M-5,378 L-5,388 L0,383 Z" fill="#0000FF" stroke="none" />
<text x="12" y="387" font-size="12" text-anchor="start" font-family="Consolas, monospace">WCET1</text>
<text x="-31" y="386" font-size="11" text-anchor="end" fill="#0000FF" font-style="italic" font-family="Verdana, sans-serif">TIME</text>
<path d="M-5,404 L-5,414 L0,409 Z" fill="#0000FF" stroke="none" />
<text x="12" y="413" font-size="12" text-anchor="start" font-family="Consolas, monospace">Deadline2</text>
<text x="-31" y="412" font-size="11" text-anchor="end" fill="#0000FF" font-style="italic" font-family="Verdana, sans-serif">TIME</text>
<path d="M-5,430 L-5,440 L0,435 Z" fill="#0000FF" stroke="none" />
<text x="12" y="439" font-size="12" text-anchor="start" font-family="Consolas, monospace">WCET2</text>
<text x="-31" y="438" font-size="11" text-anchor="end" fill="#0000FF" font-style="italic" font-family="Verdana, sans-serif">TIME</text>
<path d="M-5,456 L-5,466 L0,461 Z" fill="#0000FF" stroke="none" />
<text x="12" y="465" font-size="12" text-anchor="start" font-family="Consolas, monospace">Deadline3</text>
<text x="-31" y="464" font-size="11" text-anchor="end" fill="#0000FF" font-style="italic" font-family="Verdana, sans-serif">TIME</text>
<path d="M-5,482 L-5,492 L0,487 Z" fill="#0000FF" stroke="none" />
<text x="12" y="491" font-size="12" text-anchor="start" font-family="Consolas, monospace">WCET3</text>
<text x="-31" y="490" font-size="11" text-anchor="end" fill="#0000FF" font-style="italic" font-family="Verdana, sans-serif">TIME</text>
<path d="M140,37 L140,47 L145,42 Z" fill="#63B31F" stroke="none" />
<text x="128" y="46" font-size="12" text-anchor="end" font-family="Consolas, monospace">INITO</text>
<text x="163" y="45" font-size="11" text-anchor="start" fill="#888" font-style="italic" font-family="Verdana, sans-serif">Event</text>
<path d="M140,63 L140,73 L145,68 Z" fill="#63B31F" stroke="none" />
<text x="128" y="72" font-size="12" text-anchor="end" font-family="Consolas, monospace">EO0</text>
<text x="163" y="71" font-size="11" text-anchor="start" fill="#888" font-style="italic" font-family="Verdana, sans-serif">Event</text>
<path d="M140,89 L140,99 L145,94 Z" fill="#63B31F" stroke="none" />
<text x="128" y="98" font-size="12" text-anchor="end" font-family="Consolas, monospace">EO1</text>
<text x="163" y="97" font-size="11" text-anchor="start" fill="#888" font-style="italic" font-family="Verdana, sans-serif">Event</text>
<path d="M140,115 L140,125 L145,120 Z" fill="#63B31F" stroke="none" />
<text x="128" y="124" font-size="12" text-anchor="end" font-family="Consolas, monospace">EO2</text>
<text x="163" y="123" font-size="11" text-anchor="start" fill="#888" font-style="italic" font-family="Verdana, sans-serif">Event</text>
<path d="M140,141 L140,151 L145,146 Z" fill="#63B31F" stroke="none" />
<text x="128" y="150" font-size="12" text-anchor="end" font-family="Consolas, monospace">EO3</text>
<text x="163" y="149" font-size="11" text-anchor="start" fill="#888" font-style="italic" font-family="Verdana, sans-serif">Event</text>
<text x="233" y="149" font-size="11" text-anchor="start" fill="#666666" font-family="Verdana, sans-serif">Number of outputs is implementation dependent</text>
<path d="M140,222 L140,232 L145,227 Z" fill="#9FA48A" stroke="none" />
<text x="128" y="231" font-size="12" text-anchor="end" font-family="Consolas, monospace">QO</text>
<text x="163" y="230" font-size="11" text-anchor="start" fill="#9FA48A" font-style="italic" font-family="Verdana, sans-serif">BOOL</text>
<path d="M-12,42 L-12,487" stroke="#404040" stroke-width="1" />
<path d="M0,42 L-12,42" stroke="#404040" />
<rect x="-14" y="40" width="4" height="4" fill="white" stroke="black" stroke-width="1" />
<path d="M-12,227 L-5,227" stroke="#404040" />
<rect x="-14" y="225" width="4" height="4" fill="white" stroke="black" stroke-width="1" />
<path d="M-12,279 L-5,279" stroke="#404040" />
<rect x="-14" y="277" width="4" height="4" fill="white" stroke="black" stroke-width="1" />
<path d="M-12,305 L-5,305" stroke="#404040" />
<rect x="-14" y="303" width="4" height="4" fill="white" stroke="black" stroke-width="1" />
<path d="M-12,331 L-5,331" stroke="#404040" />
<rect x="-14" y="329" width="4" height="4" fill="white" stroke="black" stroke-width="1" />
<path d="M-12,357 L-5,357" stroke="#404040" />
<rect x="-14" y="355" width="4" height="4" fill="white" stroke="black" stroke-width="1" />
<path d="M-12,383 L-5,383" stroke="#404040" />
<rect x="-14" y="381" width="4" height="4" fill="white" stroke="black" stroke-width="1" />
<path d="M-12,409 L-5,409" stroke="#404040" />
<rect x="-14" y="407" width="4" height="4" fill="white" stroke="black" stroke-width="1" />
<path d="M-12,435 L-5,435" stroke="#404040" />
<rect x="-14" y="433" width="4" height="4" fill="white" stroke="black" stroke-width="1" />
<path d="M-12,461 L-5,461" stroke="#404040" />
<rect x="-14" y="459" width="4" height="4" fill="white" stroke="black" stroke-width="1" />
<path d="M-12,487 L-5,487" stroke="#404040" />
<rect x="-14" y="485" width="4" height="4" fill="white" stroke="black" stroke-width="1" />
<path d="M-20,68 L-20,253" stroke="#404040" stroke-width="1" />
<path d="M0,68 L-20,68" stroke="#404040" />
<rect x="-22" y="66" width="4" height="4" fill="white" stroke="black" stroke-width="1" />
<path d="M-20,253 L-5,253" stroke="#404040" />
<rect x="-22" y="251" width="4" height="4" fill="white" stroke="black" stroke-width="1" />
<path d="M152,42 L152,227" stroke="#404040" stroke-width="1" />
<path d="M140,42 L152,42" stroke="#404040" />
<rect x="150" y="40" width="4" height="4" fill="white" stroke="black" stroke-width="1" />
<path d="M152,227 L145,227" stroke="#404040" />
<rect x="150" y="225" width="4" height="4" fill="white" stroke="black" stroke-width="1" />
</svg>