<?xml version="1.0" encoding="UTF-8"?>
<svg xmlns="http://www.w3.org/2000/svg" xmlns:xlink="http://www.w3.org/1999/xlink"
     width="1011" height="353" viewBox="-548 -20 1011 353">
<defs>
</defs>
<rect x="3" y="3" width="157" height="303" fill="#000000" fill-opacity="0.1" rx="2" ry="2" />
<path d="M0,0 H157 V92 H151 V132 H157 V303 H0 V132 H6 V92 H0 Z" fill="#ffffff" stroke="#606060" stroke-width="2" />
<path d="M0,30 L157,30" stroke="#606060" stroke-width="1" />
<text x="78.5" y="110.0" font-size="14" fontWeight="bold" font-family="Verdana, sans-serif" font-style="italic" text-anchor="middle" dominant-baseline="central">Wago459</text>
<text x="78.5" y="124.0" font-size="10" fill="#000" font-family="Consolas, monospace" text-anchor="middle" dominant-baseline="central">3.0</text>
<path d="M-5,37 L-5,47 L0,42 Z" fill="#5cb85c" stroke="none" />
<text x="12" y="46" font-size="12" text-anchor="start" font-family="Consolas, monospace">MAP</text>
<text x="-23" y="45" font-size="11" text-anchor="end" fill="#888" font-style="italic" font-family="Verdana, sans-serif">Event</text>
<text x="-93" y="45" font-size="11" text-anchor="end" fill="#666666" font-family="Verdana, sans-serif">Map Pins</text>
<rect x="-5.0" y="144.0" width="10" height="10" fill="white" stroke="#985ec9" stroke-width="2.5" />
<text x="12" y="153" font-size="12" text-anchor="start" font-family="Consolas, monospace">BusAdapterIn</text>
<text x="-23" y="152" font-size="11" text-anchor="end" fill="#000" font-style="italic" font-family="Verdana, sans-serif">WagoBusAdapter</text>
<path d="M-5,170 L-5,180 L0,175 Z" fill="#0066cc" stroke="none" />
<text x="12" y="179" font-size="12" text-anchor="start" font-family="Consolas, monospace">QI</text>
<text x="-23" y="178" font-size="11" text-anchor="end" fill="#0066cc" font-style="italic" font-family="Verdana, sans-serif">BOOL</text>
<text x="-93" y="178" font-size="11" text-anchor="end" fill="#666666" font-family="Verdana, sans-serif">Event Input Qualifier</text>
<path d="M-5,196 L-5,206 L0,201 Z" fill="#0066cc" stroke="none" />
<text x="12" y="205" font-size="12" text-anchor="start" font-family="Consolas, monospace">AnalogInput_1</text>
<text x="-23" y="204" font-size="11" text-anchor="end" fill="#0066cc" font-style="italic" font-family="Verdana, sans-serif">STRING</text>
<path d="M-5,222 L-5,232 L0,227 Z" fill="#0066cc" stroke="none" />
<text x="12" y="231" font-size="12" text-anchor="start" font-family="Consolas, monospace">AnalogInput_2</text>
<text x="-23" y="230" font-size="11" text-anchor="end" fill="#0066cc" font-style="italic" font-family="Verdana, sans-serif">STRING</text>
<path d="M-5,248 L-5,258 L0,253 Z" fill="#0066cc" stroke="none" />
<text x="12" y="257" font-size="12" text-anchor="start" font-family="Consolas, monospace">AnalogInput_3</text>
<text x="-23" y="256" font-size="11" text-anchor="end" fill="#0066cc" font-style="italic" font-family="Verdana, sans-serif">STRING</text>
<path d="M-5,274 L-5,284 L0,279 Z" fill="#0066cc" stroke="none" />
<text x="12" y="283" font-size="12" text-anchor="start" font-family="Consolas, monospace">AnalogInput_4</text>
<text x="-23" y="282" font-size="11" text-anchor="end" fill="#0066cc" font-style="italic" font-family="Verdana, sans-serif">STRING</text>
<path d="M157,37 L157,47 L162,42 Z" fill="#5cb85c" stroke="none" />
<text x="145" y="46" font-size="12" text-anchor="end" font-family="Consolas, monospace">MAPO</text>
<text x="188" y="45" font-size="11" text-anchor="start" fill="#888" font-style="italic" font-family="Verdana, sans-serif">Event</text>
<text x="258" y="45" font-size="11" text-anchor="start" fill="#666666" font-family="Verdana, sans-serif">Confirm Pin Mapping</text>
<path d="M157,63 L157,73 L162,68 Z" fill="#5cb85c" stroke="none" />
<text x="145" y="72" font-size="12" text-anchor="end" font-family="Consolas, monospace">IND</text>
<text x="188" y="71" font-size="11" text-anchor="start" fill="#888" font-style="italic" font-family="Verdana, sans-serif">Event</text>
<text x="258" y="71" font-size="11" text-anchor="start" fill="#666666" font-family="Verdana, sans-serif">Indication from Resource</text>
<rect x="152.0" y="144.0" width="10" height="10" fill="#985ec9" stroke="none" />
<text x="145" y="153" font-size="12" text-anchor="end" font-family="Consolas, monospace">BusAdapterOut</text>
<text x="188" y="152" font-size="11" text-anchor="start" fill="#000" font-style="italic" font-family="Verdana, sans-serif">WagoBusAdapter</text>
<path d="M157,170 L157,180 L162,175 Z" fill="#0066cc" stroke="none" />
<text x="145" y="179" font-size="12" text-anchor="end" font-family="Consolas, monospace">QO</text>
<text x="188" y="178" font-size="11" text-anchor="start" fill="#0066cc" font-style="italic" font-family="Verdana, sans-serif">BOOL</text>
<text x="258" y="178" font-size="11" text-anchor="start" fill="#666666" font-family="Verdana, sans-serif">Event Output Qualifier</text>
<path d="M157,196 L157,206 L162,201 Z" fill="#0066cc" stroke="none" />
<text x="145" y="205" font-size="12" text-anchor="end" font-family="Consolas, monospace">STATUS</text>
<text x="188" y="204" font-size="11" text-anchor="start" fill="#0066cc" font-style="italic" font-family="Verdana, sans-serif">WSTRING</text>
<text x="258" y="204" font-size="11" text-anchor="start" fill="#666666" font-family="Verdana, sans-serif">Service Status</text>
<path d="M-12,42 L-12,279" stroke="#404040" stroke-width="1" />
<path d="M0,42 L-12,42" stroke="#404040" />
<rect x="-14" y="40" width="4" height="4" fill="white" stroke="black" stroke-width="1" />
<path d="M-12,201 L-5,201" stroke="#404040" />
<rect x="-14" y="199" width="4" height="4" fill="white" stroke="black" stroke-width="1" />
<path d="M-12,227 L-5,227" stroke="#404040" />
<rect x="-14" y="225" width="4" height="4" fill="white" stroke="black" stroke-width="1" />
<path d="M-12,253 L-5,253" stroke="#404040" />
<rect x="-14" y="251" width="4" height="4" fill="white" stroke="black" stroke-width="1" />
<path d="M-12,279 L-5,279" stroke="#404040" />
<rect x="-14" y="277" width="4" height="4" fill="white" stroke="black" stroke-width="1" />
<path d="M-12,175 L-5,175" stroke="#404040" />
<rect x="-14" y="173" width="4" height="4" fill="white" stroke="black" stroke-width="1" />
<path d="M169,42 L169,175" stroke="#404040" stroke-width="1" />
<path d="M157,42 L169,42" stroke="#404040" />
<rect x="167" y="40" width="4" height="4" fill="white" stroke="black" stroke-width="1" />
<path d="M169,175 L162,175" stroke="#404040" />
<rect x="167" y="173" width="4" height="4" fill="white" stroke="black" stroke-width="1" />
<path d="M177,68 L177,201" stroke="#404040" stroke-width="1" />
<path d="M157,68 L177,68" stroke="#404040" />
<rect x="175" y="66" width="4" height="4" fill="white" stroke="black" stroke-width="1" />
<path d="M177,175 L162,175" stroke="#404040" />
<rect x="175" y="173" width="4" height="4" fill="white" stroke="black" stroke-width="1" />
<path d="M177,201 L162,201" stroke="#404040" />
<rect x="175" y="199" width="4" height="4" fill="white" stroke="black" stroke-width="1" />
</svg>