<?xml version="1.0" encoding="UTF-8"?>
<svg xmlns="http://www.w3.org/2000/svg" xmlns:xlink="http://www.w3.org/1999/xlink"
     width="1020" height="275" viewBox="-548 -20 1020 275">
<defs>
</defs>
<rect x="3" y="3" width="166" height="225" fill="#000000" fill-opacity="0.1" rx="2" ry="2" />
<path d="M0,0 H166 V92 H160 V132 H166 V225 H0 V132 H6 V92 H0 Z" fill="#ffffff" stroke="#606060" stroke-width="2" />
<path d="M0,30 L166,30" stroke="#606060" stroke-width="1" />
<text x="83.0" y="110.0" font-size="14" fontWeight="bold" font-family="Verdana, sans-serif" font-style="italic" text-anchor="middle" dominant-baseline="central">WagoMaster</text>
<text x="83.0" y="124.0" font-size="10" fill="#000" font-family="Consolas, monospace" text-anchor="middle" dominant-baseline="central">3.0</text>
<path d="M-5,37 L-5,47 L0,42 Z" fill="#5cb85c" stroke="none" />
<text x="12" y="46" font-size="12" text-anchor="start" font-family="Consolas, monospace">INIT</text>
<text x="-23" y="45" font-size="11" text-anchor="end" fill="#888" font-style="italic" font-family="Verdana, sans-serif">Event</text>
<text x="-93" y="45" font-size="11" text-anchor="end" fill="#666666" font-family="Verdana, sans-serif">Service Initialization</text>
<path d="M-5,144 L-5,154 L0,149 Z" fill="#0066cc" stroke="none" />
<text x="12" y="153" font-size="12" text-anchor="start" font-family="Consolas, monospace">QI</text>
<text x="-23" y="152" font-size="11" text-anchor="end" fill="#0066cc" font-style="italic" font-family="Verdana, sans-serif">BOOL</text>
<text x="-93" y="152" font-size="11" text-anchor="end" fill="#666666" font-family="Verdana, sans-serif">Event Input Qualifier</text>
<path d="M-5,170 L-5,180 L0,175 Z" fill="#0066cc" stroke="none" />
<text x="12" y="179" font-size="12" text-anchor="start" font-family="Consolas, monospace">UpdateInterval</text>
<text x="-23" y="178" font-size="11" text-anchor="end" fill="#0066cc" font-style="italic" font-family="Verdana, sans-serif">UINT</text>
<path d="M166,37 L166,47 L171,42 Z" fill="#5cb85c" stroke="none" />
<text x="154" y="46" font-size="12" text-anchor="end" font-family="Consolas, monospace">INITO</text>
<text x="197" y="45" font-size="11" text-anchor="start" fill="#888" font-style="italic" font-family="Verdana, sans-serif">Event</text>
<text x="267" y="45" font-size="11" text-anchor="start" fill="#666666" font-family="Verdana, sans-serif">Initialization Confirm</text>
<path d="M166,63 L166,73 L171,68 Z" fill="#5cb85c" stroke="none" />
<text x="154" y="72" font-size="12" text-anchor="end" font-family="Consolas, monospace">IND</text>
<text x="197" y="71" font-size="11" text-anchor="start" fill="#888" font-style="italic" font-family="Verdana, sans-serif">Event</text>
<rect x="161.0" y="144.0" width="10" height="10" fill="#985ec9" stroke="none" />
<text x="154" y="153" font-size="12" text-anchor="end" font-family="Consolas, monospace">BusAdapterOut</text>
<text x="197" y="152" font-size="11" text-anchor="start" fill="#000" font-style="italic" font-family="Verdana, sans-serif">WagoBusAdapter</text>
<path d="M166,170 L166,180 L171,175 Z" fill="#0066cc" stroke="none" />
<text x="154" y="179" font-size="12" text-anchor="end" font-family="Consolas, monospace">QO</text>
<text x="197" y="178" font-size="11" text-anchor="start" fill="#0066cc" font-style="italic" font-family="Verdana, sans-serif">BOOL</text>
<text x="267" y="178" font-size="11" text-anchor="start" fill="#666666" font-family="Verdana, sans-serif">Event Output Qualifier</text>
<path d="M166,196 L166,206 L171,201 Z" fill="#0066cc" stroke="none" />
<text x="154" y="205" font-size="12" text-anchor="end" font-family="Consolas, monospace">STATUS</text>
<text x="197" y="204" font-size="11" text-anchor="start" fill="#0066cc" font-style="italic" font-family="Verdana, sans-serif">WSTRING</text>
<text x="267" y="204" font-size="11" text-anchor="start" fill="#666666" font-family="Verdana, sans-serif">Service Status</text>
<path d="M-12,42 L-12,175" stroke="#404040" stroke-width="1" />
<path d="M0,42 L-12,42" stroke="#404040" />
<rect x="-14" y="40" width="4" height="4" fill="white" stroke="black" stroke-width="1" />
<path d="M-12,149 L-5,149" stroke="#404040" />
<rect x="-14" y="147" width="4" height="4" fill="white" stroke="black" stroke-width="1" />
<path d="M-12,175 L-5,175" stroke="#404040" />
<rect x="-14" y="173" width="4" height="4" fill="white" stroke="black" stroke-width="1" />
<path d="M178,42 L178,201" stroke="#404040" stroke-width="1" />
<path d="M166,42 L178,42" stroke="#404040" />
<rect x="176" y="40" width="4" height="4" fill="white" stroke="black" stroke-width="1" />
<path d="M178,175 L171,175" stroke="#404040" />
<rect x="176" y="173" width="4" height="4" fill="white" stroke="black" stroke-width="1" />
<path d="M178,201 L171,201" stroke="#404040" />
<rect x="176" y="199" width="4" height="4" fill="white" stroke="black" stroke-width="1" />
<path d="M186,68 L186,201" stroke="#404040" stroke-width="1" />
<path d="M166,68 L186,68" stroke="#404040" />
<rect x="184" y="66" width="4" height="4" fill="white" stroke="black" stroke-width="1" />
<path d="M186,201 L171,201" stroke="#404040" />
<rect x="184" y="199" width="4" height="4" fill="white" stroke="black" stroke-width="1" />
<path d="M186,175 L171,175" stroke="#404040" />
<rect x="184" y="173" width="4" height="4" fill="white" stroke="black" stroke-width="1" />
</svg>