<?xml version="1.0" encoding="UTF-8"?>
<svg xmlns="http://www.w3.org/2000/svg" xmlns:xlink="http://www.w3.org/1999/xlink"
     width="1000" height="327" viewBox="-556 -20 1000 327">
<defs>
</defs>
<rect x="3" y="3" width="130" height="277" fill="#000000" fill-opacity="0.1" rx="2" ry="2" />
<path d="M0,0 H130 V144 H124 V184 H130 V277 H0 V184 H6 V144 H0 Z" fill="#ffffff" stroke="#000000" stroke-width="2" />
<path d="M0,30 L130,30" stroke="#000000" stroke-width="1" />
<text x="65.0" y="162.0" font-size="14" fontWeight="bold" font-family="Verdana, sans-serif" font-style="italic" text-anchor="middle" dominant-baseline="central">E_CTUD</text>
<text x="65.0" y="176.0" font-size="10" fill="#000" font-family="Consolas, monospace" text-anchor="middle" dominant-baseline="central">3.0</text>
<path d="M-5,37 L-5,47 L0,42 Z" fill="#63B31F" stroke="none" />
<text x="12" y="46" font-size="12" text-anchor="start" font-family="Consolas, monospace">CU</text>
<text x="-31" y="45" font-size="11" text-anchor="end" fill="#888" font-style="italic" font-family="Verdana, sans-serif">Event</text>
<text x="-101" y="45" font-size="11" text-anchor="end" fill="#666666" font-family="Verdana, sans-serif">Count Up</text>
<path d="M-5,63 L-5,73 L0,68 Z" fill="#63B31F" stroke="none" />
<text x="12" y="72" font-size="12" text-anchor="start" font-family="Consolas, monospace">CD</text>
<text x="-31" y="71" font-size="11" text-anchor="end" fill="#888" font-style="italic" font-family="Verdana, sans-serif">Event</text>
<text x="-101" y="71" font-size="11" text-anchor="end" fill="#666666" font-family="Verdana, sans-serif">Count Down</text>
<path d="M-5,89 L-5,99 L0,94 Z" fill="#63B31F" stroke="none" />
<text x="12" y="98" font-size="12" text-anchor="start" font-family="Consolas, monospace">R</text>
<text x="-31" y="97" font-size="11" text-anchor="end" fill="#888" font-style="italic" font-family="Verdana, sans-serif">Event</text>
<text x="-101" y="97" font-size="11" text-anchor="end" fill="#666666" font-family="Verdana, sans-serif">Reset</text>
<path d="M-5,115 L-5,125 L0,120 Z" fill="#63B31F" stroke="none" />
<text x="12" y="124" font-size="12" text-anchor="start" font-family="Consolas, monospace">LD</text>
<text x="-31" y="123" font-size="11" text-anchor="end" fill="#888" font-style="italic" font-family="Verdana, sans-serif">Event</text>
<text x="-101" y="123" font-size="11" text-anchor="end" fill="#666666" font-family="Verdana, sans-serif">Load</text>
<path d="M-5,196 L-5,206 L0,201 Z" fill="#18519E" stroke="none" />
<text x="12" y="205" font-size="12" text-anchor="start" font-family="Consolas, monospace">PV</text>
<text x="-31" y="204" font-size="11" text-anchor="end" fill="#18519E" font-style="italic" font-family="Verdana, sans-serif">UINT</text>
<text x="-101" y="204" font-size="11" text-anchor="end" fill="#666666" font-family="Verdana, sans-serif">Preset Value</text>
<path d="M130,37 L130,47 L135,42 Z" fill="#63B31F" stroke="none" />
<text x="118" y="46" font-size="12" text-anchor="end" font-family="Consolas, monospace">CO</text>
<text x="169" y="45" font-size="11" text-anchor="start" fill="#888" font-style="italic" font-family="Verdana, sans-serif">Event</text>
<text x="239" y="45" font-size="11" text-anchor="start" fill="#666666" font-family="Verdana, sans-serif">Count Output Event</text>
<path d="M130,63 L130,73 L135,68 Z" fill="#63B31F" stroke="none" />
<text x="118" y="72" font-size="12" text-anchor="end" font-family="Consolas, monospace">RO</text>
<text x="169" y="71" font-size="11" text-anchor="start" fill="#888" font-style="italic" font-family="Verdana, sans-serif">Event</text>
<text x="239" y="71" font-size="11" text-anchor="start" fill="#666666" font-family="Verdana, sans-serif">Reset Output Event</text>
<path d="M130,89 L130,99 L135,94 Z" fill="#63B31F" stroke="none" />
<text x="118" y="98" font-size="12" text-anchor="end" font-family="Consolas, monospace">LDO</text>
<text x="169" y="97" font-size="11" text-anchor="start" fill="#888" font-style="italic" font-family="Verdana, sans-serif">Event</text>
<path d="M130,196 L130,206 L135,201 Z" fill="#9FA48A" stroke="none" />
<text x="118" y="205" font-size="12" text-anchor="end" font-family="Consolas, monospace">QU</text>
<text x="169" y="204" font-size="11" text-anchor="start" fill="#9FA48A" font-style="italic" font-family="Verdana, sans-serif">BOOL</text>
<text x="239" y="204" font-size="11" text-anchor="start" fill="#666666" font-family="Verdana, sans-serif">CV &gt;=PV</text>
<path d="M130,222 L130,232 L135,227 Z" fill="#9FA48A" stroke="none" />
<text x="118" y="231" font-size="12" text-anchor="end" font-family="Consolas, monospace">QD</text>
<text x="169" y="230" font-size="11" text-anchor="start" fill="#9FA48A" font-style="italic" font-family="Verdana, sans-serif">BOOL</text>
<text x="239" y="230" font-size="11" text-anchor="start" fill="#666666" font-family="Verdana, sans-serif">CV &lt;= 0</text>
<path d="M130,248 L130,258 L135,253 Z" fill="#18519E" stroke="none" />
<text x="118" y="257" font-size="12" text-anchor="end" font-family="Consolas, monospace">CV</text>
<text x="169" y="256" font-size="11" text-anchor="start" fill="#18519E" font-style="italic" font-family="Verdana, sans-serif">UINT</text>
<text x="239" y="256" font-size="11" text-anchor="start" fill="#666666" font-family="Verdana, sans-serif">Counter Value</text>
<path d="M-12,42 L-12,201" stroke="#404040" stroke-width="1" />
<path d="M0,42 L-12,42" stroke="#404040" />
<rect x="-14" y="40" width="4" height="4" fill="white" stroke="black" stroke-width="1" />
<path d="M-12,201 L-5,201" stroke="#404040" />
<rect x="-14" y="199" width="4" height="4" fill="white" stroke="black" stroke-width="1" />
<path d="M-20,120 L-20,201" stroke="#404040" stroke-width="1" />
<path d="M0,120 L-20,120" stroke="#404040" />
<rect x="-22" y="118" width="4" height="4" fill="white" stroke="black" stroke-width="1" />
<path d="M-20,201 L-5,201" stroke="#404040" />
<rect x="-22" y="199" width="4" height="4" fill="white" stroke="black" stroke-width="1" />
<path d="M142,42 L142,253" stroke="#404040" stroke-width="1" />
<path d="M130,42 L142,42" stroke="#404040" />
<rect x="140" y="40" width="4" height="4" fill="white" stroke="black" stroke-width="1" />
<path d="M142,201 L135,201" stroke="#404040" />
<rect x="140" y="199" width="4" height="4" fill="white" stroke="black" stroke-width="1" />
<path d="M142,253 L135,253" stroke="#404040" />
<rect x="140" y="251" width="4" height="4" fill="white" stroke="black" stroke-width="1" />
<path d="M142,227 L135,227" stroke="#404040" />
<rect x="140" y="225" width="4" height="4" fill="white" stroke="black" stroke-width="1" />
<path d="M150,68 L150,253" stroke="#404040" stroke-width="1" />
<path d="M130,68 L150,68" stroke="#404040" />
<rect x="148" y="66" width="4" height="4" fill="white" stroke="black" stroke-width="1" />
<path d="M150,201 L135,201" stroke="#404040" />
<rect x="148" y="199" width="4" height="4" fill="white" stroke="black" stroke-width="1" />
<path d="M150,253 L135,253" stroke="#404040" />
<rect x="148" y="251" width="4" height="4" fill="white" stroke="black" stroke-width="1" />
<path d="M150,227 L135,227" stroke="#404040" />
<rect x="148" y="225" width="4" height="4" fill="white" stroke="black" stroke-width="1" />
<path d="M158,94 L158,253" stroke="#404040" stroke-width="1" />
<path d="M130,94 L158,94" stroke="#404040" />
<rect x="156" y="92" width="4" height="4" fill="white" stroke="black" stroke-width="1" />
<path d="M158,201 L135,201" stroke="#404040" />
<rect x="156" y="199" width="4" height="4" fill="white" stroke="black" stroke-width="1" />
<path d="M158,227 L135,227" stroke="#404040" />
<rect x="156" y="225" width="4" height="4" fill="white" stroke="black" stroke-width="1" />
<path d="M158,253 L135,253" stroke="#404040" />
<rect x="156" y="251" width="4" height="4" fill="white" stroke="black" stroke-width="1" />
</svg>