<?xml version="1.0" encoding="UTF-8"?>
<svg xmlns="http://www.w3.org/2000/svg" xmlns:xlink="http://www.w3.org/1999/xlink"
     width="1250.2857142857142" height="800" viewBox="0 0 1250.2857142857142 800">
<defs>
</defs>
<rect x="0" y="0" width="1250.2857142857142" height="800" fill="#ffffff" />
<text x="625.0" y="25" font-size="14" fontWeight="bold" font-family="Verdana, sans-serif" fill="#000000" text-anchor="middle" dominant-baseline="central">ECC: E_CTUD_UDINT</text>
<rect x="35.0017857142857" y="178.42857142857142" width="80" height="32" fill="#f5f5f5" stroke="#000000" stroke-width="2" rx="8" ry="8" />
<text x="75.0017857142857" y="194.42857142857142" font-size="12" fontWeight="bold" font-family="Verdana, sans-serif" fill="#000000" text-anchor="middle" dominant-baseline="central">CU</text>
<rect x="125.0017857142857" y="178.42857142857142" width="161" height="36" fill="#ffffff" stroke="#cccccc" stroke-width="1" rx="4" ry="4" />
<path d="M115.0017857142857,194.42857142857142 L125.0017857142857,189.42857142857142" stroke="#000000" stroke-width="2" />
<path d="M205.0017857142857,178.42857142857142 L205.0017857142857,214.42857142857142" stroke="#cccccc" stroke-width="1" />
<rect x="125.0017857142857" y="182.42857142857142" width="80" height="14" fill="#e6f7e6" stroke="#cccccc" stroke-width="0.5" />
<text x="165.0017857142857" y="190.42857142857142" font-size="10" font-family="Consolas, monospace" fill="#000000" text-anchor="middle" dominant-baseline="central">CountUp</text>
<rect x="206.0017857142857" y="182.42857142857142" width="80" height="14" fill="#ffe6e6" stroke="#cccccc" stroke-width="0.5" />
<text x="246.0017857142857" y="190.42857142857142" font-size="10" font-family="Consolas, monospace" fill="#000000" text-anchor="middle" dominant-baseline="central"></text>
<path d="M125.0017857142857,196.42857142857142 L286.0017857142857,196.42857142857142" stroke="#cccccc" stroke-width="0.5" />
<rect x="125.0017857142857" y="196.42857142857142" width="80" height="14" fill="#e6f7e6" stroke="#cccccc" stroke-width="0.5" />
<text x="165.0017857142857" y="204.42857142857142" font-size="10" font-family="Consolas, monospace" fill="#000000" text-anchor="middle" dominant-baseline="central">UpdateQUQD</text>
<rect x="206.0017857142857" y="196.42857142857142" width="80" height="14" fill="#ffe6e6" stroke="#cccccc" stroke-width="0.5" />
<text x="246.0017857142857" y="204.42857142857142" font-size="10" font-family="Consolas, monospace" fill="#000000" text-anchor="middle" dominant-baseline="central">CO</text>
<rect x="35.0017857142857" y="585.5714285714286" width="80" height="32" fill="#f5f5f5" stroke="#000000" stroke-width="2" rx="8" ry="8" />
<text x="75.0017857142857" y="601.5714285714286" font-size="12" fontWeight="bold" font-family="Verdana, sans-serif" fill="#000000" text-anchor="middle" dominant-baseline="central">R</text>
<rect x="125.0017857142857" y="585.5714285714286" width="161" height="36" fill="#ffffff" stroke="#cccccc" stroke-width="1" rx="4" ry="4" />
<path d="M115.0017857142857,601.5714285714286 L125.0017857142857,596.5714285714286" stroke="#000000" stroke-width="2" />
<path d="M205.0017857142857,585.5714285714286 L205.0017857142857,621.5714285714286" stroke="#cccccc" stroke-width="1" />
<rect x="125.0017857142857" y="589.5714285714286" width="80" height="14" fill="#e6f7e6" stroke="#cccccc" stroke-width="0.5" />
<text x="165.0017857142857" y="597.5714285714286" font-size="10" font-family="Consolas, monospace" fill="#000000" text-anchor="middle" dominant-baseline="central">Reset</text>
<rect x="206.0017857142857" y="589.5714285714286" width="80" height="14" fill="#ffe6e6" stroke="#cccccc" stroke-width="0.5" />
<text x="246.0017857142857" y="597.5714285714286" font-size="10" font-family="Consolas, monospace" fill="#000000" text-anchor="middle" dominant-baseline="central"></text>
<path d="M125.0017857142857,603.5714285714286 L286.0017857142857,603.5714285714286" stroke="#cccccc" stroke-width="0.5" />
<rect x="125.0017857142857" y="603.5714285714286" width="80" height="14" fill="#e6f7e6" stroke="#cccccc" stroke-width="0.5" />
<text x="165.0017857142857" y="611.5714285714286" font-size="10" font-family="Consolas, monospace" fill="#000000" text-anchor="middle" dominant-baseline="central">UpdateQUQD</text>
<rect x="206.0017857142857" y="603.5714285714286" width="80" height="14" fill="#ffe6e6" stroke="#cccccc" stroke-width="0.5" />
<text x="246.0017857142857" y="611.5714285714286" font-size="10" font-family="Consolas, monospace" fill="#000000" text-anchor="middle" dominant-baseline="central">RO</text>
<rect x="645.7160714285715" y="382.0" width="80" height="32" fill="#f5f5f5" stroke="#000000" stroke-width="2" rx="8" ry="8" />
<text x="685.7160714285715" y="398.0" font-size="12" fontWeight="bold" font-family="Verdana, sans-serif" fill="#000000" text-anchor="middle" dominant-baseline="central">START</text>
<rect x="849.2875" y="178.42857142857142" width="80" height="32" fill="#f5f5f5" stroke="#000000" stroke-width="2" rx="8" ry="8" />
<text x="889.2875" y="194.42857142857142" font-size="12" fontWeight="bold" font-family="Verdana, sans-serif" fill="#000000" text-anchor="middle" dominant-baseline="central">CD</text>
<rect x="939.2875" y="178.42857142857142" width="161" height="36" fill="#ffffff" stroke="#cccccc" stroke-width="1" rx="4" ry="4" />
<path d="M929.2875,194.42857142857142 L939.2875,189.42857142857142" stroke="#000000" stroke-width="2" />
<path d="M1019.2875,178.42857142857142 L1019.2875,214.42857142857142" stroke="#cccccc" stroke-width="1" />
<rect x="939.2875" y="182.42857142857142" width="80" height="14" fill="#e6f7e6" stroke="#cccccc" stroke-width="0.5" />
<text x="979.2875" y="190.42857142857142" font-size="10" font-family="Consolas, monospace" fill="#000000" text-anchor="middle" dominant-baseline="central">CountDown</text>
<rect x="1020.2875" y="182.42857142857142" width="80" height="14" fill="#ffe6e6" stroke="#cccccc" stroke-width="0.5" />
<text x="1060.2875" y="190.42857142857142" font-size="10" font-family="Consolas, monospace" fill="#000000" text-anchor="middle" dominant-baseline="central"></text>
<path d="M939.2875,196.42857142857142 L1100.2875,196.42857142857142" stroke="#cccccc" stroke-width="0.5" />
<rect x="939.2875" y="196.42857142857142" width="80" height="14" fill="#e6f7e6" stroke="#cccccc" stroke-width="0.5" />
<text x="979.2875" y="204.42857142857142" font-size="10" font-family="Consolas, monospace" fill="#000000" text-anchor="middle" dominant-baseline="central">UpdateQUQD</text>
<rect x="1020.2875" y="196.42857142857142" width="80" height="14" fill="#ffe6e6" stroke="#cccccc" stroke-width="0.5" />
<text x="1060.2875" y="204.42857142857142" font-size="10" font-family="Consolas, monospace" fill="#000000" text-anchor="middle" dominant-baseline="central">CO</text>
<rect x="899.2857142857142" y="585.5714285714286" width="80" height="32" fill="#f5f5f5" stroke="#000000" stroke-width="2" rx="8" ry="8" />
<text x="939.2857142857142" y="601.5714285714286" font-size="12" fontWeight="bold" font-family="Verdana, sans-serif" fill="#000000" text-anchor="middle" dominant-baseline="central">LD</text>
<rect x="989.2857142857142" y="585.5714285714286" width="161" height="36" fill="#ffffff" stroke="#cccccc" stroke-width="1" rx="4" ry="4" />
<path d="M979.2857142857142,601.5714285714286 L989.2857142857142,596.5714285714286" stroke="#000000" stroke-width="2" />
<path d="M1069.2857142857142,585.5714285714286 L1069.2857142857142,621.5714285714286" stroke="#cccccc" stroke-width="1" />
<rect x="989.2857142857142" y="589.5714285714286" width="80" height="14" fill="#e6f7e6" stroke="#cccccc" stroke-width="0.5" />
<text x="1029.2857142857142" y="597.5714285714286" font-size="10" font-family="Consolas, monospace" fill="#000000" text-anchor="middle" dominant-baseline="central">Load</text>
<rect x="1070.2857142857142" y="589.5714285714286" width="80" height="14" fill="#ffe6e6" stroke="#cccccc" stroke-width="0.5" />
<text x="1110.2857142857142" y="597.5714285714286" font-size="10" font-family="Consolas, monospace" fill="#000000" text-anchor="middle" dominant-baseline="central"></text>
<path d="M989.2857142857142,603.5714285714286 L1150.2857142857142,603.5714285714286" stroke="#cccccc" stroke-width="0.5" />
<rect x="989.2857142857142" y="603.5714285714286" width="80" height="14" fill="#e6f7e6" stroke="#cccccc" stroke-width="0.5" />
<text x="1029.2857142857142" y="611.5714285714286" font-size="10" font-family="Consolas, monospace" fill="#000000" text-anchor="middle" dominant-baseline="central">UpdateQUQD</text>
<rect x="1070.2857142857142" y="603.5714285714286" width="80" height="14" fill="#ffe6e6" stroke="#cccccc" stroke-width="0.5" />
<text x="1110.2857142857142" y="611.5714285714286" font-size="10" font-family="Consolas, monospace" fill="#000000" text-anchor="middle" dominant-baseline="central">LDO</text>
<path d="M645.7160714285715,390.5 C406.3367021233207,390.5,75.0017857142857,449.80794073382214,75.0017857142857,210.42857142857142" stroke="#404040" stroke-width="1.2" fill="none" />
<path d="M75.0017857142857,210.42857142857142 L79.0017857142857,217.35677465884692 L71.0017857142857,217.35677465884692 L75.0017857142857,210.42857142857142" fill="#404040" stroke="#404040" stroke-width="1" />
<g transform="translate(270.59166508195955,390.23154920375475)">
<rect x="-65.75" y="-7.5" width="131.5" height="15" fill="#ffffff" opacity="0.9" rx="3" ry="3" />
<text x="0" y="3.5" font-size="10" font-family="Consolas, monospace" fill="#000000" text-anchor="middle" dominant-baseline="central">CU[(CV&lt;4294967295)]</text>
</g>
<path d="M115.0017857142857,201.92857142857142 C360.81413285333446,201.92857142857142,663.2160714285715,136.18765286095126,663.2160714285715,382.0" stroke="#404040" stroke-width="1.2" fill="none" />
<path d="M663.2160714285715,382.0 L659.2160714285715,375.0717967697245 L667.2160714285715,375.0717967697245 L663.2160714285715,382.0" fill="#404040" stroke="#404040" stroke-width="1" />
<g transform="translate(481.28855874857186,199.78465553714244)">
<rect x="-7.25" y="-7.5" width="14.5" height="15" fill="#ffffff" opacity="0.9" rx="3" ry="3" />
<text x="0" y="3.5" font-size="10" font-family="Consolas, monospace" fill="#000000" text-anchor="middle" dominant-baseline="central">1</text>
</g>
<path d="M645.7160714285715,390.5 C404.4634542280063,390.5,75.0017857142857,344.3188113708634,75.0017857142857,585.5714285714286" stroke="#404040" stroke-width="1.2" fill="none" />
<path d="M75.0017857142857,585.5714285714286 L71.0017857142857,578.6432253411531 L79.0017857142857,578.6432253411531 L75.0017857142857,585.5714285714286" fill="#404040" stroke="#404040" stroke-width="1" />
<g transform="translate(269.8891971212166,397.5659828355023)">
<rect x="-7.25" y="-7.5" width="14.5" height="15" fill="#ffffff" opacity="0.9" rx="3" ry="3" />
<text x="0" y="3.5" font-size="10" font-family="Consolas, monospace" fill="#000000" text-anchor="middle" dominant-baseline="central">R</text>
</g>
<path d="M115.0017857142857,609.0714285714286 C368.41762205996173,609.0714285714286,678.2160714285715,667.415836345676,678.2160714285715,414.0" stroke="#404040" stroke-width="1.2" fill="none" />
<path d="M678.2160714285715,414.0 L682.2160714285715,420.9282032302755 L674.2160714285715,420.9282032302755 L678.2160714285715,414.0" fill="#404040" stroke="#404040" stroke-width="1" />
<g transform="translate(491.6398672010571,606.5666529153427)">
<rect x="-7.25" y="-7.5" width="14.5" height="15" fill="#ffffff" opacity="0.9" rx="3" ry="3" />
<text x="0" y="3.5" font-size="10" font-family="Consolas, monospace" fill="#000000" text-anchor="middle" dominant-baseline="central">1</text>
</g>
<path d="M725.7160714285715,390.5 C823.0249253999573,390.5,889.2875,307.73742539995726,889.2875,210.42857142857142" stroke="#404040" stroke-width="1.2" fill="none" />
<path d="M889.2875,210.42857142857142 L893.2875,217.35677465884692 L885.2875,217.35677465884692 L889.2875,210.42857142857142" fill="#404040" stroke="#404040" stroke-width="1" />
<g transform="translate(843.9926059535555,336.9551059535554)">
<rect x="-43.0" y="-7.5" width="86.0" height="15" fill="#ffffff" opacity="0.9" rx="3" ry="3" />
<text x="0" y="3.5" font-size="10" font-family="Consolas, monospace" fill="#000000" text-anchor="middle" dominant-baseline="central">CD[(CV &gt; 0)]</text>
</g>
<path d="M849.2875,201.92857142857142 C738.9699169806375,201.92857142857142,693.2160714285715,271.6824169806375,693.2160714285715,382.0" stroke="#404040" stroke-width="1.2" fill="none" />
<path d="M693.2160714285715,382.0 L689.2160714285715,375.0717967697245 L697.2160714285715,375.0717967697245 L693.2160714285715,382.0" fill="#404040" stroke="#404040" stroke-width="1" />
<g transform="translate(729.8826920820247,250.59519208202477)">
<rect x="-7.25" y="-7.5" width="14.5" height="15" fill="#ffffff" opacity="0.9" rx="3" ry="3" />
<text x="0" y="3.5" font-size="10" font-family="Consolas, monospace" fill="#000000" text-anchor="middle" dominant-baseline="central">1</text>
</g>
<path d="M725.7160714285715,390.5 C841.4155819513221,390.5,939.2857142857142,469.87191804867797,939.2857142857142,585.5714285714286" stroke="#404040" stroke-width="1.2" fill="none" />
<path d="M939.2857142857142,585.5714285714286 L935.2857142857142,578.6432253411531 L943.2857142857142,578.6432253411531 L939.2857142857142,585.5714285714286" fill="#404040" stroke="#404040" stroke-width="1" />
<g transform="translate(875.8882093031743,444.6483978396828)">
<rect x="-10.5" y="-7.5" width="21.0" height="15" fill="#ffffff" opacity="0.9" rx="3" ry="3" />
<text x="0" y="3.5" font-size="10" font-family="Consolas, monospace" fill="#000000" text-anchor="middle" dominant-baseline="central">LD</text>
</g>
<path d="M899.2857142857142,609.0714285714286 C775.0626612857516,609.0714285714286,708.2160714285715,538.2230529999626,708.2160714285715,414.0" stroke="#404040" stroke-width="1.2" fill="none" />
<path d="M708.2160714285715,414.0 L712.2160714285715,420.9282032302755 L704.2160714285715,420.9282032302755 L708.2160714285715,414.0" fill="#404040" stroke="#404040" stroke-width="1" />
<g transform="translate(757.1672479821568,558.1193591607002)">
<rect x="-7.25" y="-7.5" width="14.5" height="15" fill="#ffffff" opacity="0.9" rx="3" ry="3" />
<text x="0" y="3.5" font-size="10" font-family="Consolas, monospace" fill="#000000" text-anchor="middle" dominant-baseline="central">1</text>
</g>
</svg>