<?xml version="1.0" encoding="UTF-8"?>
<svg xmlns="http://www.w3.org/2000/svg" xmlns:xlink="http://www.w3.org/1999/xlink"
     width="960" height="223" viewBox="-540 -20 960 223">
<defs>
</defs>
<rect x="3" y="3" width="130" height="173" fill="#000000" fill-opacity="0.1" rx="2" ry="2" />
<path d="M0,0 H130 V118 H124 V158 H130 V173 H0 V158 H6 V118 H0 Z" fill="#ffffff" stroke="#000000" stroke-width="2" />
<path d="M0,30 L130,30" stroke="#000000" stroke-width="1" />
<text x="65.0" y="136.0" font-size="14" fontWeight="bold" font-family="Verdana, sans-serif" font-style="italic" text-anchor="middle" dominant-baseline="central">E_RESTART</text>
<text x="65.0" y="150.0" font-size="10" fill="#000" font-family="Consolas, monospace" text-anchor="middle" dominant-baseline="central">3.0</text>
<path d="M130,37 L130,47 L135,42 Z" fill="#63B31F" stroke="none" />
<text x="118" y="46" font-size="12" text-anchor="end" font-family="Consolas, monospace">COLD</text>
<text x="145" y="45" font-size="11" text-anchor="start" fill="#888" font-style="italic" font-family="Verdana, sans-serif">Event</text>
<text x="215" y="45" font-size="11" text-anchor="start" fill="#666666" font-family="Verdana, sans-serif">Information on cold restart</text>
<path d="M130,63 L130,73 L135,68 Z" fill="#63B31F" stroke="none" />
<text x="118" y="72" font-size="12" text-anchor="end" font-family="Consolas, monospace">WARM</text>
<text x="145" y="71" font-size="11" text-anchor="start" fill="#888" font-style="italic" font-family="Verdana, sans-serif">Event</text>
<text x="215" y="71" font-size="11" text-anchor="start" fill="#666666" font-family="Verdana, sans-serif">Information on warm restart</text>
<path d="M130,89 L130,99 L135,94 Z" fill="#63B31F" stroke="none" />
<text x="118" y="98" font-size="12" text-anchor="end" font-family="Consolas, monospace">STOP</text>
<text x="145" y="97" font-size="11" text-anchor="start" fill="#888" font-style="italic" font-family="Verdana, sans-serif">Event</text>
<text x="215" y="97" font-size="11" text-anchor="start" fill="#666666" font-family="Verdana, sans-serif">information that the resource is to be stopped</text>
</svg>