<?xml version="1.0" encoding="UTF-8"?>
<svg xmlns="http://www.w3.org/2000/svg" xmlns:xlink="http://www.w3.org/1999/xlink"
     width="976" height="223" viewBox="-556 -20 976 223">
<defs>
</defs>
<rect x="3" y="3" width="130" height="173" fill="#000000" fill-opacity="0.1" rx="2" ry="2" />
<path d="M0,0 H130 V92 H124 V132 H130 V173 H0 V132 H6 V92 H0 Z" fill="#ffffff" stroke="#000000" stroke-width="2" />
<path d="M0,30 L130,30" stroke="#000000" stroke-width="1" />
<text x="65.0" y="110.0" font-size="14" fontWeight="bold" font-family="Verdana, sans-serif" font-style="italic" text-anchor="middle" dominant-baseline="central">E_SELECT</text>
<text x="65.0" y="124.0" font-size="10" fill="#000" font-family="Consolas, monospace" text-anchor="middle" dominant-baseline="central">3.0</text>
<path d="M-5,37 L-5,47 L0,42 Z" fill="#63B31F" stroke="none" />
<text x="12" y="46" font-size="12" text-anchor="start" font-family="Consolas, monospace">EI0</text>
<text x="-31" y="45" font-size="11" text-anchor="end" fill="#888" font-style="italic" font-family="Verdana, sans-serif">Event</text>
<text x="-101" y="45" font-size="11" text-anchor="end" fill="#666666" font-family="Verdana, sans-serif">Input event, selected when G=0</text>
<path d="M-5,63 L-5,73 L0,68 Z" fill="#63B31F" stroke="none" />
<text x="12" y="72" font-size="12" text-anchor="start" font-family="Consolas, monospace">EI1</text>
<text x="-31" y="71" font-size="11" text-anchor="end" fill="#888" font-style="italic" font-family="Verdana, sans-serif">Event</text>
<text x="-101" y="71" font-size="11" text-anchor="end" fill="#666666" font-family="Verdana, sans-serif">Input event, selected when G=1</text>
<path d="M-5,144 L-5,154 L0,149 Z" fill="#9FA48A" stroke="none" />
<text x="12" y="153" font-size="12" text-anchor="start" font-family="Consolas, monospace">G</text>
<text x="-31" y="152" font-size="11" text-anchor="end" fill="#9FA48A" font-style="italic" font-family="Verdana, sans-serif">BOOL</text>
<text x="-101" y="152" font-size="11" text-anchor="end" fill="#666666" font-family="Verdana, sans-serif"> Select EI0 when G=0, EI1 when G=1</text>
<path d="M130,37 L130,47 L135,42 Z" fill="#63B31F" stroke="none" />
<text x="118" y="46" font-size="12" text-anchor="end" font-family="Consolas, monospace">EO</text>
<text x="145" y="45" font-size="11" text-anchor="start" fill="#888" font-style="italic" font-family="Verdana, sans-serif">Event</text>
<text x="215" y="45" font-size="11" text-anchor="start" fill="#666666" font-family="Verdana, sans-serif">Output Event</text>
<path d="M-12,42 L-12,149" stroke="#404040" stroke-width="1" />
<path d="M0,42 L-12,42" stroke="#404040" />
<rect x="-14" y="40" width="4" height="4" fill="white" stroke="black" stroke-width="1" />
<path d="M-12,149 L-5,149" stroke="#404040" />
<rect x="-14" y="147" width="4" height="4" fill="white" stroke="black" stroke-width="1" />
<path d="M-20,68 L-20,149" stroke="#404040" stroke-width="1" />
<path d="M0,68 L-20,68" stroke="#404040" />
<rect x="-22" y="66" width="4" height="4" fill="white" stroke="black" stroke-width="1" />
<path d="M-20,149 L-5,149" stroke="#404040" />
<rect x="-22" y="147" width="4" height="4" fill="white" stroke="black" stroke-width="1" />
</svg>