<?xml version="1.0" encoding="UTF-8"?>
<svg xmlns="http://www.w3.org/2000/svg" xmlns:xlink="http://www.w3.org/1999/xlink"
     width="1261.0" height="800" viewBox="0 0 1261.0 800">
<defs>
</defs>
<rect x="0" y="0" width="1261.0" height="800" fill="#ffffff" />
<text x="630.0" y="25" font-size="14" fontWeight="bold" font-family="Verdana, sans-serif" fill="#000000" text-anchor="middle" dominant-baseline="central">ECC: E_SPLIT</text>
<rect x="10.0" y="438.149377593361" width="80" height="32" fill="#f5f5f5" stroke="#000000" stroke-width="2" rx="8" ry="8" />
<text x="50.0" y="454.149377593361" font-size="12" fontWeight="bold" font-family="Verdana, sans-serif" fill="#000000" text-anchor="middle" dominant-baseline="central">START</text>
<rect x="910.0" y="329.850622406639" width="80" height="32" fill="#f5f5f5" stroke="#000000" stroke-width="2" rx="8" ry="8" />
<text x="950.0" y="345.850622406639" font-size="12" fontWeight="bold" font-family="Verdana, sans-serif" fill="#000000" text-anchor="middle" dominant-baseline="central">State</text>
<rect x="1000.0" y="329.850622406639" width="161" height="36" fill="#ffffff" stroke="#cccccc" stroke-width="1" rx="4" ry="4" />
<path d="M990.0,345.850622406639 L1000.0,340.850622406639" stroke="#000000" stroke-width="2" />
<path d="M1080.0,329.850622406639 L1080.0,365.850622406639" stroke="#cccccc" stroke-width="1" />
<rect x="1000.0" y="333.850622406639" width="80" height="14" fill="#e6f7e6" stroke="#cccccc" stroke-width="0.5" />
<text x="1040.0" y="341.850622406639" font-size="10" font-family="Consolas, monospace" fill="#000000" text-anchor="middle" dominant-baseline="central"></text>
<rect x="1081.0" y="333.850622406639" width="80" height="14" fill="#ffe6e6" stroke="#cccccc" stroke-width="0.5" />
<text x="1121.0" y="341.850622406639" font-size="10" font-family="Consolas, monospace" fill="#000000" text-anchor="middle" dominant-baseline="central">EO1</text>
<path d="M1000.0,347.850622406639 L1161.0,347.850622406639" stroke="#cccccc" stroke-width="0.5" />
<rect x="1000.0" y="347.850622406639" width="80" height="14" fill="#e6f7e6" stroke="#cccccc" stroke-width="0.5" />
<text x="1040.0" y="355.850622406639" font-size="10" font-family="Consolas, monospace" fill="#000000" text-anchor="middle" dominant-baseline="central"></text>
<rect x="1081.0" y="347.850622406639" width="80" height="14" fill="#ffe6e6" stroke="#cccccc" stroke-width="0.5" />
<text x="1121.0" y="355.850622406639" font-size="10" font-family="Consolas, monospace" fill="#000000" text-anchor="middle" dominant-baseline="central">EO2</text>
<path d="M90.0,446.649377593361 C435.6682406889514,446.649377593361,950.0,707.5188630955904,950.0,361.850622406639" stroke="#404040" stroke-width="1.2" fill="none" />
<path d="M950.0,361.850622406639 L954.0,368.7788256369145 L946.0,368.7788256369145 L950.0,361.850622406639" fill="#404040" stroke="#404040" stroke-width="1" />
<g transform="translate(649.6255902583569,533.8755902583567)">
<rect x="-10.5" y="-7.5" width="21.0" height="15" fill="#ffffff" opacity="0.9" rx="3" ry="3" />
<text x="0" y="3.5" font-size="10" font-family="Consolas, monospace" fill="#000000" text-anchor="middle" dominant-baseline="central">EI</text>
</g>
<path d="M910.0,353.350622406639 C549.3317593110486,353.350622406639,50.0,77.4811369044096,50.0,438.149377593361" stroke="#404040" stroke-width="1.2" fill="none" />
<path d="M50.0,438.149377593361 L46.0,431.2211743630855 L54.0,431.2211743630855 L50.0,438.149377593361" fill="#404040" stroke="#404040" stroke-width="1" />
<g transform="translate(344.7494097416432,260.4994097416432)">
<rect x="-7.25" y="-7.5" width="14.5" height="15" fill="#ffffff" opacity="0.9" rx="3" ry="3" />
<text x="0" y="3.5" font-size="10" font-family="Consolas, monospace" fill="#000000" text-anchor="middle" dominant-baseline="central">1</text>
</g>
</svg>