<?xml version="1.0" encoding="UTF-8"?>
<svg xmlns="http://www.w3.org/2000/svg" xmlns:xlink="http://www.w3.org/1999/xlink"
     width="1261.0" height="800" viewBox="0 0 1261.0 800">
<defs>
</defs>
<rect x="0" y="0" width="1261.0" height="800" fill="#ffffff" />
<text x="630.0" y="25" font-size="14" fontWeight="bold" font-family="Verdana, sans-serif" fill="#000000" text-anchor="middle" dominant-baseline="central">ECC: E_SWITCH</text>
<rect x="10.0" y="578.0217391304348" width="80" height="32" fill="#f5f5f5" stroke="#000000" stroke-width="2" rx="8" ry="8" />
<text x="50.0" y="594.0217391304348" font-size="12" fontWeight="bold" font-family="Verdana, sans-serif" fill="#000000" text-anchor="middle" dominant-baseline="central">G1</text>
<rect x="100.0" y="578.0217391304348" width="161" height="22" fill="#ffffff" stroke="#cccccc" stroke-width="1" rx="4" ry="4" />
<path d="M90.0,594.0217391304348 L100.0,589.0217391304348" stroke="#000000" stroke-width="2" />
<path d="M180.0,578.0217391304348 L180.0,600.0217391304348" stroke="#cccccc" stroke-width="1" />
<rect x="100.0" y="582.0217391304348" width="80" height="14" fill="#e6f7e6" stroke="#cccccc" stroke-width="0.5" />
<text x="140.0" y="590.0217391304348" font-size="10" font-family="Consolas, monospace" fill="#000000" text-anchor="middle" dominant-baseline="central"></text>
<rect x="181.0" y="582.0217391304348" width="80" height="14" fill="#ffe6e6" stroke="#cccccc" stroke-width="0.5" />
<text x="221.0" y="590.0217391304348" font-size="10" font-family="Consolas, monospace" fill="#000000" text-anchor="middle" dominant-baseline="central">EO1</text>
<rect x="160.0" y="189.97826086956522" width="80" height="32" fill="#f5f5f5" stroke="#000000" stroke-width="2" rx="8" ry="8" />
<text x="200.0" y="205.97826086956522" font-size="12" fontWeight="bold" font-family="Verdana, sans-serif" fill="#000000" text-anchor="middle" dominant-baseline="central">START</text>
<rect x="910.0" y="388.8913043478261" width="80" height="32" fill="#f5f5f5" stroke="#000000" stroke-width="2" rx="8" ry="8" />
<text x="950.0" y="404.8913043478261" font-size="12" fontWeight="bold" font-family="Verdana, sans-serif" fill="#000000" text-anchor="middle" dominant-baseline="central">G0</text>
<rect x="1000.0" y="388.8913043478261" width="161" height="22" fill="#ffffff" stroke="#cccccc" stroke-width="1" rx="4" ry="4" />
<path d="M990.0,404.8913043478261 L1000.0,399.8913043478261" stroke="#000000" stroke-width="2" />
<path d="M1080.0,388.8913043478261 L1080.0,410.8913043478261" stroke="#cccccc" stroke-width="1" />
<rect x="1000.0" y="392.8913043478261" width="80" height="14" fill="#e6f7e6" stroke="#cccccc" stroke-width="0.5" />
<text x="1040.0" y="400.8913043478261" font-size="10" font-family="Consolas, monospace" fill="#000000" text-anchor="middle" dominant-baseline="central"></text>
<rect x="1081.0" y="392.8913043478261" width="80" height="14" fill="#ffe6e6" stroke="#cccccc" stroke-width="0.5" />
<text x="1121.0" y="400.8913043478261" font-size="10" font-family="Consolas, monospace" fill="#000000" text-anchor="middle" dominant-baseline="central">EO0</text>
<path d="M910.0,397.3913043478261 C614.5475372727974,397.3913043478261,192.5,517.4307235967677,192.5,221.97826086956522" stroke="#404040" stroke-width="1.2" fill="none" />
<path d="M192.5,221.97826086956522 L196.5,228.90646409984072 L188.5,228.90646409984072 L192.5,221.97826086956522" fill="#404040" stroke="#404040" stroke-width="1" />
<g transform="translate(440.455326477299,420.4794561313966)">
<rect x="-7.25" y="-7.5" width="14.5" height="15" fill="#ffffff" opacity="0.9" rx="3" ry="3" />
<text x="0" y="3.5" font-size="10" font-family="Consolas, monospace" fill="#000000" text-anchor="middle" dominant-baseline="central">1</text>
</g>
<path d="M90.0,586.5217391304348 C243.20480281898898,586.5217391304348,207.5,404.25,207.5,221.97826086956522" stroke="#404040" stroke-width="1.2" fill="none" />
<path d="M207.5,221.97826086956522 L211.5,228.90646409984072 L203.5,228.90646409984072 L207.5,221.97826086956522" fill="#404040" stroke="#404040" stroke-width="1" />
<g transform="translate(206.20180105712086,472.601902173913)">
<rect x="-7.25" y="-7.5" width="14.5" height="15" fill="#ffffff" opacity="0.9" rx="3" ry="3" />
<text x="0" y="3.5" font-size="10" font-family="Consolas, monospace" fill="#000000" text-anchor="middle" dominant-baseline="central">1</text>
</g>
<path d="M240.0,213.47826086956522 C547.5391558946751,213.47826086956522,950.0,81.35214845315107,950.0,388.8913043478261" stroke="#404040" stroke-width="1.2" fill="none" />
<path d="M950.0,388.8913043478261 L946.0,381.9631011175506 L954.0,381.9631011175506 L950.0,388.8913043478261" fill="#404040" stroke="#404040" stroke-width="1" />
<g transform="translate(710.3271834605032,185.85759914819255)">
<rect x="-33.25" y="-7.5" width="66.5" height="15" fill="#ffffff" opacity="0.9" rx="3" ry="3" />
<text x="0" y="3.5" font-size="10" font-family="Consolas, monospace" fill="#000000" text-anchor="middle" dominant-baseline="central">EI[NOT G]</text>
</g>
<path d="M160.0,213.47826086956522 C-7.311232700695086,213.47826086956522,50.0,395.75,50.0,578.0217391304348" stroke="#404040" stroke-width="1.2" fill="none" />
<path d="M50.0,578.0217391304348 L46.0,571.0935359001593 L54.0,571.0935359001593 L50.0,578.0217391304348" fill="#404040" stroke="#404040" stroke-width="1" />
<g transform="translate(42.25828773723934,327.398097826087)">
<rect x="-20.25" y="-7.5" width="40.5" height="15" fill="#ffffff" opacity="0.9" rx="3" ry="3" />
<text x="0" y="3.5" font-size="10" font-family="Consolas, monospace" fill="#000000" text-anchor="middle" dominant-baseline="central">EI[G]</text>
</g>
</svg>