<?xml version="1.0" encoding="UTF-8"?>
<svg xmlns="http://www.w3.org/2000/svg" xmlns:xlink="http://www.w3.org/1999/xlink"
     width="1200" height="800" viewBox="0 0 1200 800">
<defs>
</defs>
<rect x="0" y="0" width="1200" height="800" fill="#ffffff" />
<text x="600" y="25" font-size="14" fontWeight="bold" font-family="Verdana, sans-serif" fill="#000000" text-anchor="middle" dominant-baseline="central">ECC: E_T_FF</text>
<rect x="10.0" y="401.5" width="80" height="32" fill="#f5f5f5" stroke="#000000" stroke-width="2" rx="8" ry="8" />
<text x="50.0" y="417.5" font-size="12" fontWeight="bold" font-family="Verdana, sans-serif" fill="#000000" text-anchor="middle" dominant-baseline="central">START</text>
<rect x="845.0" y="366.5" width="80" height="32" fill="#f5f5f5" stroke="#000000" stroke-width="2" rx="8" ry="8" />
<text x="885.0" y="382.5" font-size="12" fontWeight="bold" font-family="Verdana, sans-serif" fill="#000000" text-anchor="middle" dominant-baseline="central">SET</text>
<rect x="935.0" y="366.5" width="161" height="22" fill="#ffffff" stroke="#cccccc" stroke-width="1" rx="4" ry="4" />
<path d="M925.0,382.5 L935.0,377.5" stroke="#000000" stroke-width="2" />
<path d="M1015.0,366.5 L1015.0,388.5" stroke="#cccccc" stroke-width="1" />
<rect x="935.0" y="370.5" width="80" height="14" fill="#e6f7e6" stroke="#cccccc" stroke-width="0.5" />
<text x="975.0" y="378.5" font-size="10" font-family="Consolas, monospace" fill="#000000" text-anchor="middle" dominant-baseline="central">TOGGLE</text>
<rect x="1016.0" y="370.5" width="80" height="14" fill="#ffe6e6" stroke="#cccccc" stroke-width="0.5" />
<text x="1056.0" y="378.5" font-size="10" font-family="Consolas, monospace" fill="#000000" text-anchor="middle" dominant-baseline="central">EO</text>
<path d="M90.0,410.0 C130.0,410.0,885.0,438.5,885.0,398.5" stroke="#404040" stroke-width="1.2" fill="none" />
<path d="M885.0,398.5 L889.0,405.4282032302755 L881.0,405.4282032302755 L885.0,398.5" fill="#404040" stroke="#404040" stroke-width="1" />
<g transform="translate(502.5,419.25)">
<rect x="-13.75" y="-7.5" width="27.5" height="15" fill="#ffffff" opacity="0.9" rx="3" ry="3" />
<text x="0" y="3.5" font-size="10" font-family="Consolas, monospace" fill="#000000" text-anchor="middle" dominant-baseline="central">CLK</text>
</g>
<path d="M845.0,390.0 C800.0,390.0,50.0,356.5,50.0,401.5" stroke="#404040" stroke-width="1.2" fill="none" />
<path d="M50.0,401.5 L46.0,394.5717967697245 L54.0,394.5717967697245 L50.0,401.5" fill="#404040" stroke="#404040" stroke-width="1" />
<g transform="translate(430.625,378.875)">
<rect x="-7.25" y="-7.5" width="14.5" height="15" fill="#ffffff" opacity="0.9" rx="3" ry="3" />
<text x="0" y="3.5" font-size="10" font-family="Consolas, monospace" fill="#000000" text-anchor="middle" dominant-baseline="central">1</text>
</g>
</svg>