<?xml version="1.0" encoding="UTF-8"?>
<svg xmlns="http://www.w3.org/2000/svg" xmlns:xlink="http://www.w3.org/1999/xlink"
     width="1028" height="197" viewBox="-540 -20 1028 197">
<defs>
</defs>
<rect x="3" y="3" width="190" height="147" fill="#000000" fill-opacity="0.1" rx="2" ry="2" />
<path d="M0,0 H190 V66 H184 V106 H190 V147 H0 V106 H6 V66 H0 Z" fill="#ffffff" stroke="#000000" stroke-width="2" />
<path d="M0,30 L190,30" stroke="#000000" stroke-width="1" />
<text x="95.0" y="84.0" font-size="14" fontWeight="bold" font-family="Verdana, sans-serif" font-style="italic" text-anchor="middle" dominant-baseline="central">AUS_US_TO_USINT</text>
<text x="95.0" y="98.0" font-size="10" fill="#000" font-family="Consolas, monospace" text-anchor="middle" dominant-baseline="central">1.0</text>
<rect x="-5.0" y="118.0" width="10" height="10" fill="white" stroke="#845DAF" stroke-width="2.5" />
<text x="12" y="127" font-size="12" text-anchor="start" font-family="Consolas, monospace">AUS_IN</text>
<text x="-15" y="126" font-size="11" text-anchor="end" fill="#000" font-style="italic" font-family="Verdana, sans-serif">AUS</text>
<text x="-85" y="126" font-size="11" text-anchor="end" fill="#666666" font-family="Verdana, sans-serif">Adapter Input</text>
<path d="M190,37 L190,47 L195,42 Z" fill="#63B31F" stroke="none" />
<text x="178" y="46" font-size="12" text-anchor="end" font-family="Consolas, monospace">CNF</text>
<text x="213" y="45" font-size="11" text-anchor="start" fill="#888" font-style="italic" font-family="Verdana, sans-serif">Event</text>
<text x="283" y="45" font-size="11" text-anchor="start" fill="#666666" font-family="Verdana, sans-serif">Confirmation from Adapter</text>
<path d="M190,118 L190,128 L195,123 Z" fill="#18519E" stroke="none" />
<text x="178" y="127" font-size="12" text-anchor="end" font-family="Consolas, monospace">IN</text>
<text x="213" y="126" font-size="11" text-anchor="start" fill="#18519E" font-style="italic" font-family="Verdana, sans-serif">USINT</text>
<text x="283" y="126" font-size="11" text-anchor="start" fill="#666666" font-family="Verdana, sans-serif">Input data from Adapter</text>
<path d="M202,42 L202,123" stroke="#404040" stroke-width="1" />
<path d="M190,42 L202,42" stroke="#404040" />
<rect x="200" y="40" width="4" height="4" fill="white" stroke="black" stroke-width="1" />
<path d="M202,123 L195,123" stroke="#404040" />
<rect x="200" y="121" width="4" height="4" fill="white" stroke="black" stroke-width="1" />
</svg>