<?xml version="1.0" encoding="UTF-8"?>
<svg xmlns="http://www.w3.org/2000/svg" xmlns:xlink="http://www.w3.org/1999/xlink"
     width="1016" height="223" viewBox="-548 -20 1016 223">
<defs>
</defs>
<rect x="3" y="3" width="170" height="173" fill="#000000" fill-opacity="0.1" rx="2" ry="2" />
<path d="M0,0 H170 V66 H164 V106 H170 V173 H0 V106 H6 V66 H0 Z" fill="#ffffff" stroke="#606060" stroke-width="2" />
<path d="M0,30 L170,30" stroke="#606060" stroke-width="1" />
<text x="85.0" y="84.0" font-size="14" fontWeight="bold" font-family="Verdana, sans-serif" font-style="italic" text-anchor="middle" dominant-baseline="central">AX2_BOOL_TO_X</text>
<text x="85.0" y="98.0" font-size="10" fill="#000" font-family="Consolas, monospace" text-anchor="middle" dominant-baseline="central">1.0</text>
<path d="M-5,37 L-5,47 L0,42 Z" fill="#5cb85c" stroke="none" />
<text x="12" y="46" font-size="12" text-anchor="start" font-family="Consolas, monospace">REQ</text>
<text x="-23" y="45" font-size="11" text-anchor="end" fill="#888" font-style="italic" font-family="Verdana, sans-serif">Event</text>
<text x="-93" y="45" font-size="11" text-anchor="end" fill="#666666" font-family="Verdana, sans-serif">Request to Adapter</text>
<path d="M-5,118 L-5,128 L0,123 Z" fill="#0066cc" stroke="none" />
<text x="12" y="127" font-size="12" text-anchor="start" font-family="Consolas, monospace">OUT</text>
<text x="-23" y="126" font-size="11" text-anchor="end" fill="#0066cc" font-style="italic" font-family="Verdana, sans-serif">BOOL</text>
<path d="M170,37 L170,47 L175,42 Z" fill="#5cb85c" stroke="none" />
<text x="158" y="46" font-size="12" text-anchor="end" font-family="Consolas, monospace">CNF</text>
<text x="193" y="45" font-size="11" text-anchor="start" fill="#888" font-style="italic" font-family="Verdana, sans-serif">Event</text>
<text x="263" y="45" font-size="11" text-anchor="start" fill="#666666" font-family="Verdana, sans-serif">Confirmation from Adapter</text>
<rect x="165.0" y="118.0" width="10" height="10" fill="#985ec9" stroke="none" />
<text x="158" y="127" font-size="12" text-anchor="end" font-family="Consolas, monospace">AX2_OUT</text>
<text x="193" y="126" font-size="11" text-anchor="start" fill="#000" font-style="italic" font-family="Verdana, sans-serif">AX2</text>
<text x="263" y="126" font-size="11" text-anchor="start" fill="#666666" font-family="Verdana, sans-serif">Adapter Output</text>
<path d="M170,144 L170,154 L175,149 Z" fill="#0066cc" stroke="none" />
<text x="158" y="153" font-size="12" text-anchor="end" font-family="Consolas, monospace">IN</text>
<text x="193" y="152" font-size="11" text-anchor="start" fill="#0066cc" font-style="italic" font-family="Verdana, sans-serif">BOOL</text>
<text x="263" y="152" font-size="11" text-anchor="start" fill="#666666" font-family="Verdana, sans-serif">Input data from Adapter</text>
<path d="M-12,42 L-12,123" stroke="#404040" stroke-width="1" />
<path d="M0,42 L-12,42" stroke="#404040" />
<rect x="-14" y="40" width="4" height="4" fill="white" stroke="black" stroke-width="1" />
<path d="M-12,123 L-5,123" stroke="#404040" />
<rect x="-14" y="121" width="4" height="4" fill="white" stroke="black" stroke-width="1" />
<path d="M182,42 L182,149" stroke="#404040" stroke-width="1" />
<path d="M170,42 L182,42" stroke="#404040" />
<rect x="180" y="40" width="4" height="4" fill="white" stroke="black" stroke-width="1" />
<path d="M182,149 L175,149" stroke="#404040" />
<rect x="180" y="147" width="4" height="4" fill="white" stroke="black" stroke-width="1" />
</svg>