<?xml version="1.0" encoding="UTF-8"?>
<svg xmlns="http://www.w3.org/2000/svg"
     viewBox="53.0 -93.0 1126.0 588.0"
     width="1126" height="588">
  <style>
    @font-face {
      font-family: "TGL 0-17_std";
      src: local("TGL 0-17_std");
      font-style: normal;
      font-weight: normal;
    }
    @font-face {
      font-family: "TGL 0-17";
      src: local("TGL 0-17"), local("TGL 0-17 alt");
      font-style: normal;
      font-weight: normal;
    }
    @font-face {
      font-family: "TGL 0-16_std";
      src: local("TGL 0-16_std");
      font-style: normal;
      font-weight: normal;
    }
    @font-face {
      font-family: "TGL 0-16";
      src: local("TGL 0-16");
      font-style: normal;
      font-weight: normal;
    }
  </style>
  <defs>
    <filter id="dropShadow" x="-20%" y="-20%" width="140%" height="140%">
      <feGaussianBlur in="SourceAlpha" stdDeviation="3" result="blur"/>
      <feOffset in="blur" dx="1" dy="1" result="offsetBlur"/>
      <feFlood flood-color="#000000" flood-opacity="0.5" result="shadowColor"/>
      <feComposite in="shadowColor" in2="offsetBlur" operator="in" result="shadow"/>
      <feMerge>
        <feMergeNode in="shadow"/>
        <feMergeNode in="SourceGraphic"/>
      </feMerge>
    </filter>
  </defs>
  <rect x="53.0" y="-93.0" width="1126.0" height="588.0" fill="white"/>
  <rect x="60.0" y="-86.0" width="1112.0" height="574.0" fill="none" stroke="#A0A0A0" stroke-width="2"/>
  <rect x="60.0" y="-86.0" width="1112.0" height="25.0" fill="white" stroke="none"/>
  <line x1="60.0" y1="-61.5" x2="1172.0" y2="-61.5" stroke="#A0A0A0" stroke-width="1"/>
  <text x="65.0" y="-69.3" font-family="'TGL 0-17_std', 'TGL 0-17', 'Times New Roman', Times, serif" font-size="12" font-weight="bold" fill="#333333">Exercise for E_RESTART</text>
  <g id="sidebars">
  </g>
  <g id="connections">
  </g>
  <g id="interface_ports">
  </g>
  <g id="instances">
    <g id="fb_E_RESTART_1" transform="translate(564.8, 75.0)">
      <path d="M 3 0
            L 99.462890625 0
            A 3 3 0 0 1 102.462890625 3
            L 102.462890625 52
            A 3 3 0 0 1 99.462890625 55
            L 93.462890625 55
            L 93.462890625 69
            L 99.462890625 69
            A 3 3 0 0 1 102.462890625 72
            L 102.462890625 69
            A 3 3 0 0 1 99.462890625 72
            L 3 72
            A 3 3 0 0 1 0 69
            L 0 72
            A 3 3 0 0 1 3 69
            L 9 69
            L 9 55
            L 3 55
            A 3 3 0 0 1 0 52
            L 0 3
            A 3 3 0 0 1 3 0
            Z"
            fill="#FFFFFF" stroke="#A0A0A0" stroke-width="1.5"
            stroke-linejoin="round" filter="url(#dropShadow)"/>
      <!-- Name Section -->
      <path d="M 13.0 54.0
            L 27.0 54.0
            A 1 1 0 0 1 28.0 55.0
            L 28.0 58.0
            L 26.5 58.0
            L 26.5 60.666666666666664
            L 28.0 60.666666666666664
            L 28.0 69.0
            A 1 1 0 0 1 27.0 70.0
            L 13.0 70.0
            A 1 1 0 0 1 12.0 69.0
            L 12.0 60.666666666666664
            L 13.5 60.666666666666664
            L 13.5 58.0
            L 12.0 58.0
            L 12.0 55.0
            A 1 1 0 0 1 13.0 54.0
            Z"
            fill="#87CEEB" stroke="#1565C0" stroke-width="1"/>
      <text x="20.0" y="66.0"
            font-family="'TGL 0-17_std', 'TGL 0-17', 'Times New Roman', Times, serif" font-size="10" font-weight="bold"
            fill="#000000" text-anchor="middle">Si</text>
      <text x="30.0" y="66.0"
            font-family="'TGL 0-16_std', 'TGL 0-16', 'Times New Roman', Times, serif" font-size="12"
            fill="#000000">E_RESTART</text>
      <polygon points="97.462890625,5.5 102.462890625,10.5 97.462890625,15.5" fill="#63B31F"/>
      <text x="96.462890625" y="14.7" font-family="'TGL 0-17_std', 'TGL 0-17', 'Times New Roman', Times, serif" font-size="12"
            fill="#000000" text-anchor="end">COLD</text>
      <polygon points="97.462890625,22.5 102.462890625,27.5 97.462890625,32.5" fill="#63B31F"/>
      <text x="96.462890625" y="31.7" font-family="'TGL 0-17_std', 'TGL 0-17', 'Times New Roman', Times, serif" font-size="12"
            fill="#000000" text-anchor="end">WARM</text>
      <polygon points="97.462890625,39.5 102.462890625,44.5 97.462890625,49.5" fill="#63B31F"/>
      <text x="96.462890625" y="48.7" font-family="'TGL 0-17_std', 'TGL 0-17', 'Times New Roman', Times, serif" font-size="12"
            fill="#000000" text-anchor="end">STOP</text>



      <!-- Instance Name -->
      <text x="51.2314453125" y="-5"
            font-family="'TGL 0-17_std', 'TGL 0-17', 'Times New Roman', Times, serif" font-size="12"
            fill="#000000" text-anchor="middle">E_RESTART_1</text>
    </g>
  </g>
</svg>
