<?xml version="1.0" encoding="UTF-8"?>
<svg xmlns="http://www.w3.org/2000/svg" xmlns:xlink="http://www.w3.org/1999/xlink"
     width="1065" height="275" viewBox="-548 -20 1065 275">
<defs>
</defs>
<rect x="3" y="3" width="211" height="225" fill="#000000" fill-opacity="0.1" rx="2" ry="2" />
<path d="M0,0 H211 V92 H205 V132 H211 V225 H0 V132 H6 V92 H0 Z" fill="#ffffff" stroke="#606060" stroke-width="2" />
<path d="M0,30 L211,30" stroke="#606060" stroke-width="1" />
<text x="105.5" y="110.0" font-size="14" fontWeight="bold" font-family="Verdana, sans-serif" font-style="italic" text-anchor="middle" dominant-baseline="central">PLCnextMaster</text>
<text x="105.5" y="124.0" font-size="10" fill="#000" font-family="Consolas, monospace" text-anchor="middle" dominant-baseline="central">3.0</text>
<path d="M-5,37 L-5,47 L0,42 Z" fill="#5cb85c" stroke="none" />
<text x="12" y="46" font-size="12" text-anchor="start" font-family="Consolas, monospace">INIT</text>
<text x="-23" y="45" font-size="11" text-anchor="end" fill="#888" font-style="italic" font-family="Verdana, sans-serif">Event</text>
<text x="-93" y="45" font-size="11" text-anchor="end" fill="#666666" font-family="Verdana, sans-serif">Service Initialization</text>
<path d="M-5,144 L-5,154 L0,149 Z" fill="#0066cc" stroke="none" />
<text x="12" y="153" font-size="12" text-anchor="start" font-family="Consolas, monospace">QI</text>
<text x="-23" y="152" font-size="11" text-anchor="end" fill="#0066cc" font-style="italic" font-family="Verdana, sans-serif">BOOL</text>
<text x="-93" y="152" font-size="11" text-anchor="end" fill="#666666" font-family="Verdana, sans-serif">Event Input Qualifier</text>
<path d="M-5,170 L-5,180 L0,175 Z" fill="#0066cc" stroke="none" />
<text x="12" y="179" font-size="12" text-anchor="start" font-family="Consolas, monospace">SlaveUpdateInterval</text>
<text x="-23" y="178" font-size="11" text-anchor="end" fill="#0066cc" font-style="italic" font-family="Verdana, sans-serif">UINT</text>
<path d="M211,37 L211,47 L216,42 Z" fill="#5cb85c" stroke="none" />
<text x="199" y="46" font-size="12" text-anchor="end" font-family="Consolas, monospace">INITO</text>
<text x="242" y="45" font-size="11" text-anchor="start" fill="#888" font-style="italic" font-family="Verdana, sans-serif">Event</text>
<text x="312" y="45" font-size="11" text-anchor="start" fill="#666666" font-family="Verdana, sans-serif">Initialization Confirm</text>
<path d="M211,63 L211,73 L216,68 Z" fill="#5cb85c" stroke="none" />
<text x="199" y="72" font-size="12" text-anchor="end" font-family="Consolas, monospace">IND</text>
<text x="242" y="71" font-size="11" text-anchor="start" fill="#888" font-style="italic" font-family="Verdana, sans-serif">Event</text>
<text x="312" y="71" font-size="11" text-anchor="start" fill="#666666" font-family="Verdana, sans-serif">Indication from Resource</text>
<rect x="206.0" y="144.0" width="10" height="10" fill="#985ec9" stroke="none" />
<text x="199" y="153" font-size="12" text-anchor="end" font-family="Consolas, monospace">BusAdapterOut</text>
<text x="242" y="152" font-size="11" text-anchor="start" fill="#000" font-style="italic" font-family="Verdana, sans-serif">PLCnextBusAdapter</text>
<path d="M211,170 L211,180 L216,175 Z" fill="#0066cc" stroke="none" />
<text x="199" y="179" font-size="12" text-anchor="end" font-family="Consolas, monospace">QO</text>
<text x="242" y="178" font-size="11" text-anchor="start" fill="#0066cc" font-style="italic" font-family="Verdana, sans-serif">BOOL</text>
<text x="312" y="178" font-size="11" text-anchor="start" fill="#666666" font-family="Verdana, sans-serif">Event Output Qualifier</text>
<path d="M211,196 L211,206 L216,201 Z" fill="#0066cc" stroke="none" />
<text x="199" y="205" font-size="12" text-anchor="end" font-family="Consolas, monospace">STATUS</text>
<text x="242" y="204" font-size="11" text-anchor="start" fill="#0066cc" font-style="italic" font-family="Verdana, sans-serif">WSTRING</text>
<text x="312" y="204" font-size="11" text-anchor="start" fill="#666666" font-family="Verdana, sans-serif">Status</text>
<path d="M-12,42 L-12,175" stroke="#404040" stroke-width="1" />
<path d="M0,42 L-12,42" stroke="#404040" />
<rect x="-14" y="40" width="4" height="4" fill="white" stroke="black" stroke-width="1" />
<path d="M-12,149 L-5,149" stroke="#404040" />
<rect x="-14" y="147" width="4" height="4" fill="white" stroke="black" stroke-width="1" />
<path d="M-12,175 L-5,175" stroke="#404040" />
<rect x="-14" y="173" width="4" height="4" fill="white" stroke="black" stroke-width="1" />
<path d="M223,42 L223,201" stroke="#404040" stroke-width="1" />
<path d="M211,42 L223,42" stroke="#404040" />
<rect x="221" y="40" width="4" height="4" fill="white" stroke="black" stroke-width="1" />
<path d="M223,175 L216,175" stroke="#404040" />
<rect x="221" y="173" width="4" height="4" fill="white" stroke="black" stroke-width="1" />
<path d="M223,201 L216,201" stroke="#404040" />
<rect x="221" y="199" width="4" height="4" fill="white" stroke="black" stroke-width="1" />
<path d="M231,68 L231,201" stroke="#404040" stroke-width="1" />
<path d="M211,68 L231,68" stroke="#404040" />
<rect x="229" y="66" width="4" height="4" fill="white" stroke="black" stroke-width="1" />
<path d="M231,175 L216,175" stroke="#404040" />
<rect x="229" y="173" width="4" height="4" fill="white" stroke="black" stroke-width="1" />
<path d="M231,201 L216,201" stroke="#404040" />
<rect x="229" y="199" width="4" height="4" fill="white" stroke="black" stroke-width="1" />
</svg>