<?xml version="1.0" encoding="UTF-8"?>
<svg xmlns="http://www.w3.org/2000/svg" xmlns:xlink="http://www.w3.org/1999/xlink"
     width="1050" height="327" viewBox="-556 -20 1050 327">
<defs>
</defs>
<rect x="3" y="3" width="180" height="277" fill="#000000" fill-opacity="0.1" rx="2" ry="2" />
<path d="M0,0 H180 V118 H174 V158 H180 V277 H0 V158 H6 V118 H0 Z" fill="#ffffff" stroke="#000000" stroke-width="2" />
<path d="M0,30 L180,30" stroke="#000000" stroke-width="1" />
<text x="90.0" y="136.0" font-size="14" fontWeight="bold" font-family="Verdana, sans-serif" font-style="italic" text-anchor="middle" dominant-baseline="central">PKP_2200_LI_IX</text>
<text x="90.0" y="150.0" font-size="10" fill="#000" font-family="Consolas, monospace" text-anchor="middle" dominant-baseline="central">1.0</text>
<path d="M-5,37 L-5,47 L0,42 Z" fill="#63B31F" stroke="none" />
<text x="12" y="46" font-size="12" text-anchor="start" font-family="Consolas, monospace">INIT</text>
<text x="-31" y="45" font-size="11" text-anchor="end" fill="#888" font-style="italic" font-family="Verdana, sans-serif">Event</text>
<text x="-101" y="45" font-size="11" text-anchor="end" fill="#666666" font-family="Verdana, sans-serif">Service Initialization</text>
<path d="M-5,63 L-5,73 L0,68 Z" fill="#63B31F" stroke="none" />
<text x="12" y="72" font-size="12" text-anchor="start" font-family="Consolas, monospace">REQ</text>
<text x="-31" y="71" font-size="11" text-anchor="end" fill="#888" font-style="italic" font-family="Verdana, sans-serif">Event</text>
<text x="-101" y="71" font-size="11" text-anchor="end" fill="#666666" font-family="Verdana, sans-serif">Service Request</text>
<path d="M-5,170 L-5,180 L0,175 Z" fill="#9FA48A" stroke="none" />
<text x="12" y="179" font-size="12" text-anchor="start" font-family="Consolas, monospace">QI</text>
<text x="-31" y="178" font-size="11" text-anchor="end" fill="#9FA48A" font-style="italic" font-family="Verdana, sans-serif">BOOL</text>
<text x="-101" y="178" font-size="11" text-anchor="end" fill="#666666" font-family="Verdana, sans-serif">Event Input Qualifier</text>
<path d="M-5,196 L-5,206 L0,201 Z" fill="#BD8663" stroke="none" />
<text x="12" y="205" font-size="12" text-anchor="start" font-family="Consolas, monospace">PARAMS</text>
<text x="-31" y="204" font-size="11" text-anchor="end" fill="#BD8663" font-style="italic" font-family="Verdana, sans-serif">STRING</text>
<text x="-101" y="204" font-size="11" text-anchor="end" fill="#666666" font-family="Verdana, sans-serif">Service Parameters</text>
<path d="M-5,222 L-5,232 L0,227 Z" fill="#18519E" stroke="none" />
<text x="12" y="231" font-size="12" text-anchor="start" font-family="Consolas, monospace">u8SAMember</text>
<text x="-31" y="230" font-size="11" text-anchor="end" fill="#18519E" font-style="italic" font-family="Verdana, sans-serif">USINT</text>
<text x="-101" y="230" font-size="11" text-anchor="end" fill="#666666" font-family="Verdana, sans-serif">Node SA (Default 21h = PKP_2200_DEFAULT)</text>
<path d="M-5,248 L-5,258 L0,253 Z" fill="#000000" stroke="none" />
<text x="12" y="257" font-size="12" text-anchor="start" font-family="Consolas, monospace">Input</text>
<text x="-31" y="256" font-size="11" text-anchor="end" fill="#000000" font-style="italic" font-family="Verdana, sans-serif">PKP_2200_LI_DI_S</text>
<text x="-101" y="256" font-size="11" text-anchor="end" fill="#666666" font-family="Verdana, sans-serif">Identify the Input Input_Q1..Q8</text>
<path d="M180,37 L180,47 L185,42 Z" fill="#63B31F" stroke="none" />
<text x="168" y="46" font-size="12" text-anchor="end" font-family="Consolas, monospace">INITO</text>
<text x="219" y="45" font-size="11" text-anchor="start" fill="#888" font-style="italic" font-family="Verdana, sans-serif">Event</text>
<text x="289" y="45" font-size="11" text-anchor="start" fill="#666666" font-family="Verdana, sans-serif">Initialization Confirm</text>
<path d="M180,63 L180,73 L185,68 Z" fill="#63B31F" stroke="none" />
<text x="168" y="72" font-size="12" text-anchor="end" font-family="Consolas, monospace">CNF</text>
<text x="219" y="71" font-size="11" text-anchor="start" fill="#888" font-style="italic" font-family="Verdana, sans-serif">Event</text>
<text x="289" y="71" font-size="11" text-anchor="start" fill="#666666" font-family="Verdana, sans-serif">Confirmation of Requested Service</text>
<path d="M180,89 L180,99 L185,94 Z" fill="#63B31F" stroke="none" />
<text x="168" y="98" font-size="12" text-anchor="end" font-family="Consolas, monospace">IND</text>
<text x="219" y="97" font-size="11" text-anchor="start" fill="#888" font-style="italic" font-family="Verdana, sans-serif">Event</text>
<text x="289" y="97" font-size="11" text-anchor="start" fill="#666666" font-family="Verdana, sans-serif">Indication from Resource</text>
<path d="M180,170 L180,180 L185,175 Z" fill="#9FA48A" stroke="none" />
<text x="168" y="179" font-size="12" text-anchor="end" font-family="Consolas, monospace">QO</text>
<text x="219" y="178" font-size="11" text-anchor="start" fill="#9FA48A" font-style="italic" font-family="Verdana, sans-serif">BOOL</text>
<text x="289" y="178" font-size="11" text-anchor="start" fill="#666666" font-family="Verdana, sans-serif">Event Output Qualifier</text>
<path d="M180,196 L180,206 L185,201 Z" fill="#BD8663" stroke="none" />
<text x="168" y="205" font-size="12" text-anchor="end" font-family="Consolas, monospace">STATUS</text>
<text x="219" y="204" font-size="11" text-anchor="start" fill="#BD8663" font-style="italic" font-family="Verdana, sans-serif">STRING</text>
<text x="289" y="204" font-size="11" text-anchor="start" fill="#666666" font-family="Verdana, sans-serif">Service Status</text>
<path d="M180,222 L180,232 L185,227 Z" fill="#9FA48A" stroke="none" />
<text x="168" y="231" font-size="12" text-anchor="end" font-family="Consolas, monospace">IN</text>
<text x="219" y="230" font-size="11" text-anchor="start" fill="#9FA48A" font-style="italic" font-family="Verdana, sans-serif">BOOL</text>
<text x="289" y="230" font-size="11" text-anchor="start" fill="#666666" font-family="Verdana, sans-serif">Input data from resource</text>
<path d="M-12,42 L-12,253" stroke="#404040" stroke-width="1" />
<path d="M0,42 L-12,42" stroke="#404040" />
<rect x="-14" y="40" width="4" height="4" fill="white" stroke="black" stroke-width="1" />
<path d="M-12,175 L-5,175" stroke="#404040" />
<rect x="-14" y="173" width="4" height="4" fill="white" stroke="black" stroke-width="1" />
<path d="M-12,201 L-5,201" stroke="#404040" />
<rect x="-14" y="199" width="4" height="4" fill="white" stroke="black" stroke-width="1" />
<path d="M-12,227 L-5,227" stroke="#404040" />
<rect x="-14" y="225" width="4" height="4" fill="white" stroke="black" stroke-width="1" />
<path d="M-12,253 L-5,253" stroke="#404040" />
<rect x="-14" y="251" width="4" height="4" fill="white" stroke="black" stroke-width="1" />
<path d="M-20,68 L-20,175" stroke="#404040" stroke-width="1" />
<path d="M0,68 L-20,68" stroke="#404040" />
<rect x="-22" y="66" width="4" height="4" fill="white" stroke="black" stroke-width="1" />
<path d="M-20,175 L-5,175" stroke="#404040" />
<rect x="-22" y="173" width="4" height="4" fill="white" stroke="black" stroke-width="1" />
<path d="M192,42 L192,201" stroke="#404040" stroke-width="1" />
<path d="M180,42 L192,42" stroke="#404040" />
<rect x="190" y="40" width="4" height="4" fill="white" stroke="black" stroke-width="1" />
<path d="M192,175 L185,175" stroke="#404040" />
<rect x="190" y="173" width="4" height="4" fill="white" stroke="black" stroke-width="1" />
<path d="M192,201 L185,201" stroke="#404040" />
<rect x="190" y="199" width="4" height="4" fill="white" stroke="black" stroke-width="1" />
<path d="M200,68 L200,227" stroke="#404040" stroke-width="1" />
<path d="M180,68 L200,68" stroke="#404040" />
<rect x="198" y="66" width="4" height="4" fill="white" stroke="black" stroke-width="1" />
<path d="M200,175 L185,175" stroke="#404040" />
<rect x="198" y="173" width="4" height="4" fill="white" stroke="black" stroke-width="1" />
<path d="M200,201 L185,201" stroke="#404040" />
<rect x="198" y="199" width="4" height="4" fill="white" stroke="black" stroke-width="1" />
<path d="M200,227 L185,227" stroke="#404040" />
<rect x="198" y="225" width="4" height="4" fill="white" stroke="black" stroke-width="1" />
<path d="M208,94 L208,227" stroke="#404040" stroke-width="1" />
<path d="M180,94 L208,94" stroke="#404040" />
<rect x="206" y="92" width="4" height="4" fill="white" stroke="black" stroke-width="1" />
<path d="M208,175 L185,175" stroke="#404040" />
<rect x="206" y="173" width="4" height="4" fill="white" stroke="black" stroke-width="1" />
<path d="M208,201 L185,201" stroke="#404040" />
<rect x="206" y="199" width="4" height="4" fill="white" stroke="black" stroke-width="1" />
<path d="M208,227 L185,227" stroke="#404040" />
<rect x="206" y="225" width="4" height="4" fill="white" stroke="black" stroke-width="1" />
</svg>