<?xml version="1.0" encoding="UTF-8"?>
<svg xmlns="http://www.w3.org/2000/svg"
     viewBox="53.0 -93.0 1126.0 918.0"
     width="1126" height="918">
  <style>
    @font-face {
      font-family: "TGL 0-17_std";
      src: local("TGL 0-17_std"), url("../../../_static/fonts/TGL-0-17_std.ttf") format("truetype");
      font-style: normal;
      font-weight: normal;
    }
    @font-face {
      font-family: "TGL 0-17";
      src: local("TGL 0-17"), local("TGL 0-17 alt"), url("../../../_static/fonts/TGL-0-17_std.ttf") format("truetype");
      font-style: normal;
      font-weight: normal;
    }
    @font-face {
      font-family: "TGL 0-16_std";
      src: local("TGL 0-16_std"), url("../../../_static/fonts/TGL-0-16_std.ttf") format("truetype");
      font-style: normal;
      font-weight: normal;
    }
    @font-face {
      font-family: "TGL 0-16";
      src: local("TGL 0-16"), url("../../../_static/fonts/TGL-0-16_std.ttf") format("truetype");
      font-style: normal;
      font-weight: normal;
    }
  </style>
  <defs>
    <filter id="dropShadow" x="-20%" y="-20%" width="140%" height="140%">
      <feGaussianBlur in="SourceAlpha" stdDeviation="3" result="blur"/>
      <feOffset in="blur" dx="1" dy="1" result="offsetBlur"/>
      <feFlood flood-color="#000000" flood-opacity="0.5" result="shadowColor"/>
      <feComposite in="shadowColor" in2="offsetBlur" operator="in" result="shadow"/>
      <feMerge>
        <feMergeNode in="shadow"/>
        <feMergeNode in="SourceGraphic"/>
      </feMerge>
    </filter>
  </defs>
  <rect x="53.0" y="-93.0" width="1126.0" height="918.0" fill="white"/>
  <rect x="60.0" y="-86.0" width="1112.0" height="904.0" fill="none" stroke="#A0A0A0" stroke-width="2"/>
  <rect x="60.0" y="-86.0" width="1112.0" height="25.0" fill="white" stroke="none"/>
  <line x1="60.0" y1="-61.5" x2="1172.0" y2="-61.5" stroke="#A0A0A0" stroke-width="1"/>
  <text x="65.0" y="-69.3" font-family="'TGL 0-17_std', 'TGL 0-17', 'Times New Roman', Times, serif" font-size="12" font-weight="bold" fill="#333333">LONG_PRESS_HOLD-Eingang auf PWM Ausgang mit Terminal-Ausgabe</text>
  <g id="sidebars">
  </g>
  <g id="connections">
    <polyline points="419.5,335.5 525.6,335.5" fill="none" stroke="#63B31F" stroke-width="1.5" stroke-linejoin="round"/>
    <polyline points="419.5,352.5 444.5,352.5 449.5,347.5 449.5,340.5 454.5,335.5 525.6,335.5" fill="none" stroke="#63B31F" stroke-width="1.5" stroke-linejoin="round"/>
    <polyline points="231.7,119.5 256.7,119.5 261.7,124.5 261.7,330.5 266.7,335.5 302.6,335.5" fill="none" stroke="#63B31F" stroke-width="1.5" stroke-linejoin="round"/>
    <polyline points="231.7,281.5 256.7,281.5 261.7,286.5 261.7,347.5 266.7,352.5 302.6,352.5" fill="none" stroke="#63B31F" stroke-width="1.5" stroke-linejoin="round"/>
    <polyline points="231.7,443.5 256.7,443.5 261.7,438.5 261.7,374.5 266.7,369.5 302.6,369.5" fill="none" stroke="#63B31F" stroke-width="1.5" stroke-linejoin="round"/>
    <polyline points="231.7,605.5 256.7,605.5 261.7,600.5 261.7,391.5 266.7,386.5 302.6,386.5" fill="none" stroke="#63B31F" stroke-width="1.5" stroke-linejoin="round"/>
    <polyline points="419.5,369.5 444.5,369.5 449.5,364.5 449.5,340.5 454.5,335.5 525.6,335.5" fill="none" stroke="#63B31F" stroke-width="1.5" stroke-linejoin="round"/>
    <polyline points="795.8,335.5 875.0,335.5 875.8,336.3 875.8,336.7 876.6,337.5 964.6,337.5" fill="none" stroke="#63B31F" stroke-width="1.5" stroke-linejoin="round"/>
    <polyline points="602.3,335.5 649.6,335.5" fill="none" stroke="#63B31F" stroke-width="1.5" stroke-linejoin="round"/>
    <polyline points="602.3,335.5 627.3,335.5 632.3,340.5 632.3,542.5 637.3,547.5 964.6,547.5" fill="none" stroke="#63B31F" stroke-width="1.5" stroke-linejoin="round"/>
    <polyline points="419.5,454.5 444.5,454.5 449.5,449.5 449.5,374.5 454.5,369.5 525.6,369.5" fill="none" stroke="#18519E" stroke-width="1.5" stroke-linejoin="round"/>
    <polyline points="795.8,369.5 870.8,369.5 875.8,374.5 875.8,400.5 880.8,405.5 964.6,405.5" fill="none" stroke="#82A3A9" stroke-width="1.5" stroke-linejoin="round"/>
    <polyline points="602.3,369.5 649.6,369.5" fill="none" stroke="#18519E" stroke-width="1.5" stroke-linejoin="round"/>
    <polyline points="602.3,369.5 627.3,369.5 632.3,374.5 632.3,593.5 637.3,598.5 964.6,598.5" fill="none" stroke="#18519E" stroke-width="1.5" stroke-linejoin="round"/>
  </g>
  <g id="interface_ports">
  </g>
  <g id="instances">
    <g id="fb_PWMOutput_Q1" transform="translate(964.6, 310.0)">
      <path d="M 3 0
            L 127.576171875 0
            A 3 3 0 0 1 130.576171875 3
            L 130.576171875 35
            A 3 3 0 0 1 127.576171875 38
            L 121.576171875 38
            L 121.576171875 52
            L 127.576171875 52
            A 3 3 0 0 1 130.576171875 55
            L 130.576171875 120
            A 3 3 0 0 1 127.576171875 123
            L 3 123
            A 3 3 0 0 1 0 120
            L 0 55
            A 3 3 0 0 1 3 52
            L 9 52
            L 9 38
            L 3 38
            A 3 3 0 0 1 0 35
            L 0 3
            A 3 3 0 0 1 3 0
            Z"
            fill="#FFFFFF" stroke="#A0A0A0" stroke-width="1.5"
            stroke-linejoin="round" filter="url(#dropShadow)"/>
      <!-- Name Section -->
      <path d="M 13.0 37.0
            L 27.0 37.0
            A 1 1 0 0 1 28.0 38.0
            L 28.0 41.0
            L 26.5 41.0
            L 26.5 43.666666666666664
            L 28.0 43.666666666666664
            L 28.0 52.0
            A 1 1 0 0 1 27.0 53.0
            L 13.0 53.0
            A 1 1 0 0 1 12.0 52.0
            L 12.0 43.666666666666664
            L 13.5 43.666666666666664
            L 13.5 41.0
            L 12.0 41.0
            L 12.0 38.0
            A 1 1 0 0 1 13.0 37.0
            Z"
            fill="#87CEEB" stroke="#1565C0" stroke-width="1"/>
      <text x="20.0" y="49.0"
            font-family="'TGL 0-17_std', 'TGL 0-17', 'Times New Roman', Times, serif" font-size="10" font-weight="bold"
            fill="#000000" text-anchor="middle">Si</text>
      <text x="30.0" y="49.0"
            font-family="'TGL 0-16_std', 'TGL 0-16', 'Times New Roman', Times, serif" font-size="12"
            fill="#000000">logiBUS_QD_PWM</text>
      <polygon points="0,5.5 5,10.5 0,15.5" fill="#63B31F"/>
      <text x="6" y="14.7" font-family="'TGL 0-17_std', 'TGL 0-17', 'Times New Roman', Times, serif" font-size="12"
            fill="#000000">INIT</text>
      <polygon points="0,22.5 5,27.5 0,32.5" fill="#63B31F"/>
      <text x="6" y="31.7" font-family="'TGL 0-17_std', 'TGL 0-17', 'Times New Roman', Times, serif" font-size="12"
            fill="#000000">REQ</text>
      <polygon points="125.576171875,5.5 130.576171875,10.5 125.576171875,15.5" fill="#63B31F"/>
      <text x="124.576171875" y="14.7" font-family="'TGL 0-17_std', 'TGL 0-17', 'Times New Roman', Times, serif" font-size="12"
            fill="#000000" text-anchor="end">INITO</text>
      <polygon points="125.576171875,22.5 130.576171875,27.5 125.576171875,32.5" fill="#63B31F"/>
      <text x="124.576171875" y="31.7" font-family="'TGL 0-17_std', 'TGL 0-17', 'Times New Roman', Times, serif" font-size="12"
            fill="#000000" text-anchor="end">CNF</text>
      <polygon points="0,56.5 5,61.5 0,66.5" fill="#A3B08F"/>
      <text x="6" y="65.7" font-family="'TGL 0-17_std', 'TGL 0-17', 'Times New Roman', Times, serif" font-size="12"
            fill="#000000">QI</text>
      <polygon points="0,73.5 5,78.5 0,83.5" fill="#BD8663"/>
      <text x="6" y="82.7" font-family="'TGL 0-17_std', 'TGL 0-17', 'Times New Roman', Times, serif" font-size="12"
            fill="#000000">PARAMS</text>
      <polygon points="0,90.5 5,95.5 0,100.5" fill="#82A3A9"/>
      <text x="6" y="99.7" font-family="'TGL 0-17_std', 'TGL 0-17', 'Times New Roman', Times, serif" font-size="12"
            fill="#000000">OUT</text>
      <polygon points="0,107.5 5,112.5 0,117.5" fill="#3366FF"/>
      <text x="6" y="116.7" font-family="'TGL 0-17_std', 'TGL 0-17', 'Times New Roman', Times, serif" font-size="12"
            fill="#000000">Output</text>
      <polygon points="125.576171875,56.5 130.576171875,61.5 125.576171875,66.5" fill="#A3B08F"/>
      <text x="124.576171875" y="65.7" font-family="'TGL 0-17_std', 'TGL 0-17', 'Times New Roman', Times, serif" font-size="12"
            fill="#000000" text-anchor="end">QO</text>
      <polygon points="125.576171875,73.5 130.576171875,78.5 125.576171875,83.5" fill="#BD8663"/>
      <text x="124.576171875" y="82.7" font-family="'TGL 0-17_std', 'TGL 0-17', 'Times New Roman', Times, serif" font-size="12"
            fill="#000000" text-anchor="end">STATUS</text>
      <text x="-3" y="65.7" font-family="'TGL 0-17_std', 'TGL 0-17', 'Times New Roman', Times, serif" font-size="12" fill="#000000" text-anchor="end">TRUE</text>
      <text x="-3" y="116.7" font-family="'TGL 0-17_std', 'TGL 0-17', 'Times New Roman', Times, serif" font-size="12" fill="#000000" text-anchor="end">Output_Q1</text>

      <!-- Instance Name -->
      <text x="65.2880859375" y="-5"
            font-family="'TGL 0-17_std', 'TGL 0-17', 'Times New Roman', Times, serif" font-size="12"
            fill="#000000" text-anchor="middle">PWMOutput_Q1</text>
    </g>
    <g id="fb_IE_SPEED_UP" transform="translate(111.6, 75.0)">
      <path d="M 3 0
            L 117.130859375 0
            A 3 3 0 0 1 120.130859375 3
            L 120.130859375 52
            A 3 3 0 0 1 117.130859375 55
            L 111.130859375 55
            L 111.130859375 69
            L 117.130859375 69
            A 3 3 0 0 1 120.130859375 72
            L 120.130859375 137
            A 3 3 0 0 1 117.130859375 140
            L 3 140
            A 3 3 0 0 1 0 137
            L 0 72
            A 3 3 0 0 1 3 69
            L 9 69
            L 9 55
            L 3 55
            A 3 3 0 0 1 0 52
            L 0 3
            A 3 3 0 0 1 3 0
            Z"
            fill="#FFFFFF" stroke="#A0A0A0" stroke-width="1.5"
            stroke-linejoin="round" filter="url(#dropShadow)"/>
      <!-- Name Section -->
      <path d="M 24.4443359375 54.0
            L 38.4443359375 54.0
            A 1 1 0 0 1 39.4443359375 55.0
            L 39.4443359375 58.0
            L 37.9443359375 58.0
            L 37.9443359375 60.666666666666664
            L 39.4443359375 60.666666666666664
            L 39.4443359375 69.0
            A 1 1 0 0 1 38.4443359375 70.0
            L 24.4443359375 70.0
            A 1 1 0 0 1 23.4443359375 69.0
            L 23.4443359375 60.666666666666664
            L 24.9443359375 60.666666666666664
            L 24.9443359375 58.0
            L 23.4443359375 58.0
            L 23.4443359375 55.0
            A 1 1 0 0 1 24.4443359375 54.0
            Z"
            fill="#87CEEB" stroke="#1565C0" stroke-width="1"/>
      <text x="31.4443359375" y="66.0"
            font-family="'TGL 0-17_std', 'TGL 0-17', 'Times New Roman', Times, serif" font-size="10" font-weight="bold"
            fill="#000000" text-anchor="middle">Si</text>
      <text x="41.4443359375" y="66.0"
            font-family="'TGL 0-16_std', 'TGL 0-16', 'Times New Roman', Times, serif" font-size="12"
            fill="#000000">logiBUS_IE</text>
      <polygon points="0,5.5 5,10.5 0,15.5" fill="#63B31F"/>
      <text x="6" y="14.7" font-family="'TGL 0-17_std', 'TGL 0-17', 'Times New Roman', Times, serif" font-size="12"
            fill="#000000">INIT</text>
      <polygon points="0,22.5 5,27.5 0,32.5" fill="#63B31F"/>
      <text x="6" y="31.7" font-family="'TGL 0-17_std', 'TGL 0-17', 'Times New Roman', Times, serif" font-size="12"
            fill="#000000">REQ</text>
      <polygon points="115.130859375,5.5 120.130859375,10.5 115.130859375,15.5" fill="#63B31F"/>
      <text x="114.130859375" y="14.7" font-family="'TGL 0-17_std', 'TGL 0-17', 'Times New Roman', Times, serif" font-size="12"
            fill="#000000" text-anchor="end">INITO</text>
      <polygon points="115.130859375,22.5 120.130859375,27.5 115.130859375,32.5" fill="#63B31F"/>
      <text x="114.130859375" y="31.7" font-family="'TGL 0-17_std', 'TGL 0-17', 'Times New Roman', Times, serif" font-size="12"
            fill="#000000" text-anchor="end">CNF</text>
      <polygon points="115.130859375,39.5 120.130859375,44.5 115.130859375,49.5" fill="#63B31F"/>
      <text x="114.130859375" y="48.7" font-family="'TGL 0-17_std', 'TGL 0-17', 'Times New Roman', Times, serif" font-size="12"
            fill="#000000" text-anchor="end">IND</text>
      <polygon points="0,73.5 5,78.5 0,83.5" fill="#A3B08F"/>
      <text x="6" y="82.7" font-family="'TGL 0-17_std', 'TGL 0-17', 'Times New Roman', Times, serif" font-size="12"
            fill="#000000">QI</text>
      <polygon points="0,90.5 5,95.5 0,100.5" fill="#BD8663"/>
      <text x="6" y="99.7" font-family="'TGL 0-17_std', 'TGL 0-17', 'Times New Roman', Times, serif" font-size="12"
            fill="#000000">PARAMS</text>
      <polygon points="0,107.5 5,112.5 0,117.5" fill="#3366FF"/>
      <text x="6" y="116.7" font-family="'TGL 0-17_std', 'TGL 0-17', 'Times New Roman', Times, serif" font-size="12"
            fill="#000000">Input</text>
      <polygon points="0,124.5 5,129.5 0,134.5" fill="#3366FF"/>
      <text x="6" y="133.7" font-family="'TGL 0-17_std', 'TGL 0-17', 'Times New Roman', Times, serif" font-size="12"
            fill="#000000">InputEvent</text>
      <polygon points="115.130859375,73.5 120.130859375,78.5 115.130859375,83.5" fill="#A3B08F"/>
      <text x="114.130859375" y="82.7" font-family="'TGL 0-17_std', 'TGL 0-17', 'Times New Roman', Times, serif" font-size="12"
            fill="#000000" text-anchor="end">QO</text>
      <polygon points="115.130859375,90.5 120.130859375,95.5 115.130859375,100.5" fill="#BD8663"/>
      <text x="114.130859375" y="99.7" font-family="'TGL 0-17_std', 'TGL 0-17', 'Times New Roman', Times, serif" font-size="12"
            fill="#000000" text-anchor="end">STATUS</text>
      <text x="-3" y="82.7" font-family="'TGL 0-17_std', 'TGL 0-17', 'Times New Roman', Times, serif" font-size="12" fill="#000000" text-anchor="end">TRUE</text>
      <text x="-3" y="116.7" font-family="'TGL 0-17_std', 'TGL 0-17', 'Times New Roman', Times, serif" font-size="12" fill="#000000" text-anchor="end">Input_I1</text>
      <text x="-3" y="133.7" font-family="'TGL 0-17_std', 'TGL 0-17', 'Times New Roman', Times, serif" font-size="12" fill="#000000" text-anchor="end">BUTTON_LONG_PRESS_HOLD</text>

      <!-- Instance Name -->
      <text x="60.0654296875" y="-5"
            font-family="'TGL 0-17_std', 'TGL 0-17', 'Times New Roman', Times, serif" font-size="12"
            fill="#000000" text-anchor="middle">IE_SPEED_UP</text>
    </g>
    <g id="fb_IE_SPEED_DOWN" transform="translate(111.6, 237.0)">
      <path d="M 3 0
            L 117.130859375 0
            A 3 3 0 0 1 120.130859375 3
            L 120.130859375 52
            A 3 3 0 0 1 117.130859375 55
            L 111.130859375 55
            L 111.130859375 69
            L 117.130859375 69
            A 3 3 0 0 1 120.130859375 72
            L 120.130859375 137
            A 3 3 0 0 1 117.130859375 140
            L 3 140
            A 3 3 0 0 1 0 137
            L 0 72
            A 3 3 0 0 1 3 69
            L 9 69
            L 9 55
            L 3 55
            A 3 3 0 0 1 0 52
            L 0 3
            A 3 3 0 0 1 3 0
            Z"
            fill="#FFFFFF" stroke="#A0A0A0" stroke-width="1.5"
            stroke-linejoin="round" filter="url(#dropShadow)"/>
      <!-- Name Section -->
      <path d="M 24.4443359375 54.0
            L 38.4443359375 54.0
            A 1 1 0 0 1 39.4443359375 55.0
            L 39.4443359375 58.0
            L 37.9443359375 58.0
            L 37.9443359375 60.666666666666664
            L 39.4443359375 60.666666666666664
            L 39.4443359375 69.0
            A 1 1 0 0 1 38.4443359375 70.0
            L 24.4443359375 70.0
            A 1 1 0 0 1 23.4443359375 69.0
            L 23.4443359375 60.666666666666664
            L 24.9443359375 60.666666666666664
            L 24.9443359375 58.0
            L 23.4443359375 58.0
            L 23.4443359375 55.0
            A 1 1 0 0 1 24.4443359375 54.0
            Z"
            fill="#87CEEB" stroke="#1565C0" stroke-width="1"/>
      <text x="31.4443359375" y="66.0"
            font-family="'TGL 0-17_std', 'TGL 0-17', 'Times New Roman', Times, serif" font-size="10" font-weight="bold"
            fill="#000000" text-anchor="middle">Si</text>
      <text x="41.4443359375" y="66.0"
            font-family="'TGL 0-16_std', 'TGL 0-16', 'Times New Roman', Times, serif" font-size="12"
            fill="#000000">logiBUS_IE</text>
      <polygon points="0,5.5 5,10.5 0,15.5" fill="#63B31F"/>
      <text x="6" y="14.7" font-family="'TGL 0-17_std', 'TGL 0-17', 'Times New Roman', Times, serif" font-size="12"
            fill="#000000">INIT</text>
      <polygon points="0,22.5 5,27.5 0,32.5" fill="#63B31F"/>
      <text x="6" y="31.7" font-family="'TGL 0-17_std', 'TGL 0-17', 'Times New Roman', Times, serif" font-size="12"
            fill="#000000">REQ</text>
      <polygon points="115.130859375,5.5 120.130859375,10.5 115.130859375,15.5" fill="#63B31F"/>
      <text x="114.130859375" y="14.7" font-family="'TGL 0-17_std', 'TGL 0-17', 'Times New Roman', Times, serif" font-size="12"
            fill="#000000" text-anchor="end">INITO</text>
      <polygon points="115.130859375,22.5 120.130859375,27.5 115.130859375,32.5" fill="#63B31F"/>
      <text x="114.130859375" y="31.7" font-family="'TGL 0-17_std', 'TGL 0-17', 'Times New Roman', Times, serif" font-size="12"
            fill="#000000" text-anchor="end">CNF</text>
      <polygon points="115.130859375,39.5 120.130859375,44.5 115.130859375,49.5" fill="#63B31F"/>
      <text x="114.130859375" y="48.7" font-family="'TGL 0-17_std', 'TGL 0-17', 'Times New Roman', Times, serif" font-size="12"
            fill="#000000" text-anchor="end">IND</text>
      <polygon points="0,73.5 5,78.5 0,83.5" fill="#A3B08F"/>
      <text x="6" y="82.7" font-family="'TGL 0-17_std', 'TGL 0-17', 'Times New Roman', Times, serif" font-size="12"
            fill="#000000">QI</text>
      <polygon points="0,90.5 5,95.5 0,100.5" fill="#BD8663"/>
      <text x="6" y="99.7" font-family="'TGL 0-17_std', 'TGL 0-17', 'Times New Roman', Times, serif" font-size="12"
            fill="#000000">PARAMS</text>
      <polygon points="0,107.5 5,112.5 0,117.5" fill="#3366FF"/>
      <text x="6" y="116.7" font-family="'TGL 0-17_std', 'TGL 0-17', 'Times New Roman', Times, serif" font-size="12"
            fill="#000000">Input</text>
      <polygon points="0,124.5 5,129.5 0,134.5" fill="#3366FF"/>
      <text x="6" y="133.7" font-family="'TGL 0-17_std', 'TGL 0-17', 'Times New Roman', Times, serif" font-size="12"
            fill="#000000">InputEvent</text>
      <polygon points="115.130859375,73.5 120.130859375,78.5 115.130859375,83.5" fill="#A3B08F"/>
      <text x="114.130859375" y="82.7" font-family="'TGL 0-17_std', 'TGL 0-17', 'Times New Roman', Times, serif" font-size="12"
            fill="#000000" text-anchor="end">QO</text>
      <polygon points="115.130859375,90.5 120.130859375,95.5 115.130859375,100.5" fill="#BD8663"/>
      <text x="114.130859375" y="99.7" font-family="'TGL 0-17_std', 'TGL 0-17', 'Times New Roman', Times, serif" font-size="12"
            fill="#000000" text-anchor="end">STATUS</text>
      <text x="-3" y="82.7" font-family="'TGL 0-17_std', 'TGL 0-17', 'Times New Roman', Times, serif" font-size="12" fill="#000000" text-anchor="end">TRUE</text>
      <text x="-3" y="116.7" font-family="'TGL 0-17_std', 'TGL 0-17', 'Times New Roman', Times, serif" font-size="12" fill="#000000" text-anchor="end">Input_I2</text>
      <text x="-3" y="133.7" font-family="'TGL 0-17_std', 'TGL 0-17', 'Times New Roman', Times, serif" font-size="12" fill="#000000" text-anchor="end">BUTTON_LONG_PRESS_HOLD</text>

      <!-- Instance Name -->
      <text x="60.0654296875" y="-5"
            font-family="'TGL 0-17_std', 'TGL 0-17', 'Times New Roman', Times, serif" font-size="12"
            fill="#000000" text-anchor="middle">IE_SPEED_DOWN</text>
    </g>
    <g id="fb_E_CTUD_UDINT" transform="translate(302.6, 325.0)">
      <path d="M 3 0
            L 113.947265625 0
            A 3 3 0 0 1 116.947265625 3
            L 116.947265625 69
            A 3 3 0 0 1 113.947265625 72
            L 107.947265625 72
            L 107.947265625 86
            L 113.947265625 86
            A 3 3 0 0 1 116.947265625 89
            L 116.947265625 137
            A 3 3 0 0 1 113.947265625 140
            L 3 140
            A 3 3 0 0 1 0 137
            L 0 89
            A 3 3 0 0 1 3 86
            L 9 86
            L 9 72
            L 3 72
            A 3 3 0 0 1 0 69
            L 0 3
            A 3 3 0 0 1 3 0
            Z"
            fill="#FFFFFF" stroke="#A0A0A0" stroke-width="1.5"
            stroke-linejoin="round" filter="url(#dropShadow)"/>
      <!-- Name Section -->
      <path d="M 13.0 71.0
            L 27.0 71.0
            A 1 1 0 0 1 28.0 72.0
            L 28.0 75.0
            L 26.5 75.0
            L 26.5 77.66666666666667
            L 28.0 77.66666666666667
            L 28.0 86.0
            A 1 1 0 0 1 27.0 87.0
            L 13.0 87.0
            A 1 1 0 0 1 12.0 86.0
            L 12.0 77.66666666666667
            L 13.5 77.66666666666667
            L 13.5 75.0
            L 12.0 75.0
            L 12.0 72.0
            A 1 1 0 0 1 13.0 71.0
            Z"
            fill="#87CEEB" stroke="#1565C0" stroke-width="1"/>
      <text x="20.0" y="83.0"
            font-family="'TGL 0-17_std', 'TGL 0-17', 'Times New Roman', Times, serif" font-size="10" font-weight="bold"
            fill="#000000" text-anchor="middle">B</text>
      <text x="30.0" y="83.0"
            font-family="'TGL 0-16_std', 'TGL 0-16', 'Times New Roman', Times, serif" font-size="12"
            fill="#000000">E_CTUD_UDINT</text>
      <polygon points="0,5.5 5,10.5 0,15.5" fill="#63B31F"/>
      <text x="6" y="14.7" font-family="'TGL 0-17_std', 'TGL 0-17', 'Times New Roman', Times, serif" font-size="12"
            fill="#000000">CU</text>
      <polygon points="0,22.5 5,27.5 0,32.5" fill="#63B31F"/>
      <text x="6" y="31.7" font-family="'TGL 0-17_std', 'TGL 0-17', 'Times New Roman', Times, serif" font-size="12"
            fill="#000000">CD</text>
      <polygon points="0,39.5 5,44.5 0,49.5" fill="#63B31F"/>
      <text x="6" y="48.7" font-family="'TGL 0-17_std', 'TGL 0-17', 'Times New Roman', Times, serif" font-size="12"
            fill="#000000">R</text>
      <polygon points="0,56.5 5,61.5 0,66.5" fill="#63B31F"/>
      <text x="6" y="65.7" font-family="'TGL 0-17_std', 'TGL 0-17', 'Times New Roman', Times, serif" font-size="12"
            fill="#000000">LD</text>
      <polygon points="111.947265625,5.5 116.947265625,10.5 111.947265625,15.5" fill="#63B31F"/>
      <text x="110.947265625" y="14.7" font-family="'TGL 0-17_std', 'TGL 0-17', 'Times New Roman', Times, serif" font-size="12"
            fill="#000000" text-anchor="end">CO</text>
      <polygon points="111.947265625,22.5 116.947265625,27.5 111.947265625,32.5" fill="#63B31F"/>
      <text x="110.947265625" y="31.7" font-family="'TGL 0-17_std', 'TGL 0-17', 'Times New Roman', Times, serif" font-size="12"
            fill="#000000" text-anchor="end">RO</text>
      <polygon points="111.947265625,39.5 116.947265625,44.5 111.947265625,49.5" fill="#63B31F"/>
      <text x="110.947265625" y="48.7" font-family="'TGL 0-17_std', 'TGL 0-17', 'Times New Roman', Times, serif" font-size="12"
            fill="#000000" text-anchor="end">LDO</text>
      <polygon points="0,90.5 5,95.5 0,100.5" fill="#18519E"/>
      <text x="6" y="99.7" font-family="'TGL 0-17_std', 'TGL 0-17', 'Times New Roman', Times, serif" font-size="12"
            fill="#000000">PV</text>
      <polygon points="111.947265625,90.5 116.947265625,95.5 111.947265625,100.5" fill="#A3B08F"/>
      <text x="110.947265625" y="99.7" font-family="'TGL 0-17_std', 'TGL 0-17', 'Times New Roman', Times, serif" font-size="12"
            fill="#000000" text-anchor="end">QU</text>
      <polygon points="111.947265625,107.5 116.947265625,112.5 111.947265625,117.5" fill="#A3B08F"/>
      <text x="110.947265625" y="116.7" font-family="'TGL 0-17_std', 'TGL 0-17', 'Times New Roman', Times, serif" font-size="12"
            fill="#000000" text-anchor="end">QD</text>
      <polygon points="111.947265625,124.5 116.947265625,129.5 111.947265625,134.5" fill="#18519E"/>
      <text x="110.947265625" y="133.7" font-family="'TGL 0-17_std', 'TGL 0-17', 'Times New Roman', Times, serif" font-size="12"
            fill="#000000" text-anchor="end">CV</text>
      <text x="-3" y="99.7" font-family="'TGL 0-17_std', 'TGL 0-17', 'Times New Roman', Times, serif" font-size="12" fill="#000000" text-anchor="end">UDINT#1023</text>

      <!-- Instance Name -->
      <text x="58.4736328125" y="-5"
            font-family="'TGL 0-17_std', 'TGL 0-17', 'Times New Roman', Times, serif" font-size="12"
            fill="#000000" text-anchor="middle">E_CTUD_UDINT</text>
    </g>
    <g id="fb_F_UDINT_TO_DWORD" transform="translate(649.6, 325.0)">
      <path d="M 3 0
            L 143.279296875 0
            A 3 3 0 0 1 146.279296875 3
            L 146.279296875 18
            A 3 3 0 0 1 143.279296875 21
            L 137.279296875 21
            L 137.279296875 35
            L 143.279296875 35
            A 3 3 0 0 1 146.279296875 38
            L 146.279296875 52
            A 3 3 0 0 1 143.279296875 55
            L 3 55
            A 3 3 0 0 1 0 52
            L 0 38
            A 3 3 0 0 1 3 35
            L 9 35
            L 9 21
            L 3 21
            A 3 3 0 0 1 0 18
            L 0 3
            A 3 3 0 0 1 3 0
            Z"
            fill="#FFFFFF" stroke="#A0A0A0" stroke-width="1.5"
            stroke-linejoin="round" filter="url(#dropShadow)"/>
      <!-- Name Section -->
      <path d="M 13.0 20.0
            L 27.0 20.0
            A 1 1 0 0 1 28.0 21.0
            L 28.0 24.0
            L 26.5 24.0
            L 26.5 26.666666666666668
            L 28.0 26.666666666666668
            L 28.0 35.0
            A 1 1 0 0 1 27.0 36.0
            L 13.0 36.0
            A 1 1 0 0 1 12.0 35.0
            L 12.0 26.666666666666668
            L 13.5 26.666666666666668
            L 13.5 24.0
            L 12.0 24.0
            L 12.0 21.0
            A 1 1 0 0 1 13.0 20.0
            Z"
            fill="#87CEEB" stroke="#1565C0" stroke-width="1"/>
      <text x="20.0" y="32.0"
            font-family="'TGL 0-17_std', 'TGL 0-17', 'Times New Roman', Times, serif" font-size="10" font-weight="bold"
            fill="#000000" text-anchor="middle">B</text>
      <text x="30.0" y="32.0"
            font-family="'TGL 0-16_std', 'TGL 0-16', 'Times New Roman', Times, serif" font-size="12"
            fill="#000000">F_UDINT_TO_DWOR…</text>
      <polygon points="0,5.5 5,10.5 0,15.5" fill="#63B31F"/>
      <text x="6" y="14.7" font-family="'TGL 0-17_std', 'TGL 0-17', 'Times New Roman', Times, serif" font-size="12"
            fill="#000000">REQ</text>
      <polygon points="141.279296875,5.5 146.279296875,10.5 141.279296875,15.5" fill="#63B31F"/>
      <text x="140.279296875" y="14.7" font-family="'TGL 0-17_std', 'TGL 0-17', 'Times New Roman', Times, serif" font-size="12"
            fill="#000000" text-anchor="end">CNF</text>
      <polygon points="0,39.5 5,44.5 0,49.5" fill="#18519E"/>
      <text x="6" y="48.7" font-family="'TGL 0-17_std', 'TGL 0-17', 'Times New Roman', Times, serif" font-size="12"
            fill="#000000">IN</text>
      <polygon points="141.279296875,39.5 146.279296875,44.5 141.279296875,49.5" fill="#82A3A9"/>
      <text x="140.279296875" y="48.7" font-family="'TGL 0-17_std', 'TGL 0-17', 'Times New Roman', Times, serif" font-size="12"
            fill="#000000" text-anchor="end">OUT</text>


      <!-- Instance Name -->
      <text x="73.1396484375" y="-5"
            font-family="'TGL 0-17_std', 'TGL 0-17', 'Times New Roman', Times, serif" font-size="12"
            fill="#000000" text-anchor="middle">F_UDINT_TO_DWORD</text>
    </g>
    <g id="fb_IE_STOP" transform="translate(111.6, 399.0)">
      <path d="M 3 0
            L 117.130859375 0
            A 3 3 0 0 1 120.130859375 3
            L 120.130859375 52
            A 3 3 0 0 1 117.130859375 55
            L 111.130859375 55
            L 111.130859375 69
            L 117.130859375 69
            A 3 3 0 0 1 120.130859375 72
            L 120.130859375 137
            A 3 3 0 0 1 117.130859375 140
            L 3 140
            A 3 3 0 0 1 0 137
            L 0 72
            A 3 3 0 0 1 3 69
            L 9 69
            L 9 55
            L 3 55
            A 3 3 0 0 1 0 52
            L 0 3
            A 3 3 0 0 1 3 0
            Z"
            fill="#FFFFFF" stroke="#A0A0A0" stroke-width="1.5"
            stroke-linejoin="round" filter="url(#dropShadow)"/>
      <!-- Name Section -->
      <path d="M 24.4443359375 54.0
            L 38.4443359375 54.0
            A 1 1 0 0 1 39.4443359375 55.0
            L 39.4443359375 58.0
            L 37.9443359375 58.0
            L 37.9443359375 60.666666666666664
            L 39.4443359375 60.666666666666664
            L 39.4443359375 69.0
            A 1 1 0 0 1 38.4443359375 70.0
            L 24.4443359375 70.0
            A 1 1 0 0 1 23.4443359375 69.0
            L 23.4443359375 60.666666666666664
            L 24.9443359375 60.666666666666664
            L 24.9443359375 58.0
            L 23.4443359375 58.0
            L 23.4443359375 55.0
            A 1 1 0 0 1 24.4443359375 54.0
            Z"
            fill="#87CEEB" stroke="#1565C0" stroke-width="1"/>
      <text x="31.4443359375" y="66.0"
            font-family="'TGL 0-17_std', 'TGL 0-17', 'Times New Roman', Times, serif" font-size="10" font-weight="bold"
            fill="#000000" text-anchor="middle">Si</text>
      <text x="41.4443359375" y="66.0"
            font-family="'TGL 0-16_std', 'TGL 0-16', 'Times New Roman', Times, serif" font-size="12"
            fill="#000000">logiBUS_IE</text>
      <polygon points="0,5.5 5,10.5 0,15.5" fill="#63B31F"/>
      <text x="6" y="14.7" font-family="'TGL 0-17_std', 'TGL 0-17', 'Times New Roman', Times, serif" font-size="12"
            fill="#000000">INIT</text>
      <polygon points="0,22.5 5,27.5 0,32.5" fill="#63B31F"/>
      <text x="6" y="31.7" font-family="'TGL 0-17_std', 'TGL 0-17', 'Times New Roman', Times, serif" font-size="12"
            fill="#000000">REQ</text>
      <polygon points="115.130859375,5.5 120.130859375,10.5 115.130859375,15.5" fill="#63B31F"/>
      <text x="114.130859375" y="14.7" font-family="'TGL 0-17_std', 'TGL 0-17', 'Times New Roman', Times, serif" font-size="12"
            fill="#000000" text-anchor="end">INITO</text>
      <polygon points="115.130859375,22.5 120.130859375,27.5 115.130859375,32.5" fill="#63B31F"/>
      <text x="114.130859375" y="31.7" font-family="'TGL 0-17_std', 'TGL 0-17', 'Times New Roman', Times, serif" font-size="12"
            fill="#000000" text-anchor="end">CNF</text>
      <polygon points="115.130859375,39.5 120.130859375,44.5 115.130859375,49.5" fill="#63B31F"/>
      <text x="114.130859375" y="48.7" font-family="'TGL 0-17_std', 'TGL 0-17', 'Times New Roman', Times, serif" font-size="12"
            fill="#000000" text-anchor="end">IND</text>
      <polygon points="0,73.5 5,78.5 0,83.5" fill="#A3B08F"/>
      <text x="6" y="82.7" font-family="'TGL 0-17_std', 'TGL 0-17', 'Times New Roman', Times, serif" font-size="12"
            fill="#000000">QI</text>
      <polygon points="0,90.5 5,95.5 0,100.5" fill="#BD8663"/>
      <text x="6" y="99.7" font-family="'TGL 0-17_std', 'TGL 0-17', 'Times New Roman', Times, serif" font-size="12"
            fill="#000000">PARAMS</text>
      <polygon points="0,107.5 5,112.5 0,117.5" fill="#3366FF"/>
      <text x="6" y="116.7" font-family="'TGL 0-17_std', 'TGL 0-17', 'Times New Roman', Times, serif" font-size="12"
            fill="#000000">Input</text>
      <polygon points="0,124.5 5,129.5 0,134.5" fill="#3366FF"/>
      <text x="6" y="133.7" font-family="'TGL 0-17_std', 'TGL 0-17', 'Times New Roman', Times, serif" font-size="12"
            fill="#000000">InputEvent</text>
      <polygon points="115.130859375,73.5 120.130859375,78.5 115.130859375,83.5" fill="#A3B08F"/>
      <text x="114.130859375" y="82.7" font-family="'TGL 0-17_std', 'TGL 0-17', 'Times New Roman', Times, serif" font-size="12"
            fill="#000000" text-anchor="end">QO</text>
      <polygon points="115.130859375,90.5 120.130859375,95.5 115.130859375,100.5" fill="#BD8663"/>
      <text x="114.130859375" y="99.7" font-family="'TGL 0-17_std', 'TGL 0-17', 'Times New Roman', Times, serif" font-size="12"
            fill="#000000" text-anchor="end">STATUS</text>
      <text x="-3" y="82.7" font-family="'TGL 0-17_std', 'TGL 0-17', 'Times New Roman', Times, serif" font-size="12" fill="#000000" text-anchor="end">TRUE</text>
      <text x="-3" y="116.7" font-family="'TGL 0-17_std', 'TGL 0-17', 'Times New Roman', Times, serif" font-size="12" fill="#000000" text-anchor="end">Input_I3</text>
      <text x="-3" y="133.7" font-family="'TGL 0-17_std', 'TGL 0-17', 'Times New Roman', Times, serif" font-size="12" fill="#000000" text-anchor="end">BUTTON_SINGLE_CLICK</text>

      <!-- Instance Name -->
      <text x="60.0654296875" y="-5"
            font-family="'TGL 0-17_std', 'TGL 0-17', 'Times New Roman', Times, serif" font-size="12"
            fill="#000000" text-anchor="middle">IE_STOP</text>
    </g>
    <g id="fb_IE_FULL" transform="translate(111.6, 561.0)">
      <path d="M 3 0
            L 117.130859375 0
            A 3 3 0 0 1 120.130859375 3
            L 120.130859375 52
            A 3 3 0 0 1 117.130859375 55
            L 111.130859375 55
            L 111.130859375 69
            L 117.130859375 69
            A 3 3 0 0 1 120.130859375 72
            L 120.130859375 137
            A 3 3 0 0 1 117.130859375 140
            L 3 140
            A 3 3 0 0 1 0 137
            L 0 72
            A 3 3 0 0 1 3 69
            L 9 69
            L 9 55
            L 3 55
            A 3 3 0 0 1 0 52
            L 0 3
            A 3 3 0 0 1 3 0
            Z"
            fill="#FFFFFF" stroke="#A0A0A0" stroke-width="1.5"
            stroke-linejoin="round" filter="url(#dropShadow)"/>
      <!-- Name Section -->
      <path d="M 24.4443359375 54.0
            L 38.4443359375 54.0
            A 1 1 0 0 1 39.4443359375 55.0
            L 39.4443359375 58.0
            L 37.9443359375 58.0
            L 37.9443359375 60.666666666666664
            L 39.4443359375 60.666666666666664
            L 39.4443359375 69.0
            A 1 1 0 0 1 38.4443359375 70.0
            L 24.4443359375 70.0
            A 1 1 0 0 1 23.4443359375 69.0
            L 23.4443359375 60.666666666666664
            L 24.9443359375 60.666666666666664
            L 24.9443359375 58.0
            L 23.4443359375 58.0
            L 23.4443359375 55.0
            A 1 1 0 0 1 24.4443359375 54.0
            Z"
            fill="#87CEEB" stroke="#1565C0" stroke-width="1"/>
      <text x="31.4443359375" y="66.0"
            font-family="'TGL 0-17_std', 'TGL 0-17', 'Times New Roman', Times, serif" font-size="10" font-weight="bold"
            fill="#000000" text-anchor="middle">Si</text>
      <text x="41.4443359375" y="66.0"
            font-family="'TGL 0-16_std', 'TGL 0-16', 'Times New Roman', Times, serif" font-size="12"
            fill="#000000">logiBUS_IE</text>
      <polygon points="0,5.5 5,10.5 0,15.5" fill="#63B31F"/>
      <text x="6" y="14.7" font-family="'TGL 0-17_std', 'TGL 0-17', 'Times New Roman', Times, serif" font-size="12"
            fill="#000000">INIT</text>
      <polygon points="0,22.5 5,27.5 0,32.5" fill="#63B31F"/>
      <text x="6" y="31.7" font-family="'TGL 0-17_std', 'TGL 0-17', 'Times New Roman', Times, serif" font-size="12"
            fill="#000000">REQ</text>
      <polygon points="115.130859375,5.5 120.130859375,10.5 115.130859375,15.5" fill="#63B31F"/>
      <text x="114.130859375" y="14.7" font-family="'TGL 0-17_std', 'TGL 0-17', 'Times New Roman', Times, serif" font-size="12"
            fill="#000000" text-anchor="end">INITO</text>
      <polygon points="115.130859375,22.5 120.130859375,27.5 115.130859375,32.5" fill="#63B31F"/>
      <text x="114.130859375" y="31.7" font-family="'TGL 0-17_std', 'TGL 0-17', 'Times New Roman', Times, serif" font-size="12"
            fill="#000000" text-anchor="end">CNF</text>
      <polygon points="115.130859375,39.5 120.130859375,44.5 115.130859375,49.5" fill="#63B31F"/>
      <text x="114.130859375" y="48.7" font-family="'TGL 0-17_std', 'TGL 0-17', 'Times New Roman', Times, serif" font-size="12"
            fill="#000000" text-anchor="end">IND</text>
      <polygon points="0,73.5 5,78.5 0,83.5" fill="#A3B08F"/>
      <text x="6" y="82.7" font-family="'TGL 0-17_std', 'TGL 0-17', 'Times New Roman', Times, serif" font-size="12"
            fill="#000000">QI</text>
      <polygon points="0,90.5 5,95.5 0,100.5" fill="#BD8663"/>
      <text x="6" y="99.7" font-family="'TGL 0-17_std', 'TGL 0-17', 'Times New Roman', Times, serif" font-size="12"
            fill="#000000">PARAMS</text>
      <polygon points="0,107.5 5,112.5 0,117.5" fill="#3366FF"/>
      <text x="6" y="116.7" font-family="'TGL 0-17_std', 'TGL 0-17', 'Times New Roman', Times, serif" font-size="12"
            fill="#000000">Input</text>
      <polygon points="0,124.5 5,129.5 0,134.5" fill="#3366FF"/>
      <text x="6" y="133.7" font-family="'TGL 0-17_std', 'TGL 0-17', 'Times New Roman', Times, serif" font-size="12"
            fill="#000000">InputEvent</text>
      <polygon points="115.130859375,73.5 120.130859375,78.5 115.130859375,83.5" fill="#A3B08F"/>
      <text x="114.130859375" y="82.7" font-family="'TGL 0-17_std', 'TGL 0-17', 'Times New Roman', Times, serif" font-size="12"
            fill="#000000" text-anchor="end">QO</text>
      <polygon points="115.130859375,90.5 120.130859375,95.5 115.130859375,100.5" fill="#BD8663"/>
      <text x="114.130859375" y="99.7" font-family="'TGL 0-17_std', 'TGL 0-17', 'Times New Roman', Times, serif" font-size="12"
            fill="#000000" text-anchor="end">STATUS</text>
      <text x="-3" y="82.7" font-family="'TGL 0-17_std', 'TGL 0-17', 'Times New Roman', Times, serif" font-size="12" fill="#000000" text-anchor="end">TRUE</text>
      <text x="-3" y="116.7" font-family="'TGL 0-17_std', 'TGL 0-17', 'Times New Roman', Times, serif" font-size="12" fill="#000000" text-anchor="end">Input_I4</text>
      <text x="-3" y="133.7" font-family="'TGL 0-17_std', 'TGL 0-17', 'Times New Roman', Times, serif" font-size="12" fill="#000000" text-anchor="end">BUTTON_SINGLE_CLICK</text>

      <!-- Instance Name -->
      <text x="60.0654296875" y="-5"
            font-family="'TGL 0-17_std', 'TGL 0-17', 'Times New Roman', Times, serif" font-size="12"
            fill="#000000" text-anchor="middle">IE_FULL</text>
    </g>
    <g id="fb_F_MUL" transform="translate(525.6, 325.0)">
      <path d="M 3 0
            L 73.763671875 0
            A 3 3 0 0 1 76.763671875 3
            L 76.763671875 18
            A 3 3 0 0 1 73.763671875 21
            L 67.763671875 21
            L 67.763671875 35
            L 73.763671875 35
            A 3 3 0 0 1 76.763671875 38
            L 76.763671875 69
            A 3 3 0 0 1 73.763671875 72
            L 3 72
            A 3 3 0 0 1 0 69
            L 0 38
            A 3 3 0 0 1 3 35
            L 9 35
            L 9 21
            L 3 21
            A 3 3 0 0 1 0 18
            L 0 3
            A 3 3 0 0 1 3 0
            Z"
            fill="#FFFFFF" stroke="#A0A0A0" stroke-width="1.5"
            stroke-linejoin="round" filter="url(#dropShadow)"/>
      <!-- Name Section -->
      <path d="M 13.0 20.0
            L 27.0 20.0
            A 1 1 0 0 1 28.0 21.0
            L 28.0 24.0
            L 26.5 24.0
            L 26.5 26.666666666666668
            L 28.0 26.666666666666668
            L 28.0 35.0
            A 1 1 0 0 1 27.0 36.0
            L 13.0 36.0
            A 1 1 0 0 1 12.0 35.0
            L 12.0 26.666666666666668
            L 13.5 26.666666666666668
            L 13.5 24.0
            L 12.0 24.0
            L 12.0 21.0
            A 1 1 0 0 1 13.0 20.0
            Z"
            fill="#87CEEB" stroke="#1565C0" stroke-width="1"/>
      <text x="20.0" y="32.0"
            font-family="'TGL 0-17_std', 'TGL 0-17', 'Times New Roman', Times, serif" font-size="10" font-weight="bold"
            fill="#000000" text-anchor="middle">Si</text>
      <text x="30.0" y="32.0"
            font-family="'TGL 0-16_std', 'TGL 0-16', 'Times New Roman', Times, serif" font-size="12"
            fill="#000000">F_MUL</text>
      <polygon points="0,5.5 5,10.5 0,15.5" fill="#63B31F"/>
      <text x="6" y="14.7" font-family="'TGL 0-17_std', 'TGL 0-17', 'Times New Roman', Times, serif" font-size="12"
            fill="#000000">REQ</text>
      <polygon points="71.763671875,5.5 76.763671875,10.5 71.763671875,15.5" fill="#63B31F"/>
      <text x="70.763671875" y="14.7" font-family="'TGL 0-17_std', 'TGL 0-17', 'Times New Roman', Times, serif" font-size="12"
            fill="#000000" text-anchor="end">CNF</text>
      <polygon points="0,39.5 5,44.5 0,49.5" fill="#18519E"/>
      <text x="6" y="48.7" font-family="'TGL 0-17_std', 'TGL 0-17', 'Times New Roman', Times, serif" font-size="12"
            fill="#000000">IN1</text>
      <polygon points="0,56.5 5,61.5 0,66.5" fill="#18519E"/>
      <text x="6" y="65.7" font-family="'TGL 0-17_std', 'TGL 0-17', 'Times New Roman', Times, serif" font-size="12"
            fill="#000000">IN2</text>
      <polygon points="71.763671875,39.5 76.763671875,44.5 71.763671875,49.5" fill="#18519E"/>
      <text x="70.763671875" y="48.7" font-family="'TGL 0-17_std', 'TGL 0-17', 'Times New Roman', Times, serif" font-size="12"
            fill="#000000" text-anchor="end">OUT</text>
      <text x="-3" y="65.7" font-family="'TGL 0-17_std', 'TGL 0-17', 'Times New Roman', Times, serif" font-size="12" fill="#000000" text-anchor="end">UDINT#8</text>

      <!-- Instance Name -->
      <text x="38.3818359375" y="-5"
            font-family="'TGL 0-17_std', 'TGL 0-17', 'Times New Roman', Times, serif" font-size="12"
            fill="#000000" text-anchor="middle">F_MUL</text>
    </g>
    <g id="fb_Q_NumericValue" transform="translate(964.6, 520.0)">
      <path d="M 3 0
            L 152.87890625 0
            A 3 3 0 0 1 155.87890625 3
            L 155.87890625 35
            A 3 3 0 0 1 152.87890625 38
            L 146.87890625 38
            L 146.87890625 52
            L 152.87890625 52
            A 3 3 0 0 1 155.87890625 55
            L 155.87890625 103
            A 3 3 0 0 1 152.87890625 106
            L 3 106
            A 3 3 0 0 1 0 103
            L 0 55
            A 3 3 0 0 1 3 52
            L 9 52
            L 9 38
            L 3 38
            A 3 3 0 0 1 0 35
            L 0 3
            A 3 3 0 0 1 3 0
            Z"
            fill="#FFFFFF" stroke="#A0A0A0" stroke-width="1.5"
            stroke-linejoin="round" filter="url(#dropShadow)"/>
      <!-- Name Section -->
      <path d="M 28.736328125 37.0
            L 42.736328125 37.0
            A 1 1 0 0 1 43.736328125 38.0
            L 43.736328125 41.0
            L 42.236328125 41.0
            L 42.236328125 43.666666666666664
            L 43.736328125 43.666666666666664
            L 43.736328125 52.0
            A 1 1 0 0 1 42.736328125 53.0
            L 28.736328125 53.0
            A 1 1 0 0 1 27.736328125 52.0
            L 27.736328125 43.666666666666664
            L 29.236328125 43.666666666666664
            L 29.236328125 41.0
            L 27.736328125 41.0
            L 27.736328125 38.0
            A 1 1 0 0 1 28.736328125 37.0
            Z"
            fill="#87CEEB" stroke="#1565C0" stroke-width="1"/>
      <text x="35.736328125" y="49.0"
            font-family="'TGL 0-17_std', 'TGL 0-17', 'Times New Roman', Times, serif" font-size="10" font-weight="bold"
            fill="#000000" text-anchor="middle">Si</text>
      <text x="45.736328125" y="49.0"
            font-family="'TGL 0-16_std', 'TGL 0-16', 'Times New Roman', Times, serif" font-size="12"
            fill="#000000">Q_NumericValue</text>
      <polygon points="0,5.5 5,10.5 0,15.5" fill="#63B31F"/>
      <text x="6" y="14.7" font-family="'TGL 0-17_std', 'TGL 0-17', 'Times New Roman', Times, serif" font-size="12"
            fill="#000000">INIT</text>
      <polygon points="0,22.5 5,27.5 0,32.5" fill="#63B31F"/>
      <text x="6" y="31.7" font-family="'TGL 0-17_std', 'TGL 0-17', 'Times New Roman', Times, serif" font-size="12"
            fill="#000000">REQ</text>
      <polygon points="150.87890625,5.5 155.87890625,10.5 150.87890625,15.5" fill="#63B31F"/>
      <text x="149.87890625" y="14.7" font-family="'TGL 0-17_std', 'TGL 0-17', 'Times New Roman', Times, serif" font-size="12"
            fill="#000000" text-anchor="end">INITO</text>
      <polygon points="150.87890625,22.5 155.87890625,27.5 150.87890625,32.5" fill="#63B31F"/>
      <text x="149.87890625" y="31.7" font-family="'TGL 0-17_std', 'TGL 0-17', 'Times New Roman', Times, serif" font-size="12"
            fill="#000000" text-anchor="end">CNF</text>
      <polygon points="0,56.5 5,61.5 0,66.5" fill="#18519E"/>
      <text x="6" y="65.7" font-family="'TGL 0-17_std', 'TGL 0-17', 'Times New Roman', Times, serif" font-size="12"
            fill="#000000">u16ObjId</text>
      <polygon points="0,73.5 5,78.5 0,83.5" fill="#18519E"/>
      <text x="6" y="82.7" font-family="'TGL 0-17_std', 'TGL 0-17', 'Times New Roman', Times, serif" font-size="12"
            fill="#000000">u32NewValue</text>
      <polygon points="150.87890625,56.5 155.87890625,61.5 150.87890625,66.5" fill="#BD8663"/>
      <text x="149.87890625" y="65.7" font-family="'TGL 0-17_std', 'TGL 0-17', 'Times New Roman', Times, serif" font-size="12"
            fill="#000000" text-anchor="end">STATUS</text>
      <polygon points="150.87890625,73.5 155.87890625,78.5 150.87890625,83.5" fill="#18519E"/>
      <text x="149.87890625" y="82.7" font-family="'TGL 0-17_std', 'TGL 0-17', 'Times New Roman', Times, serif" font-size="12"
            fill="#000000" text-anchor="end">u32OldValue</text>
      <polygon points="150.87890625,90.5 155.87890625,95.5 150.87890625,100.5" fill="#18519E"/>
      <text x="149.87890625" y="99.7" font-family="'TGL 0-17_std', 'TGL 0-17', 'Times New Roman', Times, serif" font-size="12"
            fill="#000000" text-anchor="end">s16result</text>
      <text x="-3" y="65.7" font-family="'TGL 0-17_std', 'TGL 0-17', 'Times New Roman', Times, serif" font-size="12" fill="#000000" text-anchor="end">OutputNumber_N1</text>

      <!-- Instance Name -->
      <text x="77.939453125" y="-5"
            font-family="'TGL 0-17_std', 'TGL 0-17', 'Times New Roman', Times, serif" font-size="12"
            fill="#000000" text-anchor="middle">Q_NumericValue</text>
    </g>
  </g>
</svg>
