<?xml version="1.0" encoding="UTF-8"?>
<svg xmlns="http://www.w3.org/2000/svg" xmlns:xlink="http://www.w3.org/1999/xlink"
     width="1280" height="343" viewBox="-540 -20 1280 343">
<defs>
</defs>
<rect x="3" y="3" width="200" height="293" fill="#000000" fill-opacity="0.1" rx="2" ry="2" />
<path d="M0,0 H200 V30 H194 V70 H200 V293 H0 V70 H6 V30 H0 Z" fill="#ffffff" stroke="#000000" stroke-width="2" />
<path d="M0,30 L200,30" stroke="#000000" stroke-width="1" />
<text x="100.0" y="48.0" font-size="14" fontWeight="bold" font-family="Verdana, sans-serif" font-style="italic" text-anchor="middle" dominant-baseline="central">SPLIT_AL_INTO_AB</text>
<text x="100.0" y="62.0" font-size="10" fill="#000" font-family="Consolas, monospace" text-anchor="middle" dominant-baseline="central">1.0</text>
<rect x="-5.0" y="82.0" width="10" height="10" fill="white" stroke="#845DAF" stroke-width="2.5" />
<text x="12" y="91" font-size="12" text-anchor="start" font-family="Consolas, monospace">IN</text>
<text x="-15" y="90" font-size="11" text-anchor="end" fill="#000" font-style="italic" font-family="Verdana, sans-serif">AL</text>
<text x="-69" y="90" font-size="11" text-anchor="end" fill="#666666" font-family="Verdana, sans-serif">LWORD Input</text>
<rect x="195.0" y="82.0" width="10" height="10" fill="#845DAF" stroke="none" />
<text x="188" y="91" font-size="12" text-anchor="end" font-family="Consolas, monospace">BYTE_00</text>
<text x="215" y="90" font-size="11" text-anchor="start" fill="#000" font-style="italic" font-family="Verdana, sans-serif">AB</text>
<text x="285" y="90" font-size="11" text-anchor="start" fill="#666666" font-family="Verdana, sans-serif">Byte 0</text>
<rect x="195.0" y="108.0" width="10" height="10" fill="#845DAF" stroke="none" />
<text x="188" y="117" font-size="12" text-anchor="end" font-family="Consolas, monospace">BYTE_01</text>
<text x="215" y="116" font-size="11" text-anchor="start" fill="#000" font-style="italic" font-family="Verdana, sans-serif">AB</text>
<text x="285" y="116" font-size="11" text-anchor="start" fill="#666666" font-family="Verdana, sans-serif">Byte 1</text>
<rect x="195.0" y="134.0" width="10" height="10" fill="#845DAF" stroke="none" />
<text x="188" y="143" font-size="12" text-anchor="end" font-family="Consolas, monospace">BYTE_02</text>
<text x="215" y="142" font-size="11" text-anchor="start" fill="#000" font-style="italic" font-family="Verdana, sans-serif">AB</text>
<text x="285" y="142" font-size="11" text-anchor="start" fill="#666666" font-family="Verdana, sans-serif">Byte 2</text>
<rect x="195.0" y="160.0" width="10" height="10" fill="#845DAF" stroke="none" />
<text x="188" y="169" font-size="12" text-anchor="end" font-family="Consolas, monospace">BYTE_03</text>
<text x="215" y="168" font-size="11" text-anchor="start" fill="#000" font-style="italic" font-family="Verdana, sans-serif">AB</text>
<text x="285" y="168" font-size="11" text-anchor="start" fill="#666666" font-family="Verdana, sans-serif">Byte 3</text>
<rect x="195.0" y="186.0" width="10" height="10" fill="#845DAF" stroke="none" />
<text x="188" y="195" font-size="12" text-anchor="end" font-family="Consolas, monospace">BYTE_04</text>
<text x="215" y="194" font-size="11" text-anchor="start" fill="#000" font-style="italic" font-family="Verdana, sans-serif">AB</text>
<text x="285" y="194" font-size="11" text-anchor="start" fill="#666666" font-family="Verdana, sans-serif">Byte 4</text>
<rect x="195.0" y="212.0" width="10" height="10" fill="#845DAF" stroke="none" />
<text x="188" y="221" font-size="12" text-anchor="end" font-family="Consolas, monospace">BYTE_05</text>
<text x="215" y="220" font-size="11" text-anchor="start" fill="#000" font-style="italic" font-family="Verdana, sans-serif">AB</text>
<text x="285" y="220" font-size="11" text-anchor="start" fill="#666666" font-family="Verdana, sans-serif">Byte 5</text>
<rect x="195.0" y="238.0" width="10" height="10" fill="#845DAF" stroke="none" />
<text x="188" y="247" font-size="12" text-anchor="end" font-family="Consolas, monospace">BYTE_06</text>
<text x="215" y="246" font-size="11" text-anchor="start" fill="#000" font-style="italic" font-family="Verdana, sans-serif">AB</text>
<text x="285" y="246" font-size="11" text-anchor="start" fill="#666666" font-family="Verdana, sans-serif">Byte 6</text>
<rect x="195.0" y="264.0" width="10" height="10" fill="#845DAF" stroke="none" />
<text x="188" y="273" font-size="12" text-anchor="end" font-family="Consolas, monospace">BYTE_07</text>
<text x="215" y="272" font-size="11" text-anchor="start" fill="#000" font-style="italic" font-family="Verdana, sans-serif">AB</text>
<text x="285" y="272" font-size="11" text-anchor="start" fill="#666666" font-family="Verdana, sans-serif">Byte 7</text>
</svg>