<?xml version="1.0" encoding="UTF-8"?>
<svg xmlns="http://www.w3.org/2000/svg" xmlns:xlink="http://www.w3.org/1999/xlink"
     width="1360" height="239" viewBox="-540 -20 1360 239">
<defs>
</defs>
<rect x="3" y="3" width="280" height="189" fill="#000000" fill-opacity="0.1" rx="2" ry="2" />
<path d="M0,0 H280 V30 H274 V70 H280 V189 H0 V70 H6 V30 H0 Z" fill="#ffffff" stroke="#000000" stroke-width="2" />
<path d="M0,30 L280,30" stroke="#000000" stroke-width="1" />
<text x="140.0" y="48.0" font-size="14" fontWeight="bold" font-family="Verdana, sans-serif" font-style="italic" text-anchor="middle" dominant-baseline="central">SPLIT_BYTE_INTO_QUARTERS</text>
<text x="140.0" y="62.0" font-size="10" fill="#000" font-family="Consolas, monospace" text-anchor="middle" dominant-baseline="central">1.0</text>
<rect x="-5.0" y="82.0" width="10" height="10" fill="white" stroke="#845DAF" stroke-width="2.5" />
<text x="12" y="91" font-size="12" text-anchor="start" font-family="Consolas, monospace">IN</text>
<text x="-15" y="90" font-size="11" text-anchor="end" fill="#000" font-style="italic" font-family="Verdana, sans-serif">AB</text>
<text x="-68" y="90" font-size="11" text-anchor="end" fill="#666666" font-family="Verdana, sans-serif">BYTE Input</text>
<rect x="275.0" y="82.0" width="10" height="10" fill="#845DAF" stroke="none" />
<text x="268" y="91" font-size="12" text-anchor="end" font-family="Consolas, monospace">QUARTER_BYTE_00</text>
<text x="295" y="90" font-size="11" text-anchor="start" fill="#000" font-style="italic" font-family="Verdana, sans-serif">AQ</text>
<text x="365" y="90" font-size="11" text-anchor="start" fill="#666666" font-family="Verdana, sans-serif">Quarter 0</text>
<rect x="275.0" y="108.0" width="10" height="10" fill="#845DAF" stroke="none" />
<text x="268" y="117" font-size="12" text-anchor="end" font-family="Consolas, monospace">QUARTER_BYTE_01</text>
<text x="295" y="116" font-size="11" text-anchor="start" fill="#000" font-style="italic" font-family="Verdana, sans-serif">AQ</text>
<text x="365" y="116" font-size="11" text-anchor="start" fill="#666666" font-family="Verdana, sans-serif">Quarter 1</text>
<rect x="275.0" y="134.0" width="10" height="10" fill="#845DAF" stroke="none" />
<text x="268" y="143" font-size="12" text-anchor="end" font-family="Consolas, monospace">QUARTER_BYTE_02</text>
<text x="295" y="142" font-size="11" text-anchor="start" fill="#000" font-style="italic" font-family="Verdana, sans-serif">AQ</text>
<text x="365" y="142" font-size="11" text-anchor="start" fill="#666666" font-family="Verdana, sans-serif">Quarter 2</text>
<rect x="275.0" y="160.0" width="10" height="10" fill="#845DAF" stroke="none" />
<text x="268" y="169" font-size="12" text-anchor="end" font-family="Consolas, monospace">QUARTER_BYTE_03</text>
<text x="295" y="168" font-size="11" text-anchor="start" fill="#000" font-style="italic" font-family="Verdana, sans-serif">AQ</text>
<text x="365" y="168" font-size="11" text-anchor="start" fill="#666666" font-family="Verdana, sans-serif">Quarter 3</text>
</svg>