<?xml version="1.0" encoding="UTF-8"?>
<svg xmlns="http://www.w3.org/2000/svg" xmlns:xlink="http://www.w3.org/1999/xlink"
     width="1286" height="379" viewBox="-548 -20 1286 379">
<defs>
</defs>
<rect x="3" y="3" width="190" height="329" fill="#000000" fill-opacity="0.1" rx="2" ry="2" />
<path d="M0,0 H190 V66 H184 V106 H190 V329 H0 V106 H6 V66 H0 Z" fill="#ffffff" stroke="#000000" stroke-width="2" />
<path d="M0,30 L190,30" stroke="#000000" stroke-width="1" />
<text x="95.0" y="84.0" font-size="14" fontWeight="bold" font-family="Verdana, sans-serif" font-style="italic" text-anchor="middle" dominant-baseline="central">ARR08B_TO_BYTES</text>
<text x="95.0" y="98.0" font-size="10" fill="#000" font-family="Consolas, monospace" text-anchor="middle" dominant-baseline="central">1.0</text>
<path d="M-5,37 L-5,47 L0,42 Z" fill="#63B31F" stroke="none" />
<text x="12" y="46" font-size="12" text-anchor="start" font-family="Consolas, monospace">REQ</text>
<text x="-23" y="45" font-size="11" text-anchor="end" fill="#888" font-style="italic" font-family="Verdana, sans-serif">Event</text>
<path d="M-5,118 L-5,128 L0,123 Z" fill="#82A3A9" stroke="none" />
<text x="12" y="127" font-size="12" text-anchor="start" font-family="Consolas, monospace">IN</text>
<text x="-23" y="126" font-size="11" text-anchor="end" fill="#82A3A9" font-style="italic" font-family="Verdana, sans-serif">BYTE</text>
<text x="-82" y="126" font-size="11" text-anchor="end" fill="#666666" font-family="Verdana, sans-serif">ARR08B Input</text>
<path d="M190,37 L190,47 L195,42 Z" fill="#63B31F" stroke="none" />
<text x="178" y="46" font-size="12" text-anchor="end" font-family="Consolas, monospace">CNF</text>
<text x="213" y="45" font-size="11" text-anchor="start" fill="#888" font-style="italic" font-family="Verdana, sans-serif">Event</text>
<path d="M190,118 L190,128 L195,123 Z" fill="#82A3A9" stroke="none" />
<text x="178" y="127" font-size="12" text-anchor="end" font-family="Consolas, monospace">OUT_00</text>
<text x="213" y="126" font-size="11" text-anchor="start" fill="#82A3A9" font-style="italic" font-family="Verdana, sans-serif">BYTE</text>
<text x="283" y="126" font-size="11" text-anchor="start" fill="#666666" font-family="Verdana, sans-serif">BYTE 00</text>
<path d="M190,144 L190,154 L195,149 Z" fill="#82A3A9" stroke="none" />
<text x="178" y="153" font-size="12" text-anchor="end" font-family="Consolas, monospace">OUT_01</text>
<text x="213" y="152" font-size="11" text-anchor="start" fill="#82A3A9" font-style="italic" font-family="Verdana, sans-serif">BYTE</text>
<text x="283" y="152" font-size="11" text-anchor="start" fill="#666666" font-family="Verdana, sans-serif">BYTE 01</text>
<path d="M190,170 L190,180 L195,175 Z" fill="#82A3A9" stroke="none" />
<text x="178" y="179" font-size="12" text-anchor="end" font-family="Consolas, monospace">OUT_02</text>
<text x="213" y="178" font-size="11" text-anchor="start" fill="#82A3A9" font-style="italic" font-family="Verdana, sans-serif">BYTE</text>
<text x="283" y="178" font-size="11" text-anchor="start" fill="#666666" font-family="Verdana, sans-serif">BYTE 02</text>
<path d="M190,196 L190,206 L195,201 Z" fill="#82A3A9" stroke="none" />
<text x="178" y="205" font-size="12" text-anchor="end" font-family="Consolas, monospace">OUT_03</text>
<text x="213" y="204" font-size="11" text-anchor="start" fill="#82A3A9" font-style="italic" font-family="Verdana, sans-serif">BYTE</text>
<text x="283" y="204" font-size="11" text-anchor="start" fill="#666666" font-family="Verdana, sans-serif">BYTE 03</text>
<path d="M190,222 L190,232 L195,227 Z" fill="#82A3A9" stroke="none" />
<text x="178" y="231" font-size="12" text-anchor="end" font-family="Consolas, monospace">OUT_04</text>
<text x="213" y="230" font-size="11" text-anchor="start" fill="#82A3A9" font-style="italic" font-family="Verdana, sans-serif">BYTE</text>
<text x="283" y="230" font-size="11" text-anchor="start" fill="#666666" font-family="Verdana, sans-serif">BYTE 04</text>
<path d="M190,248 L190,258 L195,253 Z" fill="#82A3A9" stroke="none" />
<text x="178" y="257" font-size="12" text-anchor="end" font-family="Consolas, monospace">OUT_05</text>
<text x="213" y="256" font-size="11" text-anchor="start" fill="#82A3A9" font-style="italic" font-family="Verdana, sans-serif">BYTE</text>
<text x="283" y="256" font-size="11" text-anchor="start" fill="#666666" font-family="Verdana, sans-serif">BYTE 05</text>
<path d="M190,274 L190,284 L195,279 Z" fill="#82A3A9" stroke="none" />
<text x="178" y="283" font-size="12" text-anchor="end" font-family="Consolas, monospace">OUT_06</text>
<text x="213" y="282" font-size="11" text-anchor="start" fill="#82A3A9" font-style="italic" font-family="Verdana, sans-serif">BYTE</text>
<text x="283" y="282" font-size="11" text-anchor="start" fill="#666666" font-family="Verdana, sans-serif">BYTE 06</text>
<path d="M190,300 L190,310 L195,305 Z" fill="#82A3A9" stroke="none" />
<text x="178" y="309" font-size="12" text-anchor="end" font-family="Consolas, monospace">OUT_07</text>
<text x="213" y="308" font-size="11" text-anchor="start" fill="#82A3A9" font-style="italic" font-family="Verdana, sans-serif">BYTE</text>
<text x="283" y="308" font-size="11" text-anchor="start" fill="#666666" font-family="Verdana, sans-serif">BYTE 07</text>
<path d="M-12,42 L-12,123" stroke="#404040" stroke-width="1" />
<path d="M0,42 L-12,42" stroke="#404040" />
<rect x="-14" y="40" width="4" height="4" fill="white" stroke="black" stroke-width="1" />
<path d="M-12,123 L-5,123" stroke="#404040" />
<rect x="-14" y="121" width="4" height="4" fill="white" stroke="black" stroke-width="1" />
<path d="M202,42 L202,305" stroke="#404040" stroke-width="1" />
<path d="M190,42 L202,42" stroke="#404040" />
<rect x="200" y="40" width="4" height="4" fill="white" stroke="black" stroke-width="1" />
<path d="M202,123 L195,123" stroke="#404040" />
<rect x="200" y="121" width="4" height="4" fill="white" stroke="black" stroke-width="1" />
<path d="M202,149 L195,149" stroke="#404040" />
<rect x="200" y="147" width="4" height="4" fill="white" stroke="black" stroke-width="1" />
<path d="M202,175 L195,175" stroke="#404040" />
<rect x="200" y="173" width="4" height="4" fill="white" stroke="black" stroke-width="1" />
<path d="M202,201 L195,201" stroke="#404040" />
<rect x="200" y="199" width="4" height="4" fill="white" stroke="black" stroke-width="1" />
<path d="M202,227 L195,227" stroke="#404040" />
<rect x="200" y="225" width="4" height="4" fill="white" stroke="black" stroke-width="1" />
<path d="M202,253 L195,253" stroke="#404040" />
<rect x="200" y="251" width="4" height="4" fill="white" stroke="black" stroke-width="1" />
<path d="M202,279 L195,279" stroke="#404040" />
<rect x="200" y="277" width="4" height="4" fill="white" stroke="black" stroke-width="1" />
<path d="M202,305 L195,305" stroke="#404040" />
<rect x="200" y="303" width="4" height="4" fill="white" stroke="black" stroke-width="1" />
</svg>