<?xml version="1.0" encoding="UTF-8"?>
<svg xmlns="http://www.w3.org/2000/svg" xmlns:xlink="http://www.w3.org/1999/xlink"
     width="960" height="187" viewBox="-540 -20 960 187">
<defs>
</defs>
<rect x="3" y="3" width="130" height="137" fill="#000000" fill-opacity="0.1" rx="2" ry="2" />
<path d="M0,0 H130 V30 H124 V70 H130 V137 H0 V70 H6 V30 H0 Z" fill="#ffffff" stroke="#606060" stroke-width="2" />
<path d="M0,30 L130,30" stroke="#606060" stroke-width="1" />
<text x="65.0" y="48.0" font-size="14" fontWeight="bold" font-family="Verdana, sans-serif" font-style="italic" text-anchor="middle" dominant-baseline="central">AX_TON</text>
<text x="65.0" y="62.0" font-size="10" fill="#000" font-family="Consolas, monospace" text-anchor="middle" dominant-baseline="central">3.0</text>
<rect x="-5.0" y="82.0" width="10" height="10" fill="white" stroke="#985ec9" stroke-width="2.5" />
<text x="12" y="91" font-size="12" text-anchor="start" font-family="Consolas, monospace">IN</text>
<text x="-15" y="90" font-size="11" text-anchor="end" fill="#000" font-style="italic" font-family="Verdana, sans-serif">AX</text>
<text x="-85" y="90" font-size="11" text-anchor="end" fill="#666666" font-family="Verdana, sans-serif">Input</text>
<path d="M-5,108 L-5,118 L0,113 Z" fill="#0066cc" stroke="none" />
<text x="12" y="117" font-size="12" text-anchor="start" font-family="Consolas, monospace">PT</text>
<text x="-15" y="116" font-size="11" text-anchor="end" fill="#0066cc" font-style="italic" font-family="Verdana, sans-serif">TIME</text>
<text x="-85" y="116" font-size="11" text-anchor="end" fill="#666666" font-family="Verdana, sans-serif">Process time</text>
<rect x="125.0" y="82.0" width="10" height="10" fill="#985ec9" stroke="none" />
<text x="118" y="91" font-size="12" text-anchor="end" font-family="Consolas, monospace">Q</text>
<text x="145" y="90" font-size="11" text-anchor="start" fill="#000" font-style="italic" font-family="Verdana, sans-serif">AX</text>
<text x="215" y="90" font-size="11" text-anchor="start" fill="#666666" font-family="Verdana, sans-serif">Output</text>
</svg>