<?xml version="1.0" encoding="UTF-8"?>
<svg xmlns="http://www.w3.org/2000/svg" xmlns:xlink="http://www.w3.org/1999/xlink"
     width="1326" height="249" viewBox="-548 -20 1326 249">
<defs>
</defs>
<rect x="3" y="3" width="230" height="199" fill="#000000" fill-opacity="0.1" rx="2" ry="2" />
<path d="M0,0 H230 V66 H224 V106 H230 V199 H0 V106 H6 V66 H0 Z" fill="#ffffff" stroke="#000000" stroke-width="2" />
<path d="M0,30 L230,30" stroke="#000000" stroke-width="1" />
<text x="115.0" y="84.0" font-size="14" fontWeight="bold" font-family="Verdana, sans-serif" font-style="italic" text-anchor="middle" dominant-baseline="central">F_PHYS_LREAL_TO_RAW</text>
<text x="115.0" y="98.0" font-size="10" fill="#000" font-family="Consolas, monospace" text-anchor="middle" dominant-baseline="central">1.0</text>
<path d="M-5,37 L-5,47 L0,42 Z" fill="#63B31F" stroke="none" />
<text x="12" y="46" font-size="12" text-anchor="start" font-family="Consolas, monospace">REQ</text>
<text x="-23" y="45" font-size="11" text-anchor="end" fill="#888" font-style="italic" font-family="Verdana, sans-serif">Event</text>
<path d="M-5,118 L-5,128 L0,123 Z" fill="#DBB418" stroke="none" />
<text x="12" y="127" font-size="12" text-anchor="start" font-family="Consolas, monospace">lrPhys</text>
<text x="-23" y="126" font-size="11" text-anchor="end" fill="#DBB418" font-style="italic" font-family="Verdana, sans-serif">LREAL</text>
<path d="M-5,144 L-5,154 L0,149 Z" fill="#000000" stroke="none" />
<text x="12" y="153" font-size="12" text-anchor="start" font-family="Consolas, monospace">stObj</text>
<text x="-23" y="152" font-size="11" text-anchor="end" fill="#000000" font-style="italic" font-family="Verdana, sans-serif">NumericObjectPool_S</text>
<path d="M230,37 L230,47 L235,42 Z" fill="#63B31F" stroke="none" />
<text x="218" y="46" font-size="12" text-anchor="end" font-family="Consolas, monospace">CNF</text>
<text x="253" y="45" font-size="11" text-anchor="start" fill="#888" font-style="italic" font-family="Verdana, sans-serif">Event</text>
<path d="M230,118 L230,128 L235,123 Z" fill="#18519E" stroke="none" />
<text x="218" y="127" font-size="12" text-anchor="end" font-family="Consolas, monospace"></text>
<text x="253" y="126" font-size="11" text-anchor="start" fill="#18519E" font-style="italic" font-family="Verdana, sans-serif">UDINT</text>
<path d="M230,144 L230,154 L235,149 Z" fill="#9FA48A" stroke="none" />
<text x="218" y="153" font-size="12" text-anchor="end" font-family="Consolas, monospace">xOver</text>
<text x="253" y="152" font-size="11" text-anchor="start" fill="#9FA48A" font-style="italic" font-family="Verdana, sans-serif">BOOL</text>
<path d="M230,170 L230,180 L235,175 Z" fill="#9FA48A" stroke="none" />
<text x="218" y="179" font-size="12" text-anchor="end" font-family="Consolas, monospace">xUnder</text>
<text x="253" y="178" font-size="11" text-anchor="start" fill="#9FA48A" font-style="italic" font-family="Verdana, sans-serif">BOOL</text>
<path d="M-12,42 L-12,149" stroke="#404040" stroke-width="1" />
<path d="M0,42 L-12,42" stroke="#404040" />
<rect x="-14" y="40" width="4" height="4" fill="white" stroke="black" stroke-width="1" />
<path d="M-12,123 L-5,123" stroke="#404040" />
<rect x="-14" y="121" width="4" height="4" fill="white" stroke="black" stroke-width="1" />
<path d="M-12,149 L-5,149" stroke="#404040" />
<rect x="-14" y="147" width="4" height="4" fill="white" stroke="black" stroke-width="1" />
<path d="M242,42 L242,175" stroke="#404040" stroke-width="1" />
<path d="M230,42 L242,42" stroke="#404040" />
<rect x="240" y="40" width="4" height="4" fill="white" stroke="black" stroke-width="1" />
<path d="M242,123 L235,123" stroke="#404040" />
<rect x="240" y="121" width="4" height="4" fill="white" stroke="black" stroke-width="1" />
<path d="M242,149 L235,149" stroke="#404040" />
<rect x="240" y="147" width="4" height="4" fill="white" stroke="black" stroke-width="1" />
<path d="M242,175 L235,175" stroke="#404040" />
<rect x="240" y="173" width="4" height="4" fill="white" stroke="black" stroke-width="1" />
</svg>