<?xml version="1.0" encoding="UTF-8"?>
<svg xmlns="http://www.w3.org/2000/svg" xmlns:xlink="http://www.w3.org/1999/xlink"
     width="1480" height="249" viewBox="-540 -20 1480 249">
<defs>
</defs>
<rect x="3" y="3" width="400" height="199" fill="#000000" fill-opacity="0.1" rx="2" ry="2" />
<path d="M0,0 H400 V66 H394 V106 H400 V199 H0 V106 H6 V66 H0 Z" fill="#ffffff" stroke="#000000" stroke-width="2" />
<path d="M0,30 L400,30" stroke="#000000" stroke-width="1" />
<text x="200.0" y="84.0" font-size="14" fontWeight="bold" font-family="Verdana, sans-serif" font-style="italic" text-anchor="middle" dominant-baseline="central">AUDI_FIELDBUS_UDINT_TO_SIGNAL_SCALED</text>
<text x="200.0" y="98.0" font-size="10" fill="#000" font-family="Consolas, monospace" text-anchor="middle" dominant-baseline="central">1.0</text>
<path d="M-5,37 L-5,47 L0,42 Z" fill="#63B31F" stroke="none" />
<text x="12" y="46" font-size="12" text-anchor="start" font-family="Consolas, monospace">INIT</text>
<text x="-15" y="45" font-size="11" text-anchor="end" fill="#888" font-style="italic" font-family="Verdana, sans-serif">Event</text>
<text x="-104" y="45" font-size="11" text-anchor="end" fill="#666666" font-family="Verdana, sans-serif">Init Request</text>
<rect x="-5.0" y="118.0" width="10" height="10" fill="white" stroke="#845DAF" stroke-width="2.5" />
<text x="12" y="127" font-size="12" text-anchor="start" font-family="Consolas, monospace">IN</text>
<text x="-15" y="126" font-size="11" text-anchor="end" fill="#000" font-style="italic" font-family="Verdana, sans-serif">AUDI</text>
<text x="-104" y="126" font-size="11" text-anchor="end" fill="#666666" font-family="Verdana, sans-serif">Input</text>
<path d="M-5,144 L-5,154 L0,149 Z" fill="#DBB418" stroke="none" />
<text x="12" y="153" font-size="12" text-anchor="start" font-family="Consolas, monospace">SCALE</text>
<text x="-15" y="152" font-size="11" text-anchor="end" fill="#DBB418" font-style="italic" font-family="Verdana, sans-serif">LREAL</text>
<text x="-104" y="152" font-size="11" text-anchor="end" fill="#666666" font-family="Verdana, sans-serif">Scaling factor</text>
<path d="M-5,170 L-5,180 L0,175 Z" fill="#18519E" stroke="none" />
<text x="12" y="179" font-size="12" text-anchor="start" font-family="Consolas, monospace">OFFSET</text>
<text x="-15" y="178" font-size="11" text-anchor="end" fill="#18519E" font-style="italic" font-family="Verdana, sans-serif">DINT</text>
<text x="-104" y="178" font-size="11" text-anchor="end" fill="#666666" font-family="Verdana, sans-serif">Offset added after scaling</text>
<path d="M400,37 L400,47 L405,42 Z" fill="#63B31F" stroke="none" />
<text x="388" y="46" font-size="12" text-anchor="end" font-family="Consolas, monospace">INITO</text>
<text x="415" y="45" font-size="11" text-anchor="start" fill="#888" font-style="italic" font-family="Verdana, sans-serif">Event</text>
<text x="485" y="45" font-size="11" text-anchor="start" fill="#666666" font-family="Verdana, sans-serif">Init Confirmation</text>
<rect x="395.0" y="118.0" width="10" height="10" fill="#845DAF" stroke="none" />
<text x="388" y="127" font-size="12" text-anchor="end" font-family="Consolas, monospace">OUT</text>
<text x="415" y="126" font-size="11" text-anchor="start" fill="#000" font-style="italic" font-family="Verdana, sans-serif">ALR</text>
<text x="485" y="126" font-size="11" text-anchor="start" fill="#666666" font-family="Verdana, sans-serif">Output Filtered</text>
<rect x="395.0" y="144.0" width="10" height="10" fill="#845DAF" stroke="none" />
<text x="388" y="153" font-size="12" text-anchor="end" font-family="Consolas, monospace">VALID</text>
<text x="415" y="152" font-size="11" text-anchor="start" fill="#000" font-style="italic" font-family="Verdana, sans-serif">AX</text>
<text x="485" y="152" font-size="11" text-anchor="start" fill="#666666" font-family="Verdana, sans-serif">TRUE if Signal is VALID</text>
</svg>