<?xml version="1.0" encoding="UTF-8"?>
<svg xmlns="http://www.w3.org/2000/svg" xmlns:xlink="http://www.w3.org/1999/xlink"
     width="1524" height="301" viewBox="-556 -20 1524 301">
<defs>
</defs>
<rect x="3" y="3" width="420" height="251" fill="#000000" fill-opacity="0.1" rx="2" ry="2" />
<path d="M0,0 H420 V92 H414 V132 H420 V251 H0 V132 H6 V92 H0 Z" fill="#ffffff" stroke="#000000" stroke-width="2" />
<path d="M0,30 L420,30" stroke="#000000" stroke-width="1" />
<text x="210.0" y="110.0" font-size="14" fontWeight="bold" font-family="Verdana, sans-serif" font-style="italic" text-anchor="middle" dominant-baseline="central">FIELDBUS_WORD_TO_SIGNAL_COMPOUND_SCALE</text>
<text x="210.0" y="124.0" font-size="10" fill="#000" font-family="Consolas, monospace" text-anchor="middle" dominant-baseline="central">1.0</text>
<path d="M-5,37 L-5,47 L0,42 Z" fill="#63B31F" stroke="none" />
<text x="12" y="46" font-size="12" text-anchor="start" font-family="Consolas, monospace">INIT</text>
<text x="-31" y="45" font-size="11" text-anchor="end" fill="#888" font-style="italic" font-family="Verdana, sans-serif">Event</text>
<text x="-131" y="45" font-size="11" text-anchor="end" fill="#666666" font-family="Verdana, sans-serif">Init Request</text>
<path d="M-5,63 L-5,73 L0,68 Z" fill="#63B31F" stroke="none" />
<text x="12" y="72" font-size="12" text-anchor="start" font-family="Consolas, monospace">REQ</text>
<text x="-31" y="71" font-size="11" text-anchor="end" fill="#888" font-style="italic" font-family="Verdana, sans-serif">Event</text>
<text x="-131" y="71" font-size="11" text-anchor="end" fill="#666666" font-family="Verdana, sans-serif">Normal Execution Request</text>
<path d="M-5,144 L-5,154 L0,149 Z" fill="#82A3A9" stroke="none" />
<text x="12" y="153" font-size="12" text-anchor="start" font-family="Consolas, monospace">IN</text>
<text x="-31" y="152" font-size="11" text-anchor="end" fill="#82A3A9" font-style="italic" font-family="Verdana, sans-serif">WORD</text>
<text x="-131" y="152" font-size="11" text-anchor="end" fill="#666666" font-family="Verdana, sans-serif">Input</text>
<path d="M-5,170 L-5,180 L0,175 Z" fill="#DBB418" stroke="none" />
<text x="12" y="179" font-size="12" text-anchor="start" font-family="Consolas, monospace">SCALE_HIGH</text>
<text x="-31" y="178" font-size="11" text-anchor="end" fill="#DBB418" font-style="italic" font-family="Verdana, sans-serif">REAL</text>
<text x="-131" y="178" font-size="11" text-anchor="end" fill="#666666" font-family="Verdana, sans-serif">Scale factor for upper byte</text>
<path d="M-5,196 L-5,206 L0,201 Z" fill="#DBB418" stroke="none" />
<text x="12" y="205" font-size="12" text-anchor="start" font-family="Consolas, monospace">SCALE_LOW</text>
<text x="-31" y="204" font-size="11" text-anchor="end" fill="#DBB418" font-style="italic" font-family="Verdana, sans-serif">REAL</text>
<text x="-131" y="204" font-size="11" text-anchor="end" fill="#666666" font-family="Verdana, sans-serif">Scale factor for lower byte</text>
<path d="M-5,222 L-5,232 L0,227 Z" fill="#18519E" stroke="none" />
<text x="12" y="231" font-size="12" text-anchor="start" font-family="Consolas, monospace">OFFSET</text>
<text x="-31" y="230" font-size="11" text-anchor="end" fill="#18519E" font-style="italic" font-family="Verdana, sans-serif">DINT</text>
<text x="-131" y="230" font-size="11" text-anchor="end" fill="#666666" font-family="Verdana, sans-serif">Offset added after scaling</text>
<path d="M420,37 L420,47 L425,42 Z" fill="#63B31F" stroke="none" />
<text x="408" y="46" font-size="12" text-anchor="end" font-family="Consolas, monospace">INITO</text>
<text x="443" y="45" font-size="11" text-anchor="start" fill="#888" font-style="italic" font-family="Verdana, sans-serif">Event</text>
<text x="513" y="45" font-size="11" text-anchor="start" fill="#666666" font-family="Verdana, sans-serif">Init Confirmation</text>
<path d="M420,63 L420,73 L425,68 Z" fill="#63B31F" stroke="none" />
<text x="408" y="72" font-size="12" text-anchor="end" font-family="Consolas, monospace">CNF</text>
<text x="443" y="71" font-size="11" text-anchor="start" fill="#888" font-style="italic" font-family="Verdana, sans-serif">Event</text>
<text x="513" y="71" font-size="11" text-anchor="start" fill="#666666" font-family="Verdana, sans-serif">Execution Confirmation</text>
<path d="M420,144 L420,154 L425,149 Z" fill="#DBB418" stroke="none" />
<text x="408" y="153" font-size="12" text-anchor="end" font-family="Consolas, monospace">OUT</text>
<text x="443" y="152" font-size="11" text-anchor="start" fill="#DBB418" font-style="italic" font-family="Verdana, sans-serif">REAL</text>
<text x="513" y="152" font-size="11" text-anchor="start" fill="#666666" font-family="Verdana, sans-serif">Output Scaled</text>
<path d="M420,170 L420,180 L425,175 Z" fill="#9FA48A" stroke="none" />
<text x="408" y="179" font-size="12" text-anchor="end" font-family="Consolas, monospace">VALID</text>
<text x="443" y="178" font-size="11" text-anchor="start" fill="#9FA48A" font-style="italic" font-family="Verdana, sans-serif">BOOL</text>
<text x="513" y="178" font-size="11" text-anchor="start" fill="#666666" font-family="Verdana, sans-serif">TRUE if Signal is VALID</text>
<path d="M-12,42 L-12,227" stroke="#404040" stroke-width="1" />
<path d="M0,42 L-12,42" stroke="#404040" />
<rect x="-14" y="40" width="4" height="4" fill="white" stroke="black" stroke-width="1" />
<path d="M-12,175 L-5,175" stroke="#404040" />
<rect x="-14" y="173" width="4" height="4" fill="white" stroke="black" stroke-width="1" />
<path d="M-12,201 L-5,201" stroke="#404040" />
<rect x="-14" y="199" width="4" height="4" fill="white" stroke="black" stroke-width="1" />
<path d="M-12,227 L-5,227" stroke="#404040" />
<rect x="-14" y="225" width="4" height="4" fill="white" stroke="black" stroke-width="1" />
<path d="M-20,68 L-20,149" stroke="#404040" stroke-width="1" />
<path d="M0,68 L-20,68" stroke="#404040" />
<rect x="-22" y="66" width="4" height="4" fill="white" stroke="black" stroke-width="1" />
<path d="M-20,149 L-5,149" stroke="#404040" />
<rect x="-22" y="147" width="4" height="4" fill="white" stroke="black" stroke-width="1" />
<path d="M432,68 L432,175" stroke="#404040" stroke-width="1" />
<path d="M420,68 L432,68" stroke="#404040" />
<rect x="430" y="66" width="4" height="4" fill="white" stroke="black" stroke-width="1" />
<path d="M432,149 L425,149" stroke="#404040" />
<rect x="430" y="147" width="4" height="4" fill="white" stroke="black" stroke-width="1" />
<path d="M432,175 L425,175" stroke="#404040" />
<rect x="430" y="173" width="4" height="4" fill="white" stroke="black" stroke-width="1" />
</svg>