<?xml version="1.0" encoding="UTF-8"?>
<svg xmlns="http://www.w3.org/2000/svg" xmlns:xlink="http://www.w3.org/1999/xlink"
     width="1396" height="223" viewBox="-548 -20 1396 223">
<defs>
</defs>
<rect x="3" y="3" width="300" height="173" fill="#000000" fill-opacity="0.1" rx="2" ry="2" />
<path d="M0,0 H300 V66 H294 V106 H300 V173 H0 V106 H6 V66 H0 Z" fill="#ffffff" stroke="#000000" stroke-width="2" />
<path d="M0,30 L300,30" stroke="#000000" stroke-width="1" />
<text x="150.0" y="84.0" font-size="14" fontWeight="bold" font-family="Verdana, sans-serif" font-style="italic" text-anchor="middle" dominant-baseline="central">FIELDBUS_QUARTER_TO_SIGNAL</text>
<text x="150.0" y="98.0" font-size="10" fill="#000" font-family="Consolas, monospace" text-anchor="middle" dominant-baseline="central">1.0</text>
<path d="M-5,37 L-5,47 L0,42 Z" fill="#63B31F" stroke="none" />
<text x="12" y="46" font-size="12" text-anchor="start" font-family="Consolas, monospace">REQ</text>
<text x="-23" y="45" font-size="11" text-anchor="end" fill="#888" font-style="italic" font-family="Verdana, sans-serif">Event</text>
<text x="-104" y="45" font-size="11" text-anchor="end" fill="#666666" font-family="Verdana, sans-serif">Normal Execution Request</text>
<path d="M-5,118 L-5,128 L0,123 Z" fill="#82A3A9" stroke="none" />
<text x="12" y="127" font-size="12" text-anchor="start" font-family="Consolas, monospace">IN</text>
<text x="-23" y="126" font-size="11" text-anchor="end" fill="#82A3A9" font-style="italic" font-family="Verdana, sans-serif">BYTE</text>
<text x="-104" y="126" font-size="11" text-anchor="end" fill="#666666" font-family="Verdana, sans-serif">Input</text>
<path d="M300,37 L300,47 L305,42 Z" fill="#63B31F" stroke="none" />
<text x="288" y="46" font-size="12" text-anchor="end" font-family="Consolas, monospace">CNF</text>
<text x="323" y="45" font-size="11" text-anchor="start" fill="#888" font-style="italic" font-family="Verdana, sans-serif">Event</text>
<text x="393" y="45" font-size="11" text-anchor="start" fill="#666666" font-family="Verdana, sans-serif">Execution Confirmation</text>
<path d="M300,118 L300,128 L305,123 Z" fill="#82A3A9" stroke="none" />
<text x="288" y="127" font-size="12" text-anchor="end" font-family="Consolas, monospace">OUT</text>
<text x="323" y="126" font-size="11" text-anchor="start" fill="#82A3A9" font-style="italic" font-family="Verdana, sans-serif">BYTE</text>
<text x="393" y="126" font-size="11" text-anchor="start" fill="#666666" font-family="Verdana, sans-serif">Output Filtered</text>
<path d="M300,144 L300,154 L305,149 Z" fill="#9FA48A" stroke="none" />
<text x="288" y="153" font-size="12" text-anchor="end" font-family="Consolas, monospace">VALID</text>
<text x="323" y="152" font-size="11" text-anchor="start" fill="#9FA48A" font-style="italic" font-family="Verdana, sans-serif">BOOL</text>
<text x="393" y="152" font-size="11" text-anchor="start" fill="#666666" font-family="Verdana, sans-serif">TRUE if Signal is VALID</text>
<path d="M-12,42 L-12,123" stroke="#404040" stroke-width="1" />
<path d="M0,42 L-12,42" stroke="#404040" />
<rect x="-14" y="40" width="4" height="4" fill="white" stroke="black" stroke-width="1" />
<path d="M-12,123 L-5,123" stroke="#404040" />
<rect x="-14" y="121" width="4" height="4" fill="white" stroke="black" stroke-width="1" />
<path d="M312,42 L312,149" stroke="#404040" stroke-width="1" />
<path d="M300,42 L312,42" stroke="#404040" />
<rect x="310" y="40" width="4" height="4" fill="white" stroke="black" stroke-width="1" />
<path d="M312,123 L305,123" stroke="#404040" />
<rect x="310" y="121" width="4" height="4" fill="white" stroke="black" stroke-width="1" />
<path d="M312,149 L305,149" stroke="#404040" />
<rect x="310" y="147" width="4" height="4" fill="white" stroke="black" stroke-width="1" />
</svg>