<?xml version="1.0" encoding="UTF-8"?>
<svg xmlns="http://www.w3.org/2000/svg" xmlns:xlink="http://www.w3.org/1999/xlink"
     width="1376" height="223" viewBox="-548 -20 1376 223">
<defs>
</defs>
<rect x="3" y="3" width="280" height="173" fill="#000000" fill-opacity="0.1" rx="2" ry="2" />
<path d="M0,0 H280 V66 H274 V106 H280 V173 H0 V106 H6 V66 H0 Z" fill="#ffffff" stroke="#000000" stroke-width="2" />
<path d="M0,30 L280,30" stroke="#000000" stroke-width="1" />
<text x="140.0" y="84.0" font-size="14" fontWeight="bold" font-family="Verdana, sans-serif" font-style="italic" text-anchor="middle" dominant-baseline="central">FIELDBUS_USINT_TO_SIGNAL</text>
<text x="140.0" y="98.0" font-size="10" fill="#000" font-family="Consolas, monospace" text-anchor="middle" dominant-baseline="central">1.0</text>
<path d="M-5,37 L-5,47 L0,42 Z" fill="#63B31F" stroke="none" />
<text x="12" y="46" font-size="12" text-anchor="start" font-family="Consolas, monospace">REQ</text>
<text x="-23" y="45" font-size="11" text-anchor="end" fill="#888" font-style="italic" font-family="Verdana, sans-serif">Event</text>
<text x="-104" y="45" font-size="11" text-anchor="end" fill="#666666" font-family="Verdana, sans-serif">Normal Execution Request</text>
<path d="M-5,118 L-5,128 L0,123 Z" fill="#18519E" stroke="none" />
<text x="12" y="127" font-size="12" text-anchor="start" font-family="Consolas, monospace">IN</text>
<text x="-23" y="126" font-size="11" text-anchor="end" fill="#18519E" font-style="italic" font-family="Verdana, sans-serif">USINT</text>
<text x="-104" y="126" font-size="11" text-anchor="end" fill="#666666" font-family="Verdana, sans-serif">Input</text>
<path d="M280,37 L280,47 L285,42 Z" fill="#63B31F" stroke="none" />
<text x="268" y="46" font-size="12" text-anchor="end" font-family="Consolas, monospace">CNF</text>
<text x="303" y="45" font-size="11" text-anchor="start" fill="#888" font-style="italic" font-family="Verdana, sans-serif">Event</text>
<text x="373" y="45" font-size="11" text-anchor="start" fill="#666666" font-family="Verdana, sans-serif">Execution Confirmation</text>
<path d="M280,118 L280,128 L285,123 Z" fill="#18519E" stroke="none" />
<text x="268" y="127" font-size="12" text-anchor="end" font-family="Consolas, monospace">OUT</text>
<text x="303" y="126" font-size="11" text-anchor="start" fill="#18519E" font-style="italic" font-family="Verdana, sans-serif">USINT</text>
<text x="373" y="126" font-size="11" text-anchor="start" fill="#666666" font-family="Verdana, sans-serif">Output Filtered</text>
<path d="M280,144 L280,154 L285,149 Z" fill="#9FA48A" stroke="none" />
<text x="268" y="153" font-size="12" text-anchor="end" font-family="Consolas, monospace">VALID</text>
<text x="303" y="152" font-size="11" text-anchor="start" fill="#9FA48A" font-style="italic" font-family="Verdana, sans-serif">BOOL</text>
<text x="373" y="152" font-size="11" text-anchor="start" fill="#666666" font-family="Verdana, sans-serif">TRUE if Signal is VALID</text>
<path d="M-12,42 L-12,123" stroke="#404040" stroke-width="1" />
<path d="M0,42 L-12,42" stroke="#404040" />
<rect x="-14" y="40" width="4" height="4" fill="white" stroke="black" stroke-width="1" />
<path d="M-12,123 L-5,123" stroke="#404040" />
<rect x="-14" y="121" width="4" height="4" fill="white" stroke="black" stroke-width="1" />
<path d="M292,42 L292,149" stroke="#404040" stroke-width="1" />
<path d="M280,42 L292,42" stroke="#404040" />
<rect x="290" y="40" width="4" height="4" fill="white" stroke="black" stroke-width="1" />
<path d="M292,123 L285,123" stroke="#404040" />
<rect x="290" y="121" width="4" height="4" fill="white" stroke="black" stroke-width="1" />
<path d="M292,149 L285,149" stroke="#404040" />
<rect x="290" y="147" width="4" height="4" fill="white" stroke="black" stroke-width="1" />
</svg>