<?xml version="1.0" encoding="UTF-8"?>
<svg xmlns="http://www.w3.org/2000/svg" xmlns:xlink="http://www.w3.org/1999/xlink"
     width="1200" height="800" viewBox="0 0 1200 800">
<defs>
</defs>
<rect x="0" y="0" width="1200" height="800" fill="#ffffff" />
<text x="600" y="25" font-size="14" fontWeight="bold" font-family="Verdana, sans-serif" fill="#000000" text-anchor="middle" dominant-baseline="central">ECC: AX_FB_R_TRIG</text>
<rect x="10.0" y="384.0" width="80" height="32" fill="#f5f5f5" stroke="#000000" stroke-width="2" rx="8" ry="8" />
<text x="50.0" y="400.0" font-size="12" fontWeight="bold" font-family="Verdana, sans-serif" fill="#000000" text-anchor="middle" dominant-baseline="central">REQ</text>
<rect x="100.0" y="384.0" width="161" height="22" fill="#ffffff" stroke="#cccccc" stroke-width="1" rx="4" ry="4" />
<path d="M90.0,400.0 L100.0,395.0" stroke="#000000" stroke-width="2" />
<path d="M180.0,384.0 L180.0,406.0" stroke="#cccccc" stroke-width="1" />
<rect x="100.0" y="388.0" width="80" height="14" fill="#e6f7e6" stroke="#cccccc" stroke-width="0.5" />
<text x="140.0" y="396.0" font-size="10" font-family="Consolas, monospace" fill="#000000" text-anchor="middle" dominant-baseline="central">REQ</text>
<rect x="181.0" y="388.0" width="80" height="14" fill="#ffe6e6" stroke="#cccccc" stroke-width="0.5" />
<text x="221.0" y="396.0" font-size="10" font-family="Consolas, monospace" fill="#000000" text-anchor="middle" dominant-baseline="central">Q.E1</text>
<path d="M70.0,416.0 C130.0,472.0,-30.0,472.0,30.0,416.0" stroke="#404040" stroke-width="1.2" fill="none" />
<path d="M30.0,416.0 L27.66437353048987,423.6514605791916 L22.20582752760978,417.80301843324867 L30.0,416.0" fill="#404040" stroke="#404040" stroke-width="1" />
<g transform="translate(50.0,436.0)">
<rect x="-23.5" y="-7.5" width="47.0" height="15" fill="#ffffff" opacity="0.9" rx="3" ry="3" />
<text x="0" y="3.5" font-size="10" font-family="Consolas, monospace" fill="#000000" text-anchor="middle" dominant-baseline="central">CLK.E1</text>
</g>
</svg>