<?xml version="1.0" encoding="UTF-8"?>
<svg xmlns="http://www.w3.org/2000/svg" xmlns:xlink="http://www.w3.org/1999/xlink"
     width="1046" height="197" viewBox="-548 -20 1046 197">
<defs>
</defs>
<rect x="3" y="3" width="200" height="147" fill="#000000" fill-opacity="0.1" rx="2" ry="2" />
<path d="M0,0 H200 V66 H194 V106 H200 V147 H0 V106 H6 V66 H0 Z" fill="#ffffff" stroke="#000000" stroke-width="2" />
<path d="M0,30 L200,30" stroke="#000000" stroke-width="1" />
<text x="100.0" y="84.0" font-size="14" fontWeight="bold" font-family="Verdana, sans-serif" font-style="italic" text-anchor="middle" dominant-baseline="central">F_STRING_AS_WORD</text>
<text x="100.0" y="98.0" font-size="10" fill="#000" font-family="Consolas, monospace" text-anchor="middle" dominant-baseline="central">3.0</text>
<path d="M-5,37 L-5,47 L0,42 Z" fill="#63B31F" stroke="none" />
<text x="12" y="46" font-size="12" text-anchor="start" font-family="Consolas, monospace">REQ</text>
<text x="-23" y="45" font-size="11" text-anchor="end" fill="#888" font-style="italic" font-family="Verdana, sans-serif">Event</text>
<text x="-93" y="45" font-size="11" text-anchor="end" fill="#666666" font-family="Verdana, sans-serif">Normal Execution Request</text>
<path d="M-5,118 L-5,128 L0,123 Z" fill="#BD8663" stroke="none" />
<text x="12" y="127" font-size="12" text-anchor="start" font-family="Consolas, monospace">IN</text>
<text x="-23" y="126" font-size="11" text-anchor="end" fill="#BD8663" font-style="italic" font-family="Verdana, sans-serif">STRING</text>
<path d="M200,37 L200,47 L205,42 Z" fill="#63B31F" stroke="none" />
<text x="188" y="46" font-size="12" text-anchor="end" font-family="Consolas, monospace">CNF</text>
<text x="223" y="45" font-size="11" text-anchor="start" fill="#888" font-style="italic" font-family="Verdana, sans-serif">Event</text>
<text x="293" y="45" font-size="11" text-anchor="start" fill="#666666" font-family="Verdana, sans-serif">Execution Confirmation</text>
<path d="M200,118 L200,128 L205,123 Z" fill="#82A3A9" stroke="none" />
<text x="188" y="127" font-size="12" text-anchor="end" font-family="Consolas, monospace">OUT</text>
<text x="223" y="126" font-size="11" text-anchor="start" fill="#82A3A9" font-style="italic" font-family="Verdana, sans-serif">WORD</text>
<path d="M-12,42 L-12,123" stroke="#404040" stroke-width="1" />
<path d="M0,42 L-12,42" stroke="#404040" />
<rect x="-14" y="40" width="4" height="4" fill="white" stroke="black" stroke-width="1" />
<path d="M-12,123 L-5,123" stroke="#404040" />
<rect x="-14" y="121" width="4" height="4" fill="white" stroke="black" stroke-width="1" />
<path d="M212,42 L212,123" stroke="#404040" stroke-width="1" />
<path d="M200,42 L212,42" stroke="#404040" />
<rect x="210" y="40" width="4" height="4" fill="white" stroke="black" stroke-width="1" />
<path d="M212,123 L205,123" stroke="#404040" />
<rect x="210" y="121" width="4" height="4" fill="white" stroke="black" stroke-width="1" />
</svg>