<?xml version="1.0" encoding="UTF-8"?>
<svg xmlns="http://www.w3.org/2000/svg" xmlns:xlink="http://www.w3.org/1999/xlink"
     width="1332" height="509" viewBox="-556 -20 1332 509">
<defs>
</defs>
<rect x="3" y="3" width="220" height="459" fill="#000000" fill-opacity="0.1" rx="2" ry="2" />
<path d="M0,0 H220 V170 H214 V210 H220 V459 H0 V210 H6 V170 H0 Z" fill="#ffffff" stroke="#000000" stroke-width="2" />
<path d="M0,30 L220,30" stroke="#000000" stroke-width="1" />
<text x="110.0" y="188.0" font-size="14" fontWeight="bold" font-family="Verdana, sans-serif" font-style="italic" text-anchor="middle" dominant-baseline="central">SchieberControl_AX</text>
<text x="110.0" y="202.0" font-size="10" fill="#000" font-family="Consolas, monospace" text-anchor="middle" dominant-baseline="central">1.0</text>
<path d="M-5,37 L-5,47 L0,42 Z" fill="#63B31F" stroke="none" />
<text x="12" y="46" font-size="12" text-anchor="start" font-family="Consolas, monospace">INIT</text>
<text x="-31" y="45" font-size="11" text-anchor="end" fill="#888" font-style="italic" font-family="Verdana, sans-serif">Event</text>
<text x="-161" y="45" font-size="11" text-anchor="end" fill="#666666" font-family="Verdana, sans-serif">Set all Values. Initialization Request. De-Init is</text>
<text x="-161" y="57" font-size="11" text-anchor="end" fill="#666666" font-family="Verdana, sans-serif">not  fully supported. </text>
<path d="M-5,63 L-5,73 L0,68 Z" fill="#63B31F" stroke="none" />
<text x="12" y="72" font-size="12" text-anchor="start" font-family="Consolas, monospace">Open</text>
<text x="-31" y="71" font-size="11" text-anchor="end" fill="#888" font-style="italic" font-family="Verdana, sans-serif">Event</text>
<text x="-161" y="71" font-size="11" text-anchor="end" fill="#666666" font-family="Verdana, sans-serif">Open</text>
<path d="M-5,89 L-5,99 L0,94 Z" fill="#63B31F" stroke="none" />
<text x="12" y="98" font-size="12" text-anchor="start" font-family="Consolas, monospace">Close</text>
<text x="-31" y="97" font-size="11" text-anchor="end" fill="#888" font-style="italic" font-family="Verdana, sans-serif">Event</text>
<text x="-161" y="97" font-size="11" text-anchor="end" fill="#666666" font-family="Verdana, sans-serif">Close</text>
<path d="M-5,115 L-5,125 L0,120 Z" fill="#63B31F" stroke="none" />
<text x="12" y="124" font-size="12" text-anchor="start" font-family="Consolas, monospace">RESET</text>
<text x="-31" y="123" font-size="11" text-anchor="end" fill="#888" font-style="italic" font-family="Verdana, sans-serif">Event</text>
<text x="-161" y="123" font-size="11" text-anchor="end" fill="#666666" font-family="Verdana, sans-serif">Reset to unknown State</text>
<path d="M-5,141 L-5,151 L0,146 Z" fill="#63B31F" stroke="none" />
<text x="12" y="150" font-size="12" text-anchor="start" font-family="Consolas, monospace">INPUT_DATA</text>
<text x="-31" y="149" font-size="11" text-anchor="end" fill="#888" font-style="italic" font-family="Verdana, sans-serif">Event</text>
<path d="M-5,222 L-5,232 L0,227 Z" fill="#9FA48A" stroke="none" />
<text x="12" y="231" font-size="12" text-anchor="start" font-family="Consolas, monospace">QI</text>
<text x="-31" y="230" font-size="11" text-anchor="end" fill="#9FA48A" font-style="italic" font-family="Verdana, sans-serif">BOOL</text>
<text x="-161" y="230" font-size="11" text-anchor="end" fill="#666666" font-family="Verdana, sans-serif">Input event qualifier</text>
<path d="M-5,248 L-5,258 L0,253 Z" fill="#000000" stroke="none" />
<text x="12" y="257" font-size="12" text-anchor="start" font-family="Consolas, monospace">BT</text>
<text x="-31" y="256" font-size="11" text-anchor="end" fill="#000000" font-style="italic" font-family="Verdana, sans-serif">SchieberStruct</text>
<text x="-161" y="256" font-size="11" text-anchor="end" fill="#666666" font-family="Verdana, sans-serif">Button</text>
<path d="M-5,274 L-5,284 L0,279 Z" fill="#000000" stroke="none" />
<text x="12" y="283" font-size="12" text-anchor="start" font-family="Consolas, monospace">SK</text>
<text x="-31" y="282" font-size="11" text-anchor="end" fill="#000000" font-style="italic" font-family="Verdana, sans-serif">SchieberStruct</text>
<text x="-161" y="282" font-size="11" text-anchor="end" fill="#666666" font-family="Verdana, sans-serif">SoftKey</text>
<path d="M-5,300 L-5,310 L0,305 Z" fill="#000000" stroke="none" />
<text x="12" y="309" font-size="12" text-anchor="start" font-family="Consolas, monospace">AUXC</text>
<text x="-31" y="308" font-size="11" text-anchor="end" fill="#000000" font-style="italic" font-family="Verdana, sans-serif">SchieberAuxInStruct</text>
<text x="-161" y="308" font-size="11" text-anchor="end" fill="#666666" font-family="Verdana, sans-serif">Auxiliary Control</text>
<path d="M-5,326 L-5,336 L0,331 Z" fill="#0000FF" stroke="none" />
<text x="12" y="335" font-size="12" text-anchor="start" font-family="Consolas, monospace">DT_Opening</text>
<text x="-31" y="334" font-size="11" text-anchor="end" fill="#0000FF" font-style="italic" font-family="Verdana, sans-serif">TIME</text>
<text x="-161" y="334" font-size="11" text-anchor="end" fill="#666666" font-family="Verdana, sans-serif">TIME Setting</text>
<path d="M-5,352 L-5,362 L0,357 Z" fill="#0000FF" stroke="none" />
<text x="12" y="361" font-size="12" text-anchor="start" font-family="Consolas, monospace">DT_Closing</text>
<text x="-31" y="360" font-size="11" text-anchor="end" fill="#0000FF" font-style="italic" font-family="Verdana, sans-serif">TIME</text>
<text x="-161" y="360" font-size="11" text-anchor="end" fill="#666666" font-family="Verdana, sans-serif">TIME Setting</text>
<path d="M-5,378 L-5,388 L0,383 Z" fill="#18519E" stroke="none" />
<text x="12" y="387" font-size="12" text-anchor="start" font-family="Consolas, monospace">START</text>
<text x="-31" y="386" font-size="11" text-anchor="end" fill="#18519E" font-style="italic" font-family="Verdana, sans-serif">UINT</text>
<path d="M220,37 L220,47 L225,42 Z" fill="#63B31F" stroke="none" />
<text x="208" y="46" font-size="12" text-anchor="end" font-family="Consolas, monospace">INITO</text>
<text x="251" y="45" font-size="11" text-anchor="start" fill="#888" font-style="italic" font-family="Verdana, sans-serif">Event</text>
<text x="321" y="45" font-size="11" text-anchor="start" fill="#666666" font-family="Verdana, sans-serif">All Values have been Set. Initialization Confirm.</text>
<path d="M220,63 L220,73 L225,68 Z" fill="#63B31F" stroke="none" />
<text x="208" y="72" font-size="12" text-anchor="end" font-family="Consolas, monospace">EO</text>
<text x="251" y="71" font-size="11" text-anchor="start" fill="#888" font-style="italic" font-family="Verdana, sans-serif">Event</text>
<path d="M220,89 L220,99 L225,94 Z" fill="#63B31F" stroke="none" />
<text x="208" y="98" font-size="12" text-anchor="end" font-family="Consolas, monospace">EO1</text>
<text x="251" y="97" font-size="11" text-anchor="start" fill="#888" font-style="italic" font-family="Verdana, sans-serif">Event</text>
<rect x="215.0" y="222.0" width="10" height="10" fill="#845DAF" stroke="none" />
<text x="208" y="231" font-size="12" text-anchor="end" font-family="Consolas, monospace">POWERED</text>
<text x="251" y="230" font-size="11" text-anchor="start" fill="#000" font-style="italic" font-family="Verdana, sans-serif">AX</text>
<text x="321" y="230" font-size="11" text-anchor="start" fill="#666666" font-family="Verdana, sans-serif">Actuate "Open" Valve for Pneumatic</text>
<rect x="215.0" y="248.0" width="10" height="10" fill="#845DAF" stroke="none" />
<text x="208" y="257" font-size="12" text-anchor="end" font-family="Consolas, monospace">OPEN</text>
<text x="251" y="256" font-size="11" text-anchor="start" fill="#000" font-style="italic" font-family="Verdana, sans-serif">AX</text>
<text x="321" y="256" font-size="11" text-anchor="start" fill="#666666" font-family="Verdana, sans-serif">Actuate "Open" Valve</text>
<rect x="215.0" y="274.0" width="10" height="10" fill="#845DAF" stroke="none" />
<text x="208" y="283" font-size="12" text-anchor="end" font-family="Consolas, monospace">CLOSE</text>
<text x="251" y="282" font-size="11" text-anchor="start" fill="#000" font-style="italic" font-family="Verdana, sans-serif">AX</text>
<text x="321" y="282" font-size="11" text-anchor="start" fill="#666666" font-family="Verdana, sans-serif">Actuate "Close" Valve</text>
<rect x="215.0" y="300.0" width="10" height="10" fill="#845DAF" stroke="none" />
<text x="208" y="309" font-size="12" text-anchor="end" font-family="Consolas, monospace">timeOut</text>
<text x="251" y="308" font-size="11" text-anchor="start" fill="#000" font-style="italic" font-family="Verdana, sans-serif">ATimeOut</text>
<text x="321" y="308" font-size="11" text-anchor="start" fill="#666666" font-family="Verdana, sans-serif">timeOut Adapter</text>
<path d="M220,326 L220,336 L225,331 Z" fill="#9FA48A" stroke="none" />
<text x="208" y="335" font-size="12" text-anchor="end" font-family="Consolas, monospace">QO</text>
<text x="251" y="334" font-size="11" text-anchor="start" fill="#9FA48A" font-style="italic" font-family="Verdana, sans-serif">BOOL</text>
<text x="321" y="334" font-size="11" text-anchor="start" fill="#666666" font-family="Verdana, sans-serif">Output event qualifier</text>
<path d="M220,352 L220,362 L225,357 Z" fill="#18519E" stroke="none" />
<text x="208" y="361" font-size="12" text-anchor="end" font-family="Consolas, monospace">Button</text>
<text x="251" y="360" font-size="11" text-anchor="start" fill="#18519E" font-style="italic" font-family="Verdana, sans-serif">UINT</text>
<text x="321" y="360" font-size="11" text-anchor="start" fill="#666666" font-family="Verdana, sans-serif">Button Out</text>
<path d="M220,378 L220,388 L225,383 Z" fill="#18519E" stroke="none" />
<text x="208" y="387" font-size="12" text-anchor="end" font-family="Consolas, monospace">Softkey</text>
<text x="251" y="386" font-size="11" text-anchor="start" fill="#18519E" font-style="italic" font-family="Verdana, sans-serif">UINT</text>
<text x="321" y="386" font-size="11" text-anchor="start" fill="#666666" font-family="Verdana, sans-serif">Softkey Out</text>
<path d="M220,404 L220,414 L225,409 Z" fill="#000000" stroke="none" />
<text x="208" y="413" font-size="12" text-anchor="end" font-family="Consolas, monospace">Auxiliary</text>
<text x="251" y="412" font-size="11" text-anchor="start" fill="#000000" font-style="italic" font-family="Verdana, sans-serif">SchieberAuxOutStruct</text>
<text x="321" y="412" font-size="11" text-anchor="start" fill="#666666" font-family="Verdana, sans-serif">Auxiliary Control Out</text>
<path d="M220,430 L220,440 L225,435 Z" fill="#BD8663" stroke="none" />
<text x="208" y="439" font-size="12" text-anchor="end" font-family="Consolas, monospace">STATE</text>
<text x="251" y="438" font-size="11" text-anchor="start" fill="#BD8663" font-style="italic" font-family="Verdana, sans-serif">STRING</text>
<path d="M-12,42 L-12,383" stroke="#404040" stroke-width="1" />
<path d="M0,42 L-12,42" stroke="#404040" />
<rect x="-14" y="40" width="4" height="4" fill="white" stroke="black" stroke-width="1" />
<path d="M-12,227 L-5,227" stroke="#404040" />
<rect x="-14" y="225" width="4" height="4" fill="white" stroke="black" stroke-width="1" />
<path d="M-12,331 L-5,331" stroke="#404040" />
<rect x="-14" y="329" width="4" height="4" fill="white" stroke="black" stroke-width="1" />
<path d="M-12,357 L-5,357" stroke="#404040" />
<rect x="-14" y="355" width="4" height="4" fill="white" stroke="black" stroke-width="1" />
<path d="M-12,383 L-5,383" stroke="#404040" />
<rect x="-14" y="381" width="4" height="4" fill="white" stroke="black" stroke-width="1" />
<path d="M-20,146 L-20,305" stroke="#404040" stroke-width="1" />
<path d="M0,146 L-20,146" stroke="#404040" />
<rect x="-22" y="144" width="4" height="4" fill="white" stroke="black" stroke-width="1" />
<path d="M-20,253 L-5,253" stroke="#404040" />
<rect x="-22" y="251" width="4" height="4" fill="white" stroke="black" stroke-width="1" />
<path d="M-20,279 L-5,279" stroke="#404040" />
<rect x="-22" y="277" width="4" height="4" fill="white" stroke="black" stroke-width="1" />
<path d="M-20,305 L-5,305" stroke="#404040" />
<rect x="-22" y="303" width="4" height="4" fill="white" stroke="black" stroke-width="1" />
<path d="M232,42 L232,331" stroke="#404040" stroke-width="1" />
<path d="M220,42 L232,42" stroke="#404040" />
<rect x="230" y="40" width="4" height="4" fill="white" stroke="black" stroke-width="1" />
<path d="M232,331 L225,331" stroke="#404040" />
<rect x="230" y="329" width="4" height="4" fill="white" stroke="black" stroke-width="1" />
<path d="M240,68 L240,435" stroke="#404040" stroke-width="1" />
<path d="M220,68 L240,68" stroke="#404040" />
<rect x="238" y="66" width="4" height="4" fill="white" stroke="black" stroke-width="1" />
<path d="M240,357 L225,357" stroke="#404040" />
<rect x="238" y="355" width="4" height="4" fill="white" stroke="black" stroke-width="1" />
<path d="M240,383 L225,383" stroke="#404040" />
<rect x="238" y="381" width="4" height="4" fill="white" stroke="black" stroke-width="1" />
<path d="M240,409 L225,409" stroke="#404040" />
<rect x="238" y="407" width="4" height="4" fill="white" stroke="black" stroke-width="1" />
<path d="M240,435 L225,435" stroke="#404040" />
<rect x="238" y="433" width="4" height="4" fill="white" stroke="black" stroke-width="1" />
</svg>