<?xml version="1.0" encoding="UTF-8"?>
<svg xmlns="http://www.w3.org/2000/svg" xmlns:xlink="http://www.w3.org/1999/xlink"
     width="1226" height="509" viewBox="-548 -20 1226 509">
<defs>
</defs>
<rect x="3" y="3" width="364" height="459" fill="#000000" fill-opacity="0.1" rx="2" ry="2" />
<path d="M0,0 H364 V118 H358 V158 H364 V459 H0 V158 H6 V118 H0 Z" fill="#ffffff" stroke="#000000" stroke-width="2" />
<path d="M0,30 L364,30" stroke="#000000" stroke-width="1" />
<text x="182.0" y="136.0" font-size="14" fontWeight="bold" font-family="Verdana, sans-serif" font-style="italic" text-anchor="middle" dominant-baseline="central">I_FHS</text>
<text x="182.0" y="150.0" font-size="10" fill="#000" font-family="Consolas, monospace" text-anchor="middle" dominant-baseline="central">1.0</text>
<path d="M-5,37 L-5,47 L0,42 Z" fill="#63B31F" stroke="none" />
<text x="12" y="46" font-size="12" text-anchor="start" font-family="Consolas, monospace">INIT</text>
<text x="-23" y="45" font-size="11" text-anchor="end" fill="#888" font-style="italic" font-family="Verdana, sans-serif">Event</text>
<text x="-93" y="45" font-size="11" text-anchor="end" fill="#666666" font-family="Verdana, sans-serif">Service Initialization</text>
<path d="M-5,170 L-5,180 L0,175 Z" fill="#9FA48A" stroke="none" />
<text x="12" y="179" font-size="12" text-anchor="start" font-family="Consolas, monospace">QI</text>
<text x="-23" y="178" font-size="11" text-anchor="end" fill="#9FA48A" font-style="italic" font-family="Verdana, sans-serif">BOOL</text>
<text x="-93" y="178" font-size="11" text-anchor="end" fill="#666666" font-family="Verdana, sans-serif">Event Input Qualifier</text>
<path d="M364,37 L364,47 L369,42 Z" fill="#63B31F" stroke="none" />
<text x="352" y="46" font-size="12" text-anchor="end" font-family="Consolas, monospace">INITO</text>
<text x="403" y="45" font-size="11" text-anchor="start" fill="#888" font-style="italic" font-family="Verdana, sans-serif">Event</text>
<text x="473" y="45" font-size="11" text-anchor="start" fill="#666666" font-family="Verdana, sans-serif">Initialization Confirm</text>
<path d="M364,63 L364,73 L369,68 Z" fill="#63B31F" stroke="none" />
<text x="352" y="72" font-size="12" text-anchor="end" font-family="Consolas, monospace">IND</text>
<text x="403" y="71" font-size="11" text-anchor="start" fill="#888" font-style="italic" font-family="Verdana, sans-serif">Event</text>
<text x="473" y="71" font-size="11" text-anchor="start" fill="#666666" font-family="Verdana, sans-serif">Indication from Resource</text>
<path d="M364,89 L364,99 L369,94 Z" fill="#63B31F" stroke="none" />
<text x="352" y="98" font-size="12" text-anchor="end" font-family="Consolas, monospace">TIMEOUT</text>
<text x="403" y="97" font-size="11" text-anchor="start" fill="#888" font-style="italic" font-family="Verdana, sans-serif">Event</text>
<path d="M364,170 L364,180 L369,175 Z" fill="#9FA48A" stroke="none" />
<text x="352" y="179" font-size="12" text-anchor="end" font-family="Consolas, monospace">QO</text>
<text x="403" y="178" font-size="11" text-anchor="start" fill="#9FA48A" font-style="italic" font-family="Verdana, sans-serif">BOOL</text>
<text x="473" y="178" font-size="11" text-anchor="start" fill="#666666" font-family="Verdana, sans-serif">Event Output Qualifier</text>
<path d="M364,196 L364,206 L369,201 Z" fill="#BD8663" stroke="none" />
<text x="352" y="205" font-size="12" text-anchor="end" font-family="Consolas, monospace">STATUS</text>
<text x="403" y="204" font-size="11" text-anchor="start" fill="#BD8663" font-style="italic" font-family="Verdana, sans-serif">STRING</text>
<text x="473" y="204" font-size="11" text-anchor="start" fill="#666666" font-family="Verdana, sans-serif">Service Status</text>
<path d="M364,222 L364,232 L369,227 Z" fill="#9FA48A" stroke="none" />
<text x="352" y="231" font-size="12" text-anchor="end" font-family="Consolas, monospace">Q_timeout</text>
<text x="403" y="230" font-size="11" text-anchor="start" fill="#9FA48A" font-style="italic" font-family="Verdana, sans-serif">BOOL</text>
<path d="M364,248 L364,258 L369,253 Z" fill="#18519E" stroke="none" />
<text x="352" y="257" font-size="12" text-anchor="end" font-family="Consolas, monospace">timestamp_timeout</text>
<text x="403" y="256" font-size="11" text-anchor="start" fill="#18519E" font-style="italic" font-family="Verdana, sans-serif">DINT</text>
<path d="M364,274 L364,284 L369,279 Z" fill="#18519E" stroke="none" />
<text x="352" y="283" font-size="12" text-anchor="end" font-family="Consolas, monospace">timestamp_data</text>
<text x="403" y="282" font-size="11" text-anchor="start" fill="#18519E" font-style="italic" font-family="Verdana, sans-serif">DINT</text>
<path d="M364,300 L364,310 L369,305 Z" fill="#18519E" stroke="none" />
<text x="352" y="309" font-size="12" text-anchor="end" font-family="Consolas, monospace">FRONT_HITCH_POSITION</text>
<text x="403" y="308" font-size="11" text-anchor="start" fill="#18519E" font-style="italic" font-family="Verdana, sans-serif">USINT</text>
<text x="473" y="308" font-size="11" text-anchor="start" fill="#666666" font-family="Verdana, sans-serif">Front Hitch Position (see Attributes for Details)</text>
<path d="M364,326 L364,336 L369,331 Z" fill="#82A3A9" stroke="none" />
<text x="352" y="335" font-size="12" text-anchor="end" font-family="Consolas, monospace">FRONT_HITCH_WORK_INDICATION</text>
<text x="403" y="334" font-size="11" text-anchor="start" fill="#82A3A9" font-style="italic" font-family="Verdana, sans-serif">BYTE</text>
<text x="473" y="334" font-size="11" text-anchor="start" fill="#666666" font-family="Verdana, sans-serif">Front Hitch In-work Indication</text>
<path d="M364,352 L364,362 L369,357 Z" fill="#82A3A9" stroke="none" />
<text x="352" y="361" font-size="12" text-anchor="end" font-family="Consolas, monospace">FRONT_HITCH_POS_LIMIT_STATUS</text>
<text x="403" y="360" font-size="11" text-anchor="start" fill="#82A3A9" font-style="italic" font-family="Verdana, sans-serif">BYTE</text>
<text x="473" y="360" font-size="11" text-anchor="start" fill="#666666" font-family="Verdana, sans-serif">Front Hitch Position Limit status</text>
<path d="M364,378 L364,388 L369,383 Z" fill="#18519E" stroke="none" />
<text x="352" y="387" font-size="12" text-anchor="end" font-family="Consolas, monospace">FRONT_HITCH_NOMINAL_LOWER_LINK_FORCE</text>
<text x="403" y="386" font-size="11" text-anchor="start" fill="#18519E" font-style="italic" font-family="Verdana, sans-serif">USINT</text>
<text x="473" y="386" font-size="11" text-anchor="start" fill="#666666" font-family="Verdana, sans-serif">Front Nominal Lower Link Force</text>
<path d="M364,404 L364,414 L369,409 Z" fill="#18519E" stroke="none" />
<text x="352" y="413" font-size="12" text-anchor="end" font-family="Consolas, monospace">FRONT_HITCH_DRAFT</text>
<text x="403" y="412" font-size="11" text-anchor="start" fill="#18519E" font-style="italic" font-family="Verdana, sans-serif">UINT</text>
<text x="473" y="412" font-size="11" text-anchor="start" fill="#666666" font-family="Verdana, sans-serif">Front Draft</text>
<path d="M364,430 L364,440 L369,435 Z" fill="#82A3A9" stroke="none" />
<text x="352" y="439" font-size="12" text-anchor="end" font-family="Consolas, monospace">FRONT_HITCH_EXIT_REASON_CODE</text>
<text x="403" y="438" font-size="11" text-anchor="start" fill="#82A3A9" font-style="italic" font-family="Verdana, sans-serif">BYTE</text>
<text x="473" y="438" font-size="11" text-anchor="start" fill="#666666" font-family="Verdana, sans-serif">Front hitch exit/reason code</text>
<path d="M-12,42 L-12,175" stroke="#404040" stroke-width="1" />
<path d="M0,42 L-12,42" stroke="#404040" />
<rect x="-14" y="40" width="4" height="4" fill="white" stroke="black" stroke-width="1" />
<path d="M-12,175 L-5,175" stroke="#404040" />
<rect x="-14" y="173" width="4" height="4" fill="white" stroke="black" stroke-width="1" />
<path d="M376,42 L376,201" stroke="#404040" stroke-width="1" />
<path d="M364,42 L376,42" stroke="#404040" />
<rect x="374" y="40" width="4" height="4" fill="white" stroke="black" stroke-width="1" />
<path d="M376,175 L369,175" stroke="#404040" />
<rect x="374" y="173" width="4" height="4" fill="white" stroke="black" stroke-width="1" />
<path d="M376,201 L369,201" stroke="#404040" />
<rect x="374" y="199" width="4" height="4" fill="white" stroke="black" stroke-width="1" />
<path d="M384,68 L384,435" stroke="#404040" stroke-width="1" />
<path d="M364,68 L384,68" stroke="#404040" />
<rect x="382" y="66" width="4" height="4" fill="white" stroke="black" stroke-width="1" />
<path d="M384,175 L369,175" stroke="#404040" />
<rect x="382" y="173" width="4" height="4" fill="white" stroke="black" stroke-width="1" />
<path d="M384,279 L369,279" stroke="#404040" />
<rect x="382" y="277" width="4" height="4" fill="white" stroke="black" stroke-width="1" />
<path d="M384,201 L369,201" stroke="#404040" />
<rect x="382" y="199" width="4" height="4" fill="white" stroke="black" stroke-width="1" />
<path d="M384,227 L369,227" stroke="#404040" />
<rect x="382" y="225" width="4" height="4" fill="white" stroke="black" stroke-width="1" />
<path d="M384,305 L369,305" stroke="#404040" />
<rect x="382" y="303" width="4" height="4" fill="white" stroke="black" stroke-width="1" />
<path d="M384,331 L369,331" stroke="#404040" />
<rect x="382" y="329" width="4" height="4" fill="white" stroke="black" stroke-width="1" />
<path d="M384,357 L369,357" stroke="#404040" />
<rect x="382" y="355" width="4" height="4" fill="white" stroke="black" stroke-width="1" />
<path d="M384,383 L369,383" stroke="#404040" />
<rect x="382" y="381" width="4" height="4" fill="white" stroke="black" stroke-width="1" />
<path d="M384,409 L369,409" stroke="#404040" />
<rect x="382" y="407" width="4" height="4" fill="white" stroke="black" stroke-width="1" />
<path d="M384,435 L369,435" stroke="#404040" />
<rect x="382" y="433" width="4" height="4" fill="white" stroke="black" stroke-width="1" />
<path d="M392,94 L392,253" stroke="#404040" stroke-width="1" />
<path d="M364,94 L392,94" stroke="#404040" />
<rect x="390" y="92" width="4" height="4" fill="white" stroke="black" stroke-width="1" />
<path d="M392,253 L369,253" stroke="#404040" />
<rect x="390" y="251" width="4" height="4" fill="white" stroke="black" stroke-width="1" />
<path d="M392,201 L369,201" stroke="#404040" />
<rect x="390" y="199" width="4" height="4" fill="white" stroke="black" stroke-width="1" />
<path d="M392,227 L369,227" stroke="#404040" />
<rect x="390" y="225" width="4" height="4" fill="white" stroke="black" stroke-width="1" />
</svg>