<?xml version="1.0" encoding="UTF-8"?>
<svg xmlns="http://www.w3.org/2000/svg" xmlns:xlink="http://www.w3.org/1999/xlink"
     width="1172" height="613" viewBox="-548 -20 1172 613">
<defs>
</defs>
<rect x="3" y="3" width="310" height="563" fill="#000000" fill-opacity="0.1" rx="2" ry="2" />
<path d="M0,0 H310 V118 H304 V158 H310 V563 H0 V158 H6 V118 H0 Z" fill="#ffffff" stroke="#000000" stroke-width="2" />
<path d="M0,30 L310,30" stroke="#000000" stroke-width="1" />
<text x="155.0" y="136.0" font-size="14" fontWeight="bold" font-family="Verdana, sans-serif" font-style="italic" text-anchor="middle" dominant-baseline="central">I_RPTO</text>
<text x="155.0" y="150.0" font-size="10" fill="#000" font-family="Consolas, monospace" text-anchor="middle" dominant-baseline="central">1.0</text>
<path d="M-5,37 L-5,47 L0,42 Z" fill="#63B31F" stroke="none" />
<text x="12" y="46" font-size="12" text-anchor="start" font-family="Consolas, monospace">INIT</text>
<text x="-23" y="45" font-size="11" text-anchor="end" fill="#888" font-style="italic" font-family="Verdana, sans-serif">Event</text>
<text x="-93" y="45" font-size="11" text-anchor="end" fill="#666666" font-family="Verdana, sans-serif">Service Initialization</text>
<path d="M-5,170 L-5,180 L0,175 Z" fill="#9FA48A" stroke="none" />
<text x="12" y="179" font-size="12" text-anchor="start" font-family="Consolas, monospace">QI</text>
<text x="-23" y="178" font-size="11" text-anchor="end" fill="#9FA48A" font-style="italic" font-family="Verdana, sans-serif">BOOL</text>
<text x="-93" y="178" font-size="11" text-anchor="end" fill="#666666" font-family="Verdana, sans-serif">Event Input Qualifier</text>
<path d="M310,37 L310,47 L315,42 Z" fill="#63B31F" stroke="none" />
<text x="298" y="46" font-size="12" text-anchor="end" font-family="Consolas, monospace">INITO</text>
<text x="349" y="45" font-size="11" text-anchor="start" fill="#888" font-style="italic" font-family="Verdana, sans-serif">Event</text>
<text x="419" y="45" font-size="11" text-anchor="start" fill="#666666" font-family="Verdana, sans-serif">Initialization Confirm</text>
<path d="M310,63 L310,73 L315,68 Z" fill="#63B31F" stroke="none" />
<text x="298" y="72" font-size="12" text-anchor="end" font-family="Consolas, monospace">IND</text>
<text x="349" y="71" font-size="11" text-anchor="start" fill="#888" font-style="italic" font-family="Verdana, sans-serif">Event</text>
<text x="419" y="71" font-size="11" text-anchor="start" fill="#666666" font-family="Verdana, sans-serif">Indication from Resource</text>
<path d="M310,89 L310,99 L315,94 Z" fill="#63B31F" stroke="none" />
<text x="298" y="98" font-size="12" text-anchor="end" font-family="Consolas, monospace">TIMEOUT</text>
<text x="349" y="97" font-size="11" text-anchor="start" fill="#888" font-style="italic" font-family="Verdana, sans-serif">Event</text>
<path d="M310,170 L310,180 L315,175 Z" fill="#9FA48A" stroke="none" />
<text x="298" y="179" font-size="12" text-anchor="end" font-family="Consolas, monospace">QO</text>
<text x="349" y="178" font-size="11" text-anchor="start" fill="#9FA48A" font-style="italic" font-family="Verdana, sans-serif">BOOL</text>
<text x="419" y="178" font-size="11" text-anchor="start" fill="#666666" font-family="Verdana, sans-serif">Event Output Qualifier</text>
<path d="M310,196 L310,206 L315,201 Z" fill="#BD8663" stroke="none" />
<text x="298" y="205" font-size="12" text-anchor="end" font-family="Consolas, monospace">STATUS</text>
<text x="349" y="204" font-size="11" text-anchor="start" fill="#BD8663" font-style="italic" font-family="Verdana, sans-serif">STRING</text>
<path d="M310,222 L310,232 L315,227 Z" fill="#9FA48A" stroke="none" />
<text x="298" y="231" font-size="12" text-anchor="end" font-family="Consolas, monospace">Q_timeout</text>
<text x="349" y="230" font-size="11" text-anchor="start" fill="#9FA48A" font-style="italic" font-family="Verdana, sans-serif">BOOL</text>
<path d="M310,248 L310,258 L315,253 Z" fill="#18519E" stroke="none" />
<text x="298" y="257" font-size="12" text-anchor="end" font-family="Consolas, monospace">timestamp_timeout</text>
<text x="349" y="256" font-size="11" text-anchor="start" fill="#18519E" font-style="italic" font-family="Verdana, sans-serif">DINT</text>
<path d="M310,274 L310,284 L315,279 Z" fill="#18519E" stroke="none" />
<text x="298" y="283" font-size="12" text-anchor="end" font-family="Consolas, monospace">timestamp_data</text>
<text x="349" y="282" font-size="11" text-anchor="start" fill="#18519E" font-style="italic" font-family="Verdana, sans-serif">DINT</text>
<path d="M310,300 L310,310 L315,305 Z" fill="#18519E" stroke="none" />
<text x="298" y="309" font-size="12" text-anchor="end" font-family="Consolas, monospace">REAR_PTO_OUTP_SHAFT_SPEED</text>
<text x="349" y="308" font-size="11" text-anchor="start" fill="#18519E" font-style="italic" font-family="Verdana, sans-serif">UINT</text>
<text x="419" y="308" font-size="11" text-anchor="start" fill="#666666" font-family="Verdana, sans-serif">Rear PTO output shaft speed (see Attributes for Details)</text>
<path d="M310,326 L310,336 L315,331 Z" fill="#18519E" stroke="none" />
<text x="298" y="335" font-size="12" text-anchor="end" font-family="Consolas, monospace">REAR_PTO_OUTP_SH_SPEED_SET</text>
<text x="349" y="334" font-size="11" text-anchor="start" fill="#18519E" font-style="italic" font-family="Verdana, sans-serif">UINT</text>
<text x="419" y="334" font-size="11" text-anchor="start" fill="#666666" font-family="Verdana, sans-serif">Rear PTO Output Shaft Speed Set Point (see Attributes for Details)</text>
<path d="M310,352 L310,362 L315,357 Z" fill="#82A3A9" stroke="none" />
<text x="298" y="361" font-size="12" text-anchor="end" font-family="Consolas, monospace">REAR_PTO_ENGAGEMENT</text>
<text x="349" y="360" font-size="11" text-anchor="start" fill="#82A3A9" font-style="italic" font-family="Verdana, sans-serif">BYTE</text>
<text x="419" y="360" font-size="11" text-anchor="start" fill="#666666" font-family="Verdana, sans-serif">Rear Power Take Off Engagement (see Attributes for Details)</text>
<path d="M310,378 L310,388 L315,383 Z" fill="#82A3A9" stroke="none" />
<text x="298" y="387" font-size="12" text-anchor="end" font-family="Consolas, monospace">REAR_PTO_MODE</text>
<text x="349" y="386" font-size="11" text-anchor="start" fill="#82A3A9" font-style="italic" font-family="Verdana, sans-serif">BYTE</text>
<text x="419" y="386" font-size="11" text-anchor="start" fill="#666666" font-family="Verdana, sans-serif">Rear Power Take Off Mode (see Attributes for Details)</text>
<path d="M310,404 L310,414 L315,409 Z" fill="#82A3A9" stroke="none" />
<text x="298" y="413" font-size="12" text-anchor="end" font-family="Consolas, monospace">REAR_PTO_ECONOMY_MODE</text>
<text x="349" y="412" font-size="11" text-anchor="start" fill="#82A3A9" font-style="italic" font-family="Verdana, sans-serif">BYTE</text>
<text x="419" y="412" font-size="11" text-anchor="start" fill="#666666" font-family="Verdana, sans-serif">Rear Power Take Off Economy Mode (see Attributes for Details)</text>
<path d="M310,430 L310,440 L315,435 Z" fill="#82A3A9" stroke="none" />
<text x="298" y="439" font-size="12" text-anchor="end" font-family="Consolas, monospace">REAR_PTO_ENGAGEMENT_REQ</text>
<text x="349" y="438" font-size="11" text-anchor="start" fill="#82A3A9" font-style="italic" font-family="Verdana, sans-serif">BYTE</text>
<text x="419" y="438" font-size="11" text-anchor="start" fill="#666666" font-family="Verdana, sans-serif">Rear PTO engagement request status (see Attributes for Details)</text>
<path d="M310,456 L310,466 L315,461 Z" fill="#82A3A9" stroke="none" />
<text x="298" y="465" font-size="12" text-anchor="end" font-family="Consolas, monospace">REAR_PTO_MODE_REQ_STATUS</text>
<text x="349" y="464" font-size="11" text-anchor="start" fill="#82A3A9" font-style="italic" font-family="Verdana, sans-serif">BYTE</text>
<text x="419" y="464" font-size="11" text-anchor="start" fill="#666666" font-family="Verdana, sans-serif">Rear PTO mode request status (see Attributes for Details)</text>
<path d="M310,482 L310,492 L315,487 Z" fill="#82A3A9" stroke="none" />
<text x="298" y="491" font-size="12" text-anchor="end" font-family="Consolas, monospace">REAR_PTO_ECONOMY_MODE_REQ_STAT</text>
<text x="349" y="490" font-size="11" text-anchor="start" fill="#82A3A9" font-style="italic" font-family="Verdana, sans-serif">BYTE</text>
<text x="419" y="490" font-size="11" text-anchor="start" fill="#666666" font-family="Verdana, sans-serif">Rear PTO Economy mode request status (see Attributes for Details)</text>
<path d="M310,508 L310,518 L315,513 Z" fill="#82A3A9" stroke="none" />
<text x="298" y="517" font-size="12" text-anchor="end" font-family="Consolas, monospace">REAR_PTO_SH_SPEED_LIMIT_STAT</text>
<text x="349" y="516" font-size="11" text-anchor="start" fill="#82A3A9" font-style="italic" font-family="Verdana, sans-serif">BYTE</text>
<text x="419" y="516" font-size="11" text-anchor="start" fill="#666666" font-family="Verdana, sans-serif">Rear PTO shaft speed limit status (see Attributes for Details)</text>
<path d="M310,534 L310,544 L315,539 Z" fill="#82A3A9" stroke="none" />
<text x="298" y="543" font-size="12" text-anchor="end" font-family="Consolas, monospace">REAR_PTO_EXIT_REASON_CODE</text>
<text x="349" y="542" font-size="11" text-anchor="start" fill="#82A3A9" font-style="italic" font-family="Verdana, sans-serif">BYTE</text>
<text x="419" y="542" font-size="11" text-anchor="start" fill="#666666" font-family="Verdana, sans-serif">Rear PTO exit/reason code (see Attributes for Details)</text>
<path d="M-12,42 L-12,175" stroke="#404040" stroke-width="1" />
<path d="M0,42 L-12,42" stroke="#404040" />
<rect x="-14" y="40" width="4" height="4" fill="white" stroke="black" stroke-width="1" />
<path d="M-12,175 L-5,175" stroke="#404040" />
<rect x="-14" y="173" width="4" height="4" fill="white" stroke="black" stroke-width="1" />
<path d="M322,42 L322,201" stroke="#404040" stroke-width="1" />
<path d="M310,42 L322,42" stroke="#404040" />
<rect x="320" y="40" width="4" height="4" fill="white" stroke="black" stroke-width="1" />
<path d="M322,175 L315,175" stroke="#404040" />
<rect x="320" y="173" width="4" height="4" fill="white" stroke="black" stroke-width="1" />
<path d="M322,201 L315,201" stroke="#404040" />
<rect x="320" y="199" width="4" height="4" fill="white" stroke="black" stroke-width="1" />
<path d="M330,68 L330,539" stroke="#404040" stroke-width="1" />
<path d="M310,68 L330,68" stroke="#404040" />
<rect x="328" y="66" width="4" height="4" fill="white" stroke="black" stroke-width="1" />
<path d="M330,175 L315,175" stroke="#404040" />
<rect x="328" y="173" width="4" height="4" fill="white" stroke="black" stroke-width="1" />
<path d="M330,279 L315,279" stroke="#404040" />
<rect x="328" y="277" width="4" height="4" fill="white" stroke="black" stroke-width="1" />
<path d="M330,201 L315,201" stroke="#404040" />
<rect x="328" y="199" width="4" height="4" fill="white" stroke="black" stroke-width="1" />
<path d="M330,227 L315,227" stroke="#404040" />
<rect x="328" y="225" width="4" height="4" fill="white" stroke="black" stroke-width="1" />
<path d="M330,305 L315,305" stroke="#404040" />
<rect x="328" y="303" width="4" height="4" fill="white" stroke="black" stroke-width="1" />
<path d="M330,331 L315,331" stroke="#404040" />
<rect x="328" y="329" width="4" height="4" fill="white" stroke="black" stroke-width="1" />
<path d="M330,357 L315,357" stroke="#404040" />
<rect x="328" y="355" width="4" height="4" fill="white" stroke="black" stroke-width="1" />
<path d="M330,383 L315,383" stroke="#404040" />
<rect x="328" y="381" width="4" height="4" fill="white" stroke="black" stroke-width="1" />
<path d="M330,409 L315,409" stroke="#404040" />
<rect x="328" y="407" width="4" height="4" fill="white" stroke="black" stroke-width="1" />
<path d="M330,435 L315,435" stroke="#404040" />
<rect x="328" y="433" width="4" height="4" fill="white" stroke="black" stroke-width="1" />
<path d="M330,461 L315,461" stroke="#404040" />
<rect x="328" y="459" width="4" height="4" fill="white" stroke="black" stroke-width="1" />
<path d="M330,487 L315,487" stroke="#404040" />
<rect x="328" y="485" width="4" height="4" fill="white" stroke="black" stroke-width="1" />
<path d="M330,513 L315,513" stroke="#404040" />
<rect x="328" y="511" width="4" height="4" fill="white" stroke="black" stroke-width="1" />
<path d="M330,539 L315,539" stroke="#404040" />
<rect x="328" y="537" width="4" height="4" fill="white" stroke="black" stroke-width="1" />
<path d="M338,94 L338,253" stroke="#404040" stroke-width="1" />
<path d="M310,94 L338,94" stroke="#404040" />
<rect x="336" y="92" width="4" height="4" fill="white" stroke="black" stroke-width="1" />
<path d="M338,253 L315,253" stroke="#404040" />
<rect x="336" y="251" width="4" height="4" fill="white" stroke="black" stroke-width="1" />
<path d="M338,201 L315,201" stroke="#404040" />
<rect x="336" y="199" width="4" height="4" fill="white" stroke="black" stroke-width="1" />
<path d="M338,227 L315,227" stroke="#404040" />
<rect x="336" y="225" width="4" height="4" fill="white" stroke="black" stroke-width="1" />
</svg>