<?xml version="1.0" encoding="UTF-8"?>
<svg xmlns="http://www.w3.org/2000/svg" xmlns:xlink="http://www.w3.org/1999/xlink"
     width="1055" height="405" viewBox="-548 -20 1055 405">
<defs>
</defs>
<rect x="3" y="3" width="193" height="355" fill="#000000" fill-opacity="0.1" rx="2" ry="2" />
<path d="M0,0 H193 V118 H187 V158 H193 V355 H0 V158 H6 V118 H0 Z" fill="#ffffff" stroke="#606060" stroke-width="2" />
<path d="M0,30 L193,30" stroke="#606060" stroke-width="1" />
<text x="96.5" y="136.0" font-size="14" fontWeight="bold" font-family="Verdana, sans-serif" font-style="italic" text-anchor="middle" dominant-baseline="central">I_VP1</text>
<text x="96.5" y="150.0" font-size="10" fill="#000" font-family="Consolas, monospace" text-anchor="middle" dominant-baseline="central">1.0</text>
<path d="M-5,37 L-5,47 L0,42 Z" fill="#5cb85c" stroke="none" />
<text x="12" y="46" font-size="12" text-anchor="start" font-family="Consolas, monospace">INIT</text>
<text x="-23" y="45" font-size="11" text-anchor="end" fill="#888" font-style="italic" font-family="Verdana, sans-serif">Event</text>
<text x="-93" y="45" font-size="11" text-anchor="end" fill="#666666" font-family="Verdana, sans-serif">Service Initialization</text>
<path d="M-5,170 L-5,180 L0,175 Z" fill="#0066cc" stroke="none" />
<text x="12" y="179" font-size="12" text-anchor="start" font-family="Consolas, monospace">QI</text>
<text x="-23" y="178" font-size="11" text-anchor="end" fill="#0066cc" font-style="italic" font-family="Verdana, sans-serif">BOOL</text>
<text x="-93" y="178" font-size="11" text-anchor="end" fill="#666666" font-family="Verdana, sans-serif">Event Input Qualifier</text>
<path d="M193,37 L193,47 L198,42 Z" fill="#5cb85c" stroke="none" />
<text x="181" y="46" font-size="12" text-anchor="end" font-family="Consolas, monospace">INITO</text>
<text x="232" y="45" font-size="11" text-anchor="start" fill="#888" font-style="italic" font-family="Verdana, sans-serif">Event</text>
<text x="302" y="45" font-size="11" text-anchor="start" fill="#666666" font-family="Verdana, sans-serif">Initialization Confirm</text>
<path d="M193,63 L193,73 L198,68 Z" fill="#5cb85c" stroke="none" />
<text x="181" y="72" font-size="12" text-anchor="end" font-family="Consolas, monospace">IND</text>
<text x="232" y="71" font-size="11" text-anchor="start" fill="#888" font-style="italic" font-family="Verdana, sans-serif">Event</text>
<text x="302" y="71" font-size="11" text-anchor="start" fill="#666666" font-family="Verdana, sans-serif">Indication from Resource</text>
<path d="M193,89 L193,99 L198,94 Z" fill="#5cb85c" stroke="none" />
<text x="181" y="98" font-size="12" text-anchor="end" font-family="Consolas, monospace">TIMEOUT</text>
<text x="232" y="97" font-size="11" text-anchor="start" fill="#888" font-style="italic" font-family="Verdana, sans-serif">Event</text>
<path d="M193,170 L193,180 L198,175 Z" fill="#0066cc" stroke="none" />
<text x="181" y="179" font-size="12" text-anchor="end" font-family="Consolas, monospace">QO</text>
<text x="232" y="178" font-size="11" text-anchor="start" fill="#0066cc" font-style="italic" font-family="Verdana, sans-serif">BOOL</text>
<text x="302" y="178" font-size="11" text-anchor="start" fill="#666666" font-family="Verdana, sans-serif">Event Output Qualifier</text>
<path d="M193,196 L193,206 L198,201 Z" fill="#0066cc" stroke="none" />
<text x="181" y="205" font-size="12" text-anchor="end" font-family="Consolas, monospace">STATUS</text>
<text x="232" y="204" font-size="11" text-anchor="start" fill="#0066cc" font-style="italic" font-family="Verdana, sans-serif">STRING</text>
<path d="M193,222 L193,232 L198,227 Z" fill="#0066cc" stroke="none" />
<text x="181" y="231" font-size="12" text-anchor="end" font-family="Consolas, monospace">Q_timeout</text>
<text x="232" y="230" font-size="11" text-anchor="start" fill="#0066cc" font-style="italic" font-family="Verdana, sans-serif">BOOL</text>
<path d="M193,248 L193,258 L198,253 Z" fill="#0066cc" stroke="none" />
<text x="181" y="257" font-size="12" text-anchor="end" font-family="Consolas, monospace">timestamp_timeout</text>
<text x="232" y="256" font-size="11" text-anchor="start" fill="#0066cc" font-style="italic" font-family="Verdana, sans-serif">DINT</text>
<path d="M193,274 L193,284 L198,279 Z" fill="#0066cc" stroke="none" />
<text x="181" y="283" font-size="12" text-anchor="end" font-family="Consolas, monospace">timestamp_data</text>
<text x="232" y="282" font-size="11" text-anchor="start" fill="#0066cc" font-style="italic" font-family="Verdana, sans-serif">DINT</text>
<path d="M193,300 L193,310 L198,305 Z" fill="#0066cc" stroke="none" />
<text x="181" y="309" font-size="12" text-anchor="end" font-family="Consolas, monospace">Latitude</text>
<text x="232" y="308" font-size="11" text-anchor="start" fill="#0066cc" font-style="italic" font-family="Verdana, sans-serif">REAL</text>
<path d="M193,326 L193,336 L198,331 Z" fill="#0066cc" stroke="none" />
<text x="181" y="335" font-size="12" text-anchor="end" font-family="Consolas, monospace">Longitude</text>
<text x="232" y="334" font-size="11" text-anchor="start" fill="#0066cc" font-style="italic" font-family="Verdana, sans-serif">REAL</text>
<path d="M-12,42 L-12,175" stroke="#404040" stroke-width="1" />
<path d="M0,42 L-12,42" stroke="#404040" />
<rect x="-14" y="40" width="4" height="4" fill="white" stroke="black" stroke-width="1" />
<path d="M-12,175 L-5,175" stroke="#404040" />
<rect x="-14" y="173" width="4" height="4" fill="white" stroke="black" stroke-width="1" />
<path d="M205,42 L205,201" stroke="#404040" stroke-width="1" />
<path d="M193,42 L205,42" stroke="#404040" />
<rect x="203" y="40" width="4" height="4" fill="white" stroke="black" stroke-width="1" />
<path d="M205,175 L198,175" stroke="#404040" />
<rect x="203" y="173" width="4" height="4" fill="white" stroke="black" stroke-width="1" />
<path d="M205,201 L198,201" stroke="#404040" />
<rect x="203" y="199" width="4" height="4" fill="white" stroke="black" stroke-width="1" />
<path d="M213,68 L213,331" stroke="#404040" stroke-width="1" />
<path d="M193,68 L213,68" stroke="#404040" />
<rect x="211" y="66" width="4" height="4" fill="white" stroke="black" stroke-width="1" />
<path d="M213,175 L198,175" stroke="#404040" />
<rect x="211" y="173" width="4" height="4" fill="white" stroke="black" stroke-width="1" />
<path d="M213,279 L198,279" stroke="#404040" />
<rect x="211" y="277" width="4" height="4" fill="white" stroke="black" stroke-width="1" />
<path d="M213,305 L198,305" stroke="#404040" />
<rect x="211" y="303" width="4" height="4" fill="white" stroke="black" stroke-width="1" />
<path d="M213,331 L198,331" stroke="#404040" />
<rect x="211" y="329" width="4" height="4" fill="white" stroke="black" stroke-width="1" />
<path d="M213,201 L198,201" stroke="#404040" />
<rect x="211" y="199" width="4" height="4" fill="white" stroke="black" stroke-width="1" />
<path d="M213,227 L198,227" stroke="#404040" />
<rect x="211" y="225" width="4" height="4" fill="white" stroke="black" stroke-width="1" />
<path d="M221,94 L221,253" stroke="#404040" stroke-width="1" />
<path d="M193,94 L221,94" stroke="#404040" />
<rect x="219" y="92" width="4" height="4" fill="white" stroke="black" stroke-width="1" />
<path d="M221,253 L198,253" stroke="#404040" />
<rect x="219" y="251" width="4" height="4" fill="white" stroke="black" stroke-width="1" />
<path d="M221,201 L198,201" stroke="#404040" />
<rect x="219" y="199" width="4" height="4" fill="white" stroke="black" stroke-width="1" />
<path d="M221,227 L198,227" stroke="#404040" />
<rect x="219" y="225" width="4" height="4" fill="white" stroke="black" stroke-width="1" />
</svg>