<?xml version="1.0" encoding="UTF-8"?>
<svg xmlns="http://www.w3.org/2000/svg" xmlns:xlink="http://www.w3.org/1999/xlink"
     width="1226" height="327" viewBox="-548 -20 1226 327">

  <style>
    @font-face {
      font-family: "TGL";
      src: local("TGL 0-17_std"), local("TGL 0-17"), local("TGL 0-17 alt");
      font-style: normal;
      font-weight: normal;
    }
    @font-face {
      font-family: "TGL";
      src: local("TGL 0-16_std"), local("TGL 0-16");
      font-style: italic;
      font-weight: normal;
    }
  </style>
<defs>
    <filter id="dropShadow" x="-20%" y="-20%" width="140%" height="140%">
      <feGaussianBlur in="SourceAlpha" stdDeviation="3" result="blur"/>
      <feOffset in="blur" dx="1" dy="1" result="offsetBlur"/>
      <feFlood flood-color="#000000" flood-opacity="0.5" result="shadowColor"/>
      <feComposite in="shadowColor" in2="offsetBlur" operator="in" result="shadow"/>
      <feMerge>
        <feMergeNode in="shadow"/>
        <feMergeNode in="SourceGraphic"/>
      </feMerge>
    </filter>
  </defs>
<path d="M 3 0
            L 127 0
            A 3 3 0 0 1 130 3
            L 130 63
            A 3 3 0 0 1 127 66
            L 124 66
            L 124 106
            L 127 106
            A 3 3 0 0 1 130 109
            L 130 274
            A 3 3 0 0 1 127 277
            L 3 277
            A 3 3 0 0 1 0 274
            L 0 109
            A 3 3 0 0 1 3 106
            L 6 106
            L 6 66
            L 3 66
            A 3 3 0 0 1 0 63
            L 0 3
            A 3 3 0 0 1 3 0
            Z" fill="#FFFFFF" 
            stroke="#A0A0A0" stroke-width="1.5" 
            stroke-linejoin="round" filter="url(#dropShadow)"/>
<path d="M 38.5 77.0
            L 54.5 77.0
            A 1 1 0 0 1 55.5 78.0
            L 55.5 81.5
            L 53.5 81.5
            L 53.5 84.5
            L 55.5 84.5
            L 55.5 94.0
            A 1 1 0 0 1 54.5 95.0
            L 38.5 95.0
            A 1 1 0 0 1 37.5 94.0
            L 37.5 84.5
            L 39.5 84.5
            L 39.5 81.5
            L 37.5 81.5
            L 37.5 78.0
            A 1 1 0 0 1 38.5 77.0
            Z" fill="#87CEEB" stroke="#1565C0" stroke-width="1" />
<text x="46.5" y="91.0" font-size="12" font-weight="bold" font-family="TGL, 'Times New Roman', Times, serif" text-anchor="middle" dominant-baseline="central">Si</text>
<text x="60.5" y="91.0" font-size="14" font-family="TGL, 'Times New Roman', Times, serif" font-style="italic">OR_6</text>
<text x="65.0" y="106.0" font-size="12" fill="#666666" font-family="TGL, 'Times New Roman', Times, serif" text-anchor="middle" dominant-baseline="central">3.0</text>
<path d="M-5,37 L-5,47 L0,42 Z" fill="#63B31F" stroke="none" />
<text x="12" y="46" font-size="12" text-anchor="start" font-family="TGL, 'Times New Roman', Times, serif">REQ</text>
<text x="-23" y="45" font-size="11" text-anchor="end" fill="#888" font-style="italic" font-family="TGL, 'Times New Roman', Times, serif">Event</text>
<text x="-104" y="45" font-size="11" text-anchor="end" fill="#666666" font-family="TGL, 'Times New Roman', Times, serif">Normal Execution Request</text>
<path d="M-5,118 L-5,128 L0,123 Z" fill="#3366FF" stroke="none" />
<text x="12" y="127" font-size="12" text-anchor="start" font-family="TGL, 'Times New Roman', Times, serif">IN1</text>
<text x="-23" y="126" font-size="11" text-anchor="end" fill="#3366FF" font-style="italic" font-family="TGL, 'Times New Roman', Times, serif">ANY_BIT</text>
<text x="-104" y="126" font-size="11" text-anchor="end" fill="#666666" font-family="TGL, 'Times New Roman', Times, serif">OR input 1</text>
<path d="M-5,144 L-5,154 L0,149 Z" fill="#3366FF" stroke="none" />
<text x="12" y="153" font-size="12" text-anchor="start" font-family="TGL, 'Times New Roman', Times, serif">IN2</text>
<text x="-23" y="152" font-size="11" text-anchor="end" fill="#3366FF" font-style="italic" font-family="TGL, 'Times New Roman', Times, serif">ANY_BIT</text>
<text x="-104" y="152" font-size="11" text-anchor="end" fill="#666666" font-family="TGL, 'Times New Roman', Times, serif">OR input 2</text>
<path d="M-5,170 L-5,180 L0,175 Z" fill="#3366FF" stroke="none" />
<text x="12" y="179" font-size="12" text-anchor="start" font-family="TGL, 'Times New Roman', Times, serif">IN3</text>
<text x="-23" y="178" font-size="11" text-anchor="end" fill="#3366FF" font-style="italic" font-family="TGL, 'Times New Roman', Times, serif">ANY_BIT</text>
<text x="-104" y="178" font-size="11" text-anchor="end" fill="#666666" font-family="TGL, 'Times New Roman', Times, serif">OR input 3</text>
<path d="M-5,196 L-5,206 L0,201 Z" fill="#3366FF" stroke="none" />
<text x="12" y="205" font-size="12" text-anchor="start" font-family="TGL, 'Times New Roman', Times, serif">IN4</text>
<text x="-23" y="204" font-size="11" text-anchor="end" fill="#3366FF" font-style="italic" font-family="TGL, 'Times New Roman', Times, serif">ANY_BIT</text>
<text x="-104" y="204" font-size="11" text-anchor="end" fill="#666666" font-family="TGL, 'Times New Roman', Times, serif">OR input 4</text>
<path d="M-5,222 L-5,232 L0,227 Z" fill="#3366FF" stroke="none" />
<text x="12" y="231" font-size="12" text-anchor="start" font-family="TGL, 'Times New Roman', Times, serif">IN5</text>
<text x="-23" y="230" font-size="11" text-anchor="end" fill="#3366FF" font-style="italic" font-family="TGL, 'Times New Roman', Times, serif">ANY_BIT</text>
<text x="-104" y="230" font-size="11" text-anchor="end" fill="#666666" font-family="TGL, 'Times New Roman', Times, serif">OR input 5</text>
<path d="M-5,248 L-5,258 L0,253 Z" fill="#3366FF" stroke="none" />
<text x="12" y="257" font-size="12" text-anchor="start" font-family="TGL, 'Times New Roman', Times, serif">IN6</text>
<text x="-23" y="256" font-size="11" text-anchor="end" fill="#3366FF" font-style="italic" font-family="TGL, 'Times New Roman', Times, serif">ANY_BIT</text>
<text x="-104" y="256" font-size="11" text-anchor="end" fill="#666666" font-family="TGL, 'Times New Roman', Times, serif">OR input 6</text>
<path d="M130,37 L130,47 L135,42 Z" fill="#63B31F" stroke="none" />
<text x="118" y="46" font-size="12" text-anchor="end" font-family="TGL, 'Times New Roman', Times, serif">CNF</text>
<text x="153" y="45" font-size="11" text-anchor="start" fill="#888" font-style="italic" font-family="TGL, 'Times New Roman', Times, serif">Event</text>
<text x="223" y="45" font-size="11" text-anchor="start" fill="#666666" font-family="TGL, 'Times New Roman', Times, serif">Execution Confirmation</text>
<path d="M130,118 L130,128 L135,123 Z" fill="#3366FF" stroke="none" />
<text x="118" y="127" font-size="12" text-anchor="end" font-family="TGL, 'Times New Roman', Times, serif">OUT</text>
<text x="153" y="126" font-size="11" text-anchor="start" fill="#3366FF" font-style="italic" font-family="TGL, 'Times New Roman', Times, serif">ANY_BIT</text>
<text x="223" y="126" font-size="11" text-anchor="start" fill="#666666" font-family="TGL, 'Times New Roman', Times, serif">OR result</text>
<path d="M-12,42 L-12,253" stroke="#000000" stroke-width="1" />
<path d="M0,42 L-12,42" stroke="#000000" />
<rect x="-14" y="40" width="4" height="4" fill="white" stroke="black" stroke-width="1" />
<path d="M-12,123 L-5,123" stroke="#000000" />
<rect x="-14" y="121" width="4" height="4" fill="white" stroke="black" stroke-width="1" />
<path d="M-12,149 L-5,149" stroke="#000000" />
<rect x="-14" y="147" width="4" height="4" fill="white" stroke="black" stroke-width="1" />
<path d="M-12,175 L-5,175" stroke="#000000" />
<rect x="-14" y="173" width="4" height="4" fill="white" stroke="black" stroke-width="1" />
<path d="M-12,201 L-5,201" stroke="#000000" />
<rect x="-14" y="199" width="4" height="4" fill="white" stroke="black" stroke-width="1" />
<path d="M-12,227 L-5,227" stroke="#000000" />
<rect x="-14" y="225" width="4" height="4" fill="white" stroke="black" stroke-width="1" />
<path d="M-12,253 L-5,253" stroke="#000000" />
<rect x="-14" y="251" width="4" height="4" fill="white" stroke="black" stroke-width="1" />
<path d="M142,42 L142,123" stroke="#000000" stroke-width="1" />
<path d="M130,42 L142,42" stroke="#000000" />
<rect x="140" y="40" width="4" height="4" fill="white" stroke="black" stroke-width="1" />
<path d="M142,123 L135,123" stroke="#000000" />
<rect x="140" y="121" width="4" height="4" fill="white" stroke="black" stroke-width="1" />
</svg>