<?xml version="1.0" encoding="UTF-8"?>
<svg xmlns="http://www.w3.org/2000/svg" xmlns:xlink="http://www.w3.org/1999/xlink"
     width="1253" height="275" viewBox="-548 -20 1253 275">
<defs>
</defs>
<rect x="3" y="3" width="157" height="225" fill="#000000" fill-opacity="0.1" rx="2" ry="2" />
<path d="M0,0 H157 V66 H151 V106 H157 V225 H0 V106 H6 V66 H0 Z" fill="#ffffff" stroke="#000000" stroke-width="2" />
<path d="M0,30 L157,30" stroke="#000000" stroke-width="1" />
<text x="78.5" y="84.0" font-size="14" fontWeight="bold" font-family="Verdana, sans-serif" font-style="italic" text-anchor="middle" dominant-baseline="central">NVS_AR2</text>
<text x="78.5" y="98.0" font-size="10" fill="#000" font-family="Consolas, monospace" text-anchor="middle" dominant-baseline="central">1.0</text>
<path d="M-5,37 L-5,47 L0,42 Z" fill="#63B31F" stroke="none" />
<text x="12" y="46" font-size="12" text-anchor="start" font-family="Consolas, monospace">INIT</text>
<text x="-23" y="45" font-size="11" text-anchor="end" fill="#888" font-style="italic" font-family="Verdana, sans-serif">Event</text>
<text x="-153" y="45" font-size="11" text-anchor="end" fill="#666666" font-family="Verdana, sans-serif">Service Initialization</text>
<rect x="-5.0" y="118.0" width="10" height="10" fill="white" stroke="#845DAF" stroke-width="2.5" />
<text x="12" y="127" font-size="12" text-anchor="start" font-family="Consolas, monospace">VAL</text>
<text x="-23" y="126" font-size="11" text-anchor="end" fill="#000" font-style="italic" font-family="Verdana, sans-serif">AR2</text>
<text x="-153" y="126" font-size="11" text-anchor="end" fill="#666666" font-family="Verdana, sans-serif">Value</text>
<path d="M-5,144 L-5,154 L0,149 Z" fill="#9FA48A" stroke="none" />
<text x="12" y="153" font-size="12" text-anchor="start" font-family="Consolas, monospace">QI</text>
<text x="-23" y="152" font-size="11" text-anchor="end" fill="#9FA48A" font-style="italic" font-family="Verdana, sans-serif">BOOL</text>
<text x="-153" y="152" font-size="11" text-anchor="end" fill="#666666" font-family="Verdana, sans-serif">Event Input Qualifier</text>
<path d="M-5,170 L-5,180 L0,175 Z" fill="#BD8663" stroke="none" />
<text x="12" y="179" font-size="12" text-anchor="start" font-family="Consolas, monospace">KEY</text>
<text x="-23" y="178" font-size="11" text-anchor="end" fill="#BD8663" font-style="italic" font-family="Verdana, sans-serif">STRING</text>
<text x="-153" y="178" font-size="11" text-anchor="end" fill="#666666" font-family="Verdana, sans-serif">Key name.</text>
<path d="M-5,196 L-5,206 L0,201 Z" fill="#DBB418" stroke="none" />
<text x="12" y="205" font-size="12" text-anchor="start" font-family="Consolas, monospace">DEFAULT_VALUE</text>
<text x="-23" y="204" font-size="11" text-anchor="end" fill="#DBB418" font-style="italic" font-family="Verdana, sans-serif">REAL</text>
<text x="-153" y="204" font-size="11" text-anchor="end" fill="#666666" font-family="Verdana, sans-serif">The value to read if there is nothing in the NVS</text>
<path d="M157,37 L157,47 L162,42 Z" fill="#63B31F" stroke="none" />
<text x="145" y="46" font-size="12" text-anchor="end" font-family="Consolas, monospace">INITO</text>
<text x="180" y="45" font-size="11" text-anchor="start" fill="#888" font-style="italic" font-family="Verdana, sans-serif">Event</text>
<text x="250" y="45" font-size="11" text-anchor="start" fill="#666666" font-family="Verdana, sans-serif">Initialization Confirm</text>
<path d="M157,118 L157,128 L162,123 Z" fill="#9FA48A" stroke="none" />
<text x="145" y="127" font-size="12" text-anchor="end" font-family="Consolas, monospace">QO</text>
<text x="180" y="126" font-size="11" text-anchor="start" fill="#9FA48A" font-style="italic" font-family="Verdana, sans-serif">BOOL</text>
<text x="250" y="126" font-size="11" text-anchor="start" fill="#666666" font-family="Verdana, sans-serif">Event Output Qualifier</text>
<path d="M157,144 L157,154 L162,149 Z" fill="#BD8663" stroke="none" />
<text x="145" y="153" font-size="12" text-anchor="end" font-family="Consolas, monospace">STATUS</text>
<text x="180" y="152" font-size="11" text-anchor="start" fill="#BD8663" font-style="italic" font-family="Verdana, sans-serif">STRING</text>
<text x="250" y="152" font-size="11" text-anchor="start" fill="#666666" font-family="Verdana, sans-serif">Service Status</text>
<path d="M-12,42 L-12,201" stroke="#404040" stroke-width="1" />
<path d="M0,42 L-12,42" stroke="#404040" />
<rect x="-14" y="40" width="4" height="4" fill="white" stroke="black" stroke-width="1" />
<path d="M-12,149 L-5,149" stroke="#404040" />
<rect x="-14" y="147" width="4" height="4" fill="white" stroke="black" stroke-width="1" />
<path d="M-12,175 L-5,175" stroke="#404040" />
<rect x="-14" y="173" width="4" height="4" fill="white" stroke="black" stroke-width="1" />
<path d="M-12,201 L-5,201" stroke="#404040" />
<rect x="-14" y="199" width="4" height="4" fill="white" stroke="black" stroke-width="1" />
<path d="M169,42 L169,149" stroke="#404040" stroke-width="1" />
<path d="M157,42 L169,42" stroke="#404040" />
<rect x="167" y="40" width="4" height="4" fill="white" stroke="black" stroke-width="1" />
<path d="M169,123 L162,123" stroke="#404040" />
<rect x="167" y="121" width="4" height="4" fill="white" stroke="black" stroke-width="1" />
<path d="M169,149 L162,149" stroke="#404040" />
<rect x="167" y="147" width="4" height="4" fill="white" stroke="black" stroke-width="1" />
</svg>