<?xml version="1.0" encoding="UTF-8"?>
<svg xmlns="http://www.w3.org/2000/svg" xmlns:xlink="http://www.w3.org/1999/xlink"
     width="1116" height="197" viewBox="-548 -20 1116 197">
<defs>
</defs>
<rect x="3" y="3" width="270" height="147" fill="#000000" fill-opacity="0.1" rx="2" ry="2" />
<path d="M0,0 H270 V66 H264 V106 H270 V147 H0 V106 H6 V66 H0 Z" fill="#ffffff" stroke="#606060" stroke-width="2" />
<path d="M0,30 L270,30" stroke="#606060" stroke-width="1" />
<text x="135.0" y="84.0" font-size="14" fontWeight="bold" font-family="Verdana, sans-serif" font-style="italic" text-anchor="middle" dominant-baseline="central">QUARTER_TO_STR_MEASURED</text>
<text x="135.0" y="98.0" font-size="10" fill="#000" font-family="Consolas, monospace" text-anchor="middle" dominant-baseline="central">1.0</text>
<path d="M-5,37 L-5,47 L0,42 Z" fill="#5cb85c" stroke="none" />
<text x="12" y="46" font-size="12" text-anchor="start" font-family="Consolas, monospace">REQ</text>
<text x="-23" y="45" font-size="11" text-anchor="end" fill="#888" font-style="italic" font-family="Verdana, sans-serif">Event</text>
<text x="-93" y="45" font-size="11" text-anchor="end" fill="#666666" font-family="Verdana, sans-serif">Normal Execution Request</text>
<path d="M-5,118 L-5,128 L0,123 Z" fill="#0066cc" stroke="none" />
<text x="12" y="127" font-size="12" text-anchor="start" font-family="Consolas, monospace">IB</text>
<text x="-23" y="126" font-size="11" text-anchor="end" fill="#0066cc" font-style="italic" font-family="Verdana, sans-serif">BYTE</text>
<text x="-93" y="126" font-size="11" text-anchor="end" fill="#666666" font-family="Verdana, sans-serif">2bit (quarter Byte) Output with 4 States</text>
<path d="M270,37 L270,47 L275,42 Z" fill="#5cb85c" stroke="none" />
<text x="258" y="46" font-size="12" text-anchor="end" font-family="Consolas, monospace">CNF</text>
<text x="293" y="45" font-size="11" text-anchor="start" fill="#888" font-style="italic" font-family="Verdana, sans-serif">Event</text>
<text x="363" y="45" font-size="11" text-anchor="start" fill="#666666" font-family="Verdana, sans-serif">Execution Confirmation</text>
<path d="M270,118 L270,128 L275,123 Z" fill="#0066cc" stroke="none" />
<text x="258" y="127" font-size="12" text-anchor="end" font-family="Consolas, monospace">STR</text>
<text x="293" y="126" font-size="11" text-anchor="start" fill="#0066cc" font-style="italic" font-family="Verdana, sans-serif">STRING</text>
<text x="363" y="126" font-size="11" text-anchor="start" fill="#666666" font-family="Verdana, sans-serif">STRING Output</text>
<path d="M-12,42 L-12,123" stroke="#404040" stroke-width="1" />
<path d="M0,42 L-12,42" stroke="#404040" />
<rect x="-14" y="40" width="4" height="4" fill="white" stroke="black" stroke-width="1" />
<path d="M-12,123 L-5,123" stroke="#404040" />
<rect x="-14" y="121" width="4" height="4" fill="white" stroke="black" stroke-width="1" />
<path d="M282,42 L282,123" stroke="#404040" stroke-width="1" />
<path d="M270,42 L282,42" stroke="#404040" />
<rect x="280" y="40" width="4" height="4" fill="white" stroke="black" stroke-width="1" />
<path d="M282,123 L275,123" stroke="#404040" />
<rect x="280" y="121" width="4" height="4" fill="white" stroke="black" stroke-width="1" />
</svg>