<?xml version="1.0" encoding="UTF-8"?>
<svg xmlns="http://www.w3.org/2000/svg" xmlns:xlink="http://www.w3.org/1999/xlink"
     width="1006" height="301" viewBox="-548 -20 1006 301">
<defs>
</defs>
<rect x="3" y="3" width="160" height="251" fill="#000000" fill-opacity="0.1" rx="2" ry="2" />
<path d="M0,0 H160 V170 H154 V210 H160 V251 H0 V210 H6 V170 H0 Z" fill="#ffffff" stroke="#606060" stroke-width="2" />
<path d="M0,30 L160,30" stroke="#606060" stroke-width="1" />
<text x="80.0" y="188.0" font-size="14" fontWeight="bold" font-family="Verdana, sans-serif" font-style="italic" text-anchor="middle" dominant-baseline="central">QUARTER_TO_E</text>
<text x="80.0" y="202.0" font-size="10" fill="#000" font-family="Consolas, monospace" text-anchor="middle" dominant-baseline="central">1.0</text>
<path d="M-5,37 L-5,47 L0,42 Z" fill="#5cb85c" stroke="none" />
<text x="12" y="46" font-size="12" text-anchor="start" font-family="Consolas, monospace">REQ</text>
<text x="-23" y="45" font-size="11" text-anchor="end" fill="#888" font-style="italic" font-family="Verdana, sans-serif">Event</text>
<text x="-93" y="45" font-size="11" text-anchor="end" fill="#666666" font-family="Verdana, sans-serif">Normal Execution Request</text>
<path d="M-5,222 L-5,232 L0,227 Z" fill="#0066cc" stroke="none" />
<text x="12" y="231" font-size="12" text-anchor="start" font-family="Consolas, monospace">IB</text>
<text x="-23" y="230" font-size="11" text-anchor="end" fill="#0066cc" font-style="italic" font-family="Verdana, sans-serif">BYTE</text>
<text x="-93" y="230" font-size="11" text-anchor="end" fill="#666666" font-family="Verdana, sans-serif">2bit (quarter Byte) Output with 4 States</text>
<path d="M160,37 L160,47 L165,42 Z" fill="#5cb85c" stroke="none" />
<text x="148" y="46" font-size="12" text-anchor="end" font-family="Consolas, monospace">CNF</text>
<text x="183" y="45" font-size="11" text-anchor="start" fill="#888" font-style="italic" font-family="Verdana, sans-serif">Event</text>
<text x="253" y="45" font-size="11" text-anchor="start" fill="#666666" font-family="Verdana, sans-serif">Execution Confirmation</text>
<path d="M160,63 L160,73 L165,68 Z" fill="#5cb85c" stroke="none" />
<text x="148" y="72" font-size="12" text-anchor="end" font-family="Consolas, monospace">S</text>
<text x="183" y="71" font-size="11" text-anchor="start" fill="#888" font-style="italic" font-family="Verdana, sans-serif">Event</text>
<text x="253" y="71" font-size="11" text-anchor="start" fill="#666666" font-family="Verdana, sans-serif">Enabled (on, active, etc.)</text>
<path d="M160,89 L160,99 L165,94 Z" fill="#5cb85c" stroke="none" />
<text x="148" y="98" font-size="12" text-anchor="end" font-family="Consolas, monospace">R</text>
<text x="183" y="97" font-size="11" text-anchor="start" fill="#888" font-style="italic" font-family="Verdana, sans-serif">Event</text>
<text x="253" y="97" font-size="11" text-anchor="start" fill="#666666" font-family="Verdana, sans-serif">Disabled (off, passive, etc.)</text>
<path d="M160,115 L160,125 L165,120 Z" fill="#5cb85c" stroke="none" />
<text x="148" y="124" font-size="12" text-anchor="end" font-family="Consolas, monospace">ERR</text>
<text x="183" y="123" font-size="11" text-anchor="start" fill="#888" font-style="italic" font-family="Verdana, sans-serif">Event</text>
<text x="253" y="123" font-size="11" text-anchor="start" fill="#666666" font-family="Verdana, sans-serif">Error indicator</text>
<path d="M160,141 L160,151 L165,146 Z" fill="#5cb85c" stroke="none" />
<text x="148" y="150" font-size="12" text-anchor="end" font-family="Consolas, monospace">NONE</text>
<text x="183" y="149" font-size="11" text-anchor="start" fill="#888" font-style="italic" font-family="Verdana, sans-serif">Event</text>
<text x="253" y="149" font-size="11" text-anchor="start" fill="#666666" font-family="Verdana, sans-serif">Not available or not installed</text>
<path d="M160,222 L160,232 L165,227 Z" fill="#0066cc" stroke="none" />
<text x="148" y="231" font-size="12" text-anchor="end" font-family="Consolas, monospace">Q</text>
<text x="183" y="230" font-size="11" text-anchor="start" fill="#0066cc" font-style="italic" font-family="Verdana, sans-serif">BOOL</text>
<text x="253" y="230" font-size="11" text-anchor="start" fill="#666666" font-family="Verdana, sans-serif">BOOL Output</text>
<path d="M-12,42 L-12,227" stroke="#404040" stroke-width="1" />
<path d="M0,42 L-12,42" stroke="#404040" />
<rect x="-14" y="40" width="4" height="4" fill="white" stroke="black" stroke-width="1" />
<path d="M-12,227 L-5,227" stroke="#404040" />
<rect x="-14" y="225" width="4" height="4" fill="white" stroke="black" stroke-width="1" />
<path d="M172,42 L172,227" stroke="#404040" stroke-width="1" />
<path d="M160,42 L172,42" stroke="#404040" />
<rect x="170" y="40" width="4" height="4" fill="white" stroke="black" stroke-width="1" />
<path d="M172,227 L165,227" stroke="#404040" />
<rect x="170" y="225" width="4" height="4" fill="white" stroke="black" stroke-width="1" />
</svg>