<?xml version="1.0" encoding="UTF-8"?>
<svg xmlns="http://www.w3.org/2000/svg" xmlns:xlink="http://www.w3.org/1999/xlink"
     width="1356" height="379" viewBox="-548 -20 1356 379">
<defs>
</defs>
<rect x="3" y="3" width="260" height="329" fill="#000000" fill-opacity="0.1" rx="2" ry="2" />
<path d="M0,0 H260 V66 H254 V106 H260 V329 H0 V106 H6 V66 H0 Z" fill="#ffffff" stroke="#000000" stroke-width="2" />
<path d="M0,30 L260,30" stroke="#000000" stroke-width="1" />
<text x="130.0" y="84.0" font-size="14" fontWeight="bold" font-family="Verdana, sans-serif" font-style="italic" text-anchor="middle" dominant-baseline="central">SPLIT_MI_DO_S_Octal_SA</text>
<text x="130.0" y="98.0" font-size="10" fill="#000" font-family="Consolas, monospace" text-anchor="middle" dominant-baseline="central">1.0</text>
<path d="M-5,37 L-5,47 L0,42 Z" fill="#63B31F" stroke="none" />
<text x="12" y="46" font-size="12" text-anchor="start" font-family="Consolas, monospace">REQ</text>
<text x="-23" y="45" font-size="11" text-anchor="end" fill="#888" font-style="italic" font-family="Verdana, sans-serif">Event</text>
<text x="-119" y="45" font-size="11" text-anchor="end" fill="#666666" font-family="Verdana, sans-serif">Service Request</text>
<path d="M-5,118 L-5,128 L0,123 Z" fill="#000000" stroke="none" />
<text x="12" y="127" font-size="12" text-anchor="start" font-family="Consolas, monospace">IN</text>
<text x="-23" y="126" font-size="11" text-anchor="end" fill="#000000" font-style="italic" font-family="Verdana, sans-serif">DataPanel_MI_DO_S_Octal_SA</text>
<text x="-119" y="126" font-size="11" text-anchor="end" fill="#666666" font-family="Verdana, sans-serif">Octal Input</text>
<path d="M260,37 L260,47 L265,42 Z" fill="#63B31F" stroke="none" />
<text x="248" y="46" font-size="12" text-anchor="end" font-family="Consolas, monospace">CNF</text>
<text x="283" y="45" font-size="11" text-anchor="start" fill="#888" font-style="italic" font-family="Verdana, sans-serif">Event</text>
<text x="353" y="45" font-size="11" text-anchor="start" fill="#666666" font-family="Verdana, sans-serif">Confirmation of Requested Service</text>
<path d="M260,118 L260,128 L265,123 Z" fill="#000000" stroke="none" />
<text x="248" y="127" font-size="12" text-anchor="end" font-family="Consolas, monospace">OUT1</text>
<text x="283" y="126" font-size="11" text-anchor="start" fill="#000000" font-style="italic" font-family="Verdana, sans-serif">DataPanel_MI_DO_S_Single_SA</text>
<text x="353" y="126" font-size="11" text-anchor="start" fill="#666666" font-family="Verdana, sans-serif">Single Output 1</text>
<path d="M260,144 L260,154 L265,149 Z" fill="#000000" stroke="none" />
<text x="248" y="153" font-size="12" text-anchor="end" font-family="Consolas, monospace">OUT2</text>
<text x="283" y="152" font-size="11" text-anchor="start" fill="#000000" font-style="italic" font-family="Verdana, sans-serif">DataPanel_MI_DO_S_Single_SA</text>
<text x="353" y="152" font-size="11" text-anchor="start" fill="#666666" font-family="Verdana, sans-serif">Single Output 2</text>
<path d="M260,170 L260,180 L265,175 Z" fill="#000000" stroke="none" />
<text x="248" y="179" font-size="12" text-anchor="end" font-family="Consolas, monospace">OUT3</text>
<text x="283" y="178" font-size="11" text-anchor="start" fill="#000000" font-style="italic" font-family="Verdana, sans-serif">DataPanel_MI_DO_S_Single_SA</text>
<text x="353" y="178" font-size="11" text-anchor="start" fill="#666666" font-family="Verdana, sans-serif">Single Output 3</text>
<path d="M260,196 L260,206 L265,201 Z" fill="#000000" stroke="none" />
<text x="248" y="205" font-size="12" text-anchor="end" font-family="Consolas, monospace">OUT4</text>
<text x="283" y="204" font-size="11" text-anchor="start" fill="#000000" font-style="italic" font-family="Verdana, sans-serif">DataPanel_MI_DO_S_Single_SA</text>
<text x="353" y="204" font-size="11" text-anchor="start" fill="#666666" font-family="Verdana, sans-serif">Single Output 4</text>
<path d="M260,222 L260,232 L265,227 Z" fill="#000000" stroke="none" />
<text x="248" y="231" font-size="12" text-anchor="end" font-family="Consolas, monospace">OUT5</text>
<text x="283" y="230" font-size="11" text-anchor="start" fill="#000000" font-style="italic" font-family="Verdana, sans-serif">DataPanel_MI_DO_S_Single_SA</text>
<text x="353" y="230" font-size="11" text-anchor="start" fill="#666666" font-family="Verdana, sans-serif">Single Output 5</text>
<path d="M260,248 L260,258 L265,253 Z" fill="#000000" stroke="none" />
<text x="248" y="257" font-size="12" text-anchor="end" font-family="Consolas, monospace">OUT6</text>
<text x="283" y="256" font-size="11" text-anchor="start" fill="#000000" font-style="italic" font-family="Verdana, sans-serif">DataPanel_MI_DO_S_Single_SA</text>
<text x="353" y="256" font-size="11" text-anchor="start" fill="#666666" font-family="Verdana, sans-serif">Single Output 6</text>
<path d="M260,274 L260,284 L265,279 Z" fill="#000000" stroke="none" />
<text x="248" y="283" font-size="12" text-anchor="end" font-family="Consolas, monospace">OUT7</text>
<text x="283" y="282" font-size="11" text-anchor="start" fill="#000000" font-style="italic" font-family="Verdana, sans-serif">DataPanel_MI_DO_S_Single_SA</text>
<text x="353" y="282" font-size="11" text-anchor="start" fill="#666666" font-family="Verdana, sans-serif">Single Output 7</text>
<path d="M260,300 L260,310 L265,305 Z" fill="#000000" stroke="none" />
<text x="248" y="309" font-size="12" text-anchor="end" font-family="Consolas, monospace">OUT8</text>
<text x="283" y="308" font-size="11" text-anchor="start" fill="#000000" font-style="italic" font-family="Verdana, sans-serif">DataPanel_MI_DO_S_Single_SA</text>
<text x="353" y="308" font-size="11" text-anchor="start" fill="#666666" font-family="Verdana, sans-serif">Single Output 8</text>
<path d="M-12,42 L-12,123" stroke="#404040" stroke-width="1" />
<path d="M0,42 L-12,42" stroke="#404040" />
<rect x="-14" y="40" width="4" height="4" fill="white" stroke="black" stroke-width="1" />
<path d="M-12,123 L-5,123" stroke="#404040" />
<rect x="-14" y="121" width="4" height="4" fill="white" stroke="black" stroke-width="1" />
<path d="M272,42 L272,305" stroke="#404040" stroke-width="1" />
<path d="M260,42 L272,42" stroke="#404040" />
<rect x="270" y="40" width="4" height="4" fill="white" stroke="black" stroke-width="1" />
<path d="M272,123 L265,123" stroke="#404040" />
<rect x="270" y="121" width="4" height="4" fill="white" stroke="black" stroke-width="1" />
<path d="M272,149 L265,149" stroke="#404040" />
<rect x="270" y="147" width="4" height="4" fill="white" stroke="black" stroke-width="1" />
<path d="M272,175 L265,175" stroke="#404040" />
<rect x="270" y="173" width="4" height="4" fill="white" stroke="black" stroke-width="1" />
<path d="M272,201 L265,201" stroke="#404040" />
<rect x="270" y="199" width="4" height="4" fill="white" stroke="black" stroke-width="1" />
<path d="M272,227 L265,227" stroke="#404040" />
<rect x="270" y="225" width="4" height="4" fill="white" stroke="black" stroke-width="1" />
<path d="M272,253 L265,253" stroke="#404040" />
<rect x="270" y="251" width="4" height="4" fill="white" stroke="black" stroke-width="1" />
<path d="M272,279 L265,279" stroke="#404040" />
<rect x="270" y="277" width="4" height="4" fill="white" stroke="black" stroke-width="1" />
<path d="M272,305 L265,305" stroke="#404040" />
<rect x="270" y="303" width="4" height="4" fill="white" stroke="black" stroke-width="1" />
</svg>