<?xml version="1.0" encoding="UTF-8"?>
<svg xmlns="http://www.w3.org/2000/svg" xmlns:xlink="http://www.w3.org/1999/xlink"
     width="976" height="587" viewBox="-548 -20 976 587">
<defs>
</defs>
<rect x="3" y="3" width="130" height="537" fill="#000000" fill-opacity="0.1" rx="2" ry="2" />
<path d="M0,0 H130 V66 H124 V106 H130 V537 H0 V106 H6 V66 H0 Z" fill="#ffffff" stroke="#000000" stroke-width="2" />
<path d="M0,30 L130,30" stroke="#000000" stroke-width="1" />
<text x="65.0" y="84.0" font-size="14" fontWeight="bold" font-family="Verdana, sans-serif" font-style="italic" text-anchor="middle" dominant-baseline="central">LOG_16</text>
<text x="65.0" y="98.0" font-size="10" fill="#000" font-family="Consolas, monospace" text-anchor="middle" dominant-baseline="central">1.0</text>
<path d="M-5,37 L-5,47 L0,42 Z" fill="#63B31F" stroke="none" />
<text x="12" y="46" font-size="12" text-anchor="start" font-family="Consolas, monospace">REQ</text>
<text x="-23" y="45" font-size="11" text-anchor="end" fill="#888" font-style="italic" font-family="Verdana, sans-serif">Event</text>
<text x="-93" y="45" font-size="11" text-anchor="end" fill="#666666" font-family="Verdana, sans-serif">Service Request</text>
<path d="M-5,118 L-5,128 L0,123 Z" fill="#000000" stroke="none" />
<text x="12" y="127" font-size="12" text-anchor="start" font-family="Consolas, monospace">IN</text>
<text x="-23" y="126" font-size="11" text-anchor="end" fill="#000000" font-style="italic" font-family="Verdana, sans-serif">ANY</text>
<path d="M130,37 L130,47 L135,42 Z" fill="#63B31F" stroke="none" />
<text x="118" y="46" font-size="12" text-anchor="end" font-family="Consolas, monospace">CNF</text>
<text x="153" y="45" font-size="11" text-anchor="start" fill="#888" font-style="italic" font-family="Verdana, sans-serif">Event</text>
<text x="223" y="45" font-size="11" text-anchor="start" fill="#666666" font-family="Verdana, sans-serif">Confirmation of Requested Service</text>
<path d="M130,118 L130,128 L135,123 Z" fill="#000000" stroke="none" />
<text x="118" y="127" font-size="12" text-anchor="end" font-family="Consolas, monospace">OUT1</text>
<text x="153" y="126" font-size="11" text-anchor="start" fill="#000000" font-style="italic" font-family="Verdana, sans-serif">ANY</text>
<path d="M130,144 L130,154 L135,149 Z" fill="#000000" stroke="none" />
<text x="118" y="153" font-size="12" text-anchor="end" font-family="Consolas, monospace">OUT2</text>
<text x="153" y="152" font-size="11" text-anchor="start" fill="#000000" font-style="italic" font-family="Verdana, sans-serif">ANY</text>
<path d="M130,170 L130,180 L135,175 Z" fill="#000000" stroke="none" />
<text x="118" y="179" font-size="12" text-anchor="end" font-family="Consolas, monospace">OUT3</text>
<text x="153" y="178" font-size="11" text-anchor="start" fill="#000000" font-style="italic" font-family="Verdana, sans-serif">ANY</text>
<path d="M130,196 L130,206 L135,201 Z" fill="#000000" stroke="none" />
<text x="118" y="205" font-size="12" text-anchor="end" font-family="Consolas, monospace">OUT4</text>
<text x="153" y="204" font-size="11" text-anchor="start" fill="#000000" font-style="italic" font-family="Verdana, sans-serif">ANY</text>
<path d="M130,222 L130,232 L135,227 Z" fill="#000000" stroke="none" />
<text x="118" y="231" font-size="12" text-anchor="end" font-family="Consolas, monospace">OUT5</text>
<text x="153" y="230" font-size="11" text-anchor="start" fill="#000000" font-style="italic" font-family="Verdana, sans-serif">ANY</text>
<path d="M130,248 L130,258 L135,253 Z" fill="#000000" stroke="none" />
<text x="118" y="257" font-size="12" text-anchor="end" font-family="Consolas, monospace">OUT6</text>
<text x="153" y="256" font-size="11" text-anchor="start" fill="#000000" font-style="italic" font-family="Verdana, sans-serif">ANY</text>
<path d="M130,274 L130,284 L135,279 Z" fill="#000000" stroke="none" />
<text x="118" y="283" font-size="12" text-anchor="end" font-family="Consolas, monospace">OUT7</text>
<text x="153" y="282" font-size="11" text-anchor="start" fill="#000000" font-style="italic" font-family="Verdana, sans-serif">ANY</text>
<path d="M130,300 L130,310 L135,305 Z" fill="#000000" stroke="none" />
<text x="118" y="309" font-size="12" text-anchor="end" font-family="Consolas, monospace">OUT8</text>
<text x="153" y="308" font-size="11" text-anchor="start" fill="#000000" font-style="italic" font-family="Verdana, sans-serif">ANY</text>
<path d="M130,326 L130,336 L135,331 Z" fill="#000000" stroke="none" />
<text x="118" y="335" font-size="12" text-anchor="end" font-family="Consolas, monospace">OUT9</text>
<text x="153" y="334" font-size="11" text-anchor="start" fill="#000000" font-style="italic" font-family="Verdana, sans-serif">ANY</text>
<path d="M130,352 L130,362 L135,357 Z" fill="#000000" stroke="none" />
<text x="118" y="361" font-size="12" text-anchor="end" font-family="Consolas, monospace">OUT10</text>
<text x="153" y="360" font-size="11" text-anchor="start" fill="#000000" font-style="italic" font-family="Verdana, sans-serif">ANY</text>
<path d="M130,378 L130,388 L135,383 Z" fill="#000000" stroke="none" />
<text x="118" y="387" font-size="12" text-anchor="end" font-family="Consolas, monospace">OUT11</text>
<text x="153" y="386" font-size="11" text-anchor="start" fill="#000000" font-style="italic" font-family="Verdana, sans-serif">ANY</text>
<path d="M130,404 L130,414 L135,409 Z" fill="#000000" stroke="none" />
<text x="118" y="413" font-size="12" text-anchor="end" font-family="Consolas, monospace">OUT12</text>
<text x="153" y="412" font-size="11" text-anchor="start" fill="#000000" font-style="italic" font-family="Verdana, sans-serif">ANY</text>
<path d="M130,430 L130,440 L135,435 Z" fill="#000000" stroke="none" />
<text x="118" y="439" font-size="12" text-anchor="end" font-family="Consolas, monospace">OUT13</text>
<text x="153" y="438" font-size="11" text-anchor="start" fill="#000000" font-style="italic" font-family="Verdana, sans-serif">ANY</text>
<path d="M130,456 L130,466 L135,461 Z" fill="#000000" stroke="none" />
<text x="118" y="465" font-size="12" text-anchor="end" font-family="Consolas, monospace">OUT14</text>
<text x="153" y="464" font-size="11" text-anchor="start" fill="#000000" font-style="italic" font-family="Verdana, sans-serif">ANY</text>
<path d="M130,482 L130,492 L135,487 Z" fill="#000000" stroke="none" />
<text x="118" y="491" font-size="12" text-anchor="end" font-family="Consolas, monospace">OUT15</text>
<text x="153" y="490" font-size="11" text-anchor="start" fill="#000000" font-style="italic" font-family="Verdana, sans-serif">ANY</text>
<path d="M130,508 L130,518 L135,513 Z" fill="#000000" stroke="none" />
<text x="118" y="517" font-size="12" text-anchor="end" font-family="Consolas, monospace">OUT16</text>
<text x="153" y="516" font-size="11" text-anchor="start" fill="#000000" font-style="italic" font-family="Verdana, sans-serif">ANY</text>
<path d="M-12,42 L-12,123" stroke="#404040" stroke-width="1" />
<path d="M0,42 L-12,42" stroke="#404040" />
<rect x="-14" y="40" width="4" height="4" fill="white" stroke="black" stroke-width="1" />
<path d="M-12,123 L-5,123" stroke="#404040" />
<rect x="-14" y="121" width="4" height="4" fill="white" stroke="black" stroke-width="1" />
<path d="M142,42 L142,513" stroke="#404040" stroke-width="1" />
<path d="M130,42 L142,42" stroke="#404040" />
<rect x="140" y="40" width="4" height="4" fill="white" stroke="black" stroke-width="1" />
<path d="M142,123 L135,123" stroke="#404040" />
<rect x="140" y="121" width="4" height="4" fill="white" stroke="black" stroke-width="1" />
<path d="M142,149 L135,149" stroke="#404040" />
<rect x="140" y="147" width="4" height="4" fill="white" stroke="black" stroke-width="1" />
<path d="M142,175 L135,175" stroke="#404040" />
<rect x="140" y="173" width="4" height="4" fill="white" stroke="black" stroke-width="1" />
<path d="M142,201 L135,201" stroke="#404040" />
<rect x="140" y="199" width="4" height="4" fill="white" stroke="black" stroke-width="1" />
<path d="M142,227 L135,227" stroke="#404040" />
<rect x="140" y="225" width="4" height="4" fill="white" stroke="black" stroke-width="1" />
<path d="M142,253 L135,253" stroke="#404040" />
<rect x="140" y="251" width="4" height="4" fill="white" stroke="black" stroke-width="1" />
<path d="M142,279 L135,279" stroke="#404040" />
<rect x="140" y="277" width="4" height="4" fill="white" stroke="black" stroke-width="1" />
<path d="M142,305 L135,305" stroke="#404040" />
<rect x="140" y="303" width="4" height="4" fill="white" stroke="black" stroke-width="1" />
<path d="M142,331 L135,331" stroke="#404040" />
<rect x="140" y="329" width="4" height="4" fill="white" stroke="black" stroke-width="1" />
<path d="M142,357 L135,357" stroke="#404040" />
<rect x="140" y="355" width="4" height="4" fill="white" stroke="black" stroke-width="1" />
<path d="M142,383 L135,383" stroke="#404040" />
<rect x="140" y="381" width="4" height="4" fill="white" stroke="black" stroke-width="1" />
<path d="M142,409 L135,409" stroke="#404040" />
<rect x="140" y="407" width="4" height="4" fill="white" stroke="black" stroke-width="1" />
<path d="M142,435 L135,435" stroke="#404040" />
<rect x="140" y="433" width="4" height="4" fill="white" stroke="black" stroke-width="1" />
<path d="M142,461 L135,461" stroke="#404040" />
<rect x="140" y="459" width="4" height="4" fill="white" stroke="black" stroke-width="1" />
<path d="M142,487 L135,487" stroke="#404040" />
<rect x="140" y="485" width="4" height="4" fill="white" stroke="black" stroke-width="1" />
<path d="M142,513 L135,513" stroke="#404040" />
<rect x="140" y="511" width="4" height="4" fill="white" stroke="black" stroke-width="1" />
</svg>