<?xml version="1.0" encoding="UTF-8"?>
<svg xmlns="http://www.w3.org/2000/svg" xmlns:xlink="http://www.w3.org/1999/xlink"
     width="1318" height="275" viewBox="-540 -20 1318 275">

  <style>
    @font-face {
      font-family: "TGL";
      src: local("TGL 0-17_std"), local("TGL 0-17"), local("TGL 0-17 alt");
      font-style: normal;
      font-weight: normal;
    }
    @font-face {
      font-family: "TGL";
      src: local("TGL 0-16_std"), local("TGL 0-16");
      font-style: italic;
      font-weight: normal;
    }
  </style>
<defs>
    <filter id="dropShadow" x="-20%" y="-20%" width="140%" height="140%">
      <feGaussianBlur in="SourceAlpha" stdDeviation="3" result="blur"/>
      <feOffset in="blur" dx="1" dy="1" result="offsetBlur"/>
      <feFlood flood-color="#000000" flood-opacity="0.5" result="shadowColor"/>
      <feComposite in="shadowColor" in2="offsetBlur" operator="in" result="shadow"/>
      <feMerge>
        <feMergeNode in="shadow"/>
        <feMergeNode in="SourceGraphic"/>
      </feMerge>
    </filter>
  </defs>
<path d="M 3 0
            L 227 0
            A 3 3 0 0 1 230 3
            L 230 115
            A 3 3 0 0 1 227 118
            L 224 118
            L 224 158
            L 227 158
            A 3 3 0 0 1 230 161
            L 230 222
            A 3 3 0 0 1 227 225
            L 3 225
            A 3 3 0 0 1 0 222
            L 0 161
            A 3 3 0 0 1 3 158
            L 6 158
            L 6 118
            L 3 118
            A 3 3 0 0 1 0 115
            L 0 3
            A 3 3 0 0 1 3 0
            Z" fill="#FFFFFF" 
            stroke="#A0A0A0" stroke-width="1.5" 
            stroke-linejoin="round" filter="url(#dropShadow)"/>
<path d="M 28.5 129.0
            L 44.5 129.0
            A 1 1 0 0 1 45.5 130.0
            L 45.5 133.5
            L 43.5 133.5
            L 43.5 136.5
            L 45.5 136.5
            L 45.5 146.0
            A 1 1 0 0 1 44.5 147.0
            L 28.5 147.0
            A 1 1 0 0 1 27.5 146.0
            L 27.5 136.5
            L 29.5 136.5
            L 29.5 133.5
            L 27.5 133.5
            L 27.5 130.0
            A 1 1 0 0 1 28.5 129.0
            Z" fill="#87CEEB" stroke="#1565C0" stroke-width="1" />
<text x="36.5" y="143.0" font-size="12" font-weight="bold" font-family="TGL, 'Times New Roman', Times, serif" text-anchor="middle" dominant-baseline="central">B</text>
<text x="50.5" y="143.0" font-size="14" font-family="TGL, 'Times New Roman', Times, serif" font-style="italic">E_T_FF_SR_SYM_STORE</text>
<text x="115.0" y="158.0" font-size="12" fill="#666666" font-family="TGL, 'Times New Roman', Times, serif" text-anchor="middle" dominant-baseline="central">1.0</text>
<path d="M-5,37 L-5,47 L0,42 Z" fill="#63B31F" stroke="none" />
<text x="12" y="46" font-size="12" text-anchor="start" font-family="TGL, 'Times New Roman', Times, serif">S</text>
<text x="-15" y="45" font-size="11" text-anchor="end" fill="#888" font-style="italic" font-family="TGL, 'Times New Roman', Times, serif">Event</text>
<text x="-114" y="45" font-size="11" text-anchor="end" fill="#666666" font-family="TGL, 'Times New Roman', Times, serif">Set output Q</text>
<path d="M-5,63 L-5,73 L0,68 Z" fill="#63B31F" stroke="none" />
<text x="12" y="72" font-size="12" text-anchor="start" font-family="TGL, 'Times New Roman', Times, serif">R</text>
<text x="-15" y="71" font-size="11" text-anchor="end" fill="#888" font-style="italic" font-family="TGL, 'Times New Roman', Times, serif">Event</text>
<text x="-114" y="71" font-size="11" text-anchor="end" fill="#666666" font-family="TGL, 'Times New Roman', Times, serif">Reset output Q</text>
<path d="M-5,89 L-5,99 L0,94 Z" fill="#63B31F" stroke="none" />
<text x="12" y="98" font-size="12" text-anchor="start" font-family="TGL, 'Times New Roman', Times, serif">CLK</text>
<text x="-15" y="97" font-size="11" text-anchor="end" fill="#888" font-style="italic" font-family="TGL, 'Times New Roman', Times, serif">Event</text>
<text x="-114" y="97" font-size="11" text-anchor="end" fill="#666666" font-family="TGL, 'Times New Roman', Times, serif">Clock for triggering a output toggle</text>
<path d="M230,37 L230,47 L235,42 Z" fill="#63B31F" stroke="none" />
<text x="218" y="46" font-size="12" text-anchor="end" font-family="TGL, 'Times New Roman', Times, serif">EO</text>
<text x="253" y="45" font-size="11" text-anchor="start" fill="#888" font-style="italic" font-family="TGL, 'Times New Roman', Times, serif">Event</text>
<text x="323" y="45" font-size="11" text-anchor="start" fill="#666666" font-family="TGL, 'Times New Roman', Times, serif">Output Q has changed</text>
<path d="M 225.0 170.0
            L 227.5 170.0
            L 227.5 171.66666666666666
            L 230.0 171.66666666666666
            L 230.0 170.0
            L 235.0 170.0
            L 235.0 180.0
            L 230.0 180.0
            L 230.0 178.33333333333334
            L 227.5 178.33333333333334
            L 227.5 180.0
            L 225.0 180.0
            Z" fill="#845DAF" stroke="none" />
<text x="218" y="179" font-size="12" text-anchor="end" font-family="TGL, 'Times New Roman', Times, serif">Q_INIT</text>
<text x="253" y="178" font-size="11" text-anchor="start" fill="#000" font-style="italic" font-family="TGL, 'Times New Roman', Times, serif">AX2</text>
<text x="323" y="178" font-size="11" text-anchor="start" fill="#666666" font-family="TGL, 'Times New Roman', Times, serif">Value of Q at INIT</text>
<path d="M230,196 L230,206 L235,201 Z" fill="#A3B08F" stroke="none" />
<text x="218" y="205" font-size="12" text-anchor="end" font-family="TGL, 'Times New Roman', Times, serif">Q</text>
<text x="253" y="204" font-size="11" text-anchor="start" fill="#A3B08F" font-style="italic" font-family="TGL, 'Times New Roman', Times, serif">BOOL</text>
<text x="323" y="204" font-size="11" text-anchor="start" fill="#666666" font-family="TGL, 'Times New Roman', Times, serif">value of flip flop</text>
<path d="M242,42 L242,201" stroke="#000000" stroke-width="1" />
<path d="M230,42 L242,42" stroke="#000000" />
<rect x="240" y="40" width="4" height="4" fill="white" stroke="black" stroke-width="1" />
<path d="M242,201 L235,201" stroke="#000000" />
<rect x="240" y="199" width="4" height="4" fill="white" stroke="black" stroke-width="1" />
</svg>