<?xml version="1.0" encoding="UTF-8"?>
<svg xmlns="http://www.w3.org/2000/svg" xmlns:xlink="http://www.w3.org/1999/xlink"
     width="1082" height="327" viewBox="-556 -20 1082 327">
<defs>
</defs>
<rect x="3" y="3" width="220" height="277" fill="#000000" fill-opacity="0.1" rx="2" ry="2" />
<path d="M0,0 H220 V92 H214 V132 H220 V277 H0 V132 H6 V92 H0 Z" fill="#ffffff" stroke="#000000" stroke-width="2" />
<path d="M0,30 L220,30" stroke="#000000" stroke-width="1" />
<text x="110.0" y="110.0" font-size="14" fontWeight="bold" font-family="Verdana, sans-serif" font-style="italic" text-anchor="middle" dominant-baseline="central">logiBUS_LED_PWM_QX</text>
<text x="110.0" y="124.0" font-size="10" fill="#000" font-family="Consolas, monospace" text-anchor="middle" dominant-baseline="central">1.0</text>
<path d="M-5,37 L-5,47 L0,42 Z" fill="#63B31F" stroke="none" />
<text x="12" y="46" font-size="12" text-anchor="start" font-family="Consolas, monospace">INIT</text>
<text x="-31" y="45" font-size="11" text-anchor="end" fill="#888" font-style="italic" font-family="Verdana, sans-serif">Event</text>
<text x="-101" y="45" font-size="11" text-anchor="end" fill="#666666" font-family="Verdana, sans-serif">Service Initialization</text>
<path d="M-5,63 L-5,73 L0,68 Z" fill="#63B31F" stroke="none" />
<text x="12" y="72" font-size="12" text-anchor="start" font-family="Consolas, monospace">REQ</text>
<text x="-31" y="71" font-size="11" text-anchor="end" fill="#888" font-style="italic" font-family="Verdana, sans-serif">Event</text>
<text x="-101" y="71" font-size="11" text-anchor="end" fill="#666666" font-family="Verdana, sans-serif">Service Request</text>
<path d="M-5,144 L-5,154 L0,149 Z" fill="#9FA48A" stroke="none" />
<text x="12" y="153" font-size="12" text-anchor="start" font-family="Consolas, monospace">QI</text>
<text x="-31" y="152" font-size="11" text-anchor="end" fill="#9FA48A" font-style="italic" font-family="Verdana, sans-serif">BOOL</text>
<text x="-101" y="152" font-size="11" text-anchor="end" fill="#666666" font-family="Verdana, sans-serif">Event Input Qualifier</text>
<path d="M-5,170 L-5,180 L0,175 Z" fill="#BD8663" stroke="none" />
<text x="12" y="179" font-size="12" text-anchor="start" font-family="Consolas, monospace">PARAMS</text>
<text x="-31" y="178" font-size="11" text-anchor="end" fill="#BD8663" font-style="italic" font-family="Verdana, sans-serif">STRING</text>
<text x="-101" y="178" font-size="11" text-anchor="end" fill="#666666" font-family="Verdana, sans-serif">Service Parameters</text>
<path d="M-5,196 L-5,206 L0,201 Z" fill="#9FA48A" stroke="none" />
<text x="12" y="205" font-size="12" text-anchor="start" font-family="Consolas, monospace">OUT</text>
<text x="-31" y="204" font-size="11" text-anchor="end" fill="#9FA48A" font-style="italic" font-family="Verdana, sans-serif">BOOL</text>
<text x="-101" y="204" font-size="11" text-anchor="end" fill="#666666" font-family="Verdana, sans-serif">Output data to resource</text>
<path d="M-5,222 L-5,232 L0,227 Z" fill="#000000" stroke="none" />
<text x="12" y="231" font-size="12" text-anchor="start" font-family="Consolas, monospace">Output</text>
<text x="-31" y="230" font-size="11" text-anchor="end" fill="#000000" font-style="italic" font-family="Verdana, sans-serif">logiBUS_DO_S</text>
<text x="-101" y="230" font-size="11" text-anchor="end" fill="#666666" font-family="Verdana, sans-serif">Identify the Output Output_Q1..Q8</text>
<path d="M-5,248 L-5,258 L0,253 Z" fill="#18519E" stroke="none" />
<text x="12" y="257" font-size="12" text-anchor="start" font-family="Consolas, monospace">FREQ</text>
<text x="-31" y="256" font-size="11" text-anchor="end" fill="#18519E" font-style="italic" font-family="Verdana, sans-serif">UINT</text>
<text x="-101" y="256" font-size="11" text-anchor="end" fill="#666666" font-family="Verdana, sans-serif">Define the LED Frequency and Priority</text>
<path d="M220,37 L220,47 L225,42 Z" fill="#63B31F" stroke="none" />
<text x="208" y="46" font-size="12" text-anchor="end" font-family="Consolas, monospace">INITO</text>
<text x="251" y="45" font-size="11" text-anchor="start" fill="#888" font-style="italic" font-family="Verdana, sans-serif">Event</text>
<text x="321" y="45" font-size="11" text-anchor="start" fill="#666666" font-family="Verdana, sans-serif">Initialization Confirm</text>
<path d="M220,63 L220,73 L225,68 Z" fill="#63B31F" stroke="none" />
<text x="208" y="72" font-size="12" text-anchor="end" font-family="Consolas, monospace">CNF</text>
<text x="251" y="71" font-size="11" text-anchor="start" fill="#888" font-style="italic" font-family="Verdana, sans-serif">Event</text>
<text x="321" y="71" font-size="11" text-anchor="start" fill="#666666" font-family="Verdana, sans-serif">Confirmation of Requested Service</text>
<path d="M220,144 L220,154 L225,149 Z" fill="#9FA48A" stroke="none" />
<text x="208" y="153" font-size="12" text-anchor="end" font-family="Consolas, monospace">QO</text>
<text x="251" y="152" font-size="11" text-anchor="start" fill="#9FA48A" font-style="italic" font-family="Verdana, sans-serif">BOOL</text>
<text x="321" y="152" font-size="11" text-anchor="start" fill="#666666" font-family="Verdana, sans-serif">Event Output Qualifier</text>
<path d="M220,170 L220,180 L225,175 Z" fill="#BD8663" stroke="none" />
<text x="208" y="179" font-size="12" text-anchor="end" font-family="Consolas, monospace">STATUS</text>
<text x="251" y="178" font-size="11" text-anchor="start" fill="#BD8663" font-style="italic" font-family="Verdana, sans-serif">STRING</text>
<text x="321" y="178" font-size="11" text-anchor="start" fill="#666666" font-family="Verdana, sans-serif">Service Status</text>
<path d="M-12,42 L-12,253" stroke="#404040" stroke-width="1" />
<path d="M0,42 L-12,42" stroke="#404040" />
<rect x="-14" y="40" width="4" height="4" fill="white" stroke="black" stroke-width="1" />
<path d="M-12,149 L-5,149" stroke="#404040" />
<rect x="-14" y="147" width="4" height="4" fill="white" stroke="black" stroke-width="1" />
<path d="M-12,175 L-5,175" stroke="#404040" />
<rect x="-14" y="173" width="4" height="4" fill="white" stroke="black" stroke-width="1" />
<path d="M-12,227 L-5,227" stroke="#404040" />
<rect x="-14" y="225" width="4" height="4" fill="white" stroke="black" stroke-width="1" />
<path d="M-12,253 L-5,253" stroke="#404040" />
<rect x="-14" y="251" width="4" height="4" fill="white" stroke="black" stroke-width="1" />
<path d="M-20,68 L-20,201" stroke="#404040" stroke-width="1" />
<path d="M0,68 L-20,68" stroke="#404040" />
<rect x="-22" y="66" width="4" height="4" fill="white" stroke="black" stroke-width="1" />
<path d="M-20,149 L-5,149" stroke="#404040" />
<rect x="-22" y="147" width="4" height="4" fill="white" stroke="black" stroke-width="1" />
<path d="M-20,201 L-5,201" stroke="#404040" />
<rect x="-22" y="199" width="4" height="4" fill="white" stroke="black" stroke-width="1" />
<path d="M232,42 L232,175" stroke="#404040" stroke-width="1" />
<path d="M220,42 L232,42" stroke="#404040" />
<rect x="230" y="40" width="4" height="4" fill="white" stroke="black" stroke-width="1" />
<path d="M232,149 L225,149" stroke="#404040" />
<rect x="230" y="147" width="4" height="4" fill="white" stroke="black" stroke-width="1" />
<path d="M232,175 L225,175" stroke="#404040" />
<rect x="230" y="173" width="4" height="4" fill="white" stroke="black" stroke-width="1" />
<path d="M240,68 L240,175" stroke="#404040" stroke-width="1" />
<path d="M220,68 L240,68" stroke="#404040" />
<rect x="238" y="66" width="4" height="4" fill="white" stroke="black" stroke-width="1" />
<path d="M240,149 L225,149" stroke="#404040" />
<rect x="238" y="147" width="4" height="4" fill="white" stroke="black" stroke-width="1" />
<path d="M240,175 L225,175" stroke="#404040" />
<rect x="238" y="173" width="4" height="4" fill="white" stroke="black" stroke-width="1" />
</svg>