<?xml version="1.0" encoding="UTF-8"?>
<svg xmlns="http://www.w3.org/2000/svg" xmlns:xlink="http://www.w3.org/1999/xlink"
     width="2296.0" height="536.125" viewBox="0 0 2296.0 536.125">
<defs>
</defs>
<rect x="0" y="0" width="2296.0" height="536.125" fill="#ffffff" />
<text x="1148.0" y="25" font-size="16" font-weight="bold" font-family="Verdana, sans-serif" fill="#000000" text-anchor="middle" dominant-baseline="central">Uebung_070c_AUI: WBSD auf UT ausgeben (Adapter Version)</text>
<path d="M1105.625,291.125 C1357.4375,291.125,1693.1875,289.0,1945.0,289.0" stroke="#845DAF" stroke-width="1.5" fill="none" />
<path d="M277.0,291.125 C414.5875,291.125,598.0375,291.125,735.625,291.125" stroke="#845DAF" stroke-width="1.5" fill="none" />
<rect x="148.0" y="171.125" width="132" height="268" fill="#000000" fill-opacity="0.1" rx="2" ry="2" />
<path d="M145.0,168.125 H277.0 V234.125 H271.0 V274.125 H277.0 V436.125 H145.0 V274.125 H151.0 V234.125 H145.0 Z" fill="#ffffff" stroke="#000000" stroke-width="2" />
<path d="M145.0,198.125 L277.0,198.125" stroke="#000000" stroke-width="1" />
<text x="211.0" y="252.125" font-size="14" font-weight="bold" font-family="Verdana, sans-serif" font-style="italic" text-anchor="middle" dominant-baseline="central">IA_WBSD</text>
<text x="211.0" y="266.125" font-size="10" fill="#666" font-family="Consolas, monospace" text-anchor="middle" dominant-baseline="central">IA_WBSD</text>
<text x="211.0" y="278.125" font-size="9" fill="#888" font-family="Consolas, monospace" text-anchor="middle" dominant-baseline="central">QI=TRUE</text>
<path d="M140.0,205.125 L140.0,215.125 L145.0,210.125 Z" fill="#63B31F" stroke="none" />
<text x="157.0" y="214.125" font-size="12" text-anchor="start" font-family="Consolas, monospace">INIT</text>
<text x="130.0" y="213.125" font-size="11" text-anchor="end" fill="#63B31F" font-style="italic" font-family="Verdana, sans-serif">Event</text>
<path d="M140.0,286.125 L140.0,296.125 L145.0,291.125 Z" fill="#9FA48A" stroke="none" />
<text x="157.0" y="295.125" font-size="12" text-anchor="start" font-family="Consolas, monospace">QI</text>
<text x="130.0" y="294.125" font-size="11" text-anchor="end" fill="#9FA48A" font-style="italic" font-family="Verdana, sans-serif">BOOL</text>
<path d="M282.0,205.125 L282.0,215.125 L277.0,210.125 Z" fill="#63B31F" stroke="none" />
<text x="265.0" y="214.125" font-size="12" text-anchor="end" font-family="Consolas, monospace">INITO</text>
<text x="292.0" y="213.125" font-size="11" text-anchor="start" fill="#63B31F" font-style="italic" font-family="Verdana, sans-serif">Event</text>
<rect x="272.0" y="286.125" width="10" height="10" fill="#845DAF" stroke="none" />
<text x="265.0" y="295.125" font-size="12" text-anchor="end" font-family="Consolas, monospace">SPEED</text>
<text x="292.0" y="294.125" font-size="11" text-anchor="start" fill="#845DAF" font-style="italic" font-family="Verdana, sans-serif">AUI</text>
<rect x="272.0" y="312.125" width="10" height="10" fill="#845DAF" stroke="none" />
<text x="265.0" y="321.125" font-size="12" text-anchor="end" font-family="Consolas, monospace">DISTANCE</text>
<text x="292.0" y="320.125" font-size="11" text-anchor="start" fill="#845DAF" font-style="italic" font-family="Verdana, sans-serif">AUDI</text>
<rect x="272.0" y="338.125" width="10" height="10" fill="#845DAF" stroke="none" />
<text x="265.0" y="347.125" font-size="12" text-anchor="end" font-family="Consolas, monospace">TIMEOUT</text>
<text x="292.0" y="346.125" font-size="11" text-anchor="start" fill="#845DAF" font-style="italic" font-family="Verdana, sans-serif">AX</text>
<path d="M282.0,364.125 L282.0,374.125 L277.0,369.125 Z" fill="#9FA48A" stroke="none" />
<text x="265.0" y="373.125" font-size="12" text-anchor="end" font-family="Consolas, monospace">QO</text>
<text x="292.0" y="372.125" font-size="11" text-anchor="start" fill="#9FA48A" font-style="italic" font-family="Verdana, sans-serif">BOOL</text>
<path d="M282.0,390.125 L282.0,400.125 L277.0,395.125 Z" fill="#BD8663" stroke="none" />
<text x="265.0" y="399.125" font-size="12" text-anchor="end" font-family="Consolas, monospace">STATUS</text>
<text x="292.0" y="398.125" font-size="11" text-anchor="start" fill="#BD8663" font-style="italic" font-family="Verdana, sans-serif">STRING</text>
<rect x="738.625" y="171.125" width="370" height="228" fill="#000000" fill-opacity="0.1" rx="2" ry="2" />
<path d="M735.625,168.125 H1105.625 V234.125 H1099.625 V274.125 H1105.625 V396.125 H735.625 V274.125 H741.625 V234.125 H735.625 Z" fill="#ffffff" stroke="#000000" stroke-width="2" />
<path d="M735.625,198.125 L1105.625,198.125" stroke="#000000" stroke-width="1" />
<text x="920.625" y="252.125" font-size="14" font-weight="bold" font-family="Verdana, sans-serif" font-style="italic" text-anchor="middle" dominant-baseline="central">FIELDBUS_UDINT_TO_SIGNAL_SCALED</text>
<text x="920.625" y="266.125" font-size="10" fill="#666" font-family="Consolas, monospace" text-anchor="middle" dominant-baseline="central">AUI_FIELDBUS_UINT_TO_SIGNAL_SCALED</text>
<text x="920.625" y="278.125" font-size="9" fill="#888" font-family="Consolas, monospace" text-anchor="middle" dominant-baseline="central">SCALE=REAL#0.001</text>
<text x="920.625" y="290.125" font-size="9" fill="#888" font-family="Consolas, monospace" text-anchor="middle" dominant-baseline="central">OFFSET=DINT#0</text>
<path d="M730.625,205.125 L730.625,215.125 L735.625,210.125 Z" fill="#63B31F" stroke="none" />
<text x="747.625" y="214.125" font-size="12" text-anchor="start" font-family="Consolas, monospace">INIT</text>
<text x="720.625" y="213.125" font-size="11" text-anchor="end" fill="#63B31F" font-style="italic" font-family="Verdana, sans-serif">Event</text>
<rect x="730.625" y="286.125" width="10" height="10" fill="white" stroke="#845DAF" stroke-width="2.5" />
<text x="747.625" y="295.125" font-size="12" text-anchor="start" font-family="Consolas, monospace">IN</text>
<text x="720.625" y="294.125" font-size="11" text-anchor="end" fill="#845DAF" font-style="italic" font-family="Verdana, sans-serif">AUI</text>
<path d="M730.625,312.125 L730.625,322.125 L735.625,317.125 Z" fill="#DBB418" stroke="none" />
<text x="747.625" y="321.125" font-size="12" text-anchor="start" font-family="Consolas, monospace">SCALE</text>
<text x="720.625" y="320.125" font-size="11" text-anchor="end" fill="#DBB418" font-style="italic" font-family="Verdana, sans-serif">REAL</text>
<path d="M730.625,338.125 L730.625,348.125 L735.625,343.125 Z" fill="#18519E" stroke="none" />
<text x="747.625" y="347.125" font-size="12" text-anchor="start" font-family="Consolas, monospace">OFFSET</text>
<text x="720.625" y="346.125" font-size="11" text-anchor="end" fill="#18519E" font-style="italic" font-family="Verdana, sans-serif">DINT</text>
<path d="M1110.625,205.125 L1110.625,215.125 L1105.625,210.125 Z" fill="#63B31F" stroke="none" />
<text x="1093.625" y="214.125" font-size="12" text-anchor="end" font-family="Consolas, monospace">INITO</text>
<text x="1120.625" y="213.125" font-size="11" text-anchor="start" fill="#63B31F" font-style="italic" font-family="Verdana, sans-serif">Event</text>
<rect x="1100.625" y="286.125" width="10" height="10" fill="#845DAF" stroke="none" />
<text x="1093.625" y="295.125" font-size="12" text-anchor="end" font-family="Consolas, monospace">OUT</text>
<text x="1120.625" y="294.125" font-size="11" text-anchor="start" fill="#845DAF" font-style="italic" font-family="Verdana, sans-serif">AR</text>
<rect x="1100.625" y="312.125" width="10" height="10" fill="#845DAF" stroke="none" />
<text x="1093.625" y="321.125" font-size="12" text-anchor="end" font-family="Consolas, monospace">VALID</text>
<text x="1120.625" y="320.125" font-size="11" text-anchor="start" fill="#845DAF" font-style="italic" font-family="Verdana, sans-serif">AX</text>
<rect x="1948.0" y="143.0" width="200" height="268" fill="#000000" fill-opacity="0.1" rx="2" ry="2" />
<path d="M1945.0,140.0 H2145.0 V232.0 H2139.0 V272.0 H2145.0 V408.0 H1945.0 V272.0 H1951.0 V232.0 H1945.0 Z" fill="#ffffff" stroke="#000000" stroke-width="2" />
<path d="M1945.0,170.0 L2145.0,170.0" stroke="#000000" stroke-width="1" />
<text x="2045.0" y="250.0" font-size="14" font-weight="bold" font-family="Verdana, sans-serif" font-style="italic" text-anchor="middle" dominant-baseline="central">Q_NumericValue</text>
<text x="2045.0" y="264.0" font-size="10" fill="#666" font-family="Consolas, monospace" text-anchor="middle" dominant-baseline="central">Q_NumericValue_PHYSA</text>
<text x="2045.0" y="276.0" font-size="9" fill="#888" font-family="Consolas, monospace" text-anchor="middle" dominant-baseline="central">stObj=NumberVariable_Wheel_based_machine_speed</text>
<path d="M1940.0,177.0 L1940.0,187.0 L1945.0,182.0 Z" fill="#63B31F" stroke="none" />
<text x="1957.0" y="186.0" font-size="12" text-anchor="start" font-family="Consolas, monospace">INIT</text>
<text x="1930.0" y="185.0" font-size="11" text-anchor="end" fill="#63B31F" font-style="italic" font-family="Verdana, sans-serif">Event</text>
<rect x="1940.0" y="284.0" width="10" height="10" fill="white" stroke="#845DAF" stroke-width="2.5" />
<text x="1957.0" y="293.0" font-size="12" text-anchor="start" font-family="Consolas, monospace">rPhys</text>
<text x="1930.0" y="292.0" font-size="11" text-anchor="end" fill="#845DAF" font-style="italic" font-family="Verdana, sans-serif">AR</text>
<path d="M1940.0,310.0 L1940.0,320.0 L1945.0,315.0 Z" fill="#000000" stroke="none" />
<text x="1957.0" y="319.0" font-size="12" text-anchor="start" font-family="Consolas, monospace">stObj</text>
<text x="1930.0" y="318.0" font-size="11" text-anchor="end" fill="#000000" font-style="italic" font-family="Verdana, sans-serif">NumericObjectPool_S</text>
<path d="M2150.0,177.0 L2150.0,187.0 L2145.0,182.0 Z" fill="#63B31F" stroke="none" />
<text x="2133.0" y="186.0" font-size="12" text-anchor="end" font-family="Consolas, monospace">INITO</text>
<text x="2160.0" y="185.0" font-size="11" text-anchor="start" fill="#63B31F" font-style="italic" font-family="Verdana, sans-serif">Event</text>
<path d="M2150.0,203.0 L2150.0,213.0 L2145.0,208.0 Z" fill="#63B31F" stroke="none" />
<text x="2133.0" y="212.0" font-size="12" text-anchor="end" font-family="Consolas, monospace">CNF</text>
<text x="2160.0" y="211.0" font-size="11" text-anchor="start" fill="#63B31F" font-style="italic" font-family="Verdana, sans-serif">Event</text>
<rect x="2140.0" y="284.0" width="10" height="10" fill="#845DAF" stroke="none" />
<text x="2133.0" y="293.0" font-size="12" text-anchor="end" font-family="Consolas, monospace">xOver</text>
<text x="2160.0" y="292.0" font-size="11" text-anchor="start" fill="#845DAF" font-style="italic" font-family="Verdana, sans-serif">AX</text>
<rect x="2140.0" y="310.0" width="10" height="10" fill="#845DAF" stroke="none" />
<text x="2133.0" y="319.0" font-size="12" text-anchor="end" font-family="Consolas, monospace">xUnder</text>
<text x="2160.0" y="318.0" font-size="11" text-anchor="start" fill="#845DAF" font-style="italic" font-family="Verdana, sans-serif">AX</text>
<path d="M2150.0,336.0 L2150.0,346.0 L2145.0,341.0 Z" fill="#BD8663" stroke="none" />
<text x="2133.0" y="345.0" font-size="12" text-anchor="end" font-family="Consolas, monospace">STATUS</text>
<text x="2160.0" y="344.0" font-size="11" text-anchor="start" fill="#BD8663" font-style="italic" font-family="Verdana, sans-serif">STRING</text>
<path d="M2150.0,362.0 L2150.0,372.0 L2145.0,367.0 Z" fill="#18519E" stroke="none" />
<text x="2133.0" y="371.0" font-size="12" text-anchor="end" font-family="Consolas, monospace">s16result</text>
<text x="2160.0" y="370.0" font-size="11" text-anchor="start" fill="#18519E" font-style="italic" font-family="Verdana, sans-serif">INT</text>
</svg>