<?xml version="1.0" encoding="UTF-8"?>
<svg xmlns="http://www.w3.org/2000/svg" xmlns:xlink="http://www.w3.org/1999/xlink"
     width="2322.0" height="590.0645161290322" viewBox="0 0 2322.0 590.0645161290322">
<defs>
</defs>
<rect x="0" y="0" width="2322.0" height="590.0645161290322" fill="#ffffff" />
<text x="1161.0" y="25" font-size="16" font-weight="bold" font-family="Verdana, sans-serif" fill="#000000" text-anchor="middle" dominant-baseline="central">Uebung_010b1_AX: AuxFunction2_X1 auf DigitalOutput_Q1</text>
<path d="M361.0,289.0 C838.0,289.0,1474.0000000000002,347.06451612903226,1951.0000000000002,347.06451612903226" stroke="#845DAF" stroke-width="1.5" fill="none" />
<rect x="1954.0000000000002" y="201.06451612903226" width="220" height="292" fill="#000000" fill-opacity="0.1" rx="2" ry="2" />
<path d="M1951.0000000000002,198.06451612903226 H2171.0 V290.06451612903226 H2165.0 V330.06451612903226 H2171.0 V490.06451612903226 H1951.0000000000002 V330.06451612903226 H1957.0000000000002 V290.06451612903226 H1951.0000000000002 Z" fill="#ffffff" stroke="#000000" stroke-width="2" />
<path d="M1951.0000000000002,228.06451612903226 L2171.0,228.06451612903226" stroke="#000000" stroke-width="1" />
<text x="2061.0" y="308.06451612903226" font-size="14" font-weight="bold" font-family="Verdana, sans-serif" font-style="italic" text-anchor="middle" dominant-baseline="central">DigitalOutput_Q1</text>
<text x="2061.0" y="322.06451612903226" font-size="10" fill="#666" font-family="Consolas, monospace" text-anchor="middle" dominant-baseline="central">logiBUS_QXA</text>
<text x="2061.0" y="334.06451612903226" font-size="9" fill="#888" font-family="Consolas, monospace" text-anchor="middle" dominant-baseline="central">QI=TRUE</text>
<text x="2061.0" y="346.06451612903226" font-size="9" fill="#888" font-family="Consolas, monospace" text-anchor="middle" dominant-baseline="central">PARAMS=</text>
<text x="2061.0" y="358.06451612903226" font-size="9" fill="#888" font-family="Consolas, monospace" text-anchor="middle" dominant-baseline="central">Output=Output_Q1</text>
<path d="M1946.0000000000002,235.06451612903226 L1946.0000000000002,245.06451612903226 L1951.0000000000002,240.06451612903226 Z" fill="#63B31F" stroke="none" />
<text x="1963.0000000000002" y="244.06451612903226" font-size="12" text-anchor="start" font-family="Consolas, monospace">INIT</text>
<text x="1936.0000000000002" y="243.06451612903226" font-size="11" text-anchor="end" fill="#63B31F" font-style="italic" font-family="Verdana, sans-serif">Event</text>
<rect x="1946.0000000000002" y="342.06451612903226" width="10" height="10" fill="white" stroke="#845DAF" stroke-width="2.5" />
<text x="1963.0000000000002" y="351.06451612903226" font-size="12" text-anchor="start" font-family="Consolas, monospace">OUT</text>
<text x="1936.0000000000002" y="350.06451612903226" font-size="11" text-anchor="end" fill="#845DAF" font-style="italic" font-family="Verdana, sans-serif">AX</text>
<path d="M1946.0000000000002,368.06451612903226 L1946.0000000000002,378.06451612903226 L1951.0000000000002,373.06451612903226 Z" fill="#9FA48A" stroke="none" />
<text x="1963.0000000000002" y="377.06451612903226" font-size="12" text-anchor="start" font-family="Consolas, monospace">QI</text>
<text x="1936.0000000000002" y="376.06451612903226" font-size="11" text-anchor="end" fill="#9FA48A" font-style="italic" font-family="Verdana, sans-serif">BOOL</text>
<path d="M1946.0000000000002,394.06451612903226 L1946.0000000000002,404.06451612903226 L1951.0000000000002,399.06451612903226 Z" fill="#BD8663" stroke="none" />
<text x="1963.0000000000002" y="403.06451612903226" font-size="12" text-anchor="start" font-family="Consolas, monospace">PARAMS</text>
<text x="1936.0000000000002" y="402.06451612903226" font-size="11" text-anchor="end" fill="#BD8663" font-style="italic" font-family="Verdana, sans-serif">STRING</text>
<path d="M1946.0000000000002,420.06451612903226 L1946.0000000000002,430.06451612903226 L1951.0000000000002,425.06451612903226 Z" fill="#000000" stroke="none" />
<text x="1963.0000000000002" y="429.06451612903226" font-size="12" text-anchor="start" font-family="Consolas, monospace">Output</text>
<text x="1936.0000000000002" y="428.06451612903226" font-size="11" text-anchor="end" fill="#000000" font-style="italic" font-family="Verdana, sans-serif">logiBUS_DO_S</text>
<path d="M2176.0,235.06451612903226 L2176.0,245.06451612903226 L2171.0,240.06451612903226 Z" fill="#63B31F" stroke="none" />
<text x="2159.0" y="244.06451612903226" font-size="12" text-anchor="end" font-family="Consolas, monospace">INITO</text>
<text x="2186.0" y="243.06451612903226" font-size="11" text-anchor="start" fill="#63B31F" font-style="italic" font-family="Verdana, sans-serif">Event</text>
<path d="M2176.0,261.06451612903226 L2176.0,271.06451612903226 L2171.0,266.06451612903226 Z" fill="#63B31F" stroke="none" />
<text x="2159.0" y="270.06451612903226" font-size="12" text-anchor="end" font-family="Consolas, monospace">CNF</text>
<text x="2186.0" y="269.06451612903226" font-size="11" text-anchor="start" fill="#63B31F" font-style="italic" font-family="Verdana, sans-serif">Event</text>
<path d="M2176.0,342.06451612903226 L2176.0,352.06451612903226 L2171.0,347.06451612903226 Z" fill="#9FA48A" stroke="none" />
<text x="2159.0" y="351.06451612903226" font-size="12" text-anchor="end" font-family="Consolas, monospace">QO</text>
<text x="2186.0" y="350.06451612903226" font-size="11" text-anchor="start" fill="#9FA48A" font-style="italic" font-family="Verdana, sans-serif">BOOL</text>
<path d="M2176.0,368.06451612903226 L2176.0,378.06451612903226 L2171.0,373.06451612903226 Z" fill="#BD8663" stroke="none" />
<text x="2159.0" y="377.06451612903226" font-size="12" text-anchor="end" font-family="Consolas, monospace">STATUS</text>
<text x="2186.0" y="376.06451612903226" font-size="11" text-anchor="start" fill="#BD8663" font-style="italic" font-family="Verdana, sans-serif">STRING</text>
<rect x="154.0" y="143.0" width="210" height="254" fill="#000000" fill-opacity="0.1" rx="2" ry="2" />
<path d="M151.0,140.0 H361.0 V232.0 H355.0 V272.0 H361.0 V394.0 H151.0 V272.0 H157.0 V232.0 H151.0 Z" fill="#ffffff" stroke="#000000" stroke-width="2" />
<path d="M151.0,170.0 L361.0,170.0" stroke="#000000" stroke-width="1" />
<text x="256.0" y="250.0" font-size="14" font-weight="bold" font-family="Verdana, sans-serif" font-style="italic" text-anchor="middle" dominant-baseline="central">AuxFunction2_X1</text>
<text x="256.0" y="264.0" font-size="10" fill="#666" font-family="Consolas, monospace" text-anchor="middle" dominant-baseline="central">Aux_IXA</text>
<text x="256.0" y="276.0" font-size="9" fill="#888" font-family="Consolas, monospace" text-anchor="middle" dominant-baseline="central">QI=TRUE</text>
<text x="256.0" y="288.0" font-size="9" fill="#888" font-family="Consolas, monospace" text-anchor="middle" dominant-baseline="central">u16ObjId=AuxFunction2_X1</text>
<path d="M146.0,177.0 L146.0,187.0 L151.0,182.0 Z" fill="#63B31F" stroke="none" />
<text x="163.0" y="186.0" font-size="12" text-anchor="start" font-family="Consolas, monospace">INIT</text>
<text x="136.0" y="185.0" font-size="11" text-anchor="end" fill="#63B31F" font-style="italic" font-family="Verdana, sans-serif">Event</text>
<path d="M146.0,203.0 L146.0,213.0 L151.0,208.0 Z" fill="#63B31F" stroke="none" />
<text x="163.0" y="212.0" font-size="12" text-anchor="start" font-family="Consolas, monospace">REQ</text>
<text x="136.0" y="211.0" font-size="11" text-anchor="end" fill="#63B31F" font-style="italic" font-family="Verdana, sans-serif">Event</text>
<path d="M146.0,284.0 L146.0,294.0 L151.0,289.0 Z" fill="#9FA48A" stroke="none" />
<text x="163.0" y="293.0" font-size="12" text-anchor="start" font-family="Consolas, monospace">QI</text>
<text x="136.0" y="292.0" font-size="11" text-anchor="end" fill="#9FA48A" font-style="italic" font-family="Verdana, sans-serif">BOOL</text>
<path d="M146.0,310.0 L146.0,320.0 L151.0,315.0 Z" fill="#BD8663" stroke="none" />
<text x="163.0" y="319.0" font-size="12" text-anchor="start" font-family="Consolas, monospace">PARAMS</text>
<text x="136.0" y="318.0" font-size="11" text-anchor="end" fill="#BD8663" font-style="italic" font-family="Verdana, sans-serif">STRING</text>
<path d="M146.0,336.0 L146.0,346.0 L151.0,341.0 Z" fill="#18519E" stroke="none" />
<text x="163.0" y="345.0" font-size="12" text-anchor="start" font-family="Consolas, monospace">u16ObjId</text>
<text x="136.0" y="344.0" font-size="11" text-anchor="end" fill="#18519E" font-style="italic" font-family="Verdana, sans-serif">UINT</text>
<path d="M366.0,177.0 L366.0,187.0 L361.0,182.0 Z" fill="#63B31F" stroke="none" />
<text x="349.0" y="186.0" font-size="12" text-anchor="end" font-family="Consolas, monospace">INITO</text>
<text x="376.0" y="185.0" font-size="11" text-anchor="start" fill="#63B31F" font-style="italic" font-family="Verdana, sans-serif">Event</text>
<rect x="356.0" y="284.0" width="10" height="10" fill="#845DAF" stroke="none" />
<text x="349.0" y="293.0" font-size="12" text-anchor="end" font-family="Consolas, monospace">IN</text>
<text x="376.0" y="292.0" font-size="11" text-anchor="start" fill="#845DAF" font-style="italic" font-family="Verdana, sans-serif">AX</text>
<path d="M366.0,310.0 L366.0,320.0 L361.0,315.0 Z" fill="#9FA48A" stroke="none" />
<text x="349.0" y="319.0" font-size="12" text-anchor="end" font-family="Consolas, monospace">QO</text>
<text x="376.0" y="318.0" font-size="11" text-anchor="start" fill="#9FA48A" font-style="italic" font-family="Verdana, sans-serif">BOOL</text>
<path d="M366.0,336.0 L366.0,346.0 L361.0,341.0 Z" fill="#BD8663" stroke="none" />
<text x="349.0" y="345.0" font-size="12" text-anchor="end" font-family="Consolas, monospace">STATUS</text>
<text x="376.0" y="344.0" font-size="11" text-anchor="start" fill="#BD8663" font-style="italic" font-family="Verdana, sans-serif">STRING</text>
</svg>