<?xml version="1.0" encoding="UTF-8"?>
<svg xmlns="http://www.w3.org/2000/svg" xmlns:xlink="http://www.w3.org/1999/xlink"
     width="996" height="249" viewBox="-548 -20 996 249">
<defs>
</defs>
<rect x="3" y="3" width="150" height="199" fill="#000000" fill-opacity="0.1" rx="2" ry="2" />
<path d="M0,0 H150 V66 H144 V106 H150 V199 H0 V106 H6 V66 H0 Z" fill="#ffffff" stroke="#606060" stroke-width="2" />
<path d="M0,30 L150,30" stroke="#606060" stroke-width="1" />
<text x="75.0" y="84.0" font-size="14" fontWeight="bold" font-family="Verdana, sans-serif" font-style="italic" text-anchor="middle" dominant-baseline="central">FB_CTU_DINT</text>
<text x="75.0" y="98.0" font-size="10" fill="#000" font-family="Consolas, monospace" text-anchor="middle" dominant-baseline="central">3.0</text>
<path d="M-5,37 L-5,47 L0,42 Z" fill="#5cb85c" stroke="none" />
<text x="12" y="46" font-size="12" text-anchor="start" font-family="Consolas, monospace">REQ</text>
<text x="-23" y="45" font-size="11" text-anchor="end" fill="#888" font-style="italic" font-family="Verdana, sans-serif">Event</text>
<text x="-93" y="45" font-size="11" text-anchor="end" fill="#666666" font-family="Verdana, sans-serif">Normal Execution Request</text>
<path d="M-5,118 L-5,128 L0,123 Z" fill="#0066cc" stroke="none" />
<text x="12" y="127" font-size="12" text-anchor="start" font-family="Consolas, monospace">CU</text>
<text x="-23" y="126" font-size="11" text-anchor="end" fill="#0066cc" font-style="italic" font-family="Verdana, sans-serif">BOOL</text>
<text x="-93" y="126" font-size="11" text-anchor="end" fill="#666666" font-family="Verdana, sans-serif">Count up</text>
<path d="M-5,144 L-5,154 L0,149 Z" fill="#0066cc" stroke="none" />
<text x="12" y="153" font-size="12" text-anchor="start" font-family="Consolas, monospace">R</text>
<text x="-23" y="152" font-size="11" text-anchor="end" fill="#0066cc" font-style="italic" font-family="Verdana, sans-serif">BOOL</text>
<text x="-93" y="152" font-size="11" text-anchor="end" fill="#666666" font-family="Verdana, sans-serif">Reset</text>
<path d="M-5,170 L-5,180 L0,175 Z" fill="#0066cc" stroke="none" />
<text x="12" y="179" font-size="12" text-anchor="start" font-family="Consolas, monospace">PV</text>
<text x="-23" y="178" font-size="11" text-anchor="end" fill="#0066cc" font-style="italic" font-family="Verdana, sans-serif">DINT</text>
<text x="-93" y="178" font-size="11" text-anchor="end" fill="#666666" font-family="Verdana, sans-serif">Preset value</text>
<path d="M150,37 L150,47 L155,42 Z" fill="#5cb85c" stroke="none" />
<text x="138" y="46" font-size="12" text-anchor="end" font-family="Consolas, monospace">CNF</text>
<text x="173" y="45" font-size="11" text-anchor="start" fill="#888" font-style="italic" font-family="Verdana, sans-serif">Event</text>
<text x="243" y="45" font-size="11" text-anchor="start" fill="#666666" font-family="Verdana, sans-serif">Execution Confirmation</text>
<path d="M150,118 L150,128 L155,123 Z" fill="#0066cc" stroke="none" />
<text x="138" y="127" font-size="12" text-anchor="end" font-family="Consolas, monospace">Q</text>
<text x="173" y="126" font-size="11" text-anchor="start" fill="#0066cc" font-style="italic" font-family="Verdana, sans-serif">BOOL</text>
<text x="243" y="126" font-size="11" text-anchor="start" fill="#666666" font-family="Verdana, sans-serif">Output</text>
<path d="M150,144 L150,154 L155,149 Z" fill="#0066cc" stroke="none" />
<text x="138" y="153" font-size="12" text-anchor="end" font-family="Consolas, monospace">CV</text>
<text x="173" y="152" font-size="11" text-anchor="start" fill="#0066cc" font-style="italic" font-family="Verdana, sans-serif">DINT</text>
<text x="243" y="152" font-size="11" text-anchor="start" fill="#666666" font-family="Verdana, sans-serif">Count value</text>
<path d="M-12,42 L-12,149" stroke="#404040" stroke-width="1" />
<path d="M0,42 L-12,42" stroke="#404040" />
<rect x="-14" y="40" width="4" height="4" fill="white" stroke="black" stroke-width="1" />
<path d="M-12,123 L-5,123" stroke="#404040" />
<rect x="-14" y="121" width="4" height="4" fill="white" stroke="black" stroke-width="1" />
<path d="M-12,149 L-5,149" stroke="#404040" />
<rect x="-14" y="147" width="4" height="4" fill="white" stroke="black" stroke-width="1" />
<path d="M162,42 L162,149" stroke="#404040" stroke-width="1" />
<path d="M150,42 L162,42" stroke="#404040" />
<rect x="160" y="40" width="4" height="4" fill="white" stroke="black" stroke-width="1" />
<path d="M162,123 L155,123" stroke="#404040" />
<rect x="160" y="121" width="4" height="4" fill="white" stroke="black" stroke-width="1" />
<path d="M162,149 L155,149" stroke="#404040" />
<rect x="160" y="147" width="4" height="4" fill="white" stroke="black" stroke-width="1" />
</svg>