<?xml version="1.0" encoding="UTF-8"?>
<svg xmlns="http://www.w3.org/2000/svg" xmlns:xlink="http://www.w3.org/1999/xlink"
     width="1022" height="405" viewBox="-556 -20 1022 405">
<defs>
</defs>
<rect x="3" y="3" width="160" height="355" fill="#000000" fill-opacity="0.1" rx="2" ry="2" />
<path d="M0,0 H160 V92 H154 V132 H160 V355 H0 V132 H6 V92 H0 Z" fill="#ffffff" stroke="#606060" stroke-width="2" />
<path d="M0,30 L160,30" stroke="#606060" stroke-width="1" />
<text x="80.0" y="110.0" font-size="14" fontWeight="bold" font-family="Verdana, sans-serif" font-style="italic" text-anchor="middle" dominant-baseline="central">CSV_WRITER_6</text>
<text x="80.0" y="124.0" font-size="10" fill="#000" font-family="Consolas, monospace" text-anchor="middle" dominant-baseline="central">3.0</text>
<path d="M-5,37 L-5,47 L0,42 Z" fill="#5cb85c" stroke="none" />
<text x="12" y="46" font-size="12" text-anchor="start" font-family="Consolas, monospace">INIT</text>
<text x="-31" y="45" font-size="11" text-anchor="end" fill="#888" font-style="italic" font-family="Verdana, sans-serif">Event</text>
<text x="-101" y="45" font-size="11" text-anchor="end" fill="#666666" font-family="Verdana, sans-serif">Service Initialization</text>
<path d="M-5,63 L-5,73 L0,68 Z" fill="#5cb85c" stroke="none" />
<text x="12" y="72" font-size="12" text-anchor="start" font-family="Consolas, monospace">REQ</text>
<text x="-31" y="71" font-size="11" text-anchor="end" fill="#888" font-style="italic" font-family="Verdana, sans-serif">Event</text>
<text x="-101" y="71" font-size="11" text-anchor="end" fill="#666666" font-family="Verdana, sans-serif">Service Request</text>
<path d="M-5,144 L-5,154 L0,149 Z" fill="#0066cc" stroke="none" />
<text x="12" y="153" font-size="12" text-anchor="start" font-family="Consolas, monospace">QI</text>
<text x="-31" y="152" font-size="11" text-anchor="end" fill="#0066cc" font-style="italic" font-family="Verdana, sans-serif">BOOL</text>
<text x="-101" y="152" font-size="11" text-anchor="end" fill="#666666" font-family="Verdana, sans-serif">Event Input Qualifier</text>
<path d="M-5,170 L-5,180 L0,175 Z" fill="#0066cc" stroke="none" />
<text x="12" y="179" font-size="12" text-anchor="start" font-family="Consolas, monospace">FILE_NAME</text>
<text x="-31" y="178" font-size="11" text-anchor="end" fill="#0066cc" font-style="italic" font-family="Verdana, sans-serif">STRING</text>
<text x="-101" y="178" font-size="11" text-anchor="end" fill="#666666" font-family="Verdana, sans-serif">Service Parameters</text>
<path d="M-5,196 L-5,206 L0,201 Z" fill="#0066cc" stroke="none" />
<text x="12" y="205" font-size="12" text-anchor="start" font-family="Consolas, monospace">SD_1</text>
<text x="-31" y="204" font-size="11" text-anchor="end" fill="#0066cc" font-style="italic" font-family="Verdana, sans-serif">ANY</text>
<text x="-101" y="204" font-size="11" text-anchor="end" fill="#666666" font-family="Verdana, sans-serif">Output data to resource</text>
<path d="M-5,222 L-5,232 L0,227 Z" fill="#0066cc" stroke="none" />
<text x="12" y="231" font-size="12" text-anchor="start" font-family="Consolas, monospace">SD_2</text>
<text x="-31" y="230" font-size="11" text-anchor="end" fill="#0066cc" font-style="italic" font-family="Verdana, sans-serif">ANY</text>
<path d="M-5,248 L-5,258 L0,253 Z" fill="#0066cc" stroke="none" />
<text x="12" y="257" font-size="12" text-anchor="start" font-family="Consolas, monospace">SD_3</text>
<text x="-31" y="256" font-size="11" text-anchor="end" fill="#0066cc" font-style="italic" font-family="Verdana, sans-serif">ANY</text>
<path d="M-5,274 L-5,284 L0,279 Z" fill="#0066cc" stroke="none" />
<text x="12" y="283" font-size="12" text-anchor="start" font-family="Consolas, monospace">SD_4</text>
<text x="-31" y="282" font-size="11" text-anchor="end" fill="#0066cc" font-style="italic" font-family="Verdana, sans-serif">ANY</text>
<path d="M-5,300 L-5,310 L0,305 Z" fill="#0066cc" stroke="none" />
<text x="12" y="309" font-size="12" text-anchor="start" font-family="Consolas, monospace">SD_5</text>
<text x="-31" y="308" font-size="11" text-anchor="end" fill="#0066cc" font-style="italic" font-family="Verdana, sans-serif">ANY</text>
<path d="M-5,326 L-5,336 L0,331 Z" fill="#0066cc" stroke="none" />
<text x="12" y="335" font-size="12" text-anchor="start" font-family="Consolas, monospace">SD_6</text>
<text x="-31" y="334" font-size="11" text-anchor="end" fill="#0066cc" font-style="italic" font-family="Verdana, sans-serif">ANY</text>
<path d="M160,37 L160,47 L165,42 Z" fill="#5cb85c" stroke="none" />
<text x="148" y="46" font-size="12" text-anchor="end" font-family="Consolas, monospace">INITO</text>
<text x="191" y="45" font-size="11" text-anchor="start" fill="#888" font-style="italic" font-family="Verdana, sans-serif">Event</text>
<text x="261" y="45" font-size="11" text-anchor="start" fill="#666666" font-family="Verdana, sans-serif">Initialization Confirm</text>
<path d="M160,63 L160,73 L165,68 Z" fill="#5cb85c" stroke="none" />
<text x="148" y="72" font-size="12" text-anchor="end" font-family="Consolas, monospace">CNF</text>
<text x="191" y="71" font-size="11" text-anchor="start" fill="#888" font-style="italic" font-family="Verdana, sans-serif">Event</text>
<text x="261" y="71" font-size="11" text-anchor="start" fill="#666666" font-family="Verdana, sans-serif">Confirmation of Requested Service</text>
<path d="M160,144 L160,154 L165,149 Z" fill="#0066cc" stroke="none" />
<text x="148" y="153" font-size="12" text-anchor="end" font-family="Consolas, monospace">QO</text>
<text x="191" y="152" font-size="11" text-anchor="start" fill="#0066cc" font-style="italic" font-family="Verdana, sans-serif">BOOL</text>
<text x="261" y="152" font-size="11" text-anchor="start" fill="#666666" font-family="Verdana, sans-serif">Event Output Qualifier</text>
<path d="M160,170 L160,180 L165,175 Z" fill="#0066cc" stroke="none" />
<text x="148" y="179" font-size="12" text-anchor="end" font-family="Consolas, monospace">STATUS</text>
<text x="191" y="178" font-size="11" text-anchor="start" fill="#0066cc" font-style="italic" font-family="Verdana, sans-serif">STRING</text>
<text x="261" y="178" font-size="11" text-anchor="start" fill="#666666" font-family="Verdana, sans-serif">File access status</text>
<path d="M-12,42 L-12,175" stroke="#404040" stroke-width="1" />
<path d="M0,42 L-12,42" stroke="#404040" />
<rect x="-14" y="40" width="4" height="4" fill="white" stroke="black" stroke-width="1" />
<path d="M-12,149 L-5,149" stroke="#404040" />
<rect x="-14" y="147" width="4" height="4" fill="white" stroke="black" stroke-width="1" />
<path d="M-12,175 L-5,175" stroke="#404040" />
<rect x="-14" y="173" width="4" height="4" fill="white" stroke="black" stroke-width="1" />
<path d="M-20,68 L-20,331" stroke="#404040" stroke-width="1" />
<path d="M0,68 L-20,68" stroke="#404040" />
<rect x="-22" y="66" width="4" height="4" fill="white" stroke="black" stroke-width="1" />
<path d="M-20,149 L-5,149" stroke="#404040" />
<rect x="-22" y="147" width="4" height="4" fill="white" stroke="black" stroke-width="1" />
<path d="M-20,201 L-5,201" stroke="#404040" />
<rect x="-22" y="199" width="4" height="4" fill="white" stroke="black" stroke-width="1" />
<path d="M-20,227 L-5,227" stroke="#404040" />
<rect x="-22" y="225" width="4" height="4" fill="white" stroke="black" stroke-width="1" />
<path d="M-20,253 L-5,253" stroke="#404040" />
<rect x="-22" y="251" width="4" height="4" fill="white" stroke="black" stroke-width="1" />
<path d="M-20,279 L-5,279" stroke="#404040" />
<rect x="-22" y="277" width="4" height="4" fill="white" stroke="black" stroke-width="1" />
<path d="M-20,305 L-5,305" stroke="#404040" />
<rect x="-22" y="303" width="4" height="4" fill="white" stroke="black" stroke-width="1" />
<path d="M-20,331 L-5,331" stroke="#404040" />
<rect x="-22" y="329" width="4" height="4" fill="white" stroke="black" stroke-width="1" />
<path d="M172,42 L172,175" stroke="#404040" stroke-width="1" />
<path d="M160,42 L172,42" stroke="#404040" />
<rect x="170" y="40" width="4" height="4" fill="white" stroke="black" stroke-width="1" />
<path d="M172,149 L165,149" stroke="#404040" />
<rect x="170" y="147" width="4" height="4" fill="white" stroke="black" stroke-width="1" />
<path d="M172,175 L165,175" stroke="#404040" />
<rect x="170" y="173" width="4" height="4" fill="white" stroke="black" stroke-width="1" />
<path d="M180,68 L180,175" stroke="#404040" stroke-width="1" />
<path d="M160,68 L180,68" stroke="#404040" />
<rect x="178" y="66" width="4" height="4" fill="white" stroke="black" stroke-width="1" />
<path d="M180,149 L165,149" stroke="#404040" />
<rect x="178" y="147" width="4" height="4" fill="white" stroke="black" stroke-width="1" />
<path d="M180,175 L165,175" stroke="#404040" />
<rect x="178" y="173" width="4" height="4" fill="white" stroke="black" stroke-width="1" />
</svg>