<?xml version="1.0" encoding="UTF-8"?>
<svg xmlns="http://www.w3.org/2000/svg" xmlns:xlink="http://www.w3.org/1999/xlink"
     width="976" height="223" viewBox="-548 -20 976 223">
<defs>
</defs>
<rect x="3" y="3" width="130" height="173" fill="#000000" fill-opacity="0.1" rx="2" ry="2" />
<path d="M0,0 H130 V92 H124 V132 H130 V173 H0 V132 H6 V92 H0 Z" fill="#ffffff" stroke="#606060" stroke-width="2" />
<path d="M0,30 L130,30" stroke="#606060" stroke-width="1" />
<text x="65.0" y="110.0" font-size="14" fontWeight="bold" font-family="Verdana, sans-serif" font-style="italic" text-anchor="middle" dominant-baseline="central">FB_RANDOM</text>
<text x="65.0" y="124.0" font-size="10" fill="#000" font-family="Consolas, monospace" text-anchor="middle" dominant-baseline="central">3.0</text>
<path d="M-5,37 L-5,47 L0,42 Z" fill="#5cb85c" stroke="none" />
<text x="12" y="46" font-size="12" text-anchor="start" font-family="Consolas, monospace">INIT</text>
<text x="-23" y="45" font-size="11" text-anchor="end" fill="#888" font-style="italic" font-family="Verdana, sans-serif">Event</text>
<text x="-185" y="45" font-size="11" text-anchor="end" fill="#666666" font-family="Verdana, sans-serif">Initializes the random with the specified seed, if not called the generated values will always be identical</text>
<path d="M-5,63 L-5,73 L0,68 Z" fill="#5cb85c" stroke="none" />
<text x="12" y="72" font-size="12" text-anchor="start" font-family="Consolas, monospace">REQ</text>
<text x="-23" y="71" font-size="11" text-anchor="end" fill="#888" font-style="italic" font-family="Verdana, sans-serif">Event</text>
<text x="-124" y="71" font-size="11" text-anchor="end" fill="#666666" font-family="Verdana, sans-serif">Calculates a new random number between 0 and 1</text>
<path d="M-5,144 L-5,154 L0,149 Z" fill="#0066cc" stroke="none" />
<text x="12" y="153" font-size="12" text-anchor="start" font-family="Consolas, monospace">SEED</text>
<text x="-23" y="152" font-size="11" text-anchor="end" fill="#0066cc" font-style="italic" font-family="Verdana, sans-serif">UINT</text>
<text x="-166" y="152" font-size="11" text-anchor="end" fill="#666666" font-family="Verdana, sans-serif">the seed to initialize the random, a seed of 0 (zero) uses the current systemtime as seed</text>
<path d="M130,37 L130,47 L135,42 Z" fill="#5cb85c" stroke="none" />
<text x="118" y="46" font-size="12" text-anchor="end" font-family="Consolas, monospace">INITO</text>
<text x="153" y="45" font-size="11" text-anchor="start" fill="#888" font-style="italic" font-family="Verdana, sans-serif">Event</text>
<path d="M130,63 L130,73 L135,68 Z" fill="#5cb85c" stroke="none" />
<text x="118" y="72" font-size="12" text-anchor="end" font-family="Consolas, monospace">CNF</text>
<text x="153" y="71" font-size="11" text-anchor="start" fill="#888" font-style="italic" font-family="Verdana, sans-serif">Event</text>
<text x="223" y="71" font-size="11" text-anchor="start" fill="#666666" font-family="Verdana, sans-serif">Execution Confirmation</text>
<path d="M130,144 L130,154 L135,149 Z" fill="#0066cc" stroke="none" />
<text x="118" y="153" font-size="12" text-anchor="end" font-family="Consolas, monospace">VAL</text>
<text x="153" y="152" font-size="11" text-anchor="start" fill="#0066cc" font-style="italic" font-family="Verdana, sans-serif">REAL</text>
<text x="223" y="152" font-size="11" text-anchor="start" fill="#666666" font-family="Verdana, sans-serif">Function output</text>
<path d="M-12,42 L-12,149" stroke="#404040" stroke-width="1" />
<path d="M0,42 L-12,42" stroke="#404040" />
<rect x="-14" y="40" width="4" height="4" fill="white" stroke="black" stroke-width="1" />
<path d="M-12,149 L-5,149" stroke="#404040" />
<rect x="-14" y="147" width="4" height="4" fill="white" stroke="black" stroke-width="1" />
<path d="M142,68 L142,149" stroke="#404040" stroke-width="1" />
<path d="M130,68 L142,68" stroke="#404040" />
<rect x="140" y="66" width="4" height="4" fill="white" stroke="black" stroke-width="1" />
<path d="M142,149 L135,149" stroke="#404040" />
<rect x="140" y="147" width="4" height="4" fill="white" stroke="black" stroke-width="1" />
</svg>