<?xml version="1.0" encoding="UTF-8"?>
<svg xmlns="http://www.w3.org/2000/svg" xmlns:xlink="http://www.w3.org/1999/xlink"
     width="1106" height="223" viewBox="-548 -20 1106 223">
<defs>
</defs>
<rect x="3" y="3" width="260" height="173" fill="#000000" fill-opacity="0.1" rx="2" ry="2" />
<path d="M0,0 H260 V66 H254 V106 H260 V173 H0 V106 H6 V66 H0 Z" fill="#ffffff" stroke="#000000" stroke-width="2" />
<path d="M0,30 L260,30" stroke="#000000" stroke-width="1" />
<text x="130.0" y="84.0" font-size="14" fontWeight="bold" font-family="Verdana, sans-serif" font-style="italic" text-anchor="middle" dominant-baseline="central">GetInstancePathAndName</text>
<text x="130.0" y="98.0" font-size="10" fill="#000" font-family="Consolas, monospace" text-anchor="middle" dominant-baseline="central">3.0</text>
<path d="M-5,37 L-5,47 L0,42 Z" fill="#63B31F" stroke="none" />
<text x="12" y="46" font-size="12" text-anchor="start" font-family="Consolas, monospace">REQ</text>
<text x="-23" y="45" font-size="11" text-anchor="end" fill="#888" font-style="italic" font-family="Verdana, sans-serif">Event</text>
<text x="-93" y="45" font-size="11" text-anchor="end" fill="#666666" font-family="Verdana, sans-serif">Service Request</text>
<path d="M-5,118 L-5,128 L0,123 Z" fill="#000000" stroke="none" />
<text x="12" y="127" font-size="12" text-anchor="start" font-family="Consolas, monospace">Sep</text>
<text x="-23" y="126" font-size="11" text-anchor="end" fill="#000000" font-style="italic" font-family="Verdana, sans-serif">CHAR</text>
<text x="-137" y="126" font-size="11" text-anchor="end" fill="#666666" font-family="Verdana, sans-serif">Separator character for the output path generated by this FB</text>
<path d="M260,37 L260,47 L265,42 Z" fill="#63B31F" stroke="none" />
<text x="248" y="46" font-size="12" text-anchor="end" font-family="Consolas, monospace">CNF</text>
<text x="283" y="45" font-size="11" text-anchor="start" fill="#888" font-style="italic" font-family="Verdana, sans-serif">Event</text>
<text x="353" y="45" font-size="11" text-anchor="start" fill="#666666" font-family="Verdana, sans-serif">Confirmation of Requested Service</text>
<path d="M260,118 L260,128 L265,123 Z" fill="#BD8663" stroke="none" />
<text x="248" y="127" font-size="12" text-anchor="end" font-family="Consolas, monospace">Path</text>
<text x="283" y="126" font-size="11" text-anchor="start" fill="#BD8663" font-style="italic" font-family="Verdana, sans-serif">STRING</text>
<text x="353" y="126" font-size="11" text-anchor="start" fill="#666666" font-family="Verdana, sans-serif">Instance path of this FB</text>
<path d="M260,144 L260,154 L265,149 Z" fill="#BD8663" stroke="none" />
<text x="248" y="153" font-size="12" text-anchor="end" font-family="Consolas, monospace">Name</text>
<text x="283" y="152" font-size="11" text-anchor="start" fill="#BD8663" font-style="italic" font-family="Verdana, sans-serif">STRING</text>
<text x="353" y="152" font-size="11" text-anchor="start" fill="#666666" font-family="Verdana, sans-serif">Instance name of this FB</text>
<path d="M-12,42 L-12,123" stroke="#404040" stroke-width="1" />
<path d="M0,42 L-12,42" stroke="#404040" />
<rect x="-14" y="40" width="4" height="4" fill="white" stroke="black" stroke-width="1" />
<path d="M-12,123 L-5,123" stroke="#404040" />
<rect x="-14" y="121" width="4" height="4" fill="white" stroke="black" stroke-width="1" />
<path d="M272,42 L272,149" stroke="#404040" stroke-width="1" />
<path d="M260,42 L272,42" stroke="#404040" />
<rect x="270" y="40" width="4" height="4" fill="white" stroke="black" stroke-width="1" />
<path d="M272,123 L265,123" stroke="#404040" />
<rect x="270" y="121" width="4" height="4" fill="white" stroke="black" stroke-width="1" />
<path d="M272,149 L265,149" stroke="#404040" />
<rect x="270" y="147" width="4" height="4" fill="white" stroke="black" stroke-width="1" />
</svg>