<?xml version="1.0" encoding="UTF-8"?>
<svg xmlns="http://www.w3.org/2000/svg" xmlns:xlink="http://www.w3.org/1999/xlink"
     width="1278" height="353" viewBox="-548 -20 1278 353">
<defs>
</defs>
<rect x="3" y="3" width="190" height="303" fill="#000000" fill-opacity="0.1" rx="2" ry="2" />
<path d="M0,0 H190 V66 H184 V106 H190 V303 H0 V106 H6 V66 H0 Z" fill="#ffffff" stroke="#000000" stroke-width="2" />
<path d="M0,30 L190,30" stroke="#000000" stroke-width="1" />
<text x="95.0" y="84.0" font-size="14" fontWeight="bold" font-family="Verdana, sans-serif" font-style="italic" text-anchor="middle" dominant-baseline="central">AR_CALIBRATE_3P</text>
<text x="95.0" y="98.0" font-size="10" fill="#000" font-family="Consolas, monospace" text-anchor="middle" dominant-baseline="central">1.0</text>
<path d="M-5,37 L-5,47 L0,42 Z" fill="#63B31F" stroke="none" />
<text x="12" y="46" font-size="12" text-anchor="start" font-family="Consolas, monospace">SET</text>
<text x="-23" y="45" font-size="11" text-anchor="end" fill="#888" font-style="italic" font-family="Verdana, sans-serif">Event</text>
<text x="-105" y="45" font-size="11" text-anchor="end" fill="#666666" font-family="Verdana, sans-serif">Set Reference Values</text>
<rect x="-5.0" y="118.0" width="10" height="10" fill="white" stroke="#845DAF" stroke-width="2.5" />
<text x="12" y="127" font-size="12" text-anchor="start" font-family="Consolas, monospace">X</text>
<text x="-23" y="126" font-size="11" text-anchor="end" fill="#000" font-style="italic" font-family="Verdana, sans-serif">AR</text>
<text x="-105" y="126" font-size="11" text-anchor="end" fill="#666666" font-family="Verdana, sans-serif">Raw Input</text>
<rect x="-5.0" y="144.0" width="10" height="10" fill="white" stroke="#845DAF" stroke-width="2.5" />
<text x="12" y="153" font-size="12" text-anchor="start" font-family="Consolas, monospace">C_MIN</text>
<text x="-23" y="152" font-size="11" text-anchor="end" fill="#000" font-style="italic" font-family="Verdana, sans-serif">AX</text>
<text x="-105" y="152" font-size="11" text-anchor="end" fill="#666666" font-family="Verdana, sans-serif">Calibrate Min Point</text>
<rect x="-5.0" y="170.0" width="10" height="10" fill="white" stroke="#845DAF" stroke-width="2.5" />
<text x="12" y="179" font-size="12" text-anchor="start" font-family="Consolas, monospace">C_MID</text>
<text x="-23" y="178" font-size="11" text-anchor="end" fill="#000" font-style="italic" font-family="Verdana, sans-serif">AX</text>
<text x="-105" y="178" font-size="11" text-anchor="end" fill="#666666" font-family="Verdana, sans-serif">Calibrate Mid Point</text>
<rect x="-5.0" y="196.0" width="10" height="10" fill="white" stroke="#845DAF" stroke-width="2.5" />
<text x="12" y="205" font-size="12" text-anchor="start" font-family="Consolas, monospace">C_MAX</text>
<text x="-23" y="204" font-size="11" text-anchor="end" fill="#000" font-style="italic" font-family="Verdana, sans-serif">AX</text>
<text x="-105" y="204" font-size="11" text-anchor="end" fill="#666666" font-family="Verdana, sans-serif">Calibrate Max Point</text>
<path d="M-5,222 L-5,232 L0,227 Z" fill="#DBB418" stroke="none" />
<text x="12" y="231" font-size="12" text-anchor="start" font-family="Consolas, monospace">MIN_REF</text>
<text x="-23" y="230" font-size="11" text-anchor="end" fill="#DBB418" font-style="italic" font-family="Verdana, sans-serif">REAL</text>
<text x="-105" y="230" font-size="11" text-anchor="end" fill="#666666" font-family="Verdana, sans-serif">Target value for Min</text>
<path d="M-5,248 L-5,258 L0,253 Z" fill="#DBB418" stroke="none" />
<text x="12" y="257" font-size="12" text-anchor="start" font-family="Consolas, monospace">MID_REF</text>
<text x="-23" y="256" font-size="11" text-anchor="end" fill="#DBB418" font-style="italic" font-family="Verdana, sans-serif">REAL</text>
<text x="-105" y="256" font-size="11" text-anchor="end" fill="#666666" font-family="Verdana, sans-serif">Target value for Mid</text>
<path d="M-5,274 L-5,284 L0,279 Z" fill="#DBB418" stroke="none" />
<text x="12" y="283" font-size="12" text-anchor="start" font-family="Consolas, monospace">MAX_REF</text>
<text x="-23" y="282" font-size="11" text-anchor="end" fill="#DBB418" font-style="italic" font-family="Verdana, sans-serif">REAL</text>
<text x="-105" y="282" font-size="11" text-anchor="end" fill="#666666" font-family="Verdana, sans-serif">Target value for Max</text>
<rect x="185.0" y="118.0" width="10" height="10" fill="#845DAF" stroke="none" />
<text x="178" y="127" font-size="12" text-anchor="end" font-family="Consolas, monospace">Y</text>
<text x="205" y="126" font-size="11" text-anchor="start" fill="#000" font-style="italic" font-family="Verdana, sans-serif">AR</text>
<text x="275" y="126" font-size="11" text-anchor="start" fill="#666666" font-family="Verdana, sans-serif">Calibrated Output</text>
<rect x="185.0" y="144.0" width="10" height="10" fill="#845DAF" stroke="none" />
<text x="178" y="153" font-size="12" text-anchor="end" font-family="Consolas, monospace">X_MIN</text>
<text x="205" y="152" font-size="11" text-anchor="start" fill="#000" font-style="italic" font-family="Verdana, sans-serif">AR2</text>
<text x="275" y="152" font-size="11" text-anchor="start" fill="#666666" font-family="Verdana, sans-serif">Stored Min Value</text>
<rect x="185.0" y="170.0" width="10" height="10" fill="#845DAF" stroke="none" />
<text x="178" y="179" font-size="12" text-anchor="end" font-family="Consolas, monospace">X_MID</text>
<text x="205" y="178" font-size="11" text-anchor="start" fill="#000" font-style="italic" font-family="Verdana, sans-serif">AR2</text>
<text x="275" y="178" font-size="11" text-anchor="start" fill="#666666" font-family="Verdana, sans-serif">Stored Mid Value</text>
<rect x="185.0" y="196.0" width="10" height="10" fill="#845DAF" stroke="none" />
<text x="178" y="205" font-size="12" text-anchor="end" font-family="Consolas, monospace">X_MAX</text>
<text x="205" y="204" font-size="11" text-anchor="start" fill="#000" font-style="italic" font-family="Verdana, sans-serif">AR2</text>
<text x="275" y="204" font-size="11" text-anchor="start" fill="#666666" font-family="Verdana, sans-serif">Stored Max Value</text>
<path d="M-12,42 L-12,279" stroke="#404040" stroke-width="1" />
<path d="M0,42 L-12,42" stroke="#404040" />
<rect x="-14" y="40" width="4" height="4" fill="white" stroke="black" stroke-width="1" />
<path d="M-12,227 L-5,227" stroke="#404040" />
<rect x="-14" y="225" width="4" height="4" fill="white" stroke="black" stroke-width="1" />
<path d="M-12,253 L-5,253" stroke="#404040" />
<rect x="-14" y="251" width="4" height="4" fill="white" stroke="black" stroke-width="1" />
<path d="M-12,279 L-5,279" stroke="#404040" />
<rect x="-14" y="277" width="4" height="4" fill="white" stroke="black" stroke-width="1" />
</svg>