<?xml version="1.0" encoding="UTF-8"?>
<svg xmlns="http://www.w3.org/2000/svg" xmlns:xlink="http://www.w3.org/1999/xlink"
     width="1248" height="301" viewBox="-548 -20 1248 301">
<defs>
</defs>
<rect x="3" y="3" width="160" height="251" fill="#000000" fill-opacity="0.1" rx="2" ry="2" />
<path d="M0,0 H160 V66 H154 V106 H160 V251 H0 V106 H6 V66 H0 Z" fill="#ffffff" stroke="#000000" stroke-width="2" />
<path d="M0,30 L160,30" stroke="#000000" stroke-width="1" />
<text x="80.0" y="84.0" font-size="14" fontWeight="bold" font-family="Verdana, sans-serif" font-style="italic" text-anchor="middle" dominant-baseline="central">AR_CALIBRATE</text>
<text x="80.0" y="98.0" font-size="10" fill="#000" font-family="Consolas, monospace" text-anchor="middle" dominant-baseline="central">1.0</text>
<path d="M-5,37 L-5,47 L0,42 Z" fill="#63B31F" stroke="none" />
<text x="12" y="46" font-size="12" text-anchor="start" font-family="Consolas, monospace">SET</text>
<text x="-23" y="45" font-size="11" text-anchor="end" fill="#888" font-style="italic" font-family="Verdana, sans-serif">Event</text>
<text x="-126" y="45" font-size="11" text-anchor="end" fill="#666666" font-family="Verdana, sans-serif">Set References</text>
<rect x="-5.0" y="118.0" width="10" height="10" fill="white" stroke="#845DAF" stroke-width="2.5" />
<text x="12" y="127" font-size="12" text-anchor="start" font-family="Consolas, monospace">X</text>
<text x="-23" y="126" font-size="11" text-anchor="end" fill="#000" font-style="italic" font-family="Verdana, sans-serif">AR</text>
<text x="-126" y="126" font-size="11" text-anchor="end" fill="#666666" font-family="Verdana, sans-serif">Input</text>
<rect x="-5.0" y="144.0" width="10" height="10" fill="white" stroke="#845DAF" stroke-width="2.5" />
<text x="12" y="153" font-size="12" text-anchor="start" font-family="Consolas, monospace">CO</text>
<text x="-23" y="152" font-size="11" text-anchor="end" fill="#000" font-style="italic" font-family="Verdana, sans-serif">AX</text>
<text x="-126" y="152" font-size="11" text-anchor="end" fill="#666666" font-family="Verdana, sans-serif">Calibrate Offset</text>
<rect x="-5.0" y="170.0" width="10" height="10" fill="white" stroke="#845DAF" stroke-width="2.5" />
<text x="12" y="179" font-size="12" text-anchor="start" font-family="Consolas, monospace">CS</text>
<text x="-23" y="178" font-size="11" text-anchor="end" fill="#000" font-style="italic" font-family="Verdana, sans-serif">AX</text>
<text x="-126" y="178" font-size="11" text-anchor="end" fill="#666666" font-family="Verdana, sans-serif">Calibrate Scale</text>
<path d="M-5,196 L-5,206 L0,201 Z" fill="#DBB418" stroke="none" />
<text x="12" y="205" font-size="12" text-anchor="start" font-family="Consolas, monospace">Y_Offset</text>
<text x="-23" y="204" font-size="11" text-anchor="end" fill="#DBB418" font-style="italic" font-family="Verdana, sans-serif">REAL</text>
<text x="-126" y="204" font-size="11" text-anchor="end" fill="#666666" font-family="Verdana, sans-serif">Reference for offset calibration</text>
<path d="M-5,222 L-5,232 L0,227 Z" fill="#DBB418" stroke="none" />
<text x="12" y="231" font-size="12" text-anchor="start" font-family="Consolas, monospace">Y_Scale</text>
<text x="-23" y="230" font-size="11" text-anchor="end" fill="#DBB418" font-style="italic" font-family="Verdana, sans-serif">REAL</text>
<text x="-126" y="230" font-size="11" text-anchor="end" fill="#666666" font-family="Verdana, sans-serif">Reference for scale calibration</text>
<rect x="155.0" y="118.0" width="10" height="10" fill="#845DAF" stroke="none" />
<text x="148" y="127" font-size="12" text-anchor="end" font-family="Consolas, monospace">Y</text>
<text x="175" y="126" font-size="11" text-anchor="start" fill="#000" font-style="italic" font-family="Verdana, sans-serif">AR</text>
<text x="245" y="126" font-size="11" text-anchor="start" fill="#666666" font-family="Verdana, sans-serif">Calibrated Output</text>
<rect x="155.0" y="144.0" width="10" height="10" fill="#845DAF" stroke="none" />
<text x="148" y="153" font-size="12" text-anchor="end" font-family="Consolas, monospace">OFFSET</text>
<text x="175" y="152" font-size="11" text-anchor="start" fill="#000" font-style="italic" font-family="Verdana, sans-serif">AR2</text>
<text x="245" y="152" font-size="11" text-anchor="start" fill="#666666" font-family="Verdana, sans-serif">Offset value</text>
<rect x="155.0" y="170.0" width="10" height="10" fill="#845DAF" stroke="none" />
<text x="148" y="179" font-size="12" text-anchor="end" font-family="Consolas, monospace">SCALE</text>
<text x="175" y="178" font-size="11" text-anchor="start" fill="#000" font-style="italic" font-family="Verdana, sans-serif">AR2</text>
<text x="245" y="178" font-size="11" text-anchor="start" fill="#666666" font-family="Verdana, sans-serif">Scale value</text>
<path d="M-12,42 L-12,227" stroke="#404040" stroke-width="1" />
<path d="M0,42 L-12,42" stroke="#404040" />
<rect x="-14" y="40" width="4" height="4" fill="white" stroke="black" stroke-width="1" />
<path d="M-12,201 L-5,201" stroke="#404040" />
<rect x="-14" y="199" width="4" height="4" fill="white" stroke="black" stroke-width="1" />
<path d="M-12,227 L-5,227" stroke="#404040" />
<rect x="-14" y="225" width="4" height="4" fill="white" stroke="black" stroke-width="1" />
</svg>