<?xml version="1.0" encoding="UTF-8"?>
<svg xmlns="http://www.w3.org/2000/svg" xmlns:xlink="http://www.w3.org/1999/xlink"
     width="1346" height="223" viewBox="-548 -20 1346 223">
<defs>
</defs>
<rect x="3" y="3" width="250" height="173" fill="#000000" fill-opacity="0.1" rx="2" ry="2" />
<path d="M0,0 H250 V66 H244 V106 H250 V173 H0 V106 H6 V66 H0 Z" fill="#ffffff" stroke="#000000" stroke-width="2" />
<path d="M0,30 L250,30" stroke="#000000" stroke-width="1" />
<text x="125.0" y="84.0" font-size="14" fontWeight="bold" font-family="Verdana, sans-serif" font-style="italic" text-anchor="middle" dominant-baseline="central">SPLIT_MI_DO_S_Dual_SA</text>
<text x="125.0" y="98.0" font-size="10" fill="#000" font-family="Consolas, monospace" text-anchor="middle" dominant-baseline="central">1.0</text>
<path d="M-5,37 L-5,47 L0,42 Z" fill="#63B31F" stroke="none" />
<text x="12" y="46" font-size="12" text-anchor="start" font-family="Consolas, monospace">REQ</text>
<text x="-23" y="45" font-size="11" text-anchor="end" fill="#888" font-style="italic" font-family="Verdana, sans-serif">Event</text>
<text x="-116" y="45" font-size="11" text-anchor="end" fill="#666666" font-family="Verdana, sans-serif">Service Request</text>
<path d="M-5,118 L-5,128 L0,123 Z" fill="#000000" stroke="none" />
<text x="12" y="127" font-size="12" text-anchor="start" font-family="Consolas, monospace">IN</text>
<text x="-23" y="126" font-size="11" text-anchor="end" fill="#000000" font-style="italic" font-family="Verdana, sans-serif">DataPanel_MI_DO_S_Dual_SA</text>
<text x="-116" y="126" font-size="11" text-anchor="end" fill="#666666" font-family="Verdana, sans-serif">Dual Input</text>
<path d="M250,37 L250,47 L255,42 Z" fill="#63B31F" stroke="none" />
<text x="238" y="46" font-size="12" text-anchor="end" font-family="Consolas, monospace">CNF</text>
<text x="273" y="45" font-size="11" text-anchor="start" fill="#888" font-style="italic" font-family="Verdana, sans-serif">Event</text>
<text x="343" y="45" font-size="11" text-anchor="start" fill="#666666" font-family="Verdana, sans-serif">Confirmation of Requested Service</text>
<path d="M250,118 L250,128 L255,123 Z" fill="#000000" stroke="none" />
<text x="238" y="127" font-size="12" text-anchor="end" font-family="Consolas, monospace">UP</text>
<text x="273" y="126" font-size="11" text-anchor="start" fill="#000000" font-style="italic" font-family="Verdana, sans-serif">DataPanel_MI_DO_S_Single_SA</text>
<text x="343" y="126" font-size="11" text-anchor="start" fill="#666666" font-family="Verdana, sans-serif"> forward, up, right, clockwise</text>
<path d="M250,144 L250,154 L255,149 Z" fill="#000000" stroke="none" />
<text x="238" y="153" font-size="12" text-anchor="end" font-family="Consolas, monospace">DOWN</text>
<text x="273" y="152" font-size="11" text-anchor="start" fill="#000000" font-style="italic" font-family="Verdana, sans-serif">DataPanel_MI_DO_S_Single_SA</text>
<text x="343" y="152" font-size="11" text-anchor="start" fill="#666666" font-family="Verdana, sans-serif">backward, down, left, counter-clockwise</text>
<path d="M-12,42 L-12,123" stroke="#404040" stroke-width="1" />
<path d="M0,42 L-12,42" stroke="#404040" />
<rect x="-14" y="40" width="4" height="4" fill="white" stroke="black" stroke-width="1" />
<path d="M-12,123 L-5,123" stroke="#404040" />
<rect x="-14" y="121" width="4" height="4" fill="white" stroke="black" stroke-width="1" />
<path d="M262,42 L262,149" stroke="#404040" stroke-width="1" />
<path d="M250,42 L262,42" stroke="#404040" />
<rect x="260" y="40" width="4" height="4" fill="white" stroke="black" stroke-width="1" />
<path d="M262,123 L255,123" stroke="#404040" />
<rect x="260" y="121" width="4" height="4" fill="white" stroke="black" stroke-width="1" />
<path d="M262,149 L255,149" stroke="#404040" />
<rect x="260" y="147" width="4" height="4" fill="white" stroke="black" stroke-width="1" />
</svg>