<?xml version="1.0" encoding="UTF-8"?>
<svg xmlns="http://www.w3.org/2000/svg" xmlns:xlink="http://www.w3.org/1999/xlink"
     width="1062" height="405" viewBox="-548 -20 1062 405">
<defs>
</defs>
<rect x="3" y="3" width="200" height="355" fill="#000000" fill-opacity="0.1" rx="2" ry="2" />
<path d="M0,0 H200 V170 H194 V210 H200 V355 H0 V210 H6 V170 H0 Z" fill="#ffffff" stroke="#606060" stroke-width="2" />
<path d="M0,30 L200,30" stroke="#606060" stroke-width="1" />
<text x="100.0" y="188.0" font-size="14" fontWeight="bold" font-family="Verdana, sans-serif" font-style="italic" text-anchor="middle" dominant-baseline="central">AlPgnTxNew8B_REQ</text>
<text x="100.0" y="202.0" font-size="10" fill="#000" font-family="Consolas, monospace" text-anchor="middle" dominant-baseline="central">1.0</text>
<path d="M-5,37 L-5,47 L0,42 Z" fill="#5cb85c" stroke="none" />
<text x="12" y="46" font-size="12" text-anchor="start" font-family="Consolas, monospace">INIT</text>
<text x="-23" y="45" font-size="11" text-anchor="end" fill="#888" font-style="italic" font-family="Verdana, sans-serif">Event</text>
<text x="-93" y="45" font-size="11" text-anchor="end" fill="#666666" font-family="Verdana, sans-serif">Service Initialization</text>
<path d="M-5,63 L-5,73 L0,68 Z" fill="#5cb85c" stroke="none" />
<text x="12" y="72" font-size="12" text-anchor="start" font-family="Consolas, monospace">install</text>
<text x="-23" y="71" font-size="11" text-anchor="end" fill="#888" font-style="italic" font-family="Verdana, sans-serif">Event</text>
<text x="-93" y="71" font-size="11" text-anchor="end" fill="#666666" font-family="Verdana, sans-serif">installs a Transmit PGN (TX) </text>
<rect x="-5.0" y="222.0" width="10" height="10" fill="white" stroke="#985ec9" stroke-width="2.5" />
<text x="12" y="231" font-size="12" text-anchor="start" font-family="Consolas, monospace">CB</text>
<text x="-23" y="230" font-size="11" text-anchor="end" fill="#000" font-style="italic" font-family="Verdana, sans-serif">Callback</text>
<path d="M-5,248 L-5,258 L0,253 Z" fill="#0066cc" stroke="none" />
<text x="12" y="257" font-size="12" text-anchor="start" font-family="Consolas, monospace">u32Pgn</text>
<text x="-23" y="256" font-size="11" text-anchor="end" fill="#0066cc" font-style="italic" font-family="Verdana, sans-serif">UDINT</text>
<text x="-93" y="256" font-size="11" text-anchor="end" fill="#666666" font-family="Verdana, sans-serif">PGN - Range: 0 - 0x3FFFF </text>
<path d="M-5,274 L-5,284 L0,279 Z" fill="#0066cc" stroke="none" />
<text x="12" y="283" font-size="12" text-anchor="start" font-family="Consolas, monospace">NmDestin</text>
<text x="-23" y="282" font-size="11" text-anchor="end" fill="#0066cc" font-style="italic" font-family="Verdana, sans-serif">ISONETEVENT_T</text>
<text x="-93" y="282" font-size="11" text-anchor="end" fill="#666666" font-family="Verdana, sans-serif">Define the Communication Partner</text>
<path d="M-5,300 L-5,310 L0,305 Z" fill="#0066cc" stroke="none" />
<text x="12" y="309" font-size="12" text-anchor="start" font-family="Consolas, monospace">u16DaSize</text>
<text x="-23" y="308" font-size="11" text-anchor="end" fill="#0066cc" font-style="italic" font-family="Verdana, sans-serif">UINT</text>
<text x="-93" y="308" font-size="11" text-anchor="end" fill="#666666" font-family="Verdana, sans-serif">Data length of this PGN (0..8)</text>
<path d="M-5,326 L-5,336 L0,331 Z" fill="#0066cc" stroke="none" />
<text x="12" y="335" font-size="12" text-anchor="start" font-family="Consolas, monospace">u8Priority</text>
<text x="-23" y="334" font-size="11" text-anchor="end" fill="#0066cc" font-style="italic" font-family="Verdana, sans-serif">USINT</text>
<text x="-123" y="334" font-size="11" text-anchor="end" fill="#666666" font-family="Verdana, sans-serif">Default priority of this PGN (0..7) 0=highest</text>
<path d="M200,37 L200,47 L205,42 Z" fill="#5cb85c" stroke="none" />
<text x="188" y="46" font-size="12" text-anchor="end" font-family="Consolas, monospace">INITO</text>
<text x="239" y="45" font-size="11" text-anchor="start" fill="#888" font-style="italic" font-family="Verdana, sans-serif">Event</text>
<text x="309" y="45" font-size="11" text-anchor="start" fill="#666666" font-family="Verdana, sans-serif">Initialization Confirm</text>
<path d="M200,63 L200,73 L205,68 Z" fill="#5cb85c" stroke="none" />
<text x="188" y="72" font-size="12" text-anchor="end" font-family="Consolas, monospace">installO</text>
<text x="239" y="71" font-size="11" text-anchor="start" fill="#888" font-style="italic" font-family="Verdana, sans-serif">Event</text>
<text x="309" y="71" font-size="11" text-anchor="start" fill="#666666" font-family="Verdana, sans-serif">install Done</text>
<path d="M200,89 L200,99 L205,94 Z" fill="#5cb85c" stroke="none" />
<text x="188" y="98" font-size="12" text-anchor="end" font-family="Consolas, monospace">CNF</text>
<text x="239" y="97" font-size="11" text-anchor="start" fill="#888" font-style="italic" font-family="Verdana, sans-serif">Event</text>
<text x="309" y="97" font-size="11" text-anchor="start" fill="#666666" font-family="Verdana, sans-serif">Data was sent</text>
<path d="M200,115 L200,125 L205,120 Z" fill="#5cb85c" stroke="none" />
<text x="188" y="124" font-size="12" text-anchor="end" font-family="Consolas, monospace">dataERR</text>
<text x="239" y="123" font-size="11" text-anchor="start" fill="#888" font-style="italic" font-family="Verdana, sans-serif">Event</text>
<path d="M200,141 L200,151 L205,146 Z" fill="#5cb85c" stroke="none" />
<text x="188" y="150" font-size="12" text-anchor="end" font-family="Consolas, monospace">pgnERR</text>
<text x="239" y="149" font-size="11" text-anchor="start" fill="#888" font-style="italic" font-family="Verdana, sans-serif">Event</text>
<path d="M200,222 L200,232 L205,227 Z" fill="#0066cc" stroke="none" />
<text x="188" y="231" font-size="12" text-anchor="end" font-family="Consolas, monospace">PGN_handle</text>
<text x="239" y="230" font-size="11" text-anchor="start" fill="#0066cc" font-style="italic" font-family="Verdana, sans-serif">INT</text>
<text x="309" y="230" font-size="11" text-anchor="start" fill="#666666" font-family="Verdana, sans-serif">PGN-handle on success, HANDLE_UNVALID in case of an error </text>
<path d="M200,248 L200,258 L205,253 Z" fill="#0066cc" stroke="none" />
<text x="188" y="257" font-size="12" text-anchor="end" font-family="Consolas, monospace">dataERRC</text>
<text x="239" y="256" font-size="11" text-anchor="start" fill="#0066cc" font-style="italic" font-family="Verdana, sans-serif">INT</text>
<text x="309" y="256" font-size="11" text-anchor="start" fill="#666666" font-family="Verdana, sans-serif">dataERR error Code</text>
<path d="M200,274 L200,284 L205,279 Z" fill="#0066cc" stroke="none" />
<text x="188" y="283" font-size="12" text-anchor="end" font-family="Consolas, monospace">pgnERRC</text>
<text x="239" y="282" font-size="11" text-anchor="start" fill="#0066cc" font-style="italic" font-family="Verdana, sans-serif">INT</text>
<text x="309" y="282" font-size="11" text-anchor="start" fill="#666666" font-family="Verdana, sans-serif">pgnERR error Code</text>
<path d="M-12,68 L-12,331" stroke="#404040" stroke-width="1" />
<path d="M0,68 L-12,68" stroke="#404040" />
<rect x="-14" y="66" width="4" height="4" fill="white" stroke="black" stroke-width="1" />
<path d="M-12,253 L-5,253" stroke="#404040" />
<rect x="-14" y="251" width="4" height="4" fill="white" stroke="black" stroke-width="1" />
<path d="M-12,279 L-5,279" stroke="#404040" />
<rect x="-14" y="277" width="4" height="4" fill="white" stroke="black" stroke-width="1" />
<path d="M-12,305 L-5,305" stroke="#404040" />
<rect x="-14" y="303" width="4" height="4" fill="white" stroke="black" stroke-width="1" />
<path d="M-12,331 L-5,331" stroke="#404040" />
<rect x="-14" y="329" width="4" height="4" fill="white" stroke="black" stroke-width="1" />
<path d="M212,68 L212,227" stroke="#404040" stroke-width="1" />
<path d="M200,68 L212,68" stroke="#404040" />
<rect x="210" y="66" width="4" height="4" fill="white" stroke="black" stroke-width="1" />
<path d="M212,227 L205,227" stroke="#404040" />
<rect x="210" y="225" width="4" height="4" fill="white" stroke="black" stroke-width="1" />
<path d="M220,120 L220,253" stroke="#404040" stroke-width="1" />
<path d="M200,120 L220,120" stroke="#404040" />
<rect x="218" y="118" width="4" height="4" fill="white" stroke="black" stroke-width="1" />
<path d="M220,253 L205,253" stroke="#404040" />
<rect x="218" y="251" width="4" height="4" fill="white" stroke="black" stroke-width="1" />
<path d="M228,146 L228,279" stroke="#404040" stroke-width="1" />
<path d="M200,146 L228,146" stroke="#404040" />
<rect x="226" y="144" width="4" height="4" fill="white" stroke="black" stroke-width="1" />
<path d="M228,279 L205,279" stroke="#404040" />
<rect x="226" y="277" width="4" height="4" fill="white" stroke="black" stroke-width="1" />
</svg>