<?xml version="1.0" encoding="UTF-8"?>
<svg xmlns="http://www.w3.org/2000/svg" xmlns:xlink="http://www.w3.org/1999/xlink"
     width="1278" height="223" viewBox="-548 -20 1278 223">
<defs>
</defs>
<rect x="3" y="3" width="190" height="173" fill="#000000" fill-opacity="0.1" rx="2" ry="2" />
<path d="M0,0 H190 V92 H184 V132 H190 V173 H0 V132 H6 V92 H0 Z" fill="#ffffff" stroke="#000000" stroke-width="2" />
<path d="M0,30 L190,30" stroke="#000000" stroke-width="1" />
<text x="95.0" y="110.0" font-size="14" fontWeight="bold" font-family="Verdana, sans-serif" font-style="italic" text-anchor="middle" dominant-baseline="central">AX_PULSE_RETRIG</text>
<text x="95.0" y="124.0" font-size="10" fill="#000" font-family="Consolas, monospace" text-anchor="middle" dominant-baseline="central">1.0</text>
<path d="M-5,37 L-5,47 L0,42 Z" fill="#63B31F" stroke="none" />
<text x="12" y="46" font-size="12" text-anchor="start" font-family="Consolas, monospace">REQ</text>
<text x="-23" y="45" font-size="11" text-anchor="end" fill="#888" font-style="italic" font-family="Verdana, sans-serif">Event</text>
<text x="-122" y="45" font-size="11" text-anchor="end" fill="#666666" font-family="Verdana, sans-serif">Service Request (Restarts the timer)</text>
<path d="M-5,63 L-5,73 L0,68 Z" fill="#63B31F" stroke="none" />
<text x="12" y="72" font-size="12" text-anchor="start" font-family="Consolas, monospace">R</text>
<text x="-23" y="71" font-size="11" text-anchor="end" fill="#888" font-style="italic" font-family="Verdana, sans-serif">Event</text>
<text x="-122" y="71" font-size="11" text-anchor="end" fill="#666666" font-family="Verdana, sans-serif">Reset</text>
<path d="M-5,144 L-5,154 L0,149 Z" fill="#0000FF" stroke="none" />
<text x="12" y="153" font-size="12" text-anchor="start" font-family="Consolas, monospace">PT</text>
<text x="-23" y="152" font-size="11" text-anchor="end" fill="#0000FF" font-style="italic" font-family="Verdana, sans-serif">TIME</text>
<text x="-122" y="152" font-size="11" text-anchor="end" fill="#666666" font-family="Verdana, sans-serif">Pulse time</text>
<rect x="185.0" y="144.0" width="10" height="10" fill="#845DAF" stroke="none" />
<text x="178" y="153" font-size="12" text-anchor="end" font-family="Consolas, monospace">Q</text>
<text x="205" y="152" font-size="11" text-anchor="start" fill="#000" font-style="italic" font-family="Verdana, sans-serif">AX</text>
<text x="275" y="152" font-size="11" text-anchor="start" fill="#666666" font-family="Verdana, sans-serif">Timer output (AX adapter)</text>
<path d="M-12,42 L-12,149" stroke="#404040" stroke-width="1" />
<path d="M0,42 L-12,42" stroke="#404040" />
<rect x="-14" y="40" width="4" height="4" fill="white" stroke="black" stroke-width="1" />
<path d="M-12,149 L-5,149" stroke="#404040" />
<rect x="-14" y="147" width="4" height="4" fill="white" stroke="black" stroke-width="1" />
</svg>