<?xml version="1.0" encoding="UTF-8"?>
<svg xmlns="http://www.w3.org/2000/svg" xmlns:xlink="http://www.w3.org/1999/xlink"
     width="1240" height="249" viewBox="-540 -20 1240 249">
<defs>
</defs>
<rect x="3" y="3" width="160" height="199" fill="#000000" fill-opacity="0.1" rx="2" ry="2" />
<path d="M0,0 H160 V66 H154 V106 H160 V199 H0 V106 H6 V66 H0 Z" fill="#ffffff" stroke="#000000" stroke-width="2" />
<path d="M0,30 L160,30" stroke="#000000" stroke-width="1" />
<text x="80.0" y="84.0" font-size="14" fontWeight="bold" font-family="Verdana, sans-serif" font-style="italic" text-anchor="middle" dominant-baseline="central">ATM_AX_TONOF</text>
<text x="80.0" y="98.0" font-size="10" fill="#000" font-family="Consolas, monospace" text-anchor="middle" dominant-baseline="central">3.0</text>
<path d="M-5,37 L-5,47 L0,42 Z" fill="#63B31F" stroke="none" />
<text x="12" y="46" font-size="12" text-anchor="start" font-family="Consolas, monospace">R</text>
<text x="-15" y="45" font-size="11" text-anchor="end" fill="#888" font-style="italic" font-family="Verdana, sans-serif">Event</text>
<text x="-104" y="45" font-size="11" text-anchor="end" fill="#666666" font-family="Verdana, sans-serif">Reset</text>
<rect x="-5.0" y="118.0" width="10" height="10" fill="white" stroke="#845DAF" stroke-width="2.5" />
<text x="12" y="127" font-size="12" text-anchor="start" font-family="Consolas, monospace">IN</text>
<text x="-15" y="126" font-size="11" text-anchor="end" fill="#000" font-style="italic" font-family="Verdana, sans-serif">AX</text>
<text x="-104" y="126" font-size="11" text-anchor="end" fill="#666666" font-family="Verdana, sans-serif">Timer input (AX adapter)</text>
<rect x="-5.0" y="144.0" width="10" height="10" fill="white" stroke="#845DAF" stroke-width="2.5" />
<text x="12" y="153" font-size="12" text-anchor="start" font-family="Consolas, monospace">PT_ON</text>
<text x="-15" y="152" font-size="11" text-anchor="end" fill="#000" font-style="italic" font-family="Verdana, sans-serif">ATM</text>
<text x="-104" y="152" font-size="11" text-anchor="end" fill="#666666" font-family="Verdana, sans-serif">ON delay time (AT adapter)</text>
<rect x="-5.0" y="170.0" width="10" height="10" fill="white" stroke="#845DAF" stroke-width="2.5" />
<text x="12" y="179" font-size="12" text-anchor="start" font-family="Consolas, monospace">PT_OFF</text>
<text x="-15" y="178" font-size="11" text-anchor="end" fill="#000" font-style="italic" font-family="Verdana, sans-serif">ATM</text>
<text x="-104" y="178" font-size="11" text-anchor="end" fill="#666666" font-family="Verdana, sans-serif">OFF delay time (AT adapter)</text>
<rect x="155.0" y="118.0" width="10" height="10" fill="#845DAF" stroke="none" />
<text x="148" y="127" font-size="12" text-anchor="end" font-family="Consolas, monospace">Q</text>
<text x="175" y="126" font-size="11" text-anchor="start" fill="#000" font-style="italic" font-family="Verdana, sans-serif">AX</text>
<text x="245" y="126" font-size="11" text-anchor="start" fill="#666666" font-family="Verdana, sans-serif">Timer output (AX adapter)</text>
</svg>