<?xml version="1.0" encoding="UTF-8"?>
<svg xmlns="http://www.w3.org/2000/svg" xmlns:xlink="http://www.w3.org/1999/xlink"
     width="1104" height="275" viewBox="-556 -20 1104 275">
<defs>
</defs>
<rect x="3" y="3" width="250" height="225" fill="#000000" fill-opacity="0.1" rx="2" ry="2" />
<path d="M0,0 H250 V92 H244 V132 H250 V225 H0 V132 H6 V92 H0 Z" fill="#ffffff" stroke="#606060" stroke-width="2" />
<path d="M0,30 L250,30" stroke="#606060" stroke-width="1" />
<text x="125.0" y="110.0" font-size="14" fontWeight="bold" font-family="Verdana, sans-serif" font-style="italic" text-anchor="middle" dominant-baseline="central">Q_BackgroundColourAux</text>
<text x="125.0" y="124.0" font-size="10" fill="#000" font-family="Consolas, monospace" text-anchor="middle" dominant-baseline="central">1.0</text>
<path d="M-5,37 L-5,47 L0,42 Z" fill="#5cb85c" stroke="none" />
<text x="12" y="46" font-size="12" text-anchor="start" font-family="Consolas, monospace">INIT</text>
<text x="-31" y="45" font-size="11" text-anchor="end" fill="#888" font-style="italic" font-family="Verdana, sans-serif">Event</text>
<text x="-101" y="45" font-size="11" text-anchor="end" fill="#666666" font-family="Verdana, sans-serif">Service Initialization</text>
<path d="M-5,63 L-5,73 L0,68 Z" fill="#5cb85c" stroke="none" />
<text x="12" y="72" font-size="12" text-anchor="start" font-family="Consolas, monospace">REQ</text>
<text x="-31" y="71" font-size="11" text-anchor="end" fill="#888" font-style="italic" font-family="Verdana, sans-serif">Event</text>
<text x="-101" y="71" font-size="11" text-anchor="end" fill="#666666" font-family="Verdana, sans-serif">Service Request</text>
<path d="M-5,144 L-5,154 L0,149 Z" fill="#0066cc" stroke="none" />
<text x="12" y="153" font-size="12" text-anchor="start" font-family="Consolas, monospace">u16ObjId</text>
<text x="-31" y="152" font-size="11" text-anchor="end" fill="#0066cc" font-style="italic" font-family="Verdana, sans-serif">UINT</text>
<text x="-101" y="152" font-size="11" text-anchor="end" fill="#666666" font-family="Verdana, sans-serif">Object ID</text>
<path d="M-5,170 L-5,180 L0,175 Z" fill="#0066cc" stroke="none" />
<text x="12" y="179" font-size="12" text-anchor="start" font-family="Consolas, monospace">u8Colour</text>
<text x="-31" y="178" font-size="11" text-anchor="end" fill="#0066cc" font-style="italic" font-family="Verdana, sans-serif">USINT</text>
<text x="-151" y="178" font-size="11" text-anchor="end" fill="#666666" font-family="Verdana, sans-serif">New Background colour see Part 6 - A.3 VT standard colour palette</text>
<path d="M250,37 L250,47 L255,42 Z" fill="#5cb85c" stroke="none" />
<text x="238" y="46" font-size="12" text-anchor="end" font-family="Consolas, monospace">INITO</text>
<text x="273" y="45" font-size="11" text-anchor="start" fill="#888" font-style="italic" font-family="Verdana, sans-serif">Event</text>
<text x="343" y="45" font-size="11" text-anchor="start" fill="#666666" font-family="Verdana, sans-serif">Initialization Confirm</text>
<path d="M250,63 L250,73 L255,68 Z" fill="#5cb85c" stroke="none" />
<text x="238" y="72" font-size="12" text-anchor="end" font-family="Consolas, monospace">CNF</text>
<text x="273" y="71" font-size="11" text-anchor="start" fill="#888" font-style="italic" font-family="Verdana, sans-serif">Event</text>
<text x="343" y="71" font-size="11" text-anchor="start" fill="#666666" font-family="Verdana, sans-serif">Confirmation of Requested Service</text>
<path d="M250,144 L250,154 L255,149 Z" fill="#0066cc" stroke="none" />
<text x="238" y="153" font-size="12" text-anchor="end" font-family="Consolas, monospace">STATUS</text>
<text x="273" y="152" font-size="11" text-anchor="start" fill="#0066cc" font-style="italic" font-family="Verdana, sans-serif">STRING</text>
<text x="343" y="152" font-size="11" text-anchor="start" fill="#666666" font-family="Verdana, sans-serif">Service Status</text>
<path d="M250,170 L250,180 L255,175 Z" fill="#0066cc" stroke="none" />
<text x="238" y="179" font-size="12" text-anchor="end" font-family="Consolas, monospace">u8OldColour</text>
<text x="273" y="178" font-size="11" text-anchor="start" fill="#0066cc" font-style="italic" font-family="Verdana, sans-serif">USINT</text>
<text x="343" y="178" font-size="11" text-anchor="start" fill="#666666" font-family="Verdana, sans-serif">Old value of ID</text>
<path d="M250,196 L250,206 L255,201 Z" fill="#0066cc" stroke="none" />
<text x="238" y="205" font-size="12" text-anchor="end" font-family="Consolas, monospace">s16result</text>
<text x="273" y="204" font-size="11" text-anchor="start" fill="#0066cc" font-style="italic" font-family="Verdana, sans-serif">INT</text>
<text x="343" y="204" font-size="11" text-anchor="start" fill="#666666" font-family="Verdana, sans-serif">retval see description</text>
<path d="M-12,42 L-12,149" stroke="#404040" stroke-width="1" />
<path d="M0,42 L-12,42" stroke="#404040" />
<rect x="-14" y="40" width="4" height="4" fill="white" stroke="black" stroke-width="1" />
<path d="M-12,149 L-5,149" stroke="#404040" />
<rect x="-14" y="147" width="4" height="4" fill="white" stroke="black" stroke-width="1" />
<path d="M-20,68 L-20,175" stroke="#404040" stroke-width="1" />
<path d="M0,68 L-20,68" stroke="#404040" />
<rect x="-22" y="66" width="4" height="4" fill="white" stroke="black" stroke-width="1" />
<path d="M-20,175 L-5,175" stroke="#404040" />
<rect x="-22" y="173" width="4" height="4" fill="white" stroke="black" stroke-width="1" />
<path d="M262,68 L262,201" stroke="#404040" stroke-width="1" />
<path d="M250,68 L262,68" stroke="#404040" />
<rect x="260" y="66" width="4" height="4" fill="white" stroke="black" stroke-width="1" />
<path d="M262,149 L255,149" stroke="#404040" />
<rect x="260" y="147" width="4" height="4" fill="white" stroke="black" stroke-width="1" />
<path d="M262,175 L255,175" stroke="#404040" />
<rect x="260" y="173" width="4" height="4" fill="white" stroke="black" stroke-width="1" />
<path d="M262,201 L255,201" stroke="#404040" />
<rect x="260" y="199" width="4" height="4" fill="white" stroke="black" stroke-width="1" />
</svg>