<?xml version="1.0" encoding="UTF-8"?>
<svg xmlns="http://www.w3.org/2000/svg" xmlns:xlink="http://www.w3.org/1999/xlink"
     width="1084" height="327" viewBox="-556 -20 1084 327">
<defs>
</defs>
<rect x="3" y="3" width="230" height="277" fill="#000000" fill-opacity="0.1" rx="2" ry="2" />
<path d="M0,0 H230 V92 H224 V132 H230 V277 H0 V132 H6 V92 H0 Z" fill="#ffffff" stroke="#000000" stroke-width="2" />
<path d="M0,30 L230,30" stroke="#000000" stroke-width="1" />
<text x="115.0" y="110.0" font-size="14" fontWeight="bold" font-family="Verdana, sans-serif" font-style="italic" text-anchor="middle" dominant-baseline="central">Q_ChangeObjectLabel</text>
<text x="115.0" y="124.0" font-size="10" fill="#000" font-family="Consolas, monospace" text-anchor="middle" dominant-baseline="central">1.0</text>
<path d="M-5,37 L-5,47 L0,42 Z" fill="#63B31F" stroke="none" />
<text x="12" y="46" font-size="12" text-anchor="start" font-family="Consolas, monospace">INIT</text>
<text x="-31" y="45" font-size="11" text-anchor="end" fill="#888" font-style="italic" font-family="Verdana, sans-serif">Event</text>
<text x="-101" y="45" font-size="11" text-anchor="end" fill="#666666" font-family="Verdana, sans-serif">Service Initialization</text>
<path d="M-5,63 L-5,73 L0,68 Z" fill="#63B31F" stroke="none" />
<text x="12" y="72" font-size="12" text-anchor="start" font-family="Consolas, monospace">REQ</text>
<text x="-31" y="71" font-size="11" text-anchor="end" fill="#888" font-style="italic" font-family="Verdana, sans-serif">Event</text>
<text x="-101" y="71" font-size="11" text-anchor="end" fill="#666666" font-family="Verdana, sans-serif">Service Request</text>
<path d="M-5,144 L-5,154 L0,149 Z" fill="#18519E" stroke="none" />
<text x="12" y="153" font-size="12" text-anchor="start" font-family="Consolas, monospace">u16ObjId</text>
<text x="-31" y="152" font-size="11" text-anchor="end" fill="#18519E" font-style="italic" font-family="Verdana, sans-serif">UINT</text>
<text x="-101" y="152" font-size="11" text-anchor="end" fill="#666666" font-family="Verdana, sans-serif">Object ID</text>
<path d="M-5,170 L-5,180 L0,175 Z" fill="#18519E" stroke="none" />
<text x="12" y="179" font-size="12" text-anchor="start" font-family="Consolas, monospace">u16ObIdStringVar</text>
<text x="-31" y="178" font-size="11" text-anchor="end" fill="#18519E" font-style="italic" font-family="Verdana, sans-serif">UINT</text>
<text x="-208" y="178" font-size="11" text-anchor="end" fill="#666666" font-family="Verdana, sans-serif">Object ID of a String Variable object that contains the label string (32 characters maximum) or FFFF if no text is supplied</text>
<path d="M-5,196 L-5,206 L0,201 Z" fill="#18519E" stroke="none" />
<text x="12" y="205" font-size="12" text-anchor="start" font-family="Consolas, monospace">u8FontType</text>
<text x="-31" y="204" font-size="11" text-anchor="end" fill="#18519E" font-style="italic" font-family="Verdana, sans-serif">USINT</text>
<text x="-187" y="204" font-size="11" text-anchor="end" fill="#666666" font-family="Verdana, sans-serif">Font type (ignored if String Variable object reference is NULL or the string contains a WideString ) </text>
<path d="M-5,222 L-5,232 L0,227 Z" fill="#18519E" stroke="none" />
<text x="12" y="231" font-size="12" text-anchor="start" font-family="Consolas, monospace">u16ObIdGrafic</text>
<text x="-31" y="230" font-size="11" text-anchor="end" fill="#18519E" font-style="italic" font-family="Verdana, sans-serif">UINT</text>
<text x="-202" y="230" font-size="11" text-anchor="end" fill="#666666" font-family="Verdana, sans-serif">Object ID of an object to be used as a graphic representation of the object label or FFFF16 if no designator supplied</text>
<path d="M230,37 L230,47 L235,42 Z" fill="#63B31F" stroke="none" />
<text x="218" y="46" font-size="12" text-anchor="end" font-family="Consolas, monospace">INITO</text>
<text x="253" y="45" font-size="11" text-anchor="start" fill="#888" font-style="italic" font-family="Verdana, sans-serif">Event</text>
<text x="323" y="45" font-size="11" text-anchor="start" fill="#666666" font-family="Verdana, sans-serif">Initialization Confirm</text>
<path d="M230,63 L230,73 L235,68 Z" fill="#63B31F" stroke="none" />
<text x="218" y="72" font-size="12" text-anchor="end" font-family="Consolas, monospace">CNF</text>
<text x="253" y="71" font-size="11" text-anchor="start" fill="#888" font-style="italic" font-family="Verdana, sans-serif">Event</text>
<text x="323" y="71" font-size="11" text-anchor="start" fill="#666666" font-family="Verdana, sans-serif">Confirmation of Requested Service</text>
<path d="M230,144 L230,154 L235,149 Z" fill="#BD8663" stroke="none" />
<text x="218" y="153" font-size="12" text-anchor="end" font-family="Consolas, monospace">STATUS</text>
<text x="253" y="152" font-size="11" text-anchor="start" fill="#BD8663" font-style="italic" font-family="Verdana, sans-serif">STRING</text>
<text x="323" y="152" font-size="11" text-anchor="start" fill="#666666" font-family="Verdana, sans-serif">Service Status</text>
<path d="M230,170 L230,180 L235,175 Z" fill="#18519E" stroke="none" />
<text x="218" y="179" font-size="12" text-anchor="end" font-family="Consolas, monospace">u16OldObIdStringVar</text>
<text x="253" y="178" font-size="11" text-anchor="start" fill="#18519E" font-style="italic" font-family="Verdana, sans-serif">UINT</text>
<text x="323" y="178" font-size="11" text-anchor="start" fill="#666666" font-family="Verdana, sans-serif">Old Object ID of a String Variable object that contains the label string (32 characters maximum) or FFFF if no text is supplied</text>
<path d="M230,196 L230,206 L235,201 Z" fill="#18519E" stroke="none" />
<text x="218" y="205" font-size="12" text-anchor="end" font-family="Consolas, monospace">u8OldFontType</text>
<text x="253" y="204" font-size="11" text-anchor="start" fill="#18519E" font-style="italic" font-family="Verdana, sans-serif">USINT</text>
<text x="323" y="204" font-size="11" text-anchor="start" fill="#666666" font-family="Verdana, sans-serif">Old value for attribute </text>
<path d="M230,222 L230,232 L235,227 Z" fill="#18519E" stroke="none" />
<text x="218" y="231" font-size="12" text-anchor="end" font-family="Consolas, monospace">u16OldObIdGrafic</text>
<text x="253" y="230" font-size="11" text-anchor="start" fill="#18519E" font-style="italic" font-family="Verdana, sans-serif">UINT</text>
<path d="M230,248 L230,258 L235,253 Z" fill="#18519E" stroke="none" />
<text x="218" y="257" font-size="12" text-anchor="end" font-family="Consolas, monospace">s16result</text>
<text x="253" y="256" font-size="11" text-anchor="start" fill="#18519E" font-style="italic" font-family="Verdana, sans-serif">INT</text>
<text x="323" y="256" font-size="11" text-anchor="start" fill="#666666" font-family="Verdana, sans-serif">retval see description</text>
<path d="M-12,42 L-12,149" stroke="#404040" stroke-width="1" />
<path d="M0,42 L-12,42" stroke="#404040" />
<rect x="-14" y="40" width="4" height="4" fill="white" stroke="black" stroke-width="1" />
<path d="M-12,149 L-5,149" stroke="#404040" />
<rect x="-14" y="147" width="4" height="4" fill="white" stroke="black" stroke-width="1" />
<path d="M-20,68 L-20,227" stroke="#404040" stroke-width="1" />
<path d="M0,68 L-20,68" stroke="#404040" />
<rect x="-22" y="66" width="4" height="4" fill="white" stroke="black" stroke-width="1" />
<path d="M-20,175 L-5,175" stroke="#404040" />
<rect x="-22" y="173" width="4" height="4" fill="white" stroke="black" stroke-width="1" />
<path d="M-20,201 L-5,201" stroke="#404040" />
<rect x="-22" y="199" width="4" height="4" fill="white" stroke="black" stroke-width="1" />
<path d="M-20,227 L-5,227" stroke="#404040" />
<rect x="-22" y="225" width="4" height="4" fill="white" stroke="black" stroke-width="1" />
<path d="M242,68 L242,253" stroke="#404040" stroke-width="1" />
<path d="M230,68 L242,68" stroke="#404040" />
<rect x="240" y="66" width="4" height="4" fill="white" stroke="black" stroke-width="1" />
<path d="M242,149 L235,149" stroke="#404040" />
<rect x="240" y="147" width="4" height="4" fill="white" stroke="black" stroke-width="1" />
<path d="M242,175 L235,175" stroke="#404040" />
<rect x="240" y="173" width="4" height="4" fill="white" stroke="black" stroke-width="1" />
<path d="M242,201 L235,201" stroke="#404040" />
<rect x="240" y="199" width="4" height="4" fill="white" stroke="black" stroke-width="1" />
<path d="M242,227 L235,227" stroke="#404040" />
<rect x="240" y="225" width="4" height="4" fill="white" stroke="black" stroke-width="1" />
<path d="M242,253 L235,253" stroke="#404040" />
<rect x="240" y="251" width="4" height="4" fill="white" stroke="black" stroke-width="1" />
<path d="M242,175 L235,175" stroke="#404040" />
<rect x="240" y="173" width="4" height="4" fill="white" stroke="black" stroke-width="1" />
<path d="M242,201 L235,201" stroke="#404040" />
<rect x="240" y="199" width="4" height="4" fill="white" stroke="black" stroke-width="1" />
<path d="M242,227 L235,227" stroke="#404040" />
<rect x="240" y="225" width="4" height="4" fill="white" stroke="black" stroke-width="1" />
</svg>