<?xml version="1.0" encoding="UTF-8"?>
<svg xmlns="http://www.w3.org/2000/svg" xmlns:xlink="http://www.w3.org/1999/xlink"
     width="1044" height="301" viewBox="-556 -20 1044 301">
<defs>
</defs>
<rect x="3" y="3" width="190" height="251" fill="#000000" fill-opacity="0.1" rx="2" ry="2" />
<path d="M0,0 H190 V92 H184 V132 H190 V251 H0 V132 H6 V92 H0 Z" fill="#ffffff" stroke="#000000" stroke-width="2" />
<path d="M0,30 L190,30" stroke="#000000" stroke-width="1" />
<text x="95.0" y="110.0" font-size="14" fontWeight="bold" font-family="Verdana, sans-serif" font-style="italic" text-anchor="middle" dominant-baseline="central">Q_ChildLocation</text>
<text x="95.0" y="124.0" font-size="10" fill="#000" font-family="Consolas, monospace" text-anchor="middle" dominant-baseline="central">1.0</text>
<path d="M-5,37 L-5,47 L0,42 Z" fill="#63B31F" stroke="none" />
<text x="12" y="46" font-size="12" text-anchor="start" font-family="Consolas, monospace">INIT</text>
<text x="-31" y="45" font-size="11" text-anchor="end" fill="#888" font-style="italic" font-family="Verdana, sans-serif">Event</text>
<text x="-101" y="45" font-size="11" text-anchor="end" fill="#666666" font-family="Verdana, sans-serif">Service Initialization</text>
<path d="M-5,63 L-5,73 L0,68 Z" fill="#63B31F" stroke="none" />
<text x="12" y="72" font-size="12" text-anchor="start" font-family="Consolas, monospace">REQ</text>
<text x="-31" y="71" font-size="11" text-anchor="end" fill="#888" font-style="italic" font-family="Verdana, sans-serif">Event</text>
<text x="-101" y="71" font-size="11" text-anchor="end" fill="#666666" font-family="Verdana, sans-serif">Service Request</text>
<path d="M-5,144 L-5,154 L0,149 Z" fill="#18519E" stroke="none" />
<text x="12" y="153" font-size="12" text-anchor="start" font-family="Consolas, monospace">u16ObjId</text>
<text x="-31" y="152" font-size="11" text-anchor="end" fill="#18519E" font-style="italic" font-family="Verdana, sans-serif">UINT</text>
<text x="-101" y="152" font-size="11" text-anchor="end" fill="#666666" font-family="Verdana, sans-serif">Object ID</text>
<path d="M-5,170 L-5,180 L0,175 Z" fill="#18519E" stroke="none" />
<text x="12" y="179" font-size="12" text-anchor="start" font-family="Consolas, monospace">u16ObjIdParent</text>
<text x="-31" y="178" font-size="11" text-anchor="end" fill="#18519E" font-style="italic" font-family="Verdana, sans-serif">UINT</text>
<text x="-101" y="178" font-size="11" text-anchor="end" fill="#666666" font-family="Verdana, sans-serif">Parent object ID </text>
<path d="M-5,196 L-5,206 L0,201 Z" fill="#18519E" stroke="none" />
<text x="12" y="205" font-size="12" text-anchor="start" font-family="Consolas, monospace">u8Xchange</text>
<text x="-31" y="204" font-size="11" text-anchor="end" fill="#18519E" font-style="italic" font-family="Verdana, sans-serif">USINT</text>
<text x="-140" y="204" font-size="11" text-anchor="end" fill="#666666" font-family="Verdana, sans-serif">Relative change in x position (interpreted as signed!)</text>
<path d="M-5,222 L-5,232 L0,227 Z" fill="#18519E" stroke="none" />
<text x="12" y="231" font-size="12" text-anchor="start" font-family="Consolas, monospace">u8Ychange</text>
<text x="-31" y="230" font-size="11" text-anchor="end" fill="#18519E" font-style="italic" font-family="Verdana, sans-serif">USINT</text>
<text x="-140" y="230" font-size="11" text-anchor="end" fill="#666666" font-family="Verdana, sans-serif">Relative change in y position (interpreted as signed!)</text>
<path d="M190,37 L190,47 L195,42 Z" fill="#63B31F" stroke="none" />
<text x="178" y="46" font-size="12" text-anchor="end" font-family="Consolas, monospace">INITO</text>
<text x="213" y="45" font-size="11" text-anchor="start" fill="#888" font-style="italic" font-family="Verdana, sans-serif">Event</text>
<text x="283" y="45" font-size="11" text-anchor="start" fill="#666666" font-family="Verdana, sans-serif">Initialization Confirm</text>
<path d="M190,63 L190,73 L195,68 Z" fill="#63B31F" stroke="none" />
<text x="178" y="72" font-size="12" text-anchor="end" font-family="Consolas, monospace">CNF</text>
<text x="213" y="71" font-size="11" text-anchor="start" fill="#888" font-style="italic" font-family="Verdana, sans-serif">Event</text>
<text x="283" y="71" font-size="11" text-anchor="start" fill="#666666" font-family="Verdana, sans-serif">Confirmation of Requested Service</text>
<path d="M190,144 L190,154 L195,149 Z" fill="#BD8663" stroke="none" />
<text x="178" y="153" font-size="12" text-anchor="end" font-family="Consolas, monospace">STATUS</text>
<text x="213" y="152" font-size="11" text-anchor="start" fill="#BD8663" font-style="italic" font-family="Verdana, sans-serif">STRING</text>
<text x="283" y="152" font-size="11" text-anchor="start" fill="#666666" font-family="Verdana, sans-serif">Service Status</text>
<path d="M190,170 L190,180 L195,175 Z" fill="#18519E" stroke="none" />
<text x="178" y="179" font-size="12" text-anchor="end" font-family="Consolas, monospace">u8OldXchange</text>
<text x="213" y="178" font-size="11" text-anchor="start" fill="#18519E" font-style="italic" font-family="Verdana, sans-serif">USINT</text>
<text x="283" y="178" font-size="11" text-anchor="start" fill="#666666" font-family="Verdana, sans-serif">Old relative change in x position (interpreted as signed!)</text>
<path d="M190,196 L190,206 L195,201 Z" fill="#18519E" stroke="none" />
<text x="178" y="205" font-size="12" text-anchor="end" font-family="Consolas, monospace">u8OldYchange</text>
<text x="213" y="204" font-size="11" text-anchor="start" fill="#18519E" font-style="italic" font-family="Verdana, sans-serif">USINT</text>
<text x="283" y="204" font-size="11" text-anchor="start" fill="#666666" font-family="Verdana, sans-serif">Old relative change in y position (interpreted as signed!)</text>
<path d="M190,222 L190,232 L195,227 Z" fill="#18519E" stroke="none" />
<text x="178" y="231" font-size="12" text-anchor="end" font-family="Consolas, monospace">s16result</text>
<text x="213" y="230" font-size="11" text-anchor="start" fill="#18519E" font-style="italic" font-family="Verdana, sans-serif">INT</text>
<text x="283" y="230" font-size="11" text-anchor="start" fill="#666666" font-family="Verdana, sans-serif">retval see description</text>
<path d="M-12,42 L-12,175" stroke="#404040" stroke-width="1" />
<path d="M0,42 L-12,42" stroke="#404040" />
<rect x="-14" y="40" width="4" height="4" fill="white" stroke="black" stroke-width="1" />
<path d="M-12,149 L-5,149" stroke="#404040" />
<rect x="-14" y="147" width="4" height="4" fill="white" stroke="black" stroke-width="1" />
<path d="M-12,175 L-5,175" stroke="#404040" />
<rect x="-14" y="173" width="4" height="4" fill="white" stroke="black" stroke-width="1" />
<path d="M-20,68 L-20,227" stroke="#404040" stroke-width="1" />
<path d="M0,68 L-20,68" stroke="#404040" />
<rect x="-22" y="66" width="4" height="4" fill="white" stroke="black" stroke-width="1" />
<path d="M-20,201 L-5,201" stroke="#404040" />
<rect x="-22" y="199" width="4" height="4" fill="white" stroke="black" stroke-width="1" />
<path d="M-20,227 L-5,227" stroke="#404040" />
<rect x="-22" y="225" width="4" height="4" fill="white" stroke="black" stroke-width="1" />
<path d="M202,68 L202,227" stroke="#404040" stroke-width="1" />
<path d="M190,68 L202,68" stroke="#404040" />
<rect x="200" y="66" width="4" height="4" fill="white" stroke="black" stroke-width="1" />
<path d="M202,149 L195,149" stroke="#404040" />
<rect x="200" y="147" width="4" height="4" fill="white" stroke="black" stroke-width="1" />
<path d="M202,201 L195,201" stroke="#404040" />
<rect x="200" y="199" width="4" height="4" fill="white" stroke="black" stroke-width="1" />
<path d="M202,175 L195,175" stroke="#404040" />
<rect x="200" y="173" width="4" height="4" fill="white" stroke="black" stroke-width="1" />
<path d="M202,227 L195,227" stroke="#404040" />
<rect x="200" y="225" width="4" height="4" fill="white" stroke="black" stroke-width="1" />
</svg>