<?xml version="1.0" encoding="UTF-8"?>
<svg xmlns="http://www.w3.org/2000/svg" xmlns:xlink="http://www.w3.org/1999/xlink"
     width="1056" height="327" viewBox="-556 -20 1056 327">
<defs>
</defs>
<rect x="3" y="3" width="202" height="277" fill="#000000" fill-opacity="0.1" rx="2" ry="2" />
<path d="M0,0 H202 V92 H196 V132 H202 V277 H0 V132 H6 V92 H0 Z" fill="#ffffff" stroke="#606060" stroke-width="2" />
<path d="M0,30 L202,30" stroke="#606060" stroke-width="1" />
<text x="101.0" y="110.0" font-size="14" fontWeight="bold" font-family="Verdana, sans-serif" font-style="italic" text-anchor="middle" dominant-baseline="central">Q_EndPoint</text>
<text x="101.0" y="124.0" font-size="10" fill="#000" font-family="Consolas, monospace" text-anchor="middle" dominant-baseline="central">1.0</text>
<path d="M-5,37 L-5,47 L0,42 Z" fill="#5cb85c" stroke="none" />
<text x="12" y="46" font-size="12" text-anchor="start" font-family="Consolas, monospace">INIT</text>
<text x="-31" y="45" font-size="11" text-anchor="end" fill="#888" font-style="italic" font-family="Verdana, sans-serif">Event</text>
<text x="-101" y="45" font-size="11" text-anchor="end" fill="#666666" font-family="Verdana, sans-serif">Service Initialization</text>
<path d="M-5,63 L-5,73 L0,68 Z" fill="#5cb85c" stroke="none" />
<text x="12" y="72" font-size="12" text-anchor="start" font-family="Consolas, monospace">REQ</text>
<text x="-31" y="71" font-size="11" text-anchor="end" fill="#888" font-style="italic" font-family="Verdana, sans-serif">Event</text>
<text x="-101" y="71" font-size="11" text-anchor="end" fill="#666666" font-family="Verdana, sans-serif">Service Request</text>
<path d="M-5,144 L-5,154 L0,149 Z" fill="#0066cc" stroke="none" />
<text x="12" y="153" font-size="12" text-anchor="start" font-family="Consolas, monospace">u16ObjId</text>
<text x="-31" y="152" font-size="11" text-anchor="end" fill="#0066cc" font-style="italic" font-family="Verdana, sans-serif">UINT</text>
<text x="-101" y="152" font-size="11" text-anchor="end" fill="#666666" font-family="Verdana, sans-serif">Object ID</text>
<path d="M-5,170 L-5,180 L0,175 Z" fill="#0066cc" stroke="none" />
<text x="12" y="179" font-size="12" text-anchor="start" font-family="Consolas, monospace">u16Width</text>
<text x="-31" y="178" font-size="11" text-anchor="end" fill="#0066cc" font-style="italic" font-family="Verdana, sans-serif">UINT</text>
<text x="-101" y="178" font-size="11" text-anchor="end" fill="#666666" font-family="Verdana, sans-serif">X value of end point </text>
<path d="M-5,196 L-5,206 L0,201 Z" fill="#0066cc" stroke="none" />
<text x="12" y="205" font-size="12" text-anchor="start" font-family="Consolas, monospace">u16Height</text>
<text x="-31" y="204" font-size="11" text-anchor="end" fill="#0066cc" font-style="italic" font-family="Verdana, sans-serif">UINT</text>
<text x="-101" y="204" font-size="11" text-anchor="end" fill="#666666" font-family="Verdana, sans-serif">Y value of end point</text>
<path d="M-5,222 L-5,232 L0,227 Z" fill="#0066cc" stroke="none" />
<text x="12" y="231" font-size="12" text-anchor="start" font-family="Consolas, monospace">u8LineDirection</text>
<text x="-31" y="230" font-size="11" text-anchor="end" fill="#0066cc" font-style="italic" font-family="Verdana, sans-serif">USINT</text>
<text x="-101" y="230" font-size="11" text-anchor="end" fill="#666666" font-family="Verdana, sans-serif">Line direction see Part 6 - B.27</text>
<path d="M202,37 L202,47 L207,42 Z" fill="#5cb85c" stroke="none" />
<text x="190" y="46" font-size="12" text-anchor="end" font-family="Consolas, monospace">INITO</text>
<text x="225" y="45" font-size="11" text-anchor="start" fill="#888" font-style="italic" font-family="Verdana, sans-serif">Event</text>
<text x="295" y="45" font-size="11" text-anchor="start" fill="#666666" font-family="Verdana, sans-serif">Initialization Confirm</text>
<path d="M202,63 L202,73 L207,68 Z" fill="#5cb85c" stroke="none" />
<text x="190" y="72" font-size="12" text-anchor="end" font-family="Consolas, monospace">CNF</text>
<text x="225" y="71" font-size="11" text-anchor="start" fill="#888" font-style="italic" font-family="Verdana, sans-serif">Event</text>
<text x="295" y="71" font-size="11" text-anchor="start" fill="#666666" font-family="Verdana, sans-serif">Confirmation of Requested Service</text>
<path d="M202,144 L202,154 L207,149 Z" fill="#0066cc" stroke="none" />
<text x="190" y="153" font-size="12" text-anchor="end" font-family="Consolas, monospace">STATUS</text>
<text x="225" y="152" font-size="11" text-anchor="start" fill="#0066cc" font-style="italic" font-family="Verdana, sans-serif">STRING</text>
<text x="295" y="152" font-size="11" text-anchor="start" fill="#666666" font-family="Verdana, sans-serif">Service Status</text>
<path d="M202,170 L202,180 L207,175 Z" fill="#0066cc" stroke="none" />
<text x="190" y="179" font-size="12" text-anchor="end" font-family="Consolas, monospace">u16OldWidth</text>
<text x="225" y="178" font-size="11" text-anchor="start" fill="#0066cc" font-style="italic" font-family="Verdana, sans-serif">UINT</text>
<text x="295" y="178" font-size="11" text-anchor="start" fill="#666666" font-family="Verdana, sans-serif">Old X value of end point </text>
<path d="M202,196 L202,206 L207,201 Z" fill="#0066cc" stroke="none" />
<text x="190" y="205" font-size="12" text-anchor="end" font-family="Consolas, monospace">u16OldHeight</text>
<text x="225" y="204" font-size="11" text-anchor="start" fill="#0066cc" font-style="italic" font-family="Verdana, sans-serif">UINT</text>
<text x="295" y="204" font-size="11" text-anchor="start" fill="#666666" font-family="Verdana, sans-serif">Old Y value of end point</text>
<path d="M202,222 L202,232 L207,227 Z" fill="#0066cc" stroke="none" />
<text x="190" y="231" font-size="12" text-anchor="end" font-family="Consolas, monospace">u8OldLineDirection</text>
<text x="225" y="230" font-size="11" text-anchor="start" fill="#0066cc" font-style="italic" font-family="Verdana, sans-serif">USINT</text>
<text x="295" y="230" font-size="11" text-anchor="start" fill="#666666" font-family="Verdana, sans-serif">Old line direction see Part 6 - B.27</text>
<path d="M202,248 L202,258 L207,253 Z" fill="#0066cc" stroke="none" />
<text x="190" y="257" font-size="12" text-anchor="end" font-family="Consolas, monospace">s16result</text>
<text x="225" y="256" font-size="11" text-anchor="start" fill="#0066cc" font-style="italic" font-family="Verdana, sans-serif">INT</text>
<text x="295" y="256" font-size="11" text-anchor="start" fill="#666666" font-family="Verdana, sans-serif">retval see description</text>
<path d="M-12,42 L-12,149" stroke="#404040" stroke-width="1" />
<path d="M0,42 L-12,42" stroke="#404040" />
<rect x="-14" y="40" width="4" height="4" fill="white" stroke="black" stroke-width="1" />
<path d="M-12,149 L-5,149" stroke="#404040" />
<rect x="-14" y="147" width="4" height="4" fill="white" stroke="black" stroke-width="1" />
<path d="M-20,68 L-20,227" stroke="#404040" stroke-width="1" />
<path d="M0,68 L-20,68" stroke="#404040" />
<rect x="-22" y="66" width="4" height="4" fill="white" stroke="black" stroke-width="1" />
<path d="M-20,175 L-5,175" stroke="#404040" />
<rect x="-22" y="173" width="4" height="4" fill="white" stroke="black" stroke-width="1" />
<path d="M-20,201 L-5,201" stroke="#404040" />
<rect x="-22" y="199" width="4" height="4" fill="white" stroke="black" stroke-width="1" />
<path d="M-20,227 L-5,227" stroke="#404040" />
<rect x="-22" y="225" width="4" height="4" fill="white" stroke="black" stroke-width="1" />
<path d="M214,68 L214,253" stroke="#404040" stroke-width="1" />
<path d="M202,68 L214,68" stroke="#404040" />
<rect x="212" y="66" width="4" height="4" fill="white" stroke="black" stroke-width="1" />
<path d="M214,149 L207,149" stroke="#404040" />
<rect x="212" y="147" width="4" height="4" fill="white" stroke="black" stroke-width="1" />
<path d="M214,227 L207,227" stroke="#404040" />
<rect x="212" y="225" width="4" height="4" fill="white" stroke="black" stroke-width="1" />
<path d="M214,175 L207,175" stroke="#404040" />
<rect x="212" y="173" width="4" height="4" fill="white" stroke="black" stroke-width="1" />
<path d="M214,201 L207,201" stroke="#404040" />
<rect x="212" y="199" width="4" height="4" fill="white" stroke="black" stroke-width="1" />
<path d="M214,253 L207,253" stroke="#404040" />
<rect x="212" y="251" width="4" height="4" fill="white" stroke="black" stroke-width="1" />
</svg>