<?xml version="1.0" encoding="UTF-8"?>
<svg xmlns="http://www.w3.org/2000/svg" xmlns:xlink="http://www.w3.org/1999/xlink"
     width="1065" height="327" viewBox="-556 -20 1065 327">
<defs>
</defs>
<rect x="3" y="3" width="211" height="277" fill="#000000" fill-opacity="0.1" rx="2" ry="2" />
<path d="M0,0 H211 V92 H205 V132 H211 V277 H0 V132 H6 V92 H0 Z" fill="#ffffff" stroke="#000000" stroke-width="2" />
<path d="M0,30 L211,30" stroke="#000000" stroke-width="1" />
<text x="105.5" y="110.0" font-size="14" fontWeight="bold" font-family="Verdana, sans-serif" font-style="italic" text-anchor="middle" dominant-baseline="central">Q_FillAttributes</text>
<text x="105.5" y="124.0" font-size="10" fill="#000" font-family="Consolas, monospace" text-anchor="middle" dominant-baseline="central">1.0</text>
<path d="M-5,37 L-5,47 L0,42 Z" fill="#63B31F" stroke="none" />
<text x="12" y="46" font-size="12" text-anchor="start" font-family="Consolas, monospace">INIT</text>
<text x="-31" y="45" font-size="11" text-anchor="end" fill="#888" font-style="italic" font-family="Verdana, sans-serif">Event</text>
<text x="-101" y="45" font-size="11" text-anchor="end" fill="#666666" font-family="Verdana, sans-serif">Service Initialization</text>
<path d="M-5,63 L-5,73 L0,68 Z" fill="#63B31F" stroke="none" />
<text x="12" y="72" font-size="12" text-anchor="start" font-family="Consolas, monospace">REQ</text>
<text x="-31" y="71" font-size="11" text-anchor="end" fill="#888" font-style="italic" font-family="Verdana, sans-serif">Event</text>
<text x="-101" y="71" font-size="11" text-anchor="end" fill="#666666" font-family="Verdana, sans-serif">Service Request</text>
<path d="M-5,144 L-5,154 L0,149 Z" fill="#18519E" stroke="none" />
<text x="12" y="153" font-size="12" text-anchor="start" font-family="Consolas, monospace">u16ObjId</text>
<text x="-31" y="152" font-size="11" text-anchor="end" fill="#18519E" font-style="italic" font-family="Verdana, sans-serif">UINT</text>
<text x="-101" y="152" font-size="11" text-anchor="end" fill="#666666" font-family="Verdana, sans-serif">Object ID</text>
<path d="M-5,170 L-5,180 L0,175 Z" fill="#18519E" stroke="none" />
<text x="12" y="179" font-size="12" text-anchor="start" font-family="Consolas, monospace">u8FillType</text>
<text x="-31" y="178" font-size="11" text-anchor="end" fill="#18519E" font-style="italic" font-family="Verdana, sans-serif">USINT</text>
<text x="-101" y="178" font-size="11" text-anchor="end" fill="#666666" font-family="Verdana, sans-serif">New fill type (see Part 6 - B.14.4) </text>
<path d="M-5,196 L-5,206 L0,201 Z" fill="#18519E" stroke="none" />
<text x="12" y="205" font-size="12" text-anchor="start" font-family="Consolas, monospace">u8FillColour</text>
<text x="-31" y="204" font-size="11" text-anchor="end" fill="#18519E" font-style="italic" font-family="Verdana, sans-serif">USINT</text>
<text x="-101" y="204" font-size="11" text-anchor="end" fill="#666666" font-family="Verdana, sans-serif">New fill colour (see Part 6 - B.14.4) </text>
<path d="M-5,222 L-5,232 L0,227 Z" fill="#18519E" stroke="none" />
<text x="12" y="231" font-size="12" text-anchor="start" font-family="Consolas, monospace">u16FillPatternId</text>
<text x="-31" y="230" font-size="11" text-anchor="end" fill="#18519E" font-style="italic" font-family="Verdana, sans-serif">UINT</text>
<text x="-101" y="230" font-size="11" text-anchor="end" fill="#666666" font-family="Verdana, sans-serif">New fill pattern (see Part 6 - B.14.4) </text>
<path d="M211,37 L211,47 L216,42 Z" fill="#63B31F" stroke="none" />
<text x="199" y="46" font-size="12" text-anchor="end" font-family="Consolas, monospace">INITO</text>
<text x="234" y="45" font-size="11" text-anchor="start" fill="#888" font-style="italic" font-family="Verdana, sans-serif">Event</text>
<text x="304" y="45" font-size="11" text-anchor="start" fill="#666666" font-family="Verdana, sans-serif">Initialization Confirm</text>
<path d="M211,63 L211,73 L216,68 Z" fill="#63B31F" stroke="none" />
<text x="199" y="72" font-size="12" text-anchor="end" font-family="Consolas, monospace">CNF</text>
<text x="234" y="71" font-size="11" text-anchor="start" fill="#888" font-style="italic" font-family="Verdana, sans-serif">Event</text>
<text x="304" y="71" font-size="11" text-anchor="start" fill="#666666" font-family="Verdana, sans-serif">Confirmation of Requested Service</text>
<path d="M211,144 L211,154 L216,149 Z" fill="#BD8663" stroke="none" />
<text x="199" y="153" font-size="12" text-anchor="end" font-family="Consolas, monospace">STATUS</text>
<text x="234" y="152" font-size="11" text-anchor="start" fill="#BD8663" font-style="italic" font-family="Verdana, sans-serif">STRING</text>
<text x="304" y="152" font-size="11" text-anchor="start" fill="#666666" font-family="Verdana, sans-serif">Service Status</text>
<path d="M211,170 L211,180 L216,175 Z" fill="#18519E" stroke="none" />
<text x="199" y="179" font-size="12" text-anchor="end" font-family="Consolas, monospace">u8OldFillType</text>
<text x="234" y="178" font-size="11" text-anchor="start" fill="#18519E" font-style="italic" font-family="Verdana, sans-serif">USINT</text>
<text x="304" y="178" font-size="11" text-anchor="start" fill="#666666" font-family="Verdana, sans-serif">Old fill type (see Part 6 - B.14.4) </text>
<path d="M211,196 L211,206 L216,201 Z" fill="#18519E" stroke="none" />
<text x="199" y="205" font-size="12" text-anchor="end" font-family="Consolas, monospace">u8OldFillColour</text>
<text x="234" y="204" font-size="11" text-anchor="start" fill="#18519E" font-style="italic" font-family="Verdana, sans-serif">USINT</text>
<text x="304" y="204" font-size="11" text-anchor="start" fill="#666666" font-family="Verdana, sans-serif">Old fill colour (see Part 6 - B.14.4) </text>
<path d="M211,222 L211,232 L216,227 Z" fill="#18519E" stroke="none" />
<text x="199" y="231" font-size="12" text-anchor="end" font-family="Consolas, monospace">u16OldFillPatternId</text>
<text x="234" y="230" font-size="11" text-anchor="start" fill="#18519E" font-style="italic" font-family="Verdana, sans-serif">UINT</text>
<text x="304" y="230" font-size="11" text-anchor="start" fill="#666666" font-family="Verdana, sans-serif">Old fill pattern (see Part 6 - B.14.4) </text>
<path d="M211,248 L211,258 L216,253 Z" fill="#18519E" stroke="none" />
<text x="199" y="257" font-size="12" text-anchor="end" font-family="Consolas, monospace">s16result</text>
<text x="234" y="256" font-size="11" text-anchor="start" fill="#18519E" font-style="italic" font-family="Verdana, sans-serif">INT</text>
<text x="304" y="256" font-size="11" text-anchor="start" fill="#666666" font-family="Verdana, sans-serif">retval see description</text>
<path d="M-12,42 L-12,149" stroke="#404040" stroke-width="1" />
<path d="M0,42 L-12,42" stroke="#404040" />
<rect x="-14" y="40" width="4" height="4" fill="white" stroke="black" stroke-width="1" />
<path d="M-12,149 L-5,149" stroke="#404040" />
<rect x="-14" y="147" width="4" height="4" fill="white" stroke="black" stroke-width="1" />
<path d="M-20,68 L-20,227" stroke="#404040" stroke-width="1" />
<path d="M0,68 L-20,68" stroke="#404040" />
<rect x="-22" y="66" width="4" height="4" fill="white" stroke="black" stroke-width="1" />
<path d="M-20,175 L-5,175" stroke="#404040" />
<rect x="-22" y="173" width="4" height="4" fill="white" stroke="black" stroke-width="1" />
<path d="M-20,201 L-5,201" stroke="#404040" />
<rect x="-22" y="199" width="4" height="4" fill="white" stroke="black" stroke-width="1" />
<path d="M-20,227 L-5,227" stroke="#404040" />
<rect x="-22" y="225" width="4" height="4" fill="white" stroke="black" stroke-width="1" />
<path d="M223,68 L223,253" stroke="#404040" stroke-width="1" />
<path d="M211,68 L223,68" stroke="#404040" />
<rect x="221" y="66" width="4" height="4" fill="white" stroke="black" stroke-width="1" />
<path d="M223,149 L216,149" stroke="#404040" />
<rect x="221" y="147" width="4" height="4" fill="white" stroke="black" stroke-width="1" />
<path d="M223,227 L216,227" stroke="#404040" />
<rect x="221" y="225" width="4" height="4" fill="white" stroke="black" stroke-width="1" />
<path d="M223,175 L216,175" stroke="#404040" />
<rect x="221" y="173" width="4" height="4" fill="white" stroke="black" stroke-width="1" />
<path d="M223,201 L216,201" stroke="#404040" />
<rect x="221" y="199" width="4" height="4" fill="white" stroke="black" stroke-width="1" />
<path d="M223,253 L216,253" stroke="#404040" />
<rect x="221" y="251" width="4" height="4" fill="white" stroke="black" stroke-width="1" />
</svg>