<?xml version="1.0" encoding="UTF-8"?>
<svg xmlns="http://www.w3.org/2000/svg" xmlns:xlink="http://www.w3.org/1999/xlink"
     width="1396" height="301" viewBox="-548 -20 1396 301">
<defs>
</defs>
<rect x="3" y="3" width="300" height="251" fill="#000000" fill-opacity="0.1" rx="2" ry="2" />
<path d="M0,0 H300 V92 H294 V132 H300 V251 H0 V132 H6 V92 H0 Z" fill="#ffffff" stroke="#000000" stroke-width="2" />
<path d="M0,30 L300,30" stroke="#000000" stroke-width="1" />
<text x="150.0" y="110.0" font-size="14" fontWeight="bold" font-family="Verdana, sans-serif" font-style="italic" text-anchor="middle" dominant-baseline="central">Q_NumericValue_PHYSA_LREAL</text>
<text x="150.0" y="124.0" font-size="10" fill="#000" font-family="Consolas, monospace" text-anchor="middle" dominant-baseline="central">1.0</text>
<path d="M-5,37 L-5,47 L0,42 Z" fill="#63B31F" stroke="none" />
<text x="12" y="46" font-size="12" text-anchor="start" font-family="Consolas, monospace">INIT</text>
<text x="-23" y="45" font-size="11" text-anchor="end" fill="#888" font-style="italic" font-family="Verdana, sans-serif">Event</text>
<text x="-153" y="45" font-size="11" text-anchor="end" fill="#666666" font-family="Verdana, sans-serif">Service Initialization</text>
<rect x="-5.0" y="144.0" width="10" height="10" fill="white" stroke="#845DAF" stroke-width="2.5" />
<text x="12" y="153" font-size="12" text-anchor="start" font-family="Consolas, monospace">lrPhys</text>
<text x="-23" y="152" font-size="11" text-anchor="end" fill="#000" font-style="italic" font-family="Verdana, sans-serif">ALR</text>
<text x="-153" y="152" font-size="11" text-anchor="end" fill="#666666" font-family="Verdana, sans-serif">Physical LREAL value input</text>
<path d="M-5,170 L-5,180 L0,175 Z" fill="#000000" stroke="none" />
<text x="12" y="179" font-size="12" text-anchor="start" font-family="Consolas, monospace">stObj</text>
<text x="-23" y="178" font-size="11" text-anchor="end" fill="#000000" font-style="italic" font-family="Verdana, sans-serif">NumericObjectPool_S</text>
<text x="-153" y="178" font-size="11" text-anchor="end" fill="#666666" font-family="Verdana, sans-serif">Object pool properties (u16ObjId, scale, offset,</text>
<text x="-153" y="190" font-size="11" text-anchor="end" fill="#666666" font-family="Verdana, sans-serif">decimals)</text>
<path d="M300,37 L300,47 L305,42 Z" fill="#63B31F" stroke="none" />
<text x="288" y="46" font-size="12" text-anchor="end" font-family="Consolas, monospace">INITO</text>
<text x="323" y="45" font-size="11" text-anchor="start" fill="#888" font-style="italic" font-family="Verdana, sans-serif">Event</text>
<text x="393" y="45" font-size="11" text-anchor="start" fill="#666666" font-family="Verdana, sans-serif">Initialization Confirm</text>
<path d="M300,63 L300,73 L305,68 Z" fill="#63B31F" stroke="none" />
<text x="288" y="72" font-size="12" text-anchor="end" font-family="Consolas, monospace">CNF</text>
<text x="323" y="71" font-size="11" text-anchor="start" fill="#888" font-style="italic" font-family="Verdana, sans-serif">Event</text>
<text x="393" y="71" font-size="11" text-anchor="start" fill="#666666" font-family="Verdana, sans-serif">Confirmation of Requested Service</text>
<rect x="295.0" y="144.0" width="10" height="10" fill="#845DAF" stroke="none" />
<text x="288" y="153" font-size="12" text-anchor="end" font-family="Consolas, monospace">xOver</text>
<text x="323" y="152" font-size="11" text-anchor="start" fill="#000" font-style="italic" font-family="Verdana, sans-serif">AX</text>
<text x="393" y="152" font-size="11" text-anchor="start" fill="#666666" font-family="Verdana, sans-serif">Physical value exceeds upper ISOBUS limit</text>
<rect x="295.0" y="170.0" width="10" height="10" fill="#845DAF" stroke="none" />
<text x="288" y="179" font-size="12" text-anchor="end" font-family="Consolas, monospace">xUnder</text>
<text x="323" y="178" font-size="11" text-anchor="start" fill="#000" font-style="italic" font-family="Verdana, sans-serif">AX</text>
<text x="393" y="178" font-size="11" text-anchor="start" fill="#666666" font-family="Verdana, sans-serif">Physical value below lower ISOBUS limit</text>
<path d="M300,196 L300,206 L305,201 Z" fill="#BD8663" stroke="none" />
<text x="288" y="205" font-size="12" text-anchor="end" font-family="Consolas, monospace">STATUS</text>
<text x="323" y="204" font-size="11" text-anchor="start" fill="#BD8663" font-style="italic" font-family="Verdana, sans-serif">STRING</text>
<text x="393" y="204" font-size="11" text-anchor="start" fill="#666666" font-family="Verdana, sans-serif">Service Status</text>
<path d="M300,222 L300,232 L305,227 Z" fill="#18519E" stroke="none" />
<text x="288" y="231" font-size="12" text-anchor="end" font-family="Consolas, monospace">s16result</text>
<text x="323" y="230" font-size="11" text-anchor="start" fill="#18519E" font-style="italic" font-family="Verdana, sans-serif">INT</text>
<text x="393" y="230" font-size="11" text-anchor="start" fill="#666666" font-family="Verdana, sans-serif">retval see Q_NumericValue</text>
<path d="M-12,42 L-12,175" stroke="#404040" stroke-width="1" />
<path d="M0,42 L-12,42" stroke="#404040" />
<rect x="-14" y="40" width="4" height="4" fill="white" stroke="black" stroke-width="1" />
<path d="M-12,175 L-5,175" stroke="#404040" />
<rect x="-14" y="173" width="4" height="4" fill="white" stroke="black" stroke-width="1" />
<path d="M312,68 L312,227" stroke="#404040" stroke-width="1" />
<path d="M300,68 L312,68" stroke="#404040" />
<rect x="310" y="66" width="4" height="4" fill="white" stroke="black" stroke-width="1" />
<path d="M312,201 L305,201" stroke="#404040" />
<rect x="310" y="199" width="4" height="4" fill="white" stroke="black" stroke-width="1" />
<path d="M312,227 L305,227" stroke="#404040" />
<rect x="310" y="225" width="4" height="4" fill="white" stroke="black" stroke-width="1" />
</svg>