<?xml version="1.0" encoding="UTF-8"?>
<svg xmlns="http://www.w3.org/2000/svg" xmlns:xlink="http://www.w3.org/1999/xlink"
     width="1356" height="275" viewBox="-548 -20 1356 275">
<defs>
</defs>
<rect x="3" y="3" width="260" height="225" fill="#000000" fill-opacity="0.1" rx="2" ry="2" />
<path d="M0,0 H260 V92 H254 V132 H260 V225 H0 V132 H6 V92 H0 Z" fill="#ffffff" stroke="#000000" stroke-width="2" />
<path d="M0,30 L260,30" stroke="#000000" stroke-width="1" />
<text x="130.0" y="110.0" font-size="14" fontWeight="bold" font-family="Verdana, sans-serif" font-style="italic" text-anchor="middle" dominant-baseline="central">Q_NumericValueAux_AUDI</text>
<text x="130.0" y="124.0" font-size="10" fill="#000" font-family="Consolas, monospace" text-anchor="middle" dominant-baseline="central">1.0</text>
<path d="M-5,37 L-5,47 L0,42 Z" fill="#63B31F" stroke="none" />
<text x="12" y="46" font-size="12" text-anchor="start" font-family="Consolas, monospace">INIT</text>
<text x="-23" y="45" font-size="11" text-anchor="end" fill="#888" font-style="italic" font-family="Verdana, sans-serif">Event</text>
<text x="-107" y="45" font-size="11" text-anchor="end" fill="#666666" font-family="Verdana, sans-serif">Service Initialization</text>
<rect x="-5.0" y="144.0" width="10" height="10" fill="white" stroke="#845DAF" stroke-width="2.5" />
<text x="12" y="153" font-size="12" text-anchor="start" font-family="Consolas, monospace">u32NewValue</text>
<text x="-23" y="152" font-size="11" text-anchor="end" fill="#000" font-style="italic" font-family="Verdana, sans-serif">AUDI</text>
<text x="-107" y="152" font-size="11" text-anchor="end" fill="#666666" font-family="Verdana, sans-serif">New value of ID</text>
<path d="M-5,170 L-5,180 L0,175 Z" fill="#18519E" stroke="none" />
<text x="12" y="179" font-size="12" text-anchor="start" font-family="Consolas, monospace">u16ObjId</text>
<text x="-23" y="178" font-size="11" text-anchor="end" fill="#18519E" font-style="italic" font-family="Verdana, sans-serif">UINT</text>
<text x="-107" y="178" font-size="11" text-anchor="end" fill="#666666" font-family="Verdana, sans-serif">Object ID</text>
<path d="M260,37 L260,47 L265,42 Z" fill="#63B31F" stroke="none" />
<text x="248" y="46" font-size="12" text-anchor="end" font-family="Consolas, monospace">INITO</text>
<text x="283" y="45" font-size="11" text-anchor="start" fill="#888" font-style="italic" font-family="Verdana, sans-serif">Event</text>
<text x="353" y="45" font-size="11" text-anchor="start" fill="#666666" font-family="Verdana, sans-serif">Initialization Confirm</text>
<path d="M260,63 L260,73 L265,68 Z" fill="#63B31F" stroke="none" />
<text x="248" y="72" font-size="12" text-anchor="end" font-family="Consolas, monospace">CNF</text>
<text x="283" y="71" font-size="11" text-anchor="start" fill="#888" font-style="italic" font-family="Verdana, sans-serif">Event</text>
<text x="353" y="71" font-size="11" text-anchor="start" fill="#666666" font-family="Verdana, sans-serif">Confirmation of Requested Service</text>
<rect x="255.0" y="144.0" width="10" height="10" fill="#845DAF" stroke="none" />
<text x="248" y="153" font-size="12" text-anchor="end" font-family="Consolas, monospace">u32OldValue</text>
<text x="283" y="152" font-size="11" text-anchor="start" fill="#000" font-style="italic" font-family="Verdana, sans-serif">AUDI</text>
<text x="353" y="152" font-size="11" text-anchor="start" fill="#666666" font-family="Verdana, sans-serif">Old value of ID</text>
<path d="M260,170 L260,180 L265,175 Z" fill="#BD8663" stroke="none" />
<text x="248" y="179" font-size="12" text-anchor="end" font-family="Consolas, monospace">STATUS</text>
<text x="283" y="178" font-size="11" text-anchor="start" fill="#BD8663" font-style="italic" font-family="Verdana, sans-serif">STRING</text>
<text x="353" y="178" font-size="11" text-anchor="start" fill="#666666" font-family="Verdana, sans-serif">Service Status</text>
<path d="M260,196 L260,206 L265,201 Z" fill="#18519E" stroke="none" />
<text x="248" y="205" font-size="12" text-anchor="end" font-family="Consolas, monospace">s16result</text>
<text x="283" y="204" font-size="11" text-anchor="start" fill="#18519E" font-style="italic" font-family="Verdana, sans-serif">INT</text>
<text x="353" y="204" font-size="11" text-anchor="start" fill="#666666" font-family="Verdana, sans-serif">retval see description</text>
<path d="M-12,42 L-12,175" stroke="#404040" stroke-width="1" />
<path d="M0,42 L-12,42" stroke="#404040" />
<rect x="-14" y="40" width="4" height="4" fill="white" stroke="black" stroke-width="1" />
<path d="M-12,175 L-5,175" stroke="#404040" />
<rect x="-14" y="173" width="4" height="4" fill="white" stroke="black" stroke-width="1" />
<path d="M272,68 L272,201" stroke="#404040" stroke-width="1" />
<path d="M260,68 L272,68" stroke="#404040" />
<rect x="270" y="66" width="4" height="4" fill="white" stroke="black" stroke-width="1" />
<path d="M272,175 L265,175" stroke="#404040" />
<rect x="270" y="173" width="4" height="4" fill="white" stroke="black" stroke-width="1" />
<path d="M272,201 L265,201" stroke="#404040" />
<rect x="270" y="199" width="4" height="4" fill="white" stroke="black" stroke-width="1" />
</svg>