<?xml version="1.0" encoding="UTF-8"?>
<svg xmlns="http://www.w3.org/2000/svg" xmlns:xlink="http://www.w3.org/1999/xlink"
     width="1336" height="301" viewBox="-548 -20 1336 301">
<defs>
</defs>
<rect x="3" y="3" width="240" height="251" fill="#000000" fill-opacity="0.1" rx="2" ry="2" />
<path d="M0,0 H240 V92 H234 V132 H240 V251 H0 V132 H6 V92 H0 Z" fill="#ffffff" stroke="#000000" stroke-width="2" />
<path d="M0,30 L240,30" stroke="#000000" stroke-width="1" />
<text x="120.0" y="110.0" font-size="14" fontWeight="bold" font-family="Verdana, sans-serif" font-style="italic" text-anchor="middle" dominant-baseline="central">Q_NumericValue_PHYSA</text>
<text x="120.0" y="124.0" font-size="10" fill="#000" font-family="Consolas, monospace" text-anchor="middle" dominant-baseline="central">1.0</text>
<path d="M-5,37 L-5,47 L0,42 Z" fill="#63B31F" stroke="none" />
<text x="12" y="46" font-size="12" text-anchor="start" font-family="Consolas, monospace">INIT</text>
<text x="-23" y="45" font-size="11" text-anchor="end" fill="#888" font-style="italic" font-family="Verdana, sans-serif">Event</text>
<text x="-153" y="45" font-size="11" text-anchor="end" fill="#666666" font-family="Verdana, sans-serif">Service Initialization</text>
<rect x="-5.0" y="144.0" width="10" height="10" fill="white" stroke="#845DAF" stroke-width="2.5" />
<text x="12" y="153" font-size="12" text-anchor="start" font-family="Consolas, monospace">rPhys</text>
<text x="-23" y="152" font-size="11" text-anchor="end" fill="#000" font-style="italic" font-family="Verdana, sans-serif">AR</text>
<text x="-153" y="152" font-size="11" text-anchor="end" fill="#666666" font-family="Verdana, sans-serif">Physical REAL value input</text>
<path d="M-5,170 L-5,180 L0,175 Z" fill="#000000" stroke="none" />
<text x="12" y="179" font-size="12" text-anchor="start" font-family="Consolas, monospace">stObj</text>
<text x="-23" y="178" font-size="11" text-anchor="end" fill="#000000" font-style="italic" font-family="Verdana, sans-serif">NumericObjectPool_S</text>
<text x="-153" y="178" font-size="11" text-anchor="end" fill="#666666" font-family="Verdana, sans-serif">Object pool properties (u16ObjId, scale, offset,</text>
<text x="-153" y="190" font-size="11" text-anchor="end" fill="#666666" font-family="Verdana, sans-serif">decimals)</text>
<path d="M240,37 L240,47 L245,42 Z" fill="#63B31F" stroke="none" />
<text x="228" y="46" font-size="12" text-anchor="end" font-family="Consolas, monospace">INITO</text>
<text x="263" y="45" font-size="11" text-anchor="start" fill="#888" font-style="italic" font-family="Verdana, sans-serif">Event</text>
<text x="333" y="45" font-size="11" text-anchor="start" fill="#666666" font-family="Verdana, sans-serif">Initialization Confirm</text>
<path d="M240,63 L240,73 L245,68 Z" fill="#63B31F" stroke="none" />
<text x="228" y="72" font-size="12" text-anchor="end" font-family="Consolas, monospace">CNF</text>
<text x="263" y="71" font-size="11" text-anchor="start" fill="#888" font-style="italic" font-family="Verdana, sans-serif">Event</text>
<text x="333" y="71" font-size="11" text-anchor="start" fill="#666666" font-family="Verdana, sans-serif">Confirmation of Requested Service</text>
<rect x="235.0" y="144.0" width="10" height="10" fill="#845DAF" stroke="none" />
<text x="228" y="153" font-size="12" text-anchor="end" font-family="Consolas, monospace">xOver</text>
<text x="263" y="152" font-size="11" text-anchor="start" fill="#000" font-style="italic" font-family="Verdana, sans-serif">AX</text>
<text x="333" y="152" font-size="11" text-anchor="start" fill="#666666" font-family="Verdana, sans-serif">Physical value exceeds upper ISOBUS limit</text>
<rect x="235.0" y="170.0" width="10" height="10" fill="#845DAF" stroke="none" />
<text x="228" y="179" font-size="12" text-anchor="end" font-family="Consolas, monospace">xUnder</text>
<text x="263" y="178" font-size="11" text-anchor="start" fill="#000" font-style="italic" font-family="Verdana, sans-serif">AX</text>
<text x="333" y="178" font-size="11" text-anchor="start" fill="#666666" font-family="Verdana, sans-serif">Physical value below lower ISOBUS limit</text>
<path d="M240,196 L240,206 L245,201 Z" fill="#BD8663" stroke="none" />
<text x="228" y="205" font-size="12" text-anchor="end" font-family="Consolas, monospace">STATUS</text>
<text x="263" y="204" font-size="11" text-anchor="start" fill="#BD8663" font-style="italic" font-family="Verdana, sans-serif">STRING</text>
<text x="333" y="204" font-size="11" text-anchor="start" fill="#666666" font-family="Verdana, sans-serif">Service Status</text>
<path d="M240,222 L240,232 L245,227 Z" fill="#18519E" stroke="none" />
<text x="228" y="231" font-size="12" text-anchor="end" font-family="Consolas, monospace">s16result</text>
<text x="263" y="230" font-size="11" text-anchor="start" fill="#18519E" font-style="italic" font-family="Verdana, sans-serif">INT</text>
<text x="333" y="230" font-size="11" text-anchor="start" fill="#666666" font-family="Verdana, sans-serif">retval see Q_NumericValue</text>
<path d="M-12,42 L-12,175" stroke="#404040" stroke-width="1" />
<path d="M0,42 L-12,42" stroke="#404040" />
<rect x="-14" y="40" width="4" height="4" fill="white" stroke="black" stroke-width="1" />
<path d="M-12,175 L-5,175" stroke="#404040" />
<rect x="-14" y="173" width="4" height="4" fill="white" stroke="black" stroke-width="1" />
<path d="M252,68 L252,227" stroke="#404040" stroke-width="1" />
<path d="M240,68 L252,68" stroke="#404040" />
<rect x="250" y="66" width="4" height="4" fill="white" stroke="black" stroke-width="1" />
<path d="M252,201 L245,201" stroke="#404040" />
<rect x="250" y="199" width="4" height="4" fill="white" stroke="black" stroke-width="1" />
<path d="M252,227 L245,227" stroke="#404040" />
<rect x="250" y="225" width="4" height="4" fill="white" stroke="black" stroke-width="1" />
</svg>