<?xml version="1.0" encoding="UTF-8"?>
<svg xmlns="http://www.w3.org/2000/svg" xmlns:xlink="http://www.w3.org/1999/xlink"
     width="1126" height="275" viewBox="-548 -20 1126 275">
<defs>
</defs>
<rect x="3" y="3" width="280" height="225" fill="#000000" fill-opacity="0.1" rx="2" ry="2" />
<path d="M0,0 H280 V92 H274 V132 H280 V225 H0 V132 H6 V92 H0 Z" fill="#ffffff" stroke="#606060" stroke-width="2" />
<path d="M0,30 L280,30" stroke="#606060" stroke-width="1" />
<text x="140.0" y="110.0" font-size="14" fontWeight="bold" font-family="Verdana, sans-serif" font-style="italic" text-anchor="middle" dominant-baseline="central">Q_SelectActiveWorkingSet</text>
<text x="140.0" y="124.0" font-size="10" fill="#000" font-family="Consolas, monospace" text-anchor="middle" dominant-baseline="central">1.0</text>
<path d="M-5,37 L-5,47 L0,42 Z" fill="#5cb85c" stroke="none" />
<text x="12" y="46" font-size="12" text-anchor="start" font-family="Consolas, monospace">INIT</text>
<text x="-23" y="45" font-size="11" text-anchor="end" fill="#888" font-style="italic" font-family="Verdana, sans-serif">Event</text>
<text x="-93" y="45" font-size="11" text-anchor="end" fill="#666666" font-family="Verdana, sans-serif">Service Initialization</text>
<path d="M-5,63 L-5,73 L0,68 Z" fill="#5cb85c" stroke="none" />
<text x="12" y="72" font-size="12" text-anchor="start" font-family="Consolas, monospace">REQ</text>
<text x="-23" y="71" font-size="11" text-anchor="end" fill="#888" font-style="italic" font-family="Verdana, sans-serif">Event</text>
<text x="-93" y="71" font-size="11" text-anchor="end" fill="#666666" font-family="Verdana, sans-serif">Service Request</text>
<path d="M-5,144 L-5,154 L0,149 Z" fill="#0066cc" stroke="none" />
<text x="12" y="153" font-size="12" text-anchor="start" font-family="Consolas, monospace">pau8Name</text>
<text x="-23" y="152" font-size="11" text-anchor="end" fill="#0066cc" font-style="italic" font-family="Verdana, sans-serif">USINT</text>
<text x="-93" y="152" font-size="11" text-anchor="end" fill="#666666" font-family="Verdana, sans-serif">Iso NAME of the new active working set</text>
<path d="M280,37 L280,47 L285,42 Z" fill="#5cb85c" stroke="none" />
<text x="268" y="46" font-size="12" text-anchor="end" font-family="Consolas, monospace">INITO</text>
<text x="303" y="45" font-size="11" text-anchor="start" fill="#888" font-style="italic" font-family="Verdana, sans-serif">Event</text>
<text x="373" y="45" font-size="11" text-anchor="start" fill="#666666" font-family="Verdana, sans-serif">Initialization Confirm</text>
<path d="M280,63 L280,73 L285,68 Z" fill="#5cb85c" stroke="none" />
<text x="268" y="72" font-size="12" text-anchor="end" font-family="Consolas, monospace">CNF</text>
<text x="303" y="71" font-size="11" text-anchor="start" fill="#888" font-style="italic" font-family="Verdana, sans-serif">Event</text>
<text x="373" y="71" font-size="11" text-anchor="start" fill="#666666" font-family="Verdana, sans-serif">Confirmation of Requested Service</text>
<path d="M280,144 L280,154 L285,149 Z" fill="#0066cc" stroke="none" />
<text x="268" y="153" font-size="12" text-anchor="end" font-family="Consolas, monospace">STATUS</text>
<text x="303" y="152" font-size="11" text-anchor="start" fill="#0066cc" font-style="italic" font-family="Verdana, sans-serif">STRING</text>
<text x="373" y="152" font-size="11" text-anchor="start" fill="#666666" font-family="Verdana, sans-serif">Service Status</text>
<path d="M280,170 L280,180 L285,175 Z" fill="#0066cc" stroke="none" />
<text x="268" y="179" font-size="12" text-anchor="end" font-family="Consolas, monospace">pau8OldName</text>
<text x="303" y="178" font-size="11" text-anchor="start" fill="#0066cc" font-style="italic" font-family="Verdana, sans-serif">USINT</text>
<text x="373" y="178" font-size="11" text-anchor="start" fill="#666666" font-family="Verdana, sans-serif">Old value of Visible</text>
<path d="M280,196 L280,206 L285,201 Z" fill="#0066cc" stroke="none" />
<text x="268" y="205" font-size="12" text-anchor="end" font-family="Consolas, monospace">s16result</text>
<text x="303" y="204" font-size="11" text-anchor="start" fill="#0066cc" font-style="italic" font-family="Verdana, sans-serif">INT</text>
<text x="373" y="204" font-size="11" text-anchor="start" fill="#666666" font-family="Verdana, sans-serif">retval see description</text>
<path d="M-12,68 L-12,149" stroke="#404040" stroke-width="1" />
<path d="M0,68 L-12,68" stroke="#404040" />
<rect x="-14" y="66" width="4" height="4" fill="white" stroke="black" stroke-width="1" />
<path d="M-12,149 L-5,149" stroke="#404040" />
<rect x="-14" y="147" width="4" height="4" fill="white" stroke="black" stroke-width="1" />
<path d="M292,68 L292,201" stroke="#404040" stroke-width="1" />
<path d="M280,68 L292,68" stroke="#404040" />
<rect x="290" y="66" width="4" height="4" fill="white" stroke="black" stroke-width="1" />
<path d="M292,149 L285,149" stroke="#404040" />
<rect x="290" y="147" width="4" height="4" fill="white" stroke="black" stroke-width="1" />
<path d="M292,175 L285,175" stroke="#404040" />
<rect x="290" y="173" width="4" height="4" fill="white" stroke="black" stroke-width="1" />
<path d="M292,201 L285,201" stroke="#404040" />
<rect x="290" y="199" width="4" height="4" fill="white" stroke="black" stroke-width="1" />
</svg>