<?xml version="1.0" encoding="UTF-8"?>
<svg xmlns="http://www.w3.org/2000/svg" xmlns:xlink="http://www.w3.org/1999/xlink"
     width="1328" height="275" viewBox="-540 -20 1328 275">
<defs>
</defs>
<rect x="3" y="3" width="240" height="225" fill="#000000" fill-opacity="0.1" rx="2" ry="2" />
<path d="M0,0 H240 V92 H234 V132 H240 V225 H0 V132 H6 V92 H0 Z" fill="#ffffff" stroke="#000000" stroke-width="2" />
<path d="M0,30 L240,30" stroke="#000000" stroke-width="1" />
<text x="120.0" y="110.0" font-size="14" fontWeight="bold" font-family="Verdana, sans-serif" font-style="italic" text-anchor="middle" dominant-baseline="central">Q_SetAudioVolume_AUS</text>
<text x="120.0" y="124.0" font-size="10" fill="#000" font-family="Consolas, monospace" text-anchor="middle" dominant-baseline="central">1.0</text>
<path d="M-5,37 L-5,47 L0,42 Z" fill="#63B31F" stroke="none" />
<text x="12" y="46" font-size="12" text-anchor="start" font-family="Consolas, monospace">INIT</text>
<text x="-15" y="45" font-size="11" text-anchor="end" fill="#888" font-style="italic" font-family="Verdana, sans-serif">Event</text>
<text x="-96" y="45" font-size="11" text-anchor="end" fill="#666666" font-family="Verdana, sans-serif">Service Initialization</text>
<rect x="-5.0" y="144.0" width="10" height="10" fill="white" stroke="#845DAF" stroke-width="2.5" />
<text x="12" y="153" font-size="12" text-anchor="start" font-family="Consolas, monospace">u8Volume</text>
<text x="-15" y="152" font-size="11" text-anchor="end" fill="#000" font-style="italic" font-family="Verdana, sans-serif">AUS</text>
<text x="-96" y="152" font-size="11" text-anchor="end" fill="#666666" font-family="Verdana, sans-serif">Volume 0 - 100 (%) </text>
<path d="M240,37 L240,47 L245,42 Z" fill="#63B31F" stroke="none" />
<text x="228" y="46" font-size="12" text-anchor="end" font-family="Consolas, monospace">INITO</text>
<text x="263" y="45" font-size="11" text-anchor="start" fill="#888" font-style="italic" font-family="Verdana, sans-serif">Event</text>
<text x="333" y="45" font-size="11" text-anchor="start" fill="#666666" font-family="Verdana, sans-serif">Initialization Confirm</text>
<path d="M240,63 L240,73 L245,68 Z" fill="#63B31F" stroke="none" />
<text x="228" y="72" font-size="12" text-anchor="end" font-family="Consolas, monospace">CNF</text>
<text x="263" y="71" font-size="11" text-anchor="start" fill="#888" font-style="italic" font-family="Verdana, sans-serif">Event</text>
<text x="333" y="71" font-size="11" text-anchor="start" fill="#666666" font-family="Verdana, sans-serif">Confirmation of Requested Service</text>
<rect x="235.0" y="144.0" width="10" height="10" fill="#845DAF" stroke="none" />
<text x="228" y="153" font-size="12" text-anchor="end" font-family="Consolas, monospace">u8OldVolume</text>
<text x="263" y="152" font-size="11" text-anchor="start" fill="#000" font-style="italic" font-family="Verdana, sans-serif">AUS</text>
<text x="333" y="152" font-size="11" text-anchor="start" fill="#666666" font-family="Verdana, sans-serif">Old volume 0 - 100 (%) </text>
<path d="M240,170 L240,180 L245,175 Z" fill="#BD8663" stroke="none" />
<text x="228" y="179" font-size="12" text-anchor="end" font-family="Consolas, monospace">STATUS</text>
<text x="263" y="178" font-size="11" text-anchor="start" fill="#BD8663" font-style="italic" font-family="Verdana, sans-serif">STRING</text>
<text x="333" y="178" font-size="11" text-anchor="start" fill="#666666" font-family="Verdana, sans-serif">Service Status</text>
<path d="M240,196 L240,206 L245,201 Z" fill="#18519E" stroke="none" />
<text x="228" y="205" font-size="12" text-anchor="end" font-family="Consolas, monospace">s16result</text>
<text x="263" y="204" font-size="11" text-anchor="start" fill="#18519E" font-style="italic" font-family="Verdana, sans-serif">INT</text>
<text x="333" y="204" font-size="11" text-anchor="start" fill="#666666" font-family="Verdana, sans-serif">retval see description</text>
<path d="M252,68 L252,201" stroke="#404040" stroke-width="1" />
<path d="M240,68 L252,68" stroke="#404040" />
<rect x="250" y="66" width="4" height="4" fill="white" stroke="black" stroke-width="1" />
<path d="M252,175 L245,175" stroke="#404040" />
<rect x="250" y="173" width="4" height="4" fill="white" stroke="black" stroke-width="1" />
<path d="M252,201 L245,201" stroke="#404040" />
<rect x="250" y="199" width="4" height="4" fill="white" stroke="black" stroke-width="1" />
</svg>