<?xml version="1.0" encoding="UTF-8"?>
<svg xmlns="http://www.w3.org/2000/svg" xmlns:xlink="http://www.w3.org/1999/xlink"
     width="1002" height="301" viewBox="-556 -20 1002 301">
<defs>
</defs>
<rect x="3" y="3" width="148" height="251" fill="#000000" fill-opacity="0.1" rx="2" ry="2" />
<path d="M0,0 H148 V92 H142 V132 H148 V251 H0 V132 H6 V92 H0 Z" fill="#ffffff" stroke="#606060" stroke-width="2" />
<path d="M0,30 L148,30" stroke="#606060" stroke-width="1" />
<text x="74.0" y="110.0" font-size="14" fontWeight="bold" font-family="Verdana, sans-serif" font-style="italic" text-anchor="middle" dominant-baseline="central">Q_Size</text>
<text x="74.0" y="124.0" font-size="10" fill="#000" font-family="Consolas, monospace" text-anchor="middle" dominant-baseline="central">1.0</text>
<path d="M-5,37 L-5,47 L0,42 Z" fill="#5cb85c" stroke="none" />
<text x="12" y="46" font-size="12" text-anchor="start" font-family="Consolas, monospace">INIT</text>
<text x="-31" y="45" font-size="11" text-anchor="end" fill="#888" font-style="italic" font-family="Verdana, sans-serif">Event</text>
<text x="-101" y="45" font-size="11" text-anchor="end" fill="#666666" font-family="Verdana, sans-serif">Service Initialization</text>
<path d="M-5,63 L-5,73 L0,68 Z" fill="#5cb85c" stroke="none" />
<text x="12" y="72" font-size="12" text-anchor="start" font-family="Consolas, monospace">REQ</text>
<text x="-31" y="71" font-size="11" text-anchor="end" fill="#888" font-style="italic" font-family="Verdana, sans-serif">Event</text>
<text x="-101" y="71" font-size="11" text-anchor="end" fill="#666666" font-family="Verdana, sans-serif">Service Request</text>
<path d="M-5,144 L-5,154 L0,149 Z" fill="#0066cc" stroke="none" />
<text x="12" y="153" font-size="12" text-anchor="start" font-family="Consolas, monospace">u16ObjId</text>
<text x="-31" y="152" font-size="11" text-anchor="end" fill="#0066cc" font-style="italic" font-family="Verdana, sans-serif">UINT</text>
<text x="-101" y="152" font-size="11" text-anchor="end" fill="#666666" font-family="Verdana, sans-serif">Object ID</text>
<path d="M-5,170 L-5,180 L0,175 Z" fill="#0066cc" stroke="none" />
<text x="12" y="179" font-size="12" text-anchor="start" font-family="Consolas, monospace">u16Width</text>
<text x="-31" y="178" font-size="11" text-anchor="end" fill="#0066cc" font-style="italic" font-family="Verdana, sans-serif">UINT</text>
<text x="-101" y="178" font-size="11" text-anchor="end" fill="#666666" font-family="Verdana, sans-serif">New width </text>
<path d="M-5,196 L-5,206 L0,201 Z" fill="#0066cc" stroke="none" />
<text x="12" y="205" font-size="12" text-anchor="start" font-family="Consolas, monospace">u16Height</text>
<text x="-31" y="204" font-size="11" text-anchor="end" fill="#0066cc" font-style="italic" font-family="Verdana, sans-serif">UINT</text>
<text x="-101" y="204" font-size="11" text-anchor="end" fill="#666666" font-family="Verdana, sans-serif">New height</text>
<path d="M148,37 L148,47 L153,42 Z" fill="#5cb85c" stroke="none" />
<text x="136" y="46" font-size="12" text-anchor="end" font-family="Consolas, monospace">INITO</text>
<text x="171" y="45" font-size="11" text-anchor="start" fill="#888" font-style="italic" font-family="Verdana, sans-serif">Event</text>
<text x="241" y="45" font-size="11" text-anchor="start" fill="#666666" font-family="Verdana, sans-serif">Initialization Confirm</text>
<path d="M148,63 L148,73 L153,68 Z" fill="#5cb85c" stroke="none" />
<text x="136" y="72" font-size="12" text-anchor="end" font-family="Consolas, monospace">CNF</text>
<text x="171" y="71" font-size="11" text-anchor="start" fill="#888" font-style="italic" font-family="Verdana, sans-serif">Event</text>
<text x="241" y="71" font-size="11" text-anchor="start" fill="#666666" font-family="Verdana, sans-serif">Confirmation of Requested Service</text>
<path d="M148,144 L148,154 L153,149 Z" fill="#0066cc" stroke="none" />
<text x="136" y="153" font-size="12" text-anchor="end" font-family="Consolas, monospace">STATUS</text>
<text x="171" y="152" font-size="11" text-anchor="start" fill="#0066cc" font-style="italic" font-family="Verdana, sans-serif">STRING</text>
<text x="241" y="152" font-size="11" text-anchor="start" fill="#666666" font-family="Verdana, sans-serif">Service Status</text>
<path d="M148,170 L148,180 L153,175 Z" fill="#0066cc" stroke="none" />
<text x="136" y="179" font-size="12" text-anchor="end" font-family="Consolas, monospace">u16OldWidth</text>
<text x="171" y="178" font-size="11" text-anchor="start" fill="#0066cc" font-style="italic" font-family="Verdana, sans-serif">UINT</text>
<text x="241" y="178" font-size="11" text-anchor="start" fill="#666666" font-family="Verdana, sans-serif">Old width </text>
<path d="M148,196 L148,206 L153,201 Z" fill="#0066cc" stroke="none" />
<text x="136" y="205" font-size="12" text-anchor="end" font-family="Consolas, monospace">u16OldHeight</text>
<text x="171" y="204" font-size="11" text-anchor="start" fill="#0066cc" font-style="italic" font-family="Verdana, sans-serif">UINT</text>
<text x="241" y="204" font-size="11" text-anchor="start" fill="#666666" font-family="Verdana, sans-serif">Old height</text>
<path d="M148,222 L148,232 L153,227 Z" fill="#0066cc" stroke="none" />
<text x="136" y="231" font-size="12" text-anchor="end" font-family="Consolas, monospace">s16result</text>
<text x="171" y="230" font-size="11" text-anchor="start" fill="#0066cc" font-style="italic" font-family="Verdana, sans-serif">INT</text>
<text x="241" y="230" font-size="11" text-anchor="start" fill="#666666" font-family="Verdana, sans-serif">retval see description</text>
<path d="M-12,42 L-12,149" stroke="#404040" stroke-width="1" />
<path d="M0,42 L-12,42" stroke="#404040" />
<rect x="-14" y="40" width="4" height="4" fill="white" stroke="black" stroke-width="1" />
<path d="M-12,149 L-5,149" stroke="#404040" />
<rect x="-14" y="147" width="4" height="4" fill="white" stroke="black" stroke-width="1" />
<path d="M-20,68 L-20,201" stroke="#404040" stroke-width="1" />
<path d="M0,68 L-20,68" stroke="#404040" />
<rect x="-22" y="66" width="4" height="4" fill="white" stroke="black" stroke-width="1" />
<path d="M-20,175 L-5,175" stroke="#404040" />
<rect x="-22" y="173" width="4" height="4" fill="white" stroke="black" stroke-width="1" />
<path d="M-20,201 L-5,201" stroke="#404040" />
<rect x="-22" y="199" width="4" height="4" fill="white" stroke="black" stroke-width="1" />
<path d="M160,68 L160,227" stroke="#404040" stroke-width="1" />
<path d="M148,68 L160,68" stroke="#404040" />
<rect x="158" y="66" width="4" height="4" fill="white" stroke="black" stroke-width="1" />
<path d="M160,149 L153,149" stroke="#404040" />
<rect x="158" y="147" width="4" height="4" fill="white" stroke="black" stroke-width="1" />
<path d="M160,227 L153,227" stroke="#404040" />
<rect x="158" y="225" width="4" height="4" fill="white" stroke="black" stroke-width="1" />
<path d="M160,175 L153,175" stroke="#404040" />
<rect x="158" y="173" width="4" height="4" fill="white" stroke="black" stroke-width="1" />
<path d="M160,201 L153,201" stroke="#404040" />
<rect x="158" y="199" width="4" height="4" fill="white" stroke="black" stroke-width="1" />
</svg>