<?xml version="1.0" encoding="UTF-8"?>
<svg xmlns="http://www.w3.org/2000/svg" xmlns:xlink="http://www.w3.org/1999/xlink"
     width="1306" height="249" viewBox="-548 -20 1306 249">
<defs>
</defs>
<rect x="3" y="3" width="210" height="199" fill="#000000" fill-opacity="0.1" rx="2" ry="2" />
<path d="M0,0 H210 V92 H204 V132 H210 V199 H0 V132 H6 V92 H0 Z" fill="#ffffff" stroke="#000000" stroke-width="2" />
<path d="M0,30 L210,30" stroke="#000000" stroke-width="1" />
<text x="105.0" y="110.0" font-size="14" fontWeight="bold" font-family="Verdana, sans-serif" font-style="italic" text-anchor="middle" dominant-baseline="central">Q_StringValue_AIS</text>
<text x="105.0" y="124.0" font-size="10" fill="#000" font-family="Consolas, monospace" text-anchor="middle" dominant-baseline="central">1.0</text>
<path d="M-5,37 L-5,47 L0,42 Z" fill="#63B31F" stroke="none" />
<text x="12" y="46" font-size="12" text-anchor="start" font-family="Consolas, monospace">INIT</text>
<text x="-23" y="45" font-size="11" text-anchor="end" fill="#888" font-style="italic" font-family="Verdana, sans-serif">Event</text>
<text x="-104" y="45" font-size="11" text-anchor="end" fill="#666666" font-family="Verdana, sans-serif">Service Initialization</text>
<rect x="-5.0" y="144.0" width="10" height="10" fill="white" stroke="#845DAF" stroke-width="2.5" />
<text x="12" y="153" font-size="12" text-anchor="start" font-family="Consolas, monospace">pau8String</text>
<text x="-23" y="152" font-size="11" text-anchor="end" fill="#000" font-style="italic" font-family="Verdana, sans-serif">AIS</text>
<text x="-104" y="152" font-size="11" text-anchor="end" fill="#666666" font-family="Verdana, sans-serif">New string value</text>
<path d="M-5,170 L-5,180 L0,175 Z" fill="#18519E" stroke="none" />
<text x="12" y="179" font-size="12" text-anchor="start" font-family="Consolas, monospace">u16ObjId</text>
<text x="-23" y="178" font-size="11" text-anchor="end" fill="#18519E" font-style="italic" font-family="Verdana, sans-serif">UINT</text>
<text x="-104" y="178" font-size="11" text-anchor="end" fill="#666666" font-family="Verdana, sans-serif">Object ID</text>
<path d="M210,37 L210,47 L215,42 Z" fill="#63B31F" stroke="none" />
<text x="198" y="46" font-size="12" text-anchor="end" font-family="Consolas, monospace">INITO</text>
<text x="233" y="45" font-size="11" text-anchor="start" fill="#888" font-style="italic" font-family="Verdana, sans-serif">Event</text>
<text x="303" y="45" font-size="11" text-anchor="start" fill="#666666" font-family="Verdana, sans-serif">Initialization Confirm</text>
<path d="M210,63 L210,73 L215,68 Z" fill="#63B31F" stroke="none" />
<text x="198" y="72" font-size="12" text-anchor="end" font-family="Consolas, monospace">CNF</text>
<text x="233" y="71" font-size="11" text-anchor="start" fill="#888" font-style="italic" font-family="Verdana, sans-serif">Event</text>
<text x="303" y="71" font-size="11" text-anchor="start" fill="#666666" font-family="Verdana, sans-serif">Confirmation of Requested Service</text>
<path d="M210,144 L210,154 L215,149 Z" fill="#BD8663" stroke="none" />
<text x="198" y="153" font-size="12" text-anchor="end" font-family="Consolas, monospace">STATUS</text>
<text x="233" y="152" font-size="11" text-anchor="start" fill="#BD8663" font-style="italic" font-family="Verdana, sans-serif">STRING</text>
<text x="303" y="152" font-size="11" text-anchor="start" fill="#666666" font-family="Verdana, sans-serif">Service Status</text>
<path d="M210,170 L210,180 L215,175 Z" fill="#18519E" stroke="none" />
<text x="198" y="179" font-size="12" text-anchor="end" font-family="Consolas, monospace">s16result</text>
<text x="233" y="178" font-size="11" text-anchor="start" fill="#18519E" font-style="italic" font-family="Verdana, sans-serif">INT</text>
<text x="303" y="178" font-size="11" text-anchor="start" fill="#666666" font-family="Verdana, sans-serif">retval see description</text>
<path d="M-12,42 L-12,175" stroke="#404040" stroke-width="1" />
<path d="M0,42 L-12,42" stroke="#404040" />
<rect x="-14" y="40" width="4" height="4" fill="white" stroke="black" stroke-width="1" />
<path d="M-12,175 L-5,175" stroke="#404040" />
<rect x="-14" y="173" width="4" height="4" fill="white" stroke="black" stroke-width="1" />
<path d="M222,68 L222,175" stroke="#404040" stroke-width="1" />
<path d="M210,68 L222,68" stroke="#404040" />
<rect x="220" y="66" width="4" height="4" fill="white" stroke="black" stroke-width="1" />
<path d="M222,149 L215,149" stroke="#404040" />
<rect x="220" y="147" width="4" height="4" fill="white" stroke="black" stroke-width="1" />
<path d="M222,175 L215,175" stroke="#404040" />
<rect x="220" y="173" width="4" height="4" fill="white" stroke="black" stroke-width="1" />
</svg>