<?xml version="1.0" encoding="UTF-8"?>
<svg xmlns="http://www.w3.org/2000/svg" xmlns:xlink="http://www.w3.org/1999/xlink"
     width="1200" height="800" viewBox="0 0 1200 800">
<defs>
</defs>
<rect x="0" y="0" width="1200" height="800" fill="#ffffff" />
<text x="600" y="25" font-size="14" fontWeight="bold" font-family="Verdana, sans-serif" fill="#000000" text-anchor="middle" dominant-baseline="central">ECC: sequence_T_04_AX</text>
<rect x="10.0" y="413.00056250000006" width="80" height="32" fill="#f5f5f5" stroke="#000000" stroke-width="2" rx="8" ry="8" />
<text x="50.0" y="429.00056250000006" font-size="12" fontWeight="bold" font-family="Verdana, sans-serif" fill="#000000" text-anchor="middle" dominant-baseline="central">sRESET</text>
<rect x="100.0" y="413.00056250000006" width="161" height="78" fill="#ffffff" stroke="#cccccc" stroke-width="1" rx="4" ry="4" />
<path d="M90.0,429.00056250000006 L100.0,424.00056250000006" stroke="#000000" stroke-width="2" />
<path d="M180.0,413.00056250000006 L180.0,491.00056250000006" stroke="#cccccc" stroke-width="1" />
<rect x="100.0" y="417.00056250000006" width="80" height="14" fill="#e6f7e6" stroke="#cccccc" stroke-width="0.5" />
<text x="140.0" y="425.00056250000006" font-size="10" font-family="Consolas, monospace" fill="#000000" text-anchor="middle" dominant-baseline="central"></text>
<rect x="181.0" y="417.00056250000006" width="80" height="14" fill="#ffe6e6" stroke="#cccccc" stroke-width="0.5" />
<text x="221.0" y="425.00056250000006" font-size="10" font-family="Consolas, monospace" fill="#000000" text-anchor="middle" dominant-baseline="central">timeOut.STOP</text>
<path d="M100.0,431.00056250000006 L261.0,431.00056250000006" stroke="#cccccc" stroke-width="0.5" />
<rect x="100.0" y="431.00056250000006" width="80" height="14" fill="#e6f7e6" stroke="#cccccc" stroke-width="0.5" />
<text x="140.0" y="439.00056250000006" font-size="10" font-family="Consolas, monospace" fill="#000000" text-anchor="middle" dominant-baseline="central">State_01_X</text>
<rect x="181.0" y="431.00056250000006" width="80" height="14" fill="#ffe6e6" stroke="#cccccc" stroke-width="0.5" />
<text x="221.0" y="439.00056250000006" font-size="10" font-family="Consolas, monospace" fill="#000000" text-anchor="middle" dominant-baseline="central">DO_S1.E1</text>
<path d="M100.0,445.00056250000006 L261.0,445.00056250000006" stroke="#cccccc" stroke-width="0.5" />
<rect x="100.0" y="445.00056250000006" width="80" height="14" fill="#e6f7e6" stroke="#cccccc" stroke-width="0.5" />
<text x="140.0" y="453.00056250000006" font-size="10" font-family="Consolas, monospace" fill="#000000" text-anchor="middle" dominant-baseline="central">State_02_X</text>
<rect x="181.0" y="445.00056250000006" width="80" height="14" fill="#ffe6e6" stroke="#cccccc" stroke-width="0.5" />
<text x="221.0" y="453.00056250000006" font-size="10" font-family="Consolas, monospace" fill="#000000" text-anchor="middle" dominant-baseline="central">DO_S2.E1</text>
<path d="M100.0,459.00056250000006 L261.0,459.00056250000006" stroke="#cccccc" stroke-width="0.5" />
<rect x="100.0" y="459.00056250000006" width="80" height="14" fill="#e6f7e6" stroke="#cccccc" stroke-width="0.5" />
<text x="140.0" y="467.00056250000006" font-size="10" font-family="Consolas, monospace" fill="#000000" text-anchor="middle" dominant-baseline="central">State_03_X</text>
<rect x="181.0" y="459.00056250000006" width="80" height="14" fill="#ffe6e6" stroke="#cccccc" stroke-width="0.5" />
<text x="221.0" y="467.00056250000006" font-size="10" font-family="Consolas, monospace" fill="#000000" text-anchor="middle" dominant-baseline="central">DO_S3.E1</text>
<path d="M100.0,473.00056250000006 L261.0,473.00056250000006" stroke="#cccccc" stroke-width="0.5" />
<rect x="100.0" y="473.00056250000006" width="80" height="14" fill="#e6f7e6" stroke="#cccccc" stroke-width="0.5" />
<text x="140.0" y="481.00056250000006" font-size="10" font-family="Consolas, monospace" fill="#000000" text-anchor="middle" dominant-baseline="central">State_04_X</text>
<rect x="181.0" y="473.00056250000006" width="80" height="14" fill="#ffe6e6" stroke="#cccccc" stroke-width="0.5" />
<text x="221.0" y="481.00056250000006" font-size="10" font-family="Consolas, monospace" fill="#000000" text-anchor="middle" dominant-baseline="central">DO_S4.E1</text>
<rect x="257.5005625" y="98.0" width="80" height="32" fill="#f5f5f5" stroke="#000000" stroke-width="2" rx="8" ry="8" />
<text x="297.5005625" y="114.0" font-size="12" fontWeight="bold" font-family="Verdana, sans-serif" fill="#000000" text-anchor="middle" dominant-baseline="central">xSTART</text>
<rect x="570.1011250000001" y="187.9994375" width="84.8" height="32" fill="#f5f5f5" stroke="#000000" stroke-width="2" rx="8" ry="8" />
<text x="612.5011250000001" y="203.9994375" font-size="12" fontWeight="bold" font-family="Verdana, sans-serif" fill="#000000" text-anchor="middle" dominant-baseline="central">sState_01</text>
<rect x="664.9011250000001" y="187.9994375" width="167.0" height="64" fill="#ffffff" stroke="#cccccc" stroke-width="1" rx="4" ry="4" />
<path d="M654.9011250000001,203.9994375 L664.9011250000001,198.9994375" stroke="#000000" stroke-width="2" />
<path d="M744.9011250000001,187.9994375 L744.9011250000001,251.9994375" stroke="#cccccc" stroke-width="1" />
<rect x="664.9011250000001" y="191.9994375" width="80" height="14" fill="#e6f7e6" stroke="#cccccc" stroke-width="0.5" />
<text x="704.9011250000001" y="199.9994375" font-size="10" font-family="Consolas, monospace" fill="#000000" text-anchor="middle" dominant-baseline="central"></text>
<rect x="745.9011250000001" y="191.9994375" width="86.0" height="14" fill="#ffe6e6" stroke="#cccccc" stroke-width="0.5" />
<text x="788.9011250000001" y="199.9994375" font-size="10" font-family="Consolas, monospace" fill="#000000" text-anchor="middle" dominant-baseline="central"></text>
<path d="M664.9011250000001,205.9994375 L831.9011250000001,205.9994375" stroke="#cccccc" stroke-width="0.5" />
<rect x="664.9011250000001" y="205.9994375" width="80" height="14" fill="#e6f7e6" stroke="#cccccc" stroke-width="0.5" />
<text x="704.9011250000001" y="213.9994375" font-size="10" font-family="Consolas, monospace" fill="#000000" text-anchor="middle" dominant-baseline="central">State_01_C</text>
<rect x="745.9011250000001" y="205.9994375" width="86.0" height="14" fill="#ffe6e6" stroke="#cccccc" stroke-width="0.5" />
<text x="788.9011250000001" y="213.9994375" font-size="10" font-family="Consolas, monospace" fill="#000000" text-anchor="middle" dominant-baseline="central">CNF</text>
<path d="M664.9011250000001,219.9994375 L831.9011250000001,219.9994375" stroke="#cccccc" stroke-width="0.5" />
<rect x="664.9011250000001" y="219.9994375" width="80" height="14" fill="#e6f7e6" stroke="#cccccc" stroke-width="0.5" />
<text x="704.9011250000001" y="227.9994375" font-size="10" font-family="Consolas, monospace" fill="#000000" text-anchor="middle" dominant-baseline="central">State_01_E</text>
<rect x="745.9011250000001" y="219.9994375" width="86.0" height="14" fill="#ffe6e6" stroke="#cccccc" stroke-width="0.5" />
<text x="788.9011250000001" y="227.9994375" font-size="10" font-family="Consolas, monospace" fill="#000000" text-anchor="middle" dominant-baseline="central">DO_S1.E1</text>
<path d="M664.9011250000001,233.9994375 L831.9011250000001,233.9994375" stroke="#cccccc" stroke-width="0.5" />
<rect x="664.9011250000001" y="233.9994375" width="80" height="14" fill="#e6f7e6" stroke="#cccccc" stroke-width="0.5" />
<text x="704.9011250000001" y="241.9994375" font-size="10" font-family="Consolas, monospace" fill="#000000" text-anchor="middle" dominant-baseline="central"></text>
<rect x="745.9011250000001" y="233.9994375" width="86.0" height="14" fill="#ffe6e6" stroke="#cccccc" stroke-width="0.5" />
<text x="788.9011250000001" y="241.9994375" font-size="10" font-family="Consolas, monospace" fill="#000000" text-anchor="middle" dominant-baseline="central">timeOut.START</text>
<rect x="570.1011250000001" y="300.5" width="84.8" height="32" fill="#f5f5f5" stroke="#000000" stroke-width="2" rx="8" ry="8" />
<text x="612.5011250000001" y="316.5" font-size="12" fontWeight="bold" font-family="Verdana, sans-serif" fill="#000000" text-anchor="middle" dominant-baseline="central">sState_02</text>
<rect x="664.9011250000001" y="300.5" width="167.0" height="64" fill="#ffffff" stroke="#cccccc" stroke-width="1" rx="4" ry="4" />
<path d="M654.9011250000001,316.5 L664.9011250000001,311.5" stroke="#000000" stroke-width="2" />
<path d="M744.9011250000001,300.5 L744.9011250000001,364.5" stroke="#cccccc" stroke-width="1" />
<rect x="664.9011250000001" y="304.5" width="80" height="14" fill="#e6f7e6" stroke="#cccccc" stroke-width="0.5" />
<text x="704.9011250000001" y="312.5" font-size="10" font-family="Consolas, monospace" fill="#000000" text-anchor="middle" dominant-baseline="central">State_01_X</text>
<rect x="745.9011250000001" y="304.5" width="86.0" height="14" fill="#ffe6e6" stroke="#cccccc" stroke-width="0.5" />
<text x="788.9011250000001" y="312.5" font-size="10" font-family="Consolas, monospace" fill="#000000" text-anchor="middle" dominant-baseline="central">DO_S1.E1</text>
<path d="M664.9011250000001,318.5 L831.9011250000001,318.5" stroke="#cccccc" stroke-width="0.5" />
<rect x="664.9011250000001" y="318.5" width="80" height="14" fill="#e6f7e6" stroke="#cccccc" stroke-width="0.5" />
<text x="704.9011250000001" y="326.5" font-size="10" font-family="Consolas, monospace" fill="#000000" text-anchor="middle" dominant-baseline="central">State_02_C</text>
<rect x="745.9011250000001" y="318.5" width="86.0" height="14" fill="#ffe6e6" stroke="#cccccc" stroke-width="0.5" />
<text x="788.9011250000001" y="326.5" font-size="10" font-family="Consolas, monospace" fill="#000000" text-anchor="middle" dominant-baseline="central">CNF</text>
<path d="M664.9011250000001,332.5 L831.9011250000001,332.5" stroke="#cccccc" stroke-width="0.5" />
<rect x="664.9011250000001" y="332.5" width="80" height="14" fill="#e6f7e6" stroke="#cccccc" stroke-width="0.5" />
<text x="704.9011250000001" y="340.5" font-size="10" font-family="Consolas, monospace" fill="#000000" text-anchor="middle" dominant-baseline="central">State_02_E</text>
<rect x="745.9011250000001" y="332.5" width="86.0" height="14" fill="#ffe6e6" stroke="#cccccc" stroke-width="0.5" />
<text x="788.9011250000001" y="340.5" font-size="10" font-family="Consolas, monospace" fill="#000000" text-anchor="middle" dominant-baseline="central">DO_S2.E1</text>
<path d="M664.9011250000001,346.5 L831.9011250000001,346.5" stroke="#cccccc" stroke-width="0.5" />
<rect x="664.9011250000001" y="346.5" width="80" height="14" fill="#e6f7e6" stroke="#cccccc" stroke-width="0.5" />
<text x="704.9011250000001" y="354.5" font-size="10" font-family="Consolas, monospace" fill="#000000" text-anchor="middle" dominant-baseline="central"></text>
<rect x="745.9011250000001" y="346.5" width="86.0" height="14" fill="#ffe6e6" stroke="#cccccc" stroke-width="0.5" />
<text x="788.9011250000001" y="354.5" font-size="10" font-family="Consolas, monospace" fill="#000000" text-anchor="middle" dominant-baseline="central">timeOut.START</text>
<rect x="570.1011250000001" y="413.00056250000006" width="84.8" height="32" fill="#f5f5f5" stroke="#000000" stroke-width="2" rx="8" ry="8" />
<text x="612.5011250000001" y="429.00056250000006" font-size="12" fontWeight="bold" font-family="Verdana, sans-serif" fill="#000000" text-anchor="middle" dominant-baseline="central">sState_03</text>
<rect x="664.9011250000001" y="413.00056250000006" width="167.0" height="64" fill="#ffffff" stroke="#cccccc" stroke-width="1" rx="4" ry="4" />
<path d="M654.9011250000001,429.00056250000006 L664.9011250000001,424.00056250000006" stroke="#000000" stroke-width="2" />
<path d="M744.9011250000001,413.00056250000006 L744.9011250000001,477.00056250000006" stroke="#cccccc" stroke-width="1" />
<rect x="664.9011250000001" y="417.00056250000006" width="80" height="14" fill="#e6f7e6" stroke="#cccccc" stroke-width="0.5" />
<text x="704.9011250000001" y="425.00056250000006" font-size="10" font-family="Consolas, monospace" fill="#000000" text-anchor="middle" dominant-baseline="central">State_02_X</text>
<rect x="745.9011250000001" y="417.00056250000006" width="86.0" height="14" fill="#ffe6e6" stroke="#cccccc" stroke-width="0.5" />
<text x="788.9011250000001" y="425.00056250000006" font-size="10" font-family="Consolas, monospace" fill="#000000" text-anchor="middle" dominant-baseline="central">DO_S2.E1</text>
<path d="M664.9011250000001,431.00056250000006 L831.9011250000001,431.00056250000006" stroke="#cccccc" stroke-width="0.5" />
<rect x="664.9011250000001" y="431.00056250000006" width="80" height="14" fill="#e6f7e6" stroke="#cccccc" stroke-width="0.5" />
<text x="704.9011250000001" y="439.00056250000006" font-size="10" font-family="Consolas, monospace" fill="#000000" text-anchor="middle" dominant-baseline="central">State_03_C</text>
<rect x="745.9011250000001" y="431.00056250000006" width="86.0" height="14" fill="#ffe6e6" stroke="#cccccc" stroke-width="0.5" />
<text x="788.9011250000001" y="439.00056250000006" font-size="10" font-family="Consolas, monospace" fill="#000000" text-anchor="middle" dominant-baseline="central">CNF</text>
<path d="M664.9011250000001,445.00056250000006 L831.9011250000001,445.00056250000006" stroke="#cccccc" stroke-width="0.5" />
<rect x="664.9011250000001" y="445.00056250000006" width="80" height="14" fill="#e6f7e6" stroke="#cccccc" stroke-width="0.5" />
<text x="704.9011250000001" y="453.00056250000006" font-size="10" font-family="Consolas, monospace" fill="#000000" text-anchor="middle" dominant-baseline="central">State_03_E</text>
<rect x="745.9011250000001" y="445.00056250000006" width="86.0" height="14" fill="#ffe6e6" stroke="#cccccc" stroke-width="0.5" />
<text x="788.9011250000001" y="453.00056250000006" font-size="10" font-family="Consolas, monospace" fill="#000000" text-anchor="middle" dominant-baseline="central">DO_S3.E1</text>
<path d="M664.9011250000001,459.00056250000006 L831.9011250000001,459.00056250000006" stroke="#cccccc" stroke-width="0.5" />
<rect x="664.9011250000001" y="459.00056250000006" width="80" height="14" fill="#e6f7e6" stroke="#cccccc" stroke-width="0.5" />
<text x="704.9011250000001" y="467.00056250000006" font-size="10" font-family="Consolas, monospace" fill="#000000" text-anchor="middle" dominant-baseline="central"></text>
<rect x="745.9011250000001" y="459.00056250000006" width="86.0" height="14" fill="#ffe6e6" stroke="#cccccc" stroke-width="0.5" />
<text x="788.9011250000001" y="467.00056250000006" font-size="10" font-family="Consolas, monospace" fill="#000000" text-anchor="middle" dominant-baseline="central">timeOut.START</text>
<rect x="570.1011250000001" y="525.4994375" width="84.8" height="32" fill="#f5f5f5" stroke="#000000" stroke-width="2" rx="8" ry="8" />
<text x="612.5011250000001" y="541.4994375" font-size="12" fontWeight="bold" font-family="Verdana, sans-serif" fill="#000000" text-anchor="middle" dominant-baseline="central">sState_04</text>
<rect x="664.9011250000001" y="525.4994375" width="167.0" height="64" fill="#ffffff" stroke="#cccccc" stroke-width="1" rx="4" ry="4" />
<path d="M654.9011250000001,541.4994375 L664.9011250000001,536.4994375" stroke="#000000" stroke-width="2" />
<path d="M744.9011250000001,525.4994375 L744.9011250000001,589.4994375" stroke="#cccccc" stroke-width="1" />
<rect x="664.9011250000001" y="529.4994375" width="80" height="14" fill="#e6f7e6" stroke="#cccccc" stroke-width="0.5" />
<text x="704.9011250000001" y="537.4994375" font-size="10" font-family="Consolas, monospace" fill="#000000" text-anchor="middle" dominant-baseline="central">State_03_X</text>
<rect x="745.9011250000001" y="529.4994375" width="86.0" height="14" fill="#ffe6e6" stroke="#cccccc" stroke-width="0.5" />
<text x="788.9011250000001" y="537.4994375" font-size="10" font-family="Consolas, monospace" fill="#000000" text-anchor="middle" dominant-baseline="central">DO_S3.E1</text>
<path d="M664.9011250000001,543.4994375 L831.9011250000001,543.4994375" stroke="#cccccc" stroke-width="0.5" />
<rect x="664.9011250000001" y="543.4994375" width="80" height="14" fill="#e6f7e6" stroke="#cccccc" stroke-width="0.5" />
<text x="704.9011250000001" y="551.4994375" font-size="10" font-family="Consolas, monospace" fill="#000000" text-anchor="middle" dominant-baseline="central">State_04_C</text>
<rect x="745.9011250000001" y="543.4994375" width="86.0" height="14" fill="#ffe6e6" stroke="#cccccc" stroke-width="0.5" />
<text x="788.9011250000001" y="551.4994375" font-size="10" font-family="Consolas, monospace" fill="#000000" text-anchor="middle" dominant-baseline="central">CNF</text>
<path d="M664.9011250000001,557.4994375 L831.9011250000001,557.4994375" stroke="#cccccc" stroke-width="0.5" />
<rect x="664.9011250000001" y="557.4994375" width="80" height="14" fill="#e6f7e6" stroke="#cccccc" stroke-width="0.5" />
<text x="704.9011250000001" y="565.4994375" font-size="10" font-family="Consolas, monospace" fill="#000000" text-anchor="middle" dominant-baseline="central">State_04_E</text>
<rect x="745.9011250000001" y="557.4994375" width="86.0" height="14" fill="#ffe6e6" stroke="#cccccc" stroke-width="0.5" />
<text x="788.9011250000001" y="565.4994375" font-size="10" font-family="Consolas, monospace" fill="#000000" text-anchor="middle" dominant-baseline="central">DO_S4.E1</text>
<path d="M664.9011250000001,571.4994375 L831.9011250000001,571.4994375" stroke="#cccccc" stroke-width="0.5" />
<rect x="664.9011250000001" y="571.4994375" width="80" height="14" fill="#e6f7e6" stroke="#cccccc" stroke-width="0.5" />
<text x="704.9011250000001" y="579.4994375" font-size="10" font-family="Consolas, monospace" fill="#000000" text-anchor="middle" dominant-baseline="central"></text>
<rect x="745.9011250000001" y="571.4994375" width="86.0" height="14" fill="#ffe6e6" stroke="#cccccc" stroke-width="0.5" />
<text x="788.9011250000001" y="579.4994375" font-size="10" font-family="Consolas, monospace" fill="#000000" text-anchor="middle" dominant-baseline="central">timeOut.START</text>
<rect x="570.1011250000001" y="638.0" width="84.8" height="32" fill="#f5f5f5" stroke="#000000" stroke-width="2" rx="8" ry="8" />
<text x="612.5011250000001" y="654.0" font-size="12" fontWeight="bold" font-family="Verdana, sans-serif" fill="#000000" text-anchor="middle" dominant-baseline="central">sState_00</text>
<rect x="664.9011250000001" y="638.0" width="161" height="64" fill="#ffffff" stroke="#cccccc" stroke-width="1" rx="4" ry="4" />
<path d="M654.9011250000001,654.0 L664.9011250000001,649.0" stroke="#000000" stroke-width="2" />
<path d="M744.9011250000001,638.0 L744.9011250000001,702.0" stroke="#cccccc" stroke-width="1" />
<rect x="664.9011250000001" y="642.0" width="80" height="14" fill="#e6f7e6" stroke="#cccccc" stroke-width="0.5" />
<text x="704.9011250000001" y="650.0" font-size="10" font-family="Consolas, monospace" fill="#000000" text-anchor="middle" dominant-baseline="central"></text>
<rect x="745.9011250000001" y="642.0" width="80" height="14" fill="#ffe6e6" stroke="#cccccc" stroke-width="0.5" />
<text x="785.9011250000001" y="650.0" font-size="10" font-family="Consolas, monospace" fill="#000000" text-anchor="middle" dominant-baseline="central">timeOut.STOP</text>
<path d="M664.9011250000001,656.0 L825.9011250000001,656.0" stroke="#cccccc" stroke-width="0.5" />
<rect x="664.9011250000001" y="656.0" width="80" height="14" fill="#e6f7e6" stroke="#cccccc" stroke-width="0.5" />
<text x="704.9011250000001" y="664.0" font-size="10" font-family="Consolas, monospace" fill="#000000" text-anchor="middle" dominant-baseline="central">State_04_X</text>
<rect x="745.9011250000001" y="656.0" width="80" height="14" fill="#ffe6e6" stroke="#cccccc" stroke-width="0.5" />
<text x="785.9011250000001" y="664.0" font-size="10" font-family="Consolas, monospace" fill="#000000" text-anchor="middle" dominant-baseline="central">DO_S4.E1</text>
<path d="M664.9011250000001,670.0 L825.9011250000001,670.0" stroke="#cccccc" stroke-width="0.5" />
<rect x="664.9011250000001" y="670.0" width="80" height="14" fill="#e6f7e6" stroke="#cccccc" stroke-width="0.5" />
<text x="704.9011250000001" y="678.0" font-size="10" font-family="Consolas, monospace" fill="#000000" text-anchor="middle" dominant-baseline="central">State_00_C</text>
<rect x="745.9011250000001" y="670.0" width="80" height="14" fill="#ffe6e6" stroke="#cccccc" stroke-width="0.5" />
<text x="785.9011250000001" y="678.0" font-size="10" font-family="Consolas, monospace" fill="#000000" text-anchor="middle" dominant-baseline="central">CNF</text>
<path d="M664.9011250000001,684.0 L825.9011250000001,684.0" stroke="#cccccc" stroke-width="0.5" />
<rect x="664.9011250000001" y="684.0" width="80" height="14" fill="#e6f7e6" stroke="#cccccc" stroke-width="0.5" />
<text x="704.9011250000001" y="692.0" font-size="10" font-family="Consolas, monospace" fill="#000000" text-anchor="middle" dominant-baseline="central"></text>
<rect x="745.9011250000001" y="684.0" width="80" height="14" fill="#ffe6e6" stroke="#cccccc" stroke-width="0.5" />
<text x="785.9011250000001" y="692.0" font-size="10" font-family="Consolas, monospace" fill="#000000" text-anchor="middle" dominant-baseline="central"></text>
<path d="M612.5011250000001,219.9994375 C612.5011250000001,236.09955,612.5011250000001,284.3998875,612.5011250000001,300.5" stroke="#404040" stroke-width="1.2" fill="none" />
<path d="M612.5011250000001,300.5 L608.5011250000001,293.5717967697245 L616.5011250000001,293.5717967697245 L612.5011250000001,300.5" fill="#404040" stroke="#404040" stroke-width="1" />
<g transform="translate(612.5011250000001,260.24971875)">
<rect x="-52.75" y="-7.5" width="105.5" height="15" fill="#ffffff" opacity="0.9" rx="3" ry="3" />
<text x="0" y="3.5" font-size="10" font-family="Consolas, monospace" fill="#000000" text-anchor="middle" dominant-baseline="central">timeOut.TimeOut</text>
</g>
<path d="M612.5011250000001,332.5 C612.5011250000001,348.6001125,612.5011250000001,396.90045000000003,612.5011250000001,413.00056250000006" stroke="#404040" stroke-width="1.2" fill="none" />
<path d="M612.5011250000001,413.00056250000006 L608.5011250000001,406.07235926972453 L616.5011250000001,406.07235926972453 L612.5011250000001,413.00056250000006" fill="#404040" stroke="#404040" stroke-width="1" />
<g transform="translate(612.5011250000001,372.75028125)">
<rect x="-52.75" y="-7.5" width="105.5" height="15" fill="#ffffff" opacity="0.9" rx="3" ry="3" />
<text x="0" y="3.5" font-size="10" font-family="Consolas, monospace" fill="#000000" text-anchor="middle" dominant-baseline="central">timeOut.TimeOut</text>
</g>
<path d="M612.5011250000001,445.00056250000006 C612.5011250000001,461.1003375,612.5011250000001,509.39966250000003,612.5011250000001,525.4994375" stroke="#404040" stroke-width="1.2" fill="none" />
<path d="M612.5011250000001,525.4994375 L608.5011250000001,518.5712342697245 L616.5011250000001,518.5712342697245 L612.5011250000001,525.4994375" fill="#404040" stroke="#404040" stroke-width="1" />
<g transform="translate(612.5011250000001,485.25000000000006)">
<rect x="-52.75" y="-7.5" width="105.5" height="15" fill="#ffffff" opacity="0.9" rx="3" ry="3" />
<text x="0" y="3.5" font-size="10" font-family="Consolas, monospace" fill="#000000" text-anchor="middle" dominant-baseline="central">timeOut.TimeOut</text>
</g>
<path d="M612.5011250000001,638.0 C472.5011250000001,598.0,465.0011250000001,259.9994375,605.0011250000001,219.9994375" stroke="#404040" stroke-width="1.2" fill="none" />
<path d="M605.0011250000001,219.9994375 L599.4383761915573,225.74885709628683 L597.2406071683782,218.05666551516026 L605.0011250000001,219.9994375" fill="#404040" stroke="#404040" stroke-width="1" />
<g transform="translate(503.7511250000001,428.99971875)">
<rect x="-30.0" y="-7.5" width="60.0" height="15" fill="#ffffff" opacity="0.9" rx="3" ry="3" />
<text x="0" y="3.5" font-size="10" font-family="Consolas, monospace" fill="#000000" text-anchor="middle" dominant-baseline="central">START_S1</text>
</g>
<path d="M612.5011250000001,557.4994375 C612.5011250000001,573.6692743115655,605.0011250000001,621.8301631884345,605.0011250000001,638.0" stroke="#404040" stroke-width="1.2" fill="none" />
<path d="M605.0011250000001,638.0 L601.0011250000001,631.0717967697245 L609.0011250000001,631.0717967697245 L605.0011250000001,638.0" fill="#404040" stroke="#404040" stroke-width="1" />
<g transform="translate(608.7511250000001,597.74971875)">
<rect x="-52.75" y="-7.5" width="105.5" height="15" fill="#ffffff" opacity="0.9" rx="3" ry="3" />
<text x="0" y="3.5" font-size="10" font-family="Consolas, monospace" fill="#000000" text-anchor="middle" dominant-baseline="central">timeOut.TimeOut</text>
</g>
<path d="M337.5005625,114.0 C454.3132224735716,114.0,620.0011250000001,71.18677752642839,620.0011250000001,187.9994375" stroke="#404040" stroke-width="1.2" fill="none" />
<path d="M620.0011250000001,187.9994375 L616.0011250000001,181.0712342697245 L624.0011250000001,181.0712342697245 L620.0011250000001,187.9994375" fill="#404040" stroke="#404040" stroke-width="1" />
<g transform="translate(522.5555912400894,107.19497125991064)">
<rect x="-30.0" y="-7.5" width="60.0" height="15" fill="#ffffff" opacity="0.9" rx="3" ry="3" />
<text x="0" y="3.5" font-size="10" font-family="Consolas, monospace" fill="#000000" text-anchor="middle" dominant-baseline="central">START_S1</text>
</g>
<path d="M570.1011250000001,203.9994375 C337.5165335576498,203.9994375,27.5,180.4159710576497,27.5,413.00056250000006" stroke="#404040" stroke-width="1.2" fill="none" />
<path d="M27.5,413.00056250000006 L23.5,406.07235926972453 L31.5,406.07235926972453 L27.5,413.00056250000006" fill="#404040" stroke="#404040" stroke-width="1" />
<g transform="translate(211.58134070911868,221.28077820911867)">
<rect x="-20.25" y="-7.5" width="40.5" height="15" fill="#ffffff" opacity="0.9" rx="3" ry="3" />
<text x="0" y="3.5" font-size="10" font-family="Consolas, monospace" fill="#000000" text-anchor="middle" dominant-baseline="central">RESET</text>
</g>
<path d="M570.1011250000001,541.4994375 C355.55976116448,541.4994375,42.5,659.5419263355202,42.5,445.00056250000006" stroke="#404040" stroke-width="1.2" fill="none" />
<path d="M42.5,445.00056250000006 L46.5,451.9287657302756 L38.5,451.9287657302756 L42.5,445.00056250000006" fill="#404040" stroke="#404040" stroke-width="1" />
<g transform="translate(225.84755106168,573.7030114383201)">
<rect x="-20.25" y="-7.5" width="40.5" height="15" fill="#ffffff" opacity="0.9" rx="3" ry="3" />
<text x="0" y="3.5" font-size="10" font-family="Consolas, monospace" fill="#000000" text-anchor="middle" dominant-baseline="central">RESET</text>
</g>
<path d="M570.1011250000001,316.5 C361.4589348603902,316.5,57.5,204.35837236039012,57.5,413.00056250000006" stroke="#404040" stroke-width="1.2" fill="none" />
<path d="M57.5,413.00056250000006 L53.5,406.07235926972453 L61.5,406.07235926972453 L57.5,413.00056250000006" fill="#404040" stroke="#404040" stroke-width="1" />
<g transform="translate(235.55974119764633,286.5094599476463)">
<rect x="-20.25" y="-7.5" width="40.5" height="15" fill="#ffffff" opacity="0.9" rx="3" ry="3" />
<text x="0" y="3.5" font-size="10" font-family="Consolas, monospace" fill="#000000" text-anchor="middle" dominant-baseline="central">RESET</text>
</g>
<path d="M570.1011250000001,429.00056250000006 C530.1011250000001,429.00056250000006,72.5,373.00056250000006,72.5,413.00056250000006" stroke="#404040" stroke-width="1.2" fill="none" />
<path d="M72.5,413.00056250000006 L68.5,406.07235926972453 L76.5,406.07235926972453 L72.5,413.00056250000006" fill="#404040" stroke="#404040" stroke-width="1" />
<g transform="translate(306.30056250000007,406.00056250000006)">
<rect x="-20.25" y="-7.5" width="40.5" height="15" fill="#ffffff" opacity="0.9" rx="3" ry="3" />
<text x="0" y="3.5" font-size="10" font-family="Consolas, monospace" fill="#000000" text-anchor="middle" dominant-baseline="central">RESET</text>
</g>
<path d="M90.0,429.00056250000006 C317.8883787740242,429.00056250000006,620.0011250000001,410.1116212259758,620.0011250000001,638.0" stroke="#404040" stroke-width="1.2" fill="none" />
<path d="M620.0011250000001,638.0 L616.0011250000001,631.0717967697245 L624.0011250000001,631.0717967697245 L620.0011250000001,638.0" fill="#404040" stroke="#404040" stroke-width="1" />
<g transform="translate(440.45870454025913,448.042139209741)">
<rect x="-7.25" y="-7.5" width="14.5" height="15" fill="#ffffff" opacity="0.9" rx="3" ry="3" />
<text x="0" y="3.5" font-size="10" font-family="Consolas, monospace" fill="#000000" text-anchor="middle" dominant-baseline="central">1</text>
</g>
</svg>