<?xml version="1.0" encoding="UTF-8"?>
<svg xmlns="http://www.w3.org/2000/svg" xmlns:xlink="http://www.w3.org/1999/xlink"
     width="1200" height="822.0" viewBox="0 0 1200 822.0">
<defs>
</defs>
<rect x="0" y="0" width="1200" height="822.0" fill="#ffffff" />
<text x="600" y="25" font-size="14" fontWeight="bold" font-family="Verdana, sans-serif" fill="#000000" text-anchor="middle" dominant-baseline="central">ECC: sequence_T_08_loop</text>
<rect x="93.76853846153847" y="607.0" width="80" height="32" fill="#f5f5f5" stroke="#000000" stroke-width="2" rx="8" ry="8" />
<text x="133.76853846153847" y="623.0" font-size="12" fontWeight="bold" font-family="Verdana, sans-serif" fill="#000000" text-anchor="middle" dominant-baseline="central">sRESET</text>
<rect x="183.76853846153847" y="607.0" width="161" height="148" fill="#ffffff" stroke="#cccccc" stroke-width="1" rx="4" ry="4" />
<path d="M173.76853846153847,623.0 L183.76853846153847,618.0" stroke="#000000" stroke-width="2" />
<path d="M263.76853846153847,607.0 L263.76853846153847,755.0" stroke="#cccccc" stroke-width="1" />
<rect x="183.76853846153847" y="611.0" width="80" height="14" fill="#e6f7e6" stroke="#cccccc" stroke-width="0.5" />
<text x="223.76853846153847" y="619.0" font-size="10" font-family="Consolas, monospace" fill="#000000" text-anchor="middle" dominant-baseline="central"></text>
<rect x="264.76853846153847" y="611.0" width="80" height="14" fill="#ffe6e6" stroke="#cccccc" stroke-width="0.5" />
<text x="304.76853846153847" y="619.0" font-size="10" font-family="Consolas, monospace" fill="#000000" text-anchor="middle" dominant-baseline="central">timeOut.STOP</text>
<path d="M183.76853846153847,625.0 L344.76853846153847,625.0" stroke="#cccccc" stroke-width="0.5" />
<rect x="183.76853846153847" y="625.0" width="80" height="14" fill="#e6f7e6" stroke="#cccccc" stroke-width="0.5" />
<text x="223.76853846153847" y="633.0" font-size="10" font-family="Consolas, monospace" fill="#000000" text-anchor="middle" dominant-baseline="central">State_01_X</text>
<rect x="264.76853846153847" y="625.0" width="80" height="14" fill="#ffe6e6" stroke="#cccccc" stroke-width="0.5" />
<text x="304.76853846153847" y="633.0" font-size="10" font-family="Consolas, monospace" fill="#000000" text-anchor="middle" dominant-baseline="central">EO_S1</text>
<path d="M183.76853846153847,639.0 L344.76853846153847,639.0" stroke="#cccccc" stroke-width="0.5" />
<rect x="183.76853846153847" y="639.0" width="80" height="14" fill="#e6f7e6" stroke="#cccccc" stroke-width="0.5" />
<text x="223.76853846153847" y="647.0" font-size="10" font-family="Consolas, monospace" fill="#000000" text-anchor="middle" dominant-baseline="central">State_02_X</text>
<rect x="264.76853846153847" y="639.0" width="80" height="14" fill="#ffe6e6" stroke="#cccccc" stroke-width="0.5" />
<text x="304.76853846153847" y="647.0" font-size="10" font-family="Consolas, monospace" fill="#000000" text-anchor="middle" dominant-baseline="central">EO_S2</text>
<path d="M183.76853846153847,653.0 L344.76853846153847,653.0" stroke="#cccccc" stroke-width="0.5" />
<rect x="183.76853846153847" y="653.0" width="80" height="14" fill="#e6f7e6" stroke="#cccccc" stroke-width="0.5" />
<text x="223.76853846153847" y="661.0" font-size="10" font-family="Consolas, monospace" fill="#000000" text-anchor="middle" dominant-baseline="central">State_03_X</text>
<rect x="264.76853846153847" y="653.0" width="80" height="14" fill="#ffe6e6" stroke="#cccccc" stroke-width="0.5" />
<text x="304.76853846153847" y="661.0" font-size="10" font-family="Consolas, monospace" fill="#000000" text-anchor="middle" dominant-baseline="central">EO_S3</text>
<path d="M183.76853846153847,667.0 L344.76853846153847,667.0" stroke="#cccccc" stroke-width="0.5" />
<rect x="183.76853846153847" y="667.0" width="80" height="14" fill="#e6f7e6" stroke="#cccccc" stroke-width="0.5" />
<text x="223.76853846153847" y="675.0" font-size="10" font-family="Consolas, monospace" fill="#000000" text-anchor="middle" dominant-baseline="central">State_04_X</text>
<rect x="264.76853846153847" y="667.0" width="80" height="14" fill="#ffe6e6" stroke="#cccccc" stroke-width="0.5" />
<text x="304.76853846153847" y="675.0" font-size="10" font-family="Consolas, monospace" fill="#000000" text-anchor="middle" dominant-baseline="central">EO_S4</text>
<path d="M183.76853846153847,681.0 L344.76853846153847,681.0" stroke="#cccccc" stroke-width="0.5" />
<rect x="183.76853846153847" y="681.0" width="80" height="14" fill="#e6f7e6" stroke="#cccccc" stroke-width="0.5" />
<text x="223.76853846153847" y="689.0" font-size="10" font-family="Consolas, monospace" fill="#000000" text-anchor="middle" dominant-baseline="central">State_05_X</text>
<rect x="264.76853846153847" y="681.0" width="80" height="14" fill="#ffe6e6" stroke="#cccccc" stroke-width="0.5" />
<text x="304.76853846153847" y="689.0" font-size="10" font-family="Consolas, monospace" fill="#000000" text-anchor="middle" dominant-baseline="central">EO_S5</text>
<path d="M183.76853846153847,695.0 L344.76853846153847,695.0" stroke="#cccccc" stroke-width="0.5" />
<rect x="183.76853846153847" y="695.0" width="80" height="14" fill="#e6f7e6" stroke="#cccccc" stroke-width="0.5" />
<text x="223.76853846153847" y="703.0" font-size="10" font-family="Consolas, monospace" fill="#000000" text-anchor="middle" dominant-baseline="central">State_06_X</text>
<rect x="264.76853846153847" y="695.0" width="80" height="14" fill="#ffe6e6" stroke="#cccccc" stroke-width="0.5" />
<text x="304.76853846153847" y="703.0" font-size="10" font-family="Consolas, monospace" fill="#000000" text-anchor="middle" dominant-baseline="central">EO_S6</text>
<path d="M183.76853846153847,709.0 L344.76853846153847,709.0" stroke="#cccccc" stroke-width="0.5" />
<rect x="183.76853846153847" y="709.0" width="80" height="14" fill="#e6f7e6" stroke="#cccccc" stroke-width="0.5" />
<text x="223.76853846153847" y="717.0" font-size="10" font-family="Consolas, monospace" fill="#000000" text-anchor="middle" dominant-baseline="central">State_07_X</text>
<rect x="264.76853846153847" y="709.0" width="80" height="14" fill="#ffe6e6" stroke="#cccccc" stroke-width="0.5" />
<text x="304.76853846153847" y="717.0" font-size="10" font-family="Consolas, monospace" fill="#000000" text-anchor="middle" dominant-baseline="central">EO_S7</text>
<path d="M183.76853846153847,723.0 L344.76853846153847,723.0" stroke="#cccccc" stroke-width="0.5" />
<rect x="183.76853846153847" y="723.0" width="80" height="14" fill="#e6f7e6" stroke="#cccccc" stroke-width="0.5" />
<text x="223.76853846153847" y="731.0" font-size="10" font-family="Consolas, monospace" fill="#000000" text-anchor="middle" dominant-baseline="central">State_08_X</text>
<rect x="264.76853846153847" y="723.0" width="80" height="14" fill="#ffe6e6" stroke="#cccccc" stroke-width="0.5" />
<text x="304.76853846153847" y="731.0" font-size="10" font-family="Consolas, monospace" fill="#000000" text-anchor="middle" dominant-baseline="central">EO_S8</text>
<path d="M183.76853846153847,737.0 L344.76853846153847,737.0" stroke="#cccccc" stroke-width="0.5" />
<rect x="183.76853846153847" y="737.0" width="80" height="14" fill="#e6f7e6" stroke="#cccccc" stroke-width="0.5" />
<text x="223.76853846153847" y="745.0" font-size="10" font-family="Consolas, monospace" fill="#000000" text-anchor="middle" dominant-baseline="central">State_00_C</text>
<rect x="264.76853846153847" y="737.0" width="80" height="14" fill="#ffe6e6" stroke="#cccccc" stroke-width="0.5" />
<text x="304.76853846153847" y="745.0" font-size="10" font-family="Consolas, monospace" fill="#000000" text-anchor="middle" dominant-baseline="central">CNF</text>
<rect x="162.99965384615385" y="67.0" width="80" height="32" fill="#f5f5f5" stroke="#000000" stroke-width="2" rx="8" ry="8" />
<text x="202.99965384615385" y="83.0" font-size="12" fontWeight="bold" font-family="Verdana, sans-serif" fill="#000000" text-anchor="middle" dominant-baseline="central">xSTART</text>
<rect x="437.523076923077" y="122.38426923076923" width="84.8" height="32" fill="#f5f5f5" stroke="#000000" stroke-width="2" rx="8" ry="8" />
<text x="479.92307692307696" y="138.38426923076923" font-size="12" fontWeight="bold" font-family="Verdana, sans-serif" fill="#000000" text-anchor="middle" dominant-baseline="central">sState_01</text>
<rect x="532.323076923077" y="122.38426923076923" width="167.0" height="64" fill="#ffffff" stroke="#cccccc" stroke-width="1" rx="4" ry="4" />
<path d="M522.323076923077,138.38426923076923 L532.323076923077,133.38426923076923" stroke="#000000" stroke-width="2" />
<path d="M612.323076923077,122.38426923076923 L612.323076923077,186.38426923076923" stroke="#cccccc" stroke-width="1" />
<rect x="532.323076923077" y="126.38426923076923" width="80" height="14" fill="#e6f7e6" stroke="#cccccc" stroke-width="0.5" />
<text x="572.323076923077" y="134.38426923076923" font-size="10" font-family="Consolas, monospace" fill="#000000" text-anchor="middle" dominant-baseline="central">State_08_X</text>
<rect x="613.323076923077" y="126.38426923076923" width="86.0" height="14" fill="#ffe6e6" stroke="#cccccc" stroke-width="0.5" />
<text x="656.323076923077" y="134.38426923076923" font-size="10" font-family="Consolas, monospace" fill="#000000" text-anchor="middle" dominant-baseline="central">EO_S8</text>
<path d="M532.323076923077,140.38426923076923 L699.323076923077,140.38426923076923" stroke="#cccccc" stroke-width="0.5" />
<rect x="532.323076923077" y="140.38426923076923" width="80" height="14" fill="#e6f7e6" stroke="#cccccc" stroke-width="0.5" />
<text x="572.323076923077" y="148.38426923076923" font-size="10" font-family="Consolas, monospace" fill="#000000" text-anchor="middle" dominant-baseline="central">State_01_C</text>
<rect x="613.323076923077" y="140.38426923076923" width="86.0" height="14" fill="#ffe6e6" stroke="#cccccc" stroke-width="0.5" />
<text x="656.323076923077" y="148.38426923076923" font-size="10" font-family="Consolas, monospace" fill="#000000" text-anchor="middle" dominant-baseline="central">CNF</text>
<path d="M532.323076923077,154.38426923076923 L699.323076923077,154.38426923076923" stroke="#cccccc" stroke-width="0.5" />
<rect x="532.323076923077" y="154.38426923076923" width="80" height="14" fill="#e6f7e6" stroke="#cccccc" stroke-width="0.5" />
<text x="572.323076923077" y="162.38426923076923" font-size="10" font-family="Consolas, monospace" fill="#000000" text-anchor="middle" dominant-baseline="central">State_01_E</text>
<rect x="613.323076923077" y="154.38426923076923" width="86.0" height="14" fill="#ffe6e6" stroke="#cccccc" stroke-width="0.5" />
<text x="656.323076923077" y="162.38426923076923" font-size="10" font-family="Consolas, monospace" fill="#000000" text-anchor="middle" dominant-baseline="central">EO_S1</text>
<path d="M532.323076923077,168.38426923076923 L699.323076923077,168.38426923076923" stroke="#cccccc" stroke-width="0.5" />
<rect x="532.323076923077" y="168.38426923076923" width="80" height="14" fill="#e6f7e6" stroke="#cccccc" stroke-width="0.5" />
<text x="572.323076923077" y="176.38426923076923" font-size="10" font-family="Consolas, monospace" fill="#000000" text-anchor="middle" dominant-baseline="central"></text>
<rect x="613.323076923077" y="168.38426923076923" width="86.0" height="14" fill="#ffe6e6" stroke="#cccccc" stroke-width="0.5" />
<text x="656.323076923077" y="176.38426923076923" font-size="10" font-family="Consolas, monospace" fill="#000000" text-anchor="middle" dominant-baseline="central">timeOut.START</text>
<rect x="437.523076923077" y="191.61538461538464" width="84.8" height="32" fill="#f5f5f5" stroke="#000000" stroke-width="2" rx="8" ry="8" />
<text x="479.92307692307696" y="207.61538461538464" font-size="12" fontWeight="bold" font-family="Verdana, sans-serif" fill="#000000" text-anchor="middle" dominant-baseline="central">sState_02</text>
<rect x="532.323076923077" y="191.61538461538464" width="167.0" height="64" fill="#ffffff" stroke="#cccccc" stroke-width="1" rx="4" ry="4" />
<path d="M522.323076923077,207.61538461538464 L532.323076923077,202.61538461538464" stroke="#000000" stroke-width="2" />
<path d="M612.323076923077,191.61538461538464 L612.323076923077,255.61538461538464" stroke="#cccccc" stroke-width="1" />
<rect x="532.323076923077" y="195.61538461538464" width="80" height="14" fill="#e6f7e6" stroke="#cccccc" stroke-width="0.5" />
<text x="572.323076923077" y="203.61538461538464" font-size="10" font-family="Consolas, monospace" fill="#000000" text-anchor="middle" dominant-baseline="central">State_01_X</text>
<rect x="613.323076923077" y="195.61538461538464" width="86.0" height="14" fill="#ffe6e6" stroke="#cccccc" stroke-width="0.5" />
<text x="656.323076923077" y="203.61538461538464" font-size="10" font-family="Consolas, monospace" fill="#000000" text-anchor="middle" dominant-baseline="central">EO_S1</text>
<path d="M532.323076923077,209.61538461538464 L699.323076923077,209.61538461538464" stroke="#cccccc" stroke-width="0.5" />
<rect x="532.323076923077" y="209.61538461538464" width="80" height="14" fill="#e6f7e6" stroke="#cccccc" stroke-width="0.5" />
<text x="572.323076923077" y="217.61538461538464" font-size="10" font-family="Consolas, monospace" fill="#000000" text-anchor="middle" dominant-baseline="central">State_02_C</text>
<rect x="613.323076923077" y="209.61538461538464" width="86.0" height="14" fill="#ffe6e6" stroke="#cccccc" stroke-width="0.5" />
<text x="656.323076923077" y="217.61538461538464" font-size="10" font-family="Consolas, monospace" fill="#000000" text-anchor="middle" dominant-baseline="central">CNF</text>
<path d="M532.323076923077,223.61538461538464 L699.323076923077,223.61538461538464" stroke="#cccccc" stroke-width="0.5" />
<rect x="532.323076923077" y="223.61538461538464" width="80" height="14" fill="#e6f7e6" stroke="#cccccc" stroke-width="0.5" />
<text x="572.323076923077" y="231.61538461538464" font-size="10" font-family="Consolas, monospace" fill="#000000" text-anchor="middle" dominant-baseline="central">State_02_E</text>
<rect x="613.323076923077" y="223.61538461538464" width="86.0" height="14" fill="#ffe6e6" stroke="#cccccc" stroke-width="0.5" />
<text x="656.323076923077" y="231.61538461538464" font-size="10" font-family="Consolas, monospace" fill="#000000" text-anchor="middle" dominant-baseline="central">EO_S2</text>
<path d="M532.323076923077,237.61538461538464 L699.323076923077,237.61538461538464" stroke="#cccccc" stroke-width="0.5" />
<rect x="532.323076923077" y="237.61538461538464" width="80" height="14" fill="#e6f7e6" stroke="#cccccc" stroke-width="0.5" />
<text x="572.323076923077" y="245.61538461538464" font-size="10" font-family="Consolas, monospace" fill="#000000" text-anchor="middle" dominant-baseline="central"></text>
<rect x="613.323076923077" y="237.61538461538464" width="86.0" height="14" fill="#ffe6e6" stroke="#cccccc" stroke-width="0.5" />
<text x="656.323076923077" y="245.61538461538464" font-size="10" font-family="Consolas, monospace" fill="#000000" text-anchor="middle" dominant-baseline="central">timeOut.START</text>
<rect x="437.523076923077" y="260.8465" width="84.8" height="32" fill="#f5f5f5" stroke="#000000" stroke-width="2" rx="8" ry="8" />
<text x="479.92307692307696" y="276.8465" font-size="12" fontWeight="bold" font-family="Verdana, sans-serif" fill="#000000" text-anchor="middle" dominant-baseline="central">sState_03</text>
<rect x="532.323076923077" y="260.8465" width="167.0" height="64" fill="#ffffff" stroke="#cccccc" stroke-width="1" rx="4" ry="4" />
<path d="M522.323076923077,276.8465 L532.323076923077,271.8465" stroke="#000000" stroke-width="2" />
<path d="M612.323076923077,260.8465 L612.323076923077,324.8465" stroke="#cccccc" stroke-width="1" />
<rect x="532.323076923077" y="264.8465" width="80" height="14" fill="#e6f7e6" stroke="#cccccc" stroke-width="0.5" />
<text x="572.323076923077" y="272.8465" font-size="10" font-family="Consolas, monospace" fill="#000000" text-anchor="middle" dominant-baseline="central">State_02_X</text>
<rect x="613.323076923077" y="264.8465" width="86.0" height="14" fill="#ffe6e6" stroke="#cccccc" stroke-width="0.5" />
<text x="656.323076923077" y="272.8465" font-size="10" font-family="Consolas, monospace" fill="#000000" text-anchor="middle" dominant-baseline="central">EO_S2</text>
<path d="M532.323076923077,278.8465 L699.323076923077,278.8465" stroke="#cccccc" stroke-width="0.5" />
<rect x="532.323076923077" y="278.8465" width="80" height="14" fill="#e6f7e6" stroke="#cccccc" stroke-width="0.5" />
<text x="572.323076923077" y="286.8465" font-size="10" font-family="Consolas, monospace" fill="#000000" text-anchor="middle" dominant-baseline="central">State_03_C</text>
<rect x="613.323076923077" y="278.8465" width="86.0" height="14" fill="#ffe6e6" stroke="#cccccc" stroke-width="0.5" />
<text x="656.323076923077" y="286.8465" font-size="10" font-family="Consolas, monospace" fill="#000000" text-anchor="middle" dominant-baseline="central">CNF</text>
<path d="M532.323076923077,292.8465 L699.323076923077,292.8465" stroke="#cccccc" stroke-width="0.5" />
<rect x="532.323076923077" y="292.8465" width="80" height="14" fill="#e6f7e6" stroke="#cccccc" stroke-width="0.5" />
<text x="572.323076923077" y="300.8465" font-size="10" font-family="Consolas, monospace" fill="#000000" text-anchor="middle" dominant-baseline="central">State_03_E</text>
<rect x="613.323076923077" y="292.8465" width="86.0" height="14" fill="#ffe6e6" stroke="#cccccc" stroke-width="0.5" />
<text x="656.323076923077" y="300.8465" font-size="10" font-family="Consolas, monospace" fill="#000000" text-anchor="middle" dominant-baseline="central">EO_S3</text>
<path d="M532.323076923077,306.8465 L699.323076923077,306.8465" stroke="#cccccc" stroke-width="0.5" />
<rect x="532.323076923077" y="306.8465" width="80" height="14" fill="#e6f7e6" stroke="#cccccc" stroke-width="0.5" />
<text x="572.323076923077" y="314.8465" font-size="10" font-family="Consolas, monospace" fill="#000000" text-anchor="middle" dominant-baseline="central"></text>
<rect x="613.323076923077" y="306.8465" width="86.0" height="14" fill="#ffe6e6" stroke="#cccccc" stroke-width="0.5" />
<text x="656.323076923077" y="314.8465" font-size="10" font-family="Consolas, monospace" fill="#000000" text-anchor="middle" dominant-baseline="central">timeOut.START</text>
<rect x="437.523076923077" y="330.0765769230769" width="84.8" height="32" fill="#f5f5f5" stroke="#000000" stroke-width="2" rx="8" ry="8" />
<text x="479.92307692307696" y="346.0765769230769" font-size="12" fontWeight="bold" font-family="Verdana, sans-serif" fill="#000000" text-anchor="middle" dominant-baseline="central">sState_04</text>
<rect x="532.323076923077" y="330.0765769230769" width="167.0" height="64" fill="#ffffff" stroke="#cccccc" stroke-width="1" rx="4" ry="4" />
<path d="M522.323076923077,346.0765769230769 L532.323076923077,341.0765769230769" stroke="#000000" stroke-width="2" />
<path d="M612.323076923077,330.0765769230769 L612.323076923077,394.0765769230769" stroke="#cccccc" stroke-width="1" />
<rect x="532.323076923077" y="334.0765769230769" width="80" height="14" fill="#e6f7e6" stroke="#cccccc" stroke-width="0.5" />
<text x="572.323076923077" y="342.0765769230769" font-size="10" font-family="Consolas, monospace" fill="#000000" text-anchor="middle" dominant-baseline="central">State_03_X</text>
<rect x="613.323076923077" y="334.0765769230769" width="86.0" height="14" fill="#ffe6e6" stroke="#cccccc" stroke-width="0.5" />
<text x="656.323076923077" y="342.0765769230769" font-size="10" font-family="Consolas, monospace" fill="#000000" text-anchor="middle" dominant-baseline="central">EO_S3</text>
<path d="M532.323076923077,348.0765769230769 L699.323076923077,348.0765769230769" stroke="#cccccc" stroke-width="0.5" />
<rect x="532.323076923077" y="348.0765769230769" width="80" height="14" fill="#e6f7e6" stroke="#cccccc" stroke-width="0.5" />
<text x="572.323076923077" y="356.0765769230769" font-size="10" font-family="Consolas, monospace" fill="#000000" text-anchor="middle" dominant-baseline="central">State_04_C</text>
<rect x="613.323076923077" y="348.0765769230769" width="86.0" height="14" fill="#ffe6e6" stroke="#cccccc" stroke-width="0.5" />
<text x="656.323076923077" y="356.0765769230769" font-size="10" font-family="Consolas, monospace" fill="#000000" text-anchor="middle" dominant-baseline="central">CNF</text>
<path d="M532.323076923077,362.0765769230769 L699.323076923077,362.0765769230769" stroke="#cccccc" stroke-width="0.5" />
<rect x="532.323076923077" y="362.0765769230769" width="80" height="14" fill="#e6f7e6" stroke="#cccccc" stroke-width="0.5" />
<text x="572.323076923077" y="370.0765769230769" font-size="10" font-family="Consolas, monospace" fill="#000000" text-anchor="middle" dominant-baseline="central">State_04_E</text>
<rect x="613.323076923077" y="362.0765769230769" width="86.0" height="14" fill="#ffe6e6" stroke="#cccccc" stroke-width="0.5" />
<text x="656.323076923077" y="370.0765769230769" font-size="10" font-family="Consolas, monospace" fill="#000000" text-anchor="middle" dominant-baseline="central">EO_S4</text>
<path d="M532.323076923077,376.0765769230769 L699.323076923077,376.0765769230769" stroke="#cccccc" stroke-width="0.5" />
<rect x="532.323076923077" y="376.0765769230769" width="80" height="14" fill="#e6f7e6" stroke="#cccccc" stroke-width="0.5" />
<text x="572.323076923077" y="384.0765769230769" font-size="10" font-family="Consolas, monospace" fill="#000000" text-anchor="middle" dominant-baseline="central"></text>
<rect x="613.323076923077" y="376.0765769230769" width="86.0" height="14" fill="#ffe6e6" stroke="#cccccc" stroke-width="0.5" />
<text x="656.323076923077" y="384.0765769230769" font-size="10" font-family="Consolas, monospace" fill="#000000" text-anchor="middle" dominant-baseline="central">timeOut.START</text>
<rect x="437.523076923077" y="399.3076923076923" width="84.8" height="32" fill="#f5f5f5" stroke="#000000" stroke-width="2" rx="8" ry="8" />
<text x="479.92307692307696" y="415.3076923076923" font-size="12" fontWeight="bold" font-family="Verdana, sans-serif" fill="#000000" text-anchor="middle" dominant-baseline="central">sState_05</text>
<rect x="532.323076923077" y="399.3076923076923" width="167.0" height="64" fill="#ffffff" stroke="#cccccc" stroke-width="1" rx="4" ry="4" />
<path d="M522.323076923077,415.3076923076923 L532.323076923077,410.3076923076923" stroke="#000000" stroke-width="2" />
<path d="M612.323076923077,399.3076923076923 L612.323076923077,463.3076923076923" stroke="#cccccc" stroke-width="1" />
<rect x="532.323076923077" y="403.3076923076923" width="80" height="14" fill="#e6f7e6" stroke="#cccccc" stroke-width="0.5" />
<text x="572.323076923077" y="411.3076923076923" font-size="10" font-family="Consolas, monospace" fill="#000000" text-anchor="middle" dominant-baseline="central">State_04_X</text>
<rect x="613.323076923077" y="403.3076923076923" width="86.0" height="14" fill="#ffe6e6" stroke="#cccccc" stroke-width="0.5" />
<text x="656.323076923077" y="411.3076923076923" font-size="10" font-family="Consolas, monospace" fill="#000000" text-anchor="middle" dominant-baseline="central">EO_S4</text>
<path d="M532.323076923077,417.3076923076923 L699.323076923077,417.3076923076923" stroke="#cccccc" stroke-width="0.5" />
<rect x="532.323076923077" y="417.3076923076923" width="80" height="14" fill="#e6f7e6" stroke="#cccccc" stroke-width="0.5" />
<text x="572.323076923077" y="425.3076923076923" font-size="10" font-family="Consolas, monospace" fill="#000000" text-anchor="middle" dominant-baseline="central">State_05_C</text>
<rect x="613.323076923077" y="417.3076923076923" width="86.0" height="14" fill="#ffe6e6" stroke="#cccccc" stroke-width="0.5" />
<text x="656.323076923077" y="425.3076923076923" font-size="10" font-family="Consolas, monospace" fill="#000000" text-anchor="middle" dominant-baseline="central">CNF</text>
<path d="M532.323076923077,431.3076923076923 L699.323076923077,431.3076923076923" stroke="#cccccc" stroke-width="0.5" />
<rect x="532.323076923077" y="431.3076923076923" width="80" height="14" fill="#e6f7e6" stroke="#cccccc" stroke-width="0.5" />
<text x="572.323076923077" y="439.3076923076923" font-size="10" font-family="Consolas, monospace" fill="#000000" text-anchor="middle" dominant-baseline="central">State_05_E</text>
<rect x="613.323076923077" y="431.3076923076923" width="86.0" height="14" fill="#ffe6e6" stroke="#cccccc" stroke-width="0.5" />
<text x="656.323076923077" y="439.3076923076923" font-size="10" font-family="Consolas, monospace" fill="#000000" text-anchor="middle" dominant-baseline="central">EO_S5</text>
<path d="M532.323076923077,445.3076923076923 L699.323076923077,445.3076923076923" stroke="#cccccc" stroke-width="0.5" />
<rect x="532.323076923077" y="445.3076923076923" width="80" height="14" fill="#e6f7e6" stroke="#cccccc" stroke-width="0.5" />
<text x="572.323076923077" y="453.3076923076923" font-size="10" font-family="Consolas, monospace" fill="#000000" text-anchor="middle" dominant-baseline="central"></text>
<rect x="613.323076923077" y="445.3076923076923" width="86.0" height="14" fill="#ffe6e6" stroke="#cccccc" stroke-width="0.5" />
<text x="656.323076923077" y="453.3076923076923" font-size="10" font-family="Consolas, monospace" fill="#000000" text-anchor="middle" dominant-baseline="central">timeOut.START</text>
<rect x="437.523076923077" y="468.5388076923077" width="84.8" height="32" fill="#f5f5f5" stroke="#000000" stroke-width="2" rx="8" ry="8" />
<text x="479.92307692307696" y="484.5388076923077" font-size="12" fontWeight="bold" font-family="Verdana, sans-serif" fill="#000000" text-anchor="middle" dominant-baseline="central">sState_06</text>
<rect x="532.323076923077" y="468.5388076923077" width="167.0" height="64" fill="#ffffff" stroke="#cccccc" stroke-width="1" rx="4" ry="4" />
<path d="M522.323076923077,484.5388076923077 L532.323076923077,479.5388076923077" stroke="#000000" stroke-width="2" />
<path d="M612.323076923077,468.5388076923077 L612.323076923077,532.5388076923077" stroke="#cccccc" stroke-width="1" />
<rect x="532.323076923077" y="472.5388076923077" width="80" height="14" fill="#e6f7e6" stroke="#cccccc" stroke-width="0.5" />
<text x="572.323076923077" y="480.5388076923077" font-size="10" font-family="Consolas, monospace" fill="#000000" text-anchor="middle" dominant-baseline="central">State_05_X</text>
<rect x="613.323076923077" y="472.5388076923077" width="86.0" height="14" fill="#ffe6e6" stroke="#cccccc" stroke-width="0.5" />
<text x="656.323076923077" y="480.5388076923077" font-size="10" font-family="Consolas, monospace" fill="#000000" text-anchor="middle" dominant-baseline="central">EO_S5</text>
<path d="M532.323076923077,486.5388076923077 L699.323076923077,486.5388076923077" stroke="#cccccc" stroke-width="0.5" />
<rect x="532.323076923077" y="486.5388076923077" width="80" height="14" fill="#e6f7e6" stroke="#cccccc" stroke-width="0.5" />
<text x="572.323076923077" y="494.5388076923077" font-size="10" font-family="Consolas, monospace" fill="#000000" text-anchor="middle" dominant-baseline="central">State_06_C</text>
<rect x="613.323076923077" y="486.5388076923077" width="86.0" height="14" fill="#ffe6e6" stroke="#cccccc" stroke-width="0.5" />
<text x="656.323076923077" y="494.5388076923077" font-size="10" font-family="Consolas, monospace" fill="#000000" text-anchor="middle" dominant-baseline="central">CNF</text>
<path d="M532.323076923077,500.5388076923077 L699.323076923077,500.5388076923077" stroke="#cccccc" stroke-width="0.5" />
<rect x="532.323076923077" y="500.5388076923077" width="80" height="14" fill="#e6f7e6" stroke="#cccccc" stroke-width="0.5" />
<text x="572.323076923077" y="508.5388076923077" font-size="10" font-family="Consolas, monospace" fill="#000000" text-anchor="middle" dominant-baseline="central">State_06_E</text>
<rect x="613.323076923077" y="500.5388076923077" width="86.0" height="14" fill="#ffe6e6" stroke="#cccccc" stroke-width="0.5" />
<text x="656.323076923077" y="508.5388076923077" font-size="10" font-family="Consolas, monospace" fill="#000000" text-anchor="middle" dominant-baseline="central">EO_S6</text>
<path d="M532.323076923077,514.5388076923077 L699.323076923077,514.5388076923077" stroke="#cccccc" stroke-width="0.5" />
<rect x="532.323076923077" y="514.5388076923077" width="80" height="14" fill="#e6f7e6" stroke="#cccccc" stroke-width="0.5" />
<text x="572.323076923077" y="522.5388076923077" font-size="10" font-family="Consolas, monospace" fill="#000000" text-anchor="middle" dominant-baseline="central"></text>
<rect x="613.323076923077" y="514.5388076923077" width="86.0" height="14" fill="#ffe6e6" stroke="#cccccc" stroke-width="0.5" />
<text x="656.323076923077" y="522.5388076923077" font-size="10" font-family="Consolas, monospace" fill="#000000" text-anchor="middle" dominant-baseline="central">timeOut.START</text>
<rect x="437.523076923077" y="537.7688846153846" width="84.8" height="32" fill="#f5f5f5" stroke="#000000" stroke-width="2" rx="8" ry="8" />
<text x="479.92307692307696" y="553.7688846153846" font-size="12" fontWeight="bold" font-family="Verdana, sans-serif" fill="#000000" text-anchor="middle" dominant-baseline="central">sState_07</text>
<rect x="532.323076923077" y="537.7688846153846" width="167.0" height="64" fill="#ffffff" stroke="#cccccc" stroke-width="1" rx="4" ry="4" />
<path d="M522.323076923077,553.7688846153846 L532.323076923077,548.7688846153846" stroke="#000000" stroke-width="2" />
<path d="M612.323076923077,537.7688846153846 L612.323076923077,601.7688846153846" stroke="#cccccc" stroke-width="1" />
<rect x="532.323076923077" y="541.7688846153846" width="80" height="14" fill="#e6f7e6" stroke="#cccccc" stroke-width="0.5" />
<text x="572.323076923077" y="549.7688846153846" font-size="10" font-family="Consolas, monospace" fill="#000000" text-anchor="middle" dominant-baseline="central">State_06_X</text>
<rect x="613.323076923077" y="541.7688846153846" width="86.0" height="14" fill="#ffe6e6" stroke="#cccccc" stroke-width="0.5" />
<text x="656.323076923077" y="549.7688846153846" font-size="10" font-family="Consolas, monospace" fill="#000000" text-anchor="middle" dominant-baseline="central">EO_S6</text>
<path d="M532.323076923077,555.7688846153846 L699.323076923077,555.7688846153846" stroke="#cccccc" stroke-width="0.5" />
<rect x="532.323076923077" y="555.7688846153846" width="80" height="14" fill="#e6f7e6" stroke="#cccccc" stroke-width="0.5" />
<text x="572.323076923077" y="563.7688846153846" font-size="10" font-family="Consolas, monospace" fill="#000000" text-anchor="middle" dominant-baseline="central">State_07_C</text>
<rect x="613.323076923077" y="555.7688846153846" width="86.0" height="14" fill="#ffe6e6" stroke="#cccccc" stroke-width="0.5" />
<text x="656.323076923077" y="563.7688846153846" font-size="10" font-family="Consolas, monospace" fill="#000000" text-anchor="middle" dominant-baseline="central">CNF</text>
<path d="M532.323076923077,569.7688846153846 L699.323076923077,569.7688846153846" stroke="#cccccc" stroke-width="0.5" />
<rect x="532.323076923077" y="569.7688846153846" width="80" height="14" fill="#e6f7e6" stroke="#cccccc" stroke-width="0.5" />
<text x="572.323076923077" y="577.7688846153846" font-size="10" font-family="Consolas, monospace" fill="#000000" text-anchor="middle" dominant-baseline="central">State_07_E</text>
<rect x="613.323076923077" y="569.7688846153846" width="86.0" height="14" fill="#ffe6e6" stroke="#cccccc" stroke-width="0.5" />
<text x="656.323076923077" y="577.7688846153846" font-size="10" font-family="Consolas, monospace" fill="#000000" text-anchor="middle" dominant-baseline="central">EO_S7</text>
<path d="M532.323076923077,583.7688846153846 L699.323076923077,583.7688846153846" stroke="#cccccc" stroke-width="0.5" />
<rect x="532.323076923077" y="583.7688846153846" width="80" height="14" fill="#e6f7e6" stroke="#cccccc" stroke-width="0.5" />
<text x="572.323076923077" y="591.7688846153846" font-size="10" font-family="Consolas, monospace" fill="#000000" text-anchor="middle" dominant-baseline="central"></text>
<rect x="613.323076923077" y="583.7688846153846" width="86.0" height="14" fill="#ffe6e6" stroke="#cccccc" stroke-width="0.5" />
<text x="656.323076923077" y="591.7688846153846" font-size="10" font-family="Consolas, monospace" fill="#000000" text-anchor="middle" dominant-baseline="central">timeOut.START</text>
<rect x="437.523076923077" y="607.0" width="84.8" height="32" fill="#f5f5f5" stroke="#000000" stroke-width="2" rx="8" ry="8" />
<text x="479.92307692307696" y="623.0" font-size="12" fontWeight="bold" font-family="Verdana, sans-serif" fill="#000000" text-anchor="middle" dominant-baseline="central">sState_08</text>
<rect x="532.323076923077" y="607.0" width="167.0" height="64" fill="#ffffff" stroke="#cccccc" stroke-width="1" rx="4" ry="4" />
<path d="M522.323076923077,623.0 L532.323076923077,618.0" stroke="#000000" stroke-width="2" />
<path d="M612.323076923077,607.0 L612.323076923077,671.0" stroke="#cccccc" stroke-width="1" />
<rect x="532.323076923077" y="611.0" width="80" height="14" fill="#e6f7e6" stroke="#cccccc" stroke-width="0.5" />
<text x="572.323076923077" y="619.0" font-size="10" font-family="Consolas, monospace" fill="#000000" text-anchor="middle" dominant-baseline="central">State_07_X</text>
<rect x="613.323076923077" y="611.0" width="86.0" height="14" fill="#ffe6e6" stroke="#cccccc" stroke-width="0.5" />
<text x="656.323076923077" y="619.0" font-size="10" font-family="Consolas, monospace" fill="#000000" text-anchor="middle" dominant-baseline="central">EO_S7</text>
<path d="M532.323076923077,625.0 L699.323076923077,625.0" stroke="#cccccc" stroke-width="0.5" />
<rect x="532.323076923077" y="625.0" width="80" height="14" fill="#e6f7e6" stroke="#cccccc" stroke-width="0.5" />
<text x="572.323076923077" y="633.0" font-size="10" font-family="Consolas, monospace" fill="#000000" text-anchor="middle" dominant-baseline="central">State_08_C</text>
<rect x="613.323076923077" y="625.0" width="86.0" height="14" fill="#ffe6e6" stroke="#cccccc" stroke-width="0.5" />
<text x="656.323076923077" y="633.0" font-size="10" font-family="Consolas, monospace" fill="#000000" text-anchor="middle" dominant-baseline="central">CNF</text>
<path d="M532.323076923077,639.0 L699.323076923077,639.0" stroke="#cccccc" stroke-width="0.5" />
<rect x="532.323076923077" y="639.0" width="80" height="14" fill="#e6f7e6" stroke="#cccccc" stroke-width="0.5" />
<text x="572.323076923077" y="647.0" font-size="10" font-family="Consolas, monospace" fill="#000000" text-anchor="middle" dominant-baseline="central">State_08_E</text>
<rect x="613.323076923077" y="639.0" width="86.0" height="14" fill="#ffe6e6" stroke="#cccccc" stroke-width="0.5" />
<text x="656.323076923077" y="647.0" font-size="10" font-family="Consolas, monospace" fill="#000000" text-anchor="middle" dominant-baseline="central">EO_S8</text>
<path d="M532.323076923077,653.0 L699.323076923077,653.0" stroke="#cccccc" stroke-width="0.5" />
<rect x="532.323076923077" y="653.0" width="80" height="14" fill="#e6f7e6" stroke="#cccccc" stroke-width="0.5" />
<text x="572.323076923077" y="661.0" font-size="10" font-family="Consolas, monospace" fill="#000000" text-anchor="middle" dominant-baseline="central"></text>
<rect x="613.323076923077" y="653.0" width="86.0" height="14" fill="#ffe6e6" stroke="#cccccc" stroke-width="0.5" />
<text x="656.323076923077" y="661.0" font-size="10" font-family="Consolas, monospace" fill="#000000" text-anchor="middle" dominant-baseline="central">timeOut.START</text>
<path d="M479.92307692307696,154.38426923076923 C479.92307692307696,161.8304923076923,479.92307692307696,184.16916153846157,479.92307692307696,191.61538461538464" stroke="#404040" stroke-width="1.2" fill="none" />
<path d="M479.92307692307696,191.61538461538464 L475.92307692307696,184.68718138510914 L483.92307692307696,184.68718138510914 L479.92307692307696,191.61538461538464" fill="#404040" stroke="#404040" stroke-width="1" />
<g transform="translate(479.92307692307696,172.99982692307697)">
<rect x="-52.75" y="-7.5" width="105.5" height="15" fill="#ffffff" opacity="0.9" rx="3" ry="3" />
<text x="0" y="3.5" font-size="10" font-family="Consolas, monospace" fill="#000000" text-anchor="middle" dominant-baseline="central">timeOut.TimeOut</text>
</g>
<path d="M479.92307692307696,223.61538461538464 C479.92307692307696,231.06160769230772,479.92307692307696,253.40027692307692,479.92307692307696,260.8465" stroke="#404040" stroke-width="1.2" fill="none" />
<path d="M479.92307692307696,260.8465 L475.92307692307696,253.9182967697245 L483.92307692307696,253.9182967697245 L479.92307692307696,260.8465" fill="#404040" stroke="#404040" stroke-width="1" />
<g transform="translate(479.92307692307696,242.23094230769232)">
<rect x="-52.75" y="-7.5" width="105.5" height="15" fill="#ffffff" opacity="0.9" rx="3" ry="3" />
<text x="0" y="3.5" font-size="10" font-family="Consolas, monospace" fill="#000000" text-anchor="middle" dominant-baseline="central">timeOut.TimeOut</text>
</g>
<path d="M479.92307692307696,292.8465 C479.92307692307696,300.2925153846154,479.92307692307696,322.6305615384615,479.92307692307696,330.0765769230769" stroke="#404040" stroke-width="1.2" fill="none" />
<path d="M479.92307692307696,330.0765769230769 L475.92307692307696,323.1483736928014 L483.92307692307696,323.1483736928014 L479.92307692307696,330.0765769230769" fill="#404040" stroke="#404040" stroke-width="1" />
<g transform="translate(479.92307692307696,311.4615384615385)">
<rect x="-52.75" y="-7.5" width="105.5" height="15" fill="#ffffff" opacity="0.9" rx="3" ry="3" />
<text x="0" y="3.5" font-size="10" font-family="Consolas, monospace" fill="#000000" text-anchor="middle" dominant-baseline="central">timeOut.TimeOut</text>
</g>
<path d="M242.99965384615385,83.0 C336.111395506741,83.0,472.42307692307696,29.272527570182035,472.42307692307696,122.38426923076923" stroke="#404040" stroke-width="1.2" fill="none" />
<path d="M472.42307692307696,122.38426923076923 L468.42307692307696,115.45606600049372 L476.42307692307696,115.45606600049372 L472.42307692307696,122.38426923076923" fill="#404040" stroke="#404040" stroke-width="1" />
<g transform="translate(392.62826850733563,67.77523149266442)">
<rect x="-30.0" y="-7.5" width="60.0" height="15" fill="#ffffff" opacity="0.9" rx="3" ry="3" />
<text x="0" y="3.5" font-size="10" font-family="Consolas, monospace" fill="#000000" text-anchor="middle" dominant-baseline="central">START_S1</text>
</g>
<path d="M437.523076923077,138.38426923076923 C206.22920654941743,138.38426923076923,98.76853846153847,372.6921346153846,98.76853846153847,607.0" stroke="#404040" stroke-width="1.2" fill="none" />
<path d="M98.76853846153847,607.0 L94.76853846153847,600.0717967697245 L102.76853846153847,600.0717967697245 L98.76853846153847,607.0" fill="#404040" stroke="#404040" stroke-width="1" />
<g transform="translate(181.41060630218539,284.8266850961538)">
<rect x="-20.25" y="-7.5" width="40.5" height="15" fill="#ffffff" opacity="0.9" rx="3" ry="3" />
<text x="0" y="3.5" font-size="10" font-family="Consolas, monospace" fill="#000000" text-anchor="middle" dominant-baseline="central">RESET</text>
</g>
<path d="M437.523076923077,207.61538461538464 C230.60758980237782,207.61538461538464,108.76853846153847,400.08451287930086,108.76853846153847,607.0" stroke="#404040" stroke-width="1.2" fill="none" />
<path d="M108.76853846153847,607.0 L104.76853846153847,600.0717967697245 L112.76853846153847,600.0717967697245 L108.76853846153847,607.0" fill="#404040" stroke="#404040" stroke-width="1" />
<g transform="translate(195.55250002204554,329.71438463743016)">
<rect x="-20.25" y="-7.5" width="40.5" height="15" fill="#ffffff" opacity="0.9" rx="3" ry="3" />
<text x="0" y="3.5" font-size="10" font-family="Consolas, monospace" fill="#000000" text-anchor="middle" dominant-baseline="central">RESET</text>
</g>
<path d="M437.523076923077,276.8465 C253.9558513725105,276.8465,118.76853846153847,423.4327744494335,118.76853846153847,607.0" stroke="#404040" stroke-width="1.2" fill="none" />
<path d="M118.76853846153847,607.0 L114.76853846153847,600.0717967697245 L122.76853846153847,600.0717967697245 L118.76853846153847,607.0" fill="#404040" stroke="#404040" stroke-width="1" />
<g transform="translate(209.30809811084526,373.08554041853756)">
<rect x="-20.25" y="-7.5" width="40.5" height="15" fill="#ffffff" opacity="0.9" rx="3" ry="3" />
<text x="0" y="3.5" font-size="10" font-family="Consolas, monospace" fill="#000000" text-anchor="middle" dominant-baseline="central">RESET</text>
</g>
<path d="M479.92307692307696,362.0765769230769 C479.92307692307696,369.5228,479.92307692307696,391.8614692307692,479.92307692307696,399.3076923076923" stroke="#404040" stroke-width="1.2" fill="none" />
<path d="M479.92307692307696,399.3076923076923 L475.92307692307696,392.3794890774168 L483.92307692307696,392.3794890774168 L479.92307692307696,399.3076923076923" fill="#404040" stroke="#404040" stroke-width="1" />
<g transform="translate(479.92307692307696,380.69213461538465)">
<rect x="-52.75" y="-7.5" width="105.5" height="15" fill="#ffffff" opacity="0.9" rx="3" ry="3" />
<text x="0" y="3.5" font-size="10" font-family="Consolas, monospace" fill="#000000" text-anchor="middle" dominant-baseline="central">timeOut.TimeOut</text>
</g>
<path d="M437.523076923077,346.0765769230769 C275.82686906116,346.0765769230769,128.76853846153847,445.30379213808294,128.76853846153847,607.0" stroke="#404040" stroke-width="1.2" fill="none" />
<path d="M128.76853846153847,607.0 L124.76853846153847,600.0717967697245 L132.76853846153847,600.0717967697245 L128.76853846153847,607.0" fill="#404040" stroke="#404040" stroke-width="1" />
<g transform="translate(222.50972974408882,415.9022105133196)">
<rect x="-20.25" y="-7.5" width="40.5" height="15" fill="#ffffff" opacity="0.9" rx="3" ry="3" />
<text x="0" y="3.5" font-size="10" font-family="Consolas, monospace" fill="#000000" text-anchor="middle" dominant-baseline="central">RESET</text>
</g>
<path d="M479.92307692307696,431.3076923076923 C479.92307692307696,438.7539153846154,479.92307692307696,461.0925846153846,479.92307692307696,468.5388076923077" stroke="#404040" stroke-width="1.2" fill="none" />
<path d="M479.92307692307696,468.5388076923077 L475.92307692307696,461.6106044620322 L483.92307692307696,461.6106044620322 L479.92307692307696,468.5388076923077" fill="#404040" stroke="#404040" stroke-width="1" />
<g transform="translate(479.92307692307696,449.92325)">
<rect x="-52.75" y="-7.5" width="105.5" height="15" fill="#ffffff" opacity="0.9" rx="3" ry="3" />
<text x="0" y="3.5" font-size="10" font-family="Consolas, monospace" fill="#000000" text-anchor="middle" dominant-baseline="central">timeOut.TimeOut</text>
</g>
<path d="M437.523076923077,415.3076923076923 C295.53704094501654,415.3076923076923,138.76853846153847,465.0139640219395,138.76853846153847,607.0" stroke="#404040" stroke-width="1.2" fill="none" />
<path d="M138.76853846153847,607.0 L134.76853846153847,600.0717967697245 L142.76853846153847,600.0717967697245 L138.76853846153847,607.0" fill="#404040" stroke="#404040" stroke-width="1" />
<g transform="translate(234.90104420053507,457.9090826620735)">
<rect x="-20.25" y="-7.5" width="40.5" height="15" fill="#ffffff" opacity="0.9" rx="3" ry="3" />
<text x="0" y="3.5" font-size="10" font-family="Consolas, monospace" fill="#000000" text-anchor="middle" dominant-baseline="central">RESET</text>
</g>
<path d="M479.92307692307696,569.7688846153846 C479.92307692307696,577.2151076923077,479.92307692307696,599.553776923077,479.92307692307696,607.0" stroke="#404040" stroke-width="1.2" fill="none" />
<path d="M479.92307692307696,607.0 L475.92307692307696,600.0717967697245 L483.92307692307696,600.0717967697245 L479.92307692307696,607.0" fill="#404040" stroke="#404040" stroke-width="1" />
<g transform="translate(479.92307692307696,588.3844423076923)">
<rect x="-52.75" y="-7.5" width="105.5" height="15" fill="#ffffff" opacity="0.9" rx="3" ry="3" />
<text x="0" y="3.5" font-size="10" font-family="Consolas, monospace" fill="#000000" text-anchor="middle" dominant-baseline="central">timeOut.TimeOut</text>
</g>
<path d="M437.523076923077,553.7688846153846 C320.07505599315147,553.7688846153846,148.76853846153847,489.5519790700745,148.76853846153847,607.0" stroke="#404040" stroke-width="1.2" fill="none" />
<path d="M148.76853846153847,607.0 L144.76853846153847,600.0717967697245 L152.76853846153847,600.0717967697245 L148.76853846153847,607.0" fill="#404040" stroke="#404040" stroke-width="1" />
<g transform="translate(249.10279984358567,536.3414344589703)">
<rect x="-20.25" y="-7.5" width="40.5" height="15" fill="#ffffff" opacity="0.9" rx="3" ry="3" />
<text x="0" y="3.5" font-size="10" font-family="Consolas, monospace" fill="#000000" text-anchor="middle" dominant-baseline="central">RESET</text>
</g>
<path d="M479.92307692307696,500.5388076923077 C479.92307692307696,507.98482307692313,479.92307692307696,530.3228692307692,479.92307692307696,537.7688846153846" stroke="#404040" stroke-width="1.2" fill="none" />
<path d="M479.92307692307696,537.7688846153846 L475.92307692307696,530.8406813851092 L483.92307692307696,530.8406813851092 L479.92307692307696,537.7688846153846" fill="#404040" stroke="#404040" stroke-width="1" />
<g transform="translate(479.92307692307696,519.1538461538462)">
<rect x="-52.75" y="-7.5" width="105.5" height="15" fill="#ffffff" opacity="0.9" rx="3" ry="3" />
<text x="0" y="3.5" font-size="10" font-family="Consolas, monospace" fill="#000000" text-anchor="middle" dominant-baseline="central">timeOut.TimeOut</text>
</g>
<path d="M437.523076923077,484.5388076923077 C315.7358287667437,484.5388076923077,158.76853846153847,485.2127518436667,158.76853846153847,607.0" stroke="#404040" stroke-width="1.2" fill="none" />
<path d="M158.76853846153847,607.0 L154.76853846153847,600.0717967697245 L162.76853846153847,600.0717967697245 L158.76853846153847,607.0" fill="#404040" stroke="#404040" stroke-width="1" />
<g transform="translate(252.47558963368272,500.0991857875289)">
<rect x="-20.25" y="-7.5" width="40.5" height="15" fill="#ffffff" opacity="0.9" rx="3" ry="3" />
<text x="0" y="3.5" font-size="10" font-family="Consolas, monospace" fill="#000000" text-anchor="middle" dominant-baseline="central">RESET</text>
</g>
<path d="M173.76853846153847,623.0 C383.69441418213796,623.0,202.99965384615385,361.0,202.99965384615385,99.0" stroke="#404040" stroke-width="1.2" fill="none" />
<path d="M202.99965384615385,99.0 L206.99965384615385,105.92820323027551 L198.99965384615385,105.92820323027551 L202.99965384615385,99.0" fill="#404040" stroke="#404040" stroke-width="1" />
<g transform="translate(267.10629954907097,459.25)">
<rect x="-7.25" y="-7.5" width="14.5" height="15" fill="#ffffff" opacity="0.9" rx="3" ry="3" />
<text x="0" y="3.5" font-size="10" font-family="Consolas, monospace" fill="#000000" text-anchor="middle" dominant-baseline="central">1</text>
</g>
<path d="M479.92307692307696,607.0 C619.9230769230769,567.0,627.4230769230769,194.38426923076923,487.42307692307696,154.38426923076923" stroke="#404040" stroke-width="1.2" fill="none" />
<path d="M487.42307692307696,154.38426923076923 L495.1835947546989,152.4414972459295 L492.98582573151987,160.13368882705606 L487.42307692307696,154.38426923076923" fill="#404040" stroke="#404040" stroke-width="1" />
<g transform="translate(588.6730769230769,380.69213461538465)">
<rect x="-52.75" y="-7.5" width="105.5" height="15" fill="#ffffff" opacity="0.9" rx="3" ry="3" />
<text x="0" y="3.5" font-size="10" font-family="Consolas, monospace" fill="#000000" text-anchor="middle" dominant-baseline="central">timeOut.TimeOut</text>
</g>
<path d="M437.523076923077,623.0 C397.523076923077,623.0,168.76853846153847,567.0,168.76853846153847,607.0" stroke="#404040" stroke-width="1.2" fill="none" />
<path d="M168.76853846153847,607.0 L164.76853846153847,600.0717967697245 L172.76853846153847,600.0717967697245 L168.76853846153847,607.0" fill="#404040" stroke="#404040" stroke-width="1" />
<g transform="translate(288.1458076923077,600.0)">
<rect x="-20.25" y="-7.5" width="40.5" height="15" fill="#ffffff" opacity="0.9" rx="3" ry="3" />
<text x="0" y="3.5" font-size="10" font-family="Consolas, monospace" fill="#000000" text-anchor="middle" dominant-baseline="central">RESET</text>
</g>
</svg>