<?xml version="1.0" encoding="UTF-8"?>
<svg xmlns="http://www.w3.org/2000/svg" xmlns:xlink="http://www.w3.org/1999/xlink"
     width="1098" height="431" viewBox="-548 -20 1098 431">
<defs>
</defs>
<rect x="3" y="3" width="220" height="381" fill="#000000" fill-opacity="0.1" rx="2" ry="2" />
<path d="M0,0 H220 V170 H214 V210 H220 V381 H0 V210 H6 V170 H0 Z" fill="#ffffff" stroke="#000000" stroke-width="2" />
<path d="M0,30 L220,30" stroke="#000000" stroke-width="1" />
<text x="110.0" y="188.0" font-size="14" fontWeight="bold" font-family="Verdana, sans-serif" font-style="italic" text-anchor="middle" dominant-baseline="central">sequence_T_04_loop</text>
<text x="110.0" y="202.0" font-size="10" fill="#000" font-family="Consolas, monospace" text-anchor="middle" dominant-baseline="central">1.0</text>
<path d="M-5,37 L-5,47 L0,42 Z" fill="#63B31F" stroke="none" />
<text x="12" y="46" font-size="12" text-anchor="start" font-family="Consolas, monospace">START_S1</text>
<text x="-23" y="45" font-size="11" text-anchor="end" fill="#888" font-style="italic" font-family="Verdana, sans-serif">Event</text>
<text x="-93" y="45" font-size="11" text-anchor="end" fill="#666666" font-family="Verdana, sans-serif">jump from START to State_01</text>
<path d="M-5,63 L-5,73 L0,68 Z" fill="#63B31F" stroke="none" />
<text x="12" y="72" font-size="12" text-anchor="start" font-family="Consolas, monospace">RESET</text>
<text x="-23" y="71" font-size="11" text-anchor="end" fill="#888" font-style="italic" font-family="Verdana, sans-serif">Event</text>
<text x="-93" y="71" font-size="11" text-anchor="end" fill="#666666" font-family="Verdana, sans-serif">Reset from any State to START</text>
<path d="M-5,222 L-5,232 L0,227 Z" fill="#0000FF" stroke="none" />
<text x="12" y="231" font-size="12" text-anchor="start" font-family="Consolas, monospace">DT_S1_S2</text>
<text x="-23" y="230" font-size="11" text-anchor="end" fill="#0000FF" font-style="italic" font-family="Verdana, sans-serif">TIME</text>
<text x="-93" y="230" font-size="11" text-anchor="end" fill="#666666" font-family="Verdana, sans-serif">State_01 to State_02 timed</text>
<path d="M-5,248 L-5,258 L0,253 Z" fill="#0000FF" stroke="none" />
<text x="12" y="257" font-size="12" text-anchor="start" font-family="Consolas, monospace">DT_S2_S3</text>
<text x="-23" y="256" font-size="11" text-anchor="end" fill="#0000FF" font-style="italic" font-family="Verdana, sans-serif">TIME</text>
<text x="-93" y="256" font-size="11" text-anchor="end" fill="#666666" font-family="Verdana, sans-serif">State_02 to State_03 timed</text>
<path d="M-5,274 L-5,284 L0,279 Z" fill="#0000FF" stroke="none" />
<text x="12" y="283" font-size="12" text-anchor="start" font-family="Consolas, monospace">DT_S3_S4</text>
<text x="-23" y="282" font-size="11" text-anchor="end" fill="#0000FF" font-style="italic" font-family="Verdana, sans-serif">TIME</text>
<text x="-93" y="282" font-size="11" text-anchor="end" fill="#666666" font-family="Verdana, sans-serif">State_03 to State_04 timed</text>
<path d="M-5,300 L-5,310 L0,305 Z" fill="#0000FF" stroke="none" />
<text x="12" y="309" font-size="12" text-anchor="start" font-family="Consolas, monospace">DT_S4_S1</text>
<text x="-23" y="308" font-size="11" text-anchor="end" fill="#0000FF" font-style="italic" font-family="Verdana, sans-serif">TIME</text>
<text x="-93" y="308" font-size="11" text-anchor="end" fill="#666666" font-family="Verdana, sans-serif">State_04 to State_01 timed</text>
<path d="M220,37 L220,47 L225,42 Z" fill="#63B31F" stroke="none" />
<text x="208" y="46" font-size="12" text-anchor="end" font-family="Consolas, monospace">CNF</text>
<text x="275" y="45" font-size="11" text-anchor="start" fill="#888" font-style="italic" font-family="Verdana, sans-serif">Event</text>
<text x="345" y="45" font-size="11" text-anchor="start" fill="#666666" font-family="Verdana, sans-serif">Execution Confirmation</text>
<path d="M220,63 L220,73 L225,68 Z" fill="#63B31F" stroke="none" />
<text x="208" y="72" font-size="12" text-anchor="end" font-family="Consolas, monospace">EO_S1</text>
<text x="275" y="71" font-size="11" text-anchor="start" fill="#888" font-style="italic" font-family="Verdana, sans-serif">Event</text>
<path d="M220,89 L220,99 L225,94 Z" fill="#63B31F" stroke="none" />
<text x="208" y="98" font-size="12" text-anchor="end" font-family="Consolas, monospace">EO_S2</text>
<text x="275" y="97" font-size="11" text-anchor="start" fill="#888" font-style="italic" font-family="Verdana, sans-serif">Event</text>
<path d="M220,115 L220,125 L225,120 Z" fill="#63B31F" stroke="none" />
<text x="208" y="124" font-size="12" text-anchor="end" font-family="Consolas, monospace">EO_S3</text>
<text x="275" y="123" font-size="11" text-anchor="start" fill="#888" font-style="italic" font-family="Verdana, sans-serif">Event</text>
<path d="M220,141 L220,151 L225,146 Z" fill="#63B31F" stroke="none" />
<text x="208" y="150" font-size="12" text-anchor="end" font-family="Consolas, monospace">EO_S4</text>
<text x="275" y="149" font-size="11" text-anchor="start" fill="#888" font-style="italic" font-family="Verdana, sans-serif">Event</text>
<rect x="215.0" y="222.0" width="10" height="10" fill="#845DAF" stroke="none" />
<text x="208" y="231" font-size="12" text-anchor="end" font-family="Consolas, monospace">timeOut</text>
<text x="275" y="230" font-size="11" text-anchor="start" fill="#000" font-style="italic" font-family="Verdana, sans-serif">ATimeOut</text>
<text x="345" y="230" font-size="11" text-anchor="start" fill="#666666" font-family="Verdana, sans-serif">timeOut Adapter</text>
<path d="M220,248 L220,258 L225,253 Z" fill="#18519E" stroke="none" />
<text x="208" y="257" font-size="12" text-anchor="end" font-family="Consolas, monospace">STATE_NR</text>
<text x="275" y="256" font-size="11" text-anchor="start" fill="#18519E" font-style="italic" font-family="Verdana, sans-serif">SINT</text>
<text x="345" y="256" font-size="11" text-anchor="start" fill="#666666" font-family="Verdana, sans-serif">State Number, START = 0, State_01 = 1 and so on. </text>
<path d="M220,274 L220,284 L225,279 Z" fill="#9FA48A" stroke="none" />
<text x="208" y="283" font-size="12" text-anchor="end" font-family="Consolas, monospace">DO_S1</text>
<text x="275" y="282" font-size="11" text-anchor="start" fill="#9FA48A" font-style="italic" font-family="Verdana, sans-serif">BOOL</text>
<text x="345" y="282" font-size="11" text-anchor="start" fill="#666666" font-family="Verdana, sans-serif">Output if State_01 is active</text>
<path d="M220,300 L220,310 L225,305 Z" fill="#9FA48A" stroke="none" />
<text x="208" y="309" font-size="12" text-anchor="end" font-family="Consolas, monospace">DO_S2</text>
<text x="275" y="308" font-size="11" text-anchor="start" fill="#9FA48A" font-style="italic" font-family="Verdana, sans-serif">BOOL</text>
<text x="345" y="308" font-size="11" text-anchor="start" fill="#666666" font-family="Verdana, sans-serif">Output if State_02 is active</text>
<path d="M220,326 L220,336 L225,331 Z" fill="#9FA48A" stroke="none" />
<text x="208" y="335" font-size="12" text-anchor="end" font-family="Consolas, monospace">DO_S3</text>
<text x="275" y="334" font-size="11" text-anchor="start" fill="#9FA48A" font-style="italic" font-family="Verdana, sans-serif">BOOL</text>
<text x="345" y="334" font-size="11" text-anchor="start" fill="#666666" font-family="Verdana, sans-serif">Output if State_03 is active</text>
<path d="M220,352 L220,362 L225,357 Z" fill="#9FA48A" stroke="none" />
<text x="208" y="361" font-size="12" text-anchor="end" font-family="Consolas, monospace">DO_S4</text>
<text x="275" y="360" font-size="11" text-anchor="start" fill="#9FA48A" font-style="italic" font-family="Verdana, sans-serif">BOOL</text>
<text x="345" y="360" font-size="11" text-anchor="start" fill="#666666" font-family="Verdana, sans-serif">Output if State_04 is active</text>
<path d="M-12,42 L-12,305" stroke="#404040" stroke-width="1" />
<path d="M0,42 L-12,42" stroke="#404040" />
<rect x="-14" y="40" width="4" height="4" fill="white" stroke="black" stroke-width="1" />
<path d="M-12,227 L-5,227" stroke="#404040" />
<rect x="-14" y="225" width="4" height="4" fill="white" stroke="black" stroke-width="1" />
<path d="M-12,253 L-5,253" stroke="#404040" />
<rect x="-14" y="251" width="4" height="4" fill="white" stroke="black" stroke-width="1" />
<path d="M-12,279 L-5,279" stroke="#404040" />
<rect x="-14" y="277" width="4" height="4" fill="white" stroke="black" stroke-width="1" />
<path d="M-12,305 L-5,305" stroke="#404040" />
<rect x="-14" y="303" width="4" height="4" fill="white" stroke="black" stroke-width="1" />
<path d="M232,42 L232,253" stroke="#404040" stroke-width="1" />
<path d="M220,42 L232,42" stroke="#404040" />
<rect x="230" y="40" width="4" height="4" fill="white" stroke="black" stroke-width="1" />
<path d="M232,253 L225,253" stroke="#404040" />
<rect x="230" y="251" width="4" height="4" fill="white" stroke="black" stroke-width="1" />
<path d="M240,68 L240,279" stroke="#404040" stroke-width="1" />
<path d="M220,68 L240,68" stroke="#404040" />
<rect x="238" y="66" width="4" height="4" fill="white" stroke="black" stroke-width="1" />
<path d="M240,279 L225,279" stroke="#404040" />
<rect x="238" y="277" width="4" height="4" fill="white" stroke="black" stroke-width="1" />
<path d="M248,94 L248,305" stroke="#404040" stroke-width="1" />
<path d="M220,94 L248,94" stroke="#404040" />
<rect x="246" y="92" width="4" height="4" fill="white" stroke="black" stroke-width="1" />
<path d="M248,305 L225,305" stroke="#404040" />
<rect x="246" y="303" width="4" height="4" fill="white" stroke="black" stroke-width="1" />
<path d="M256,120 L256,331" stroke="#404040" stroke-width="1" />
<path d="M220,120 L256,120" stroke="#404040" />
<rect x="254" y="118" width="4" height="4" fill="white" stroke="black" stroke-width="1" />
<path d="M256,331 L225,331" stroke="#404040" />
<rect x="254" y="329" width="4" height="4" fill="white" stroke="black" stroke-width="1" />
<path d="M264,146 L264,357" stroke="#404040" stroke-width="1" />
<path d="M220,146 L264,146" stroke="#404040" />
<rect x="262" y="144" width="4" height="4" fill="white" stroke="black" stroke-width="1" />
<path d="M264,357 L225,357" stroke="#404040" />
<rect x="262" y="355" width="4" height="4" fill="white" stroke="black" stroke-width="1" />
</svg>