<?xml version="1.0" encoding="UTF-8"?>
<svg xmlns="http://www.w3.org/2000/svg" xmlns:xlink="http://www.w3.org/1999/xlink"
     width="1200" height="800" viewBox="0 0 1200 800">
<defs>
</defs>
<rect x="0" y="0" width="1200" height="800" fill="#ffffff" />
<text x="600" y="25" font-size="14" fontWeight="bold" font-family="Verdana, sans-serif" fill="#000000" text-anchor="middle" dominant-baseline="central">ECC: sequence_T_05_AX</text>
<rect x="10.0" y="451.792332937644" width="80" height="32" fill="#f5f5f5" stroke="#000000" stroke-width="2" rx="8" ry="8" />
<text x="50.0" y="467.792332937644" font-size="12" fontWeight="bold" font-family="Verdana, sans-serif" fill="#000000" text-anchor="middle" dominant-baseline="central">sRESET</text>
<rect x="100.0" y="451.792332937644" width="161" height="92" fill="#ffffff" stroke="#cccccc" stroke-width="1" rx="4" ry="4" />
<path d="M90.0,467.792332937644 L100.0,462.792332937644" stroke="#000000" stroke-width="2" />
<path d="M180.0,451.792332937644 L180.0,543.792332937644" stroke="#cccccc" stroke-width="1" />
<rect x="100.0" y="455.792332937644" width="80" height="14" fill="#e6f7e6" stroke="#cccccc" stroke-width="0.5" />
<text x="140.0" y="463.792332937644" font-size="10" font-family="Consolas, monospace" fill="#000000" text-anchor="middle" dominant-baseline="central"></text>
<rect x="181.0" y="455.792332937644" width="80" height="14" fill="#ffe6e6" stroke="#cccccc" stroke-width="0.5" />
<text x="221.0" y="463.792332937644" font-size="10" font-family="Consolas, monospace" fill="#000000" text-anchor="middle" dominant-baseline="central">timeOut.STOP</text>
<path d="M100.0,469.792332937644 L261.0,469.792332937644" stroke="#cccccc" stroke-width="0.5" />
<rect x="100.0" y="469.792332937644" width="80" height="14" fill="#e6f7e6" stroke="#cccccc" stroke-width="0.5" />
<text x="140.0" y="477.792332937644" font-size="10" font-family="Consolas, monospace" fill="#000000" text-anchor="middle" dominant-baseline="central">State_01_X</text>
<rect x="181.0" y="469.792332937644" width="80" height="14" fill="#ffe6e6" stroke="#cccccc" stroke-width="0.5" />
<text x="221.0" y="477.792332937644" font-size="10" font-family="Consolas, monospace" fill="#000000" text-anchor="middle" dominant-baseline="central">DO_S1.E1</text>
<path d="M100.0,483.792332937644 L261.0,483.792332937644" stroke="#cccccc" stroke-width="0.5" />
<rect x="100.0" y="483.792332937644" width="80" height="14" fill="#e6f7e6" stroke="#cccccc" stroke-width="0.5" />
<text x="140.0" y="491.792332937644" font-size="10" font-family="Consolas, monospace" fill="#000000" text-anchor="middle" dominant-baseline="central">State_02_X</text>
<rect x="181.0" y="483.792332937644" width="80" height="14" fill="#ffe6e6" stroke="#cccccc" stroke-width="0.5" />
<text x="221.0" y="491.792332937644" font-size="10" font-family="Consolas, monospace" fill="#000000" text-anchor="middle" dominant-baseline="central">DO_S2.E1</text>
<path d="M100.0,497.792332937644 L261.0,497.792332937644" stroke="#cccccc" stroke-width="0.5" />
<rect x="100.0" y="497.792332937644" width="80" height="14" fill="#e6f7e6" stroke="#cccccc" stroke-width="0.5" />
<text x="140.0" y="505.792332937644" font-size="10" font-family="Consolas, monospace" fill="#000000" text-anchor="middle" dominant-baseline="central">State_03_X</text>
<rect x="181.0" y="497.792332937644" width="80" height="14" fill="#ffe6e6" stroke="#cccccc" stroke-width="0.5" />
<text x="221.0" y="505.792332937644" font-size="10" font-family="Consolas, monospace" fill="#000000" text-anchor="middle" dominant-baseline="central">DO_S3.E1</text>
<path d="M100.0,511.792332937644 L261.0,511.792332937644" stroke="#cccccc" stroke-width="0.5" />
<rect x="100.0" y="511.792332937644" width="80" height="14" fill="#e6f7e6" stroke="#cccccc" stroke-width="0.5" />
<text x="140.0" y="519.792332937644" font-size="10" font-family="Consolas, monospace" fill="#000000" text-anchor="middle" dominant-baseline="central">State_04_X</text>
<rect x="181.0" y="511.792332937644" width="80" height="14" fill="#ffe6e6" stroke="#cccccc" stroke-width="0.5" />
<text x="221.0" y="519.792332937644" font-size="10" font-family="Consolas, monospace" fill="#000000" text-anchor="middle" dominant-baseline="central">DO_S4.E1</text>
<path d="M100.0,525.792332937644 L261.0,525.792332937644" stroke="#cccccc" stroke-width="0.5" />
<rect x="100.0" y="525.792332937644" width="80" height="14" fill="#e6f7e6" stroke="#cccccc" stroke-width="0.5" />
<text x="140.0" y="533.792332937644" font-size="10" font-family="Consolas, monospace" fill="#000000" text-anchor="middle" dominant-baseline="central">State_05_X</text>
<rect x="181.0" y="525.792332937644" width="80" height="14" fill="#ffe6e6" stroke="#cccccc" stroke-width="0.5" />
<text x="221.0" y="533.792332937644" font-size="10" font-family="Consolas, monospace" fill="#000000" text-anchor="middle" dominant-baseline="central">DO_S5.E1</text>
<rect x="103.103833531178" y="98.0" width="80" height="32" fill="#f5f5f5" stroke="#000000" stroke-width="2" rx="8" ry="8" />
<text x="143.103833531178" y="114.0" font-size="12" fontWeight="bold" font-family="Verdana, sans-serif" fill="#000000" text-anchor="middle" dominant-baseline="central">xSTART</text>
<rect x="473.1177711053698" y="172.48222889463025" width="84.8" height="32" fill="#f5f5f5" stroke="#000000" stroke-width="2" rx="8" ry="8" />
<text x="515.5177711053698" y="188.48222889463025" font-size="12" fontWeight="bold" font-family="Verdana, sans-serif" fill="#000000" text-anchor="middle" dominant-baseline="central">sState_01</text>
<rect x="567.9177711053698" y="172.48222889463025" width="167.0" height="64" fill="#ffffff" stroke="#cccccc" stroke-width="1" rx="4" ry="4" />
<path d="M557.9177711053698,188.48222889463025 L567.9177711053698,183.48222889463025" stroke="#000000" stroke-width="2" />
<path d="M647.9177711053698,172.48222889463025 L647.9177711053698,236.48222889463025" stroke="#cccccc" stroke-width="1" />
<rect x="567.9177711053698" y="176.48222889463025" width="80" height="14" fill="#e6f7e6" stroke="#cccccc" stroke-width="0.5" />
<text x="607.9177711053698" y="184.48222889463025" font-size="10" font-family="Consolas, monospace" fill="#000000" text-anchor="middle" dominant-baseline="central"></text>
<rect x="648.9177711053698" y="176.48222889463025" width="86.0" height="14" fill="#ffe6e6" stroke="#cccccc" stroke-width="0.5" />
<text x="691.9177711053698" y="184.48222889463025" font-size="10" font-family="Consolas, monospace" fill="#000000" text-anchor="middle" dominant-baseline="central"></text>
<path d="M567.9177711053698,190.48222889463025 L734.9177711053698,190.48222889463025" stroke="#cccccc" stroke-width="0.5" />
<rect x="567.9177711053698" y="190.48222889463025" width="80" height="14" fill="#e6f7e6" stroke="#cccccc" stroke-width="0.5" />
<text x="607.9177711053698" y="198.48222889463025" font-size="10" font-family="Consolas, monospace" fill="#000000" text-anchor="middle" dominant-baseline="central">State_01_C</text>
<rect x="648.9177711053698" y="190.48222889463025" width="86.0" height="14" fill="#ffe6e6" stroke="#cccccc" stroke-width="0.5" />
<text x="691.9177711053698" y="198.48222889463025" font-size="10" font-family="Consolas, monospace" fill="#000000" text-anchor="middle" dominant-baseline="central">CNF</text>
<path d="M567.9177711053698,204.48222889463025 L734.9177711053698,204.48222889463025" stroke="#cccccc" stroke-width="0.5" />
<rect x="567.9177711053698" y="204.48222889463025" width="80" height="14" fill="#e6f7e6" stroke="#cccccc" stroke-width="0.5" />
<text x="607.9177711053698" y="212.48222889463025" font-size="10" font-family="Consolas, monospace" fill="#000000" text-anchor="middle" dominant-baseline="central">State_01_E</text>
<rect x="648.9177711053698" y="204.48222889463025" width="86.0" height="14" fill="#ffe6e6" stroke="#cccccc" stroke-width="0.5" />
<text x="691.9177711053698" y="212.48222889463025" font-size="10" font-family="Consolas, monospace" fill="#000000" text-anchor="middle" dominant-baseline="central">DO_S1.E1</text>
<path d="M567.9177711053698,218.48222889463025 L734.9177711053698,218.48222889463025" stroke="#cccccc" stroke-width="0.5" />
<rect x="567.9177711053698" y="218.48222889463025" width="80" height="14" fill="#e6f7e6" stroke="#cccccc" stroke-width="0.5" />
<text x="607.9177711053698" y="226.48222889463025" font-size="10" font-family="Consolas, monospace" fill="#000000" text-anchor="middle" dominant-baseline="central"></text>
<rect x="648.9177711053698" y="218.48222889463025" width="86.0" height="14" fill="#ffe6e6" stroke="#cccccc" stroke-width="0.5" />
<text x="691.9177711053698" y="226.48222889463025" font-size="10" font-family="Consolas, monospace" fill="#000000" text-anchor="middle" dominant-baseline="central">timeOut.START</text>
<rect x="473.1177711053698" y="265.5860624258082" width="84.8" height="32" fill="#f5f5f5" stroke="#000000" stroke-width="2" rx="8" ry="8" />
<text x="515.5177711053698" y="281.5860624258082" font-size="12" fontWeight="bold" font-family="Verdana, sans-serif" fill="#000000" text-anchor="middle" dominant-baseline="central">sState_02</text>
<rect x="567.9177711053698" y="265.5860624258082" width="167.0" height="64" fill="#ffffff" stroke="#cccccc" stroke-width="1" rx="4" ry="4" />
<path d="M557.9177711053698,281.5860624258082 L567.9177711053698,276.5860624258082" stroke="#000000" stroke-width="2" />
<path d="M647.9177711053698,265.5860624258082 L647.9177711053698,329.5860624258082" stroke="#cccccc" stroke-width="1" />
<rect x="567.9177711053698" y="269.5860624258082" width="80" height="14" fill="#e6f7e6" stroke="#cccccc" stroke-width="0.5" />
<text x="607.9177711053698" y="277.5860624258082" font-size="10" font-family="Consolas, monospace" fill="#000000" text-anchor="middle" dominant-baseline="central">State_01_X</text>
<rect x="648.9177711053698" y="269.5860624258082" width="86.0" height="14" fill="#ffe6e6" stroke="#cccccc" stroke-width="0.5" />
<text x="691.9177711053698" y="277.5860624258082" font-size="10" font-family="Consolas, monospace" fill="#000000" text-anchor="middle" dominant-baseline="central">DO_S1.E1</text>
<path d="M567.9177711053698,283.5860624258082 L734.9177711053698,283.5860624258082" stroke="#cccccc" stroke-width="0.5" />
<rect x="567.9177711053698" y="283.5860624258082" width="80" height="14" fill="#e6f7e6" stroke="#cccccc" stroke-width="0.5" />
<text x="607.9177711053698" y="291.5860624258082" font-size="10" font-family="Consolas, monospace" fill="#000000" text-anchor="middle" dominant-baseline="central">State_02_C</text>
<rect x="648.9177711053698" y="283.5860624258082" width="86.0" height="14" fill="#ffe6e6" stroke="#cccccc" stroke-width="0.5" />
<text x="691.9177711053698" y="291.5860624258082" font-size="10" font-family="Consolas, monospace" fill="#000000" text-anchor="middle" dominant-baseline="central">CNF</text>
<path d="M567.9177711053698,297.5860624258082 L734.9177711053698,297.5860624258082" stroke="#cccccc" stroke-width="0.5" />
<rect x="567.9177711053698" y="297.5860624258082" width="80" height="14" fill="#e6f7e6" stroke="#cccccc" stroke-width="0.5" />
<text x="607.9177711053698" y="305.5860624258082" font-size="10" font-family="Consolas, monospace" fill="#000000" text-anchor="middle" dominant-baseline="central">State_02_E</text>
<rect x="648.9177711053698" y="297.5860624258082" width="86.0" height="14" fill="#ffe6e6" stroke="#cccccc" stroke-width="0.5" />
<text x="691.9177711053698" y="305.5860624258082" font-size="10" font-family="Consolas, monospace" fill="#000000" text-anchor="middle" dominant-baseline="central">DO_S2.E1</text>
<path d="M567.9177711053698,311.5860624258082 L734.9177711053698,311.5860624258082" stroke="#cccccc" stroke-width="0.5" />
<rect x="567.9177711053698" y="311.5860624258082" width="80" height="14" fill="#e6f7e6" stroke="#cccccc" stroke-width="0.5" />
<text x="607.9177711053698" y="319.5860624258082" font-size="10" font-family="Consolas, monospace" fill="#000000" text-anchor="middle" dominant-baseline="central"></text>
<rect x="648.9177711053698" y="311.5860624258082" width="86.0" height="14" fill="#ffe6e6" stroke="#cccccc" stroke-width="0.5" />
<text x="691.9177711053698" y="319.5860624258082" font-size="10" font-family="Consolas, monospace" fill="#000000" text-anchor="middle" dominant-baseline="central">timeOut.START</text>
<rect x="473.1177711053698" y="358.6898959569863" width="84.8" height="32" fill="#f5f5f5" stroke="#000000" stroke-width="2" rx="8" ry="8" />
<text x="515.5177711053698" y="374.6898959569863" font-size="12" fontWeight="bold" font-family="Verdana, sans-serif" fill="#000000" text-anchor="middle" dominant-baseline="central">sState_03</text>
<rect x="567.9177711053698" y="358.6898959569863" width="167.0" height="64" fill="#ffffff" stroke="#cccccc" stroke-width="1" rx="4" ry="4" />
<path d="M557.9177711053698,374.6898959569863 L567.9177711053698,369.6898959569863" stroke="#000000" stroke-width="2" />
<path d="M647.9177711053698,358.6898959569863 L647.9177711053698,422.6898959569863" stroke="#cccccc" stroke-width="1" />
<rect x="567.9177711053698" y="362.6898959569863" width="80" height="14" fill="#e6f7e6" stroke="#cccccc" stroke-width="0.5" />
<text x="607.9177711053698" y="370.6898959569863" font-size="10" font-family="Consolas, monospace" fill="#000000" text-anchor="middle" dominant-baseline="central">State_02_X</text>
<rect x="648.9177711053698" y="362.6898959569863" width="86.0" height="14" fill="#ffe6e6" stroke="#cccccc" stroke-width="0.5" />
<text x="691.9177711053698" y="370.6898959569863" font-size="10" font-family="Consolas, monospace" fill="#000000" text-anchor="middle" dominant-baseline="central">DO_S2.E1</text>
<path d="M567.9177711053698,376.6898959569863 L734.9177711053698,376.6898959569863" stroke="#cccccc" stroke-width="0.5" />
<rect x="567.9177711053698" y="376.6898959569863" width="80" height="14" fill="#e6f7e6" stroke="#cccccc" stroke-width="0.5" />
<text x="607.9177711053698" y="384.6898959569863" font-size="10" font-family="Consolas, monospace" fill="#000000" text-anchor="middle" dominant-baseline="central">State_03_C</text>
<rect x="648.9177711053698" y="376.6898959569863" width="86.0" height="14" fill="#ffe6e6" stroke="#cccccc" stroke-width="0.5" />
<text x="691.9177711053698" y="384.6898959569863" font-size="10" font-family="Consolas, monospace" fill="#000000" text-anchor="middle" dominant-baseline="central">CNF</text>
<path d="M567.9177711053698,390.6898959569863 L734.9177711053698,390.6898959569863" stroke="#cccccc" stroke-width="0.5" />
<rect x="567.9177711053698" y="390.6898959569863" width="80" height="14" fill="#e6f7e6" stroke="#cccccc" stroke-width="0.5" />
<text x="607.9177711053698" y="398.6898959569863" font-size="10" font-family="Consolas, monospace" fill="#000000" text-anchor="middle" dominant-baseline="central">State_03_E</text>
<rect x="648.9177711053698" y="390.6898959569863" width="86.0" height="14" fill="#ffe6e6" stroke="#cccccc" stroke-width="0.5" />
<text x="691.9177711053698" y="398.6898959569863" font-size="10" font-family="Consolas, monospace" fill="#000000" text-anchor="middle" dominant-baseline="central">DO_S3.E1</text>
<path d="M567.9177711053698,404.6898959569863 L734.9177711053698,404.6898959569863" stroke="#cccccc" stroke-width="0.5" />
<rect x="567.9177711053698" y="404.6898959569863" width="80" height="14" fill="#e6f7e6" stroke="#cccccc" stroke-width="0.5" />
<text x="607.9177711053698" y="412.6898959569863" font-size="10" font-family="Consolas, monospace" fill="#000000" text-anchor="middle" dominant-baseline="central"></text>
<rect x="648.9177711053698" y="404.6898959569863" width="86.0" height="14" fill="#ffe6e6" stroke="#cccccc" stroke-width="0.5" />
<text x="691.9177711053698" y="412.6898959569863" font-size="10" font-family="Consolas, monospace" fill="#000000" text-anchor="middle" dominant-baseline="central">timeOut.START</text>
<rect x="473.1177711053698" y="451.792332937644" width="84.8" height="32" fill="#f5f5f5" stroke="#000000" stroke-width="2" rx="8" ry="8" />
<text x="515.5177711053698" y="467.792332937644" font-size="12" fontWeight="bold" font-family="Verdana, sans-serif" fill="#000000" text-anchor="middle" dominant-baseline="central">sState_04</text>
<rect x="567.9177711053698" y="451.792332937644" width="167.0" height="64" fill="#ffffff" stroke="#cccccc" stroke-width="1" rx="4" ry="4" />
<path d="M557.9177711053698,467.792332937644 L567.9177711053698,462.792332937644" stroke="#000000" stroke-width="2" />
<path d="M647.9177711053698,451.792332937644 L647.9177711053698,515.792332937644" stroke="#cccccc" stroke-width="1" />
<rect x="567.9177711053698" y="455.792332937644" width="80" height="14" fill="#e6f7e6" stroke="#cccccc" stroke-width="0.5" />
<text x="607.9177711053698" y="463.792332937644" font-size="10" font-family="Consolas, monospace" fill="#000000" text-anchor="middle" dominant-baseline="central">State_03_X</text>
<rect x="648.9177711053698" y="455.792332937644" width="86.0" height="14" fill="#ffe6e6" stroke="#cccccc" stroke-width="0.5" />
<text x="691.9177711053698" y="463.792332937644" font-size="10" font-family="Consolas, monospace" fill="#000000" text-anchor="middle" dominant-baseline="central">DO_S3.E1</text>
<path d="M567.9177711053698,469.792332937644 L734.9177711053698,469.792332937644" stroke="#cccccc" stroke-width="0.5" />
<rect x="567.9177711053698" y="469.792332937644" width="80" height="14" fill="#e6f7e6" stroke="#cccccc" stroke-width="0.5" />
<text x="607.9177711053698" y="477.792332937644" font-size="10" font-family="Consolas, monospace" fill="#000000" text-anchor="middle" dominant-baseline="central">State_04_C</text>
<rect x="648.9177711053698" y="469.792332937644" width="86.0" height="14" fill="#ffe6e6" stroke="#cccccc" stroke-width="0.5" />
<text x="691.9177711053698" y="477.792332937644" font-size="10" font-family="Consolas, monospace" fill="#000000" text-anchor="middle" dominant-baseline="central">CNF</text>
<path d="M567.9177711053698,483.792332937644 L734.9177711053698,483.792332937644" stroke="#cccccc" stroke-width="0.5" />
<rect x="567.9177711053698" y="483.792332937644" width="80" height="14" fill="#e6f7e6" stroke="#cccccc" stroke-width="0.5" />
<text x="607.9177711053698" y="491.792332937644" font-size="10" font-family="Consolas, monospace" fill="#000000" text-anchor="middle" dominant-baseline="central">State_04_E</text>
<rect x="648.9177711053698" y="483.792332937644" width="86.0" height="14" fill="#ffe6e6" stroke="#cccccc" stroke-width="0.5" />
<text x="691.9177711053698" y="491.792332937644" font-size="10" font-family="Consolas, monospace" fill="#000000" text-anchor="middle" dominant-baseline="central">DO_S4.E1</text>
<path d="M567.9177711053698,497.792332937644 L734.9177711053698,497.792332937644" stroke="#cccccc" stroke-width="0.5" />
<rect x="567.9177711053698" y="497.792332937644" width="80" height="14" fill="#e6f7e6" stroke="#cccccc" stroke-width="0.5" />
<text x="607.9177711053698" y="505.792332937644" font-size="10" font-family="Consolas, monospace" fill="#000000" text-anchor="middle" dominant-baseline="central"></text>
<rect x="648.9177711053698" y="497.792332937644" width="86.0" height="14" fill="#ffe6e6" stroke="#cccccc" stroke-width="0.5" />
<text x="691.9177711053698" y="505.792332937644" font-size="10" font-family="Consolas, monospace" fill="#000000" text-anchor="middle" dominant-baseline="central">timeOut.START</text>
<rect x="473.1177711053698" y="638.0" width="84.8" height="32" fill="#f5f5f5" stroke="#000000" stroke-width="2" rx="8" ry="8" />
<text x="515.5177711053698" y="654.0" font-size="12" fontWeight="bold" font-family="Verdana, sans-serif" fill="#000000" text-anchor="middle" dominant-baseline="central">sState_00</text>
<rect x="567.9177711053698" y="638.0" width="161" height="64" fill="#ffffff" stroke="#cccccc" stroke-width="1" rx="4" ry="4" />
<path d="M557.9177711053698,654.0 L567.9177711053698,649.0" stroke="#000000" stroke-width="2" />
<path d="M647.9177711053698,638.0 L647.9177711053698,702.0" stroke="#cccccc" stroke-width="1" />
<rect x="567.9177711053698" y="642.0" width="80" height="14" fill="#e6f7e6" stroke="#cccccc" stroke-width="0.5" />
<text x="607.9177711053698" y="650.0" font-size="10" font-family="Consolas, monospace" fill="#000000" text-anchor="middle" dominant-baseline="central"></text>
<rect x="648.9177711053698" y="642.0" width="80" height="14" fill="#ffe6e6" stroke="#cccccc" stroke-width="0.5" />
<text x="688.9177711053698" y="650.0" font-size="10" font-family="Consolas, monospace" fill="#000000" text-anchor="middle" dominant-baseline="central">timeOut.STOP</text>
<path d="M567.9177711053698,656.0 L728.9177711053698,656.0" stroke="#cccccc" stroke-width="0.5" />
<rect x="567.9177711053698" y="656.0" width="80" height="14" fill="#e6f7e6" stroke="#cccccc" stroke-width="0.5" />
<text x="607.9177711053698" y="664.0" font-size="10" font-family="Consolas, monospace" fill="#000000" text-anchor="middle" dominant-baseline="central">State_05_X</text>
<rect x="648.9177711053698" y="656.0" width="80" height="14" fill="#ffe6e6" stroke="#cccccc" stroke-width="0.5" />
<text x="688.9177711053698" y="664.0" font-size="10" font-family="Consolas, monospace" fill="#000000" text-anchor="middle" dominant-baseline="central">DO_S5.E1</text>
<path d="M567.9177711053698,670.0 L728.9177711053698,670.0" stroke="#cccccc" stroke-width="0.5" />
<rect x="567.9177711053698" y="670.0" width="80" height="14" fill="#e6f7e6" stroke="#cccccc" stroke-width="0.5" />
<text x="607.9177711053698" y="678.0" font-size="10" font-family="Consolas, monospace" fill="#000000" text-anchor="middle" dominant-baseline="central">State_00_C</text>
<rect x="648.9177711053698" y="670.0" width="80" height="14" fill="#ffe6e6" stroke="#cccccc" stroke-width="0.5" />
<text x="688.9177711053698" y="678.0" font-size="10" font-family="Consolas, monospace" fill="#000000" text-anchor="middle" dominant-baseline="central">CNF</text>
<path d="M567.9177711053698,684.0 L728.9177711053698,684.0" stroke="#cccccc" stroke-width="0.5" />
<rect x="567.9177711053698" y="684.0" width="80" height="14" fill="#e6f7e6" stroke="#cccccc" stroke-width="0.5" />
<text x="607.9177711053698" y="692.0" font-size="10" font-family="Consolas, monospace" fill="#000000" text-anchor="middle" dominant-baseline="central"></text>
<rect x="648.9177711053698" y="684.0" width="80" height="14" fill="#ffe6e6" stroke="#cccccc" stroke-width="0.5" />
<text x="688.9177711053698" y="692.0" font-size="10" font-family="Consolas, monospace" fill="#000000" text-anchor="middle" dominant-baseline="central"></text>
<rect x="473.1177711053698" y="544.896166468822" width="84.8" height="32" fill="#f5f5f5" stroke="#000000" stroke-width="2" rx="8" ry="8" />
<text x="515.5177711053698" y="560.896166468822" font-size="12" fontWeight="bold" font-family="Verdana, sans-serif" fill="#000000" text-anchor="middle" dominant-baseline="central">sState_05</text>
<rect x="567.9177711053698" y="544.896166468822" width="167.0" height="64" fill="#ffffff" stroke="#cccccc" stroke-width="1" rx="4" ry="4" />
<path d="M557.9177711053698,560.896166468822 L567.9177711053698,555.896166468822" stroke="#000000" stroke-width="2" />
<path d="M647.9177711053698,544.896166468822 L647.9177711053698,608.896166468822" stroke="#cccccc" stroke-width="1" />
<rect x="567.9177711053698" y="548.896166468822" width="80" height="14" fill="#e6f7e6" stroke="#cccccc" stroke-width="0.5" />
<text x="607.9177711053698" y="556.896166468822" font-size="10" font-family="Consolas, monospace" fill="#000000" text-anchor="middle" dominant-baseline="central">State_04_X</text>
<rect x="648.9177711053698" y="548.896166468822" width="86.0" height="14" fill="#ffe6e6" stroke="#cccccc" stroke-width="0.5" />
<text x="691.9177711053698" y="556.896166468822" font-size="10" font-family="Consolas, monospace" fill="#000000" text-anchor="middle" dominant-baseline="central">DO_S4.E1</text>
<path d="M567.9177711053698,562.896166468822 L734.9177711053698,562.896166468822" stroke="#cccccc" stroke-width="0.5" />
<rect x="567.9177711053698" y="562.896166468822" width="80" height="14" fill="#e6f7e6" stroke="#cccccc" stroke-width="0.5" />
<text x="607.9177711053698" y="570.896166468822" font-size="10" font-family="Consolas, monospace" fill="#000000" text-anchor="middle" dominant-baseline="central">State_05_C</text>
<rect x="648.9177711053698" y="562.896166468822" width="86.0" height="14" fill="#ffe6e6" stroke="#cccccc" stroke-width="0.5" />
<text x="691.9177711053698" y="570.896166468822" font-size="10" font-family="Consolas, monospace" fill="#000000" text-anchor="middle" dominant-baseline="central">CNF</text>
<path d="M567.9177711053698,576.896166468822 L734.9177711053698,576.896166468822" stroke="#cccccc" stroke-width="0.5" />
<rect x="567.9177711053698" y="576.896166468822" width="80" height="14" fill="#e6f7e6" stroke="#cccccc" stroke-width="0.5" />
<text x="607.9177711053698" y="584.896166468822" font-size="10" font-family="Consolas, monospace" fill="#000000" text-anchor="middle" dominant-baseline="central">State_05_E</text>
<rect x="648.9177711053698" y="576.896166468822" width="86.0" height="14" fill="#ffe6e6" stroke="#cccccc" stroke-width="0.5" />
<text x="691.9177711053698" y="584.896166468822" font-size="10" font-family="Consolas, monospace" fill="#000000" text-anchor="middle" dominant-baseline="central">DO_S5.E1</text>
<path d="M567.9177711053698,590.896166468822 L734.9177711053698,590.896166468822" stroke="#cccccc" stroke-width="0.5" />
<rect x="567.9177711053698" y="590.896166468822" width="80" height="14" fill="#e6f7e6" stroke="#cccccc" stroke-width="0.5" />
<text x="607.9177711053698" y="598.896166468822" font-size="10" font-family="Consolas, monospace" fill="#000000" text-anchor="middle" dominant-baseline="central"></text>
<rect x="648.9177711053698" y="590.896166468822" width="86.0" height="14" fill="#ffe6e6" stroke="#cccccc" stroke-width="0.5" />
<text x="691.9177711053698" y="598.896166468822" font-size="10" font-family="Consolas, monospace" fill="#000000" text-anchor="middle" dominant-baseline="central">timeOut.START</text>
<path d="M515.5177711053698,204.48222889463025 C515.5177711053698,216.70299560086585,515.5177711053698,253.36529571957263,515.5177711053698,265.5860624258082" stroke="#404040" stroke-width="1.2" fill="none" />
<path d="M515.5177711053698,265.5860624258082 L511.5177711053698,258.6578591955327 L519.5177711053698,258.6578591955327 L515.5177711053698,265.5860624258082" fill="#404040" stroke="#404040" stroke-width="1" />
<g transform="translate(515.5177711053698,235.03414566021925)">
<rect x="-52.75" y="-7.5" width="105.5" height="15" fill="#ffffff" opacity="0.9" rx="3" ry="3" />
<text x="0" y="3.5" font-size="10" font-family="Consolas, monospace" fill="#000000" text-anchor="middle" dominant-baseline="central">timeOut.TimeOut</text>
</g>
<path d="M515.5177711053698,297.5860624258082 C515.5177711053698,309.80682913204384,515.5177711053698,346.46912925075065,515.5177711053698,358.6898959569863" stroke="#404040" stroke-width="1.2" fill="none" />
<path d="M515.5177711053698,358.6898959569863 L511.5177711053698,351.76169272671075 L519.5177711053698,351.76169272671075 L515.5177711053698,358.6898959569863" fill="#404040" stroke="#404040" stroke-width="1" />
<g transform="translate(515.5177711053698,328.1379791913972)">
<rect x="-52.75" y="-7.5" width="105.5" height="15" fill="#ffffff" opacity="0.9" rx="3" ry="3" />
<text x="0" y="3.5" font-size="10" font-family="Consolas, monospace" fill="#000000" text-anchor="middle" dominant-baseline="central">timeOut.TimeOut</text>
</g>
<path d="M515.5177711053698,390.6898959569863 C515.5177711053698,402.9103833531178,515.5177711053698,439.57184554151246,515.5177711053698,451.792332937644" stroke="#404040" stroke-width="1.2" fill="none" />
<path d="M515.5177711053698,451.792332937644 L511.5177711053698,444.8641297073685 L519.5177711053698,444.8641297073685 L515.5177711053698,451.792332937644" fill="#404040" stroke="#404040" stroke-width="1" />
<g transform="translate(515.5177711053698,421.24111444731517)">
<rect x="-52.75" y="-7.5" width="105.5" height="15" fill="#ffffff" opacity="0.9" rx="3" ry="3" />
<text x="0" y="3.5" font-size="10" font-family="Consolas, monospace" fill="#000000" text-anchor="middle" dominant-baseline="central">timeOut.TimeOut</text>
</g>
<path d="M515.5177711053698,638.0 C375.5177711053698,598.0,368.0177711053698,244.48222889463025,508.0177711053698,204.48222889463025" stroke="#404040" stroke-width="1.2" fill="none" />
<path d="M508.0177711053698,204.48222889463025 L502.45502229692687,210.23164849091708 L500.25725327374784,202.53945690979052 L508.0177711053698,204.48222889463025" fill="#404040" stroke="#404040" stroke-width="1" />
<g transform="translate(406.7677711053698,421.2411144473151)">
<rect x="-30.0" y="-7.5" width="60.0" height="15" fill="#ffffff" opacity="0.9" rx="3" ry="3" />
<text x="0" y="3.5" font-size="10" font-family="Consolas, monospace" fill="#000000" text-anchor="middle" dominant-baseline="central">START_S1</text>
</g>
<path d="M183.103833531178,114.0 C321.0671075159167,114.0,523.0177711053698,34.51895490989156,523.0177711053698,172.48222889463025" stroke="#404040" stroke-width="1.2" fill="none" />
<path d="M523.0177711053698,172.48222889463025 L519.0177711053698,165.55402566435475 L527.0177711053698,165.55402566435475 L523.0177711053698,172.48222889463025" fill="#404040" stroke="#404040" stroke-width="1" />
<g transform="translate(404.7970300625509,91.50488670303811)">
<rect x="-30.0" y="-7.5" width="60.0" height="15" fill="#ffffff" opacity="0.9" rx="3" ry="3" />
<text x="0" y="3.5" font-size="10" font-family="Consolas, monospace" fill="#000000" text-anchor="middle" dominant-baseline="central">START_S1</text>
</g>
<path d="M473.1177711053698,188.48222889463025 C263.49032046680827,188.48222889463025,20.0,242.16488229908245,20.0,451.792332937644" stroke="#404040" stroke-width="1.2" fill="none" />
<path d="M20.0,451.792332937644 L16.0,444.8641297073685 L24.0,444.8641297073685 L20.0,451.792332937644" fill="#404040" stroke="#404040" stroke-width="1" />
<g transform="translate(167.94859156322434,241.52698692667656)">
<rect x="-20.25" y="-7.5" width="40.5" height="15" fill="#ffffff" opacity="0.9" rx="3" ry="3" />
<text x="0" y="3.5" font-size="10" font-family="Consolas, monospace" fill="#000000" text-anchor="middle" dominant-baseline="central">RESET</text>
</g>
<path d="M473.1177711053698,281.5860624258082 C285.11038576962915,281.5860624258082,35.0,263.78494760190335,35.0,451.792332937644" stroke="#404040" stroke-width="1.2" fill="none" />
<path d="M35.0,451.792332937644 L31.0,444.8641297073685 L39.0,444.8641297073685 L35.0,451.792332937644" fill="#404040" stroke="#404040" stroke-width="1" />
<g transform="translate(183.55611605178217,296.1864281808234)">
<rect x="-20.25" y="-7.5" width="40.5" height="15" fill="#ffffff" opacity="0.9" rx="3" ry="3" />
<text x="0" y="3.5" font-size="10" font-family="Consolas, monospace" fill="#000000" text-anchor="middle" dominant-baseline="central">RESET</text>
</g>
<path d="M473.1177711053698,374.6898959569863 C301.0836191408102,374.6898959569863,50.0,279.7581809730844,50.0,451.792332937644" stroke="#404040" stroke-width="1.2" fill="none" />
<path d="M50.0,451.792332937644 L46.0,444.8641297073685 L54.0,444.8641297073685 L50.0,451.792332937644" fill="#404040" stroke="#404040" stroke-width="1" />
<g transform="translate(197.04607856597505,348.7283074606053)">
<rect x="-20.25" y="-7.5" width="40.5" height="15" fill="#ffffff" opacity="0.9" rx="3" ry="3" />
<text x="0" y="3.5" font-size="10" font-family="Consolas, monospace" fill="#000000" text-anchor="middle" dominant-baseline="central">RESET</text>
</g>
<path d="M90.0,467.792332937644 C270.53675831218914,467.792332937644,508.0177711053698,457.46324168781086,508.0177711053698,638.0" stroke="#404040" stroke-width="1.2" fill="none" />
<path d="M508.0177711053698,638.0 L504.0177711053698,631.0717967697245 L512.0177711053698,631.0717967697245 L508.0177711053698,638.0" fill="#404040" stroke="#404040" stroke-width="1" />
<g transform="translate(366.7101699197558,485.1948821017511)">
<rect x="-20.25" y="-7.5" width="40.5" height="15" fill="#ffffff" opacity="0.9" rx="3" ry="3" />
<text x="0" y="3.5" font-size="10" font-family="Consolas, monospace" fill="#000000" text-anchor="middle" dominant-baseline="central">RESET</text>
</g>
<path d="M515.5177711053698,483.792332937644 C515.5177711053698,496.0130996438796,515.5177711053698,532.6753997625864,515.5177711053698,544.896166468822" stroke="#404040" stroke-width="1.2" fill="none" />
<path d="M515.5177711053698,544.896166468822 L511.5177711053698,537.9679632385465 L519.5177711053698,537.9679632385465 L515.5177711053698,544.896166468822" fill="#404040" stroke="#404040" stroke-width="1" />
<g transform="translate(515.5177711053698,514.344249703233)">
<rect x="-52.75" y="-7.5" width="105.5" height="15" fill="#ffffff" opacity="0.9" rx="3" ry="3" />
<text x="0" y="3.5" font-size="10" font-family="Consolas, monospace" fill="#000000" text-anchor="middle" dominant-baseline="central">timeOut.TimeOut</text>
</g>
<path d="M473.1177711053698,467.792332937644 C433.1177711053698,467.792332937644,65.0,411.792332937644,65.0,451.792332937644" stroke="#404040" stroke-width="1.2" fill="none" />
<path d="M65.0,451.792332937644 L61.0,444.8641297073685 L69.0,444.8641297073685 L65.0,451.792332937644" fill="#404040" stroke="#404040" stroke-width="1" />
<g transform="translate(254.0588855526849,444.792332937644)">
<rect x="-20.25" y="-7.5" width="40.5" height="15" fill="#ffffff" opacity="0.9" rx="3" ry="3" />
<text x="0" y="3.5" font-size="10" font-family="Consolas, monospace" fill="#000000" text-anchor="middle" dominant-baseline="central">RESET</text>
</g>
<path d="M515.5177711053698,576.896166468822 C515.5177711053698,589.2086454591894,523.0177711053698,625.6875210096326,523.0177711053698,638.0" stroke="#404040" stroke-width="1.2" fill="none" />
<path d="M523.0177711053698,638.0 L519.0177711053698,631.0717967697245 L527.0177711053698,631.0717967697245 L523.0177711053698,638.0" fill="#404040" stroke="#404040" stroke-width="1" />
<g transform="translate(519.2677711053698,607.448083234411)">
<rect x="-52.75" y="-7.5" width="105.5" height="15" fill="#ffffff" opacity="0.9" rx="3" ry="3" />
<text x="0" y="3.5" font-size="10" font-family="Consolas, monospace" fill="#000000" text-anchor="middle" dominant-baseline="central">timeOut.TimeOut</text>
</g>
<path d="M473.1177711053698,560.896166468822 C312.8746642437977,560.896166468822,80.0,644.0354397992161,80.0,483.792332937644" stroke="#404040" stroke-width="1.2" fill="none" />
<path d="M80.0,483.792332937644 L84.0,490.72053616791953 L76.0,490.72053616791953 L80.0,483.792332937644" fill="#404040" stroke="#404040" stroke-width="1" />
<g transform="translate(216.46772047959536,582.4354147763227)">
<rect x="-20.25" y="-7.5" width="40.5" height="15" fill="#ffffff" opacity="0.9" rx="3" ry="3" />
<text x="0" y="3.5" font-size="10" font-family="Consolas, monospace" fill="#000000" text-anchor="middle" dominant-baseline="central">RESET</text>
</g>
</svg>