<?xml version="1.0" encoding="UTF-8"?>
<svg xmlns="http://www.w3.org/2000/svg" xmlns:xlink="http://www.w3.org/1999/xlink"
     width="1200" height="800" viewBox="0 0 1200 800">
<defs>
</defs>
<rect x="0" y="0" width="1200" height="800" fill="#ffffff" />
<text x="600" y="25" font-size="14" fontWeight="bold" font-family="Verdana, sans-serif" fill="#000000" text-anchor="middle" dominant-baseline="central">ECC: sequence_T_05_loop_AX</text>
<rect x="121.23903123903125" y="529.999351999352" width="80" height="32" fill="#f5f5f5" stroke="#000000" stroke-width="2" rx="8" ry="8" />
<text x="161.23903123903125" y="545.999351999352" font-size="12" fontWeight="bold" font-family="Verdana, sans-serif" fill="#000000" text-anchor="middle" dominant-baseline="central">sRESET</text>
<rect x="211.23903123903125" y="529.999351999352" width="161" height="106" fill="#ffffff" stroke="#cccccc" stroke-width="1" rx="4" ry="4" />
<path d="M201.23903123903125,545.999351999352 L211.23903123903125,540.999351999352" stroke="#000000" stroke-width="2" />
<path d="M291.23903123903125,529.999351999352 L291.23903123903125,635.999351999352" stroke="#cccccc" stroke-width="1" />
<rect x="211.23903123903125" y="533.999351999352" width="80" height="14" fill="#e6f7e6" stroke="#cccccc" stroke-width="0.5" />
<text x="251.23903123903125" y="541.999351999352" font-size="10" font-family="Consolas, monospace" fill="#000000" text-anchor="middle" dominant-baseline="central">State_01_X</text>
<rect x="292.23903123903125" y="533.999351999352" width="80" height="14" fill="#ffe6e6" stroke="#cccccc" stroke-width="0.5" />
<text x="332.23903123903125" y="541.999351999352" font-size="10" font-family="Consolas, monospace" fill="#000000" text-anchor="middle" dominant-baseline="central">DO_S1.E1</text>
<path d="M211.23903123903125,547.999351999352 L372.23903123903125,547.999351999352" stroke="#cccccc" stroke-width="0.5" />
<rect x="211.23903123903125" y="547.999351999352" width="80" height="14" fill="#e6f7e6" stroke="#cccccc" stroke-width="0.5" />
<text x="251.23903123903125" y="555.999351999352" font-size="10" font-family="Consolas, monospace" fill="#000000" text-anchor="middle" dominant-baseline="central">State_02_X</text>
<rect x="292.23903123903125" y="547.999351999352" width="80" height="14" fill="#ffe6e6" stroke="#cccccc" stroke-width="0.5" />
<text x="332.23903123903125" y="555.999351999352" font-size="10" font-family="Consolas, monospace" fill="#000000" text-anchor="middle" dominant-baseline="central">DO_S2.E1</text>
<path d="M211.23903123903125,561.999351999352 L372.23903123903125,561.999351999352" stroke="#cccccc" stroke-width="0.5" />
<rect x="211.23903123903125" y="561.999351999352" width="80" height="14" fill="#e6f7e6" stroke="#cccccc" stroke-width="0.5" />
<text x="251.23903123903125" y="569.999351999352" font-size="10" font-family="Consolas, monospace" fill="#000000" text-anchor="middle" dominant-baseline="central">State_03_X</text>
<rect x="292.23903123903125" y="561.999351999352" width="80" height="14" fill="#ffe6e6" stroke="#cccccc" stroke-width="0.5" />
<text x="332.23903123903125" y="569.999351999352" font-size="10" font-family="Consolas, monospace" fill="#000000" text-anchor="middle" dominant-baseline="central">DO_S3.E1</text>
<path d="M211.23903123903125,575.999351999352 L372.23903123903125,575.999351999352" stroke="#cccccc" stroke-width="0.5" />
<rect x="211.23903123903125" y="575.999351999352" width="80" height="14" fill="#e6f7e6" stroke="#cccccc" stroke-width="0.5" />
<text x="251.23903123903125" y="583.999351999352" font-size="10" font-family="Consolas, monospace" fill="#000000" text-anchor="middle" dominant-baseline="central">State_04_X</text>
<rect x="292.23903123903125" y="575.999351999352" width="80" height="14" fill="#ffe6e6" stroke="#cccccc" stroke-width="0.5" />
<text x="332.23903123903125" y="583.999351999352" font-size="10" font-family="Consolas, monospace" fill="#000000" text-anchor="middle" dominant-baseline="central">DO_S4.E1</text>
<path d="M211.23903123903125,589.999351999352 L372.23903123903125,589.999351999352" stroke="#cccccc" stroke-width="0.5" />
<rect x="211.23903123903125" y="589.999351999352" width="80" height="14" fill="#e6f7e6" stroke="#cccccc" stroke-width="0.5" />
<text x="251.23903123903125" y="597.999351999352" font-size="10" font-family="Consolas, monospace" fill="#000000" text-anchor="middle" dominant-baseline="central">State_05_X</text>
<rect x="292.23903123903125" y="589.999351999352" width="80" height="14" fill="#ffe6e6" stroke="#cccccc" stroke-width="0.5" />
<text x="332.23903123903125" y="597.999351999352" font-size="10" font-family="Consolas, monospace" fill="#000000" text-anchor="middle" dominant-baseline="central">DO_S5.E1</text>
<path d="M211.23903123903125,603.999351999352 L372.23903123903125,603.999351999352" stroke="#cccccc" stroke-width="0.5" />
<rect x="211.23903123903125" y="603.999351999352" width="80" height="14" fill="#e6f7e6" stroke="#cccccc" stroke-width="0.5" />
<text x="251.23903123903125" y="611.999351999352" font-size="10" font-family="Consolas, monospace" fill="#000000" text-anchor="middle" dominant-baseline="central"></text>
<rect x="292.23903123903125" y="603.999351999352" width="80" height="14" fill="#ffe6e6" stroke="#cccccc" stroke-width="0.5" />
<text x="332.23903123903125" y="611.999351999352" font-size="10" font-family="Consolas, monospace" fill="#000000" text-anchor="middle" dominant-baseline="central">timeOut.STOP</text>
<path d="M211.23903123903125,617.999351999352 L372.23903123903125,617.999351999352" stroke="#cccccc" stroke-width="0.5" />
<rect x="211.23903123903125" y="617.999351999352" width="80" height="14" fill="#e6f7e6" stroke="#cccccc" stroke-width="0.5" />
<text x="251.23903123903125" y="625.999351999352" font-size="10" font-family="Consolas, monospace" fill="#000000" text-anchor="middle" dominant-baseline="central">State_00_C</text>
<rect x="292.23903123903125" y="617.999351999352" width="80" height="14" fill="#ffe6e6" stroke="#cccccc" stroke-width="0.5" />
<text x="332.23903123903125" y="625.999351999352" font-size="10" font-family="Consolas, monospace" fill="#000000" text-anchor="middle" dominant-baseline="central">CNF</text>
<rect x="229.23967923967928" y="98.0" width="80" height="32" fill="#f5f5f5" stroke="#000000" stroke-width="2" rx="8" ry="8" />
<text x="269.2396792396793" y="114.0" font-size="12" fontWeight="bold" font-family="Verdana, sans-serif" fill="#000000" text-anchor="middle" dominant-baseline="central">xSTART</text>
<rect x="658.8406512406514" y="205.999027999028" width="84.8" height="32" fill="#f5f5f5" stroke="#000000" stroke-width="2" rx="8" ry="8" />
<text x="701.2406512406513" y="221.999027999028" font-size="12" fontWeight="bold" font-family="Verdana, sans-serif" fill="#000000" text-anchor="middle" dominant-baseline="central">sState_01</text>
<rect x="753.6406512406513" y="205.999027999028" width="167.0" height="64" fill="#ffffff" stroke="#cccccc" stroke-width="1" rx="4" ry="4" />
<path d="M743.6406512406513,221.999027999028 L753.6406512406513,216.999027999028" stroke="#000000" stroke-width="2" />
<path d="M833.6406512406513,205.999027999028 L833.6406512406513,269.999027999028" stroke="#cccccc" stroke-width="1" />
<rect x="753.6406512406513" y="209.999027999028" width="80" height="14" fill="#e6f7e6" stroke="#cccccc" stroke-width="0.5" />
<text x="793.6406512406513" y="217.999027999028" font-size="10" font-family="Consolas, monospace" fill="#000000" text-anchor="middle" dominant-baseline="central">State_05_X</text>
<rect x="834.6406512406513" y="209.999027999028" width="86.0" height="14" fill="#ffe6e6" stroke="#cccccc" stroke-width="0.5" />
<text x="877.6406512406513" y="217.999027999028" font-size="10" font-family="Consolas, monospace" fill="#000000" text-anchor="middle" dominant-baseline="central">DO_S5.E1</text>
<path d="M753.6406512406513,223.999027999028 L920.6406512406513,223.999027999028" stroke="#cccccc" stroke-width="0.5" />
<rect x="753.6406512406513" y="223.999027999028" width="80" height="14" fill="#e6f7e6" stroke="#cccccc" stroke-width="0.5" />
<text x="793.6406512406513" y="231.999027999028" font-size="10" font-family="Consolas, monospace" fill="#000000" text-anchor="middle" dominant-baseline="central">State_01_C</text>
<rect x="834.6406512406513" y="223.999027999028" width="86.0" height="14" fill="#ffe6e6" stroke="#cccccc" stroke-width="0.5" />
<text x="877.6406512406513" y="231.999027999028" font-size="10" font-family="Consolas, monospace" fill="#000000" text-anchor="middle" dominant-baseline="central">CNF</text>
<path d="M753.6406512406513,237.999027999028 L920.6406512406513,237.999027999028" stroke="#cccccc" stroke-width="0.5" />
<rect x="753.6406512406513" y="237.999027999028" width="80" height="14" fill="#e6f7e6" stroke="#cccccc" stroke-width="0.5" />
<text x="793.6406512406513" y="245.999027999028" font-size="10" font-family="Consolas, monospace" fill="#000000" text-anchor="middle" dominant-baseline="central">State_01_E</text>
<rect x="834.6406512406513" y="237.999027999028" width="86.0" height="14" fill="#ffe6e6" stroke="#cccccc" stroke-width="0.5" />
<text x="877.6406512406513" y="245.999027999028" font-size="10" font-family="Consolas, monospace" fill="#000000" text-anchor="middle" dominant-baseline="central">DO_S1.E1</text>
<path d="M753.6406512406513,251.999027999028 L920.6406512406513,251.999027999028" stroke="#cccccc" stroke-width="0.5" />
<rect x="753.6406512406513" y="251.999027999028" width="80" height="14" fill="#e6f7e6" stroke="#cccccc" stroke-width="0.5" />
<text x="793.6406512406513" y="259.999027999028" font-size="10" font-family="Consolas, monospace" fill="#000000" text-anchor="middle" dominant-baseline="central"></text>
<rect x="834.6406512406513" y="251.999027999028" width="86.0" height="14" fill="#ffe6e6" stroke="#cccccc" stroke-width="0.5" />
<text x="877.6406512406513" y="259.999027999028" font-size="10" font-family="Consolas, monospace" fill="#000000" text-anchor="middle" dominant-baseline="central">timeOut.START</text>
<rect x="658.8406512406514" y="313.999675999676" width="84.8" height="32" fill="#f5f5f5" stroke="#000000" stroke-width="2" rx="8" ry="8" />
<text x="701.2406512406513" y="329.999675999676" font-size="12" fontWeight="bold" font-family="Verdana, sans-serif" fill="#000000" text-anchor="middle" dominant-baseline="central">sState_02</text>
<rect x="753.6406512406513" y="313.999675999676" width="167.0" height="64" fill="#ffffff" stroke="#cccccc" stroke-width="1" rx="4" ry="4" />
<path d="M743.6406512406513,329.999675999676 L753.6406512406513,324.999675999676" stroke="#000000" stroke-width="2" />
<path d="M833.6406512406513,313.999675999676 L833.6406512406513,377.999675999676" stroke="#cccccc" stroke-width="1" />
<rect x="753.6406512406513" y="317.999675999676" width="80" height="14" fill="#e6f7e6" stroke="#cccccc" stroke-width="0.5" />
<text x="793.6406512406513" y="325.999675999676" font-size="10" font-family="Consolas, monospace" fill="#000000" text-anchor="middle" dominant-baseline="central">State_01_X</text>
<rect x="834.6406512406513" y="317.999675999676" width="86.0" height="14" fill="#ffe6e6" stroke="#cccccc" stroke-width="0.5" />
<text x="877.6406512406513" y="325.999675999676" font-size="10" font-family="Consolas, monospace" fill="#000000" text-anchor="middle" dominant-baseline="central">DO_S1.E1</text>
<path d="M753.6406512406513,331.999675999676 L920.6406512406513,331.999675999676" stroke="#cccccc" stroke-width="0.5" />
<rect x="753.6406512406513" y="331.999675999676" width="80" height="14" fill="#e6f7e6" stroke="#cccccc" stroke-width="0.5" />
<text x="793.6406512406513" y="339.999675999676" font-size="10" font-family="Consolas, monospace" fill="#000000" text-anchor="middle" dominant-baseline="central">State_02_C</text>
<rect x="834.6406512406513" y="331.999675999676" width="86.0" height="14" fill="#ffe6e6" stroke="#cccccc" stroke-width="0.5" />
<text x="877.6406512406513" y="339.999675999676" font-size="10" font-family="Consolas, monospace" fill="#000000" text-anchor="middle" dominant-baseline="central">CNF</text>
<path d="M753.6406512406513,345.999675999676 L920.6406512406513,345.999675999676" stroke="#cccccc" stroke-width="0.5" />
<rect x="753.6406512406513" y="345.999675999676" width="80" height="14" fill="#e6f7e6" stroke="#cccccc" stroke-width="0.5" />
<text x="793.6406512406513" y="353.999675999676" font-size="10" font-family="Consolas, monospace" fill="#000000" text-anchor="middle" dominant-baseline="central">State_02_E</text>
<rect x="834.6406512406513" y="345.999675999676" width="86.0" height="14" fill="#ffe6e6" stroke="#cccccc" stroke-width="0.5" />
<text x="877.6406512406513" y="353.999675999676" font-size="10" font-family="Consolas, monospace" fill="#000000" text-anchor="middle" dominant-baseline="central">DO_S2.E1</text>
<path d="M753.6406512406513,359.999675999676 L920.6406512406513,359.999675999676" stroke="#cccccc" stroke-width="0.5" />
<rect x="753.6406512406513" y="359.999675999676" width="80" height="14" fill="#e6f7e6" stroke="#cccccc" stroke-width="0.5" />
<text x="793.6406512406513" y="367.999675999676" font-size="10" font-family="Consolas, monospace" fill="#000000" text-anchor="middle" dominant-baseline="central"></text>
<rect x="834.6406512406513" y="359.999675999676" width="86.0" height="14" fill="#ffe6e6" stroke="#cccccc" stroke-width="0.5" />
<text x="877.6406512406513" y="367.999675999676" font-size="10" font-family="Consolas, monospace" fill="#000000" text-anchor="middle" dominant-baseline="central">timeOut.START</text>
<rect x="658.8406512406514" y="422.00032400032404" width="84.8" height="32" fill="#f5f5f5" stroke="#000000" stroke-width="2" rx="8" ry="8" />
<text x="701.2406512406513" y="438.00032400032404" font-size="12" fontWeight="bold" font-family="Verdana, sans-serif" fill="#000000" text-anchor="middle" dominant-baseline="central">sState_03</text>
<rect x="753.6406512406513" y="422.00032400032404" width="167.0" height="64" fill="#ffffff" stroke="#cccccc" stroke-width="1" rx="4" ry="4" />
<path d="M743.6406512406513,438.00032400032404 L753.6406512406513,433.00032400032404" stroke="#000000" stroke-width="2" />
<path d="M833.6406512406513,422.00032400032404 L833.6406512406513,486.00032400032404" stroke="#cccccc" stroke-width="1" />
<rect x="753.6406512406513" y="426.00032400032404" width="80" height="14" fill="#e6f7e6" stroke="#cccccc" stroke-width="0.5" />
<text x="793.6406512406513" y="434.00032400032404" font-size="10" font-family="Consolas, monospace" fill="#000000" text-anchor="middle" dominant-baseline="central">State_02_X</text>
<rect x="834.6406512406513" y="426.00032400032404" width="86.0" height="14" fill="#ffe6e6" stroke="#cccccc" stroke-width="0.5" />
<text x="877.6406512406513" y="434.00032400032404" font-size="10" font-family="Consolas, monospace" fill="#000000" text-anchor="middle" dominant-baseline="central">DO_S2.E1</text>
<path d="M753.6406512406513,440.00032400032404 L920.6406512406513,440.00032400032404" stroke="#cccccc" stroke-width="0.5" />
<rect x="753.6406512406513" y="440.00032400032404" width="80" height="14" fill="#e6f7e6" stroke="#cccccc" stroke-width="0.5" />
<text x="793.6406512406513" y="448.00032400032404" font-size="10" font-family="Consolas, monospace" fill="#000000" text-anchor="middle" dominant-baseline="central">State_03_C</text>
<rect x="834.6406512406513" y="440.00032400032404" width="86.0" height="14" fill="#ffe6e6" stroke="#cccccc" stroke-width="0.5" />
<text x="877.6406512406513" y="448.00032400032404" font-size="10" font-family="Consolas, monospace" fill="#000000" text-anchor="middle" dominant-baseline="central">CNF</text>
<path d="M753.6406512406513,454.00032400032404 L920.6406512406513,454.00032400032404" stroke="#cccccc" stroke-width="0.5" />
<rect x="753.6406512406513" y="454.00032400032404" width="80" height="14" fill="#e6f7e6" stroke="#cccccc" stroke-width="0.5" />
<text x="793.6406512406513" y="462.00032400032404" font-size="10" font-family="Consolas, monospace" fill="#000000" text-anchor="middle" dominant-baseline="central">State_03_E</text>
<rect x="834.6406512406513" y="454.00032400032404" width="86.0" height="14" fill="#ffe6e6" stroke="#cccccc" stroke-width="0.5" />
<text x="877.6406512406513" y="462.00032400032404" font-size="10" font-family="Consolas, monospace" fill="#000000" text-anchor="middle" dominant-baseline="central">DO_S3.E1</text>
<path d="M753.6406512406513,468.00032400032404 L920.6406512406513,468.00032400032404" stroke="#cccccc" stroke-width="0.5" />
<rect x="753.6406512406513" y="468.00032400032404" width="80" height="14" fill="#e6f7e6" stroke="#cccccc" stroke-width="0.5" />
<text x="793.6406512406513" y="476.00032400032404" font-size="10" font-family="Consolas, monospace" fill="#000000" text-anchor="middle" dominant-baseline="central"></text>
<rect x="834.6406512406513" y="468.00032400032404" width="86.0" height="14" fill="#ffe6e6" stroke="#cccccc" stroke-width="0.5" />
<text x="877.6406512406513" y="476.00032400032404" font-size="10" font-family="Consolas, monospace" fill="#000000" text-anchor="middle" dominant-baseline="central">timeOut.START</text>
<rect x="658.8406512406514" y="529.999351999352" width="84.8" height="32" fill="#f5f5f5" stroke="#000000" stroke-width="2" rx="8" ry="8" />
<text x="701.2406512406513" y="545.999351999352" font-size="12" fontWeight="bold" font-family="Verdana, sans-serif" fill="#000000" text-anchor="middle" dominant-baseline="central">sState_04</text>
<rect x="753.6406512406513" y="529.999351999352" width="167.0" height="64" fill="#ffffff" stroke="#cccccc" stroke-width="1" rx="4" ry="4" />
<path d="M743.6406512406513,545.999351999352 L753.6406512406513,540.999351999352" stroke="#000000" stroke-width="2" />
<path d="M833.6406512406513,529.999351999352 L833.6406512406513,593.999351999352" stroke="#cccccc" stroke-width="1" />
<rect x="753.6406512406513" y="533.999351999352" width="80" height="14" fill="#e6f7e6" stroke="#cccccc" stroke-width="0.5" />
<text x="793.6406512406513" y="541.999351999352" font-size="10" font-family="Consolas, monospace" fill="#000000" text-anchor="middle" dominant-baseline="central">State_03_X</text>
<rect x="834.6406512406513" y="533.999351999352" width="86.0" height="14" fill="#ffe6e6" stroke="#cccccc" stroke-width="0.5" />
<text x="877.6406512406513" y="541.999351999352" font-size="10" font-family="Consolas, monospace" fill="#000000" text-anchor="middle" dominant-baseline="central">DO_S3.E1</text>
<path d="M753.6406512406513,547.999351999352 L920.6406512406513,547.999351999352" stroke="#cccccc" stroke-width="0.5" />
<rect x="753.6406512406513" y="547.999351999352" width="80" height="14" fill="#e6f7e6" stroke="#cccccc" stroke-width="0.5" />
<text x="793.6406512406513" y="555.999351999352" font-size="10" font-family="Consolas, monospace" fill="#000000" text-anchor="middle" dominant-baseline="central">State_04_C</text>
<rect x="834.6406512406513" y="547.999351999352" width="86.0" height="14" fill="#ffe6e6" stroke="#cccccc" stroke-width="0.5" />
<text x="877.6406512406513" y="555.999351999352" font-size="10" font-family="Consolas, monospace" fill="#000000" text-anchor="middle" dominant-baseline="central">CNF</text>
<path d="M753.6406512406513,561.999351999352 L920.6406512406513,561.999351999352" stroke="#cccccc" stroke-width="0.5" />
<rect x="753.6406512406513" y="561.999351999352" width="80" height="14" fill="#e6f7e6" stroke="#cccccc" stroke-width="0.5" />
<text x="793.6406512406513" y="569.999351999352" font-size="10" font-family="Consolas, monospace" fill="#000000" text-anchor="middle" dominant-baseline="central">State_04_E</text>
<rect x="834.6406512406513" y="561.999351999352" width="86.0" height="14" fill="#ffe6e6" stroke="#cccccc" stroke-width="0.5" />
<text x="877.6406512406513" y="569.999351999352" font-size="10" font-family="Consolas, monospace" fill="#000000" text-anchor="middle" dominant-baseline="central">DO_S4.E1</text>
<path d="M753.6406512406513,575.999351999352 L920.6406512406513,575.999351999352" stroke="#cccccc" stroke-width="0.5" />
<rect x="753.6406512406513" y="575.999351999352" width="80" height="14" fill="#e6f7e6" stroke="#cccccc" stroke-width="0.5" />
<text x="793.6406512406513" y="583.999351999352" font-size="10" font-family="Consolas, monospace" fill="#000000" text-anchor="middle" dominant-baseline="central"></text>
<rect x="834.6406512406513" y="575.999351999352" width="86.0" height="14" fill="#ffe6e6" stroke="#cccccc" stroke-width="0.5" />
<text x="877.6406512406513" y="583.999351999352" font-size="10" font-family="Consolas, monospace" fill="#000000" text-anchor="middle" dominant-baseline="central">timeOut.START</text>
<rect x="658.8406512406514" y="638.0" width="84.8" height="32" fill="#f5f5f5" stroke="#000000" stroke-width="2" rx="8" ry="8" />
<text x="701.2406512406513" y="654.0" font-size="12" fontWeight="bold" font-family="Verdana, sans-serif" fill="#000000" text-anchor="middle" dominant-baseline="central">sState_05</text>
<rect x="753.6406512406513" y="638.0" width="167.0" height="64" fill="#ffffff" stroke="#cccccc" stroke-width="1" rx="4" ry="4" />
<path d="M743.6406512406513,654.0 L753.6406512406513,649.0" stroke="#000000" stroke-width="2" />
<path d="M833.6406512406513,638.0 L833.6406512406513,702.0" stroke="#cccccc" stroke-width="1" />
<rect x="753.6406512406513" y="642.0" width="80" height="14" fill="#e6f7e6" stroke="#cccccc" stroke-width="0.5" />
<text x="793.6406512406513" y="650.0" font-size="10" font-family="Consolas, monospace" fill="#000000" text-anchor="middle" dominant-baseline="central">State_04_X</text>
<rect x="834.6406512406513" y="642.0" width="86.0" height="14" fill="#ffe6e6" stroke="#cccccc" stroke-width="0.5" />
<text x="877.6406512406513" y="650.0" font-size="10" font-family="Consolas, monospace" fill="#000000" text-anchor="middle" dominant-baseline="central">DO_S4.E1</text>
<path d="M753.6406512406513,656.0 L920.6406512406513,656.0" stroke="#cccccc" stroke-width="0.5" />
<rect x="753.6406512406513" y="656.0" width="80" height="14" fill="#e6f7e6" stroke="#cccccc" stroke-width="0.5" />
<text x="793.6406512406513" y="664.0" font-size="10" font-family="Consolas, monospace" fill="#000000" text-anchor="middle" dominant-baseline="central">State_05_C</text>
<rect x="834.6406512406513" y="656.0" width="86.0" height="14" fill="#ffe6e6" stroke="#cccccc" stroke-width="0.5" />
<text x="877.6406512406513" y="664.0" font-size="10" font-family="Consolas, monospace" fill="#000000" text-anchor="middle" dominant-baseline="central">CNF</text>
<path d="M753.6406512406513,670.0 L920.6406512406513,670.0" stroke="#cccccc" stroke-width="0.5" />
<rect x="753.6406512406513" y="670.0" width="80" height="14" fill="#e6f7e6" stroke="#cccccc" stroke-width="0.5" />
<text x="793.6406512406513" y="678.0" font-size="10" font-family="Consolas, monospace" fill="#000000" text-anchor="middle" dominant-baseline="central">State_05_E</text>
<rect x="834.6406512406513" y="670.0" width="86.0" height="14" fill="#ffe6e6" stroke="#cccccc" stroke-width="0.5" />
<text x="877.6406512406513" y="678.0" font-size="10" font-family="Consolas, monospace" fill="#000000" text-anchor="middle" dominant-baseline="central">DO_S5.E1</text>
<path d="M753.6406512406513,684.0 L920.6406512406513,684.0" stroke="#cccccc" stroke-width="0.5" />
<rect x="753.6406512406513" y="684.0" width="80" height="14" fill="#e6f7e6" stroke="#cccccc" stroke-width="0.5" />
<text x="793.6406512406513" y="692.0" font-size="10" font-family="Consolas, monospace" fill="#000000" text-anchor="middle" dominant-baseline="central"></text>
<rect x="834.6406512406513" y="684.0" width="86.0" height="14" fill="#ffe6e6" stroke="#cccccc" stroke-width="0.5" />
<text x="877.6406512406513" y="692.0" font-size="10" font-family="Consolas, monospace" fill="#000000" text-anchor="middle" dominant-baseline="central">timeOut.START</text>
<path d="M701.2406512406513,237.999027999028 C701.2406512406513,253.1991575991576,701.2406512406513,298.7995463995464,701.2406512406513,313.999675999676" stroke="#404040" stroke-width="1.2" fill="none" />
<path d="M701.2406512406513,313.999675999676 L697.2406512406513,307.0714727694005 L705.2406512406513,307.0714727694005 L701.2406512406513,313.999675999676" fill="#404040" stroke="#404040" stroke-width="1" />
<g transform="translate(701.2406512406513,275.999351999352)">
<rect x="-52.75" y="-7.5" width="105.5" height="15" fill="#ffffff" opacity="0.9" rx="3" ry="3" />
<text x="0" y="3.5" font-size="10" font-family="Consolas, monospace" fill="#000000" text-anchor="middle" dominant-baseline="central">timeOut.TimeOut</text>
</g>
<path d="M701.2406512406513,345.999675999676 C701.2406512406513,361.19980559980564,701.2406512406513,406.8001944001944,701.2406512406513,422.00032400032404" stroke="#404040" stroke-width="1.2" fill="none" />
<path d="M701.2406512406513,422.00032400032404 L697.2406512406513,415.0721207700485 L705.2406512406513,415.0721207700485 L701.2406512406513,422.00032400032404" fill="#404040" stroke="#404040" stroke-width="1" />
<g transform="translate(701.2406512406513,384.0)">
<rect x="-52.75" y="-7.5" width="105.5" height="15" fill="#ffffff" opacity="0.9" rx="3" ry="3" />
<text x="0" y="3.5" font-size="10" font-family="Consolas, monospace" fill="#000000" text-anchor="middle" dominant-baseline="central">timeOut.TimeOut</text>
</g>
<path d="M701.2406512406513,454.00032400032404 C701.2406512406513,469.2001296001296,701.2406512406513,514.7995463995464,701.2406512406513,529.999351999352" stroke="#404040" stroke-width="1.2" fill="none" />
<path d="M701.2406512406513,529.999351999352 L697.2406512406513,523.0711487690766 L705.2406512406513,523.0711487690766 L701.2406512406513,529.999351999352" fill="#404040" stroke="#404040" stroke-width="1" />
<g transform="translate(701.2406512406513,491.99983799983806)">
<rect x="-52.75" y="-7.5" width="105.5" height="15" fill="#ffffff" opacity="0.9" rx="3" ry="3" />
<text x="0" y="3.5" font-size="10" font-family="Consolas, monospace" fill="#000000" text-anchor="middle" dominant-baseline="central">timeOut.TimeOut</text>
</g>
<path d="M309.2396792396793,114.0 C467.3812960886078,114.0,693.7406512406513,47.85741115009944,693.7406512406513,205.999027999028" stroke="#404040" stroke-width="1.2" fill="none" />
<path d="M693.7406512406513,205.999027999028 L689.7406512406513,199.0708247687525 L697.7406512406513,199.0708247687525 L693.7406512406513,205.999027999028" fill="#404040" stroke="#404040" stroke-width="1" />
<g transform="translate(560.7932715585135,100.6964076811658)">
<rect x="-30.0" y="-7.5" width="60.0" height="15" fill="#ffffff" opacity="0.9" rx="3" ry="3" />
<text x="0" y="3.5" font-size="10" font-family="Consolas, monospace" fill="#000000" text-anchor="middle" dominant-baseline="central">START_S1</text>
</g>
<path d="M658.8406512406514,221.999027999028 C414.47120339165735,221.999027999028,131.23903123903125,285.629904150358,131.23903123903125,529.999351999352" stroke="#404040" stroke-width="1.2" fill="none" />
<path d="M131.23903123903125,529.999351999352 L127.23903123903125,523.0711487690766 L135.23903123903125,523.0711487690766 L131.23903123903125,529.999351999352" fill="#404040" stroke="#404040" stroke-width="1" />
<g transform="translate(303.40129829646855,284.36064705581725)">
<rect x="-20.25" y="-7.5" width="40.5" height="15" fill="#ffffff" opacity="0.9" rx="3" ry="3" />
<text x="0" y="3.5" font-size="10" font-family="Consolas, monospace" fill="#000000" text-anchor="middle" dominant-baseline="central">RESET</text>
</g>
<path d="M658.8406512406514,329.999675999676 C438.7460202372538,329.999675999676,146.23903123903125,309.90472099595445,146.23903123903125,529.999351999352" stroke="#404040" stroke-width="1.2" fill="none" />
<path d="M146.23903123903125,529.999351999352 L142.23903123903125,523.0711487690766 L150.23903123903125,523.0711487690766 L146.23903123903125,529.999351999352" fill="#404040" stroke="#404040" stroke-width="1" />
<g transform="translate(320.0043546135672,347.4640273732399)">
<rect x="-20.25" y="-7.5" width="40.5" height="15" fill="#ffffff" opacity="0.9" rx="3" ry="3" />
<text x="0" y="3.5" font-size="10" font-family="Consolas, monospace" fill="#000000" text-anchor="middle" dominant-baseline="central">RESET</text>
</g>
<path d="M658.8406512406514,438.00032400032404 C456.42674129135855,438.00032400032404,161.23903123903125,327.5854420500592,161.23903123903125,529.999351999352" stroke="#404040" stroke-width="1.2" fill="none" />
<path d="M161.23903123903125,529.999351999352 L157.23903123903125,523.0711487690766 L165.23903123903125,523.0711487690766 L161.23903123903125,529.999351999352" fill="#404040" stroke="#404040" stroke-width="1" />
<g transform="translate(334.13462500885646,408.09462176885324)">
<rect x="-20.25" y="-7.5" width="40.5" height="15" fill="#ffffff" opacity="0.9" rx="3" ry="3" />
<text x="0" y="3.5" font-size="10" font-family="Consolas, monospace" fill="#000000" text-anchor="middle" dominant-baseline="central">RESET</text>
</g>
<path d="M701.2406512406513,561.999351999352 C701.2406512406513,577.1994815994816,701.2406512406513,622.7998703998704,701.2406512406513,638.0" stroke="#404040" stroke-width="1.2" fill="none" />
<path d="M701.2406512406513,638.0 L697.2406512406513,631.0717967697245 L705.2406512406513,631.0717967697245 L701.2406512406513,638.0" fill="#404040" stroke="#404040" stroke-width="1" />
<g transform="translate(701.2406512406513,599.999675999676)">
<rect x="-52.75" y="-7.5" width="105.5" height="15" fill="#ffffff" opacity="0.9" rx="3" ry="3" />
<text x="0" y="3.5" font-size="10" font-family="Consolas, monospace" fill="#000000" text-anchor="middle" dominant-baseline="central">timeOut.TimeOut</text>
</g>
<path d="M658.8406512406514,545.999351999352 C618.8406512406514,545.999351999352,176.23903123903125,489.99935199935203,176.23903123903125,529.999351999352" stroke="#404040" stroke-width="1.2" fill="none" />
<path d="M176.23903123903125,529.999351999352 L172.23903123903125,523.0711487690766 L180.23903123903125,523.0711487690766 L176.23903123903125,529.999351999352" fill="#404040" stroke="#404040" stroke-width="1" />
<g transform="translate(402.53984123984134,522.999351999352)">
<rect x="-20.25" y="-7.5" width="40.5" height="15" fill="#ffffff" opacity="0.9" rx="3" ry="3" />
<text x="0" y="3.5" font-size="10" font-family="Consolas, monospace" fill="#000000" text-anchor="middle" dominant-baseline="central">RESET</text>
</g>
<path d="M701.2406512406513,638.0 C841.2406512406513,598.0,848.7406512406513,277.999027999028,708.7406512406513,237.999027999028" stroke="#404040" stroke-width="1.2" fill="none" />
<path d="M708.7406512406513,237.999027999028 L716.5011690722732,236.05625601418825 L714.3034000490942,243.74844759531481 L708.7406512406513,237.999027999028" fill="#404040" stroke="#404040" stroke-width="1" />
<g transform="translate(809.9906512406513,437.99951399951397)">
<rect x="-52.75" y="-7.5" width="105.5" height="15" fill="#ffffff" opacity="0.9" rx="3" ry="3" />
<text x="0" y="3.5" font-size="10" font-family="Consolas, monospace" fill="#000000" text-anchor="middle" dominant-baseline="central">timeOut.TimeOut</text>
</g>
<path d="M658.8406512406514,654.0 C468.21414972077196,654.0,191.23903123903125,752.6258535192314,191.23903123903125,561.999351999352" stroke="#404040" stroke-width="1.2" fill="none" />
<path d="M191.23903123903125,561.999351999352 L195.23903123903125,568.9275552296275 L187.23903123903125,568.9275552296275 L191.23903123903125,561.999351999352" fill="#404040" stroke="#404040" stroke-width="1" />
<g transform="translate(353.5549031698866,679.4846140696308)">
<rect x="-20.25" y="-7.5" width="40.5" height="15" fill="#ffffff" opacity="0.9" rx="3" ry="3" />
<text x="0" y="3.5" font-size="10" font-family="Consolas, monospace" fill="#000000" text-anchor="middle" dominant-baseline="central">RESET</text>
</g>
<path d="M201.23903123903125,545.999351999352 C369.8472393392961,545.999351999352,269.2396792396793,337.999675999676,269.2396792396793,130.0" stroke="#404040" stroke-width="1.2" fill="none" />
<path d="M269.2396792396793,130.0 L273.2396792396793,136.9282032302755 L265.2396792396793,136.9282032302755 L269.2396792396793,130.0" fill="#404040" stroke="#404040" stroke-width="1" />
<g transform="translate(298.4674332769546,415.9995544995545)">
<rect x="-7.25" y="-7.5" width="14.5" height="15" fill="#ffffff" opacity="0.9" rx="3" ry="3" />
<text x="0" y="3.5" font-size="10" font-family="Consolas, monospace" fill="#000000" text-anchor="middle" dominant-baseline="central">1</text>
</g>
</svg>