<?xml version="1.0" encoding="UTF-8"?>
<svg xmlns="http://www.w3.org/2000/svg" xmlns:xlink="http://www.w3.org/1999/xlink"
     width="1080" height="639" viewBox="-548 -20 1080 639">
<defs>
</defs>
<rect x="3" y="3" width="170" height="589" fill="#000000" fill-opacity="0.1" rx="2" ry="2" />
<path d="M0,0 H170 V274 H164 V314 H170 V589 H0 V314 H6 V274 H0 Z" fill="#ffffff" stroke="#000000" stroke-width="2" />
<path d="M0,30 L170,30" stroke="#000000" stroke-width="1" />
<text x="85.0" y="292.0" font-size="14" fontWeight="bold" font-family="Verdana, sans-serif" font-style="italic" text-anchor="middle" dominant-baseline="central">sequence_T_08</text>
<text x="85.0" y="306.0" font-size="10" fill="#000" font-family="Consolas, monospace" text-anchor="middle" dominant-baseline="central">1.0</text>
<path d="M-5,37 L-5,47 L0,42 Z" fill="#63B31F" stroke="none" />
<text x="12" y="46" font-size="12" text-anchor="start" font-family="Consolas, monospace">START_S1</text>
<text x="-23" y="45" font-size="11" text-anchor="end" fill="#888" font-style="italic" font-family="Verdana, sans-serif">Event</text>
<text x="-93" y="45" font-size="11" text-anchor="end" fill="#666666" font-family="Verdana, sans-serif">jump from START to State_01</text>
<path d="M-5,63 L-5,73 L0,68 Z" fill="#63B31F" stroke="none" />
<text x="12" y="72" font-size="12" text-anchor="start" font-family="Consolas, monospace">RESET</text>
<text x="-23" y="71" font-size="11" text-anchor="end" fill="#888" font-style="italic" font-family="Verdana, sans-serif">Event</text>
<text x="-93" y="71" font-size="11" text-anchor="end" fill="#666666" font-family="Verdana, sans-serif">Reset from any State to START</text>
<path d="M-5,326 L-5,336 L0,331 Z" fill="#0000FF" stroke="none" />
<text x="12" y="335" font-size="12" text-anchor="start" font-family="Consolas, monospace">DT_S1_S2</text>
<text x="-23" y="334" font-size="11" text-anchor="end" fill="#0000FF" font-style="italic" font-family="Verdana, sans-serif">TIME</text>
<text x="-93" y="334" font-size="11" text-anchor="end" fill="#666666" font-family="Verdana, sans-serif">State_01 to State_02 timed</text>
<path d="M-5,352 L-5,362 L0,357 Z" fill="#0000FF" stroke="none" />
<text x="12" y="361" font-size="12" text-anchor="start" font-family="Consolas, monospace">DT_S2_S3</text>
<text x="-23" y="360" font-size="11" text-anchor="end" fill="#0000FF" font-style="italic" font-family="Verdana, sans-serif">TIME</text>
<text x="-93" y="360" font-size="11" text-anchor="end" fill="#666666" font-family="Verdana, sans-serif">State_02 to State_03 timed</text>
<path d="M-5,378 L-5,388 L0,383 Z" fill="#0000FF" stroke="none" />
<text x="12" y="387" font-size="12" text-anchor="start" font-family="Consolas, monospace">DT_S3_S4</text>
<text x="-23" y="386" font-size="11" text-anchor="end" fill="#0000FF" font-style="italic" font-family="Verdana, sans-serif">TIME</text>
<text x="-93" y="386" font-size="11" text-anchor="end" fill="#666666" font-family="Verdana, sans-serif">State_03 to State_04 timed</text>
<path d="M-5,404 L-5,414 L0,409 Z" fill="#0000FF" stroke="none" />
<text x="12" y="413" font-size="12" text-anchor="start" font-family="Consolas, monospace">DT_S4_S5</text>
<text x="-23" y="412" font-size="11" text-anchor="end" fill="#0000FF" font-style="italic" font-family="Verdana, sans-serif">TIME</text>
<text x="-93" y="412" font-size="11" text-anchor="end" fill="#666666" font-family="Verdana, sans-serif">State_04 to State_05 timed</text>
<path d="M-5,430 L-5,440 L0,435 Z" fill="#0000FF" stroke="none" />
<text x="12" y="439" font-size="12" text-anchor="start" font-family="Consolas, monospace">DT_S5_S6</text>
<text x="-23" y="438" font-size="11" text-anchor="end" fill="#0000FF" font-style="italic" font-family="Verdana, sans-serif">TIME</text>
<text x="-93" y="438" font-size="11" text-anchor="end" fill="#666666" font-family="Verdana, sans-serif">State_05 to State_06 timed</text>
<path d="M-5,456 L-5,466 L0,461 Z" fill="#0000FF" stroke="none" />
<text x="12" y="465" font-size="12" text-anchor="start" font-family="Consolas, monospace">DT_S6_S7</text>
<text x="-23" y="464" font-size="11" text-anchor="end" fill="#0000FF" font-style="italic" font-family="Verdana, sans-serif">TIME</text>
<text x="-93" y="464" font-size="11" text-anchor="end" fill="#666666" font-family="Verdana, sans-serif">State_06 to State_07 timed</text>
<path d="M-5,482 L-5,492 L0,487 Z" fill="#0000FF" stroke="none" />
<text x="12" y="491" font-size="12" text-anchor="start" font-family="Consolas, monospace">DT_S7_S8</text>
<text x="-23" y="490" font-size="11" text-anchor="end" fill="#0000FF" font-style="italic" font-family="Verdana, sans-serif">TIME</text>
<text x="-93" y="490" font-size="11" text-anchor="end" fill="#666666" font-family="Verdana, sans-serif">State_07 to State_08 timed</text>
<path d="M-5,508 L-5,518 L0,513 Z" fill="#0000FF" stroke="none" />
<text x="12" y="517" font-size="12" text-anchor="start" font-family="Consolas, monospace">DT_S8_START</text>
<text x="-23" y="516" font-size="11" text-anchor="end" fill="#0000FF" font-style="italic" font-family="Verdana, sans-serif">TIME</text>
<text x="-93" y="516" font-size="11" text-anchor="end" fill="#666666" font-family="Verdana, sans-serif">State_08 to START timed</text>
<path d="M170,37 L170,47 L175,42 Z" fill="#63B31F" stroke="none" />
<text x="158" y="46" font-size="12" text-anchor="end" font-family="Consolas, monospace">CNF</text>
<text x="257" y="45" font-size="11" text-anchor="start" fill="#888" font-style="italic" font-family="Verdana, sans-serif">Event</text>
<text x="327" y="45" font-size="11" text-anchor="start" fill="#666666" font-family="Verdana, sans-serif">Execution Confirmation</text>
<path d="M170,63 L170,73 L175,68 Z" fill="#63B31F" stroke="none" />
<text x="158" y="72" font-size="12" text-anchor="end" font-family="Consolas, monospace">EO_S1</text>
<text x="257" y="71" font-size="11" text-anchor="start" fill="#888" font-style="italic" font-family="Verdana, sans-serif">Event</text>
<path d="M170,89 L170,99 L175,94 Z" fill="#63B31F" stroke="none" />
<text x="158" y="98" font-size="12" text-anchor="end" font-family="Consolas, monospace">EO_S2</text>
<text x="257" y="97" font-size="11" text-anchor="start" fill="#888" font-style="italic" font-family="Verdana, sans-serif">Event</text>
<path d="M170,115 L170,125 L175,120 Z" fill="#63B31F" stroke="none" />
<text x="158" y="124" font-size="12" text-anchor="end" font-family="Consolas, monospace">EO_S3</text>
<text x="257" y="123" font-size="11" text-anchor="start" fill="#888" font-style="italic" font-family="Verdana, sans-serif">Event</text>
<path d="M170,141 L170,151 L175,146 Z" fill="#63B31F" stroke="none" />
<text x="158" y="150" font-size="12" text-anchor="end" font-family="Consolas, monospace">EO_S4</text>
<text x="257" y="149" font-size="11" text-anchor="start" fill="#888" font-style="italic" font-family="Verdana, sans-serif">Event</text>
<path d="M170,167 L170,177 L175,172 Z" fill="#63B31F" stroke="none" />
<text x="158" y="176" font-size="12" text-anchor="end" font-family="Consolas, monospace">EO_S5</text>
<text x="257" y="175" font-size="11" text-anchor="start" fill="#888" font-style="italic" font-family="Verdana, sans-serif">Event</text>
<path d="M170,193 L170,203 L175,198 Z" fill="#63B31F" stroke="none" />
<text x="158" y="202" font-size="12" text-anchor="end" font-family="Consolas, monospace">EO_S6</text>
<text x="257" y="201" font-size="11" text-anchor="start" fill="#888" font-style="italic" font-family="Verdana, sans-serif">Event</text>
<path d="M170,219 L170,229 L175,224 Z" fill="#63B31F" stroke="none" />
<text x="158" y="228" font-size="12" text-anchor="end" font-family="Consolas, monospace">EO_S7</text>
<text x="257" y="227" font-size="11" text-anchor="start" fill="#888" font-style="italic" font-family="Verdana, sans-serif">Event</text>
<path d="M170,245 L170,255 L175,250 Z" fill="#63B31F" stroke="none" />
<text x="158" y="254" font-size="12" text-anchor="end" font-family="Consolas, monospace">EO_S8</text>
<text x="257" y="253" font-size="11" text-anchor="start" fill="#888" font-style="italic" font-family="Verdana, sans-serif">Event</text>
<rect x="165.0" y="326.0" width="10" height="10" fill="#845DAF" stroke="none" />
<text x="158" y="335" font-size="12" text-anchor="end" font-family="Consolas, monospace">timeOut</text>
<text x="257" y="334" font-size="11" text-anchor="start" fill="#000" font-style="italic" font-family="Verdana, sans-serif">ATimeOut</text>
<text x="327" y="334" font-size="11" text-anchor="start" fill="#666666" font-family="Verdana, sans-serif">timeOut Adapter</text>
<path d="M170,352 L170,362 L175,357 Z" fill="#18519E" stroke="none" />
<text x="158" y="361" font-size="12" text-anchor="end" font-family="Consolas, monospace">STATE_NR</text>
<text x="257" y="360" font-size="11" text-anchor="start" fill="#18519E" font-style="italic" font-family="Verdana, sans-serif">SINT</text>
<text x="327" y="360" font-size="11" text-anchor="start" fill="#666666" font-family="Verdana, sans-serif">State Number, START = 0, State_01 = 1 and so on. </text>
<path d="M170,378 L170,388 L175,383 Z" fill="#9FA48A" stroke="none" />
<text x="158" y="387" font-size="12" text-anchor="end" font-family="Consolas, monospace">DO_S1</text>
<text x="257" y="386" font-size="11" text-anchor="start" fill="#9FA48A" font-style="italic" font-family="Verdana, sans-serif">BOOL</text>
<text x="327" y="386" font-size="11" text-anchor="start" fill="#666666" font-family="Verdana, sans-serif">Output if State_01 is active</text>
<path d="M170,404 L170,414 L175,409 Z" fill="#9FA48A" stroke="none" />
<text x="158" y="413" font-size="12" text-anchor="end" font-family="Consolas, monospace">DO_S2</text>
<text x="257" y="412" font-size="11" text-anchor="start" fill="#9FA48A" font-style="italic" font-family="Verdana, sans-serif">BOOL</text>
<text x="327" y="412" font-size="11" text-anchor="start" fill="#666666" font-family="Verdana, sans-serif">Output if State_02 is active</text>
<path d="M170,430 L170,440 L175,435 Z" fill="#9FA48A" stroke="none" />
<text x="158" y="439" font-size="12" text-anchor="end" font-family="Consolas, monospace">DO_S3</text>
<text x="257" y="438" font-size="11" text-anchor="start" fill="#9FA48A" font-style="italic" font-family="Verdana, sans-serif">BOOL</text>
<text x="327" y="438" font-size="11" text-anchor="start" fill="#666666" font-family="Verdana, sans-serif">Output if State_03 is active</text>
<path d="M170,456 L170,466 L175,461 Z" fill="#9FA48A" stroke="none" />
<text x="158" y="465" font-size="12" text-anchor="end" font-family="Consolas, monospace">DO_S4</text>
<text x="257" y="464" font-size="11" text-anchor="start" fill="#9FA48A" font-style="italic" font-family="Verdana, sans-serif">BOOL</text>
<text x="327" y="464" font-size="11" text-anchor="start" fill="#666666" font-family="Verdana, sans-serif">Output if State_04 is active</text>
<path d="M170,482 L170,492 L175,487 Z" fill="#9FA48A" stroke="none" />
<text x="158" y="491" font-size="12" text-anchor="end" font-family="Consolas, monospace">DO_S5</text>
<text x="257" y="490" font-size="11" text-anchor="start" fill="#9FA48A" font-style="italic" font-family="Verdana, sans-serif">BOOL</text>
<text x="327" y="490" font-size="11" text-anchor="start" fill="#666666" font-family="Verdana, sans-serif">Output if State_05 is active</text>
<path d="M170,508 L170,518 L175,513 Z" fill="#9FA48A" stroke="none" />
<text x="158" y="517" font-size="12" text-anchor="end" font-family="Consolas, monospace">DO_S6</text>
<text x="257" y="516" font-size="11" text-anchor="start" fill="#9FA48A" font-style="italic" font-family="Verdana, sans-serif">BOOL</text>
<text x="327" y="516" font-size="11" text-anchor="start" fill="#666666" font-family="Verdana, sans-serif">Output if State_05 is active</text>
<path d="M170,534 L170,544 L175,539 Z" fill="#9FA48A" stroke="none" />
<text x="158" y="543" font-size="12" text-anchor="end" font-family="Consolas, monospace">DO_S7</text>
<text x="257" y="542" font-size="11" text-anchor="start" fill="#9FA48A" font-style="italic" font-family="Verdana, sans-serif">BOOL</text>
<text x="327" y="542" font-size="11" text-anchor="start" fill="#666666" font-family="Verdana, sans-serif">Output if State_05 is active</text>
<path d="M170,560 L170,570 L175,565 Z" fill="#9FA48A" stroke="none" />
<text x="158" y="569" font-size="12" text-anchor="end" font-family="Consolas, monospace">DO_S8</text>
<text x="257" y="568" font-size="11" text-anchor="start" fill="#9FA48A" font-style="italic" font-family="Verdana, sans-serif">BOOL</text>
<text x="327" y="568" font-size="11" text-anchor="start" fill="#666666" font-family="Verdana, sans-serif">Output if State_05 is active</text>
<path d="M-12,42 L-12,513" stroke="#404040" stroke-width="1" />
<path d="M0,42 L-12,42" stroke="#404040" />
<rect x="-14" y="40" width="4" height="4" fill="white" stroke="black" stroke-width="1" />
<path d="M-12,331 L-5,331" stroke="#404040" />
<rect x="-14" y="329" width="4" height="4" fill="white" stroke="black" stroke-width="1" />
<path d="M-12,357 L-5,357" stroke="#404040" />
<rect x="-14" y="355" width="4" height="4" fill="white" stroke="black" stroke-width="1" />
<path d="M-12,383 L-5,383" stroke="#404040" />
<rect x="-14" y="381" width="4" height="4" fill="white" stroke="black" stroke-width="1" />
<path d="M-12,409 L-5,409" stroke="#404040" />
<rect x="-14" y="407" width="4" height="4" fill="white" stroke="black" stroke-width="1" />
<path d="M-12,435 L-5,435" stroke="#404040" />
<rect x="-14" y="433" width="4" height="4" fill="white" stroke="black" stroke-width="1" />
<path d="M-12,461 L-5,461" stroke="#404040" />
<rect x="-14" y="459" width="4" height="4" fill="white" stroke="black" stroke-width="1" />
<path d="M-12,487 L-5,487" stroke="#404040" />
<rect x="-14" y="485" width="4" height="4" fill="white" stroke="black" stroke-width="1" />
<path d="M-12,513 L-5,513" stroke="#404040" />
<rect x="-14" y="511" width="4" height="4" fill="white" stroke="black" stroke-width="1" />
<path d="M182,42 L182,357" stroke="#404040" stroke-width="1" />
<path d="M170,42 L182,42" stroke="#404040" />
<rect x="180" y="40" width="4" height="4" fill="white" stroke="black" stroke-width="1" />
<path d="M182,357 L175,357" stroke="#404040" />
<rect x="180" y="355" width="4" height="4" fill="white" stroke="black" stroke-width="1" />
<path d="M190,68 L190,383" stroke="#404040" stroke-width="1" />
<path d="M170,68 L190,68" stroke="#404040" />
<rect x="188" y="66" width="4" height="4" fill="white" stroke="black" stroke-width="1" />
<path d="M190,383 L175,383" stroke="#404040" />
<rect x="188" y="381" width="4" height="4" fill="white" stroke="black" stroke-width="1" />
<path d="M198,94 L198,409" stroke="#404040" stroke-width="1" />
<path d="M170,94 L198,94" stroke="#404040" />
<rect x="196" y="92" width="4" height="4" fill="white" stroke="black" stroke-width="1" />
<path d="M198,409 L175,409" stroke="#404040" />
<rect x="196" y="407" width="4" height="4" fill="white" stroke="black" stroke-width="1" />
<path d="M206,120 L206,435" stroke="#404040" stroke-width="1" />
<path d="M170,120 L206,120" stroke="#404040" />
<rect x="204" y="118" width="4" height="4" fill="white" stroke="black" stroke-width="1" />
<path d="M206,435 L175,435" stroke="#404040" />
<rect x="204" y="433" width="4" height="4" fill="white" stroke="black" stroke-width="1" />
<path d="M214,146 L214,461" stroke="#404040" stroke-width="1" />
<path d="M170,146 L214,146" stroke="#404040" />
<rect x="212" y="144" width="4" height="4" fill="white" stroke="black" stroke-width="1" />
<path d="M214,461 L175,461" stroke="#404040" />
<rect x="212" y="459" width="4" height="4" fill="white" stroke="black" stroke-width="1" />
<path d="M222,172 L222,487" stroke="#404040" stroke-width="1" />
<path d="M170,172 L222,172" stroke="#404040" />
<rect x="220" y="170" width="4" height="4" fill="white" stroke="black" stroke-width="1" />
<path d="M222,487 L175,487" stroke="#404040" />
<rect x="220" y="485" width="4" height="4" fill="white" stroke="black" stroke-width="1" />
<path d="M230,198 L230,513" stroke="#404040" stroke-width="1" />
<path d="M170,198 L230,198" stroke="#404040" />
<rect x="228" y="196" width="4" height="4" fill="white" stroke="black" stroke-width="1" />
<path d="M230,513 L175,513" stroke="#404040" />
<rect x="228" y="511" width="4" height="4" fill="white" stroke="black" stroke-width="1" />
<path d="M238,224 L238,539" stroke="#404040" stroke-width="1" />
<path d="M170,224 L238,224" stroke="#404040" />
<rect x="236" y="222" width="4" height="4" fill="white" stroke="black" stroke-width="1" />
<path d="M238,539 L175,539" stroke="#404040" />
<rect x="236" y="537" width="4" height="4" fill="white" stroke="black" stroke-width="1" />
<path d="M246,250 L246,565" stroke="#404040" stroke-width="1" />
<path d="M170,250 L246,250" stroke="#404040" />
<rect x="244" y="248" width="4" height="4" fill="white" stroke="black" stroke-width="1" />
<path d="M246,565 L175,565" stroke="#404040" />
<rect x="244" y="563" width="4" height="4" fill="white" stroke="black" stroke-width="1" />
</svg>