<?xml version="1.0" encoding="UTF-8"?>
<svg xmlns="http://www.w3.org/2000/svg" xmlns:xlink="http://www.w3.org/1999/xlink"
     width="1106" height="483" viewBox="-548 -20 1106 483">
<defs>
</defs>
<rect x="3" y="3" width="220" height="433" fill="#000000" fill-opacity="0.1" rx="2" ry="2" />
<path d="M0,0 H220 V196 H214 V236 H220 V433 H0 V236 H6 V196 H0 Z" fill="#ffffff" stroke="#606060" stroke-width="2" />
<path d="M0,30 L220,30" stroke="#606060" stroke-width="1" />
<text x="110.0" y="214.0" font-size="14" fontWeight="bold" font-family="Verdana, sans-serif" font-style="italic" text-anchor="middle" dominant-baseline="central">sequence_T_05_loop</text>
<text x="110.0" y="228.0" font-size="10" fill="#000" font-family="Consolas, monospace" text-anchor="middle" dominant-baseline="central">1.0</text>
<path d="M-5,37 L-5,47 L0,42 Z" fill="#5cb85c" stroke="none" />
<text x="12" y="46" font-size="12" text-anchor="start" font-family="Consolas, monospace">START_S1</text>
<text x="-23" y="45" font-size="11" text-anchor="end" fill="#888" font-style="italic" font-family="Verdana, sans-serif">Event</text>
<text x="-93" y="45" font-size="11" text-anchor="end" fill="#666666" font-family="Verdana, sans-serif">jump from START to State_01</text>
<path d="M-5,63 L-5,73 L0,68 Z" fill="#5cb85c" stroke="none" />
<text x="12" y="72" font-size="12" text-anchor="start" font-family="Consolas, monospace">RESET</text>
<text x="-23" y="71" font-size="11" text-anchor="end" fill="#888" font-style="italic" font-family="Verdana, sans-serif">Event</text>
<text x="-93" y="71" font-size="11" text-anchor="end" fill="#666666" font-family="Verdana, sans-serif">Reset from any State to START</text>
<path d="M-5,248 L-5,258 L0,253 Z" fill="#0066cc" stroke="none" />
<text x="12" y="257" font-size="12" text-anchor="start" font-family="Consolas, monospace">DT_S1_S2</text>
<text x="-23" y="256" font-size="11" text-anchor="end" fill="#0066cc" font-style="italic" font-family="Verdana, sans-serif">TIME</text>
<text x="-93" y="256" font-size="11" text-anchor="end" fill="#666666" font-family="Verdana, sans-serif">State_01 to State_02 timed</text>
<path d="M-5,274 L-5,284 L0,279 Z" fill="#0066cc" stroke="none" />
<text x="12" y="283" font-size="12" text-anchor="start" font-family="Consolas, monospace">DT_S2_S3</text>
<text x="-23" y="282" font-size="11" text-anchor="end" fill="#0066cc" font-style="italic" font-family="Verdana, sans-serif">TIME</text>
<text x="-93" y="282" font-size="11" text-anchor="end" fill="#666666" font-family="Verdana, sans-serif">State_02 to State_03 timed</text>
<path d="M-5,300 L-5,310 L0,305 Z" fill="#0066cc" stroke="none" />
<text x="12" y="309" font-size="12" text-anchor="start" font-family="Consolas, monospace">DT_S3_S4</text>
<text x="-23" y="308" font-size="11" text-anchor="end" fill="#0066cc" font-style="italic" font-family="Verdana, sans-serif">TIME</text>
<text x="-93" y="308" font-size="11" text-anchor="end" fill="#666666" font-family="Verdana, sans-serif">State_03 to State_04 timed</text>
<path d="M-5,326 L-5,336 L0,331 Z" fill="#0066cc" stroke="none" />
<text x="12" y="335" font-size="12" text-anchor="start" font-family="Consolas, monospace">DT_S4_S5</text>
<text x="-23" y="334" font-size="11" text-anchor="end" fill="#0066cc" font-style="italic" font-family="Verdana, sans-serif">TIME</text>
<text x="-93" y="334" font-size="11" text-anchor="end" fill="#666666" font-family="Verdana, sans-serif">State_04 to State_05 timed</text>
<path d="M-5,352 L-5,362 L0,357 Z" fill="#0066cc" stroke="none" />
<text x="12" y="361" font-size="12" text-anchor="start" font-family="Consolas, monospace">DT_S5_S1</text>
<text x="-23" y="360" font-size="11" text-anchor="end" fill="#0066cc" font-style="italic" font-family="Verdana, sans-serif">TIME</text>
<text x="-93" y="360" font-size="11" text-anchor="end" fill="#666666" font-family="Verdana, sans-serif">State_05 to State_01 timed</text>
<path d="M220,37 L220,47 L225,42 Z" fill="#5cb85c" stroke="none" />
<text x="208" y="46" font-size="12" text-anchor="end" font-family="Consolas, monospace">CNF</text>
<text x="283" y="45" font-size="11" text-anchor="start" fill="#888" font-style="italic" font-family="Verdana, sans-serif">Event</text>
<text x="353" y="45" font-size="11" text-anchor="start" fill="#666666" font-family="Verdana, sans-serif">Execution Confirmation</text>
<path d="M220,63 L220,73 L225,68 Z" fill="#5cb85c" stroke="none" />
<text x="208" y="72" font-size="12" text-anchor="end" font-family="Consolas, monospace">EO_S1</text>
<text x="283" y="71" font-size="11" text-anchor="start" fill="#888" font-style="italic" font-family="Verdana, sans-serif">Event</text>
<path d="M220,89 L220,99 L225,94 Z" fill="#5cb85c" stroke="none" />
<text x="208" y="98" font-size="12" text-anchor="end" font-family="Consolas, monospace">EO_S2</text>
<text x="283" y="97" font-size="11" text-anchor="start" fill="#888" font-style="italic" font-family="Verdana, sans-serif">Event</text>
<path d="M220,115 L220,125 L225,120 Z" fill="#5cb85c" stroke="none" />
<text x="208" y="124" font-size="12" text-anchor="end" font-family="Consolas, monospace">EO_S3</text>
<text x="283" y="123" font-size="11" text-anchor="start" fill="#888" font-style="italic" font-family="Verdana, sans-serif">Event</text>
<path d="M220,141 L220,151 L225,146 Z" fill="#5cb85c" stroke="none" />
<text x="208" y="150" font-size="12" text-anchor="end" font-family="Consolas, monospace">EO_S4</text>
<text x="283" y="149" font-size="11" text-anchor="start" fill="#888" font-style="italic" font-family="Verdana, sans-serif">Event</text>
<path d="M220,167 L220,177 L225,172 Z" fill="#5cb85c" stroke="none" />
<text x="208" y="176" font-size="12" text-anchor="end" font-family="Consolas, monospace">EO_S5</text>
<text x="283" y="175" font-size="11" text-anchor="start" fill="#888" font-style="italic" font-family="Verdana, sans-serif">Event</text>
<rect x="215.0" y="248.0" width="10" height="10" fill="#985ec9" stroke="none" />
<text x="208" y="257" font-size="12" text-anchor="end" font-family="Consolas, monospace">timeOut</text>
<text x="283" y="256" font-size="11" text-anchor="start" fill="#000" font-style="italic" font-family="Verdana, sans-serif">ATimeOut</text>
<text x="353" y="256" font-size="11" text-anchor="start" fill="#666666" font-family="Verdana, sans-serif">timeOut Adapter</text>
<path d="M220,274 L220,284 L225,279 Z" fill="#0066cc" stroke="none" />
<text x="208" y="283" font-size="12" text-anchor="end" font-family="Consolas, monospace">STATE_NR</text>
<text x="283" y="282" font-size="11" text-anchor="start" fill="#0066cc" font-style="italic" font-family="Verdana, sans-serif">SINT</text>
<text x="353" y="282" font-size="11" text-anchor="start" fill="#666666" font-family="Verdana, sans-serif">State Number, START = 0, State_01 = 1 and so on. </text>
<path d="M220,300 L220,310 L225,305 Z" fill="#0066cc" stroke="none" />
<text x="208" y="309" font-size="12" text-anchor="end" font-family="Consolas, monospace">DO_S1</text>
<text x="283" y="308" font-size="11" text-anchor="start" fill="#0066cc" font-style="italic" font-family="Verdana, sans-serif">BOOL</text>
<text x="353" y="308" font-size="11" text-anchor="start" fill="#666666" font-family="Verdana, sans-serif">Output if State_01 is active</text>
<path d="M220,326 L220,336 L225,331 Z" fill="#0066cc" stroke="none" />
<text x="208" y="335" font-size="12" text-anchor="end" font-family="Consolas, monospace">DO_S2</text>
<text x="283" y="334" font-size="11" text-anchor="start" fill="#0066cc" font-style="italic" font-family="Verdana, sans-serif">BOOL</text>
<text x="353" y="334" font-size="11" text-anchor="start" fill="#666666" font-family="Verdana, sans-serif">Output if State_02 is active</text>
<path d="M220,352 L220,362 L225,357 Z" fill="#0066cc" stroke="none" />
<text x="208" y="361" font-size="12" text-anchor="end" font-family="Consolas, monospace">DO_S3</text>
<text x="283" y="360" font-size="11" text-anchor="start" fill="#0066cc" font-style="italic" font-family="Verdana, sans-serif">BOOL</text>
<text x="353" y="360" font-size="11" text-anchor="start" fill="#666666" font-family="Verdana, sans-serif">Output if State_03 is active</text>
<path d="M220,378 L220,388 L225,383 Z" fill="#0066cc" stroke="none" />
<text x="208" y="387" font-size="12" text-anchor="end" font-family="Consolas, monospace">DO_S4</text>
<text x="283" y="386" font-size="11" text-anchor="start" fill="#0066cc" font-style="italic" font-family="Verdana, sans-serif">BOOL</text>
<text x="353" y="386" font-size="11" text-anchor="start" fill="#666666" font-family="Verdana, sans-serif">Output if State_04 is active</text>
<path d="M220,404 L220,414 L225,409 Z" fill="#0066cc" stroke="none" />
<text x="208" y="413" font-size="12" text-anchor="end" font-family="Consolas, monospace">DO_S5</text>
<text x="283" y="412" font-size="11" text-anchor="start" fill="#0066cc" font-style="italic" font-family="Verdana, sans-serif">BOOL</text>
<text x="353" y="412" font-size="11" text-anchor="start" fill="#666666" font-family="Verdana, sans-serif">Output if State_05 is active</text>
<path d="M-12,42 L-12,357" stroke="#404040" stroke-width="1" />
<path d="M0,42 L-12,42" stroke="#404040" />
<rect x="-14" y="40" width="4" height="4" fill="white" stroke="black" stroke-width="1" />
<path d="M-12,253 L-5,253" stroke="#404040" />
<rect x="-14" y="251" width="4" height="4" fill="white" stroke="black" stroke-width="1" />
<path d="M-12,279 L-5,279" stroke="#404040" />
<rect x="-14" y="277" width="4" height="4" fill="white" stroke="black" stroke-width="1" />
<path d="M-12,305 L-5,305" stroke="#404040" />
<rect x="-14" y="303" width="4" height="4" fill="white" stroke="black" stroke-width="1" />
<path d="M-12,331 L-5,331" stroke="#404040" />
<rect x="-14" y="329" width="4" height="4" fill="white" stroke="black" stroke-width="1" />
<path d="M-12,357 L-5,357" stroke="#404040" />
<rect x="-14" y="355" width="4" height="4" fill="white" stroke="black" stroke-width="1" />
<path d="M232,42 L232,279" stroke="#404040" stroke-width="1" />
<path d="M220,42 L232,42" stroke="#404040" />
<rect x="230" y="40" width="4" height="4" fill="white" stroke="black" stroke-width="1" />
<path d="M232,279 L225,279" stroke="#404040" />
<rect x="230" y="277" width="4" height="4" fill="white" stroke="black" stroke-width="1" />
<path d="M240,68 L240,305" stroke="#404040" stroke-width="1" />
<path d="M220,68 L240,68" stroke="#404040" />
<rect x="238" y="66" width="4" height="4" fill="white" stroke="black" stroke-width="1" />
<path d="M240,305 L225,305" stroke="#404040" />
<rect x="238" y="303" width="4" height="4" fill="white" stroke="black" stroke-width="1" />
<path d="M248,94 L248,331" stroke="#404040" stroke-width="1" />
<path d="M220,94 L248,94" stroke="#404040" />
<rect x="246" y="92" width="4" height="4" fill="white" stroke="black" stroke-width="1" />
<path d="M248,331 L225,331" stroke="#404040" />
<rect x="246" y="329" width="4" height="4" fill="white" stroke="black" stroke-width="1" />
<path d="M256,120 L256,357" stroke="#404040" stroke-width="1" />
<path d="M220,120 L256,120" stroke="#404040" />
<rect x="254" y="118" width="4" height="4" fill="white" stroke="black" stroke-width="1" />
<path d="M256,357 L225,357" stroke="#404040" />
<rect x="254" y="355" width="4" height="4" fill="white" stroke="black" stroke-width="1" />
<path d="M264,146 L264,383" stroke="#404040" stroke-width="1" />
<path d="M220,146 L264,146" stroke="#404040" />
<rect x="262" y="144" width="4" height="4" fill="white" stroke="black" stroke-width="1" />
<path d="M264,383 L225,383" stroke="#404040" />
<rect x="262" y="381" width="4" height="4" fill="white" stroke="black" stroke-width="1" />
<path d="M272,172 L272,409" stroke="#404040" stroke-width="1" />
<path d="M220,172 L272,172" stroke="#404040" />
<rect x="270" y="170" width="4" height="4" fill="white" stroke="black" stroke-width="1" />
<path d="M272,409 L225,409" stroke="#404040" />
<rect x="270" y="407" width="4" height="4" fill="white" stroke="black" stroke-width="1" />
</svg>