<?xml version="1.0" encoding="UTF-8"?>
<svg xmlns="http://www.w3.org/2000/svg" xmlns:xlink="http://www.w3.org/1999/xlink"
     width="1060" height="301" viewBox="-556 -20 1060 301">
<defs>
</defs>
<rect x="3" y="3" width="190" height="251" fill="#000000" fill-opacity="0.1" rx="2" ry="2" />
<path d="M0,0 H190 V118 H184 V158 H190 V251 H0 V158 H6 V118 H0 Z" fill="#ffffff" stroke="#000000" stroke-width="2" />
<path d="M0,30 L190,30" stroke="#000000" stroke-width="1" />
<text x="95.0" y="136.0" font-size="14" fontWeight="bold" font-family="Verdana, sans-serif" font-style="italic" text-anchor="middle" dominant-baseline="central">NumericValue_ID</text>
<text x="95.0" y="150.0" font-size="10" fill="#000" font-family="Consolas, monospace" text-anchor="middle" dominant-baseline="central">1.0</text>
<path d="M-5,37 L-5,47 L0,42 Z" fill="#63B31F" stroke="none" />
<text x="12" y="46" font-size="12" text-anchor="start" font-family="Consolas, monospace">INIT</text>
<text x="-31" y="45" font-size="11" text-anchor="end" fill="#888" font-style="italic" font-family="Verdana, sans-serif">Event</text>
<text x="-101" y="45" font-size="11" text-anchor="end" fill="#666666" font-family="Verdana, sans-serif">Service Initialization</text>
<path d="M-5,63 L-5,73 L0,68 Z" fill="#63B31F" stroke="none" />
<text x="12" y="72" font-size="12" text-anchor="start" font-family="Consolas, monospace">REQ</text>
<text x="-31" y="71" font-size="11" text-anchor="end" fill="#888" font-style="italic" font-family="Verdana, sans-serif">Event</text>
<text x="-101" y="71" font-size="11" text-anchor="end" fill="#666666" font-family="Verdana, sans-serif">Service Request</text>
<path d="M-5,170 L-5,180 L0,175 Z" fill="#9FA48A" stroke="none" />
<text x="12" y="179" font-size="12" text-anchor="start" font-family="Consolas, monospace">QI</text>
<text x="-31" y="178" font-size="11" text-anchor="end" fill="#9FA48A" font-style="italic" font-family="Verdana, sans-serif">BOOL</text>
<text x="-101" y="178" font-size="11" text-anchor="end" fill="#666666" font-family="Verdana, sans-serif">Event Input Qualifier</text>
<path d="M-5,196 L-5,206 L0,201 Z" fill="#BD8663" stroke="none" />
<text x="12" y="205" font-size="12" text-anchor="start" font-family="Consolas, monospace">PARAMS</text>
<text x="-31" y="204" font-size="11" text-anchor="end" fill="#BD8663" font-style="italic" font-family="Verdana, sans-serif">STRING</text>
<text x="-101" y="204" font-size="11" text-anchor="end" fill="#666666" font-family="Verdana, sans-serif">Service Parameters</text>
<path d="M-5,222 L-5,232 L0,227 Z" fill="#18519E" stroke="none" />
<text x="12" y="231" font-size="12" text-anchor="start" font-family="Consolas, monospace">u16ObjId</text>
<text x="-31" y="230" font-size="11" text-anchor="end" fill="#18519E" font-style="italic" font-family="Verdana, sans-serif">UINT</text>
<text x="-101" y="230" font-size="11" text-anchor="end" fill="#666666" font-family="Verdana, sans-serif">Object ID</text>
<path d="M190,37 L190,47 L195,42 Z" fill="#63B31F" stroke="none" />
<text x="178" y="46" font-size="12" text-anchor="end" font-family="Consolas, monospace">INITO</text>
<text x="229" y="45" font-size="11" text-anchor="start" fill="#888" font-style="italic" font-family="Verdana, sans-serif">Event</text>
<text x="299" y="45" font-size="11" text-anchor="start" fill="#666666" font-family="Verdana, sans-serif">Initialization Confirm</text>
<path d="M190,63 L190,73 L195,68 Z" fill="#63B31F" stroke="none" />
<text x="178" y="72" font-size="12" text-anchor="end" font-family="Consolas, monospace">CNF</text>
<text x="229" y="71" font-size="11" text-anchor="start" fill="#888" font-style="italic" font-family="Verdana, sans-serif">Event</text>
<text x="299" y="71" font-size="11" text-anchor="start" fill="#666666" font-family="Verdana, sans-serif">Confirmation of Requested Service</text>
<path d="M190,89 L190,99 L195,94 Z" fill="#63B31F" stroke="none" />
<text x="178" y="98" font-size="12" text-anchor="end" font-family="Consolas, monospace">IND</text>
<text x="229" y="97" font-size="11" text-anchor="start" fill="#888" font-style="italic" font-family="Verdana, sans-serif">Event</text>
<text x="299" y="97" font-size="11" text-anchor="start" fill="#666666" font-family="Verdana, sans-serif">Indication from Resource</text>
<path d="M190,170 L190,180 L195,175 Z" fill="#9FA48A" stroke="none" />
<text x="178" y="179" font-size="12" text-anchor="end" font-family="Consolas, monospace">QO</text>
<text x="229" y="178" font-size="11" text-anchor="start" fill="#9FA48A" font-style="italic" font-family="Verdana, sans-serif">BOOL</text>
<text x="299" y="178" font-size="11" text-anchor="start" fill="#666666" font-family="Verdana, sans-serif">Event Output Qualifier</text>
<path d="M190,196 L190,206 L195,201 Z" fill="#BD8663" stroke="none" />
<text x="178" y="205" font-size="12" text-anchor="end" font-family="Consolas, monospace">STATUS</text>
<text x="229" y="204" font-size="11" text-anchor="start" fill="#BD8663" font-style="italic" font-family="Verdana, sans-serif">STRING</text>
<text x="299" y="204" font-size="11" text-anchor="start" fill="#666666" font-family="Verdana, sans-serif">Service Status</text>
<path d="M190,222 L190,232 L195,227 Z" fill="#82A3A9" stroke="none" />
<text x="178" y="231" font-size="12" text-anchor="end" font-family="Consolas, monospace">IN</text>
<text x="229" y="230" font-size="11" text-anchor="start" fill="#82A3A9" font-style="italic" font-family="Verdana, sans-serif">DWORD</text>
<text x="299" y="230" font-size="11" text-anchor="start" fill="#666666" font-family="Verdana, sans-serif">Input data from resource</text>
<path d="M-12,42 L-12,227" stroke="#404040" stroke-width="1" />
<path d="M0,42 L-12,42" stroke="#404040" />
<rect x="-14" y="40" width="4" height="4" fill="white" stroke="black" stroke-width="1" />
<path d="M-12,175 L-5,175" stroke="#404040" />
<rect x="-14" y="173" width="4" height="4" fill="white" stroke="black" stroke-width="1" />
<path d="M-12,201 L-5,201" stroke="#404040" />
<rect x="-14" y="199" width="4" height="4" fill="white" stroke="black" stroke-width="1" />
<path d="M-12,227 L-5,227" stroke="#404040" />
<rect x="-14" y="225" width="4" height="4" fill="white" stroke="black" stroke-width="1" />
<path d="M-20,68 L-20,175" stroke="#404040" stroke-width="1" />
<path d="M0,68 L-20,68" stroke="#404040" />
<rect x="-22" y="66" width="4" height="4" fill="white" stroke="black" stroke-width="1" />
<path d="M-20,175 L-5,175" stroke="#404040" />
<rect x="-22" y="173" width="4" height="4" fill="white" stroke="black" stroke-width="1" />
<path d="M202,42 L202,201" stroke="#404040" stroke-width="1" />
<path d="M190,42 L202,42" stroke="#404040" />
<rect x="200" y="40" width="4" height="4" fill="white" stroke="black" stroke-width="1" />
<path d="M202,175 L195,175" stroke="#404040" />
<rect x="200" y="173" width="4" height="4" fill="white" stroke="black" stroke-width="1" />
<path d="M202,201 L195,201" stroke="#404040" />
<rect x="200" y="199" width="4" height="4" fill="white" stroke="black" stroke-width="1" />
<path d="M210,68 L210,227" stroke="#404040" stroke-width="1" />
<path d="M190,68 L210,68" stroke="#404040" />
<rect x="208" y="66" width="4" height="4" fill="white" stroke="black" stroke-width="1" />
<path d="M210,175 L195,175" stroke="#404040" />
<rect x="208" y="173" width="4" height="4" fill="white" stroke="black" stroke-width="1" />
<path d="M210,201 L195,201" stroke="#404040" />
<rect x="208" y="199" width="4" height="4" fill="white" stroke="black" stroke-width="1" />
<path d="M210,227 L195,227" stroke="#404040" />
<rect x="208" y="225" width="4" height="4" fill="white" stroke="black" stroke-width="1" />
<path d="M218,94 L218,227" stroke="#404040" stroke-width="1" />
<path d="M190,94 L218,94" stroke="#404040" />
<rect x="216" y="92" width="4" height="4" fill="white" stroke="black" stroke-width="1" />
<path d="M218,175 L195,175" stroke="#404040" />
<rect x="216" y="173" width="4" height="4" fill="white" stroke="black" stroke-width="1" />
<path d="M218,201 L195,201" stroke="#404040" />
<rect x="216" y="199" width="4" height="4" fill="white" stroke="black" stroke-width="1" />
<path d="M218,227 L195,227" stroke="#404040" />
<rect x="216" y="225" width="4" height="4" fill="white" stroke="black" stroke-width="1" />
</svg>