<?xml version="1.0" encoding="UTF-8"?>
<svg xmlns="http://www.w3.org/2000/svg" xmlns:xlink="http://www.w3.org/1999/xlink"
     width="1324" height="275" viewBox="-556 -20 1324 275">
<defs>
</defs>
<rect x="3" y="3" width="220" height="225" fill="#000000" fill-opacity="0.1" rx="2" ry="2" />
<path d="M0,0 H220 V92 H214 V132 H220 V225 H0 V132 H6 V92 H0 Z" fill="#ffffff" stroke="#000000" stroke-width="2" />
<path d="M0,30 L220,30" stroke="#000000" stroke-width="1" />
<text x="110.0" y="110.0" font-size="14" fontWeight="bold" font-family="Verdana, sans-serif" font-style="italic" text-anchor="middle" dominant-baseline="central">NumericValue_PHYSA</text>
<text x="110.0" y="124.0" font-size="10" fill="#000" font-family="Consolas, monospace" text-anchor="middle" dominant-baseline="central">1.0</text>
<path d="M-5,37 L-5,47 L0,42 Z" fill="#63B31F" stroke="none" />
<text x="12" y="46" font-size="12" text-anchor="start" font-family="Consolas, monospace">INIT</text>
<text x="-31" y="45" font-size="11" text-anchor="end" fill="#888" font-style="italic" font-family="Verdana, sans-serif">Event</text>
<text x="-161" y="45" font-size="11" text-anchor="end" fill="#666666" font-family="Verdana, sans-serif">Service Initialization</text>
<path d="M-5,63 L-5,73 L0,68 Z" fill="#63B31F" stroke="none" />
<text x="12" y="72" font-size="12" text-anchor="start" font-family="Consolas, monospace">REQ</text>
<text x="-31" y="71" font-size="11" text-anchor="end" fill="#888" font-style="italic" font-family="Verdana, sans-serif">Event</text>
<text x="-161" y="71" font-size="11" text-anchor="end" fill="#666666" font-family="Verdana, sans-serif">Service Request</text>
<path d="M-5,144 L-5,154 L0,149 Z" fill="#9FA48A" stroke="none" />
<text x="12" y="153" font-size="12" text-anchor="start" font-family="Consolas, monospace">QI</text>
<text x="-31" y="152" font-size="11" text-anchor="end" fill="#9FA48A" font-style="italic" font-family="Verdana, sans-serif">BOOL</text>
<text x="-161" y="152" font-size="11" text-anchor="end" fill="#666666" font-family="Verdana, sans-serif">Event Input Qualifier</text>
<path d="M-5,170 L-5,180 L0,175 Z" fill="#BD8663" stroke="none" />
<text x="12" y="179" font-size="12" text-anchor="start" font-family="Consolas, monospace">PARAMS</text>
<text x="-31" y="178" font-size="11" text-anchor="end" fill="#BD8663" font-style="italic" font-family="Verdana, sans-serif">STRING</text>
<text x="-161" y="178" font-size="11" text-anchor="end" fill="#666666" font-family="Verdana, sans-serif">Service Parameters</text>
<path d="M-5,196 L-5,206 L0,201 Z" fill="#000000" stroke="none" />
<text x="12" y="205" font-size="12" text-anchor="start" font-family="Consolas, monospace">stObj</text>
<text x="-31" y="204" font-size="11" text-anchor="end" fill="#000000" font-style="italic" font-family="Verdana, sans-serif">NumericObjectPool_S</text>
<text x="-161" y="204" font-size="11" text-anchor="end" fill="#666666" font-family="Verdana, sans-serif">Object pool properties (u16ObjId, scale, offset,</text>
<text x="-161" y="216" font-size="11" text-anchor="end" fill="#666666" font-family="Verdana, sans-serif">decimals)</text>
<path d="M220,37 L220,47 L225,42 Z" fill="#63B31F" stroke="none" />
<text x="208" y="46" font-size="12" text-anchor="end" font-family="Consolas, monospace">INITO</text>
<text x="243" y="45" font-size="11" text-anchor="start" fill="#888" font-style="italic" font-family="Verdana, sans-serif">Event</text>
<text x="313" y="45" font-size="11" text-anchor="start" fill="#666666" font-family="Verdana, sans-serif">Initialization Confirm</text>
<rect x="215.0" y="144.0" width="10" height="10" fill="#845DAF" stroke="none" />
<text x="208" y="153" font-size="12" text-anchor="end" font-family="Consolas, monospace">rPhys</text>
<text x="243" y="152" font-size="11" text-anchor="start" fill="#000" font-style="italic" font-family="Verdana, sans-serif">AR</text>
<text x="313" y="152" font-size="11" text-anchor="start" fill="#666666" font-family="Verdana, sans-serif">Physical REAL value output</text>
<path d="M220,170 L220,180 L225,175 Z" fill="#9FA48A" stroke="none" />
<text x="208" y="179" font-size="12" text-anchor="end" font-family="Consolas, monospace">QO</text>
<text x="243" y="178" font-size="11" text-anchor="start" fill="#9FA48A" font-style="italic" font-family="Verdana, sans-serif">BOOL</text>
<text x="313" y="178" font-size="11" text-anchor="start" fill="#666666" font-family="Verdana, sans-serif">Event Output Qualifier</text>
<path d="M220,196 L220,206 L225,201 Z" fill="#BD8663" stroke="none" />
<text x="208" y="205" font-size="12" text-anchor="end" font-family="Consolas, monospace">STATUS</text>
<text x="243" y="204" font-size="11" text-anchor="start" fill="#BD8663" font-style="italic" font-family="Verdana, sans-serif">STRING</text>
<text x="313" y="204" font-size="11" text-anchor="start" fill="#666666" font-family="Verdana, sans-serif">Service Status</text>
<path d="M-12,42 L-12,201" stroke="#404040" stroke-width="1" />
<path d="M0,42 L-12,42" stroke="#404040" />
<rect x="-14" y="40" width="4" height="4" fill="white" stroke="black" stroke-width="1" />
<path d="M-12,149 L-5,149" stroke="#404040" />
<rect x="-14" y="147" width="4" height="4" fill="white" stroke="black" stroke-width="1" />
<path d="M-12,175 L-5,175" stroke="#404040" />
<rect x="-14" y="173" width="4" height="4" fill="white" stroke="black" stroke-width="1" />
<path d="M-12,201 L-5,201" stroke="#404040" />
<rect x="-14" y="199" width="4" height="4" fill="white" stroke="black" stroke-width="1" />
<path d="M-20,68 L-20,149" stroke="#404040" stroke-width="1" />
<path d="M0,68 L-20,68" stroke="#404040" />
<rect x="-22" y="66" width="4" height="4" fill="white" stroke="black" stroke-width="1" />
<path d="M-20,149 L-5,149" stroke="#404040" />
<rect x="-22" y="147" width="4" height="4" fill="white" stroke="black" stroke-width="1" />
<path d="M232,42 L232,201" stroke="#404040" stroke-width="1" />
<path d="M220,42 L232,42" stroke="#404040" />
<rect x="230" y="40" width="4" height="4" fill="white" stroke="black" stroke-width="1" />
<path d="M232,175 L225,175" stroke="#404040" />
<rect x="230" y="173" width="4" height="4" fill="white" stroke="black" stroke-width="1" />
<path d="M232,201 L225,201" stroke="#404040" />
<rect x="230" y="199" width="4" height="4" fill="white" stroke="black" stroke-width="1" />
</svg>