<?xml version="1.0" encoding="UTF-8"?>
<svg xmlns="http://www.w3.org/2000/svg" xmlns:xlink="http://www.w3.org/1999/xlink"
     width="1006" height="249" viewBox="-548 -20 1006 249">
<defs>
</defs>
<rect x="3" y="3" width="160" height="199" fill="#000000" fill-opacity="0.1" rx="2" ry="2" />
<path d="M0,0 H160 V66 H154 V106 H160 V199 H0 V106 H6 V66 H0 Z" fill="#ffffff" stroke="#606060" stroke-width="2" />
<path d="M0,30 L160,30" stroke="#606060" stroke-width="1" />
<text x="80.0" y="84.0" font-size="14" fontWeight="bold" font-family="Verdana, sans-serif" font-style="italic" text-anchor="middle" dominant-baseline="central">SET_AT_INDEX</text>
<text x="80.0" y="98.0" font-size="10" fill="#000" font-family="Consolas, monospace" text-anchor="middle" dominant-baseline="central">3.0</text>
<path d="M-5,37 L-5,47 L0,42 Z" fill="#5cb85c" stroke="none" />
<text x="12" y="46" font-size="12" text-anchor="start" font-family="Consolas, monospace">REQ</text>
<text x="-23" y="45" font-size="11" text-anchor="end" fill="#888" font-style="italic" font-family="Verdana, sans-serif">Event</text>
<text x="-93" y="45" font-size="11" text-anchor="end" fill="#666666" font-family="Verdana, sans-serif">Service Request</text>
<path d="M-5,118 L-5,128 L0,123 Z" fill="#0066cc" stroke="none" />
<text x="12" y="127" font-size="12" text-anchor="start" font-family="Consolas, monospace">IN_ARRAY</text>
<text x="-23" y="126" font-size="11" text-anchor="end" fill="#0066cc" font-style="italic" font-family="Verdana, sans-serif">ANY</text>
<text x="-93" y="126" font-size="11" text-anchor="end" fill="#666666" font-family="Verdana, sans-serif">input array</text>
<path d="M-5,144 L-5,154 L0,149 Z" fill="#0066cc" stroke="none" />
<text x="12" y="153" font-size="12" text-anchor="start" font-family="Consolas, monospace">INDEX</text>
<text x="-23" y="152" font-size="11" text-anchor="end" fill="#0066cc" font-style="italic" font-family="Verdana, sans-serif">UINT</text>
<text x="-93" y="152" font-size="11" text-anchor="end" fill="#666666" font-family="Verdana, sans-serif">index to fetch value from</text>
<path d="M-5,170 L-5,180 L0,175 Z" fill="#0066cc" stroke="none" />
<text x="12" y="179" font-size="12" text-anchor="start" font-family="Consolas, monospace">VALUE</text>
<text x="-23" y="178" font-size="11" text-anchor="end" fill="#0066cc" font-style="italic" font-family="Verdana, sans-serif">ANY</text>
<text x="-93" y="178" font-size="11" text-anchor="end" fill="#666666" font-family="Verdana, sans-serif">value to be copied to given index</text>
<path d="M160,37 L160,47 L165,42 Z" fill="#5cb85c" stroke="none" />
<text x="148" y="46" font-size="12" text-anchor="end" font-family="Consolas, monospace">CNF</text>
<text x="183" y="45" font-size="11" text-anchor="start" fill="#888" font-style="italic" font-family="Verdana, sans-serif">Event</text>
<text x="253" y="45" font-size="11" text-anchor="start" fill="#666666" font-family="Verdana, sans-serif">Confirmation of Requested Service</text>
<path d="M160,118 L160,128 L165,123 Z" fill="#0066cc" stroke="none" />
<text x="148" y="127" font-size="12" text-anchor="end" font-family="Consolas, monospace">QO</text>
<text x="183" y="126" font-size="11" text-anchor="start" fill="#0066cc" font-style="italic" font-family="Verdana, sans-serif">BOOL</text>
<text x="253" y="126" font-size="11" text-anchor="start" fill="#666666" font-family="Verdana, sans-serif">Event Output Qualifier</text>
<path d="M160,144 L160,154 L165,149 Z" fill="#0066cc" stroke="none" />
<text x="148" y="153" font-size="12" text-anchor="end" font-family="Consolas, monospace">OUT_ARRAY</text>
<text x="183" y="152" font-size="11" text-anchor="start" fill="#0066cc" font-style="italic" font-family="Verdana, sans-serif">ANY</text>
<text x="253" y="152" font-size="11" text-anchor="start" fill="#666666" font-family="Verdana, sans-serif">resulting array after set</text>
<path d="M-12,42 L-12,175" stroke="#404040" stroke-width="1" />
<path d="M0,42 L-12,42" stroke="#404040" />
<rect x="-14" y="40" width="4" height="4" fill="white" stroke="black" stroke-width="1" />
<path d="M-12,123 L-5,123" stroke="#404040" />
<rect x="-14" y="121" width="4" height="4" fill="white" stroke="black" stroke-width="1" />
<path d="M-12,149 L-5,149" stroke="#404040" />
<rect x="-14" y="147" width="4" height="4" fill="white" stroke="black" stroke-width="1" />
<path d="M-12,175 L-5,175" stroke="#404040" />
<rect x="-14" y="173" width="4" height="4" fill="white" stroke="black" stroke-width="1" />
<path d="M172,42 L172,149" stroke="#404040" stroke-width="1" />
<path d="M160,42 L172,42" stroke="#404040" />
<rect x="170" y="40" width="4" height="4" fill="white" stroke="black" stroke-width="1" />
<path d="M172,123 L165,123" stroke="#404040" />
<rect x="170" y="121" width="4" height="4" fill="white" stroke="black" stroke-width="1" />
<path d="M172,149 L165,149" stroke="#404040" />
<rect x="170" y="147" width="4" height="4" fill="white" stroke="black" stroke-width="1" />
</svg>