<?xml version="1.0" encoding="UTF-8"?>
<svg xmlns="http://www.w3.org/2000/svg" xmlns:xlink="http://www.w3.org/1999/xlink"
     width="1070" height="301" viewBox="-556 -20 1070 301">
<defs>
</defs>
<rect x="3" y="3" width="200" height="251" fill="#000000" fill-opacity="0.1" rx="2" ry="2" />
<path d="M0,0 H200 V118 H194 V158 H200 V251 H0 V158 H6 V118 H0 Z" fill="#ffffff" stroke="#000000" stroke-width="2" />
<path d="M0,30 L200,30" stroke="#000000" stroke-width="1" />
<text x="100.0" y="136.0" font-size="14" fontWeight="bold" font-family="Verdana, sans-serif" font-style="italic" text-anchor="middle" dominant-baseline="central">logiBUS_2_CAN_IX</text>
<text x="100.0" y="150.0" font-size="10" fill="#000" font-family="Consolas, monospace" text-anchor="middle" dominant-baseline="central">1.0</text>
<path d="M-5,37 L-5,47 L0,42 Z" fill="#63B31F" stroke="none" />
<text x="12" y="46" font-size="12" text-anchor="start" font-family="Consolas, monospace">INIT</text>
<text x="-31" y="45" font-size="11" text-anchor="end" fill="#888" font-style="italic" font-family="Verdana, sans-serif">Event</text>
<text x="-101" y="45" font-size="11" text-anchor="end" fill="#666666" font-family="Verdana, sans-serif">Service Initialization</text>
<path d="M-5,63 L-5,73 L0,68 Z" fill="#63B31F" stroke="none" />
<text x="12" y="72" font-size="12" text-anchor="start" font-family="Consolas, monospace">REQ</text>
<text x="-31" y="71" font-size="11" text-anchor="end" fill="#888" font-style="italic" font-family="Verdana, sans-serif">Event</text>
<text x="-101" y="71" font-size="11" text-anchor="end" fill="#666666" font-family="Verdana, sans-serif">Service Request</text>
<path d="M-5,170 L-5,180 L0,175 Z" fill="#9FA48A" stroke="none" />
<text x="12" y="179" font-size="12" text-anchor="start" font-family="Consolas, monospace">QI</text>
<text x="-31" y="178" font-size="11" text-anchor="end" fill="#9FA48A" font-style="italic" font-family="Verdana, sans-serif">BOOL</text>
<text x="-101" y="178" font-size="11" text-anchor="end" fill="#666666" font-family="Verdana, sans-serif">Event Input Qualifier</text>
<path d="M-5,196 L-5,206 L0,201 Z" fill="#BD8663" stroke="none" />
<text x="12" y="205" font-size="12" text-anchor="start" font-family="Consolas, monospace">PARAMS</text>
<text x="-31" y="204" font-size="11" text-anchor="end" fill="#BD8663" font-style="italic" font-family="Verdana, sans-serif">STRING</text>
<text x="-101" y="204" font-size="11" text-anchor="end" fill="#666666" font-family="Verdana, sans-serif">Service Parameters</text>
<path d="M-5,222 L-5,232 L0,227 Z" fill="#000000" stroke="none" />
<text x="12" y="231" font-size="12" text-anchor="start" font-family="Consolas, monospace">Input</text>
<text x="-31" y="230" font-size="11" text-anchor="end" fill="#000000" font-style="italic" font-family="Verdana, sans-serif">logiBUS_2_CAN_DI_S</text>
<text x="-101" y="230" font-size="11" text-anchor="end" fill="#666666" font-family="Verdana, sans-serif">Identify the Input Input_Q1..Q8</text>
<path d="M200,37 L200,47 L205,42 Z" fill="#63B31F" stroke="none" />
<text x="188" y="46" font-size="12" text-anchor="end" font-family="Consolas, monospace">INITO</text>
<text x="239" y="45" font-size="11" text-anchor="start" fill="#888" font-style="italic" font-family="Verdana, sans-serif">Event</text>
<text x="309" y="45" font-size="11" text-anchor="start" fill="#666666" font-family="Verdana, sans-serif">Initialization Confirm</text>
<path d="M200,63 L200,73 L205,68 Z" fill="#63B31F" stroke="none" />
<text x="188" y="72" font-size="12" text-anchor="end" font-family="Consolas, monospace">CNF</text>
<text x="239" y="71" font-size="11" text-anchor="start" fill="#888" font-style="italic" font-family="Verdana, sans-serif">Event</text>
<text x="309" y="71" font-size="11" text-anchor="start" fill="#666666" font-family="Verdana, sans-serif">Confirmation of Requested Service</text>
<path d="M200,89 L200,99 L205,94 Z" fill="#63B31F" stroke="none" />
<text x="188" y="98" font-size="12" text-anchor="end" font-family="Consolas, monospace">IND</text>
<text x="239" y="97" font-size="11" text-anchor="start" fill="#888" font-style="italic" font-family="Verdana, sans-serif">Event</text>
<text x="309" y="97" font-size="11" text-anchor="start" fill="#666666" font-family="Verdana, sans-serif">Indication from Resource</text>
<path d="M200,170 L200,180 L205,175 Z" fill="#9FA48A" stroke="none" />
<text x="188" y="179" font-size="12" text-anchor="end" font-family="Consolas, monospace">QO</text>
<text x="239" y="178" font-size="11" text-anchor="start" fill="#9FA48A" font-style="italic" font-family="Verdana, sans-serif">BOOL</text>
<text x="309" y="178" font-size="11" text-anchor="start" fill="#666666" font-family="Verdana, sans-serif">Event Output Qualifier</text>
<path d="M200,196 L200,206 L205,201 Z" fill="#BD8663" stroke="none" />
<text x="188" y="205" font-size="12" text-anchor="end" font-family="Consolas, monospace">STATUS</text>
<text x="239" y="204" font-size="11" text-anchor="start" fill="#BD8663" font-style="italic" font-family="Verdana, sans-serif">STRING</text>
<text x="309" y="204" font-size="11" text-anchor="start" fill="#666666" font-family="Verdana, sans-serif">Service Status</text>
<path d="M200,222 L200,232 L205,227 Z" fill="#9FA48A" stroke="none" />
<text x="188" y="231" font-size="12" text-anchor="end" font-family="Consolas, monospace">IN</text>
<text x="239" y="230" font-size="11" text-anchor="start" fill="#9FA48A" font-style="italic" font-family="Verdana, sans-serif">BOOL</text>
<text x="309" y="230" font-size="11" text-anchor="start" fill="#666666" font-family="Verdana, sans-serif">Input data from resource</text>
<path d="M-12,42 L-12,227" stroke="#404040" stroke-width="1" />
<path d="M0,42 L-12,42" stroke="#404040" />
<rect x="-14" y="40" width="4" height="4" fill="white" stroke="black" stroke-width="1" />
<path d="M-12,175 L-5,175" stroke="#404040" />
<rect x="-14" y="173" width="4" height="4" fill="white" stroke="black" stroke-width="1" />
<path d="M-12,201 L-5,201" stroke="#404040" />
<rect x="-14" y="199" width="4" height="4" fill="white" stroke="black" stroke-width="1" />
<path d="M-12,227 L-5,227" stroke="#404040" />
<rect x="-14" y="225" width="4" height="4" fill="white" stroke="black" stroke-width="1" />
<path d="M-20,68 L-20,175" stroke="#404040" stroke-width="1" />
<path d="M0,68 L-20,68" stroke="#404040" />
<rect x="-22" y="66" width="4" height="4" fill="white" stroke="black" stroke-width="1" />
<path d="M-20,175 L-5,175" stroke="#404040" />
<rect x="-22" y="173" width="4" height="4" fill="white" stroke="black" stroke-width="1" />
<path d="M212,42 L212,201" stroke="#404040" stroke-width="1" />
<path d="M200,42 L212,42" stroke="#404040" />
<rect x="210" y="40" width="4" height="4" fill="white" stroke="black" stroke-width="1" />
<path d="M212,175 L205,175" stroke="#404040" />
<rect x="210" y="173" width="4" height="4" fill="white" stroke="black" stroke-width="1" />
<path d="M212,201 L205,201" stroke="#404040" />
<rect x="210" y="199" width="4" height="4" fill="white" stroke="black" stroke-width="1" />
<path d="M220,68 L220,227" stroke="#404040" stroke-width="1" />
<path d="M200,68 L220,68" stroke="#404040" />
<rect x="218" y="66" width="4" height="4" fill="white" stroke="black" stroke-width="1" />
<path d="M220,175 L205,175" stroke="#404040" />
<rect x="218" y="173" width="4" height="4" fill="white" stroke="black" stroke-width="1" />
<path d="M220,201 L205,201" stroke="#404040" />
<rect x="218" y="199" width="4" height="4" fill="white" stroke="black" stroke-width="1" />
<path d="M220,227 L205,227" stroke="#404040" />
<rect x="218" y="225" width="4" height="4" fill="white" stroke="black" stroke-width="1" />
<path d="M228,94 L228,227" stroke="#404040" stroke-width="1" />
<path d="M200,94 L228,94" stroke="#404040" />
<rect x="226" y="92" width="4" height="4" fill="white" stroke="black" stroke-width="1" />
<path d="M228,175 L205,175" stroke="#404040" />
<rect x="226" y="173" width="4" height="4" fill="white" stroke="black" stroke-width="1" />
<path d="M228,201 L205,201" stroke="#404040" />
<rect x="226" y="199" width="4" height="4" fill="white" stroke="black" stroke-width="1" />
<path d="M228,227 L205,227" stroke="#404040" />
<rect x="226" y="225" width="4" height="4" fill="white" stroke="black" stroke-width="1" />
</svg>