<?xml version="1.0" encoding="UTF-8"?>
<svg xmlns="http://www.w3.org/2000/svg" xmlns:xlink="http://www.w3.org/1999/xlink"
     width="1042" height="327" viewBox="-556 -20 1042 327">
<defs>
</defs>
<rect x="3" y="3" width="180" height="277" fill="#000000" fill-opacity="0.1" rx="2" ry="2" />
<path d="M0,0 H180 V92 H174 V132 H180 V277 H0 V132 H6 V92 H0 Z" fill="#ffffff" stroke="#606060" stroke-width="2" />
<path d="M0,30 L180,30" stroke="#606060" stroke-width="1" />
<text x="90.0" y="110.0" font-size="14" fontWeight="bold" font-family="Verdana, sans-serif" font-style="italic" text-anchor="middle" dominant-baseline="central">DualHysteresis</text>
<text x="90.0" y="124.0" font-size="10" fill="#000" font-family="Consolas, monospace" text-anchor="middle" dominant-baseline="central">3.0</text>
<path d="M-5,37 L-5,47 L0,42 Z" fill="#5cb85c" stroke="none" />
<text x="12" y="46" font-size="12" text-anchor="start" font-family="Consolas, monospace">INIT</text>
<text x="-31" y="45" font-size="11" text-anchor="end" fill="#888" font-style="italic" font-family="Verdana, sans-serif">Event</text>
<text x="-101" y="45" font-size="11" text-anchor="end" fill="#666666" font-family="Verdana, sans-serif">Initialization Request</text>
<path d="M-5,63 L-5,73 L0,68 Z" fill="#5cb85c" stroke="none" />
<text x="12" y="72" font-size="12" text-anchor="start" font-family="Consolas, monospace">REQ</text>
<text x="-31" y="71" font-size="11" text-anchor="end" fill="#888" font-style="italic" font-family="Verdana, sans-serif">Event</text>
<text x="-101" y="71" font-size="11" text-anchor="end" fill="#666666" font-family="Verdana, sans-serif">Normal Execution Request</text>
<path d="M-5,144 L-5,154 L0,149 Z" fill="#0066cc" stroke="none" />
<text x="12" y="153" font-size="12" text-anchor="start" font-family="Consolas, monospace">QI</text>
<text x="-31" y="152" font-size="11" text-anchor="end" fill="#0066cc" font-style="italic" font-family="Verdana, sans-serif">BOOL</text>
<text x="-101" y="152" font-size="11" text-anchor="end" fill="#666666" font-family="Verdana, sans-serif">Input event qualifier</text>
<path d="M-5,170 L-5,180 L0,175 Z" fill="#0066cc" stroke="none" />
<text x="12" y="179" font-size="12" text-anchor="start" font-family="Consolas, monospace">MI</text>
<text x="-31" y="178" font-size="11" text-anchor="end" fill="#0066cc" font-style="italic" font-family="Verdana, sans-serif">REAL</text>
<text x="-101" y="178" font-size="11" text-anchor="end" fill="#666666" font-family="Verdana, sans-serif">MID Setting can e.g. be 0.5 meaning 50%</text>
<path d="M-5,196 L-5,206 L0,201 Z" fill="#0066cc" stroke="none" />
<text x="12" y="205" font-size="12" text-anchor="start" font-family="Consolas, monospace">DEAD</text>
<text x="-31" y="204" font-size="11" text-anchor="end" fill="#0066cc" font-style="italic" font-family="Verdana, sans-serif">REAL</text>
<text x="-132" y="204" font-size="11" text-anchor="end" fill="#666666" font-family="Verdana, sans-serif">Deadband around MID can be e.g. 0.1 meaning 10%</text>
<path d="M-5,222 L-5,232 L0,227 Z" fill="#0066cc" stroke="none" />
<text x="12" y="231" font-size="12" text-anchor="start" font-family="Consolas, monospace">HYSTERESIS</text>
<text x="-31" y="230" font-size="11" text-anchor="end" fill="#0066cc" font-style="italic" font-family="Verdana, sans-serif">REAL</text>
<text x="-101" y="230" font-size="11" text-anchor="end" fill="#666666" font-family="Verdana, sans-serif">Hysteresis can be 0.1 meaning 10%</text>
<path d="M-5,248 L-5,258 L0,253 Z" fill="#0066cc" stroke="none" />
<text x="12" y="257" font-size="12" text-anchor="start" font-family="Consolas, monospace">INPUT</text>
<text x="-31" y="256" font-size="11" text-anchor="end" fill="#0066cc" font-style="italic" font-family="Verdana, sans-serif">REAL</text>
<text x="-101" y="256" font-size="11" text-anchor="end" fill="#666666" font-family="Verdana, sans-serif">Value</text>
<path d="M180,37 L180,47 L185,42 Z" fill="#5cb85c" stroke="none" />
<text x="168" y="46" font-size="12" text-anchor="end" font-family="Consolas, monospace">INITO</text>
<text x="211" y="45" font-size="11" text-anchor="start" fill="#888" font-style="italic" font-family="Verdana, sans-serif">Event</text>
<text x="281" y="45" font-size="11" text-anchor="start" fill="#666666" font-family="Verdana, sans-serif">Initialization Confirm</text>
<path d="M180,63 L180,73 L185,68 Z" fill="#5cb85c" stroke="none" />
<text x="168" y="72" font-size="12" text-anchor="end" font-family="Consolas, monospace">CNF</text>
<text x="211" y="71" font-size="11" text-anchor="start" fill="#888" font-style="italic" font-family="Verdana, sans-serif">Event</text>
<text x="281" y="71" font-size="11" text-anchor="start" fill="#666666" font-family="Verdana, sans-serif">Execution Confirmation</text>
<path d="M180,144 L180,154 L185,149 Z" fill="#0066cc" stroke="none" />
<text x="168" y="153" font-size="12" text-anchor="end" font-family="Consolas, monospace">QO</text>
<text x="211" y="152" font-size="11" text-anchor="start" fill="#0066cc" font-style="italic" font-family="Verdana, sans-serif">BOOL</text>
<path d="M180,170 L180,180 L185,175 Z" fill="#0066cc" stroke="none" />
<text x="168" y="179" font-size="12" text-anchor="end" font-family="Consolas, monospace">DO_UP</text>
<text x="211" y="178" font-size="11" text-anchor="start" fill="#0066cc" font-style="italic" font-family="Verdana, sans-serif">BOOL</text>
<text x="281" y="178" font-size="11" text-anchor="start" fill="#666666" font-family="Verdana, sans-serif"> UP</text>
<path d="M180,196 L180,206 L185,201 Z" fill="#0066cc" stroke="none" />
<text x="168" y="205" font-size="12" text-anchor="end" font-family="Consolas, monospace">DO_DOWN</text>
<text x="211" y="204" font-size="11" text-anchor="start" fill="#0066cc" font-style="italic" font-family="Verdana, sans-serif">BOOL</text>
<text x="281" y="204" font-size="11" text-anchor="start" fill="#666666" font-family="Verdana, sans-serif">DOWN</text>
<path d="M-12,42 L-12,149" stroke="#404040" stroke-width="1" />
<path d="M0,42 L-12,42" stroke="#404040" />
<rect x="-14" y="40" width="4" height="4" fill="white" stroke="black" stroke-width="1" />
<path d="M-12,149 L-5,149" stroke="#404040" />
<rect x="-14" y="147" width="4" height="4" fill="white" stroke="black" stroke-width="1" />
<path d="M-20,68 L-20,253" stroke="#404040" stroke-width="1" />
<path d="M0,68 L-20,68" stroke="#404040" />
<rect x="-22" y="66" width="4" height="4" fill="white" stroke="black" stroke-width="1" />
<path d="M-20,149 L-5,149" stroke="#404040" />
<rect x="-22" y="147" width="4" height="4" fill="white" stroke="black" stroke-width="1" />
<path d="M-20,175 L-5,175" stroke="#404040" />
<rect x="-22" y="173" width="4" height="4" fill="white" stroke="black" stroke-width="1" />
<path d="M-20,201 L-5,201" stroke="#404040" />
<rect x="-22" y="199" width="4" height="4" fill="white" stroke="black" stroke-width="1" />
<path d="M-20,253 L-5,253" stroke="#404040" />
<rect x="-22" y="251" width="4" height="4" fill="white" stroke="black" stroke-width="1" />
<path d="M-20,227 L-5,227" stroke="#404040" />
<rect x="-22" y="225" width="4" height="4" fill="white" stroke="black" stroke-width="1" />
<path d="M192,42 L192,149" stroke="#404040" stroke-width="1" />
<path d="M180,42 L192,42" stroke="#404040" />
<rect x="190" y="40" width="4" height="4" fill="white" stroke="black" stroke-width="1" />
<path d="M192,149 L185,149" stroke="#404040" />
<rect x="190" y="147" width="4" height="4" fill="white" stroke="black" stroke-width="1" />
<path d="M200,68 L200,201" stroke="#404040" stroke-width="1" />
<path d="M180,68 L200,68" stroke="#404040" />
<rect x="198" y="66" width="4" height="4" fill="white" stroke="black" stroke-width="1" />
<path d="M200,175 L185,175" stroke="#404040" />
<rect x="198" y="173" width="4" height="4" fill="white" stroke="black" stroke-width="1" />
<path d="M200,201 L185,201" stroke="#404040" />
<rect x="198" y="199" width="4" height="4" fill="white" stroke="black" stroke-width="1" />
</svg>