<?xml version="1.0" encoding="UTF-8"?>
<svg xmlns="http://www.w3.org/2000/svg" xmlns:xlink="http://www.w3.org/1999/xlink"
     width="1044" height="457" viewBox="-596 -20 1044 457">
<defs>
</defs>
<rect x="3" y="3" width="150" height="407" fill="#000000" fill-opacity="0.1" rx="2" ry="2" />
<path d="M0,0 H150 V222 H144 V262 H150 V407 H0 V262 H6 V222 H0 Z" fill="#ffffff" stroke="#000000" stroke-width="2" />
<path d="M0,30 L150,30" stroke="#000000" stroke-width="1" />
<text x="75.0" y="240.0" font-size="14" fontWeight="bold" font-family="Verdana, sans-serif" font-style="italic" text-anchor="middle" dominant-baseline="central">RampLimitFS</text>
<text x="75.0" y="254.0" font-size="10" fill="#000" font-family="Consolas, monospace" text-anchor="middle" dominant-baseline="central">3.0</text>
<path d="M-5,37 L-5,47 L0,42 Z" fill="#63B31F" stroke="none" />
<text x="12" y="46" font-size="12" text-anchor="start" font-family="Consolas, monospace">ZERO</text>
<text x="-71" y="45" font-size="11" text-anchor="end" fill="#888" font-style="italic" font-family="Verdana, sans-serif">Event</text>
<text x="-141" y="45" font-size="11" text-anchor="end" fill="#666666" font-family="Verdana, sans-serif">Set OUT to VAL_ZERO</text>
<path d="M-5,63 L-5,73 L0,68 Z" fill="#63B31F" stroke="none" />
<text x="12" y="72" font-size="12" text-anchor="start" font-family="Consolas, monospace">UP_SLOW</text>
<text x="-71" y="71" font-size="11" text-anchor="end" fill="#888" font-style="italic" font-family="Verdana, sans-serif">Event</text>
<text x="-141" y="71" font-size="11" text-anchor="end" fill="#666666" font-family="Verdana, sans-serif">Increase OUT by SLOW</text>
<path d="M-5,89 L-5,99 L0,94 Z" fill="#63B31F" stroke="none" />
<text x="12" y="98" font-size="12" text-anchor="start" font-family="Consolas, monospace">UP_FAST</text>
<text x="-71" y="97" font-size="11" text-anchor="end" fill="#888" font-style="italic" font-family="Verdana, sans-serif">Event</text>
<text x="-141" y="97" font-size="11" text-anchor="end" fill="#666666" font-family="Verdana, sans-serif">Increase OUT by FAST</text>
<path d="M-5,115 L-5,125 L0,120 Z" fill="#63B31F" stroke="none" />
<text x="12" y="124" font-size="12" text-anchor="start" font-family="Consolas, monospace">DOWN_SLOW</text>
<text x="-71" y="123" font-size="11" text-anchor="end" fill="#888" font-style="italic" font-family="Verdana, sans-serif">Event</text>
<text x="-141" y="123" font-size="11" text-anchor="end" fill="#666666" font-family="Verdana, sans-serif">Decrease OUT by SLOW</text>
<path d="M-5,141 L-5,151 L0,146 Z" fill="#63B31F" stroke="none" />
<text x="12" y="150" font-size="12" text-anchor="start" font-family="Consolas, monospace">DOWN_FAST</text>
<text x="-71" y="149" font-size="11" text-anchor="end" fill="#888" font-style="italic" font-family="Verdana, sans-serif">Event</text>
<text x="-141" y="149" font-size="11" text-anchor="end" fill="#666666" font-family="Verdana, sans-serif">Decrease OUT by FAST</text>
<path d="M-5,167 L-5,177 L0,172 Z" fill="#63B31F" stroke="none" />
<text x="12" y="176" font-size="12" text-anchor="start" font-family="Consolas, monospace">FULL</text>
<text x="-71" y="175" font-size="11" text-anchor="end" fill="#888" font-style="italic" font-family="Verdana, sans-serif">Event</text>
<text x="-141" y="175" font-size="11" text-anchor="end" fill="#666666" font-family="Verdana, sans-serif">Set OUT to VAL_FULL</text>
<path d="M-5,193 L-5,203 L0,198 Z" fill="#63B31F" stroke="none" />
<text x="12" y="202" font-size="12" text-anchor="start" font-family="Consolas, monospace">LOAD</text>
<text x="-71" y="201" font-size="11" text-anchor="end" fill="#888" font-style="italic" font-family="Verdana, sans-serif">Event</text>
<text x="-141" y="201" font-size="11" text-anchor="end" fill="#666666" font-family="Verdana, sans-serif">Load PV into OUT</text>
<path d="M-5,274 L-5,284 L0,279 Z" fill="#18519E" stroke="none" />
<text x="12" y="283" font-size="12" text-anchor="start" font-family="Consolas, monospace">PV</text>
<text x="-71" y="282" font-size="11" text-anchor="end" fill="#18519E" font-style="italic" font-family="Verdana, sans-serif">DINT</text>
<text x="-141" y="282" font-size="11" text-anchor="end" fill="#666666" font-family="Verdana, sans-serif">Preset Value</text>
<path d="M-5,300 L-5,310 L0,305 Z" fill="#18519E" stroke="none" />
<text x="12" y="309" font-size="12" text-anchor="start" font-family="Consolas, monospace">VAL_ZERO</text>
<text x="-71" y="308" font-size="11" text-anchor="end" fill="#18519E" font-style="italic" font-family="Verdana, sans-serif">DINT</text>
<text x="-141" y="308" font-size="11" text-anchor="end" fill="#666666" font-family="Verdana, sans-serif">Minimum Value</text>
<path d="M-5,326 L-5,336 L0,331 Z" fill="#18519E" stroke="none" />
<text x="12" y="335" font-size="12" text-anchor="start" font-family="Consolas, monospace">SLOW</text>
<text x="-71" y="334" font-size="11" text-anchor="end" fill="#18519E" font-style="italic" font-family="Verdana, sans-serif">DINT</text>
<text x="-141" y="334" font-size="11" text-anchor="end" fill="#666666" font-family="Verdana, sans-serif">Value for slower Change</text>
<path d="M-5,352 L-5,362 L0,357 Z" fill="#18519E" stroke="none" />
<text x="12" y="361" font-size="12" text-anchor="start" font-family="Consolas, monospace">FAST</text>
<text x="-71" y="360" font-size="11" text-anchor="end" fill="#18519E" font-style="italic" font-family="Verdana, sans-serif">DINT</text>
<text x="-141" y="360" font-size="11" text-anchor="end" fill="#666666" font-family="Verdana, sans-serif">Value for faster change</text>
<path d="M-5,378 L-5,388 L0,383 Z" fill="#18519E" stroke="none" />
<text x="12" y="387" font-size="12" text-anchor="start" font-family="Consolas, monospace">VAL_FULL</text>
<text x="-71" y="386" font-size="11" text-anchor="end" fill="#18519E" font-style="italic" font-family="Verdana, sans-serif">DINT</text>
<text x="-141" y="386" font-size="11" text-anchor="end" fill="#666666" font-family="Verdana, sans-serif">Maximum Value</text>
<path d="M150,37 L150,47 L155,42 Z" fill="#63B31F" stroke="none" />
<text x="138" y="46" font-size="12" text-anchor="end" font-family="Consolas, monospace">CNF</text>
<text x="173" y="45" font-size="11" text-anchor="start" fill="#888" font-style="italic" font-family="Verdana, sans-serif">Event</text>
<text x="243" y="45" font-size="11" text-anchor="start" fill="#666666" font-family="Verdana, sans-serif">Execution Confirmation</text>
<path d="M150,274 L150,284 L155,279 Z" fill="#18519E" stroke="none" />
<text x="138" y="283" font-size="12" text-anchor="end" font-family="Consolas, monospace">OUT</text>
<text x="173" y="282" font-size="11" text-anchor="start" fill="#18519E" font-style="italic" font-family="Verdana, sans-serif">DINT</text>
<text x="243" y="282" font-size="11" text-anchor="start" fill="#666666" font-family="Verdana, sans-serif">Output</text>
<path d="M-12,42 L-12,305" stroke="#404040" stroke-width="1" />
<path d="M0,42 L-12,42" stroke="#404040" />
<rect x="-14" y="40" width="4" height="4" fill="white" stroke="black" stroke-width="1" />
<path d="M-12,305 L-5,305" stroke="#404040" />
<rect x="-14" y="303" width="4" height="4" fill="white" stroke="black" stroke-width="1" />
<path d="M-20,68 L-20,331" stroke="#404040" stroke-width="1" />
<path d="M0,68 L-20,68" stroke="#404040" />
<rect x="-22" y="66" width="4" height="4" fill="white" stroke="black" stroke-width="1" />
<path d="M-20,331 L-5,331" stroke="#404040" />
<rect x="-22" y="329" width="4" height="4" fill="white" stroke="black" stroke-width="1" />
<path d="M-28,94 L-28,357" stroke="#404040" stroke-width="1" />
<path d="M0,94 L-28,94" stroke="#404040" />
<rect x="-30" y="92" width="4" height="4" fill="white" stroke="black" stroke-width="1" />
<path d="M-28,357 L-5,357" stroke="#404040" />
<rect x="-30" y="355" width="4" height="4" fill="white" stroke="black" stroke-width="1" />
<path d="M-36,120 L-36,331" stroke="#404040" stroke-width="1" />
<path d="M0,120 L-36,120" stroke="#404040" />
<rect x="-38" y="118" width="4" height="4" fill="white" stroke="black" stroke-width="1" />
<path d="M-36,331 L-5,331" stroke="#404040" />
<rect x="-38" y="329" width="4" height="4" fill="white" stroke="black" stroke-width="1" />
<path d="M-44,146 L-44,357" stroke="#404040" stroke-width="1" />
<path d="M0,146 L-44,146" stroke="#404040" />
<rect x="-46" y="144" width="4" height="4" fill="white" stroke="black" stroke-width="1" />
<path d="M-44,357 L-5,357" stroke="#404040" />
<rect x="-46" y="355" width="4" height="4" fill="white" stroke="black" stroke-width="1" />
<path d="M-52,172 L-52,383" stroke="#404040" stroke-width="1" />
<path d="M0,172 L-52,172" stroke="#404040" />
<rect x="-54" y="170" width="4" height="4" fill="white" stroke="black" stroke-width="1" />
<path d="M-52,383 L-5,383" stroke="#404040" />
<rect x="-54" y="381" width="4" height="4" fill="white" stroke="black" stroke-width="1" />
<path d="M-60,198 L-60,279" stroke="#404040" stroke-width="1" />
<path d="M0,198 L-60,198" stroke="#404040" />
<rect x="-62" y="196" width="4" height="4" fill="white" stroke="black" stroke-width="1" />
<path d="M-60,279 L-5,279" stroke="#404040" />
<rect x="-62" y="277" width="4" height="4" fill="white" stroke="black" stroke-width="1" />
<path d="M162,42 L162,279" stroke="#404040" stroke-width="1" />
<path d="M150,42 L162,42" stroke="#404040" />
<rect x="160" y="40" width="4" height="4" fill="white" stroke="black" stroke-width="1" />
<path d="M162,279 L155,279" stroke="#404040" />
<rect x="160" y="277" width="4" height="4" fill="white" stroke="black" stroke-width="1" />
</svg>