<?xml version="1.0" encoding="UTF-8"?>
<svg xmlns="http://www.w3.org/2000/svg" xmlns:xlink="http://www.w3.org/1999/xlink"
     width="1380" height="353" viewBox="-556 -20 1380 353">
<defs>
</defs>
<rect x="3" y="3" width="260" height="303" fill="#000000" fill-opacity="0.1" rx="2" ry="2" />
<path d="M0,0 H260 V118 H254 V158 H260 V303 H0 V158 H6 V118 H0 Z" fill="#ffffff" stroke="#000000" stroke-width="2" />
<path d="M0,30 L260,30" stroke="#000000" stroke-width="1" />
<text x="130.0" y="136.0" font-size="14" fontWeight="bold" font-family="Verdana, sans-serif" font-style="italic" text-anchor="middle" dominant-baseline="central">DataPanel_MI_IW_4_20mA</text>
<text x="130.0" y="150.0" font-size="10" fill="#000" font-family="Consolas, monospace" text-anchor="middle" dominant-baseline="central">1.0</text>
<path d="M-5,37 L-5,47 L0,42 Z" fill="#63B31F" stroke="none" />
<text x="12" y="46" font-size="12" text-anchor="start" font-family="Consolas, monospace">INIT</text>
<text x="-31" y="45" font-size="11" text-anchor="end" fill="#888" font-style="italic" font-family="Verdana, sans-serif">Event</text>
<text x="-157" y="45" font-size="11" text-anchor="end" fill="#666666" font-family="Verdana, sans-serif">Service Initialization</text>
<path d="M-5,63 L-5,73 L0,68 Z" fill="#63B31F" stroke="none" />
<text x="12" y="72" font-size="12" text-anchor="start" font-family="Consolas, monospace">REQ</text>
<text x="-31" y="71" font-size="11" text-anchor="end" fill="#888" font-style="italic" font-family="Verdana, sans-serif">Event</text>
<text x="-157" y="71" font-size="11" text-anchor="end" fill="#666666" font-family="Verdana, sans-serif">Service Request</text>
<path d="M-5,170 L-5,180 L0,175 Z" fill="#9FA48A" stroke="none" />
<text x="12" y="179" font-size="12" text-anchor="start" font-family="Consolas, monospace">QI</text>
<text x="-31" y="178" font-size="11" text-anchor="end" fill="#9FA48A" font-style="italic" font-family="Verdana, sans-serif">BOOL</text>
<text x="-157" y="178" font-size="11" text-anchor="end" fill="#666666" font-family="Verdana, sans-serif">Event Input Qualifier</text>
<path d="M-5,196 L-5,206 L0,201 Z" fill="#BD8663" stroke="none" />
<text x="12" y="205" font-size="12" text-anchor="start" font-family="Consolas, monospace">PARAMS</text>
<text x="-31" y="204" font-size="11" text-anchor="end" fill="#BD8663" font-style="italic" font-family="Verdana, sans-serif">STRING</text>
<text x="-157" y="204" font-size="11" text-anchor="end" fill="#666666" font-family="Verdana, sans-serif">Service Parameters</text>
<path d="M-5,222 L-5,232 L0,227 Z" fill="#18519E" stroke="none" />
<text x="12" y="231" font-size="12" text-anchor="start" font-family="Consolas, monospace">u8SAMember</text>
<text x="-31" y="230" font-size="11" text-anchor="end" fill="#18519E" font-style="italic" font-family="Verdana, sans-serif">USINT</text>
<text x="-157" y="230" font-size="11" text-anchor="end" fill="#666666" font-family="Verdana, sans-serif">Node SA 224..239</text>
<path d="M-5,248 L-5,258 L0,253 Z" fill="#000000" stroke="none" />
<text x="12" y="257" font-size="12" text-anchor="start" font-family="Consolas, monospace">Input</text>
<text x="-31" y="256" font-size="11" text-anchor="end" fill="#000000" font-style="italic" font-family="Verdana, sans-serif">DataPanel_MI_AI_S</text>
<text x="-157" y="256" font-size="11" text-anchor="end" fill="#666666" font-family="Verdana, sans-serif">Identify the Input AnalogInput_1A..8B</text>
<path d="M-5,274 L-5,284 L0,279 Z" fill="#82A3A9" stroke="none" />
<text x="12" y="283" font-size="12" text-anchor="start" font-family="Consolas, monospace">AnalogInput_hysteresis</text>
<text x="-31" y="282" font-size="11" text-anchor="end" fill="#82A3A9" font-style="italic" font-family="Verdana, sans-serif">WORD</text>
<path d="M260,37 L260,47 L265,42 Z" fill="#63B31F" stroke="none" />
<text x="248" y="46" font-size="12" text-anchor="end" font-family="Consolas, monospace">INITO</text>
<text x="299" y="45" font-size="11" text-anchor="start" fill="#888" font-style="italic" font-family="Verdana, sans-serif">Event</text>
<text x="369" y="45" font-size="11" text-anchor="start" fill="#666666" font-family="Verdana, sans-serif">Initialization Confirm</text>
<path d="M260,63 L260,73 L265,68 Z" fill="#63B31F" stroke="none" />
<text x="248" y="72" font-size="12" text-anchor="end" font-family="Consolas, monospace">CNF</text>
<text x="299" y="71" font-size="11" text-anchor="start" fill="#888" font-style="italic" font-family="Verdana, sans-serif">Event</text>
<text x="369" y="71" font-size="11" text-anchor="start" fill="#666666" font-family="Verdana, sans-serif">Confirmation of Requested Service</text>
<path d="M260,89 L260,99 L265,94 Z" fill="#63B31F" stroke="none" />
<text x="248" y="98" font-size="12" text-anchor="end" font-family="Consolas, monospace">IND</text>
<text x="299" y="97" font-size="11" text-anchor="start" fill="#888" font-style="italic" font-family="Verdana, sans-serif">Event</text>
<text x="369" y="97" font-size="11" text-anchor="start" fill="#666666" font-family="Verdana, sans-serif">Indication from Resource</text>
<path d="M260,170 L260,180 L265,175 Z" fill="#9FA48A" stroke="none" />
<text x="248" y="179" font-size="12" text-anchor="end" font-family="Consolas, monospace">QO</text>
<text x="299" y="178" font-size="11" text-anchor="start" fill="#9FA48A" font-style="italic" font-family="Verdana, sans-serif">BOOL</text>
<text x="369" y="178" font-size="11" text-anchor="start" fill="#666666" font-family="Verdana, sans-serif">Event Output Qualifier</text>
<path d="M260,196 L260,206 L265,201 Z" fill="#BD8663" stroke="none" />
<text x="248" y="205" font-size="12" text-anchor="end" font-family="Consolas, monospace">STATUS</text>
<text x="299" y="204" font-size="11" text-anchor="start" fill="#BD8663" font-style="italic" font-family="Verdana, sans-serif">STRING</text>
<text x="369" y="204" font-size="11" text-anchor="start" fill="#666666" font-family="Verdana, sans-serif">Service Status</text>
<path d="M260,222 L260,232 L265,227 Z" fill="#82A3A9" stroke="none" />
<text x="248" y="231" font-size="12" text-anchor="end" font-family="Consolas, monospace">IN</text>
<text x="299" y="230" font-size="11" text-anchor="start" fill="#82A3A9" font-style="italic" font-family="Verdana, sans-serif">WORD</text>
<text x="369" y="230" font-size="11" text-anchor="start" fill="#666666" font-family="Verdana, sans-serif">Input data from resource</text>
<path d="M-12,42 L-12,279" stroke="#404040" stroke-width="1" />
<path d="M0,42 L-12,42" stroke="#404040" />
<rect x="-14" y="40" width="4" height="4" fill="white" stroke="black" stroke-width="1" />
<path d="M-12,175 L-5,175" stroke="#404040" />
<rect x="-14" y="173" width="4" height="4" fill="white" stroke="black" stroke-width="1" />
<path d="M-12,201 L-5,201" stroke="#404040" />
<rect x="-14" y="199" width="4" height="4" fill="white" stroke="black" stroke-width="1" />
<path d="M-12,227 L-5,227" stroke="#404040" />
<rect x="-14" y="225" width="4" height="4" fill="white" stroke="black" stroke-width="1" />
<path d="M-12,253 L-5,253" stroke="#404040" />
<rect x="-14" y="251" width="4" height="4" fill="white" stroke="black" stroke-width="1" />
<path d="M-12,279 L-5,279" stroke="#404040" />
<rect x="-14" y="277" width="4" height="4" fill="white" stroke="black" stroke-width="1" />
<path d="M-20,68 L-20,175" stroke="#404040" stroke-width="1" />
<path d="M0,68 L-20,68" stroke="#404040" />
<rect x="-22" y="66" width="4" height="4" fill="white" stroke="black" stroke-width="1" />
<path d="M-20,175 L-5,175" stroke="#404040" />
<rect x="-22" y="173" width="4" height="4" fill="white" stroke="black" stroke-width="1" />
<path d="M272,42 L272,201" stroke="#404040" stroke-width="1" />
<path d="M260,42 L272,42" stroke="#404040" />
<rect x="270" y="40" width="4" height="4" fill="white" stroke="black" stroke-width="1" />
<path d="M272,175 L265,175" stroke="#404040" />
<rect x="270" y="173" width="4" height="4" fill="white" stroke="black" stroke-width="1" />
<path d="M272,201 L265,201" stroke="#404040" />
<rect x="270" y="199" width="4" height="4" fill="white" stroke="black" stroke-width="1" />
<path d="M280,68 L280,227" stroke="#404040" stroke-width="1" />
<path d="M260,68 L280,68" stroke="#404040" />
<rect x="278" y="66" width="4" height="4" fill="white" stroke="black" stroke-width="1" />
<path d="M280,175 L265,175" stroke="#404040" />
<rect x="278" y="173" width="4" height="4" fill="white" stroke="black" stroke-width="1" />
<path d="M280,201 L265,201" stroke="#404040" />
<rect x="278" y="199" width="4" height="4" fill="white" stroke="black" stroke-width="1" />
<path d="M280,227 L265,227" stroke="#404040" />
<rect x="278" y="225" width="4" height="4" fill="white" stroke="black" stroke-width="1" />
<path d="M288,94 L288,227" stroke="#404040" stroke-width="1" />
<path d="M260,94 L288,94" stroke="#404040" />
<rect x="286" y="92" width="4" height="4" fill="white" stroke="black" stroke-width="1" />
<path d="M288,175 L265,175" stroke="#404040" />
<rect x="286" y="173" width="4" height="4" fill="white" stroke="black" stroke-width="1" />
<path d="M288,201 L265,201" stroke="#404040" />
<rect x="286" y="199" width="4" height="4" fill="white" stroke="black" stroke-width="1" />
<path d="M288,227 L265,227" stroke="#404040" />
<rect x="286" y="225" width="4" height="4" fill="white" stroke="black" stroke-width="1" />
</svg>