<?xml version="1.0" encoding="UTF-8"?>
<svg xmlns="http://www.w3.org/2000/svg" xmlns:xlink="http://www.w3.org/1999/xlink"
     width="992" height="301" viewBox="-564 -20 992 301">
<defs>
</defs>
<rect x="3" y="3" width="130" height="251" fill="#000000" fill-opacity="0.1" rx="2" ry="2" />
<path d="M0,0 H130 V118 H124 V158 H130 V251 H0 V158 H6 V118 H0 Z" fill="#ffffff" stroke="#606060" stroke-width="2" />
<path d="M0,30 L130,30" stroke="#606060" stroke-width="1" />
<text x="65.0" y="136.0" font-size="14" fontWeight="bold" font-family="Verdana, sans-serif" font-style="italic" text-anchor="middle" dominant-baseline="central">F_SEL_E_3</text>
<text x="65.0" y="150.0" font-size="10" fill="#000" font-family="Consolas, monospace" text-anchor="middle" dominant-baseline="central">3.0</text>
<path d="M-5,37 L-5,47 L0,42 Z" fill="#5cb85c" stroke="none" />
<text x="12" y="46" font-size="12" text-anchor="start" font-family="Consolas, monospace">REQ1</text>
<text x="-39" y="45" font-size="11" text-anchor="end" fill="#888" font-style="italic" font-family="Verdana, sans-serif">Event</text>
<path d="M-5,63 L-5,73 L0,68 Z" fill="#5cb85c" stroke="none" />
<text x="12" y="72" font-size="12" text-anchor="start" font-family="Consolas, monospace">REQ2</text>
<text x="-39" y="71" font-size="11" text-anchor="end" fill="#888" font-style="italic" font-family="Verdana, sans-serif">Event</text>
<path d="M-5,89 L-5,99 L0,94 Z" fill="#5cb85c" stroke="none" />
<text x="12" y="98" font-size="12" text-anchor="start" font-family="Consolas, monospace">REQ3</text>
<text x="-39" y="97" font-size="11" text-anchor="end" fill="#888" font-style="italic" font-family="Verdana, sans-serif">Event</text>
<path d="M-5,170 L-5,180 L0,175 Z" fill="#0066cc" stroke="none" />
<text x="12" y="179" font-size="12" text-anchor="start" font-family="Consolas, monospace">IN1</text>
<text x="-39" y="178" font-size="11" text-anchor="end" fill="#0066cc" font-style="italic" font-family="Verdana, sans-serif">ANY</text>
<text x="-109" y="178" font-size="11" text-anchor="end" fill="#666666" font-family="Verdana, sans-serif">Selectable input variable</text>
<path d="M-5,196 L-5,206 L0,201 Z" fill="#0066cc" stroke="none" />
<text x="12" y="205" font-size="12" text-anchor="start" font-family="Consolas, monospace">IN2</text>
<text x="-39" y="204" font-size="11" text-anchor="end" fill="#0066cc" font-style="italic" font-family="Verdana, sans-serif">ANY</text>
<text x="-109" y="204" font-size="11" text-anchor="end" fill="#666666" font-family="Verdana, sans-serif">Selectable input variable</text>
<path d="M-5,222 L-5,232 L0,227 Z" fill="#0066cc" stroke="none" />
<text x="12" y="231" font-size="12" text-anchor="start" font-family="Consolas, monospace">IN3</text>
<text x="-39" y="230" font-size="11" text-anchor="end" fill="#0066cc" font-style="italic" font-family="Verdana, sans-serif">ANY</text>
<text x="-109" y="230" font-size="11" text-anchor="end" fill="#666666" font-family="Verdana, sans-serif">Selectable input variable</text>
<path d="M130,37 L130,47 L135,42 Z" fill="#5cb85c" stroke="none" />
<text x="118" y="46" font-size="12" text-anchor="end" font-family="Consolas, monospace">CNF</text>
<text x="153" y="45" font-size="11" text-anchor="start" fill="#888" font-style="italic" font-family="Verdana, sans-serif">Event</text>
<text x="223" y="45" font-size="11" text-anchor="start" fill="#666666" font-family="Verdana, sans-serif">Confirmation of Requested Service</text>
<path d="M130,170 L130,180 L135,175 Z" fill="#0066cc" stroke="none" />
<text x="118" y="179" font-size="12" text-anchor="end" font-family="Consolas, monospace">OUT</text>
<text x="153" y="178" font-size="11" text-anchor="start" fill="#0066cc" font-style="italic" font-family="Verdana, sans-serif">ANY</text>
<text x="223" y="178" font-size="11" text-anchor="start" fill="#666666" font-family="Verdana, sans-serif">Selected input</text>
<path d="M-12,42 L-12,175" stroke="#404040" stroke-width="1" />
<path d="M0,42 L-12,42" stroke="#404040" />
<rect x="-14" y="40" width="4" height="4" fill="white" stroke="black" stroke-width="1" />
<path d="M-12,175 L-5,175" stroke="#404040" />
<rect x="-14" y="173" width="4" height="4" fill="white" stroke="black" stroke-width="1" />
<path d="M-20,68 L-20,201" stroke="#404040" stroke-width="1" />
<path d="M0,68 L-20,68" stroke="#404040" />
<rect x="-22" y="66" width="4" height="4" fill="white" stroke="black" stroke-width="1" />
<path d="M-20,201 L-5,201" stroke="#404040" />
<rect x="-22" y="199" width="4" height="4" fill="white" stroke="black" stroke-width="1" />
<path d="M-28,94 L-28,227" stroke="#404040" stroke-width="1" />
<path d="M0,94 L-28,94" stroke="#404040" />
<rect x="-30" y="92" width="4" height="4" fill="white" stroke="black" stroke-width="1" />
<path d="M-28,227 L-5,227" stroke="#404040" />
<rect x="-30" y="225" width="4" height="4" fill="white" stroke="black" stroke-width="1" />
<path d="M142,42 L142,175" stroke="#404040" stroke-width="1" />
<path d="M130,42 L142,42" stroke="#404040" />
<rect x="140" y="40" width="4" height="4" fill="white" stroke="black" stroke-width="1" />
<path d="M142,175 L135,175" stroke="#404040" />
<rect x="140" y="173" width="4" height="4" fill="white" stroke="black" stroke-width="1" />
</svg>