<?xml version="1.0" encoding="UTF-8"?>
<svg xmlns="http://www.w3.org/2000/svg" xmlns:xlink="http://www.w3.org/1999/xlink"
     width="1230.4528434905835" height="800" viewBox="0 0 1230.4528434905835 800">
<defs>
<marker markerWidth="20" markerHeight="15" viewBox="-10 -5 20 15" orient="auto" markerUnits="strokeWidth">
<path d="M -10 -5 L 0 0 L -10 5 Z" fill="#404040" />
</marker>
</defs>
<rect x="0" y="0" width="1230.4528434905835" height="800" fill="#ffffff" />
<text x="615.0" y="25" font-size="14" fontWeight="bold" font-family="Verdana, sans-serif" fill="#000000" text-anchor="middle" dominant-baseline="central">ECC: sequence_ET_04_loop</text>
<rect x="113.15710941724925" y="55.578199444999285" width="80" height="32" fill="#f5f5f5" stroke="#000000" stroke-width="2" rx="8" ry="8" />
<text x="153.15710941724925" y="71.57819944499929" font-size="12" fontWeight="bold" font-family="Verdana, sans-serif" fill="#000000" text-anchor="middle" dominant-baseline="central">xSTART</text>
<rect x="113.15710941724925" y="624.0" width="80" height="32" fill="#f5f5f5" stroke="#000000" stroke-width="2" rx="8" ry="8" />
<text x="153.15710941724925" y="640.0" font-size="12" fontWeight="bold" font-family="Verdana, sans-serif" fill="#000000" text-anchor="middle" dominant-baseline="central">sRESET</text>
<rect x="203.15710941724925" y="624.0" width="161" height="92" fill="#ffffff" stroke="#cccccc" stroke-width="1" rx="4" ry="4" />
<path d="M193.15710941724925,640.0 L203.15710941724925,635.0" stroke="#000000" stroke-width="2" />
<path d="M283.1571094172492,624.0 L283.1571094172492,716.0" stroke="#cccccc" stroke-width="1" />
<rect x="203.15710941724925" y="628.0" width="80" height="14" fill="#e6f7e6" stroke="#cccccc" stroke-width="0.5" />
<text x="243.15710941724925" y="636.0" font-size="10" font-family="Consolas, monospace" fill="#000000" text-anchor="middle" dominant-baseline="central"></text>
<rect x="284.1571094172492" y="628.0" width="80" height="14" fill="#ffe6e6" stroke="#cccccc" stroke-width="0.5" />
<text x="324.1571094172492" y="636.0" font-size="10" font-family="Consolas, monospace" fill="#000000" text-anchor="middle" dominant-baseline="central">timeOut.STOP</text>
<path d="M203.15710941724925,642.0 L364.1571094172492,642.0" stroke="#cccccc" stroke-width="0.5" />
<rect x="203.15710941724925" y="642.0" width="80" height="14" fill="#e6f7e6" stroke="#cccccc" stroke-width="0.5" />
<text x="243.15710941724925" y="650.0" font-size="10" font-family="Consolas, monospace" fill="#000000" text-anchor="middle" dominant-baseline="central">State_01_X</text>
<rect x="284.1571094172492" y="642.0" width="80" height="14" fill="#ffe6e6" stroke="#cccccc" stroke-width="0.5" />
<text x="324.1571094172492" y="650.0" font-size="10" font-family="Consolas, monospace" fill="#000000" text-anchor="middle" dominant-baseline="central">EO_S1</text>
<path d="M203.15710941724925,656.0 L364.1571094172492,656.0" stroke="#cccccc" stroke-width="0.5" />
<rect x="203.15710941724925" y="656.0" width="80" height="14" fill="#e6f7e6" stroke="#cccccc" stroke-width="0.5" />
<text x="243.15710941724925" y="664.0" font-size="10" font-family="Consolas, monospace" fill="#000000" text-anchor="middle" dominant-baseline="central">State_02_X</text>
<rect x="284.1571094172492" y="656.0" width="80" height="14" fill="#ffe6e6" stroke="#cccccc" stroke-width="0.5" />
<text x="324.1571094172492" y="664.0" font-size="10" font-family="Consolas, monospace" fill="#000000" text-anchor="middle" dominant-baseline="central">EO_S2</text>
<path d="M203.15710941724925,670.0 L364.1571094172492,670.0" stroke="#cccccc" stroke-width="0.5" />
<rect x="203.15710941724925" y="670.0" width="80" height="14" fill="#e6f7e6" stroke="#cccccc" stroke-width="0.5" />
<text x="243.15710941724925" y="678.0" font-size="10" font-family="Consolas, monospace" fill="#000000" text-anchor="middle" dominant-baseline="central">State_03_X</text>
<rect x="284.1571094172492" y="670.0" width="80" height="14" fill="#ffe6e6" stroke="#cccccc" stroke-width="0.5" />
<text x="324.1571094172492" y="678.0" font-size="10" font-family="Consolas, monospace" fill="#000000" text-anchor="middle" dominant-baseline="central">EO_S3</text>
<path d="M203.15710941724925,684.0 L364.1571094172492,684.0" stroke="#cccccc" stroke-width="0.5" />
<rect x="203.15710941724925" y="684.0" width="80" height="14" fill="#e6f7e6" stroke="#cccccc" stroke-width="0.5" />
<text x="243.15710941724925" y="692.0" font-size="10" font-family="Consolas, monospace" fill="#000000" text-anchor="middle" dominant-baseline="central">State_04_X</text>
<rect x="284.1571094172492" y="684.0" width="80" height="14" fill="#ffe6e6" stroke="#cccccc" stroke-width="0.5" />
<text x="324.1571094172492" y="692.0" font-size="10" font-family="Consolas, monospace" fill="#000000" text-anchor="middle" dominant-baseline="central">EO_S4</text>
<path d="M203.15710941724925,698.0 L364.1571094172492,698.0" stroke="#cccccc" stroke-width="0.5" />
<rect x="203.15710941724925" y="698.0" width="80" height="14" fill="#e6f7e6" stroke="#cccccc" stroke-width="0.5" />
<text x="243.15710941724925" y="706.0" font-size="10" font-family="Consolas, monospace" fill="#000000" text-anchor="middle" dominant-baseline="central">State_00_C</text>
<rect x="284.1571094172492" y="698.0" width="80" height="14" fill="#ffe6e6" stroke="#cccccc" stroke-width="0.5" />
<text x="324.1571094172492" y="706.0" font-size="10" font-family="Consolas, monospace" fill="#000000" text-anchor="middle" dominant-baseline="central">CNF</text>
<rect x="868.6528434905836" y="55.578199444999285" width="84.8" height="32" fill="#f5f5f5" stroke="#000000" stroke-width="2" rx="8" ry="8" />
<text x="911.0528434905835" y="71.57819944499929" font-size="12" fontWeight="bold" font-family="Verdana, sans-serif" fill="#000000" text-anchor="middle" dominant-baseline="central">sState_01</text>
<rect x="963.4528434905835" y="55.578199444999285" width="167.0" height="78" fill="#ffffff" stroke="#cccccc" stroke-width="1" rx="4" ry="4" />
<path d="M953.4528434905835,71.57819944499929 L963.4528434905835,66.57819944499929" stroke="#000000" stroke-width="2" />
<path d="M1043.4528434905835,55.578199444999285 L1043.4528434905835,133.57819944499929" stroke="#cccccc" stroke-width="1" />
<rect x="963.4528434905835" y="59.578199444999285" width="80" height="14" fill="#e6f7e6" stroke="#cccccc" stroke-width="0.5" />
<text x="1003.4528434905835" y="67.57819944499929" font-size="10" font-family="Consolas, monospace" fill="#000000" text-anchor="middle" dominant-baseline="central"></text>
<rect x="1044.4528434905835" y="59.578199444999285" width="86.0" height="14" fill="#ffe6e6" stroke="#cccccc" stroke-width="0.5" />
<text x="1087.4528434905835" y="67.57819944499929" font-size="10" font-family="Consolas, monospace" fill="#000000" text-anchor="middle" dominant-baseline="central">timeOut.STOP</text>
<path d="M963.4528434905835,73.57819944499929 L1130.4528434905835,73.57819944499929" stroke="#cccccc" stroke-width="0.5" />
<rect x="963.4528434905835" y="73.57819944499929" width="80" height="14" fill="#e6f7e6" stroke="#cccccc" stroke-width="0.5" />
<text x="1003.4528434905835" y="81.57819944499929" font-size="10" font-family="Consolas, monospace" fill="#000000" text-anchor="middle" dominant-baseline="central">State_04_X</text>
<rect x="1044.4528434905835" y="73.57819944499929" width="86.0" height="14" fill="#ffe6e6" stroke="#cccccc" stroke-width="0.5" />
<text x="1087.4528434905835" y="81.57819944499929" font-size="10" font-family="Consolas, monospace" fill="#000000" text-anchor="middle" dominant-baseline="central">EO_S4</text>
<path d="M963.4528434905835,87.57819944499929 L1130.4528434905835,87.57819944499929" stroke="#cccccc" stroke-width="0.5" />
<rect x="963.4528434905835" y="87.57819944499929" width="80" height="14" fill="#e6f7e6" stroke="#cccccc" stroke-width="0.5" />
<text x="1003.4528434905835" y="95.57819944499929" font-size="10" font-family="Consolas, monospace" fill="#000000" text-anchor="middle" dominant-baseline="central">State_01_C</text>
<rect x="1044.4528434905835" y="87.57819944499929" width="86.0" height="14" fill="#ffe6e6" stroke="#cccccc" stroke-width="0.5" />
<text x="1087.4528434905835" y="95.57819944499929" font-size="10" font-family="Consolas, monospace" fill="#000000" text-anchor="middle" dominant-baseline="central">CNF</text>
<path d="M963.4528434905835,101.57819944499929 L1130.4528434905835,101.57819944499929" stroke="#cccccc" stroke-width="0.5" />
<rect x="963.4528434905835" y="101.57819944499929" width="80" height="14" fill="#e6f7e6" stroke="#cccccc" stroke-width="0.5" />
<text x="1003.4528434905835" y="109.57819944499929" font-size="10" font-family="Consolas, monospace" fill="#000000" text-anchor="middle" dominant-baseline="central">State_01_E</text>
<rect x="1044.4528434905835" y="101.57819944499929" width="86.0" height="14" fill="#ffe6e6" stroke="#cccccc" stroke-width="0.5" />
<text x="1087.4528434905835" y="109.57819944499929" font-size="10" font-family="Consolas, monospace" fill="#000000" text-anchor="middle" dominant-baseline="central">EO_S1</text>
<path d="M963.4528434905835,115.57819944499929 L1130.4528434905835,115.57819944499929" stroke="#cccccc" stroke-width="0.5" />
<rect x="963.4528434905835" y="115.57819944499929" width="80" height="14" fill="#e6f7e6" stroke="#cccccc" stroke-width="0.5" />
<text x="1003.4528434905835" y="123.57819944499929" font-size="10" font-family="Consolas, monospace" fill="#000000" text-anchor="middle" dominant-baseline="central"></text>
<rect x="1044.4528434905835" y="115.57819944499929" width="86.0" height="14" fill="#ffe6e6" stroke="#cccccc" stroke-width="0.5" />
<text x="1087.4528434905835" y="123.57819944499929" font-size="10" font-family="Consolas, monospace" fill="#000000" text-anchor="middle" dominant-baseline="central">timeOut.START</text>
<rect x="868.6528434905836" y="245.05213296333284" width="84.8" height="32" fill="#f5f5f5" stroke="#000000" stroke-width="2" rx="8" ry="8" />
<text x="911.0528434905835" y="261.05213296333284" font-size="12" fontWeight="bold" font-family="Verdana, sans-serif" fill="#000000" text-anchor="middle" dominant-baseline="central">sState_02</text>
<rect x="963.4528434905835" y="245.05213296333284" width="167.0" height="78" fill="#ffffff" stroke="#cccccc" stroke-width="1" rx="4" ry="4" />
<path d="M953.4528434905835,261.05213296333284 L963.4528434905835,256.05213296333284" stroke="#000000" stroke-width="2" />
<path d="M1043.4528434905835,245.05213296333284 L1043.4528434905835,323.05213296333284" stroke="#cccccc" stroke-width="1" />
<rect x="963.4528434905835" y="249.05213296333284" width="80" height="14" fill="#e6f7e6" stroke="#cccccc" stroke-width="0.5" />
<text x="1003.4528434905835" y="257.05213296333284" font-size="10" font-family="Consolas, monospace" fill="#000000" text-anchor="middle" dominant-baseline="central"></text>
<rect x="1044.4528434905835" y="249.05213296333284" width="86.0" height="14" fill="#ffe6e6" stroke="#cccccc" stroke-width="0.5" />
<text x="1087.4528434905835" y="257.05213296333284" font-size="10" font-family="Consolas, monospace" fill="#000000" text-anchor="middle" dominant-baseline="central">timeOut.STOP</text>
<path d="M963.4528434905835,263.05213296333284 L1130.4528434905835,263.05213296333284" stroke="#cccccc" stroke-width="0.5" />
<rect x="963.4528434905835" y="263.05213296333284" width="80" height="14" fill="#e6f7e6" stroke="#cccccc" stroke-width="0.5" />
<text x="1003.4528434905835" y="271.05213296333284" font-size="10" font-family="Consolas, monospace" fill="#000000" text-anchor="middle" dominant-baseline="central">State_01_X</text>
<rect x="1044.4528434905835" y="263.05213296333284" width="86.0" height="14" fill="#ffe6e6" stroke="#cccccc" stroke-width="0.5" />
<text x="1087.4528434905835" y="271.05213296333284" font-size="10" font-family="Consolas, monospace" fill="#000000" text-anchor="middle" dominant-baseline="central">EO_S1</text>
<path d="M963.4528434905835,277.05213296333284 L1130.4528434905835,277.05213296333284" stroke="#cccccc" stroke-width="0.5" />
<rect x="963.4528434905835" y="277.05213296333284" width="80" height="14" fill="#e6f7e6" stroke="#cccccc" stroke-width="0.5" />
<text x="1003.4528434905835" y="285.05213296333284" font-size="10" font-family="Consolas, monospace" fill="#000000" text-anchor="middle" dominant-baseline="central">State_02_C</text>
<rect x="1044.4528434905835" y="277.05213296333284" width="86.0" height="14" fill="#ffe6e6" stroke="#cccccc" stroke-width="0.5" />
<text x="1087.4528434905835" y="285.05213296333284" font-size="10" font-family="Consolas, monospace" fill="#000000" text-anchor="middle" dominant-baseline="central">CNF</text>
<path d="M963.4528434905835,291.05213296333284 L1130.4528434905835,291.05213296333284" stroke="#cccccc" stroke-width="0.5" />
<rect x="963.4528434905835" y="291.05213296333284" width="80" height="14" fill="#e6f7e6" stroke="#cccccc" stroke-width="0.5" />
<text x="1003.4528434905835" y="299.05213296333284" font-size="10" font-family="Consolas, monospace" fill="#000000" text-anchor="middle" dominant-baseline="central">State_02_E</text>
<rect x="1044.4528434905835" y="291.05213296333284" width="86.0" height="14" fill="#ffe6e6" stroke="#cccccc" stroke-width="0.5" />
<text x="1087.4528434905835" y="299.05213296333284" font-size="10" font-family="Consolas, monospace" fill="#000000" text-anchor="middle" dominant-baseline="central">EO_S2</text>
<path d="M963.4528434905835,305.05213296333284 L1130.4528434905835,305.05213296333284" stroke="#cccccc" stroke-width="0.5" />
<rect x="963.4528434905835" y="305.05213296333284" width="80" height="14" fill="#e6f7e6" stroke="#cccccc" stroke-width="0.5" />
<text x="1003.4528434905835" y="313.05213296333284" font-size="10" font-family="Consolas, monospace" fill="#000000" text-anchor="middle" dominant-baseline="central"></text>
<rect x="1044.4528434905835" y="305.05213296333284" width="86.0" height="14" fill="#ffe6e6" stroke="#cccccc" stroke-width="0.5" />
<text x="1087.4528434905835" y="313.05213296333284" font-size="10" font-family="Consolas, monospace" fill="#000000" text-anchor="middle" dominant-baseline="central">timeOut.START</text>
<rect x="868.6528434905836" y="434.5260664816664" width="84.8" height="32" fill="#f5f5f5" stroke="#000000" stroke-width="2" rx="8" ry="8" />
<text x="911.0528434905835" y="450.5260664816664" font-size="12" fontWeight="bold" font-family="Verdana, sans-serif" fill="#000000" text-anchor="middle" dominant-baseline="central">sState_03</text>
<rect x="963.4528434905835" y="434.5260664816664" width="167.0" height="78" fill="#ffffff" stroke="#cccccc" stroke-width="1" rx="4" ry="4" />
<path d="M953.4528434905835,450.5260664816664 L963.4528434905835,445.5260664816664" stroke="#000000" stroke-width="2" />
<path d="M1043.4528434905835,434.5260664816664 L1043.4528434905835,512.5260664816665" stroke="#cccccc" stroke-width="1" />
<rect x="963.4528434905835" y="438.5260664816664" width="80" height="14" fill="#e6f7e6" stroke="#cccccc" stroke-width="0.5" />
<text x="1003.4528434905835" y="446.5260664816664" font-size="10" font-family="Consolas, monospace" fill="#000000" text-anchor="middle" dominant-baseline="central"></text>
<rect x="1044.4528434905835" y="438.5260664816664" width="86.0" height="14" fill="#ffe6e6" stroke="#cccccc" stroke-width="0.5" />
<text x="1087.4528434905835" y="446.5260664816664" font-size="10" font-family="Consolas, monospace" fill="#000000" text-anchor="middle" dominant-baseline="central">timeOut.STOP</text>
<path d="M963.4528434905835,452.5260664816664 L1130.4528434905835,452.5260664816664" stroke="#cccccc" stroke-width="0.5" />
<rect x="963.4528434905835" y="452.5260664816664" width="80" height="14" fill="#e6f7e6" stroke="#cccccc" stroke-width="0.5" />
<text x="1003.4528434905835" y="460.5260664816664" font-size="10" font-family="Consolas, monospace" fill="#000000" text-anchor="middle" dominant-baseline="central">State_02_X</text>
<rect x="1044.4528434905835" y="452.5260664816664" width="86.0" height="14" fill="#ffe6e6" stroke="#cccccc" stroke-width="0.5" />
<text x="1087.4528434905835" y="460.5260664816664" font-size="10" font-family="Consolas, monospace" fill="#000000" text-anchor="middle" dominant-baseline="central">EO_S2</text>
<path d="M963.4528434905835,466.5260664816664 L1130.4528434905835,466.5260664816664" stroke="#cccccc" stroke-width="0.5" />
<rect x="963.4528434905835" y="466.5260664816664" width="80" height="14" fill="#e6f7e6" stroke="#cccccc" stroke-width="0.5" />
<text x="1003.4528434905835" y="474.5260664816664" font-size="10" font-family="Consolas, monospace" fill="#000000" text-anchor="middle" dominant-baseline="central">State_03_C</text>
<rect x="1044.4528434905835" y="466.5260664816664" width="86.0" height="14" fill="#ffe6e6" stroke="#cccccc" stroke-width="0.5" />
<text x="1087.4528434905835" y="474.5260664816664" font-size="10" font-family="Consolas, monospace" fill="#000000" text-anchor="middle" dominant-baseline="central">CNF</text>
<path d="M963.4528434905835,480.5260664816664 L1130.4528434905835,480.5260664816664" stroke="#cccccc" stroke-width="0.5" />
<rect x="963.4528434905835" y="480.5260664816664" width="80" height="14" fill="#e6f7e6" stroke="#cccccc" stroke-width="0.5" />
<text x="1003.4528434905835" y="488.5260664816664" font-size="10" font-family="Consolas, monospace" fill="#000000" text-anchor="middle" dominant-baseline="central">State_03_E</text>
<rect x="1044.4528434905835" y="480.5260664816664" width="86.0" height="14" fill="#ffe6e6" stroke="#cccccc" stroke-width="0.5" />
<text x="1087.4528434905835" y="488.5260664816664" font-size="10" font-family="Consolas, monospace" fill="#000000" text-anchor="middle" dominant-baseline="central">EO_S3</text>
<path d="M963.4528434905835,494.5260664816664 L1130.4528434905835,494.5260664816664" stroke="#cccccc" stroke-width="0.5" />
<rect x="963.4528434905835" y="494.5260664816664" width="80" height="14" fill="#e6f7e6" stroke="#cccccc" stroke-width="0.5" />
<text x="1003.4528434905835" y="502.5260664816664" font-size="10" font-family="Consolas, monospace" fill="#000000" text-anchor="middle" dominant-baseline="central"></text>
<rect x="1044.4528434905835" y="494.5260664816664" width="86.0" height="14" fill="#ffe6e6" stroke="#cccccc" stroke-width="0.5" />
<text x="1087.4528434905835" y="502.5260664816664" font-size="10" font-family="Consolas, monospace" fill="#000000" text-anchor="middle" dominant-baseline="central">timeOut.START</text>
<rect x="868.6528434905836" y="624.0" width="84.8" height="32" fill="#f5f5f5" stroke="#000000" stroke-width="2" rx="8" ry="8" />
<text x="911.0528434905835" y="640.0" font-size="12" fontWeight="bold" font-family="Verdana, sans-serif" fill="#000000" text-anchor="middle" dominant-baseline="central">sState_04</text>
<rect x="963.4528434905835" y="624.0" width="167.0" height="78" fill="#ffffff" stroke="#cccccc" stroke-width="1" rx="4" ry="4" />
<path d="M953.4528434905835,640.0 L963.4528434905835,635.0" stroke="#000000" stroke-width="2" />
<path d="M1043.4528434905835,624.0 L1043.4528434905835,702.0" stroke="#cccccc" stroke-width="1" />
<rect x="963.4528434905835" y="628.0" width="80" height="14" fill="#e6f7e6" stroke="#cccccc" stroke-width="0.5" />
<text x="1003.4528434905835" y="636.0" font-size="10" font-family="Consolas, monospace" fill="#000000" text-anchor="middle" dominant-baseline="central"></text>
<rect x="1044.4528434905835" y="628.0" width="86.0" height="14" fill="#ffe6e6" stroke="#cccccc" stroke-width="0.5" />
<text x="1087.4528434905835" y="636.0" font-size="10" font-family="Consolas, monospace" fill="#000000" text-anchor="middle" dominant-baseline="central">timeOut.STOP</text>
<path d="M963.4528434905835,642.0 L1130.4528434905835,642.0" stroke="#cccccc" stroke-width="0.5" />
<rect x="963.4528434905835" y="642.0" width="80" height="14" fill="#e6f7e6" stroke="#cccccc" stroke-width="0.5" />
<text x="1003.4528434905835" y="650.0" font-size="10" font-family="Consolas, monospace" fill="#000000" text-anchor="middle" dominant-baseline="central">State_03_X</text>
<rect x="1044.4528434905835" y="642.0" width="86.0" height="14" fill="#ffe6e6" stroke="#cccccc" stroke-width="0.5" />
<text x="1087.4528434905835" y="650.0" font-size="10" font-family="Consolas, monospace" fill="#000000" text-anchor="middle" dominant-baseline="central">EO_S3</text>
<path d="M963.4528434905835,656.0 L1130.4528434905835,656.0" stroke="#cccccc" stroke-width="0.5" />
<rect x="963.4528434905835" y="656.0" width="80" height="14" fill="#e6f7e6" stroke="#cccccc" stroke-width="0.5" />
<text x="1003.4528434905835" y="664.0" font-size="10" font-family="Consolas, monospace" fill="#000000" text-anchor="middle" dominant-baseline="central">State_04_C</text>
<rect x="1044.4528434905835" y="656.0" width="86.0" height="14" fill="#ffe6e6" stroke="#cccccc" stroke-width="0.5" />
<text x="1087.4528434905835" y="664.0" font-size="10" font-family="Consolas, monospace" fill="#000000" text-anchor="middle" dominant-baseline="central">CNF</text>
<path d="M963.4528434905835,670.0 L1130.4528434905835,670.0" stroke="#cccccc" stroke-width="0.5" />
<rect x="963.4528434905835" y="670.0" width="80" height="14" fill="#e6f7e6" stroke="#cccccc" stroke-width="0.5" />
<text x="1003.4528434905835" y="678.0" font-size="10" font-family="Consolas, monospace" fill="#000000" text-anchor="middle" dominant-baseline="central">State_04_E</text>
<rect x="1044.4528434905835" y="670.0" width="86.0" height="14" fill="#ffe6e6" stroke="#cccccc" stroke-width="0.5" />
<text x="1087.4528434905835" y="678.0" font-size="10" font-family="Consolas, monospace" fill="#000000" text-anchor="middle" dominant-baseline="central">EO_S4</text>
<path d="M963.4528434905835,684.0 L1130.4528434905835,684.0" stroke="#cccccc" stroke-width="0.5" />
<rect x="963.4528434905835" y="684.0" width="80" height="14" fill="#e6f7e6" stroke="#cccccc" stroke-width="0.5" />
<text x="1003.4528434905835" y="692.0" font-size="10" font-family="Consolas, monospace" fill="#000000" text-anchor="middle" dominant-baseline="central"></text>
<rect x="1044.4528434905835" y="684.0" width="86.0" height="14" fill="#ffe6e6" stroke="#cccccc" stroke-width="0.5" />
<text x="1087.4528434905835" y="692.0" font-size="10" font-family="Consolas, monospace" fill="#000000" text-anchor="middle" dominant-baseline="central">timeOut.START</text>
<path d="M903.5528434905835,87.57819944499929 C903.5528434905835,119.07298614866599,903.5528434905835,213.55734625966613,903.5528434905835,245.05213296333284" stroke="#404040" stroke-width="1.2" fill="none" />
<g transform="translate(903.5528434905835,166.31516620416608)">
<rect x="-20.25" y="-7.5" width="40.5" height="15" fill="#ffffff" opacity="0.9" rx="3" ry="3" />
<text x="0" y="3.5" font-size="10" font-family="Consolas, monospace" fill="#000000" text-anchor="middle" dominant-baseline="central">S1_S2</text>
</g>
<path d="M903.5528434905835,277.05213296333284 C903.5528434905835,308.54691966699954,903.5528434905835,403.0312797779997,903.5528434905835,434.5260664816664" stroke="#404040" stroke-width="1.2" fill="none" />
<g transform="translate(903.5528434905835,355.78909972249966)">
<rect x="-20.25" y="-7.5" width="40.5" height="15" fill="#ffffff" opacity="0.9" rx="3" ry="3" />
<text x="0" y="3.5" font-size="10" font-family="Consolas, monospace" fill="#000000" text-anchor="middle" dominant-baseline="central">S2_S3</text>
</g>
<path d="M903.5528434905835,466.5260664816664 C903.5528434905835,498.0208531853331,903.5528434905835,592.5052132963333,903.5528434905835,624.0" stroke="#404040" stroke-width="1.2" fill="none" />
<g transform="translate(903.5528434905835,545.2630332408332)">
<rect x="-20.25" y="-7.5" width="40.5" height="15" fill="#ffffff" opacity="0.9" rx="3" ry="3" />
<text x="0" y="3.5" font-size="10" font-family="Consolas, monospace" fill="#000000" text-anchor="middle" dominant-baseline="central">S3_S4</text>
</g>
<path d="M918.5528434905835,87.57819944499929 C918.5528434905835,119.07298614866599,918.5528434905835,213.55734625966613,918.5528434905835,245.05213296333284" stroke="#404040" stroke-width="1.2" fill="none" />
<g transform="translate(918.5528434905835,184.31516620416608)">
<rect x="-52.75" y="-7.5" width="105.5" height="15" fill="#ffffff" opacity="0.9" rx="3" ry="3" />
<text x="0" y="3.5" font-size="10" font-family="Consolas, monospace" fill="#000000" text-anchor="middle" dominant-baseline="central">timeOut.TimeOut</text>
</g>
<path d="M918.5528434905835,277.05213296333284 C918.5528434905835,308.54691966699954,918.5528434905835,403.0312797779997,918.5528434905835,434.5260664816664" stroke="#404040" stroke-width="1.2" fill="none" />
<g transform="translate(918.5528434905835,373.78909972249966)">
<rect x="-52.75" y="-7.5" width="105.5" height="15" fill="#ffffff" opacity="0.9" rx="3" ry="3" />
<text x="0" y="3.5" font-size="10" font-family="Consolas, monospace" fill="#000000" text-anchor="middle" dominant-baseline="central">timeOut.TimeOut</text>
</g>
<path d="M918.5528434905835,466.5260664816664 C918.5528434905835,498.0208531853331,918.5528434905835,592.5052132963333,918.5528434905835,624.0" stroke="#404040" stroke-width="1.2" fill="none" />
<g transform="translate(918.5528434905835,563.2630332408332)">
<rect x="-52.75" y="-7.5" width="105.5" height="15" fill="#ffffff" opacity="0.9" rx="3" ry="3" />
<text x="0" y="3.5" font-size="10" font-family="Consolas, monospace" fill="#000000" text-anchor="middle" dominant-baseline="central">timeOut.TimeOut</text>
</g>
<path d="M193.15710941724925,71.57819944499929 C233.15710941724925,71.57819944499929,896.0528434905835,15.578199444999285,896.0528434905835,55.578199444999285" stroke="#404040" stroke-width="1.2" fill="none" />
<g transform="translate(559.6049764539164,48.578199444999285)">
<rect x="-30.0" y="-7.5" width="60.0" height="15" fill="#ffffff" opacity="0.9" rx="3" ry="3" />
<text x="0" y="3.5" font-size="10" font-family="Consolas, monospace" fill="#000000" text-anchor="middle" dominant-baseline="central">START_S1</text>
</g>
<path d="M868.6528434905836,71.57819944499929 C499.91281599394875,71.57819944499929,130.65710941724925,255.2599725033652,130.65710941724925,624.0" stroke="#404040" stroke-width="1.2" fill="none" />
<g transform="translate(361.3774661426783,209.51158941126158)">
<rect x="-20.25" y="-7.5" width="40.5" height="15" fill="#ffffff" opacity="0.9" rx="3" ry="3" />
<text x="0" y="3.5" font-size="10" font-family="Consolas, monospace" fill="#000000" text-anchor="middle" dominant-baseline="central">RESET</text>
</g>
<path d="M868.6528434905836,640.0 C828.6528434905836,640.0,145.65710941724925,584.0,145.65710941724925,624.0" stroke="#404040" stroke-width="1.2" fill="none" />
<g transform="translate(492.1549764539164,617.0)">
<rect x="-20.25" y="-7.5" width="40.5" height="15" fill="#ffffff" opacity="0.9" rx="3" ry="3" />
<text x="0" y="3.5" font-size="10" font-family="Consolas, monospace" fill="#000000" text-anchor="middle" dominant-baseline="central">RESET</text>
</g>
<path d="M868.6528434905836,261.05213296333284 C550.4103916014603,261.05213296333284,160.65710941724925,305.75754811087677,160.65710941724925,624.0" stroke="#404040" stroke-width="1.2" fill="none" />
<g transform="translate(395.31405699549515,323.18514702324524)">
<rect x="-20.25" y="-7.5" width="40.5" height="15" fill="#ffffff" opacity="0.9" rx="3" ry="3" />
<text x="0" y="3.5" font-size="10" font-family="Consolas, monospace" fill="#000000" text-anchor="middle" dominant-baseline="central">RESET</text>
</g>
<path d="M868.6528434905836,450.5260664816664 C582.9015409762012,450.5260664816664,175.65710941724925,338.2486974856177,175.65710941724925,624.0" stroke="#404040" stroke-width="1.2" fill="none" />
<g transform="translate(414.99823801102303,430.1062947979399)">
<rect x="-20.25" y="-7.5" width="40.5" height="15" fill="#ffffff" opacity="0.9" rx="3" ry="3" />
<text x="0" y="3.5" font-size="10" font-family="Consolas, monospace" fill="#000000" text-anchor="middle" dominant-baseline="central">RESET</text>
</g>
<path d="M903.5528434905835,624.0 C763.5528434905835,584.0,771.0528434905835,15.578199444999285,911.0528434905835,55.578199444999285" stroke="#404040" stroke-width="1.2" fill="none" />
<g transform="translate(802.3028434905835,309.78909972249966)">
<rect x="-20.25" y="-7.5" width="40.5" height="15" fill="#ffffff" opacity="0.9" rx="3" ry="3" />
<text x="0" y="3.5" font-size="10" font-family="Consolas, monospace" fill="#000000" text-anchor="middle" dominant-baseline="central">S4_S1</text>
</g>
<path d="M918.5528434905835,624.0 C1058.5528434905837,579.0,1066.0528434905837,10.578199444999285,926.0528434905835,55.578199444999285" stroke="#404040" stroke-width="1.2" fill="none" />
<g transform="translate(1027.3028434905837,306.03909972249966)">
<rect x="-52.75" y="-7.5" width="105.5" height="15" fill="#ffffff" opacity="0.9" rx="3" ry="3" />
<text x="0" y="3.5" font-size="10" font-family="Consolas, monospace" fill="#000000" text-anchor="middle" dominant-baseline="central">timeOut.TimeOut</text>
</g>
<path d="M153.15710941724925,624.0 C153.15710941724925,584.0,153.15710941724925,15.578199444999285,153.15710941724925,55.578199444999285" stroke="#404040" stroke-width="1.2" fill="none" />
<g transform="translate(153.15710941724925,309.78909972249966)">
<rect x="-7.25" y="-7.5" width="14.5" height="15" fill="#ffffff" opacity="0.9" rx="3" ry="3" />
<text x="0" y="3.5" font-size="10" font-family="Consolas, monospace" fill="#000000" text-anchor="middle" dominant-baseline="central">1</text>
</g>
</svg>