<?xml version="1.0" encoding="UTF-8"?>
<svg xmlns="http://www.w3.org/2000/svg" xmlns:xlink="http://www.w3.org/1999/xlink"
     width="1116" height="509" viewBox="-548 -20 1116 509">
<defs>
</defs>
<rect x="3" y="3" width="230" height="459" fill="#000000" fill-opacity="0.1" rx="2" ry="2" />
<path d="M0,0 H230 V222 H224 V262 H230 V459 H0 V262 H6 V222 H0 Z" fill="#ffffff" stroke="#000000" stroke-width="2" />
<path d="M0,30 L230,30" stroke="#000000" stroke-width="1" />
<text x="115.0" y="240.0" font-size="14" fontWeight="bold" font-family="Verdana, sans-serif" font-style="italic" text-anchor="middle" dominant-baseline="central">sequence_ET_05_loop</text>
<text x="115.0" y="254.0" font-size="10" fill="#000" font-family="Consolas, monospace" text-anchor="middle" dominant-baseline="central">1.0</text>
<path d="M-5,37 L-5,47 L0,42 Z" fill="#63B31F" stroke="none" />
<text x="12" y="46" font-size="12" text-anchor="start" font-family="Consolas, monospace">START_S1</text>
<text x="-23" y="45" font-size="11" text-anchor="end" fill="#888" font-style="italic" font-family="Verdana, sans-serif">Event</text>
<text x="-93" y="45" font-size="11" text-anchor="end" fill="#666666" font-family="Verdana, sans-serif">jump from START to State_01</text>
<path d="M-5,63 L-5,73 L0,68 Z" fill="#63B31F" stroke="none" />
<text x="12" y="72" font-size="12" text-anchor="start" font-family="Consolas, monospace">S1_S2</text>
<text x="-23" y="71" font-size="11" text-anchor="end" fill="#888" font-style="italic" font-family="Verdana, sans-serif">Event</text>
<text x="-93" y="71" font-size="11" text-anchor="end" fill="#666666" font-family="Verdana, sans-serif">jump from State_01 to State_02</text>
<path d="M-5,89 L-5,99 L0,94 Z" fill="#63B31F" stroke="none" />
<text x="12" y="98" font-size="12" text-anchor="start" font-family="Consolas, monospace">S2_S3</text>
<text x="-23" y="97" font-size="11" text-anchor="end" fill="#888" font-style="italic" font-family="Verdana, sans-serif">Event</text>
<text x="-93" y="97" font-size="11" text-anchor="end" fill="#666666" font-family="Verdana, sans-serif">jump from State_02 to State_03</text>
<path d="M-5,115 L-5,125 L0,120 Z" fill="#63B31F" stroke="none" />
<text x="12" y="124" font-size="12" text-anchor="start" font-family="Consolas, monospace">S3_S4</text>
<text x="-23" y="123" font-size="11" text-anchor="end" fill="#888" font-style="italic" font-family="Verdana, sans-serif">Event</text>
<text x="-93" y="123" font-size="11" text-anchor="end" fill="#666666" font-family="Verdana, sans-serif">jump from State_03 to State_04</text>
<path d="M-5,141 L-5,151 L0,146 Z" fill="#63B31F" stroke="none" />
<text x="12" y="150" font-size="12" text-anchor="start" font-family="Consolas, monospace">S4_S5</text>
<text x="-23" y="149" font-size="11" text-anchor="end" fill="#888" font-style="italic" font-family="Verdana, sans-serif">Event</text>
<text x="-93" y="149" font-size="11" text-anchor="end" fill="#666666" font-family="Verdana, sans-serif">jump from State_04 to State_05</text>
<path d="M-5,167 L-5,177 L0,172 Z" fill="#63B31F" stroke="none" />
<text x="12" y="176" font-size="12" text-anchor="start" font-family="Consolas, monospace">S5_S1</text>
<text x="-23" y="175" font-size="11" text-anchor="end" fill="#888" font-style="italic" font-family="Verdana, sans-serif">Event</text>
<text x="-93" y="175" font-size="11" text-anchor="end" fill="#666666" font-family="Verdana, sans-serif">jump from State_05 to State_01</text>
<path d="M-5,193 L-5,203 L0,198 Z" fill="#63B31F" stroke="none" />
<text x="12" y="202" font-size="12" text-anchor="start" font-family="Consolas, monospace">RESET</text>
<text x="-23" y="201" font-size="11" text-anchor="end" fill="#888" font-style="italic" font-family="Verdana, sans-serif">Event</text>
<text x="-93" y="201" font-size="11" text-anchor="end" fill="#666666" font-family="Verdana, sans-serif">Reset from any State to START</text>
<path d="M-5,274 L-5,284 L0,279 Z" fill="#0000FF" stroke="none" />
<text x="12" y="283" font-size="12" text-anchor="start" font-family="Consolas, monospace">DT_S1_S2</text>
<text x="-23" y="282" font-size="11" text-anchor="end" fill="#0000FF" font-style="italic" font-family="Verdana, sans-serif">TIME</text>
<text x="-130" y="282" font-size="11" text-anchor="end" fill="#666666" font-family="Verdana, sans-serif">State_01 to State_02 timed, set to NO_TIME to disable</text>
<path d="M-5,300 L-5,310 L0,305 Z" fill="#0000FF" stroke="none" />
<text x="12" y="309" font-size="12" text-anchor="start" font-family="Consolas, monospace">DT_S2_S3</text>
<text x="-23" y="308" font-size="11" text-anchor="end" fill="#0000FF" font-style="italic" font-family="Verdana, sans-serif">TIME</text>
<text x="-130" y="308" font-size="11" text-anchor="end" fill="#666666" font-family="Verdana, sans-serif">State_02 to State_03 timed, set to NO_TIME to disable</text>
<path d="M-5,326 L-5,336 L0,331 Z" fill="#0000FF" stroke="none" />
<text x="12" y="335" font-size="12" text-anchor="start" font-family="Consolas, monospace">DT_S3_S4</text>
<text x="-23" y="334" font-size="11" text-anchor="end" fill="#0000FF" font-style="italic" font-family="Verdana, sans-serif">TIME</text>
<text x="-130" y="334" font-size="11" text-anchor="end" fill="#666666" font-family="Verdana, sans-serif">State_03 to State_04 timed, set to NO_TIME to disable</text>
<path d="M-5,352 L-5,362 L0,357 Z" fill="#0000FF" stroke="none" />
<text x="12" y="361" font-size="12" text-anchor="start" font-family="Consolas, monospace">DT_S4_S5</text>
<text x="-23" y="360" font-size="11" text-anchor="end" fill="#0000FF" font-style="italic" font-family="Verdana, sans-serif">TIME</text>
<text x="-130" y="360" font-size="11" text-anchor="end" fill="#666666" font-family="Verdana, sans-serif">State_04 to State_05 timed, set to NO_TIME to disable</text>
<path d="M-5,378 L-5,388 L0,383 Z" fill="#0000FF" stroke="none" />
<text x="12" y="387" font-size="12" text-anchor="start" font-family="Consolas, monospace">DT_S5_S1</text>
<text x="-23" y="386" font-size="11" text-anchor="end" fill="#0000FF" font-style="italic" font-family="Verdana, sans-serif">TIME</text>
<text x="-130" y="386" font-size="11" text-anchor="end" fill="#666666" font-family="Verdana, sans-serif">State_05 to State_01 timed, set to NO_TIME to disable</text>
<path d="M230,37 L230,47 L235,42 Z" fill="#63B31F" stroke="none" />
<text x="218" y="46" font-size="12" text-anchor="end" font-family="Consolas, monospace">CNF</text>
<text x="293" y="45" font-size="11" text-anchor="start" fill="#888" font-style="italic" font-family="Verdana, sans-serif">Event</text>
<text x="363" y="45" font-size="11" text-anchor="start" fill="#666666" font-family="Verdana, sans-serif">Execution Confirmation</text>
<path d="M230,63 L230,73 L235,68 Z" fill="#63B31F" stroke="none" />
<text x="218" y="72" font-size="12" text-anchor="end" font-family="Consolas, monospace">EO_S1</text>
<text x="293" y="71" font-size="11" text-anchor="start" fill="#888" font-style="italic" font-family="Verdana, sans-serif">Event</text>
<path d="M230,89 L230,99 L235,94 Z" fill="#63B31F" stroke="none" />
<text x="218" y="98" font-size="12" text-anchor="end" font-family="Consolas, monospace">EO_S2</text>
<text x="293" y="97" font-size="11" text-anchor="start" fill="#888" font-style="italic" font-family="Verdana, sans-serif">Event</text>
<path d="M230,115 L230,125 L235,120 Z" fill="#63B31F" stroke="none" />
<text x="218" y="124" font-size="12" text-anchor="end" font-family="Consolas, monospace">EO_S3</text>
<text x="293" y="123" font-size="11" text-anchor="start" fill="#888" font-style="italic" font-family="Verdana, sans-serif">Event</text>
<path d="M230,141 L230,151 L235,146 Z" fill="#63B31F" stroke="none" />
<text x="218" y="150" font-size="12" text-anchor="end" font-family="Consolas, monospace">EO_S4</text>
<text x="293" y="149" font-size="11" text-anchor="start" fill="#888" font-style="italic" font-family="Verdana, sans-serif">Event</text>
<path d="M230,167 L230,177 L235,172 Z" fill="#63B31F" stroke="none" />
<text x="218" y="176" font-size="12" text-anchor="end" font-family="Consolas, monospace">EO_S5</text>
<text x="293" y="175" font-size="11" text-anchor="start" fill="#888" font-style="italic" font-family="Verdana, sans-serif">Event</text>
<rect x="225.0" y="274.0" width="10" height="10" fill="#845DAF" stroke="none" />
<text x="218" y="283" font-size="12" text-anchor="end" font-family="Consolas, monospace">timeOut</text>
<text x="293" y="282" font-size="11" text-anchor="start" fill="#000" font-style="italic" font-family="Verdana, sans-serif">ATimeOut</text>
<text x="363" y="282" font-size="11" text-anchor="start" fill="#666666" font-family="Verdana, sans-serif">timeOut Adapter</text>
<path d="M230,300 L230,310 L235,305 Z" fill="#18519E" stroke="none" />
<text x="218" y="309" font-size="12" text-anchor="end" font-family="Consolas, monospace">STATE_NR</text>
<text x="293" y="308" font-size="11" text-anchor="start" fill="#18519E" font-style="italic" font-family="Verdana, sans-serif">SINT</text>
<text x="363" y="308" font-size="11" text-anchor="start" fill="#666666" font-family="Verdana, sans-serif">State Number, START = 0, State_01 = 1 and so on. </text>
<path d="M230,326 L230,336 L235,331 Z" fill="#9FA48A" stroke="none" />
<text x="218" y="335" font-size="12" text-anchor="end" font-family="Consolas, monospace">DO_S1</text>
<text x="293" y="334" font-size="11" text-anchor="start" fill="#9FA48A" font-style="italic" font-family="Verdana, sans-serif">BOOL</text>
<text x="363" y="334" font-size="11" text-anchor="start" fill="#666666" font-family="Verdana, sans-serif">Output if State_01 is active</text>
<path d="M230,352 L230,362 L235,357 Z" fill="#9FA48A" stroke="none" />
<text x="218" y="361" font-size="12" text-anchor="end" font-family="Consolas, monospace">DO_S2</text>
<text x="293" y="360" font-size="11" text-anchor="start" fill="#9FA48A" font-style="italic" font-family="Verdana, sans-serif">BOOL</text>
<text x="363" y="360" font-size="11" text-anchor="start" fill="#666666" font-family="Verdana, sans-serif">Output if State_02 is active</text>
<path d="M230,378 L230,388 L235,383 Z" fill="#9FA48A" stroke="none" />
<text x="218" y="387" font-size="12" text-anchor="end" font-family="Consolas, monospace">DO_S3</text>
<text x="293" y="386" font-size="11" text-anchor="start" fill="#9FA48A" font-style="italic" font-family="Verdana, sans-serif">BOOL</text>
<text x="363" y="386" font-size="11" text-anchor="start" fill="#666666" font-family="Verdana, sans-serif">Output if State_03 is active</text>
<path d="M230,404 L230,414 L235,409 Z" fill="#9FA48A" stroke="none" />
<text x="218" y="413" font-size="12" text-anchor="end" font-family="Consolas, monospace">DO_S4</text>
<text x="293" y="412" font-size="11" text-anchor="start" fill="#9FA48A" font-style="italic" font-family="Verdana, sans-serif">BOOL</text>
<text x="363" y="412" font-size="11" text-anchor="start" fill="#666666" font-family="Verdana, sans-serif">Output if State_04 is active</text>
<path d="M230,430 L230,440 L235,435 Z" fill="#9FA48A" stroke="none" />
<text x="218" y="439" font-size="12" text-anchor="end" font-family="Consolas, monospace">DO_S5</text>
<text x="293" y="438" font-size="11" text-anchor="start" fill="#9FA48A" font-style="italic" font-family="Verdana, sans-serif">BOOL</text>
<text x="363" y="438" font-size="11" text-anchor="start" fill="#666666" font-family="Verdana, sans-serif">Output if State_05 is active</text>
<path d="M-12,42 L-12,383" stroke="#404040" stroke-width="1" />
<path d="M0,42 L-12,42" stroke="#404040" />
<rect x="-14" y="40" width="4" height="4" fill="white" stroke="black" stroke-width="1" />
<path d="M-12,279 L-5,279" stroke="#404040" />
<rect x="-14" y="277" width="4" height="4" fill="white" stroke="black" stroke-width="1" />
<path d="M-12,305 L-5,305" stroke="#404040" />
<rect x="-14" y="303" width="4" height="4" fill="white" stroke="black" stroke-width="1" />
<path d="M-12,331 L-5,331" stroke="#404040" />
<rect x="-14" y="329" width="4" height="4" fill="white" stroke="black" stroke-width="1" />
<path d="M-12,357 L-5,357" stroke="#404040" />
<rect x="-14" y="355" width="4" height="4" fill="white" stroke="black" stroke-width="1" />
<path d="M-12,383 L-5,383" stroke="#404040" />
<rect x="-14" y="381" width="4" height="4" fill="white" stroke="black" stroke-width="1" />
<path d="M242,42 L242,305" stroke="#404040" stroke-width="1" />
<path d="M230,42 L242,42" stroke="#404040" />
<rect x="240" y="40" width="4" height="4" fill="white" stroke="black" stroke-width="1" />
<path d="M242,305 L235,305" stroke="#404040" />
<rect x="240" y="303" width="4" height="4" fill="white" stroke="black" stroke-width="1" />
<path d="M250,68 L250,331" stroke="#404040" stroke-width="1" />
<path d="M230,68 L250,68" stroke="#404040" />
<rect x="248" y="66" width="4" height="4" fill="white" stroke="black" stroke-width="1" />
<path d="M250,331 L235,331" stroke="#404040" />
<rect x="248" y="329" width="4" height="4" fill="white" stroke="black" stroke-width="1" />
<path d="M258,94 L258,357" stroke="#404040" stroke-width="1" />
<path d="M230,94 L258,94" stroke="#404040" />
<rect x="256" y="92" width="4" height="4" fill="white" stroke="black" stroke-width="1" />
<path d="M258,357 L235,357" stroke="#404040" />
<rect x="256" y="355" width="4" height="4" fill="white" stroke="black" stroke-width="1" />
<path d="M266,120 L266,383" stroke="#404040" stroke-width="1" />
<path d="M230,120 L266,120" stroke="#404040" />
<rect x="264" y="118" width="4" height="4" fill="white" stroke="black" stroke-width="1" />
<path d="M266,383 L235,383" stroke="#404040" />
<rect x="264" y="381" width="4" height="4" fill="white" stroke="black" stroke-width="1" />
<path d="M274,146 L274,409" stroke="#404040" stroke-width="1" />
<path d="M230,146 L274,146" stroke="#404040" />
<rect x="272" y="144" width="4" height="4" fill="white" stroke="black" stroke-width="1" />
<path d="M274,409 L235,409" stroke="#404040" />
<rect x="272" y="407" width="4" height="4" fill="white" stroke="black" stroke-width="1" />
<path d="M282,172 L282,435" stroke="#404040" stroke-width="1" />
<path d="M230,172 L282,172" stroke="#404040" />
<rect x="280" y="170" width="4" height="4" fill="white" stroke="black" stroke-width="1" />
<path d="M282,435 L235,435" stroke="#404040" />
<rect x="280" y="433" width="4" height="4" fill="white" stroke="black" stroke-width="1" />
</svg>