<?xml version="1.0" encoding="UTF-8"?>
<svg xmlns="http://www.w3.org/2000/svg" xmlns:xlink="http://www.w3.org/1999/xlink"
     width="1200" height="800" viewBox="0 0 1200 800">
<defs>
</defs>
<rect x="0" y="0" width="1200" height="800" fill="#ffffff" />
<text x="600" y="25" font-size="14" fontWeight="bold" font-family="Verdana, sans-serif" fill="#000000" text-anchor="middle" dominant-baseline="central">ECC: sequence_ET_05_AX</text>
<rect x="10.0" y="541.0" width="80" height="32" fill="#f5f5f5" stroke="#000000" stroke-width="2" rx="8" ry="8" />
<text x="50.0" y="557.0" font-size="12" fontWeight="bold" font-family="Verdana, sans-serif" fill="#000000" text-anchor="middle" dominant-baseline="central">sRESET</text>
<rect x="100.0" y="541.0" width="161" height="92" fill="#ffffff" stroke="#cccccc" stroke-width="1" rx="4" ry="4" />
<path d="M90.0,557.0 L100.0,552.0" stroke="#000000" stroke-width="2" />
<path d="M180.0,541.0 L180.0,633.0" stroke="#cccccc" stroke-width="1" />
<rect x="100.0" y="545.0" width="80" height="14" fill="#e6f7e6" stroke="#cccccc" stroke-width="0.5" />
<text x="140.0" y="553.0" font-size="10" font-family="Consolas, monospace" fill="#000000" text-anchor="middle" dominant-baseline="central"></text>
<rect x="181.0" y="545.0" width="80" height="14" fill="#ffe6e6" stroke="#cccccc" stroke-width="0.5" />
<text x="221.0" y="553.0" font-size="10" font-family="Consolas, monospace" fill="#000000" text-anchor="middle" dominant-baseline="central">timeOut.STOP</text>
<path d="M100.0,559.0 L261.0,559.0" stroke="#cccccc" stroke-width="0.5" />
<rect x="100.0" y="559.0" width="80" height="14" fill="#e6f7e6" stroke="#cccccc" stroke-width="0.5" />
<text x="140.0" y="567.0" font-size="10" font-family="Consolas, monospace" fill="#000000" text-anchor="middle" dominant-baseline="central">State_01_X</text>
<rect x="181.0" y="559.0" width="80" height="14" fill="#ffe6e6" stroke="#cccccc" stroke-width="0.5" />
<text x="221.0" y="567.0" font-size="10" font-family="Consolas, monospace" fill="#000000" text-anchor="middle" dominant-baseline="central">DO_S1.E1</text>
<path d="M100.0,573.0 L261.0,573.0" stroke="#cccccc" stroke-width="0.5" />
<rect x="100.0" y="573.0" width="80" height="14" fill="#e6f7e6" stroke="#cccccc" stroke-width="0.5" />
<text x="140.0" y="581.0" font-size="10" font-family="Consolas, monospace" fill="#000000" text-anchor="middle" dominant-baseline="central">State_02_X</text>
<rect x="181.0" y="573.0" width="80" height="14" fill="#ffe6e6" stroke="#cccccc" stroke-width="0.5" />
<text x="221.0" y="581.0" font-size="10" font-family="Consolas, monospace" fill="#000000" text-anchor="middle" dominant-baseline="central">DO_S2.E1</text>
<path d="M100.0,587.0 L261.0,587.0" stroke="#cccccc" stroke-width="0.5" />
<rect x="100.0" y="587.0" width="80" height="14" fill="#e6f7e6" stroke="#cccccc" stroke-width="0.5" />
<text x="140.0" y="595.0" font-size="10" font-family="Consolas, monospace" fill="#000000" text-anchor="middle" dominant-baseline="central">State_03_X</text>
<rect x="181.0" y="587.0" width="80" height="14" fill="#ffe6e6" stroke="#cccccc" stroke-width="0.5" />
<text x="221.0" y="595.0" font-size="10" font-family="Consolas, monospace" fill="#000000" text-anchor="middle" dominant-baseline="central">DO_S3.E1</text>
<path d="M100.0,601.0 L261.0,601.0" stroke="#cccccc" stroke-width="0.5" />
<rect x="100.0" y="601.0" width="80" height="14" fill="#e6f7e6" stroke="#cccccc" stroke-width="0.5" />
<text x="140.0" y="609.0" font-size="10" font-family="Consolas, monospace" fill="#000000" text-anchor="middle" dominant-baseline="central">State_04_X</text>
<rect x="181.0" y="601.0" width="80" height="14" fill="#ffe6e6" stroke="#cccccc" stroke-width="0.5" />
<text x="221.0" y="609.0" font-size="10" font-family="Consolas, monospace" fill="#000000" text-anchor="middle" dominant-baseline="central">DO_S4.E1</text>
<path d="M100.0,615.0 L261.0,615.0" stroke="#cccccc" stroke-width="0.5" />
<rect x="100.0" y="615.0" width="80" height="14" fill="#e6f7e6" stroke="#cccccc" stroke-width="0.5" />
<text x="140.0" y="623.0" font-size="10" font-family="Consolas, monospace" fill="#000000" text-anchor="middle" dominant-baseline="central">State_05_X</text>
<rect x="181.0" y="615.0" width="80" height="14" fill="#ffe6e6" stroke="#cccccc" stroke-width="0.5" />
<text x="221.0" y="623.0" font-size="10" font-family="Consolas, monospace" fill="#000000" text-anchor="middle" dominant-baseline="central">DO_S5.E1</text>
<rect x="190.0" y="91.0" width="80" height="32" fill="#f5f5f5" stroke="#000000" stroke-width="2" rx="8" ry="8" />
<text x="230.0" y="107.0" font-size="12" fontWeight="bold" font-family="Verdana, sans-serif" fill="#000000" text-anchor="middle" dominant-baseline="central">xSTART</text>
<rect x="367.6" y="181.0" width="84.8" height="32" fill="#f5f5f5" stroke="#000000" stroke-width="2" rx="8" ry="8" />
<text x="410.0" y="197.0" font-size="12" fontWeight="bold" font-family="Verdana, sans-serif" fill="#000000" text-anchor="middle" dominant-baseline="central">sState_01</text>
<rect x="462.4" y="181.0" width="167.0" height="78" fill="#ffffff" stroke="#cccccc" stroke-width="1" rx="4" ry="4" />
<path d="M452.4,197.0 L462.4,192.0" stroke="#000000" stroke-width="2" />
<path d="M542.4,181.0 L542.4,259.0" stroke="#cccccc" stroke-width="1" />
<rect x="462.4" y="185.0" width="80" height="14" fill="#e6f7e6" stroke="#cccccc" stroke-width="0.5" />
<text x="502.4" y="193.0" font-size="10" font-family="Consolas, monospace" fill="#000000" text-anchor="middle" dominant-baseline="central"></text>
<rect x="543.4" y="185.0" width="86.0" height="14" fill="#ffe6e6" stroke="#cccccc" stroke-width="0.5" />
<text x="586.4" y="193.0" font-size="10" font-family="Consolas, monospace" fill="#000000" text-anchor="middle" dominant-baseline="central">timeOut.STOP</text>
<path d="M462.4,199.0 L629.4,199.0" stroke="#cccccc" stroke-width="0.5" />
<rect x="462.4" y="199.0" width="80" height="14" fill="#e6f7e6" stroke="#cccccc" stroke-width="0.5" />
<text x="502.4" y="207.0" font-size="10" font-family="Consolas, monospace" fill="#000000" text-anchor="middle" dominant-baseline="central"></text>
<rect x="543.4" y="199.0" width="86.0" height="14" fill="#ffe6e6" stroke="#cccccc" stroke-width="0.5" />
<text x="586.4" y="207.0" font-size="10" font-family="Consolas, monospace" fill="#000000" text-anchor="middle" dominant-baseline="central"></text>
<path d="M462.4,213.0 L629.4,213.0" stroke="#cccccc" stroke-width="0.5" />
<rect x="462.4" y="213.0" width="80" height="14" fill="#e6f7e6" stroke="#cccccc" stroke-width="0.5" />
<text x="502.4" y="221.0" font-size="10" font-family="Consolas, monospace" fill="#000000" text-anchor="middle" dominant-baseline="central">State_01_C</text>
<rect x="543.4" y="213.0" width="86.0" height="14" fill="#ffe6e6" stroke="#cccccc" stroke-width="0.5" />
<text x="586.4" y="221.0" font-size="10" font-family="Consolas, monospace" fill="#000000" text-anchor="middle" dominant-baseline="central">CNF</text>
<path d="M462.4,227.0 L629.4,227.0" stroke="#cccccc" stroke-width="0.5" />
<rect x="462.4" y="227.0" width="80" height="14" fill="#e6f7e6" stroke="#cccccc" stroke-width="0.5" />
<text x="502.4" y="235.0" font-size="10" font-family="Consolas, monospace" fill="#000000" text-anchor="middle" dominant-baseline="central">State_01_E</text>
<rect x="543.4" y="227.0" width="86.0" height="14" fill="#ffe6e6" stroke="#cccccc" stroke-width="0.5" />
<text x="586.4" y="235.0" font-size="10" font-family="Consolas, monospace" fill="#000000" text-anchor="middle" dominant-baseline="central">DO_S1.E1</text>
<path d="M462.4,241.0 L629.4,241.0" stroke="#cccccc" stroke-width="0.5" />
<rect x="462.4" y="241.0" width="80" height="14" fill="#e6f7e6" stroke="#cccccc" stroke-width="0.5" />
<text x="502.4" y="249.0" font-size="10" font-family="Consolas, monospace" fill="#000000" text-anchor="middle" dominant-baseline="central"></text>
<rect x="543.4" y="241.0" width="86.0" height="14" fill="#ffe6e6" stroke="#cccccc" stroke-width="0.5" />
<text x="586.4" y="249.0" font-size="10" font-family="Consolas, monospace" fill="#000000" text-anchor="middle" dominant-baseline="central">timeOut.START</text>
<rect x="367.6" y="271.0" width="84.8" height="32" fill="#f5f5f5" stroke="#000000" stroke-width="2" rx="8" ry="8" />
<text x="410.0" y="287.0" font-size="12" fontWeight="bold" font-family="Verdana, sans-serif" fill="#000000" text-anchor="middle" dominant-baseline="central">sState_02</text>
<rect x="462.4" y="271.0" width="167.0" height="78" fill="#ffffff" stroke="#cccccc" stroke-width="1" rx="4" ry="4" />
<path d="M452.4,287.0 L462.4,282.0" stroke="#000000" stroke-width="2" />
<path d="M542.4,271.0 L542.4,349.0" stroke="#cccccc" stroke-width="1" />
<rect x="462.4" y="275.0" width="80" height="14" fill="#e6f7e6" stroke="#cccccc" stroke-width="0.5" />
<text x="502.4" y="283.0" font-size="10" font-family="Consolas, monospace" fill="#000000" text-anchor="middle" dominant-baseline="central"></text>
<rect x="543.4" y="275.0" width="86.0" height="14" fill="#ffe6e6" stroke="#cccccc" stroke-width="0.5" />
<text x="586.4" y="283.0" font-size="10" font-family="Consolas, monospace" fill="#000000" text-anchor="middle" dominant-baseline="central">timeOut.STOP</text>
<path d="M462.4,289.0 L629.4,289.0" stroke="#cccccc" stroke-width="0.5" />
<rect x="462.4" y="289.0" width="80" height="14" fill="#e6f7e6" stroke="#cccccc" stroke-width="0.5" />
<text x="502.4" y="297.0" font-size="10" font-family="Consolas, monospace" fill="#000000" text-anchor="middle" dominant-baseline="central">State_01_X</text>
<rect x="543.4" y="289.0" width="86.0" height="14" fill="#ffe6e6" stroke="#cccccc" stroke-width="0.5" />
<text x="586.4" y="297.0" font-size="10" font-family="Consolas, monospace" fill="#000000" text-anchor="middle" dominant-baseline="central">DO_S1.E1</text>
<path d="M462.4,303.0 L629.4,303.0" stroke="#cccccc" stroke-width="0.5" />
<rect x="462.4" y="303.0" width="80" height="14" fill="#e6f7e6" stroke="#cccccc" stroke-width="0.5" />
<text x="502.4" y="311.0" font-size="10" font-family="Consolas, monospace" fill="#000000" text-anchor="middle" dominant-baseline="central">State_02_C</text>
<rect x="543.4" y="303.0" width="86.0" height="14" fill="#ffe6e6" stroke="#cccccc" stroke-width="0.5" />
<text x="586.4" y="311.0" font-size="10" font-family="Consolas, monospace" fill="#000000" text-anchor="middle" dominant-baseline="central">CNF</text>
<path d="M462.4,317.0 L629.4,317.0" stroke="#cccccc" stroke-width="0.5" />
<rect x="462.4" y="317.0" width="80" height="14" fill="#e6f7e6" stroke="#cccccc" stroke-width="0.5" />
<text x="502.4" y="325.0" font-size="10" font-family="Consolas, monospace" fill="#000000" text-anchor="middle" dominant-baseline="central">State_02_E</text>
<rect x="543.4" y="317.0" width="86.0" height="14" fill="#ffe6e6" stroke="#cccccc" stroke-width="0.5" />
<text x="586.4" y="325.0" font-size="10" font-family="Consolas, monospace" fill="#000000" text-anchor="middle" dominant-baseline="central">DO_S2.E1</text>
<path d="M462.4,331.0 L629.4,331.0" stroke="#cccccc" stroke-width="0.5" />
<rect x="462.4" y="331.0" width="80" height="14" fill="#e6f7e6" stroke="#cccccc" stroke-width="0.5" />
<text x="502.4" y="339.0" font-size="10" font-family="Consolas, monospace" fill="#000000" text-anchor="middle" dominant-baseline="central"></text>
<rect x="543.4" y="331.0" width="86.0" height="14" fill="#ffe6e6" stroke="#cccccc" stroke-width="0.5" />
<text x="586.4" y="339.0" font-size="10" font-family="Consolas, monospace" fill="#000000" text-anchor="middle" dominant-baseline="central">timeOut.START</text>
<rect x="367.6" y="361.0" width="84.8" height="32" fill="#f5f5f5" stroke="#000000" stroke-width="2" rx="8" ry="8" />
<text x="410.0" y="377.0" font-size="12" fontWeight="bold" font-family="Verdana, sans-serif" fill="#000000" text-anchor="middle" dominant-baseline="central">sState_03</text>
<rect x="462.4" y="361.0" width="167.0" height="78" fill="#ffffff" stroke="#cccccc" stroke-width="1" rx="4" ry="4" />
<path d="M452.4,377.0 L462.4,372.0" stroke="#000000" stroke-width="2" />
<path d="M542.4,361.0 L542.4,439.0" stroke="#cccccc" stroke-width="1" />
<rect x="462.4" y="365.0" width="80" height="14" fill="#e6f7e6" stroke="#cccccc" stroke-width="0.5" />
<text x="502.4" y="373.0" font-size="10" font-family="Consolas, monospace" fill="#000000" text-anchor="middle" dominant-baseline="central"></text>
<rect x="543.4" y="365.0" width="86.0" height="14" fill="#ffe6e6" stroke="#cccccc" stroke-width="0.5" />
<text x="586.4" y="373.0" font-size="10" font-family="Consolas, monospace" fill="#000000" text-anchor="middle" dominant-baseline="central">timeOut.STOP</text>
<path d="M462.4,379.0 L629.4,379.0" stroke="#cccccc" stroke-width="0.5" />
<rect x="462.4" y="379.0" width="80" height="14" fill="#e6f7e6" stroke="#cccccc" stroke-width="0.5" />
<text x="502.4" y="387.0" font-size="10" font-family="Consolas, monospace" fill="#000000" text-anchor="middle" dominant-baseline="central">State_02_X</text>
<rect x="543.4" y="379.0" width="86.0" height="14" fill="#ffe6e6" stroke="#cccccc" stroke-width="0.5" />
<text x="586.4" y="387.0" font-size="10" font-family="Consolas, monospace" fill="#000000" text-anchor="middle" dominant-baseline="central">DO_S2.E1</text>
<path d="M462.4,393.0 L629.4,393.0" stroke="#cccccc" stroke-width="0.5" />
<rect x="462.4" y="393.0" width="80" height="14" fill="#e6f7e6" stroke="#cccccc" stroke-width="0.5" />
<text x="502.4" y="401.0" font-size="10" font-family="Consolas, monospace" fill="#000000" text-anchor="middle" dominant-baseline="central">State_03_C</text>
<rect x="543.4" y="393.0" width="86.0" height="14" fill="#ffe6e6" stroke="#cccccc" stroke-width="0.5" />
<text x="586.4" y="401.0" font-size="10" font-family="Consolas, monospace" fill="#000000" text-anchor="middle" dominant-baseline="central">CNF</text>
<path d="M462.4,407.0 L629.4,407.0" stroke="#cccccc" stroke-width="0.5" />
<rect x="462.4" y="407.0" width="80" height="14" fill="#e6f7e6" stroke="#cccccc" stroke-width="0.5" />
<text x="502.4" y="415.0" font-size="10" font-family="Consolas, monospace" fill="#000000" text-anchor="middle" dominant-baseline="central">State_03_E</text>
<rect x="543.4" y="407.0" width="86.0" height="14" fill="#ffe6e6" stroke="#cccccc" stroke-width="0.5" />
<text x="586.4" y="415.0" font-size="10" font-family="Consolas, monospace" fill="#000000" text-anchor="middle" dominant-baseline="central">DO_S3.E1</text>
<path d="M462.4,421.0 L629.4,421.0" stroke="#cccccc" stroke-width="0.5" />
<rect x="462.4" y="421.0" width="80" height="14" fill="#e6f7e6" stroke="#cccccc" stroke-width="0.5" />
<text x="502.4" y="429.0" font-size="10" font-family="Consolas, monospace" fill="#000000" text-anchor="middle" dominant-baseline="central"></text>
<rect x="543.4" y="421.0" width="86.0" height="14" fill="#ffe6e6" stroke="#cccccc" stroke-width="0.5" />
<text x="586.4" y="429.0" font-size="10" font-family="Consolas, monospace" fill="#000000" text-anchor="middle" dominant-baseline="central">timeOut.START</text>
<rect x="367.6" y="451.0" width="84.8" height="32" fill="#f5f5f5" stroke="#000000" stroke-width="2" rx="8" ry="8" />
<text x="410.0" y="467.0" font-size="12" fontWeight="bold" font-family="Verdana, sans-serif" fill="#000000" text-anchor="middle" dominant-baseline="central">sState_04</text>
<rect x="462.4" y="451.0" width="167.0" height="78" fill="#ffffff" stroke="#cccccc" stroke-width="1" rx="4" ry="4" />
<path d="M452.4,467.0 L462.4,462.0" stroke="#000000" stroke-width="2" />
<path d="M542.4,451.0 L542.4,529.0" stroke="#cccccc" stroke-width="1" />
<rect x="462.4" y="455.0" width="80" height="14" fill="#e6f7e6" stroke="#cccccc" stroke-width="0.5" />
<text x="502.4" y="463.0" font-size="10" font-family="Consolas, monospace" fill="#000000" text-anchor="middle" dominant-baseline="central"></text>
<rect x="543.4" y="455.0" width="86.0" height="14" fill="#ffe6e6" stroke="#cccccc" stroke-width="0.5" />
<text x="586.4" y="463.0" font-size="10" font-family="Consolas, monospace" fill="#000000" text-anchor="middle" dominant-baseline="central">timeOut.STOP</text>
<path d="M462.4,469.0 L629.4,469.0" stroke="#cccccc" stroke-width="0.5" />
<rect x="462.4" y="469.0" width="80" height="14" fill="#e6f7e6" stroke="#cccccc" stroke-width="0.5" />
<text x="502.4" y="477.0" font-size="10" font-family="Consolas, monospace" fill="#000000" text-anchor="middle" dominant-baseline="central">State_03_X</text>
<rect x="543.4" y="469.0" width="86.0" height="14" fill="#ffe6e6" stroke="#cccccc" stroke-width="0.5" />
<text x="586.4" y="477.0" font-size="10" font-family="Consolas, monospace" fill="#000000" text-anchor="middle" dominant-baseline="central">DO_S3.E1</text>
<path d="M462.4,483.0 L629.4,483.0" stroke="#cccccc" stroke-width="0.5" />
<rect x="462.4" y="483.0" width="80" height="14" fill="#e6f7e6" stroke="#cccccc" stroke-width="0.5" />
<text x="502.4" y="491.0" font-size="10" font-family="Consolas, monospace" fill="#000000" text-anchor="middle" dominant-baseline="central">State_04_C</text>
<rect x="543.4" y="483.0" width="86.0" height="14" fill="#ffe6e6" stroke="#cccccc" stroke-width="0.5" />
<text x="586.4" y="491.0" font-size="10" font-family="Consolas, monospace" fill="#000000" text-anchor="middle" dominant-baseline="central">CNF</text>
<path d="M462.4,497.0 L629.4,497.0" stroke="#cccccc" stroke-width="0.5" />
<rect x="462.4" y="497.0" width="80" height="14" fill="#e6f7e6" stroke="#cccccc" stroke-width="0.5" />
<text x="502.4" y="505.0" font-size="10" font-family="Consolas, monospace" fill="#000000" text-anchor="middle" dominant-baseline="central">State_04_E</text>
<rect x="543.4" y="497.0" width="86.0" height="14" fill="#ffe6e6" stroke="#cccccc" stroke-width="0.5" />
<text x="586.4" y="505.0" font-size="10" font-family="Consolas, monospace" fill="#000000" text-anchor="middle" dominant-baseline="central">DO_S4.E1</text>
<path d="M462.4,511.0 L629.4,511.0" stroke="#cccccc" stroke-width="0.5" />
<rect x="462.4" y="511.0" width="80" height="14" fill="#e6f7e6" stroke="#cccccc" stroke-width="0.5" />
<text x="502.4" y="519.0" font-size="10" font-family="Consolas, monospace" fill="#000000" text-anchor="middle" dominant-baseline="central"></text>
<rect x="543.4" y="511.0" width="86.0" height="14" fill="#ffe6e6" stroke="#cccccc" stroke-width="0.5" />
<text x="586.4" y="519.0" font-size="10" font-family="Consolas, monospace" fill="#000000" text-anchor="middle" dominant-baseline="central">timeOut.START</text>
<rect x="367.6" y="541.0" width="84.8" height="32" fill="#f5f5f5" stroke="#000000" stroke-width="2" rx="8" ry="8" />
<text x="410.0" y="557.0" font-size="12" fontWeight="bold" font-family="Verdana, sans-serif" fill="#000000" text-anchor="middle" dominant-baseline="central">sState_05</text>
<rect x="462.4" y="541.0" width="167.0" height="78" fill="#ffffff" stroke="#cccccc" stroke-width="1" rx="4" ry="4" />
<path d="M452.4,557.0 L462.4,552.0" stroke="#000000" stroke-width="2" />
<path d="M542.4,541.0 L542.4,619.0" stroke="#cccccc" stroke-width="1" />
<rect x="462.4" y="545.0" width="80" height="14" fill="#e6f7e6" stroke="#cccccc" stroke-width="0.5" />
<text x="502.4" y="553.0" font-size="10" font-family="Consolas, monospace" fill="#000000" text-anchor="middle" dominant-baseline="central"></text>
<rect x="543.4" y="545.0" width="86.0" height="14" fill="#ffe6e6" stroke="#cccccc" stroke-width="0.5" />
<text x="586.4" y="553.0" font-size="10" font-family="Consolas, monospace" fill="#000000" text-anchor="middle" dominant-baseline="central">timeOut.STOP</text>
<path d="M462.4,559.0 L629.4,559.0" stroke="#cccccc" stroke-width="0.5" />
<rect x="462.4" y="559.0" width="80" height="14" fill="#e6f7e6" stroke="#cccccc" stroke-width="0.5" />
<text x="502.4" y="567.0" font-size="10" font-family="Consolas, monospace" fill="#000000" text-anchor="middle" dominant-baseline="central">State_04_X</text>
<rect x="543.4" y="559.0" width="86.0" height="14" fill="#ffe6e6" stroke="#cccccc" stroke-width="0.5" />
<text x="586.4" y="567.0" font-size="10" font-family="Consolas, monospace" fill="#000000" text-anchor="middle" dominant-baseline="central">DO_S4.E1</text>
<path d="M462.4,573.0 L629.4,573.0" stroke="#cccccc" stroke-width="0.5" />
<rect x="462.4" y="573.0" width="80" height="14" fill="#e6f7e6" stroke="#cccccc" stroke-width="0.5" />
<text x="502.4" y="581.0" font-size="10" font-family="Consolas, monospace" fill="#000000" text-anchor="middle" dominant-baseline="central">State_05_C</text>
<rect x="543.4" y="573.0" width="86.0" height="14" fill="#ffe6e6" stroke="#cccccc" stroke-width="0.5" />
<text x="586.4" y="581.0" font-size="10" font-family="Consolas, monospace" fill="#000000" text-anchor="middle" dominant-baseline="central">CNF</text>
<path d="M462.4,587.0 L629.4,587.0" stroke="#cccccc" stroke-width="0.5" />
<rect x="462.4" y="587.0" width="80" height="14" fill="#e6f7e6" stroke="#cccccc" stroke-width="0.5" />
<text x="502.4" y="595.0" font-size="10" font-family="Consolas, monospace" fill="#000000" text-anchor="middle" dominant-baseline="central">State_05_E</text>
<rect x="543.4" y="587.0" width="86.0" height="14" fill="#ffe6e6" stroke="#cccccc" stroke-width="0.5" />
<text x="586.4" y="595.0" font-size="10" font-family="Consolas, monospace" fill="#000000" text-anchor="middle" dominant-baseline="central">DO_S5.E1</text>
<path d="M462.4,601.0 L629.4,601.0" stroke="#cccccc" stroke-width="0.5" />
<rect x="462.4" y="601.0" width="80" height="14" fill="#e6f7e6" stroke="#cccccc" stroke-width="0.5" />
<text x="502.4" y="609.0" font-size="10" font-family="Consolas, monospace" fill="#000000" text-anchor="middle" dominant-baseline="central"></text>
<rect x="543.4" y="601.0" width="86.0" height="14" fill="#ffe6e6" stroke="#cccccc" stroke-width="0.5" />
<text x="586.4" y="609.0" font-size="10" font-family="Consolas, monospace" fill="#000000" text-anchor="middle" dominant-baseline="central">timeOut.START</text>
<rect x="367.6" y="631.0" width="84.8" height="32" fill="#f5f5f5" stroke="#000000" stroke-width="2" rx="8" ry="8" />
<text x="410.0" y="647.0" font-size="12" fontWeight="bold" font-family="Verdana, sans-serif" fill="#000000" text-anchor="middle" dominant-baseline="central">sState_00</text>
<rect x="462.4" y="631.0" width="161" height="78" fill="#ffffff" stroke="#cccccc" stroke-width="1" rx="4" ry="4" />
<path d="M452.4,647.0 L462.4,642.0" stroke="#000000" stroke-width="2" />
<path d="M542.4,631.0 L542.4,709.0" stroke="#cccccc" stroke-width="1" />
<rect x="462.4" y="635.0" width="80" height="14" fill="#e6f7e6" stroke="#cccccc" stroke-width="0.5" />
<text x="502.4" y="643.0" font-size="10" font-family="Consolas, monospace" fill="#000000" text-anchor="middle" dominant-baseline="central"></text>
<rect x="543.4" y="635.0" width="80" height="14" fill="#ffe6e6" stroke="#cccccc" stroke-width="0.5" />
<text x="583.4" y="643.0" font-size="10" font-family="Consolas, monospace" fill="#000000" text-anchor="middle" dominant-baseline="central">timeOut.STOP</text>
<path d="M462.4,649.0 L623.4,649.0" stroke="#cccccc" stroke-width="0.5" />
<rect x="462.4" y="649.0" width="80" height="14" fill="#e6f7e6" stroke="#cccccc" stroke-width="0.5" />
<text x="502.4" y="657.0" font-size="10" font-family="Consolas, monospace" fill="#000000" text-anchor="middle" dominant-baseline="central">State_05_X</text>
<rect x="543.4" y="649.0" width="80" height="14" fill="#ffe6e6" stroke="#cccccc" stroke-width="0.5" />
<text x="583.4" y="657.0" font-size="10" font-family="Consolas, monospace" fill="#000000" text-anchor="middle" dominant-baseline="central">DO_S5.E1</text>
<path d="M462.4,663.0 L623.4,663.0" stroke="#cccccc" stroke-width="0.5" />
<rect x="462.4" y="663.0" width="80" height="14" fill="#e6f7e6" stroke="#cccccc" stroke-width="0.5" />
<text x="502.4" y="671.0" font-size="10" font-family="Consolas, monospace" fill="#000000" text-anchor="middle" dominant-baseline="central">State_00_C</text>
<rect x="543.4" y="663.0" width="80" height="14" fill="#ffe6e6" stroke="#cccccc" stroke-width="0.5" />
<text x="583.4" y="671.0" font-size="10" font-family="Consolas, monospace" fill="#000000" text-anchor="middle" dominant-baseline="central">CNF</text>
<path d="M462.4,677.0 L623.4,677.0" stroke="#cccccc" stroke-width="0.5" />
<rect x="462.4" y="677.0" width="80" height="14" fill="#e6f7e6" stroke="#cccccc" stroke-width="0.5" />
<text x="502.4" y="685.0" font-size="10" font-family="Consolas, monospace" fill="#000000" text-anchor="middle" dominant-baseline="central"></text>
<rect x="543.4" y="677.0" width="80" height="14" fill="#ffe6e6" stroke="#cccccc" stroke-width="0.5" />
<text x="583.4" y="685.0" font-size="10" font-family="Consolas, monospace" fill="#000000" text-anchor="middle" dominant-baseline="central"></text>
<path d="M462.4,691.0 L623.4,691.0" stroke="#cccccc" stroke-width="0.5" />
<rect x="462.4" y="691.0" width="80" height="14" fill="#e6f7e6" stroke="#cccccc" stroke-width="0.5" />
<text x="502.4" y="699.0" font-size="10" font-family="Consolas, monospace" fill="#000000" text-anchor="middle" dominant-baseline="central"></text>
<rect x="543.4" y="691.0" width="80" height="14" fill="#ffe6e6" stroke="#cccccc" stroke-width="0.5" />
<text x="583.4" y="699.0" font-size="10" font-family="Consolas, monospace" fill="#000000" text-anchor="middle" dominant-baseline="central"></text>
<path d="M402.5,213.0 C402.5,224.6,402.5,259.4,402.5,271.0" stroke="#404040" stroke-width="1.2" fill="none" />
<path d="M402.5,271.0 L398.5,264.0717967697245 L406.5,264.0717967697245 L402.5,271.0" fill="#404040" stroke="#404040" stroke-width="1" />
<g transform="translate(402.5,242.0)">
<rect x="-20.25" y="-7.5" width="40.5" height="15" fill="#ffffff" opacity="0.9" rx="3" ry="3" />
<text x="0" y="3.5" font-size="10" font-family="Consolas, monospace" fill="#000000" text-anchor="middle" dominant-baseline="central">S1_S2</text>
</g>
<path d="M402.5,303.0 C402.5,314.6,402.5,349.4,402.5,361.0" stroke="#404040" stroke-width="1.2" fill="none" />
<path d="M402.5,361.0 L398.5,354.0717967697245 L406.5,354.0717967697245 L402.5,361.0" fill="#404040" stroke="#404040" stroke-width="1" />
<g transform="translate(402.5,332.0)">
<rect x="-20.25" y="-7.5" width="40.5" height="15" fill="#ffffff" opacity="0.9" rx="3" ry="3" />
<text x="0" y="3.5" font-size="10" font-family="Consolas, monospace" fill="#000000" text-anchor="middle" dominant-baseline="central">S2_S3</text>
</g>
<path d="M402.5,393.0 C402.5,404.6,402.5,439.4,402.5,451.0" stroke="#404040" stroke-width="1.2" fill="none" />
<path d="M402.5,451.0 L398.5,444.0717967697245 L406.5,444.0717967697245 L402.5,451.0" fill="#404040" stroke="#404040" stroke-width="1" />
<g transform="translate(402.5,422.0)">
<rect x="-20.25" y="-7.5" width="40.5" height="15" fill="#ffffff" opacity="0.9" rx="3" ry="3" />
<text x="0" y="3.5" font-size="10" font-family="Consolas, monospace" fill="#000000" text-anchor="middle" dominant-baseline="central">S3_S4</text>
</g>
<path d="M417.5,213.0 C417.5,224.6,417.5,259.4,417.5,271.0" stroke="#404040" stroke-width="1.2" fill="none" />
<path d="M417.5,271.0 L413.5,264.0717967697245 L421.5,264.0717967697245 L417.5,271.0" fill="#404040" stroke="#404040" stroke-width="1" />
<g transform="translate(417.5,260.0)">
<rect x="-52.75" y="-7.5" width="105.5" height="15" fill="#ffffff" opacity="0.9" rx="3" ry="3" />
<text x="0" y="3.5" font-size="10" font-family="Consolas, monospace" fill="#000000" text-anchor="middle" dominant-baseline="central">timeOut.TimeOut</text>
</g>
<path d="M417.5,303.0 C417.5,314.6,417.5,349.4,417.5,361.0" stroke="#404040" stroke-width="1.2" fill="none" />
<path d="M417.5,361.0 L413.5,354.0717967697245 L421.5,354.0717967697245 L417.5,361.0" fill="#404040" stroke="#404040" stroke-width="1" />
<g transform="translate(417.5,350.0)">
<rect x="-52.75" y="-7.5" width="105.5" height="15" fill="#ffffff" opacity="0.9" rx="3" ry="3" />
<text x="0" y="3.5" font-size="10" font-family="Consolas, monospace" fill="#000000" text-anchor="middle" dominant-baseline="central">timeOut.TimeOut</text>
</g>
<path d="M417.5,393.0 C417.5,404.6,417.5,439.4,417.5,451.0" stroke="#404040" stroke-width="1.2" fill="none" />
<path d="M417.5,451.0 L413.5,444.0717967697245 L421.5,444.0717967697245 L417.5,451.0" fill="#404040" stroke="#404040" stroke-width="1" />
<g transform="translate(417.5,440.0)">
<rect x="-52.75" y="-7.5" width="105.5" height="15" fill="#ffffff" opacity="0.9" rx="3" ry="3" />
<text x="0" y="3.5" font-size="10" font-family="Consolas, monospace" fill="#000000" text-anchor="middle" dominant-baseline="central">timeOut.TimeOut</text>
</g>
<path d="M410.0,631.0 C270.0,591.0,262.5,253.0,402.5,213.0" stroke="#404040" stroke-width="1.2" fill="none" />
<path d="M402.5,213.0 L396.9372511915571,218.74941959628683 L394.73948216837806,211.05722801516026 L402.5,213.0" fill="#404040" stroke="#404040" stroke-width="1" />
<g transform="translate(301.25,422.0)">
<rect x="-30.0" y="-7.5" width="60.0" height="15" fill="#ffffff" opacity="0.9" rx="3" ry="3" />
<text x="0" y="3.5" font-size="10" font-family="Consolas, monospace" fill="#000000" text-anchor="middle" dominant-baseline="central">START_S1</text>
</g>
<path d="M270.0,107.0 C350.0,107.0,417.5,101.0,417.5,181.0" stroke="#404040" stroke-width="1.2" fill="none" />
<path d="M417.5,181.0 L413.5,174.0717967697245 L421.5,174.0717967697245 L417.5,181.0" fill="#404040" stroke="#404040" stroke-width="1" />
<g transform="translate(373.75,114.0)">
<rect x="-30.0" y="-7.5" width="60.0" height="15" fill="#ffffff" opacity="0.9" rx="3" ry="3" />
<text x="0" y="3.5" font-size="10" font-family="Consolas, monospace" fill="#000000" text-anchor="middle" dominant-baseline="central">START_S1</text>
</g>
<path d="M367.6,197.0 C171.98332995370768,197.0,20.0,345.38332995370763,20.0,541.0" stroke="#404040" stroke-width="1.2" fill="none" />
<path d="M20.0,541.0 L16.0,534.0717967697245 L24.0,534.0717967697245 L20.0,541.0" fill="#404040" stroke="#404040" stroke-width="1" />
<g transform="translate(120.44374873264039,295.64374873264035)">
<rect x="-20.25" y="-7.5" width="40.5" height="15" fill="#ffffff" opacity="0.9" rx="3" ry="3" />
<text x="0" y="3.5" font-size="10" font-family="Consolas, monospace" fill="#000000" text-anchor="middle" dominant-baseline="central">RESET</text>
</g>
<path d="M367.6,287.0 C200.20166786971862,287.0,35.0,373.6016678697186,35.0,541.0" stroke="#404040" stroke-width="1.2" fill="none" />
<path d="M35.0,541.0 L31.0,534.0717967697245 L39.0,534.0717967697245 L35.0,541.0" fill="#404040" stroke="#404040" stroke-width="1" />
<g transform="translate(138.5256254511445,351.2256254511445)">
<rect x="-20.25" y="-7.5" width="40.5" height="15" fill="#ffffff" opacity="0.9" rx="3" ry="3" />
<text x="0" y="3.5" font-size="10" font-family="Consolas, monospace" fill="#000000" text-anchor="middle" dominant-baseline="central">RESET</text>
</g>
<path d="M367.6,377.0 C224.62265354259787,377.0,50.0,398.0226535425978,50.0,541.0" stroke="#404040" stroke-width="1.2" fill="none" />
<path d="M50.0,541.0 L46.0,534.0717967697245 L54.0,534.0717967697245 L50.0,541.0" fill="#404040" stroke="#404040" stroke-width="1" />
<g transform="translate(155.1834950784742,405.3834950784742)">
<rect x="-20.25" y="-7.5" width="40.5" height="15" fill="#ffffff" opacity="0.9" rx="3" ry="3" />
<text x="0" y="3.5" font-size="10" font-family="Consolas, monospace" fill="#000000" text-anchor="middle" dominant-baseline="central">RESET</text>
</g>
<path d="M90.0,557.0 C215.53947586317224,557.0,395.0,505.46052413682776,395.0,631.0" stroke="#404040" stroke-width="1.2" fill="none" />
<path d="M395.0,631.0 L391.0,624.0717967697245 L399.0,624.0717967697245 L395.0,631.0" fill="#404040" stroke="#404040" stroke-width="1" />
<g transform="translate(289.5773034486896,546.9226965513104)">
<rect x="-20.25" y="-7.5" width="40.5" height="15" fill="#ffffff" opacity="0.9" rx="3" ry="3" />
<text x="0" y="3.5" font-size="10" font-family="Consolas, monospace" fill="#000000" text-anchor="middle" dominant-baseline="central">RESET</text>
</g>
<path d="M402.5,483.0 C402.5,494.6,402.5,529.4,402.5,541.0" stroke="#404040" stroke-width="1.2" fill="none" />
<path d="M402.5,541.0 L398.5,534.0717967697245 L406.5,534.0717967697245 L402.5,541.0" fill="#404040" stroke="#404040" stroke-width="1" />
<g transform="translate(402.5,512.0)">
<rect x="-20.25" y="-7.5" width="40.5" height="15" fill="#ffffff" opacity="0.9" rx="3" ry="3" />
<text x="0" y="3.5" font-size="10" font-family="Consolas, monospace" fill="#000000" text-anchor="middle" dominant-baseline="central">S4_S5</text>
</g>
<path d="M417.5,483.0 C417.5,494.6,417.5,529.4,417.5,541.0" stroke="#404040" stroke-width="1.2" fill="none" />
<path d="M417.5,541.0 L413.5,534.0717967697245 L421.5,534.0717967697245 L417.5,541.0" fill="#404040" stroke="#404040" stroke-width="1" />
<g transform="translate(417.5,530.0)">
<rect x="-52.75" y="-7.5" width="105.5" height="15" fill="#ffffff" opacity="0.9" rx="3" ry="3" />
<text x="0" y="3.5" font-size="10" font-family="Consolas, monospace" fill="#000000" text-anchor="middle" dominant-baseline="central">timeOut.TimeOut</text>
</g>
<path d="M367.6,467.0 C242.99325218913708,467.0,65.0,416.39325218913706,65.0,541.0" stroke="#404040" stroke-width="1.2" fill="none" />
<path d="M65.0,541.0 L61.0,534.0717967697245 L69.0,534.0717967697245 L65.0,541.0" fill="#404040" stroke="#404040" stroke-width="1" />
<g transform="translate(169.5724695709264,457.27246957092643)">
<rect x="-20.25" y="-7.5" width="40.5" height="15" fill="#ffffff" opacity="0.9" rx="3" ry="3" />
<text x="0" y="3.5" font-size="10" font-family="Consolas, monospace" fill="#000000" text-anchor="middle" dominant-baseline="central">RESET</text>
</g>
<path d="M402.5,573.0 C402.5,584.6965806969388,410.0,619.3034193030612,410.0,631.0" stroke="#404040" stroke-width="1.2" fill="none" />
<path d="M410.0,631.0 L406.0,624.0717967697245 L414.0,624.0717967697245 L410.0,631.0" fill="#404040" stroke="#404040" stroke-width="1" />
<g transform="translate(406.25,602.0)">
<rect x="-30.0" y="-7.5" width="60.0" height="15" fill="#ffffff" opacity="0.9" rx="3" ry="3" />
<text x="0" y="3.5" font-size="10" font-family="Consolas, monospace" fill="#000000" text-anchor="middle" dominant-baseline="central">S5_START</text>
</g>
<path d="M417.5,573.0 C417.5,584.6965806969388,425.0,619.3034193030612,425.0,631.0" stroke="#404040" stroke-width="1.2" fill="none" />
<path d="M425.0,631.0 L421.0,624.0717967697245 L429.0,624.0717967697245 L425.0,631.0" fill="#404040" stroke="#404040" stroke-width="1" />
<g transform="translate(421.25,620.0)">
<rect x="-52.75" y="-7.5" width="105.5" height="15" fill="#ffffff" opacity="0.9" rx="3" ry="3" />
<text x="0" y="3.5" font-size="10" font-family="Consolas, monospace" fill="#000000" text-anchor="middle" dominant-baseline="central">timeOut.TimeOut</text>
</g>
<path d="M367.6,557.0 C327.6,557.0,80.0,501.0,80.0,541.0" stroke="#404040" stroke-width="1.2" fill="none" />
<path d="M80.0,541.0 L76.0,534.0717967697245 L84.0,534.0717967697245 L80.0,541.0" fill="#404040" stroke="#404040" stroke-width="1" />
<g transform="translate(208.8,534.0)">
<rect x="-20.25" y="-7.5" width="40.5" height="15" fill="#ffffff" opacity="0.9" rx="3" ry="3" />
<text x="0" y="3.5" font-size="10" font-family="Consolas, monospace" fill="#000000" text-anchor="middle" dominant-baseline="central">RESET</text>
</g>
</svg>