<?xml version="1.0" encoding="UTF-8"?>
<svg xmlns="http://www.w3.org/2000/svg" xmlns:xlink="http://www.w3.org/1999/xlink"
     width="1200" height="800" viewBox="0 0 1200 800">
<defs>
</defs>
<rect x="0" y="0" width="1200" height="800" fill="#ffffff" />
<text x="600" y="25" font-size="14" fontWeight="bold" font-family="Verdana, sans-serif" fill="#000000" text-anchor="middle" dominant-baseline="central">ECC: sequence_ET_05_loop</text>
<rect x="98.61064537707085" y="96.80670830763347" width="80" height="32" fill="#f5f5f5" stroke="#000000" stroke-width="2" rx="8" ry="8" />
<text x="138.61064537707085" y="112.80670830763347" font-size="12" fontWeight="bold" font-family="Verdana, sans-serif" fill="#000000" text-anchor="middle" dominant-baseline="central">xSTART</text>
<rect x="98.61064537707085" y="597.1932916923665" width="80" height="32" fill="#f5f5f5" stroke="#000000" stroke-width="2" rx="8" ry="8" />
<text x="138.61064537707085" y="613.1932916923665" font-size="12" fontWeight="bold" font-family="Verdana, sans-serif" fill="#000000" text-anchor="middle" dominant-baseline="central">sRESET</text>
<rect x="188.61064537707085" y="597.1932916923665" width="161" height="106" fill="#ffffff" stroke="#cccccc" stroke-width="1" rx="4" ry="4" />
<path d="M178.61064537707085,613.1932916923665 L188.61064537707085,608.1932916923665" stroke="#000000" stroke-width="2" />
<path d="M268.61064537707085,597.1932916923665 L268.61064537707085,703.1932916923665" stroke="#cccccc" stroke-width="1" />
<rect x="188.61064537707085" y="601.1932916923665" width="80" height="14" fill="#e6f7e6" stroke="#cccccc" stroke-width="0.5" />
<text x="228.61064537707085" y="609.1932916923665" font-size="10" font-family="Consolas, monospace" fill="#000000" text-anchor="middle" dominant-baseline="central"></text>
<rect x="269.61064537707085" y="601.1932916923665" width="80" height="14" fill="#ffe6e6" stroke="#cccccc" stroke-width="0.5" />
<text x="309.61064537707085" y="609.1932916923665" font-size="10" font-family="Consolas, monospace" fill="#000000" text-anchor="middle" dominant-baseline="central">timeOut.STOP</text>
<path d="M188.61064537707085,615.1932916923665 L349.61064537707085,615.1932916923665" stroke="#cccccc" stroke-width="0.5" />
<rect x="188.61064537707085" y="615.1932916923665" width="80" height="14" fill="#e6f7e6" stroke="#cccccc" stroke-width="0.5" />
<text x="228.61064537707085" y="623.1932916923665" font-size="10" font-family="Consolas, monospace" fill="#000000" text-anchor="middle" dominant-baseline="central">State_01_X</text>
<rect x="269.61064537707085" y="615.1932916923665" width="80" height="14" fill="#ffe6e6" stroke="#cccccc" stroke-width="0.5" />
<text x="309.61064537707085" y="623.1932916923665" font-size="10" font-family="Consolas, monospace" fill="#000000" text-anchor="middle" dominant-baseline="central">EO_S1</text>
<path d="M188.61064537707085,629.1932916923665 L349.61064537707085,629.1932916923665" stroke="#cccccc" stroke-width="0.5" />
<rect x="188.61064537707085" y="629.1932916923665" width="80" height="14" fill="#e6f7e6" stroke="#cccccc" stroke-width="0.5" />
<text x="228.61064537707085" y="637.1932916923665" font-size="10" font-family="Consolas, monospace" fill="#000000" text-anchor="middle" dominant-baseline="central">State_02_X</text>
<rect x="269.61064537707085" y="629.1932916923665" width="80" height="14" fill="#ffe6e6" stroke="#cccccc" stroke-width="0.5" />
<text x="309.61064537707085" y="637.1932916923665" font-size="10" font-family="Consolas, monospace" fill="#000000" text-anchor="middle" dominant-baseline="central">EO_S2</text>
<path d="M188.61064537707085,643.1932916923665 L349.61064537707085,643.1932916923665" stroke="#cccccc" stroke-width="0.5" />
<rect x="188.61064537707085" y="643.1932916923665" width="80" height="14" fill="#e6f7e6" stroke="#cccccc" stroke-width="0.5" />
<text x="228.61064537707085" y="651.1932916923665" font-size="10" font-family="Consolas, monospace" fill="#000000" text-anchor="middle" dominant-baseline="central">State_03_X</text>
<rect x="269.61064537707085" y="643.1932916923665" width="80" height="14" fill="#ffe6e6" stroke="#cccccc" stroke-width="0.5" />
<text x="309.61064537707085" y="651.1932916923665" font-size="10" font-family="Consolas, monospace" fill="#000000" text-anchor="middle" dominant-baseline="central">EO_S3</text>
<path d="M188.61064537707085,657.1932916923665 L349.61064537707085,657.1932916923665" stroke="#cccccc" stroke-width="0.5" />
<rect x="188.61064537707085" y="657.1932916923665" width="80" height="14" fill="#e6f7e6" stroke="#cccccc" stroke-width="0.5" />
<text x="228.61064537707085" y="665.1932916923665" font-size="10" font-family="Consolas, monospace" fill="#000000" text-anchor="middle" dominant-baseline="central">State_04_X</text>
<rect x="269.61064537707085" y="657.1932916923665" width="80" height="14" fill="#ffe6e6" stroke="#cccccc" stroke-width="0.5" />
<text x="309.61064537707085" y="665.1932916923665" font-size="10" font-family="Consolas, monospace" fill="#000000" text-anchor="middle" dominant-baseline="central">EO_S4</text>
<path d="M188.61064537707085,671.1932916923665 L349.61064537707085,671.1932916923665" stroke="#cccccc" stroke-width="0.5" />
<rect x="188.61064537707085" y="671.1932916923665" width="80" height="14" fill="#e6f7e6" stroke="#cccccc" stroke-width="0.5" />
<text x="228.61064537707085" y="679.1932916923665" font-size="10" font-family="Consolas, monospace" fill="#000000" text-anchor="middle" dominant-baseline="central">State_05_X</text>
<rect x="269.61064537707085" y="671.1932916923665" width="80" height="14" fill="#ffe6e6" stroke="#cccccc" stroke-width="0.5" />
<text x="309.61064537707085" y="679.1932916923665" font-size="10" font-family="Consolas, monospace" fill="#000000" text-anchor="middle" dominant-baseline="central">EO_S5</text>
<path d="M188.61064537707085,685.1932916923665 L349.61064537707085,685.1932916923665" stroke="#cccccc" stroke-width="0.5" />
<rect x="188.61064537707085" y="685.1932916923665" width="80" height="14" fill="#e6f7e6" stroke="#cccccc" stroke-width="0.5" />
<text x="228.61064537707085" y="693.1932916923665" font-size="10" font-family="Consolas, monospace" fill="#000000" text-anchor="middle" dominant-baseline="central">State_00_C</text>
<rect x="269.61064537707085" y="685.1932916923665" width="80" height="14" fill="#ffe6e6" stroke="#cccccc" stroke-width="0.5" />
<text x="309.61064537707085" y="693.1932916923665" font-size="10" font-family="Consolas, monospace" fill="#000000" text-anchor="middle" dominant-baseline="central">CNF</text>
<rect x="596.5972287618039" y="96.80670830763347" width="84.8" height="32" fill="#f5f5f5" stroke="#000000" stroke-width="2" rx="8" ry="8" />
<text x="638.9972287618039" y="112.80670830763347" font-size="12" fontWeight="bold" font-family="Verdana, sans-serif" fill="#000000" text-anchor="middle" dominant-baseline="central">sState_01</text>
<rect x="691.3972287618038" y="96.80670830763347" width="167.0" height="78" fill="#ffffff" stroke="#cccccc" stroke-width="1" rx="4" ry="4" />
<path d="M681.3972287618038,112.80670830763347 L691.3972287618038,107.80670830763347" stroke="#000000" stroke-width="2" />
<path d="M771.3972287618038,96.80670830763347 L771.3972287618038,174.80670830763347" stroke="#cccccc" stroke-width="1" />
<rect x="691.3972287618038" y="100.80670830763347" width="80" height="14" fill="#e6f7e6" stroke="#cccccc" stroke-width="0.5" />
<text x="731.3972287618038" y="108.80670830763347" font-size="10" font-family="Consolas, monospace" fill="#000000" text-anchor="middle" dominant-baseline="central"></text>
<rect x="772.3972287618038" y="100.80670830763347" width="86.0" height="14" fill="#ffe6e6" stroke="#cccccc" stroke-width="0.5" />
<text x="815.3972287618038" y="108.80670830763347" font-size="10" font-family="Consolas, monospace" fill="#000000" text-anchor="middle" dominant-baseline="central">timeOut.STOP</text>
<path d="M691.3972287618038,114.80670830763347 L858.3972287618038,114.80670830763347" stroke="#cccccc" stroke-width="0.5" />
<rect x="691.3972287618038" y="114.80670830763347" width="80" height="14" fill="#e6f7e6" stroke="#cccccc" stroke-width="0.5" />
<text x="731.3972287618038" y="122.80670830763347" font-size="10" font-family="Consolas, monospace" fill="#000000" text-anchor="middle" dominant-baseline="central">State_05_X</text>
<rect x="772.3972287618038" y="114.80670830763347" width="86.0" height="14" fill="#ffe6e6" stroke="#cccccc" stroke-width="0.5" />
<text x="815.3972287618038" y="122.80670830763347" font-size="10" font-family="Consolas, monospace" fill="#000000" text-anchor="middle" dominant-baseline="central">EO_S5</text>
<path d="M691.3972287618038,128.80670830763347 L858.3972287618038,128.80670830763347" stroke="#cccccc" stroke-width="0.5" />
<rect x="691.3972287618038" y="128.80670830763347" width="80" height="14" fill="#e6f7e6" stroke="#cccccc" stroke-width="0.5" />
<text x="731.3972287618038" y="136.80670830763347" font-size="10" font-family="Consolas, monospace" fill="#000000" text-anchor="middle" dominant-baseline="central">State_01_C</text>
<rect x="772.3972287618038" y="128.80670830763347" width="86.0" height="14" fill="#ffe6e6" stroke="#cccccc" stroke-width="0.5" />
<text x="815.3972287618038" y="136.80670830763347" font-size="10" font-family="Consolas, monospace" fill="#000000" text-anchor="middle" dominant-baseline="central">CNF</text>
<path d="M691.3972287618038,142.80670830763347 L858.3972287618038,142.80670830763347" stroke="#cccccc" stroke-width="0.5" />
<rect x="691.3972287618038" y="142.80670830763347" width="80" height="14" fill="#e6f7e6" stroke="#cccccc" stroke-width="0.5" />
<text x="731.3972287618038" y="150.80670830763347" font-size="10" font-family="Consolas, monospace" fill="#000000" text-anchor="middle" dominant-baseline="central">State_01_E</text>
<rect x="772.3972287618038" y="142.80670830763347" width="86.0" height="14" fill="#ffe6e6" stroke="#cccccc" stroke-width="0.5" />
<text x="815.3972287618038" y="150.80670830763347" font-size="10" font-family="Consolas, monospace" fill="#000000" text-anchor="middle" dominant-baseline="central">EO_S1</text>
<path d="M691.3972287618038,156.80670830763347 L858.3972287618038,156.80670830763347" stroke="#cccccc" stroke-width="0.5" />
<rect x="691.3972287618038" y="156.80670830763347" width="80" height="14" fill="#e6f7e6" stroke="#cccccc" stroke-width="0.5" />
<text x="731.3972287618038" y="164.80670830763347" font-size="10" font-family="Consolas, monospace" fill="#000000" text-anchor="middle" dominant-baseline="central"></text>
<rect x="772.3972287618038" y="156.80670830763347" width="86.0" height="14" fill="#ffe6e6" stroke="#cccccc" stroke-width="0.5" />
<text x="815.3972287618038" y="164.80670830763347" font-size="10" font-family="Consolas, monospace" fill="#000000" text-anchor="middle" dominant-baseline="central">timeOut.START</text>
<rect x="596.5972287618039" y="221.9033541538167" width="84.8" height="32" fill="#f5f5f5" stroke="#000000" stroke-width="2" rx="8" ry="8" />
<text x="638.9972287618039" y="237.9033541538167" font-size="12" fontWeight="bold" font-family="Verdana, sans-serif" fill="#000000" text-anchor="middle" dominant-baseline="central">sState_02</text>
<rect x="691.3972287618038" y="221.9033541538167" width="167.0" height="78" fill="#ffffff" stroke="#cccccc" stroke-width="1" rx="4" ry="4" />
<path d="M681.3972287618038,237.9033541538167 L691.3972287618038,232.9033541538167" stroke="#000000" stroke-width="2" />
<path d="M771.3972287618038,221.9033541538167 L771.3972287618038,299.90335415381674" stroke="#cccccc" stroke-width="1" />
<rect x="691.3972287618038" y="225.9033541538167" width="80" height="14" fill="#e6f7e6" stroke="#cccccc" stroke-width="0.5" />
<text x="731.3972287618038" y="233.9033541538167" font-size="10" font-family="Consolas, monospace" fill="#000000" text-anchor="middle" dominant-baseline="central"></text>
<rect x="772.3972287618038" y="225.9033541538167" width="86.0" height="14" fill="#ffe6e6" stroke="#cccccc" stroke-width="0.5" />
<text x="815.3972287618038" y="233.9033541538167" font-size="10" font-family="Consolas, monospace" fill="#000000" text-anchor="middle" dominant-baseline="central">timeOut.STOP</text>
<path d="M691.3972287618038,239.9033541538167 L858.3972287618038,239.9033541538167" stroke="#cccccc" stroke-width="0.5" />
<rect x="691.3972287618038" y="239.9033541538167" width="80" height="14" fill="#e6f7e6" stroke="#cccccc" stroke-width="0.5" />
<text x="731.3972287618038" y="247.9033541538167" font-size="10" font-family="Consolas, monospace" fill="#000000" text-anchor="middle" dominant-baseline="central">State_01_X</text>
<rect x="772.3972287618038" y="239.9033541538167" width="86.0" height="14" fill="#ffe6e6" stroke="#cccccc" stroke-width="0.5" />
<text x="815.3972287618038" y="247.9033541538167" font-size="10" font-family="Consolas, monospace" fill="#000000" text-anchor="middle" dominant-baseline="central">EO_S1</text>
<path d="M691.3972287618038,253.9033541538167 L858.3972287618038,253.9033541538167" stroke="#cccccc" stroke-width="0.5" />
<rect x="691.3972287618038" y="253.9033541538167" width="80" height="14" fill="#e6f7e6" stroke="#cccccc" stroke-width="0.5" />
<text x="731.3972287618038" y="261.90335415381674" font-size="10" font-family="Consolas, monospace" fill="#000000" text-anchor="middle" dominant-baseline="central">State_02_C</text>
<rect x="772.3972287618038" y="253.9033541538167" width="86.0" height="14" fill="#ffe6e6" stroke="#cccccc" stroke-width="0.5" />
<text x="815.3972287618038" y="261.90335415381674" font-size="10" font-family="Consolas, monospace" fill="#000000" text-anchor="middle" dominant-baseline="central">CNF</text>
<path d="M691.3972287618038,267.90335415381674 L858.3972287618038,267.90335415381674" stroke="#cccccc" stroke-width="0.5" />
<rect x="691.3972287618038" y="267.90335415381674" width="80" height="14" fill="#e6f7e6" stroke="#cccccc" stroke-width="0.5" />
<text x="731.3972287618038" y="275.90335415381674" font-size="10" font-family="Consolas, monospace" fill="#000000" text-anchor="middle" dominant-baseline="central">State_02_E</text>
<rect x="772.3972287618038" y="267.90335415381674" width="86.0" height="14" fill="#ffe6e6" stroke="#cccccc" stroke-width="0.5" />
<text x="815.3972287618038" y="275.90335415381674" font-size="10" font-family="Consolas, monospace" fill="#000000" text-anchor="middle" dominant-baseline="central">EO_S2</text>
<path d="M691.3972287618038,281.90335415381674 L858.3972287618038,281.90335415381674" stroke="#cccccc" stroke-width="0.5" />
<rect x="691.3972287618038" y="281.90335415381674" width="80" height="14" fill="#e6f7e6" stroke="#cccccc" stroke-width="0.5" />
<text x="731.3972287618038" y="289.90335415381674" font-size="10" font-family="Consolas, monospace" fill="#000000" text-anchor="middle" dominant-baseline="central"></text>
<rect x="772.3972287618038" y="281.90335415381674" width="86.0" height="14" fill="#ffe6e6" stroke="#cccccc" stroke-width="0.5" />
<text x="815.3972287618038" y="289.90335415381674" font-size="10" font-family="Consolas, monospace" fill="#000000" text-anchor="middle" dominant-baseline="central">timeOut.START</text>
<rect x="596.5972287618039" y="346.99999999999994" width="84.8" height="32" fill="#f5f5f5" stroke="#000000" stroke-width="2" rx="8" ry="8" />
<text x="638.9972287618039" y="362.99999999999994" font-size="12" fontWeight="bold" font-family="Verdana, sans-serif" fill="#000000" text-anchor="middle" dominant-baseline="central">sState_03</text>
<rect x="691.3972287618038" y="346.99999999999994" width="167.0" height="78" fill="#ffffff" stroke="#cccccc" stroke-width="1" rx="4" ry="4" />
<path d="M681.3972287618038,362.99999999999994 L691.3972287618038,357.99999999999994" stroke="#000000" stroke-width="2" />
<path d="M771.3972287618038,346.99999999999994 L771.3972287618038,424.99999999999994" stroke="#cccccc" stroke-width="1" />
<rect x="691.3972287618038" y="350.99999999999994" width="80" height="14" fill="#e6f7e6" stroke="#cccccc" stroke-width="0.5" />
<text x="731.3972287618038" y="358.99999999999994" font-size="10" font-family="Consolas, monospace" fill="#000000" text-anchor="middle" dominant-baseline="central"></text>
<rect x="772.3972287618038" y="350.99999999999994" width="86.0" height="14" fill="#ffe6e6" stroke="#cccccc" stroke-width="0.5" />
<text x="815.3972287618038" y="358.99999999999994" font-size="10" font-family="Consolas, monospace" fill="#000000" text-anchor="middle" dominant-baseline="central">timeOut.STOP</text>
<path d="M691.3972287618038,364.99999999999994 L858.3972287618038,364.99999999999994" stroke="#cccccc" stroke-width="0.5" />
<rect x="691.3972287618038" y="364.99999999999994" width="80" height="14" fill="#e6f7e6" stroke="#cccccc" stroke-width="0.5" />
<text x="731.3972287618038" y="372.99999999999994" font-size="10" font-family="Consolas, monospace" fill="#000000" text-anchor="middle" dominant-baseline="central">State_02_X</text>
<rect x="772.3972287618038" y="364.99999999999994" width="86.0" height="14" fill="#ffe6e6" stroke="#cccccc" stroke-width="0.5" />
<text x="815.3972287618038" y="372.99999999999994" font-size="10" font-family="Consolas, monospace" fill="#000000" text-anchor="middle" dominant-baseline="central">EO_S2</text>
<path d="M691.3972287618038,378.99999999999994 L858.3972287618038,378.99999999999994" stroke="#cccccc" stroke-width="0.5" />
<rect x="691.3972287618038" y="378.99999999999994" width="80" height="14" fill="#e6f7e6" stroke="#cccccc" stroke-width="0.5" />
<text x="731.3972287618038" y="386.99999999999994" font-size="10" font-family="Consolas, monospace" fill="#000000" text-anchor="middle" dominant-baseline="central">State_03_C</text>
<rect x="772.3972287618038" y="378.99999999999994" width="86.0" height="14" fill="#ffe6e6" stroke="#cccccc" stroke-width="0.5" />
<text x="815.3972287618038" y="386.99999999999994" font-size="10" font-family="Consolas, monospace" fill="#000000" text-anchor="middle" dominant-baseline="central">CNF</text>
<path d="M691.3972287618038,392.99999999999994 L858.3972287618038,392.99999999999994" stroke="#cccccc" stroke-width="0.5" />
<rect x="691.3972287618038" y="392.99999999999994" width="80" height="14" fill="#e6f7e6" stroke="#cccccc" stroke-width="0.5" />
<text x="731.3972287618038" y="400.99999999999994" font-size="10" font-family="Consolas, monospace" fill="#000000" text-anchor="middle" dominant-baseline="central">State_03_E</text>
<rect x="772.3972287618038" y="392.99999999999994" width="86.0" height="14" fill="#ffe6e6" stroke="#cccccc" stroke-width="0.5" />
<text x="815.3972287618038" y="400.99999999999994" font-size="10" font-family="Consolas, monospace" fill="#000000" text-anchor="middle" dominant-baseline="central">EO_S3</text>
<path d="M691.3972287618038,406.99999999999994 L858.3972287618038,406.99999999999994" stroke="#cccccc" stroke-width="0.5" />
<rect x="691.3972287618038" y="406.99999999999994" width="80" height="14" fill="#e6f7e6" stroke="#cccccc" stroke-width="0.5" />
<text x="731.3972287618038" y="414.99999999999994" font-size="10" font-family="Consolas, monospace" fill="#000000" text-anchor="middle" dominant-baseline="central"></text>
<rect x="772.3972287618038" y="406.99999999999994" width="86.0" height="14" fill="#ffe6e6" stroke="#cccccc" stroke-width="0.5" />
<text x="815.3972287618038" y="414.99999999999994" font-size="10" font-family="Consolas, monospace" fill="#000000" text-anchor="middle" dominant-baseline="central">timeOut.START</text>
<rect x="596.5972287618039" y="472.0966458461832" width="84.8" height="32" fill="#f5f5f5" stroke="#000000" stroke-width="2" rx="8" ry="8" />
<text x="638.9972287618039" y="488.0966458461832" font-size="12" fontWeight="bold" font-family="Verdana, sans-serif" fill="#000000" text-anchor="middle" dominant-baseline="central">sState_04</text>
<rect x="691.3972287618038" y="472.0966458461832" width="167.0" height="78" fill="#ffffff" stroke="#cccccc" stroke-width="1" rx="4" ry="4" />
<path d="M681.3972287618038,488.0966458461832 L691.3972287618038,483.0966458461832" stroke="#000000" stroke-width="2" />
<path d="M771.3972287618038,472.0966458461832 L771.3972287618038,550.0966458461833" stroke="#cccccc" stroke-width="1" />
<rect x="691.3972287618038" y="476.0966458461832" width="80" height="14" fill="#e6f7e6" stroke="#cccccc" stroke-width="0.5" />
<text x="731.3972287618038" y="484.0966458461832" font-size="10" font-family="Consolas, monospace" fill="#000000" text-anchor="middle" dominant-baseline="central"></text>
<rect x="772.3972287618038" y="476.0966458461832" width="86.0" height="14" fill="#ffe6e6" stroke="#cccccc" stroke-width="0.5" />
<text x="815.3972287618038" y="484.0966458461832" font-size="10" font-family="Consolas, monospace" fill="#000000" text-anchor="middle" dominant-baseline="central">timeOut.STOP</text>
<path d="M691.3972287618038,490.0966458461832 L858.3972287618038,490.0966458461832" stroke="#cccccc" stroke-width="0.5" />
<rect x="691.3972287618038" y="490.0966458461832" width="80" height="14" fill="#e6f7e6" stroke="#cccccc" stroke-width="0.5" />
<text x="731.3972287618038" y="498.0966458461832" font-size="10" font-family="Consolas, monospace" fill="#000000" text-anchor="middle" dominant-baseline="central">State_03_X</text>
<rect x="772.3972287618038" y="490.0966458461832" width="86.0" height="14" fill="#ffe6e6" stroke="#cccccc" stroke-width="0.5" />
<text x="815.3972287618038" y="498.0966458461832" font-size="10" font-family="Consolas, monospace" fill="#000000" text-anchor="middle" dominant-baseline="central">EO_S3</text>
<path d="M691.3972287618038,504.0966458461832 L858.3972287618038,504.0966458461832" stroke="#cccccc" stroke-width="0.5" />
<rect x="691.3972287618038" y="504.0966458461832" width="80" height="14" fill="#e6f7e6" stroke="#cccccc" stroke-width="0.5" />
<text x="731.3972287618038" y="512.0966458461833" font-size="10" font-family="Consolas, monospace" fill="#000000" text-anchor="middle" dominant-baseline="central">State_04_C</text>
<rect x="772.3972287618038" y="504.0966458461832" width="86.0" height="14" fill="#ffe6e6" stroke="#cccccc" stroke-width="0.5" />
<text x="815.3972287618038" y="512.0966458461833" font-size="10" font-family="Consolas, monospace" fill="#000000" text-anchor="middle" dominant-baseline="central">CNF</text>
<path d="M691.3972287618038,518.0966458461833 L858.3972287618038,518.0966458461833" stroke="#cccccc" stroke-width="0.5" />
<rect x="691.3972287618038" y="518.0966458461833" width="80" height="14" fill="#e6f7e6" stroke="#cccccc" stroke-width="0.5" />
<text x="731.3972287618038" y="526.0966458461833" font-size="10" font-family="Consolas, monospace" fill="#000000" text-anchor="middle" dominant-baseline="central">State_04_E</text>
<rect x="772.3972287618038" y="518.0966458461833" width="86.0" height="14" fill="#ffe6e6" stroke="#cccccc" stroke-width="0.5" />
<text x="815.3972287618038" y="526.0966458461833" font-size="10" font-family="Consolas, monospace" fill="#000000" text-anchor="middle" dominant-baseline="central">EO_S4</text>
<path d="M691.3972287618038,532.0966458461833 L858.3972287618038,532.0966458461833" stroke="#cccccc" stroke-width="0.5" />
<rect x="691.3972287618038" y="532.0966458461833" width="80" height="14" fill="#e6f7e6" stroke="#cccccc" stroke-width="0.5" />
<text x="731.3972287618038" y="540.0966458461833" font-size="10" font-family="Consolas, monospace" fill="#000000" text-anchor="middle" dominant-baseline="central"></text>
<rect x="772.3972287618038" y="532.0966458461833" width="86.0" height="14" fill="#ffe6e6" stroke="#cccccc" stroke-width="0.5" />
<text x="815.3972287618038" y="540.0966458461833" font-size="10" font-family="Consolas, monospace" fill="#000000" text-anchor="middle" dominant-baseline="central">timeOut.START</text>
<rect x="596.5972287618039" y="597.1932916923665" width="84.8" height="32" fill="#f5f5f5" stroke="#000000" stroke-width="2" rx="8" ry="8" />
<text x="638.9972287618039" y="613.1932916923665" font-size="12" fontWeight="bold" font-family="Verdana, sans-serif" fill="#000000" text-anchor="middle" dominant-baseline="central">sState_05</text>
<rect x="691.3972287618038" y="597.1932916923665" width="167.0" height="78" fill="#ffffff" stroke="#cccccc" stroke-width="1" rx="4" ry="4" />
<path d="M681.3972287618038,613.1932916923665 L691.3972287618038,608.1932916923665" stroke="#000000" stroke-width="2" />
<path d="M771.3972287618038,597.1932916923665 L771.3972287618038,675.1932916923665" stroke="#cccccc" stroke-width="1" />
<rect x="691.3972287618038" y="601.1932916923665" width="80" height="14" fill="#e6f7e6" stroke="#cccccc" stroke-width="0.5" />
<text x="731.3972287618038" y="609.1932916923665" font-size="10" font-family="Consolas, monospace" fill="#000000" text-anchor="middle" dominant-baseline="central"></text>
<rect x="772.3972287618038" y="601.1932916923665" width="86.0" height="14" fill="#ffe6e6" stroke="#cccccc" stroke-width="0.5" />
<text x="815.3972287618038" y="609.1932916923665" font-size="10" font-family="Consolas, monospace" fill="#000000" text-anchor="middle" dominant-baseline="central">timeOut.STOP</text>
<path d="M691.3972287618038,615.1932916923665 L858.3972287618038,615.1932916923665" stroke="#cccccc" stroke-width="0.5" />
<rect x="691.3972287618038" y="615.1932916923665" width="80" height="14" fill="#e6f7e6" stroke="#cccccc" stroke-width="0.5" />
<text x="731.3972287618038" y="623.1932916923665" font-size="10" font-family="Consolas, monospace" fill="#000000" text-anchor="middle" dominant-baseline="central">State_04_X</text>
<rect x="772.3972287618038" y="615.1932916923665" width="86.0" height="14" fill="#ffe6e6" stroke="#cccccc" stroke-width="0.5" />
<text x="815.3972287618038" y="623.1932916923665" font-size="10" font-family="Consolas, monospace" fill="#000000" text-anchor="middle" dominant-baseline="central">EO_S4</text>
<path d="M691.3972287618038,629.1932916923665 L858.3972287618038,629.1932916923665" stroke="#cccccc" stroke-width="0.5" />
<rect x="691.3972287618038" y="629.1932916923665" width="80" height="14" fill="#e6f7e6" stroke="#cccccc" stroke-width="0.5" />
<text x="731.3972287618038" y="637.1932916923665" font-size="10" font-family="Consolas, monospace" fill="#000000" text-anchor="middle" dominant-baseline="central">State_05_C</text>
<rect x="772.3972287618038" y="629.1932916923665" width="86.0" height="14" fill="#ffe6e6" stroke="#cccccc" stroke-width="0.5" />
<text x="815.3972287618038" y="637.1932916923665" font-size="10" font-family="Consolas, monospace" fill="#000000" text-anchor="middle" dominant-baseline="central">CNF</text>
<path d="M691.3972287618038,643.1932916923665 L858.3972287618038,643.1932916923665" stroke="#cccccc" stroke-width="0.5" />
<rect x="691.3972287618038" y="643.1932916923665" width="80" height="14" fill="#e6f7e6" stroke="#cccccc" stroke-width="0.5" />
<text x="731.3972287618038" y="651.1932916923665" font-size="10" font-family="Consolas, monospace" fill="#000000" text-anchor="middle" dominant-baseline="central">State_05_E</text>
<rect x="772.3972287618038" y="643.1932916923665" width="86.0" height="14" fill="#ffe6e6" stroke="#cccccc" stroke-width="0.5" />
<text x="815.3972287618038" y="651.1932916923665" font-size="10" font-family="Consolas, monospace" fill="#000000" text-anchor="middle" dominant-baseline="central">EO_S5</text>
<path d="M691.3972287618038,657.1932916923665 L858.3972287618038,657.1932916923665" stroke="#cccccc" stroke-width="0.5" />
<rect x="691.3972287618038" y="657.1932916923665" width="80" height="14" fill="#e6f7e6" stroke="#cccccc" stroke-width="0.5" />
<text x="731.3972287618038" y="665.1932916923665" font-size="10" font-family="Consolas, monospace" fill="#000000" text-anchor="middle" dominant-baseline="central"></text>
<rect x="772.3972287618038" y="657.1932916923665" width="86.0" height="14" fill="#ffe6e6" stroke="#cccccc" stroke-width="0.5" />
<text x="815.3972287618038" y="665.1932916923665" font-size="10" font-family="Consolas, monospace" fill="#000000" text-anchor="middle" dominant-baseline="central">timeOut.START</text>
<path d="M631.4972287618039,128.80670830763347 C631.4972287618039,147.4260374768701,631.4972287618039,203.28402498458007,631.4972287618039,221.9033541538167" stroke="#404040" stroke-width="1.2" fill="none" />
<path d="M631.4972287618039,221.9033541538167 L627.4972287618039,214.9751509235412 L635.4972287618039,214.9751509235412 L631.4972287618039,221.9033541538167" fill="#404040" stroke="#404040" stroke-width="1" />
<g transform="translate(631.4972287618039,175.35503123072507)">
<rect x="-20.25" y="-7.5" width="40.5" height="15" fill="#ffffff" opacity="0.9" rx="3" ry="3" />
<text x="0" y="3.5" font-size="10" font-family="Consolas, monospace" fill="#000000" text-anchor="middle" dominant-baseline="central">S1_S2</text>
</g>
<path d="M631.4972287618039,253.9033541538167 C631.4972287618039,272.52268332305334,631.4972287618039,328.3806708307633,631.4972287618039,346.99999999999994" stroke="#404040" stroke-width="1.2" fill="none" />
<path d="M631.4972287618039,346.99999999999994 L627.4972287618039,340.0717967697244 L635.4972287618039,340.0717967697244 L631.4972287618039,346.99999999999994" fill="#404040" stroke="#404040" stroke-width="1" />
<g transform="translate(631.4972287618039,300.4516770769083)">
<rect x="-20.25" y="-7.5" width="40.5" height="15" fill="#ffffff" opacity="0.9" rx="3" ry="3" />
<text x="0" y="3.5" font-size="10" font-family="Consolas, monospace" fill="#000000" text-anchor="middle" dominant-baseline="central">S2_S3</text>
</g>
<path d="M631.4972287618039,378.99999999999994 C631.4972287618039,397.6193291692366,631.4972287618039,453.47731667694654,631.4972287618039,472.0966458461832" stroke="#404040" stroke-width="1.2" fill="none" />
<path d="M631.4972287618039,472.0966458461832 L627.4972287618039,465.1684426159077 L635.4972287618039,465.1684426159077 L631.4972287618039,472.0966458461832" fill="#404040" stroke="#404040" stroke-width="1" />
<g transform="translate(631.4972287618039,425.5483229230916)">
<rect x="-20.25" y="-7.5" width="40.5" height="15" fill="#ffffff" opacity="0.9" rx="3" ry="3" />
<text x="0" y="3.5" font-size="10" font-family="Consolas, monospace" fill="#000000" text-anchor="middle" dominant-baseline="central">S3_S4</text>
</g>
<path d="M646.4972287618039,128.80670830763347 C646.4972287618039,147.4260374768701,646.4972287618039,203.28402498458007,646.4972287618039,221.9033541538167" stroke="#404040" stroke-width="1.2" fill="none" />
<path d="M646.4972287618039,221.9033541538167 L642.4972287618039,214.9751509235412 L650.4972287618039,214.9751509235412 L646.4972287618039,221.9033541538167" fill="#404040" stroke="#404040" stroke-width="1" />
<g transform="translate(646.4972287618039,193.35503123072507)">
<rect x="-52.75" y="-7.5" width="105.5" height="15" fill="#ffffff" opacity="0.9" rx="3" ry="3" />
<text x="0" y="3.5" font-size="10" font-family="Consolas, monospace" fill="#000000" text-anchor="middle" dominant-baseline="central">timeOut.TimeOut</text>
</g>
<path d="M646.4972287618039,253.9033541538167 C646.4972287618039,272.52268332305334,646.4972287618039,328.3806708307633,646.4972287618039,346.99999999999994" stroke="#404040" stroke-width="1.2" fill="none" />
<path d="M646.4972287618039,346.99999999999994 L642.4972287618039,340.0717967697244 L650.4972287618039,340.0717967697244 L646.4972287618039,346.99999999999994" fill="#404040" stroke="#404040" stroke-width="1" />
<g transform="translate(646.4972287618039,318.4516770769083)">
<rect x="-52.75" y="-7.5" width="105.5" height="15" fill="#ffffff" opacity="0.9" rx="3" ry="3" />
<text x="0" y="3.5" font-size="10" font-family="Consolas, monospace" fill="#000000" text-anchor="middle" dominant-baseline="central">timeOut.TimeOut</text>
</g>
<path d="M646.4972287618039,378.99999999999994 C646.4972287618039,397.6193291692366,646.4972287618039,453.47731667694654,646.4972287618039,472.0966458461832" stroke="#404040" stroke-width="1.2" fill="none" />
<path d="M646.4972287618039,472.0966458461832 L642.4972287618039,465.1684426159077 L650.4972287618039,465.1684426159077 L646.4972287618039,472.0966458461832" fill="#404040" stroke="#404040" stroke-width="1" />
<g transform="translate(646.4972287618039,443.5483229230916)">
<rect x="-52.75" y="-7.5" width="105.5" height="15" fill="#ffffff" opacity="0.9" rx="3" ry="3" />
<text x="0" y="3.5" font-size="10" font-family="Consolas, monospace" fill="#000000" text-anchor="middle" dominant-baseline="central">timeOut.TimeOut</text>
</g>
<path d="M178.61064537707085,112.80670830763347 C218.61064537707085,112.80670830763347,623.9972287618039,56.80670830763347,623.9972287618039,96.80670830763347" stroke="#404040" stroke-width="1.2" fill="none" />
<path d="M623.9972287618039,96.80670830763347 L619.9972287618039,89.87850507735796 L627.9972287618039,89.87850507735796 L623.9972287618039,96.80670830763347" fill="#404040" stroke="#404040" stroke-width="1" />
<g transform="translate(416.3039370694373,89.80670830763347)">
<rect x="-30.0" y="-7.5" width="60.0" height="15" fill="#ffffff" opacity="0.9" rx="3" ry="3" />
<text x="0" y="3.5" font-size="10" font-family="Consolas, monospace" fill="#000000" text-anchor="middle" dominant-baseline="central">START_S1</text>
</g>
<path d="M596.5972287618039,112.80670830763347 C321.56667984721076,112.80670830763347,108.61064537707085,322.1627427777734,108.61064537707085,597.1932916923665" stroke="#404040" stroke-width="1.2" fill="none" />
<path d="M108.61064537707085,597.1932916923665 L104.61064537707085,590.2650884620911 L112.61064537707085,590.2650884620911 L108.61064537707085,597.1932916923665" fill="#404040" stroke="#404040" stroke-width="1" />
<g transform="translate(249.46748122646497,251.86354415702758)">
<rect x="-20.25" y="-7.5" width="40.5" height="15" fill="#ffffff" opacity="0.9" rx="3" ry="3" />
<text x="0" y="3.5" font-size="10" font-family="Consolas, monospace" fill="#000000" text-anchor="middle" dominant-baseline="central">RESET</text>
</g>
<path d="M596.5972287618039,237.9033541538167 C359.0074756903658,237.9033541538167,123.61064537707085,359.6035386209285,123.61064537707085,597.1932916923665" stroke="#404040" stroke-width="1.2" fill="none" />
<path d="M123.61064537707085,597.1932916923665 L119.61064537707085,590.2650884620911 L127.61064537707085,590.2650884620911 L123.61064537707085,597.1932916923665" fill="#404040" stroke="#404040" stroke-width="1" />
<g transform="translate(271.0077796676481,328.45216552130233)">
<rect x="-20.25" y="-7.5" width="40.5" height="15" fill="#ffffff" opacity="0.9" rx="3" ry="3" />
<text x="0" y="3.5" font-size="10" font-family="Consolas, monospace" fill="#000000" text-anchor="middle" dominant-baseline="central">RESET</text>
</g>
<path d="M596.5972287618039,362.99999999999994 C390.8407869441531,362.99999999999994,138.61064537707085,391.43684987471573,138.61064537707085,597.1932916923665" stroke="#404040" stroke-width="1.2" fill="none" />
<path d="M138.61064537707085,597.1932916923665 L134.61064537707085,590.2650884620911 L142.61064537707085,590.2650884620911 L138.61064537707085,597.1932916923665" fill="#404040" stroke="#404040" stroke-width="1" />
<g transform="translate(290.4452713878183,402.9379801645642)">
<rect x="-20.25" y="-7.5" width="40.5" height="15" fill="#ffffff" opacity="0.9" rx="3" ry="3" />
<text x="0" y="3.5" font-size="10" font-family="Consolas, monospace" fill="#000000" text-anchor="middle" dominant-baseline="central">RESET</text>
</g>
<path d="M631.4972287618039,504.0966458461832 C631.4972287618039,522.7159750154199,631.4972287618039,578.5739625231299,631.4972287618039,597.1932916923665" stroke="#404040" stroke-width="1.2" fill="none" />
<path d="M631.4972287618039,597.1932916923665 L627.4972287618039,590.2650884620911 L635.4972287618039,590.2650884620911 L631.4972287618039,597.1932916923665" fill="#404040" stroke="#404040" stroke-width="1" />
<g transform="translate(631.4972287618039,550.6449687692749)">
<rect x="-20.25" y="-7.5" width="40.5" height="15" fill="#ffffff" opacity="0.9" rx="3" ry="3" />
<text x="0" y="3.5" font-size="10" font-family="Consolas, monospace" fill="#000000" text-anchor="middle" dominant-baseline="central">S4_S5</text>
</g>
<path d="M646.4972287618039,504.0966458461832 C646.4972287618039,522.7159750154199,646.4972287618039,578.5739625231299,646.4972287618039,597.1932916923665" stroke="#404040" stroke-width="1.2" fill="none" />
<path d="M646.4972287618039,597.1932916923665 L642.4972287618039,590.2650884620911 L650.4972287618039,590.2650884620911 L646.4972287618039,597.1932916923665" fill="#404040" stroke="#404040" stroke-width="1" />
<g transform="translate(646.4972287618039,568.6449687692749)">
<rect x="-52.75" y="-7.5" width="105.5" height="15" fill="#ffffff" opacity="0.9" rx="3" ry="3" />
<text x="0" y="3.5" font-size="10" font-family="Consolas, monospace" fill="#000000" text-anchor="middle" dominant-baseline="central">timeOut.TimeOut</text>
</g>
<path d="M596.5972287618039,488.0966458461832 C414.10813157788266,488.0966458461832,153.61064537707085,414.7041945084453,153.61064537707085,597.1932916923665" stroke="#404040" stroke-width="1.2" fill="none" />
<path d="M153.61064537707085,597.1932916923665 L149.61064537707085,590.2650884620911 L157.61064537707085,590.2650884620911 L153.61064537707085,597.1932916923665" fill="#404040" stroke="#404040" stroke-width="1" />
<g transform="translate(306.6705256254669,474.21155732530445)">
<rect x="-20.25" y="-7.5" width="40.5" height="15" fill="#ffffff" opacity="0.9" rx="3" ry="3" />
<text x="0" y="3.5" font-size="10" font-family="Consolas, monospace" fill="#000000" text-anchor="middle" dominant-baseline="central">RESET</text>
</g>
<path d="M631.4972287618039,597.1932916923665 C491.49722876180385,557.1932916923665,498.99722876180385,168.80670830763347,638.9972287618039,128.80670830763347" stroke="#404040" stroke-width="1.2" fill="none" />
<path d="M638.9972287618039,128.80670830763347 L633.434479953361,134.5561279039203 L631.236710930182,126.86393632279372 L638.9972287618039,128.80670830763347" fill="#404040" stroke="#404040" stroke-width="1" />
<g transform="translate(530.2472287618039,363.0)">
<rect x="-20.25" y="-7.5" width="40.5" height="15" fill="#ffffff" opacity="0.9" rx="3" ry="3" />
<text x="0" y="3.5" font-size="10" font-family="Consolas, monospace" fill="#000000" text-anchor="middle" dominant-baseline="central">S5_S1</text>
</g>
<path d="M646.4972287618039,597.1932916923665 C786.4972287618039,552.1932916923665,793.9972287618039,173.80670830763347,653.9972287618039,128.80670830763347" stroke="#404040" stroke-width="1.2" fill="none" />
<path d="M653.9972287618039,128.80670830763347 L661.8171128370675,127.11868785472456 L659.3690393937625,134.73491634500667 L653.9972287618039,128.80670830763347" fill="#404040" stroke="#404040" stroke-width="1" />
<g transform="translate(755.2472287618039,363.0)">
<rect x="-52.75" y="-7.5" width="105.5" height="15" fill="#ffffff" opacity="0.9" rx="3" ry="3" />
<text x="0" y="3.5" font-size="10" font-family="Consolas, monospace" fill="#000000" text-anchor="middle" dominant-baseline="central">timeOut.TimeOut</text>
</g>
<path d="M596.5972287618039,613.1932916923665 C556.5972287618039,613.1932916923665,168.61064537707085,557.1932916923665,168.61064537707085,597.1932916923665" stroke="#404040" stroke-width="1.2" fill="none" />
<path d="M168.61064537707085,597.1932916923665 L164.61064537707085,590.2650884620911 L172.61064537707085,590.2650884620911 L168.61064537707085,597.1932916923665" fill="#404040" stroke="#404040" stroke-width="1" />
<g transform="translate(367.60393706943734,590.1932916923665)">
<rect x="-20.25" y="-7.5" width="40.5" height="15" fill="#ffffff" opacity="0.9" rx="3" ry="3" />
<text x="0" y="3.5" font-size="10" font-family="Consolas, monospace" fill="#000000" text-anchor="middle" dominant-baseline="central">RESET</text>
</g>
<path d="M138.61064537707085,597.1932916923665 C138.61064537707085,557.1932916923665,138.61064537707085,168.80670830763347,138.61064537707085,128.80670830763347" stroke="#404040" stroke-width="1.2" fill="none" />
<path d="M138.61064537707085,128.80670830763347 L142.61064537707085,135.73491153790897 L134.61064537707085,135.73491153790897 L138.61064537707085,128.80670830763347" fill="#404040" stroke="#404040" stroke-width="1" />
<g transform="translate(138.61064537707085,363.0)">
<rect x="-7.25" y="-7.5" width="14.5" height="15" fill="#ffffff" opacity="0.9" rx="3" ry="3" />
<text x="0" y="3.5" font-size="10" font-family="Consolas, monospace" fill="#000000" text-anchor="middle" dominant-baseline="central">1</text>
</g>
</svg>