<?xml version="1.0" encoding="UTF-8"?>
<svg xmlns="http://www.w3.org/2000/svg" xmlns:xlink="http://www.w3.org/1999/xlink"
     width="1200" height="800" viewBox="0 0 1200 800">
<defs>
</defs>
<rect x="0" y="0" width="1200" height="800" fill="#ffffff" />
<text x="600" y="25" font-size="14" fontWeight="bold" font-family="Verdana, sans-serif" fill="#000000" text-anchor="middle" dominant-baseline="central">ECC: sequence_ET_04_AX</text>
<rect x="10.0" y="631.0" width="80" height="32" fill="#f5f5f5" stroke="#000000" stroke-width="2" rx="8" ry="8" />
<text x="50.0" y="647.0" font-size="12" fontWeight="bold" font-family="Verdana, sans-serif" fill="#000000" text-anchor="middle" dominant-baseline="central">sRESET</text>
<rect x="100.0" y="631.0" width="161" height="78" fill="#ffffff" stroke="#cccccc" stroke-width="1" rx="4" ry="4" />
<path d="M90.0,647.0 L100.0,642.0" stroke="#000000" stroke-width="2" />
<path d="M180.0,631.0 L180.0,709.0" stroke="#cccccc" stroke-width="1" />
<rect x="100.0" y="635.0" width="80" height="14" fill="#e6f7e6" stroke="#cccccc" stroke-width="0.5" />
<text x="140.0" y="643.0" font-size="10" font-family="Consolas, monospace" fill="#000000" text-anchor="middle" dominant-baseline="central"></text>
<rect x="181.0" y="635.0" width="80" height="14" fill="#ffe6e6" stroke="#cccccc" stroke-width="0.5" />
<text x="221.0" y="643.0" font-size="10" font-family="Consolas, monospace" fill="#000000" text-anchor="middle" dominant-baseline="central">timeOut.STOP</text>
<path d="M100.0,649.0 L261.0,649.0" stroke="#cccccc" stroke-width="0.5" />
<rect x="100.0" y="649.0" width="80" height="14" fill="#e6f7e6" stroke="#cccccc" stroke-width="0.5" />
<text x="140.0" y="657.0" font-size="10" font-family="Consolas, monospace" fill="#000000" text-anchor="middle" dominant-baseline="central">State_01_X</text>
<rect x="181.0" y="649.0" width="80" height="14" fill="#ffe6e6" stroke="#cccccc" stroke-width="0.5" />
<text x="221.0" y="657.0" font-size="10" font-family="Consolas, monospace" fill="#000000" text-anchor="middle" dominant-baseline="central">DO_S1.E1</text>
<path d="M100.0,663.0 L261.0,663.0" stroke="#cccccc" stroke-width="0.5" />
<rect x="100.0" y="663.0" width="80" height="14" fill="#e6f7e6" stroke="#cccccc" stroke-width="0.5" />
<text x="140.0" y="671.0" font-size="10" font-family="Consolas, monospace" fill="#000000" text-anchor="middle" dominant-baseline="central">State_02_X</text>
<rect x="181.0" y="663.0" width="80" height="14" fill="#ffe6e6" stroke="#cccccc" stroke-width="0.5" />
<text x="221.0" y="671.0" font-size="10" font-family="Consolas, monospace" fill="#000000" text-anchor="middle" dominant-baseline="central">DO_S2.E1</text>
<path d="M100.0,677.0 L261.0,677.0" stroke="#cccccc" stroke-width="0.5" />
<rect x="100.0" y="677.0" width="80" height="14" fill="#e6f7e6" stroke="#cccccc" stroke-width="0.5" />
<text x="140.0" y="685.0" font-size="10" font-family="Consolas, monospace" fill="#000000" text-anchor="middle" dominant-baseline="central">State_03_X</text>
<rect x="181.0" y="677.0" width="80" height="14" fill="#ffe6e6" stroke="#cccccc" stroke-width="0.5" />
<text x="221.0" y="685.0" font-size="10" font-family="Consolas, monospace" fill="#000000" text-anchor="middle" dominant-baseline="central">DO_S3.E1</text>
<path d="M100.0,691.0 L261.0,691.0" stroke="#cccccc" stroke-width="0.5" />
<rect x="100.0" y="691.0" width="80" height="14" fill="#e6f7e6" stroke="#cccccc" stroke-width="0.5" />
<text x="140.0" y="699.0" font-size="10" font-family="Consolas, monospace" fill="#000000" text-anchor="middle" dominant-baseline="central">State_04_X</text>
<rect x="181.0" y="691.0" width="80" height="14" fill="#ffe6e6" stroke="#cccccc" stroke-width="0.5" />
<text x="221.0" y="699.0" font-size="10" font-family="Consolas, monospace" fill="#000000" text-anchor="middle" dominant-baseline="central">DO_S4.E1</text>
<rect x="118.0" y="91.0" width="80" height="32" fill="#f5f5f5" stroke="#000000" stroke-width="2" rx="8" ry="8" />
<text x="158.0" y="107.0" font-size="12" fontWeight="bold" font-family="Verdana, sans-serif" fill="#000000" text-anchor="middle" dominant-baseline="central">xSTART</text>
<rect x="439.6" y="199.0" width="84.8" height="32" fill="#f5f5f5" stroke="#000000" stroke-width="2" rx="8" ry="8" />
<text x="482.0" y="215.0" font-size="12" fontWeight="bold" font-family="Verdana, sans-serif" fill="#000000" text-anchor="middle" dominant-baseline="central">sState_01</text>
<rect x="534.4" y="199.0" width="167.0" height="78" fill="#ffffff" stroke="#cccccc" stroke-width="1" rx="4" ry="4" />
<path d="M524.4,215.0 L534.4,210.0" stroke="#000000" stroke-width="2" />
<path d="M614.4,199.0 L614.4,277.0" stroke="#cccccc" stroke-width="1" />
<rect x="534.4" y="203.0" width="80" height="14" fill="#e6f7e6" stroke="#cccccc" stroke-width="0.5" />
<text x="574.4" y="211.0" font-size="10" font-family="Consolas, monospace" fill="#000000" text-anchor="middle" dominant-baseline="central"></text>
<rect x="615.4" y="203.0" width="86.0" height="14" fill="#ffe6e6" stroke="#cccccc" stroke-width="0.5" />
<text x="658.4" y="211.0" font-size="10" font-family="Consolas, monospace" fill="#000000" text-anchor="middle" dominant-baseline="central">timeOut.STOP</text>
<path d="M534.4,217.0 L701.4,217.0" stroke="#cccccc" stroke-width="0.5" />
<rect x="534.4" y="217.0" width="80" height="14" fill="#e6f7e6" stroke="#cccccc" stroke-width="0.5" />
<text x="574.4" y="225.0" font-size="10" font-family="Consolas, monospace" fill="#000000" text-anchor="middle" dominant-baseline="central"></text>
<rect x="615.4" y="217.0" width="86.0" height="14" fill="#ffe6e6" stroke="#cccccc" stroke-width="0.5" />
<text x="658.4" y="225.0" font-size="10" font-family="Consolas, monospace" fill="#000000" text-anchor="middle" dominant-baseline="central"></text>
<path d="M534.4,231.0 L701.4,231.0" stroke="#cccccc" stroke-width="0.5" />
<rect x="534.4" y="231.0" width="80" height="14" fill="#e6f7e6" stroke="#cccccc" stroke-width="0.5" />
<text x="574.4" y="239.0" font-size="10" font-family="Consolas, monospace" fill="#000000" text-anchor="middle" dominant-baseline="central">State_01_C</text>
<rect x="615.4" y="231.0" width="86.0" height="14" fill="#ffe6e6" stroke="#cccccc" stroke-width="0.5" />
<text x="658.4" y="239.0" font-size="10" font-family="Consolas, monospace" fill="#000000" text-anchor="middle" dominant-baseline="central">CNF</text>
<path d="M534.4,245.0 L701.4,245.0" stroke="#cccccc" stroke-width="0.5" />
<rect x="534.4" y="245.0" width="80" height="14" fill="#e6f7e6" stroke="#cccccc" stroke-width="0.5" />
<text x="574.4" y="253.0" font-size="10" font-family="Consolas, monospace" fill="#000000" text-anchor="middle" dominant-baseline="central">State_01_E</text>
<rect x="615.4" y="245.0" width="86.0" height="14" fill="#ffe6e6" stroke="#cccccc" stroke-width="0.5" />
<text x="658.4" y="253.0" font-size="10" font-family="Consolas, monospace" fill="#000000" text-anchor="middle" dominant-baseline="central">DO_S1.E1</text>
<path d="M534.4,259.0 L701.4,259.0" stroke="#cccccc" stroke-width="0.5" />
<rect x="534.4" y="259.0" width="80" height="14" fill="#e6f7e6" stroke="#cccccc" stroke-width="0.5" />
<text x="574.4" y="267.0" font-size="10" font-family="Consolas, monospace" fill="#000000" text-anchor="middle" dominant-baseline="central"></text>
<rect x="615.4" y="259.0" width="86.0" height="14" fill="#ffe6e6" stroke="#cccccc" stroke-width="0.5" />
<text x="658.4" y="267.0" font-size="10" font-family="Consolas, monospace" fill="#000000" text-anchor="middle" dominant-baseline="central">timeOut.START</text>
<rect x="439.6" y="307.0" width="84.8" height="32" fill="#f5f5f5" stroke="#000000" stroke-width="2" rx="8" ry="8" />
<text x="482.0" y="323.0" font-size="12" fontWeight="bold" font-family="Verdana, sans-serif" fill="#000000" text-anchor="middle" dominant-baseline="central">sState_02</text>
<rect x="534.4" y="307.0" width="167.0" height="78" fill="#ffffff" stroke="#cccccc" stroke-width="1" rx="4" ry="4" />
<path d="M524.4,323.0 L534.4,318.0" stroke="#000000" stroke-width="2" />
<path d="M614.4,307.0 L614.4,385.0" stroke="#cccccc" stroke-width="1" />
<rect x="534.4" y="311.0" width="80" height="14" fill="#e6f7e6" stroke="#cccccc" stroke-width="0.5" />
<text x="574.4" y="319.0" font-size="10" font-family="Consolas, monospace" fill="#000000" text-anchor="middle" dominant-baseline="central"></text>
<rect x="615.4" y="311.0" width="86.0" height="14" fill="#ffe6e6" stroke="#cccccc" stroke-width="0.5" />
<text x="658.4" y="319.0" font-size="10" font-family="Consolas, monospace" fill="#000000" text-anchor="middle" dominant-baseline="central">timeOut.STOP</text>
<path d="M534.4,325.0 L701.4,325.0" stroke="#cccccc" stroke-width="0.5" />
<rect x="534.4" y="325.0" width="80" height="14" fill="#e6f7e6" stroke="#cccccc" stroke-width="0.5" />
<text x="574.4" y="333.0" font-size="10" font-family="Consolas, monospace" fill="#000000" text-anchor="middle" dominant-baseline="central">State_01_X</text>
<rect x="615.4" y="325.0" width="86.0" height="14" fill="#ffe6e6" stroke="#cccccc" stroke-width="0.5" />
<text x="658.4" y="333.0" font-size="10" font-family="Consolas, monospace" fill="#000000" text-anchor="middle" dominant-baseline="central">DO_S1.E1</text>
<path d="M534.4,339.0 L701.4,339.0" stroke="#cccccc" stroke-width="0.5" />
<rect x="534.4" y="339.0" width="80" height="14" fill="#e6f7e6" stroke="#cccccc" stroke-width="0.5" />
<text x="574.4" y="347.0" font-size="10" font-family="Consolas, monospace" fill="#000000" text-anchor="middle" dominant-baseline="central">State_02_C</text>
<rect x="615.4" y="339.0" width="86.0" height="14" fill="#ffe6e6" stroke="#cccccc" stroke-width="0.5" />
<text x="658.4" y="347.0" font-size="10" font-family="Consolas, monospace" fill="#000000" text-anchor="middle" dominant-baseline="central">CNF</text>
<path d="M534.4,353.0 L701.4,353.0" stroke="#cccccc" stroke-width="0.5" />
<rect x="534.4" y="353.0" width="80" height="14" fill="#e6f7e6" stroke="#cccccc" stroke-width="0.5" />
<text x="574.4" y="361.0" font-size="10" font-family="Consolas, monospace" fill="#000000" text-anchor="middle" dominant-baseline="central">State_02_E</text>
<rect x="615.4" y="353.0" width="86.0" height="14" fill="#ffe6e6" stroke="#cccccc" stroke-width="0.5" />
<text x="658.4" y="361.0" font-size="10" font-family="Consolas, monospace" fill="#000000" text-anchor="middle" dominant-baseline="central">DO_S2.E1</text>
<path d="M534.4,367.0 L701.4,367.0" stroke="#cccccc" stroke-width="0.5" />
<rect x="534.4" y="367.0" width="80" height="14" fill="#e6f7e6" stroke="#cccccc" stroke-width="0.5" />
<text x="574.4" y="375.0" font-size="10" font-family="Consolas, monospace" fill="#000000" text-anchor="middle" dominant-baseline="central"></text>
<rect x="615.4" y="367.0" width="86.0" height="14" fill="#ffe6e6" stroke="#cccccc" stroke-width="0.5" />
<text x="658.4" y="375.0" font-size="10" font-family="Consolas, monospace" fill="#000000" text-anchor="middle" dominant-baseline="central">timeOut.START</text>
<rect x="439.6" y="415.0" width="84.8" height="32" fill="#f5f5f5" stroke="#000000" stroke-width="2" rx="8" ry="8" />
<text x="482.0" y="431.0" font-size="12" fontWeight="bold" font-family="Verdana, sans-serif" fill="#000000" text-anchor="middle" dominant-baseline="central">sState_03</text>
<rect x="534.4" y="415.0" width="167.0" height="78" fill="#ffffff" stroke="#cccccc" stroke-width="1" rx="4" ry="4" />
<path d="M524.4,431.0 L534.4,426.0" stroke="#000000" stroke-width="2" />
<path d="M614.4,415.0 L614.4,493.0" stroke="#cccccc" stroke-width="1" />
<rect x="534.4" y="419.0" width="80" height="14" fill="#e6f7e6" stroke="#cccccc" stroke-width="0.5" />
<text x="574.4" y="427.0" font-size="10" font-family="Consolas, monospace" fill="#000000" text-anchor="middle" dominant-baseline="central"></text>
<rect x="615.4" y="419.0" width="86.0" height="14" fill="#ffe6e6" stroke="#cccccc" stroke-width="0.5" />
<text x="658.4" y="427.0" font-size="10" font-family="Consolas, monospace" fill="#000000" text-anchor="middle" dominant-baseline="central">timeOut.STOP</text>
<path d="M534.4,433.0 L701.4,433.0" stroke="#cccccc" stroke-width="0.5" />
<rect x="534.4" y="433.0" width="80" height="14" fill="#e6f7e6" stroke="#cccccc" stroke-width="0.5" />
<text x="574.4" y="441.0" font-size="10" font-family="Consolas, monospace" fill="#000000" text-anchor="middle" dominant-baseline="central">State_02_X</text>
<rect x="615.4" y="433.0" width="86.0" height="14" fill="#ffe6e6" stroke="#cccccc" stroke-width="0.5" />
<text x="658.4" y="441.0" font-size="10" font-family="Consolas, monospace" fill="#000000" text-anchor="middle" dominant-baseline="central">DO_S2.E1</text>
<path d="M534.4,447.0 L701.4,447.0" stroke="#cccccc" stroke-width="0.5" />
<rect x="534.4" y="447.0" width="80" height="14" fill="#e6f7e6" stroke="#cccccc" stroke-width="0.5" />
<text x="574.4" y="455.0" font-size="10" font-family="Consolas, monospace" fill="#000000" text-anchor="middle" dominant-baseline="central">State_03_C</text>
<rect x="615.4" y="447.0" width="86.0" height="14" fill="#ffe6e6" stroke="#cccccc" stroke-width="0.5" />
<text x="658.4" y="455.0" font-size="10" font-family="Consolas, monospace" fill="#000000" text-anchor="middle" dominant-baseline="central">CNF</text>
<path d="M534.4,461.0 L701.4,461.0" stroke="#cccccc" stroke-width="0.5" />
<rect x="534.4" y="461.0" width="80" height="14" fill="#e6f7e6" stroke="#cccccc" stroke-width="0.5" />
<text x="574.4" y="469.0" font-size="10" font-family="Consolas, monospace" fill="#000000" text-anchor="middle" dominant-baseline="central">State_03_E</text>
<rect x="615.4" y="461.0" width="86.0" height="14" fill="#ffe6e6" stroke="#cccccc" stroke-width="0.5" />
<text x="658.4" y="469.0" font-size="10" font-family="Consolas, monospace" fill="#000000" text-anchor="middle" dominant-baseline="central">DO_S3.E1</text>
<path d="M534.4,475.0 L701.4,475.0" stroke="#cccccc" stroke-width="0.5" />
<rect x="534.4" y="475.0" width="80" height="14" fill="#e6f7e6" stroke="#cccccc" stroke-width="0.5" />
<text x="574.4" y="483.0" font-size="10" font-family="Consolas, monospace" fill="#000000" text-anchor="middle" dominant-baseline="central"></text>
<rect x="615.4" y="475.0" width="86.0" height="14" fill="#ffe6e6" stroke="#cccccc" stroke-width="0.5" />
<text x="658.4" y="483.0" font-size="10" font-family="Consolas, monospace" fill="#000000" text-anchor="middle" dominant-baseline="central">timeOut.START</text>
<rect x="439.6" y="523.0" width="84.8" height="32" fill="#f5f5f5" stroke="#000000" stroke-width="2" rx="8" ry="8" />
<text x="482.0" y="539.0" font-size="12" fontWeight="bold" font-family="Verdana, sans-serif" fill="#000000" text-anchor="middle" dominant-baseline="central">sState_04</text>
<rect x="534.4" y="523.0" width="167.0" height="78" fill="#ffffff" stroke="#cccccc" stroke-width="1" rx="4" ry="4" />
<path d="M524.4,539.0 L534.4,534.0" stroke="#000000" stroke-width="2" />
<path d="M614.4,523.0 L614.4,601.0" stroke="#cccccc" stroke-width="1" />
<rect x="534.4" y="527.0" width="80" height="14" fill="#e6f7e6" stroke="#cccccc" stroke-width="0.5" />
<text x="574.4" y="535.0" font-size="10" font-family="Consolas, monospace" fill="#000000" text-anchor="middle" dominant-baseline="central"></text>
<rect x="615.4" y="527.0" width="86.0" height="14" fill="#ffe6e6" stroke="#cccccc" stroke-width="0.5" />
<text x="658.4" y="535.0" font-size="10" font-family="Consolas, monospace" fill="#000000" text-anchor="middle" dominant-baseline="central">timeOut.STOP</text>
<path d="M534.4,541.0 L701.4,541.0" stroke="#cccccc" stroke-width="0.5" />
<rect x="534.4" y="541.0" width="80" height="14" fill="#e6f7e6" stroke="#cccccc" stroke-width="0.5" />
<text x="574.4" y="549.0" font-size="10" font-family="Consolas, monospace" fill="#000000" text-anchor="middle" dominant-baseline="central">State_03_X</text>
<rect x="615.4" y="541.0" width="86.0" height="14" fill="#ffe6e6" stroke="#cccccc" stroke-width="0.5" />
<text x="658.4" y="549.0" font-size="10" font-family="Consolas, monospace" fill="#000000" text-anchor="middle" dominant-baseline="central">DO_S3.E1</text>
<path d="M534.4,555.0 L701.4,555.0" stroke="#cccccc" stroke-width="0.5" />
<rect x="534.4" y="555.0" width="80" height="14" fill="#e6f7e6" stroke="#cccccc" stroke-width="0.5" />
<text x="574.4" y="563.0" font-size="10" font-family="Consolas, monospace" fill="#000000" text-anchor="middle" dominant-baseline="central">State_04_C</text>
<rect x="615.4" y="555.0" width="86.0" height="14" fill="#ffe6e6" stroke="#cccccc" stroke-width="0.5" />
<text x="658.4" y="563.0" font-size="10" font-family="Consolas, monospace" fill="#000000" text-anchor="middle" dominant-baseline="central">CNF</text>
<path d="M534.4,569.0 L701.4,569.0" stroke="#cccccc" stroke-width="0.5" />
<rect x="534.4" y="569.0" width="80" height="14" fill="#e6f7e6" stroke="#cccccc" stroke-width="0.5" />
<text x="574.4" y="577.0" font-size="10" font-family="Consolas, monospace" fill="#000000" text-anchor="middle" dominant-baseline="central">State_04_E</text>
<rect x="615.4" y="569.0" width="86.0" height="14" fill="#ffe6e6" stroke="#cccccc" stroke-width="0.5" />
<text x="658.4" y="577.0" font-size="10" font-family="Consolas, monospace" fill="#000000" text-anchor="middle" dominant-baseline="central">DO_S4.E1</text>
<path d="M534.4,583.0 L701.4,583.0" stroke="#cccccc" stroke-width="0.5" />
<rect x="534.4" y="583.0" width="80" height="14" fill="#e6f7e6" stroke="#cccccc" stroke-width="0.5" />
<text x="574.4" y="591.0" font-size="10" font-family="Consolas, monospace" fill="#000000" text-anchor="middle" dominant-baseline="central"></text>
<rect x="615.4" y="583.0" width="86.0" height="14" fill="#ffe6e6" stroke="#cccccc" stroke-width="0.5" />
<text x="658.4" y="591.0" font-size="10" font-family="Consolas, monospace" fill="#000000" text-anchor="middle" dominant-baseline="central">timeOut.START</text>
<rect x="439.6" y="631.0" width="84.8" height="32" fill="#f5f5f5" stroke="#000000" stroke-width="2" rx="8" ry="8" />
<text x="482.0" y="647.0" font-size="12" fontWeight="bold" font-family="Verdana, sans-serif" fill="#000000" text-anchor="middle" dominant-baseline="central">sState_00</text>
<rect x="534.4" y="631.0" width="161" height="78" fill="#ffffff" stroke="#cccccc" stroke-width="1" rx="4" ry="4" />
<path d="M524.4,647.0 L534.4,642.0" stroke="#000000" stroke-width="2" />
<path d="M614.4,631.0 L614.4,709.0" stroke="#cccccc" stroke-width="1" />
<rect x="534.4" y="635.0" width="80" height="14" fill="#e6f7e6" stroke="#cccccc" stroke-width="0.5" />
<text x="574.4" y="643.0" font-size="10" font-family="Consolas, monospace" fill="#000000" text-anchor="middle" dominant-baseline="central"></text>
<rect x="615.4" y="635.0" width="80" height="14" fill="#ffe6e6" stroke="#cccccc" stroke-width="0.5" />
<text x="655.4" y="643.0" font-size="10" font-family="Consolas, monospace" fill="#000000" text-anchor="middle" dominant-baseline="central">timeOut.STOP</text>
<path d="M534.4,649.0 L695.4,649.0" stroke="#cccccc" stroke-width="0.5" />
<rect x="534.4" y="649.0" width="80" height="14" fill="#e6f7e6" stroke="#cccccc" stroke-width="0.5" />
<text x="574.4" y="657.0" font-size="10" font-family="Consolas, monospace" fill="#000000" text-anchor="middle" dominant-baseline="central">State_04_X</text>
<rect x="615.4" y="649.0" width="80" height="14" fill="#ffe6e6" stroke="#cccccc" stroke-width="0.5" />
<text x="655.4" y="657.0" font-size="10" font-family="Consolas, monospace" fill="#000000" text-anchor="middle" dominant-baseline="central">DO_S4.E1</text>
<path d="M534.4,663.0 L695.4,663.0" stroke="#cccccc" stroke-width="0.5" />
<rect x="534.4" y="663.0" width="80" height="14" fill="#e6f7e6" stroke="#cccccc" stroke-width="0.5" />
<text x="574.4" y="671.0" font-size="10" font-family="Consolas, monospace" fill="#000000" text-anchor="middle" dominant-baseline="central">State_00_C</text>
<rect x="615.4" y="663.0" width="80" height="14" fill="#ffe6e6" stroke="#cccccc" stroke-width="0.5" />
<text x="655.4" y="671.0" font-size="10" font-family="Consolas, monospace" fill="#000000" text-anchor="middle" dominant-baseline="central">CNF</text>
<path d="M534.4,677.0 L695.4,677.0" stroke="#cccccc" stroke-width="0.5" />
<rect x="534.4" y="677.0" width="80" height="14" fill="#e6f7e6" stroke="#cccccc" stroke-width="0.5" />
<text x="574.4" y="685.0" font-size="10" font-family="Consolas, monospace" fill="#000000" text-anchor="middle" dominant-baseline="central"></text>
<rect x="615.4" y="677.0" width="80" height="14" fill="#ffe6e6" stroke="#cccccc" stroke-width="0.5" />
<text x="655.4" y="685.0" font-size="10" font-family="Consolas, monospace" fill="#000000" text-anchor="middle" dominant-baseline="central"></text>
<path d="M534.4,691.0 L695.4,691.0" stroke="#cccccc" stroke-width="0.5" />
<rect x="534.4" y="691.0" width="80" height="14" fill="#e6f7e6" stroke="#cccccc" stroke-width="0.5" />
<text x="574.4" y="699.0" font-size="10" font-family="Consolas, monospace" fill="#000000" text-anchor="middle" dominant-baseline="central"></text>
<rect x="615.4" y="691.0" width="80" height="14" fill="#ffe6e6" stroke="#cccccc" stroke-width="0.5" />
<text x="655.4" y="699.0" font-size="10" font-family="Consolas, monospace" fill="#000000" text-anchor="middle" dominant-baseline="central"></text>
<path d="M474.5,231.0 C474.5,246.2,474.5,291.8,474.5,307.0" stroke="#404040" stroke-width="1.2" fill="none" />
<path d="M474.5,307.0 L470.5,300.0717967697245 L478.5,300.0717967697245 L474.5,307.0" fill="#404040" stroke="#404040" stroke-width="1" />
<g transform="translate(474.5,269.0)">
<rect x="-20.25" y="-7.5" width="40.5" height="15" fill="#ffffff" opacity="0.9" rx="3" ry="3" />
<text x="0" y="3.5" font-size="10" font-family="Consolas, monospace" fill="#000000" text-anchor="middle" dominant-baseline="central">S1_S2</text>
</g>
<path d="M474.5,339.0 C474.5,354.2,474.5,399.8,474.5,415.0" stroke="#404040" stroke-width="1.2" fill="none" />
<path d="M474.5,415.0 L470.5,408.0717967697245 L478.5,408.0717967697245 L474.5,415.0" fill="#404040" stroke="#404040" stroke-width="1" />
<g transform="translate(474.5,377.0)">
<rect x="-20.25" y="-7.5" width="40.5" height="15" fill="#ffffff" opacity="0.9" rx="3" ry="3" />
<text x="0" y="3.5" font-size="10" font-family="Consolas, monospace" fill="#000000" text-anchor="middle" dominant-baseline="central">S2_S3</text>
</g>
<path d="M474.5,447.0 C474.5,462.2,474.5,507.8,474.5,523.0" stroke="#404040" stroke-width="1.2" fill="none" />
<path d="M474.5,523.0 L470.5,516.0717967697245 L478.5,516.0717967697245 L474.5,523.0" fill="#404040" stroke="#404040" stroke-width="1" />
<g transform="translate(474.5,485.0)">
<rect x="-20.25" y="-7.5" width="40.5" height="15" fill="#ffffff" opacity="0.9" rx="3" ry="3" />
<text x="0" y="3.5" font-size="10" font-family="Consolas, monospace" fill="#000000" text-anchor="middle" dominant-baseline="central">S3_S4</text>
</g>
<path d="M489.5,231.0 C489.5,246.2,489.5,291.8,489.5,307.0" stroke="#404040" stroke-width="1.2" fill="none" />
<path d="M489.5,307.0 L485.5,300.0717967697245 L493.5,300.0717967697245 L489.5,307.0" fill="#404040" stroke="#404040" stroke-width="1" />
<g transform="translate(489.5,287.0)">
<rect x="-52.75" y="-7.5" width="105.5" height="15" fill="#ffffff" opacity="0.9" rx="3" ry="3" />
<text x="0" y="3.5" font-size="10" font-family="Consolas, monospace" fill="#000000" text-anchor="middle" dominant-baseline="central">timeOut.TimeOut</text>
</g>
<path d="M489.5,339.0 C489.5,354.2,489.5,399.8,489.5,415.0" stroke="#404040" stroke-width="1.2" fill="none" />
<path d="M489.5,415.0 L485.5,408.0717967697245 L493.5,408.0717967697245 L489.5,415.0" fill="#404040" stroke="#404040" stroke-width="1" />
<g transform="translate(489.5,395.0)">
<rect x="-52.75" y="-7.5" width="105.5" height="15" fill="#ffffff" opacity="0.9" rx="3" ry="3" />
<text x="0" y="3.5" font-size="10" font-family="Consolas, monospace" fill="#000000" text-anchor="middle" dominant-baseline="central">timeOut.TimeOut</text>
</g>
<path d="M489.5,447.0 C489.5,462.2,489.5,507.8,489.5,523.0" stroke="#404040" stroke-width="1.2" fill="none" />
<path d="M489.5,523.0 L485.5,516.0717967697245 L493.5,516.0717967697245 L489.5,523.0" fill="#404040" stroke="#404040" stroke-width="1" />
<g transform="translate(489.5,503.0)">
<rect x="-52.75" y="-7.5" width="105.5" height="15" fill="#ffffff" opacity="0.9" rx="3" ry="3" />
<text x="0" y="3.5" font-size="10" font-family="Consolas, monospace" fill="#000000" text-anchor="middle" dominant-baseline="central">timeOut.TimeOut</text>
</g>
<path d="M482.0,631.0 C342.0,591.0,334.5,271.0,474.5,231.0" stroke="#404040" stroke-width="1.2" fill="none" />
<path d="M474.5,231.0 L468.9372511915571,236.74941959628683 L466.73948216837806,229.05722801516026 L474.5,231.0" fill="#404040" stroke="#404040" stroke-width="1" />
<g transform="translate(373.25,431.0)">
<rect x="-30.0" y="-7.5" width="60.0" height="15" fill="#ffffff" opacity="0.9" rx="3" ry="3" />
<text x="0" y="3.5" font-size="10" font-family="Consolas, monospace" fill="#000000" text-anchor="middle" dominant-baseline="central">START_S1</text>
</g>
<path d="M474.5,555.0 C474.5,570.2738338343718,467.0,615.7261661656282,467.0,631.0" stroke="#404040" stroke-width="1.2" fill="none" />
<path d="M467.0,631.0 L463.0,624.0717967697245 L471.0,624.0717967697245 L467.0,631.0" fill="#404040" stroke="#404040" stroke-width="1" />
<g transform="translate(470.75,593.0)">
<rect x="-30.0" y="-7.5" width="60.0" height="15" fill="#ffffff" opacity="0.9" rx="3" ry="3" />
<text x="0" y="3.5" font-size="10" font-family="Consolas, monospace" fill="#000000" text-anchor="middle" dominant-baseline="central">S4_START</text>
</g>
<path d="M489.5,555.0 C489.5,570.2738338343718,482.0,615.7261661656282,482.0,631.0" stroke="#404040" stroke-width="1.2" fill="none" />
<path d="M482.0,631.0 L478.0,624.0717967697245 L486.0,624.0717967697245 L482.0,631.0" fill="#404040" stroke="#404040" stroke-width="1" />
<g transform="translate(485.75,611.0)">
<rect x="-52.75" y="-7.5" width="105.5" height="15" fill="#ffffff" opacity="0.9" rx="3" ry="3" />
<text x="0" y="3.5" font-size="10" font-family="Consolas, monospace" fill="#000000" text-anchor="middle" dominant-baseline="central">timeOut.TimeOut</text>
</g>
<path d="M198.0,107.0 C320.2693747428194,107.0,489.5,76.73062525718059,489.5,199.0" stroke="#404040" stroke-width="1.2" fill="none" />
<path d="M489.5,199.0 L485.5,192.0717967697245 L493.5,192.0717967697245 L489.5,199.0" fill="#404040" stroke="#404040" stroke-width="1" />
<g transform="translate(389.6010155285573,107.14898447144273)">
<rect x="-30.0" y="-7.5" width="60.0" height="15" fill="#ffffff" opacity="0.9" rx="3" ry="3" />
<text x="0" y="3.5" font-size="10" font-family="Consolas, monospace" fill="#000000" text-anchor="middle" dominant-baseline="central">START_S1</text>
</g>
<path d="M439.6,215.0 C205.3753522790567,215.0,27.5,396.7753522790567,27.5,631.0" stroke="#404040" stroke-width="1.2" fill="none" />
<path d="M27.5,631.0 L23.5,624.0717967697245 L31.5,624.0717967697245 L27.5,631.0" fill="#404040" stroke="#404040" stroke-width="1" />
<g transform="translate(145.7157571046463,335.1657571046462)">
<rect x="-20.25" y="-7.5" width="40.5" height="15" fill="#ffffff" opacity="0.9" rx="3" ry="3" />
<text x="0" y="3.5" font-size="10" font-family="Consolas, monospace" fill="#000000" text-anchor="middle" dominant-baseline="central">RESET</text>
</g>
<path d="M439.6,539.0 C276.55281173844185,539.0,42.5,467.9528117384418,42.5,631.0" stroke="#404040" stroke-width="1.2" fill="none" />
<path d="M42.5,631.0 L38.5,624.0717967697245 L46.5,624.0717967697245 L42.5,631.0" fill="#404040" stroke="#404040" stroke-width="1" />
<g transform="translate(179.9073044019157,523.8573044019157)">
<rect x="-20.25" y="-7.5" width="40.5" height="15" fill="#ffffff" opacity="0.9" rx="3" ry="3" />
<text x="0" y="3.5" font-size="10" font-family="Consolas, monospace" fill="#000000" text-anchor="middle" dominant-baseline="central">RESET</text>
</g>
<path d="M439.6,323.0 C243.28824385686934,323.0,57.5,434.68824385686935,57.5,631.0" stroke="#404040" stroke-width="1.2" fill="none" />
<path d="M57.5,631.0 L53.5,624.0717967697245 L61.5,624.0717967697245 L57.5,631.0" fill="#404040" stroke="#404040" stroke-width="1" />
<g transform="translate(174.933091446326,403.38309144632603)">
<rect x="-20.25" y="-7.5" width="40.5" height="15" fill="#ffffff" opacity="0.9" rx="3" ry="3" />
<text x="0" y="3.5" font-size="10" font-family="Consolas, monospace" fill="#000000" text-anchor="middle" dominant-baseline="central">RESET</text>
</g>
<path d="M439.6,431.0 C272.38162301947796,431.0,72.5,463.78162301947793,72.5,631.0" stroke="#404040" stroke-width="1.2" fill="none" />
<path d="M72.5,631.0 L68.5,624.0717967697245 L76.5,624.0717967697245 L72.5,631.0" fill="#404040" stroke="#404040" stroke-width="1" />
<g transform="translate(193.34310863230422,468.2931086323042)">
<rect x="-20.25" y="-7.5" width="40.5" height="15" fill="#ffffff" opacity="0.9" rx="3" ry="3" />
<text x="0" y="3.5" font-size="10" font-family="Consolas, monospace" fill="#000000" text-anchor="middle" dominant-baseline="central">RESET</text>
</g>
<path d="M90.0,647.0 C130.0,647.0,497.0,591.0,497.0,631.0" stroke="#404040" stroke-width="1.2" fill="none" />
<path d="M497.0,631.0 L493.0,624.0717967697245 L501.0,624.0717967697245 L497.0,631.0" fill="#404040" stroke="#404040" stroke-width="1" />
<g transform="translate(308.5,624.0)">
<rect x="-7.25" y="-7.5" width="14.5" height="15" fill="#ffffff" opacity="0.9" rx="3" ry="3" />
<text x="0" y="3.5" font-size="10" font-family="Consolas, monospace" fill="#000000" text-anchor="middle" dominant-baseline="central">1</text>
</g>
</svg>