<?xml version="1.0" encoding="UTF-8"?>
<svg xmlns="http://www.w3.org/2000/svg" xmlns:xlink="http://www.w3.org/1999/xlink"
     width="1094" height="509" viewBox="-556 -20 1094 509">
<defs>
</defs>
<rect x="3" y="3" width="240" height="459" fill="#000000" fill-opacity="0.1" rx="2" ry="2" />
<path d="M0,0 H240 V144 H234 V184 H240 V459 H0 V184 H6 V144 H0 Z" fill="#ffffff" stroke="#000000" stroke-width="2" />
<path d="M0,30 L240,30" stroke="#000000" stroke-width="1" />
<text x="120.0" y="162.0" font-size="14" fontWeight="bold" font-family="Verdana, sans-serif" font-style="italic" text-anchor="middle" dominant-baseline="central">sequence_ET_04_04_AX</text>
<text x="120.0" y="176.0" font-size="10" fill="#000" font-family="Consolas, monospace" text-anchor="middle" dominant-baseline="central">1.0</text>
<path d="M-5,37 L-5,47 L0,42 Z" fill="#63B31F" stroke="none" />
<text x="12" y="46" font-size="12" text-anchor="start" font-family="Consolas, monospace">EI1</text>
<text x="-31" y="45" font-size="11" text-anchor="end" fill="#888" font-style="italic" font-family="Verdana, sans-serif">Event</text>
<path d="M-5,63 L-5,73 L0,68 Z" fill="#63B31F" stroke="none" />
<text x="12" y="72" font-size="12" text-anchor="start" font-family="Consolas, monospace">START_S1</text>
<text x="-31" y="71" font-size="11" text-anchor="end" fill="#888" font-style="italic" font-family="Verdana, sans-serif">Event</text>
<text x="-101" y="71" font-size="11" text-anchor="end" fill="#666666" font-family="Verdana, sans-serif">jump from START to State_01</text>
<path d="M-5,89 L-5,99 L0,94 Z" fill="#63B31F" stroke="none" />
<text x="12" y="98" font-size="12" text-anchor="start" font-family="Consolas, monospace">S4_S5</text>
<text x="-31" y="97" font-size="11" text-anchor="end" fill="#888" font-style="italic" font-family="Verdana, sans-serif">Event</text>
<text x="-101" y="97" font-size="11" text-anchor="end" fill="#666666" font-family="Verdana, sans-serif">jump from State_04 to State_05</text>
<path d="M-5,115 L-5,125 L0,120 Z" fill="#63B31F" stroke="none" />
<text x="12" y="124" font-size="12" text-anchor="start" font-family="Consolas, monospace">EI_RESET</text>
<text x="-31" y="123" font-size="11" text-anchor="end" fill="#888" font-style="italic" font-family="Verdana, sans-serif">Event</text>
<text x="-101" y="123" font-size="11" text-anchor="end" fill="#666666" font-family="Verdana, sans-serif">Reset from any State to START</text>
<path d="M-5,196 L-5,206 L0,201 Z" fill="#0000FF" stroke="none" />
<text x="12" y="205" font-size="12" text-anchor="start" font-family="Consolas, monospace">DT_S1_S2</text>
<text x="-31" y="204" font-size="11" text-anchor="end" fill="#0000FF" font-style="italic" font-family="Verdana, sans-serif">TIME</text>
<text x="-138" y="204" font-size="11" text-anchor="end" fill="#666666" font-family="Verdana, sans-serif">State_01 to State_02 timed, set to NO_TIME to disable</text>
<path d="M-5,222 L-5,232 L0,227 Z" fill="#0000FF" stroke="none" />
<text x="12" y="231" font-size="12" text-anchor="start" font-family="Consolas, monospace">DT_S2_S3</text>
<text x="-31" y="230" font-size="11" text-anchor="end" fill="#0000FF" font-style="italic" font-family="Verdana, sans-serif">TIME</text>
<text x="-138" y="230" font-size="11" text-anchor="end" fill="#666666" font-family="Verdana, sans-serif">State_02 to State_03 timed, set to NO_TIME to disable</text>
<path d="M-5,248 L-5,258 L0,253 Z" fill="#0000FF" stroke="none" />
<text x="12" y="257" font-size="12" text-anchor="start" font-family="Consolas, monospace">DT_S3_S4</text>
<text x="-31" y="256" font-size="11" text-anchor="end" fill="#0000FF" font-style="italic" font-family="Verdana, sans-serif">TIME</text>
<text x="-138" y="256" font-size="11" text-anchor="end" fill="#666666" font-family="Verdana, sans-serif">State_03 to State_04 timed, set to NO_TIME to disable</text>
<path d="M-5,274 L-5,284 L0,279 Z" fill="#0000FF" stroke="none" />
<text x="12" y="283" font-size="12" text-anchor="start" font-family="Consolas, monospace">DT_S5_S6</text>
<text x="-31" y="282" font-size="11" text-anchor="end" fill="#0000FF" font-style="italic" font-family="Verdana, sans-serif">TIME</text>
<text x="-138" y="282" font-size="11" text-anchor="end" fill="#666666" font-family="Verdana, sans-serif">State_05 to State_06 timed, set to NO_TIME to disable</text>
<path d="M-5,300 L-5,310 L0,305 Z" fill="#0000FF" stroke="none" />
<text x="12" y="309" font-size="12" text-anchor="start" font-family="Consolas, monospace">DT_S6_S7</text>
<text x="-31" y="308" font-size="11" text-anchor="end" fill="#0000FF" font-style="italic" font-family="Verdana, sans-serif">TIME</text>
<text x="-138" y="308" font-size="11" text-anchor="end" fill="#666666" font-family="Verdana, sans-serif">State_06 to State_07 timed, set to NO_TIME to disable</text>
<path d="M-5,326 L-5,336 L0,331 Z" fill="#0000FF" stroke="none" />
<text x="12" y="335" font-size="12" text-anchor="start" font-family="Consolas, monospace">DT_S7_S8</text>
<text x="-31" y="334" font-size="11" text-anchor="end" fill="#0000FF" font-style="italic" font-family="Verdana, sans-serif">TIME</text>
<text x="-138" y="334" font-size="11" text-anchor="end" fill="#666666" font-family="Verdana, sans-serif">State_07 to State_08 timed, set to NO_TIME to disable</text>
<path d="M-5,352 L-5,362 L0,357 Z" fill="#0000FF" stroke="none" />
<text x="12" y="361" font-size="12" text-anchor="start" font-family="Consolas, monospace">DT_S8_START</text>
<text x="-31" y="360" font-size="11" text-anchor="end" fill="#0000FF" font-style="italic" font-family="Verdana, sans-serif">TIME</text>
<text x="-135" y="360" font-size="11" text-anchor="end" fill="#666666" font-family="Verdana, sans-serif">State_08 to START timed, set to NO_TIME to disable</text>
<path d="M240,37 L240,47 L245,42 Z" fill="#63B31F" stroke="none" />
<text x="228" y="46" font-size="12" text-anchor="end" font-family="Consolas, monospace">CNF</text>
<text x="263" y="45" font-size="11" text-anchor="start" fill="#888" font-style="italic" font-family="Verdana, sans-serif">Event</text>
<text x="333" y="45" font-size="11" text-anchor="start" fill="#666666" font-family="Verdana, sans-serif">Execution Confirmation</text>
<rect x="235.0" y="196.0" width="10" height="10" fill="#845DAF" stroke="none" />
<text x="228" y="205" font-size="12" text-anchor="end" font-family="Consolas, monospace">DO_S1</text>
<text x="263" y="204" font-size="11" text-anchor="start" fill="#000" font-style="italic" font-family="Verdana, sans-serif">AX</text>
<text x="333" y="204" font-size="11" text-anchor="start" fill="#666666" font-family="Verdana, sans-serif">Output if State_01 is active</text>
<rect x="235.0" y="222.0" width="10" height="10" fill="#845DAF" stroke="none" />
<text x="228" y="231" font-size="12" text-anchor="end" font-family="Consolas, monospace">DO_S2</text>
<text x="263" y="230" font-size="11" text-anchor="start" fill="#000" font-style="italic" font-family="Verdana, sans-serif">AX</text>
<text x="333" y="230" font-size="11" text-anchor="start" fill="#666666" font-family="Verdana, sans-serif">Output if State_02 is active</text>
<rect x="235.0" y="248.0" width="10" height="10" fill="#845DAF" stroke="none" />
<text x="228" y="257" font-size="12" text-anchor="end" font-family="Consolas, monospace">DO_S3</text>
<text x="263" y="256" font-size="11" text-anchor="start" fill="#000" font-style="italic" font-family="Verdana, sans-serif">AX</text>
<text x="333" y="256" font-size="11" text-anchor="start" fill="#666666" font-family="Verdana, sans-serif">Output if State_03 is active</text>
<rect x="235.0" y="274.0" width="10" height="10" fill="#845DAF" stroke="none" />
<text x="228" y="283" font-size="12" text-anchor="end" font-family="Consolas, monospace">DO_S4</text>
<text x="263" y="282" font-size="11" text-anchor="start" fill="#000" font-style="italic" font-family="Verdana, sans-serif">AX</text>
<text x="333" y="282" font-size="11" text-anchor="start" fill="#666666" font-family="Verdana, sans-serif">Output if State_04 is active </text>
<rect x="235.0" y="300.0" width="10" height="10" fill="#845DAF" stroke="none" />
<text x="228" y="309" font-size="12" text-anchor="end" font-family="Consolas, monospace">DO_S5</text>
<text x="263" y="308" font-size="11" text-anchor="start" fill="#000" font-style="italic" font-family="Verdana, sans-serif">AX</text>
<text x="333" y="308" font-size="11" text-anchor="start" fill="#666666" font-family="Verdana, sans-serif">Output if State_05 is active </text>
<rect x="235.0" y="326.0" width="10" height="10" fill="#845DAF" stroke="none" />
<text x="228" y="335" font-size="12" text-anchor="end" font-family="Consolas, monospace">DO_S6</text>
<text x="263" y="334" font-size="11" text-anchor="start" fill="#000" font-style="italic" font-family="Verdana, sans-serif">AX</text>
<text x="333" y="334" font-size="11" text-anchor="start" fill="#666666" font-family="Verdana, sans-serif">Output if State_06 is active </text>
<rect x="235.0" y="352.0" width="10" height="10" fill="#845DAF" stroke="none" />
<text x="228" y="361" font-size="12" text-anchor="end" font-family="Consolas, monospace">DO_S7</text>
<text x="263" y="360" font-size="11" text-anchor="start" fill="#000" font-style="italic" font-family="Verdana, sans-serif">AX</text>
<text x="333" y="360" font-size="11" text-anchor="start" fill="#666666" font-family="Verdana, sans-serif">Output if State_07 is active </text>
<rect x="235.0" y="378.0" width="10" height="10" fill="#845DAF" stroke="none" />
<text x="228" y="387" font-size="12" text-anchor="end" font-family="Consolas, monospace">DO_S8</text>
<text x="263" y="386" font-size="11" text-anchor="start" fill="#000" font-style="italic" font-family="Verdana, sans-serif">AX</text>
<text x="333" y="386" font-size="11" text-anchor="start" fill="#666666" font-family="Verdana, sans-serif">Output if State_08 is active </text>
<rect x="235.0" y="404.0" width="10" height="10" fill="#845DAF" stroke="none" />
<text x="228" y="413" font-size="12" text-anchor="end" font-family="Consolas, monospace">timeOut</text>
<text x="263" y="412" font-size="11" text-anchor="start" fill="#000" font-style="italic" font-family="Verdana, sans-serif">ATimeOut</text>
<text x="333" y="412" font-size="11" text-anchor="start" fill="#666666" font-family="Verdana, sans-serif">timeOut Adapter</text>
<path d="M240,430 L240,440 L245,435 Z" fill="#18519E" stroke="none" />
<text x="228" y="439" font-size="12" text-anchor="end" font-family="Consolas, monospace">STATE_NR</text>
<text x="263" y="438" font-size="11" text-anchor="start" fill="#18519E" font-style="italic" font-family="Verdana, sans-serif">SINT</text>
<text x="333" y="438" font-size="11" text-anchor="start" fill="#666666" font-family="Verdana, sans-serif">State Number, START = 0, State_01 = 1 and so on. </text>
<path d="M-12,42 L-12,357" stroke="#404040" stroke-width="1" />
<path d="M0,42 L-12,42" stroke="#404040" />
<rect x="-14" y="40" width="4" height="4" fill="white" stroke="black" stroke-width="1" />
<path d="M-12,201 L-5,201" stroke="#404040" />
<rect x="-14" y="199" width="4" height="4" fill="white" stroke="black" stroke-width="1" />
<path d="M-12,227 L-5,227" stroke="#404040" />
<rect x="-14" y="225" width="4" height="4" fill="white" stroke="black" stroke-width="1" />
<path d="M-12,253 L-5,253" stroke="#404040" />
<rect x="-14" y="251" width="4" height="4" fill="white" stroke="black" stroke-width="1" />
<path d="M-12,279 L-5,279" stroke="#404040" />
<rect x="-14" y="277" width="4" height="4" fill="white" stroke="black" stroke-width="1" />
<path d="M-12,305 L-5,305" stroke="#404040" />
<rect x="-14" y="303" width="4" height="4" fill="white" stroke="black" stroke-width="1" />
<path d="M-12,331 L-5,331" stroke="#404040" />
<rect x="-14" y="329" width="4" height="4" fill="white" stroke="black" stroke-width="1" />
<path d="M-12,357 L-5,357" stroke="#404040" />
<rect x="-14" y="355" width="4" height="4" fill="white" stroke="black" stroke-width="1" />
<path d="M-20,68 L-20,357" stroke="#404040" stroke-width="1" />
<path d="M0,68 L-20,68" stroke="#404040" />
<rect x="-22" y="66" width="4" height="4" fill="white" stroke="black" stroke-width="1" />
<path d="M-20,201 L-5,201" stroke="#404040" />
<rect x="-22" y="199" width="4" height="4" fill="white" stroke="black" stroke-width="1" />
<path d="M-20,227 L-5,227" stroke="#404040" />
<rect x="-22" y="225" width="4" height="4" fill="white" stroke="black" stroke-width="1" />
<path d="M-20,253 L-5,253" stroke="#404040" />
<rect x="-22" y="251" width="4" height="4" fill="white" stroke="black" stroke-width="1" />
<path d="M-20,279 L-5,279" stroke="#404040" />
<rect x="-22" y="277" width="4" height="4" fill="white" stroke="black" stroke-width="1" />
<path d="M-20,305 L-5,305" stroke="#404040" />
<rect x="-22" y="303" width="4" height="4" fill="white" stroke="black" stroke-width="1" />
<path d="M-20,331 L-5,331" stroke="#404040" />
<rect x="-22" y="329" width="4" height="4" fill="white" stroke="black" stroke-width="1" />
<path d="M-20,357 L-5,357" stroke="#404040" />
<rect x="-22" y="355" width="4" height="4" fill="white" stroke="black" stroke-width="1" />
<path d="M252,42 L252,435" stroke="#404040" stroke-width="1" />
<path d="M240,42 L252,42" stroke="#404040" />
<rect x="250" y="40" width="4" height="4" fill="white" stroke="black" stroke-width="1" />
<path d="M252,435 L245,435" stroke="#404040" />
<rect x="250" y="433" width="4" height="4" fill="white" stroke="black" stroke-width="1" />
</svg>