<?xml version="1.0" encoding="UTF-8"?>
<svg xmlns="http://www.w3.org/2000/svg" xmlns:xlink="http://www.w3.org/1999/xlink"
     width="1200" height="800" viewBox="0 0 1200 800">
<defs>
</defs>
<rect x="0" y="0" width="1200" height="800" fill="#ffffff" />
<text x="600" y="25" font-size="14" fontWeight="bold" font-family="Verdana, sans-serif" fill="#000000" text-anchor="middle" dominant-baseline="central">ECC: sequence_ET_04_loop_AX</text>
<rect x="12.841398475524322" y="98.2101897502497" width="80" height="32" fill="#f5f5f5" stroke="#000000" stroke-width="2" rx="8" ry="8" />
<text x="52.84139847552432" y="114.2101897502497" font-size="12" fontWeight="bold" font-family="Verdana, sans-serif" fill="#000000" text-anchor="middle" dominant-baseline="central">xSTART</text>
<rect x="12.841398475524322" y="609.7898102497503" width="80" height="32" fill="#f5f5f5" stroke="#000000" stroke-width="2" rx="8" ry="8" />
<text x="52.84139847552432" y="625.7898102497503" font-size="12" fontWeight="bold" font-family="Verdana, sans-serif" fill="#000000" text-anchor="middle" dominant-baseline="central">sRESET</text>
<rect x="102.84139847552433" y="609.7898102497503" width="161" height="92" fill="#ffffff" stroke="#cccccc" stroke-width="1" rx="4" ry="4" />
<path d="M92.84139847552433,625.7898102497503 L102.84139847552433,620.7898102497503" stroke="#000000" stroke-width="2" />
<path d="M182.84139847552433,609.7898102497503 L182.84139847552433,701.7898102497503" stroke="#cccccc" stroke-width="1" />
<rect x="102.84139847552433" y="613.7898102497503" width="80" height="14" fill="#e6f7e6" stroke="#cccccc" stroke-width="0.5" />
<text x="142.84139847552433" y="621.7898102497503" font-size="10" font-family="Consolas, monospace" fill="#000000" text-anchor="middle" dominant-baseline="central"></text>
<rect x="183.84139847552433" y="613.7898102497503" width="80" height="14" fill="#ffe6e6" stroke="#cccccc" stroke-width="0.5" />
<text x="223.84139847552433" y="621.7898102497503" font-size="10" font-family="Consolas, monospace" fill="#000000" text-anchor="middle" dominant-baseline="central">timeOut.STOP</text>
<path d="M102.84139847552433,627.7898102497503 L263.84139847552433,627.7898102497503" stroke="#cccccc" stroke-width="0.5" />
<rect x="102.84139847552433" y="627.7898102497503" width="80" height="14" fill="#e6f7e6" stroke="#cccccc" stroke-width="0.5" />
<text x="142.84139847552433" y="635.7898102497503" font-size="10" font-family="Consolas, monospace" fill="#000000" text-anchor="middle" dominant-baseline="central">State_01_X</text>
<rect x="183.84139847552433" y="627.7898102497503" width="80" height="14" fill="#ffe6e6" stroke="#cccccc" stroke-width="0.5" />
<text x="223.84139847552433" y="635.7898102497503" font-size="10" font-family="Consolas, monospace" fill="#000000" text-anchor="middle" dominant-baseline="central">DO_S1.E1</text>
<path d="M102.84139847552433,641.7898102497503 L263.84139847552433,641.7898102497503" stroke="#cccccc" stroke-width="0.5" />
<rect x="102.84139847552433" y="641.7898102497503" width="80" height="14" fill="#e6f7e6" stroke="#cccccc" stroke-width="0.5" />
<text x="142.84139847552433" y="649.7898102497503" font-size="10" font-family="Consolas, monospace" fill="#000000" text-anchor="middle" dominant-baseline="central">State_02_X</text>
<rect x="183.84139847552433" y="641.7898102497503" width="80" height="14" fill="#ffe6e6" stroke="#cccccc" stroke-width="0.5" />
<text x="223.84139847552433" y="649.7898102497503" font-size="10" font-family="Consolas, monospace" fill="#000000" text-anchor="middle" dominant-baseline="central">DO_S2.E1</text>
<path d="M102.84139847552433,655.7898102497503 L263.84139847552433,655.7898102497503" stroke="#cccccc" stroke-width="0.5" />
<rect x="102.84139847552433" y="655.7898102497503" width="80" height="14" fill="#e6f7e6" stroke="#cccccc" stroke-width="0.5" />
<text x="142.84139847552433" y="663.7898102497503" font-size="10" font-family="Consolas, monospace" fill="#000000" text-anchor="middle" dominant-baseline="central">State_03_X</text>
<rect x="183.84139847552433" y="655.7898102497503" width="80" height="14" fill="#ffe6e6" stroke="#cccccc" stroke-width="0.5" />
<text x="223.84139847552433" y="663.7898102497503" font-size="10" font-family="Consolas, monospace" fill="#000000" text-anchor="middle" dominant-baseline="central">DO_S3.E1</text>
<path d="M102.84139847552433,669.7898102497503 L263.84139847552433,669.7898102497503" stroke="#cccccc" stroke-width="0.5" />
<rect x="102.84139847552433" y="669.7898102497503" width="80" height="14" fill="#e6f7e6" stroke="#cccccc" stroke-width="0.5" />
<text x="142.84139847552433" y="677.7898102497503" font-size="10" font-family="Consolas, monospace" fill="#000000" text-anchor="middle" dominant-baseline="central">State_04_X</text>
<rect x="183.84139847552433" y="669.7898102497503" width="80" height="14" fill="#ffe6e6" stroke="#cccccc" stroke-width="0.5" />
<text x="223.84139847552433" y="677.7898102497503" font-size="10" font-family="Consolas, monospace" fill="#000000" text-anchor="middle" dominant-baseline="central">DO_S4.E1</text>
<path d="M102.84139847552433,683.7898102497503 L263.84139847552433,683.7898102497503" stroke="#cccccc" stroke-width="0.5" />
<rect x="102.84139847552433" y="683.7898102497503" width="80" height="14" fill="#e6f7e6" stroke="#cccccc" stroke-width="0.5" />
<text x="142.84139847552433" y="691.7898102497503" font-size="10" font-family="Consolas, monospace" fill="#000000" text-anchor="middle" dominant-baseline="central">State_00_C</text>
<rect x="183.84139847552433" y="683.7898102497503" width="80" height="14" fill="#ffe6e6" stroke="#cccccc" stroke-width="0.5" />
<text x="223.84139847552433" y="691.7898102497503" font-size="10" font-family="Consolas, monospace" fill="#000000" text-anchor="middle" dominant-baseline="central">CNF</text>
<rect x="692.5475591415253" y="98.2101897502497" width="84.8" height="32" fill="#f5f5f5" stroke="#000000" stroke-width="2" rx="8" ry="8" />
<text x="734.9475591415253" y="114.2101897502497" font-size="12" fontWeight="bold" font-family="Verdana, sans-serif" fill="#000000" text-anchor="middle" dominant-baseline="central">sState_01</text>
<rect x="787.3475591415253" y="98.2101897502497" width="167.0" height="78" fill="#ffffff" stroke="#cccccc" stroke-width="1" rx="4" ry="4" />
<path d="M777.3475591415253,114.2101897502497 L787.3475591415253,109.2101897502497" stroke="#000000" stroke-width="2" />
<path d="M867.3475591415253,98.2101897502497 L867.3475591415253,176.2101897502497" stroke="#cccccc" stroke-width="1" />
<rect x="787.3475591415253" y="102.2101897502497" width="80" height="14" fill="#e6f7e6" stroke="#cccccc" stroke-width="0.5" />
<text x="827.3475591415253" y="110.2101897502497" font-size="10" font-family="Consolas, monospace" fill="#000000" text-anchor="middle" dominant-baseline="central"></text>
<rect x="868.3475591415253" y="102.2101897502497" width="86.0" height="14" fill="#ffe6e6" stroke="#cccccc" stroke-width="0.5" />
<text x="911.3475591415253" y="110.2101897502497" font-size="10" font-family="Consolas, monospace" fill="#000000" text-anchor="middle" dominant-baseline="central">timeOut.STOP</text>
<path d="M787.3475591415253,116.2101897502497 L954.3475591415253,116.2101897502497" stroke="#cccccc" stroke-width="0.5" />
<rect x="787.3475591415253" y="116.2101897502497" width="80" height="14" fill="#e6f7e6" stroke="#cccccc" stroke-width="0.5" />
<text x="827.3475591415253" y="124.2101897502497" font-size="10" font-family="Consolas, monospace" fill="#000000" text-anchor="middle" dominant-baseline="central">State_04_X</text>
<rect x="868.3475591415253" y="116.2101897502497" width="86.0" height="14" fill="#ffe6e6" stroke="#cccccc" stroke-width="0.5" />
<text x="911.3475591415253" y="124.2101897502497" font-size="10" font-family="Consolas, monospace" fill="#000000" text-anchor="middle" dominant-baseline="central">DO_S4.E1</text>
<path d="M787.3475591415253,130.2101897502497 L954.3475591415253,130.2101897502497" stroke="#cccccc" stroke-width="0.5" />
<rect x="787.3475591415253" y="130.2101897502497" width="80" height="14" fill="#e6f7e6" stroke="#cccccc" stroke-width="0.5" />
<text x="827.3475591415253" y="138.2101897502497" font-size="10" font-family="Consolas, monospace" fill="#000000" text-anchor="middle" dominant-baseline="central">State_01_C</text>
<rect x="868.3475591415253" y="130.2101897502497" width="86.0" height="14" fill="#ffe6e6" stroke="#cccccc" stroke-width="0.5" />
<text x="911.3475591415253" y="138.2101897502497" font-size="10" font-family="Consolas, monospace" fill="#000000" text-anchor="middle" dominant-baseline="central">CNF</text>
<path d="M787.3475591415253,144.2101897502497 L954.3475591415253,144.2101897502497" stroke="#cccccc" stroke-width="0.5" />
<rect x="787.3475591415253" y="144.2101897502497" width="80" height="14" fill="#e6f7e6" stroke="#cccccc" stroke-width="0.5" />
<text x="827.3475591415253" y="152.2101897502497" font-size="10" font-family="Consolas, monospace" fill="#000000" text-anchor="middle" dominant-baseline="central">State_01_E</text>
<rect x="868.3475591415253" y="144.2101897502497" width="86.0" height="14" fill="#ffe6e6" stroke="#cccccc" stroke-width="0.5" />
<text x="911.3475591415253" y="152.2101897502497" font-size="10" font-family="Consolas, monospace" fill="#000000" text-anchor="middle" dominant-baseline="central">DO_S1.E1</text>
<path d="M787.3475591415253,158.2101897502497 L954.3475591415253,158.2101897502497" stroke="#cccccc" stroke-width="0.5" />
<rect x="787.3475591415253" y="158.2101897502497" width="80" height="14" fill="#e6f7e6" stroke="#cccccc" stroke-width="0.5" />
<text x="827.3475591415253" y="166.2101897502497" font-size="10" font-family="Consolas, monospace" fill="#000000" text-anchor="middle" dominant-baseline="central"></text>
<rect x="868.3475591415253" y="158.2101897502497" width="86.0" height="14" fill="#ffe6e6" stroke="#cccccc" stroke-width="0.5" />
<text x="911.3475591415253" y="166.2101897502497" font-size="10" font-family="Consolas, monospace" fill="#000000" text-anchor="middle" dominant-baseline="central">timeOut.START</text>
<rect x="692.5475591415253" y="268.73672991674994" width="84.8" height="32" fill="#f5f5f5" stroke="#000000" stroke-width="2" rx="8" ry="8" />
<text x="734.9475591415253" y="284.73672991674994" font-size="12" fontWeight="bold" font-family="Verdana, sans-serif" fill="#000000" text-anchor="middle" dominant-baseline="central">sState_02</text>
<rect x="787.3475591415253" y="268.73672991674994" width="167.0" height="78" fill="#ffffff" stroke="#cccccc" stroke-width="1" rx="4" ry="4" />
<path d="M777.3475591415253,284.73672991674994 L787.3475591415253,279.73672991674994" stroke="#000000" stroke-width="2" />
<path d="M867.3475591415253,268.73672991674994 L867.3475591415253,346.73672991674994" stroke="#cccccc" stroke-width="1" />
<rect x="787.3475591415253" y="272.73672991674994" width="80" height="14" fill="#e6f7e6" stroke="#cccccc" stroke-width="0.5" />
<text x="827.3475591415253" y="280.73672991674994" font-size="10" font-family="Consolas, monospace" fill="#000000" text-anchor="middle" dominant-baseline="central"></text>
<rect x="868.3475591415253" y="272.73672991674994" width="86.0" height="14" fill="#ffe6e6" stroke="#cccccc" stroke-width="0.5" />
<text x="911.3475591415253" y="280.73672991674994" font-size="10" font-family="Consolas, monospace" fill="#000000" text-anchor="middle" dominant-baseline="central">timeOut.STOP</text>
<path d="M787.3475591415253,286.73672991674994 L954.3475591415253,286.73672991674994" stroke="#cccccc" stroke-width="0.5" />
<rect x="787.3475591415253" y="286.73672991674994" width="80" height="14" fill="#e6f7e6" stroke="#cccccc" stroke-width="0.5" />
<text x="827.3475591415253" y="294.73672991674994" font-size="10" font-family="Consolas, monospace" fill="#000000" text-anchor="middle" dominant-baseline="central">State_01_X</text>
<rect x="868.3475591415253" y="286.73672991674994" width="86.0" height="14" fill="#ffe6e6" stroke="#cccccc" stroke-width="0.5" />
<text x="911.3475591415253" y="294.73672991674994" font-size="10" font-family="Consolas, monospace" fill="#000000" text-anchor="middle" dominant-baseline="central">DO_S1.E1</text>
<path d="M787.3475591415253,300.73672991674994 L954.3475591415253,300.73672991674994" stroke="#cccccc" stroke-width="0.5" />
<rect x="787.3475591415253" y="300.73672991674994" width="80" height="14" fill="#e6f7e6" stroke="#cccccc" stroke-width="0.5" />
<text x="827.3475591415253" y="308.73672991674994" font-size="10" font-family="Consolas, monospace" fill="#000000" text-anchor="middle" dominant-baseline="central">State_02_C</text>
<rect x="868.3475591415253" y="300.73672991674994" width="86.0" height="14" fill="#ffe6e6" stroke="#cccccc" stroke-width="0.5" />
<text x="911.3475591415253" y="308.73672991674994" font-size="10" font-family="Consolas, monospace" fill="#000000" text-anchor="middle" dominant-baseline="central">CNF</text>
<path d="M787.3475591415253,314.73672991674994 L954.3475591415253,314.73672991674994" stroke="#cccccc" stroke-width="0.5" />
<rect x="787.3475591415253" y="314.73672991674994" width="80" height="14" fill="#e6f7e6" stroke="#cccccc" stroke-width="0.5" />
<text x="827.3475591415253" y="322.73672991674994" font-size="10" font-family="Consolas, monospace" fill="#000000" text-anchor="middle" dominant-baseline="central">State_02_E</text>
<rect x="868.3475591415253" y="314.73672991674994" width="86.0" height="14" fill="#ffe6e6" stroke="#cccccc" stroke-width="0.5" />
<text x="911.3475591415253" y="322.73672991674994" font-size="10" font-family="Consolas, monospace" fill="#000000" text-anchor="middle" dominant-baseline="central">DO_S2.E1</text>
<path d="M787.3475591415253,328.73672991674994 L954.3475591415253,328.73672991674994" stroke="#cccccc" stroke-width="0.5" />
<rect x="787.3475591415253" y="328.73672991674994" width="80" height="14" fill="#e6f7e6" stroke="#cccccc" stroke-width="0.5" />
<text x="827.3475591415253" y="336.73672991674994" font-size="10" font-family="Consolas, monospace" fill="#000000" text-anchor="middle" dominant-baseline="central"></text>
<rect x="868.3475591415253" y="328.73672991674994" width="86.0" height="14" fill="#ffe6e6" stroke="#cccccc" stroke-width="0.5" />
<text x="911.3475591415253" y="336.73672991674994" font-size="10" font-family="Consolas, monospace" fill="#000000" text-anchor="middle" dominant-baseline="central">timeOut.START</text>
<rect x="692.5475591415253" y="439.2632700832502" width="84.8" height="32" fill="#f5f5f5" stroke="#000000" stroke-width="2" rx="8" ry="8" />
<text x="734.9475591415253" y="455.2632700832502" font-size="12" fontWeight="bold" font-family="Verdana, sans-serif" fill="#000000" text-anchor="middle" dominant-baseline="central">sState_03</text>
<rect x="787.3475591415253" y="439.2632700832502" width="167.0" height="78" fill="#ffffff" stroke="#cccccc" stroke-width="1" rx="4" ry="4" />
<path d="M777.3475591415253,455.2632700832502 L787.3475591415253,450.2632700832502" stroke="#000000" stroke-width="2" />
<path d="M867.3475591415253,439.2632700832502 L867.3475591415253,517.2632700832502" stroke="#cccccc" stroke-width="1" />
<rect x="787.3475591415253" y="443.2632700832502" width="80" height="14" fill="#e6f7e6" stroke="#cccccc" stroke-width="0.5" />
<text x="827.3475591415253" y="451.2632700832502" font-size="10" font-family="Consolas, monospace" fill="#000000" text-anchor="middle" dominant-baseline="central"></text>
<rect x="868.3475591415253" y="443.2632700832502" width="86.0" height="14" fill="#ffe6e6" stroke="#cccccc" stroke-width="0.5" />
<text x="911.3475591415253" y="451.2632700832502" font-size="10" font-family="Consolas, monospace" fill="#000000" text-anchor="middle" dominant-baseline="central">timeOut.STOP</text>
<path d="M787.3475591415253,457.2632700832502 L954.3475591415253,457.2632700832502" stroke="#cccccc" stroke-width="0.5" />
<rect x="787.3475591415253" y="457.2632700832502" width="80" height="14" fill="#e6f7e6" stroke="#cccccc" stroke-width="0.5" />
<text x="827.3475591415253" y="465.2632700832502" font-size="10" font-family="Consolas, monospace" fill="#000000" text-anchor="middle" dominant-baseline="central">State_02_X</text>
<rect x="868.3475591415253" y="457.2632700832502" width="86.0" height="14" fill="#ffe6e6" stroke="#cccccc" stroke-width="0.5" />
<text x="911.3475591415253" y="465.2632700832502" font-size="10" font-family="Consolas, monospace" fill="#000000" text-anchor="middle" dominant-baseline="central">DO_S2.E1</text>
<path d="M787.3475591415253,471.2632700832502 L954.3475591415253,471.2632700832502" stroke="#cccccc" stroke-width="0.5" />
<rect x="787.3475591415253" y="471.2632700832502" width="80" height="14" fill="#e6f7e6" stroke="#cccccc" stroke-width="0.5" />
<text x="827.3475591415253" y="479.2632700832502" font-size="10" font-family="Consolas, monospace" fill="#000000" text-anchor="middle" dominant-baseline="central">State_03_C</text>
<rect x="868.3475591415253" y="471.2632700832502" width="86.0" height="14" fill="#ffe6e6" stroke="#cccccc" stroke-width="0.5" />
<text x="911.3475591415253" y="479.2632700832502" font-size="10" font-family="Consolas, monospace" fill="#000000" text-anchor="middle" dominant-baseline="central">CNF</text>
<path d="M787.3475591415253,485.2632700832502 L954.3475591415253,485.2632700832502" stroke="#cccccc" stroke-width="0.5" />
<rect x="787.3475591415253" y="485.2632700832502" width="80" height="14" fill="#e6f7e6" stroke="#cccccc" stroke-width="0.5" />
<text x="827.3475591415253" y="493.2632700832502" font-size="10" font-family="Consolas, monospace" fill="#000000" text-anchor="middle" dominant-baseline="central">State_03_E</text>
<rect x="868.3475591415253" y="485.2632700832502" width="86.0" height="14" fill="#ffe6e6" stroke="#cccccc" stroke-width="0.5" />
<text x="911.3475591415253" y="493.2632700832502" font-size="10" font-family="Consolas, monospace" fill="#000000" text-anchor="middle" dominant-baseline="central">DO_S3.E1</text>
<path d="M787.3475591415253,499.2632700832502 L954.3475591415253,499.2632700832502" stroke="#cccccc" stroke-width="0.5" />
<rect x="787.3475591415253" y="499.2632700832502" width="80" height="14" fill="#e6f7e6" stroke="#cccccc" stroke-width="0.5" />
<text x="827.3475591415253" y="507.2632700832502" font-size="10" font-family="Consolas, monospace" fill="#000000" text-anchor="middle" dominant-baseline="central"></text>
<rect x="868.3475591415253" y="499.2632700832502" width="86.0" height="14" fill="#ffe6e6" stroke="#cccccc" stroke-width="0.5" />
<text x="911.3475591415253" y="507.2632700832502" font-size="10" font-family="Consolas, monospace" fill="#000000" text-anchor="middle" dominant-baseline="central">timeOut.START</text>
<rect x="692.5475591415253" y="609.7898102497503" width="84.8" height="32" fill="#f5f5f5" stroke="#000000" stroke-width="2" rx="8" ry="8" />
<text x="734.9475591415253" y="625.7898102497503" font-size="12" fontWeight="bold" font-family="Verdana, sans-serif" fill="#000000" text-anchor="middle" dominant-baseline="central">sState_04</text>
<rect x="787.3475591415253" y="609.7898102497503" width="167.0" height="78" fill="#ffffff" stroke="#cccccc" stroke-width="1" rx="4" ry="4" />
<path d="M777.3475591415253,625.7898102497503 L787.3475591415253,620.7898102497503" stroke="#000000" stroke-width="2" />
<path d="M867.3475591415253,609.7898102497503 L867.3475591415253,687.7898102497503" stroke="#cccccc" stroke-width="1" />
<rect x="787.3475591415253" y="613.7898102497503" width="80" height="14" fill="#e6f7e6" stroke="#cccccc" stroke-width="0.5" />
<text x="827.3475591415253" y="621.7898102497503" font-size="10" font-family="Consolas, monospace" fill="#000000" text-anchor="middle" dominant-baseline="central"></text>
<rect x="868.3475591415253" y="613.7898102497503" width="86.0" height="14" fill="#ffe6e6" stroke="#cccccc" stroke-width="0.5" />
<text x="911.3475591415253" y="621.7898102497503" font-size="10" font-family="Consolas, monospace" fill="#000000" text-anchor="middle" dominant-baseline="central">timeOut.STOP</text>
<path d="M787.3475591415253,627.7898102497503 L954.3475591415253,627.7898102497503" stroke="#cccccc" stroke-width="0.5" />
<rect x="787.3475591415253" y="627.7898102497503" width="80" height="14" fill="#e6f7e6" stroke="#cccccc" stroke-width="0.5" />
<text x="827.3475591415253" y="635.7898102497503" font-size="10" font-family="Consolas, monospace" fill="#000000" text-anchor="middle" dominant-baseline="central">State_03_X</text>
<rect x="868.3475591415253" y="627.7898102497503" width="86.0" height="14" fill="#ffe6e6" stroke="#cccccc" stroke-width="0.5" />
<text x="911.3475591415253" y="635.7898102497503" font-size="10" font-family="Consolas, monospace" fill="#000000" text-anchor="middle" dominant-baseline="central">DO_S3.E1</text>
<path d="M787.3475591415253,641.7898102497503 L954.3475591415253,641.7898102497503" stroke="#cccccc" stroke-width="0.5" />
<rect x="787.3475591415253" y="641.7898102497503" width="80" height="14" fill="#e6f7e6" stroke="#cccccc" stroke-width="0.5" />
<text x="827.3475591415253" y="649.7898102497503" font-size="10" font-family="Consolas, monospace" fill="#000000" text-anchor="middle" dominant-baseline="central">State_04_C</text>
<rect x="868.3475591415253" y="641.7898102497503" width="86.0" height="14" fill="#ffe6e6" stroke="#cccccc" stroke-width="0.5" />
<text x="911.3475591415253" y="649.7898102497503" font-size="10" font-family="Consolas, monospace" fill="#000000" text-anchor="middle" dominant-baseline="central">CNF</text>
<path d="M787.3475591415253,655.7898102497503 L954.3475591415253,655.7898102497503" stroke="#cccccc" stroke-width="0.5" />
<rect x="787.3475591415253" y="655.7898102497503" width="80" height="14" fill="#e6f7e6" stroke="#cccccc" stroke-width="0.5" />
<text x="827.3475591415253" y="663.7898102497503" font-size="10" font-family="Consolas, monospace" fill="#000000" text-anchor="middle" dominant-baseline="central">State_04_E</text>
<rect x="868.3475591415253" y="655.7898102497503" width="86.0" height="14" fill="#ffe6e6" stroke="#cccccc" stroke-width="0.5" />
<text x="911.3475591415253" y="663.7898102497503" font-size="10" font-family="Consolas, monospace" fill="#000000" text-anchor="middle" dominant-baseline="central">DO_S4.E1</text>
<path d="M787.3475591415253,669.7898102497503 L954.3475591415253,669.7898102497503" stroke="#cccccc" stroke-width="0.5" />
<rect x="787.3475591415253" y="669.7898102497503" width="80" height="14" fill="#e6f7e6" stroke="#cccccc" stroke-width="0.5" />
<text x="827.3475591415253" y="677.7898102497503" font-size="10" font-family="Consolas, monospace" fill="#000000" text-anchor="middle" dominant-baseline="central"></text>
<rect x="868.3475591415253" y="669.7898102497503" width="86.0" height="14" fill="#ffe6e6" stroke="#cccccc" stroke-width="0.5" />
<text x="911.3475591415253" y="677.7898102497503" font-size="10" font-family="Consolas, monospace" fill="#000000" text-anchor="middle" dominant-baseline="central">timeOut.START</text>
<path d="M727.4475591415253,130.2101897502497 C727.4475591415253,157.91549778354974,727.4475591415253,241.0314218834499,727.4475591415253,268.73672991674994" stroke="#404040" stroke-width="1.2" fill="none" />
<path d="M727.4475591415253,268.73672991674994 L723.4475591415253,261.8085266864744 L731.4475591415253,261.8085266864744 L727.4475591415253,268.73672991674994" fill="#404040" stroke="#404040" stroke-width="1" />
<g transform="translate(727.4475591415253,199.47345983349982)">
<rect x="-20.25" y="-7.5" width="40.5" height="15" fill="#ffffff" opacity="0.9" rx="3" ry="3" />
<text x="0" y="3.5" font-size="10" font-family="Consolas, monospace" fill="#000000" text-anchor="middle" dominant-baseline="central">S1_S2</text>
</g>
<path d="M727.4475591415253,300.73672991674994 C727.4475591415253,328.44203795005,727.4475591415253,411.5579620499501,727.4475591415253,439.2632700832502" stroke="#404040" stroke-width="1.2" fill="none" />
<path d="M727.4475591415253,439.2632700832502 L723.4475591415253,432.33506685297465 L731.4475591415253,432.33506685297465 L727.4475591415253,439.2632700832502" fill="#404040" stroke="#404040" stroke-width="1" />
<g transform="translate(727.4475591415253,370.0)">
<rect x="-20.25" y="-7.5" width="40.5" height="15" fill="#ffffff" opacity="0.9" rx="3" ry="3" />
<text x="0" y="3.5" font-size="10" font-family="Consolas, monospace" fill="#000000" text-anchor="middle" dominant-baseline="central">S2_S3</text>
</g>
<path d="M727.4475591415253,471.2632700832502 C727.4475591415253,498.9685781165502,727.4475591415253,582.0845022164502,727.4475591415253,609.7898102497503" stroke="#404040" stroke-width="1.2" fill="none" />
<path d="M727.4475591415253,609.7898102497503 L723.4475591415253,602.8616070194748 L731.4475591415253,602.8616070194748 L727.4475591415253,609.7898102497503" fill="#404040" stroke="#404040" stroke-width="1" />
<g transform="translate(727.4475591415253,540.5265401665002)">
<rect x="-20.25" y="-7.5" width="40.5" height="15" fill="#ffffff" opacity="0.9" rx="3" ry="3" />
<text x="0" y="3.5" font-size="10" font-family="Consolas, monospace" fill="#000000" text-anchor="middle" dominant-baseline="central">S3_S4</text>
</g>
<path d="M742.4475591415253,130.2101897502497 C742.4475591415253,157.91549778354974,742.4475591415253,241.0314218834499,742.4475591415253,268.73672991674994" stroke="#404040" stroke-width="1.2" fill="none" />
<path d="M742.4475591415253,268.73672991674994 L738.4475591415253,261.8085266864744 L746.4475591415253,261.8085266864744 L742.4475591415253,268.73672991674994" fill="#404040" stroke="#404040" stroke-width="1" />
<g transform="translate(742.4475591415253,217.47345983349982)">
<rect x="-52.75" y="-7.5" width="105.5" height="15" fill="#ffffff" opacity="0.9" rx="3" ry="3" />
<text x="0" y="3.5" font-size="10" font-family="Consolas, monospace" fill="#000000" text-anchor="middle" dominant-baseline="central">timeOut.TimeOut</text>
</g>
<path d="M742.4475591415253,300.73672991674994 C742.4475591415253,328.44203795005,742.4475591415253,411.5579620499501,742.4475591415253,439.2632700832502" stroke="#404040" stroke-width="1.2" fill="none" />
<path d="M742.4475591415253,439.2632700832502 L738.4475591415253,432.33506685297465 L746.4475591415253,432.33506685297465 L742.4475591415253,439.2632700832502" fill="#404040" stroke="#404040" stroke-width="1" />
<g transform="translate(742.4475591415253,388.0)">
<rect x="-52.75" y="-7.5" width="105.5" height="15" fill="#ffffff" opacity="0.9" rx="3" ry="3" />
<text x="0" y="3.5" font-size="10" font-family="Consolas, monospace" fill="#000000" text-anchor="middle" dominant-baseline="central">timeOut.TimeOut</text>
</g>
<path d="M742.4475591415253,471.2632700832502 C742.4475591415253,498.9685781165502,742.4475591415253,582.0845022164502,742.4475591415253,609.7898102497503" stroke="#404040" stroke-width="1.2" fill="none" />
<path d="M742.4475591415253,609.7898102497503 L738.4475591415253,602.8616070194748 L746.4475591415253,602.8616070194748 L742.4475591415253,609.7898102497503" fill="#404040" stroke="#404040" stroke-width="1" />
<g transform="translate(742.4475591415253,558.5265401665002)">
<rect x="-52.75" y="-7.5" width="105.5" height="15" fill="#ffffff" opacity="0.9" rx="3" ry="3" />
<text x="0" y="3.5" font-size="10" font-family="Consolas, monospace" fill="#000000" text-anchor="middle" dominant-baseline="central">timeOut.TimeOut</text>
</g>
<path d="M92.84139847552433,114.2101897502497 C132.84139847552433,114.2101897502497,719.9475591415253,58.2101897502497,719.9475591415253,98.2101897502497" stroke="#404040" stroke-width="1.2" fill="none" />
<path d="M719.9475591415253,98.2101897502497 L715.9475591415253,91.28198651997418 L723.9475591415253,91.28198651997418 L719.9475591415253,98.2101897502497" fill="#404040" stroke="#404040" stroke-width="1" />
<g transform="translate(421.3944788085248,91.2101897502497)">
<rect x="-30.0" y="-7.5" width="60.0" height="15" fill="#ffffff" opacity="0.9" rx="3" ry="3" />
<text x="0" y="3.5" font-size="10" font-family="Consolas, monospace" fill="#000000" text-anchor="middle" dominant-baseline="central">START_S1</text>
</g>
<path d="M692.5475591415253,114.2101897502497 C361.7022999695832,114.2101897502497,30.341398475524322,278.94455107780817,30.341398475524322,609.7898102497503" stroke="#404040" stroke-width="1.2" fill="none" />
<path d="M30.341398475524322,609.7898102497503 L26.341398475524322,602.8616070194748 L34.34139847552432,602.8616070194748 L30.341398475524322,609.7898102497503" fill="#404040" stroke="#404040" stroke-width="1" />
<g transform="translate(237.37750661904653,237.9330278105217)">
<rect x="-20.25" y="-7.5" width="40.5" height="15" fill="#ffffff" opacity="0.9" rx="3" ry="3" />
<text x="0" y="3.5" font-size="10" font-family="Consolas, monospace" fill="#000000" text-anchor="middle" dominant-baseline="central">RESET</text>
</g>
<path d="M692.5475591415253,625.7898102497503 C652.5475591415253,625.7898102497503,45.34139847552432,569.7898102497503,45.34139847552432,609.7898102497503" stroke="#404040" stroke-width="1.2" fill="none" />
<path d="M45.34139847552432,609.7898102497503 L41.34139847552432,602.8616070194748 L49.34139847552432,602.8616070194748 L45.34139847552432,609.7898102497503" fill="#404040" stroke="#404040" stroke-width="1" />
<g transform="translate(353.9444788085248,602.7898102497503)">
<rect x="-20.25" y="-7.5" width="40.5" height="15" fill="#ffffff" opacity="0.9" rx="3" ry="3" />
<text x="0" y="3.5" font-size="10" font-family="Consolas, monospace" fill="#000000" text-anchor="middle" dominant-baseline="central">RESET</text>
</g>
<path d="M692.5475591415253,284.73672991674994 C408.1973146561674,284.73672991674994,60.34139847552432,325.4395657643924,60.34139847552432,609.7898102497503" stroke="#404040" stroke-width="1.2" fill="none" />
<path d="M60.34139847552432,609.7898102497503 L56.34139847552432,602.8616070194748 L64.34139847552431,602.8616070194748 L60.34139847552432,609.7898102497503" fill="#404040" stroke="#404040" stroke-width="1" />
<g transform="translate(269.8131371265156,340.6319284012409)">
<rect x="-20.25" y="-7.5" width="40.5" height="15" fill="#ffffff" opacity="0.9" rx="3" ry="3" />
<text x="0" y="3.5" font-size="10" font-family="Consolas, monospace" fill="#000000" text-anchor="middle" dominant-baseline="central">RESET</text>
</g>
<path d="M692.5475591415253,455.2632700832502 C438.04509663716544,455.2632700832502,75.34139847552433,355.28734774539043,75.34139847552433,609.7898102497503" stroke="#404040" stroke-width="1.2" fill="none" />
<path d="M75.34139847552433,609.7898102497503 L71.34139847552433,602.8616070194748 L79.34139847552433,602.8616070194748 L75.34139847552433,609.7898102497503" fill="#404040" stroke="#404040" stroke-width="1" />
<g transform="translate(288.50605536938986,437.0881167273653)">
<rect x="-20.25" y="-7.5" width="40.5" height="15" fill="#ffffff" opacity="0.9" rx="3" ry="3" />
<text x="0" y="3.5" font-size="10" font-family="Consolas, monospace" fill="#000000" text-anchor="middle" dominant-baseline="central">RESET</text>
</g>
<path d="M727.4475591415253,609.7898102497503 C587.4475591415253,569.7898102497503,594.9475591415253,170.2101897502497,734.9475591415253,130.2101897502497" stroke="#404040" stroke-width="1.2" fill="none" />
<path d="M734.9475591415253,130.2101897502497 L729.3848103330824,135.95960934653652 L727.1870413099034,128.26741776540996 L734.9475591415253,130.2101897502497" fill="#404040" stroke="#404040" stroke-width="1" />
<g transform="translate(626.1975591415253,370.0)">
<rect x="-20.25" y="-7.5" width="40.5" height="15" fill="#ffffff" opacity="0.9" rx="3" ry="3" />
<text x="0" y="3.5" font-size="10" font-family="Consolas, monospace" fill="#000000" text-anchor="middle" dominant-baseline="central">S4_S1</text>
</g>
<path d="M742.4475591415253,609.7898102497503 C882.4475591415253,564.7898102497503,889.9475591415253,175.2101897502497,749.9475591415253,130.2101897502497" stroke="#404040" stroke-width="1.2" fill="none" />
<path d="M749.9475591415253,130.2101897502497 L757.7674432167889,128.52216929734078 L755.3193697734839,136.1383977876229 L749.9475591415253,130.2101897502497" fill="#404040" stroke="#404040" stroke-width="1" />
<g transform="translate(851.1975591415253,370.0)">
<rect x="-52.75" y="-7.5" width="105.5" height="15" fill="#ffffff" opacity="0.9" rx="3" ry="3" />
<text x="0" y="3.5" font-size="10" font-family="Consolas, monospace" fill="#000000" text-anchor="middle" dominant-baseline="central">timeOut.TimeOut</text>
</g>
<path d="M52.84139847552432,609.7898102497503 C52.84139847552432,569.7898102497503,52.84139847552432,170.2101897502497,52.84139847552432,130.2101897502497" stroke="#404040" stroke-width="1.2" fill="none" />
<path d="M52.84139847552432,130.2101897502497 L56.84139847552432,137.1383929805252 L48.84139847552432,137.1383929805252 L52.84139847552432,130.2101897502497" fill="#404040" stroke="#404040" stroke-width="1" />
<g transform="translate(52.84139847552432,370.0)">
<rect x="-7.25" y="-7.5" width="14.5" height="15" fill="#ffffff" opacity="0.9" rx="3" ry="3" />
<text x="0" y="3.5" font-size="10" font-family="Consolas, monospace" fill="#000000" text-anchor="middle" dominant-baseline="central">1</text>
</g>
</svg>