<?xml version="1.0" encoding="UTF-8"?>
<svg xmlns="http://www.w3.org/2000/svg" xmlns:xlink="http://www.w3.org/1999/xlink"
     width="1128" height="665" viewBox="-556 -20 1128 665">
<defs>
</defs>
<rect x="3" y="3" width="210" height="615" fill="#000000" fill-opacity="0.1" rx="2" ry="2" />
<path d="M0,0 H210 V300 H204 V340 H210 V615 H0 V340 H6 V300 H0 Z" fill="#ffffff" stroke="#606060" stroke-width="2" />
<path d="M0,30 L210,30" stroke="#606060" stroke-width="1" />
<text x="105.0" y="318.0" font-size="14" fontWeight="bold" font-family="Verdana, sans-serif" font-style="italic" text-anchor="middle" dominant-baseline="central">sequence_ET_04_04</text>
<text x="105.0" y="332.0" font-size="10" fill="#000" font-family="Consolas, monospace" text-anchor="middle" dominant-baseline="central">1.0</text>
<path d="M-5,37 L-5,47 L0,42 Z" fill="#5cb85c" stroke="none" />
<text x="12" y="46" font-size="12" text-anchor="start" font-family="Consolas, monospace">EI1</text>
<text x="-31" y="45" font-size="11" text-anchor="end" fill="#888" font-style="italic" font-family="Verdana, sans-serif">Event</text>
<path d="M-5,63 L-5,73 L0,68 Z" fill="#5cb85c" stroke="none" />
<text x="12" y="72" font-size="12" text-anchor="start" font-family="Consolas, monospace">START_S1</text>
<text x="-31" y="71" font-size="11" text-anchor="end" fill="#888" font-style="italic" font-family="Verdana, sans-serif">Event</text>
<text x="-101" y="71" font-size="11" text-anchor="end" fill="#666666" font-family="Verdana, sans-serif">jump from START to State_01</text>
<path d="M-5,89 L-5,99 L0,94 Z" fill="#5cb85c" stroke="none" />
<text x="12" y="98" font-size="12" text-anchor="start" font-family="Consolas, monospace">S4_S5</text>
<text x="-31" y="97" font-size="11" text-anchor="end" fill="#888" font-style="italic" font-family="Verdana, sans-serif">Event</text>
<text x="-101" y="97" font-size="11" text-anchor="end" fill="#666666" font-family="Verdana, sans-serif">jump from State_04 to State_05</text>
<path d="M-5,115 L-5,125 L0,120 Z" fill="#5cb85c" stroke="none" />
<text x="12" y="124" font-size="12" text-anchor="start" font-family="Consolas, monospace">EI_RESET</text>
<text x="-31" y="123" font-size="11" text-anchor="end" fill="#888" font-style="italic" font-family="Verdana, sans-serif">Event</text>
<text x="-101" y="123" font-size="11" text-anchor="end" fill="#666666" font-family="Verdana, sans-serif">Reset from any State to START</text>
<path d="M-5,352 L-5,362 L0,357 Z" fill="#0066cc" stroke="none" />
<text x="12" y="361" font-size="12" text-anchor="start" font-family="Consolas, monospace">DT_S1_S2</text>
<text x="-31" y="360" font-size="11" text-anchor="end" fill="#0066cc" font-style="italic" font-family="Verdana, sans-serif">TIME</text>
<text x="-138" y="360" font-size="11" text-anchor="end" fill="#666666" font-family="Verdana, sans-serif">State_01 to State_02 timed, set to NO_TIME to disable</text>
<path d="M-5,378 L-5,388 L0,383 Z" fill="#0066cc" stroke="none" />
<text x="12" y="387" font-size="12" text-anchor="start" font-family="Consolas, monospace">DT_S2_S3</text>
<text x="-31" y="386" font-size="11" text-anchor="end" fill="#0066cc" font-style="italic" font-family="Verdana, sans-serif">TIME</text>
<text x="-138" y="386" font-size="11" text-anchor="end" fill="#666666" font-family="Verdana, sans-serif">State_02 to State_03 timed, set to NO_TIME to disable</text>
<path d="M-5,404 L-5,414 L0,409 Z" fill="#0066cc" stroke="none" />
<text x="12" y="413" font-size="12" text-anchor="start" font-family="Consolas, monospace">DT_S3_S4</text>
<text x="-31" y="412" font-size="11" text-anchor="end" fill="#0066cc" font-style="italic" font-family="Verdana, sans-serif">TIME</text>
<text x="-138" y="412" font-size="11" text-anchor="end" fill="#666666" font-family="Verdana, sans-serif">State_03 to State_04 timed, set to NO_TIME to disable</text>
<path d="M-5,430 L-5,440 L0,435 Z" fill="#0066cc" stroke="none" />
<text x="12" y="439" font-size="12" text-anchor="start" font-family="Consolas, monospace">DT_S5_S6</text>
<text x="-31" y="438" font-size="11" text-anchor="end" fill="#0066cc" font-style="italic" font-family="Verdana, sans-serif">TIME</text>
<text x="-138" y="438" font-size="11" text-anchor="end" fill="#666666" font-family="Verdana, sans-serif">State_05 to State_06 timed, set to NO_TIME to disable</text>
<path d="M-5,456 L-5,466 L0,461 Z" fill="#0066cc" stroke="none" />
<text x="12" y="465" font-size="12" text-anchor="start" font-family="Consolas, monospace">DT_S6_S7</text>
<text x="-31" y="464" font-size="11" text-anchor="end" fill="#0066cc" font-style="italic" font-family="Verdana, sans-serif">TIME</text>
<text x="-138" y="464" font-size="11" text-anchor="end" fill="#666666" font-family="Verdana, sans-serif">State_06 to State_07 timed, set to NO_TIME to disable</text>
<path d="M-5,482 L-5,492 L0,487 Z" fill="#0066cc" stroke="none" />
<text x="12" y="491" font-size="12" text-anchor="start" font-family="Consolas, monospace">DT_S7_S8</text>
<text x="-31" y="490" font-size="11" text-anchor="end" fill="#0066cc" font-style="italic" font-family="Verdana, sans-serif">TIME</text>
<text x="-138" y="490" font-size="11" text-anchor="end" fill="#666666" font-family="Verdana, sans-serif">State_07 to State_08 timed, set to NO_TIME to disable</text>
<path d="M-5,508 L-5,518 L0,513 Z" fill="#0066cc" stroke="none" />
<text x="12" y="517" font-size="12" text-anchor="start" font-family="Consolas, monospace">DT_S8_START</text>
<text x="-31" y="516" font-size="11" text-anchor="end" fill="#0066cc" font-style="italic" font-family="Verdana, sans-serif">TIME</text>
<text x="-135" y="516" font-size="11" text-anchor="end" fill="#666666" font-family="Verdana, sans-serif">State_08 to START timed, set to NO_TIME to disable</text>
<path d="M210,37 L210,47 L215,42 Z" fill="#5cb85c" stroke="none" />
<text x="198" y="46" font-size="12" text-anchor="end" font-family="Consolas, monospace">CNF</text>
<text x="297" y="45" font-size="11" text-anchor="start" fill="#888" font-style="italic" font-family="Verdana, sans-serif">Event</text>
<text x="367" y="45" font-size="11" text-anchor="start" fill="#666666" font-family="Verdana, sans-serif">Execution Confirmation</text>
<path d="M210,63 L210,73 L215,68 Z" fill="#5cb85c" stroke="none" />
<text x="198" y="72" font-size="12" text-anchor="end" font-family="Consolas, monospace">EO_S1</text>
<text x="297" y="71" font-size="11" text-anchor="start" fill="#888" font-style="italic" font-family="Verdana, sans-serif">Event</text>
<path d="M210,89 L210,99 L215,94 Z" fill="#5cb85c" stroke="none" />
<text x="198" y="98" font-size="12" text-anchor="end" font-family="Consolas, monospace">EO_S2</text>
<text x="297" y="97" font-size="11" text-anchor="start" fill="#888" font-style="italic" font-family="Verdana, sans-serif">Event</text>
<path d="M210,115 L210,125 L215,120 Z" fill="#5cb85c" stroke="none" />
<text x="198" y="124" font-size="12" text-anchor="end" font-family="Consolas, monospace">EO_S3</text>
<text x="297" y="123" font-size="11" text-anchor="start" fill="#888" font-style="italic" font-family="Verdana, sans-serif">Event</text>
<path d="M210,141 L210,151 L215,146 Z" fill="#5cb85c" stroke="none" />
<text x="198" y="150" font-size="12" text-anchor="end" font-family="Consolas, monospace">EO_S4</text>
<text x="297" y="149" font-size="11" text-anchor="start" fill="#888" font-style="italic" font-family="Verdana, sans-serif">Event</text>
<path d="M210,167 L210,177 L215,172 Z" fill="#5cb85c" stroke="none" />
<text x="198" y="176" font-size="12" text-anchor="end" font-family="Consolas, monospace">EO_S5</text>
<text x="297" y="175" font-size="11" text-anchor="start" fill="#888" font-style="italic" font-family="Verdana, sans-serif">Event</text>
<path d="M210,193 L210,203 L215,198 Z" fill="#5cb85c" stroke="none" />
<text x="198" y="202" font-size="12" text-anchor="end" font-family="Consolas, monospace">EO_S6</text>
<text x="297" y="201" font-size="11" text-anchor="start" fill="#888" font-style="italic" font-family="Verdana, sans-serif">Event</text>
<path d="M210,219 L210,229 L215,224 Z" fill="#5cb85c" stroke="none" />
<text x="198" y="228" font-size="12" text-anchor="end" font-family="Consolas, monospace">EO_S7</text>
<text x="297" y="227" font-size="11" text-anchor="start" fill="#888" font-style="italic" font-family="Verdana, sans-serif">Event</text>
<path d="M210,245 L210,255 L215,250 Z" fill="#5cb85c" stroke="none" />
<text x="198" y="254" font-size="12" text-anchor="end" font-family="Consolas, monospace">EO_S8</text>
<text x="297" y="253" font-size="11" text-anchor="start" fill="#888" font-style="italic" font-family="Verdana, sans-serif">Event</text>
<path d="M210,271 L210,281 L215,276 Z" fill="#5cb85c" stroke="none" />
<text x="198" y="280" font-size="12" text-anchor="end" font-family="Consolas, monospace">EO_RESET</text>
<text x="297" y="279" font-size="11" text-anchor="start" fill="#888" font-style="italic" font-family="Verdana, sans-serif">Event</text>
<rect x="205.0" y="352.0" width="10" height="10" fill="#985ec9" stroke="none" />
<text x="198" y="361" font-size="12" text-anchor="end" font-family="Consolas, monospace">timeOut</text>
<text x="297" y="360" font-size="11" text-anchor="start" fill="#000" font-style="italic" font-family="Verdana, sans-serif">ATimeOut</text>
<text x="367" y="360" font-size="11" text-anchor="start" fill="#666666" font-family="Verdana, sans-serif">timeOut Adapter</text>
<path d="M210,378 L210,388 L215,383 Z" fill="#0066cc" stroke="none" />
<text x="198" y="387" font-size="12" text-anchor="end" font-family="Consolas, monospace">STATE_NR</text>
<text x="297" y="386" font-size="11" text-anchor="start" fill="#0066cc" font-style="italic" font-family="Verdana, sans-serif">SINT</text>
<text x="367" y="386" font-size="11" text-anchor="start" fill="#666666" font-family="Verdana, sans-serif">State Number, START = 0, State_01 = 1 and so on. </text>
<path d="M210,404 L210,414 L215,409 Z" fill="#0066cc" stroke="none" />
<text x="198" y="413" font-size="12" text-anchor="end" font-family="Consolas, monospace">DO_S1</text>
<text x="297" y="412" font-size="11" text-anchor="start" fill="#0066cc" font-style="italic" font-family="Verdana, sans-serif">BOOL</text>
<text x="367" y="412" font-size="11" text-anchor="start" fill="#666666" font-family="Verdana, sans-serif">Output if State_01 is active</text>
<path d="M210,430 L210,440 L215,435 Z" fill="#0066cc" stroke="none" />
<text x="198" y="439" font-size="12" text-anchor="end" font-family="Consolas, monospace">DO_S2</text>
<text x="297" y="438" font-size="11" text-anchor="start" fill="#0066cc" font-style="italic" font-family="Verdana, sans-serif">BOOL</text>
<text x="367" y="438" font-size="11" text-anchor="start" fill="#666666" font-family="Verdana, sans-serif">Output if State_02 is active</text>
<path d="M210,456 L210,466 L215,461 Z" fill="#0066cc" stroke="none" />
<text x="198" y="465" font-size="12" text-anchor="end" font-family="Consolas, monospace">DO_S3</text>
<text x="297" y="464" font-size="11" text-anchor="start" fill="#0066cc" font-style="italic" font-family="Verdana, sans-serif">BOOL</text>
<text x="367" y="464" font-size="11" text-anchor="start" fill="#666666" font-family="Verdana, sans-serif">Output if State_03 is active</text>
<path d="M210,482 L210,492 L215,487 Z" fill="#0066cc" stroke="none" />
<text x="198" y="491" font-size="12" text-anchor="end" font-family="Consolas, monospace">DO_S4</text>
<text x="297" y="490" font-size="11" text-anchor="start" fill="#0066cc" font-style="italic" font-family="Verdana, sans-serif">BOOL</text>
<text x="367" y="490" font-size="11" text-anchor="start" fill="#666666" font-family="Verdana, sans-serif">Output if State_04 is active</text>
<path d="M210,508 L210,518 L215,513 Z" fill="#0066cc" stroke="none" />
<text x="198" y="517" font-size="12" text-anchor="end" font-family="Consolas, monospace">DO_S5</text>
<text x="297" y="516" font-size="11" text-anchor="start" fill="#0066cc" font-style="italic" font-family="Verdana, sans-serif">BOOL</text>
<text x="367" y="516" font-size="11" text-anchor="start" fill="#666666" font-family="Verdana, sans-serif">Output if State_05 is active</text>
<path d="M210,534 L210,544 L215,539 Z" fill="#0066cc" stroke="none" />
<text x="198" y="543" font-size="12" text-anchor="end" font-family="Consolas, monospace">DO_S6</text>
<text x="297" y="542" font-size="11" text-anchor="start" fill="#0066cc" font-style="italic" font-family="Verdana, sans-serif">BOOL</text>
<text x="367" y="542" font-size="11" text-anchor="start" fill="#666666" font-family="Verdana, sans-serif">Output if State_05 is active</text>
<path d="M210,560 L210,570 L215,565 Z" fill="#0066cc" stroke="none" />
<text x="198" y="569" font-size="12" text-anchor="end" font-family="Consolas, monospace">DO_S7</text>
<text x="297" y="568" font-size="11" text-anchor="start" fill="#0066cc" font-style="italic" font-family="Verdana, sans-serif">BOOL</text>
<text x="367" y="568" font-size="11" text-anchor="start" fill="#666666" font-family="Verdana, sans-serif">Output if State_05 is active</text>
<path d="M210,586 L210,596 L215,591 Z" fill="#0066cc" stroke="none" />
<text x="198" y="595" font-size="12" text-anchor="end" font-family="Consolas, monospace">DO_S8</text>
<text x="297" y="594" font-size="11" text-anchor="start" fill="#0066cc" font-style="italic" font-family="Verdana, sans-serif">BOOL</text>
<text x="367" y="594" font-size="11" text-anchor="start" fill="#666666" font-family="Verdana, sans-serif">Output if State_05 is active</text>
<path d="M-12,42 L-12,513" stroke="#404040" stroke-width="1" />
<path d="M0,42 L-12,42" stroke="#404040" />
<rect x="-14" y="40" width="4" height="4" fill="white" stroke="black" stroke-width="1" />
<path d="M-12,357 L-5,357" stroke="#404040" />
<rect x="-14" y="355" width="4" height="4" fill="white" stroke="black" stroke-width="1" />
<path d="M-12,383 L-5,383" stroke="#404040" />
<rect x="-14" y="381" width="4" height="4" fill="white" stroke="black" stroke-width="1" />
<path d="M-12,409 L-5,409" stroke="#404040" />
<rect x="-14" y="407" width="4" height="4" fill="white" stroke="black" stroke-width="1" />
<path d="M-12,435 L-5,435" stroke="#404040" />
<rect x="-14" y="433" width="4" height="4" fill="white" stroke="black" stroke-width="1" />
<path d="M-12,461 L-5,461" stroke="#404040" />
<rect x="-14" y="459" width="4" height="4" fill="white" stroke="black" stroke-width="1" />
<path d="M-12,487 L-5,487" stroke="#404040" />
<rect x="-14" y="485" width="4" height="4" fill="white" stroke="black" stroke-width="1" />
<path d="M-12,513 L-5,513" stroke="#404040" />
<rect x="-14" y="511" width="4" height="4" fill="white" stroke="black" stroke-width="1" />
<path d="M-20,68 L-20,513" stroke="#404040" stroke-width="1" />
<path d="M0,68 L-20,68" stroke="#404040" />
<rect x="-22" y="66" width="4" height="4" fill="white" stroke="black" stroke-width="1" />
<path d="M-20,357 L-5,357" stroke="#404040" />
<rect x="-22" y="355" width="4" height="4" fill="white" stroke="black" stroke-width="1" />
<path d="M-20,383 L-5,383" stroke="#404040" />
<rect x="-22" y="381" width="4" height="4" fill="white" stroke="black" stroke-width="1" />
<path d="M-20,409 L-5,409" stroke="#404040" />
<rect x="-22" y="407" width="4" height="4" fill="white" stroke="black" stroke-width="1" />
<path d="M-20,435 L-5,435" stroke="#404040" />
<rect x="-22" y="433" width="4" height="4" fill="white" stroke="black" stroke-width="1" />
<path d="M-20,461 L-5,461" stroke="#404040" />
<rect x="-22" y="459" width="4" height="4" fill="white" stroke="black" stroke-width="1" />
<path d="M-20,487 L-5,487" stroke="#404040" />
<rect x="-22" y="485" width="4" height="4" fill="white" stroke="black" stroke-width="1" />
<path d="M-20,513 L-5,513" stroke="#404040" />
<rect x="-22" y="511" width="4" height="4" fill="white" stroke="black" stroke-width="1" />
<path d="M222,42 L222,383" stroke="#404040" stroke-width="1" />
<path d="M210,42 L222,42" stroke="#404040" />
<rect x="220" y="40" width="4" height="4" fill="white" stroke="black" stroke-width="1" />
<path d="M222,383 L215,383" stroke="#404040" />
<rect x="220" y="381" width="4" height="4" fill="white" stroke="black" stroke-width="1" />
<path d="M230,68 L230,409" stroke="#404040" stroke-width="1" />
<path d="M210,68 L230,68" stroke="#404040" />
<rect x="228" y="66" width="4" height="4" fill="white" stroke="black" stroke-width="1" />
<path d="M230,409 L215,409" stroke="#404040" />
<rect x="228" y="407" width="4" height="4" fill="white" stroke="black" stroke-width="1" />
<path d="M238,94 L238,435" stroke="#404040" stroke-width="1" />
<path d="M210,94 L238,94" stroke="#404040" />
<rect x="236" y="92" width="4" height="4" fill="white" stroke="black" stroke-width="1" />
<path d="M238,435 L215,435" stroke="#404040" />
<rect x="236" y="433" width="4" height="4" fill="white" stroke="black" stroke-width="1" />
<path d="M246,120 L246,461" stroke="#404040" stroke-width="1" />
<path d="M210,120 L246,120" stroke="#404040" />
<rect x="244" y="118" width="4" height="4" fill="white" stroke="black" stroke-width="1" />
<path d="M246,461 L215,461" stroke="#404040" />
<rect x="244" y="459" width="4" height="4" fill="white" stroke="black" stroke-width="1" />
<path d="M254,146 L254,487" stroke="#404040" stroke-width="1" />
<path d="M210,146 L254,146" stroke="#404040" />
<rect x="252" y="144" width="4" height="4" fill="white" stroke="black" stroke-width="1" />
<path d="M254,487 L215,487" stroke="#404040" />
<rect x="252" y="485" width="4" height="4" fill="white" stroke="black" stroke-width="1" />
<path d="M262,172 L262,513" stroke="#404040" stroke-width="1" />
<path d="M210,172 L262,172" stroke="#404040" />
<rect x="260" y="170" width="4" height="4" fill="white" stroke="black" stroke-width="1" />
<path d="M262,513 L215,513" stroke="#404040" />
<rect x="260" y="511" width="4" height="4" fill="white" stroke="black" stroke-width="1" />
<path d="M270,198 L270,539" stroke="#404040" stroke-width="1" />
<path d="M210,198 L270,198" stroke="#404040" />
<rect x="268" y="196" width="4" height="4" fill="white" stroke="black" stroke-width="1" />
<path d="M270,539 L215,539" stroke="#404040" />
<rect x="268" y="537" width="4" height="4" fill="white" stroke="black" stroke-width="1" />
<path d="M278,224 L278,565" stroke="#404040" stroke-width="1" />
<path d="M210,224 L278,224" stroke="#404040" />
<rect x="276" y="222" width="4" height="4" fill="white" stroke="black" stroke-width="1" />
<path d="M278,565 L215,565" stroke="#404040" />
<rect x="276" y="563" width="4" height="4" fill="white" stroke="black" stroke-width="1" />
<path d="M286,250 L286,591" stroke="#404040" stroke-width="1" />
<path d="M210,250 L286,250" stroke="#404040" />
<rect x="284" y="248" width="4" height="4" fill="white" stroke="black" stroke-width="1" />
<path d="M286,591 L215,591" stroke="#404040" />
<rect x="284" y="589" width="4" height="4" fill="white" stroke="black" stroke-width="1" />
</svg>