<?xml version="1.0" encoding="UTF-8"?>
<svg xmlns="http://www.w3.org/2000/svg" xmlns:xlink="http://www.w3.org/1999/xlink"
     width="1048" height="197" viewBox="-540 -20 1048 197">
<defs>
</defs>
<rect x="3" y="3" width="210" height="147" fill="#000000" fill-opacity="0.1" rx="2" ry="2" />
<path d="M0,0 H210 V66 H204 V106 H210 V147 H0 V106 H6 V66 H0 Z" fill="#ffffff" stroke="#606060" stroke-width="2" />
<path d="M0,30 L210,30" stroke="#606060" stroke-width="1" />
<text x="105.0" y="84.0" font-size="14" fontWeight="bold" font-family="Verdana, sans-serif" font-style="italic" text-anchor="middle" dominant-baseline="central">AUDI_UDI_TO_UDINT</text>
<text x="105.0" y="98.0" font-size="10" fill="#000" font-family="Consolas, monospace" text-anchor="middle" dominant-baseline="central">1.0</text>
<rect x="-5.0" y="118.0" width="10" height="10" fill="white" stroke="#985ec9" stroke-width="2.5" />
<text x="12" y="127" font-size="12" text-anchor="start" font-family="Consolas, monospace">AUDI_IN</text>
<text x="-15" y="126" font-size="11" text-anchor="end" fill="#000" font-style="italic" font-family="Verdana, sans-serif">AUDI</text>
<text x="-85" y="126" font-size="11" text-anchor="end" fill="#666666" font-family="Verdana, sans-serif">Adapter Input</text>
<path d="M210,37 L210,47 L215,42 Z" fill="#5cb85c" stroke="none" />
<text x="198" y="46" font-size="12" text-anchor="end" font-family="Consolas, monospace">CNF</text>
<text x="233" y="45" font-size="11" text-anchor="start" fill="#888" font-style="italic" font-family="Verdana, sans-serif">Event</text>
<text x="303" y="45" font-size="11" text-anchor="start" fill="#666666" font-family="Verdana, sans-serif">Confirmation from Adapter</text>
<path d="M210,118 L210,128 L215,123 Z" fill="#0066cc" stroke="none" />
<text x="198" y="127" font-size="12" text-anchor="end" font-family="Consolas, monospace">IN</text>
<text x="233" y="126" font-size="11" text-anchor="start" fill="#0066cc" font-style="italic" font-family="Verdana, sans-serif">UDINT</text>
<text x="303" y="126" font-size="11" text-anchor="start" fill="#666666" font-family="Verdana, sans-serif">Input data from Adapter</text>
<path d="M222,42 L222,123" stroke="#404040" stroke-width="1" />
<path d="M210,42 L222,42" stroke="#404040" />
<rect x="220" y="40" width="4" height="4" fill="white" stroke="black" stroke-width="1" />
<path d="M222,123 L215,123" stroke="#404040" />
<rect x="220" y="121" width="4" height="4" fill="white" stroke="black" stroke-width="1" />
</svg>