<?xml version="1.0" encoding="UTF-8"?>
<svg xmlns="http://www.w3.org/2000/svg" xmlns:xlink="http://www.w3.org/1999/xlink"
     width="1096" height="249" viewBox="-548 -20 1096 249">
<defs>
</defs>
<rect x="3" y="3" width="250" height="199" fill="#000000" fill-opacity="0.1" rx="2" ry="2" />
<path d="M0,0 H250 V66 H244 V106 H250 V199 H0 V106 H6 V66 H0 Z" fill="#ffffff" stroke="#606060" stroke-width="2" />
<path d="M0,30 L250,30" stroke="#606060" stroke-width="1" />
<text x="125.0" y="84.0" font-size="14" fontWeight="bold" font-family="Verdana, sans-serif" font-style="italic" text-anchor="middle" dominant-baseline="central">SET_LOCAL_ADS_ADDRESS</text>
<text x="125.0" y="98.0" font-size="10" fill="#000" font-family="Consolas, monospace" text-anchor="middle" dominant-baseline="central">1.0</text>
<path d="M-5,37 L-5,47 L0,42 Z" fill="#5cb85c" stroke="none" />
<text x="12" y="46" font-size="12" text-anchor="start" font-family="Consolas, monospace">INIT</text>
<text x="-23" y="45" font-size="11" text-anchor="end" fill="#888" font-style="italic" font-family="Verdana, sans-serif">Event</text>
<text x="-93" y="45" font-size="11" text-anchor="end" fill="#666666" font-family="Verdana, sans-serif">Service Initialization</text>
<path d="M-5,118 L-5,128 L0,123 Z" fill="#0066cc" stroke="none" />
<text x="12" y="127" font-size="12" text-anchor="start" font-family="Consolas, monospace">QI</text>
<text x="-23" y="126" font-size="11" text-anchor="end" fill="#0066cc" font-style="italic" font-family="Verdana, sans-serif">BOOL</text>
<text x="-93" y="126" font-size="11" text-anchor="end" fill="#666666" font-family="Verdana, sans-serif">Event Input Qualifier</text>
<path d="M-5,144 L-5,154 L0,149 Z" fill="#0066cc" stroke="none" />
<text x="12" y="153" font-size="12" text-anchor="start" font-family="Consolas, monospace">PARAMS</text>
<text x="-23" y="152" font-size="11" text-anchor="end" fill="#0066cc" font-style="italic" font-family="Verdana, sans-serif">STRING</text>
<text x="-93" y="152" font-size="11" text-anchor="end" fill="#666666" font-family="Verdana, sans-serif">Local ADS address to set</text>
<path d="M250,37 L250,47 L255,42 Z" fill="#5cb85c" stroke="none" />
<text x="238" y="46" font-size="12" text-anchor="end" font-family="Consolas, monospace">INITO</text>
<text x="273" y="45" font-size="11" text-anchor="start" fill="#888" font-style="italic" font-family="Verdana, sans-serif">Event</text>
<text x="343" y="45" font-size="11" text-anchor="start" fill="#666666" font-family="Verdana, sans-serif">Initialization Confirm</text>
<path d="M250,118 L250,128 L255,123 Z" fill="#0066cc" stroke="none" />
<text x="238" y="127" font-size="12" text-anchor="end" font-family="Consolas, monospace">QO</text>
<text x="273" y="126" font-size="11" text-anchor="start" fill="#0066cc" font-style="italic" font-family="Verdana, sans-serif">BOOL</text>
<text x="343" y="126" font-size="11" text-anchor="start" fill="#666666" font-family="Verdana, sans-serif">Event Output Qualifier</text>
<path d="M250,144 L250,154 L255,149 Z" fill="#0066cc" stroke="none" />
<text x="238" y="153" font-size="12" text-anchor="end" font-family="Consolas, monospace">STATUS</text>
<text x="273" y="152" font-size="11" text-anchor="start" fill="#0066cc" font-style="italic" font-family="Verdana, sans-serif">WSTRING</text>
<text x="343" y="152" font-size="11" text-anchor="start" fill="#666666" font-family="Verdana, sans-serif">Service Status</text>
<path d="M250,170 L250,180 L255,175 Z" fill="#0066cc" stroke="none" />
<text x="238" y="179" font-size="12" text-anchor="end" font-family="Consolas, monospace">LOCAL_ADS_ADDRESS</text>
<text x="273" y="178" font-size="11" text-anchor="start" fill="#0066cc" font-style="italic" font-family="Verdana, sans-serif">STRING</text>
<text x="343" y="178" font-size="11" text-anchor="start" fill="#666666" font-family="Verdana, sans-serif">Resulting ADS address</text>
<path d="M-12,42 L-12,123" stroke="#404040" stroke-width="1" />
<path d="M0,42 L-12,42" stroke="#404040" />
<rect x="-14" y="40" width="4" height="4" fill="white" stroke="black" stroke-width="1" />
<path d="M-12,123 L-5,123" stroke="#404040" />
<rect x="-14" y="121" width="4" height="4" fill="white" stroke="black" stroke-width="1" />
<path d="M262,42 L262,175" stroke="#404040" stroke-width="1" />
<path d="M250,42 L262,42" stroke="#404040" />
<rect x="260" y="40" width="4" height="4" fill="white" stroke="black" stroke-width="1" />
<path d="M262,123 L255,123" stroke="#404040" />
<rect x="260" y="121" width="4" height="4" fill="white" stroke="black" stroke-width="1" />
<path d="M262,149 L255,149" stroke="#404040" />
<rect x="260" y="147" width="4" height="4" fill="white" stroke="black" stroke-width="1" />
<path d="M262,175 L255,175" stroke="#404040" />
<rect x="260" y="173" width="4" height="4" fill="white" stroke="black" stroke-width="1" />
</svg>