<?xml version="1.0" encoding="UTF-8"?>
<svg xmlns="http://www.w3.org/2000/svg" xmlns:xlink="http://www.w3.org/1999/xlink"
     width="1030" height="405" viewBox="-548 -20 1030 405">
<defs>
</defs>
<rect x="3" y="3" width="160" height="355" fill="#000000" fill-opacity="0.1" rx="2" ry="2" />
<path d="M0,0 H160 V170 H154 V210 H160 V355 H0 V210 H6 V170 H0 Z" fill="#ffffff" stroke="#606060" stroke-width="2" />
<path d="M0,30 L160,30" stroke="#606060" stroke-width="1" />
<text x="80.0" y="188.0" font-size="14" fontWeight="bold" font-family="Verdana, sans-serif" font-style="italic" text-anchor="middle" dominant-baseline="central">AlPgnRxNew8B</text>
<text x="80.0" y="202.0" font-size="10" fill="#000" font-family="Consolas, monospace" text-anchor="middle" dominant-baseline="central">1.0</text>
<path d="M-5,37 L-5,47 L0,42 Z" fill="#5cb85c" stroke="none" />
<text x="12" y="46" font-size="12" text-anchor="start" font-family="Consolas, monospace">INIT</text>
<text x="-23" y="45" font-size="11" text-anchor="end" fill="#888" font-style="italic" font-family="Verdana, sans-serif">Event</text>
<text x="-93" y="45" font-size="11" text-anchor="end" fill="#666666" font-family="Verdana, sans-serif">Service Initialization</text>
<path d="M-5,63 L-5,73 L0,68 Z" fill="#5cb85c" stroke="none" />
<text x="12" y="72" font-size="12" text-anchor="start" font-family="Consolas, monospace">install</text>
<text x="-23" y="71" font-size="11" text-anchor="end" fill="#888" font-style="italic" font-family="Verdana, sans-serif">Event</text>
<text x="-93" y="71" font-size="11" text-anchor="end" fill="#666666" font-family="Verdana, sans-serif">installs a Transmit PGN (TX) </text>
<path d="M-5,222 L-5,232 L0,227 Z" fill="#0066cc" stroke="none" />
<text x="12" y="231" font-size="12" text-anchor="start" font-family="Consolas, monospace">u32Pgn</text>
<text x="-23" y="230" font-size="11" text-anchor="end" fill="#0066cc" font-style="italic" font-family="Verdana, sans-serif">UDINT</text>
<text x="-93" y="230" font-size="11" text-anchor="end" fill="#666666" font-family="Verdana, sans-serif">PGN - Range: 0 - 0x3FFFF </text>
<path d="M-5,248 L-5,258 L0,253 Z" fill="#0066cc" stroke="none" />
<text x="12" y="257" font-size="12" text-anchor="start" font-family="Consolas, monospace">NmSource</text>
<text x="-23" y="256" font-size="11" text-anchor="end" fill="#0066cc" font-style="italic" font-family="Verdana, sans-serif">ISONETEVENT_T</text>
<text x="-93" y="256" font-size="11" text-anchor="end" fill="#666666" font-family="Verdana, sans-serif">Define the Communication Partner</text>
<path d="M-5,274 L-5,284 L0,279 Z" fill="#0066cc" stroke="none" />
<text x="12" y="283" font-size="12" text-anchor="start" font-family="Consolas, monospace">u16DaSize</text>
<text x="-23" y="282" font-size="11" text-anchor="end" fill="#0066cc" font-style="italic" font-family="Verdana, sans-serif">UINT</text>
<text x="-93" y="282" font-size="11" text-anchor="end" fill="#666666" font-family="Verdana, sans-serif">Data length of this PGN (0..8)</text>
<path d="M-5,300 L-5,310 L0,305 Z" fill="#0066cc" stroke="none" />
<text x="12" y="309" font-size="12" text-anchor="start" font-family="Consolas, monospace">u8Priority</text>
<text x="-23" y="308" font-size="11" text-anchor="end" fill="#0066cc" font-style="italic" font-family="Verdana, sans-serif">USINT</text>
<text x="-123" y="308" font-size="11" text-anchor="end" fill="#666666" font-family="Verdana, sans-serif">Default priority of this PGN (0..7) 0=highest</text>
<path d="M160,37 L160,47 L165,42 Z" fill="#5cb85c" stroke="none" />
<text x="148" y="46" font-size="12" text-anchor="end" font-family="Consolas, monospace">INITO</text>
<text x="207" y="45" font-size="11" text-anchor="start" fill="#888" font-style="italic" font-family="Verdana, sans-serif">Event</text>
<text x="277" y="45" font-size="11" text-anchor="start" fill="#666666" font-family="Verdana, sans-serif">Initialization Confirm</text>
<path d="M160,63 L160,73 L165,68 Z" fill="#5cb85c" stroke="none" />
<text x="148" y="72" font-size="12" text-anchor="end" font-family="Consolas, monospace">installO</text>
<text x="207" y="71" font-size="11" text-anchor="start" fill="#888" font-style="italic" font-family="Verdana, sans-serif">Event</text>
<text x="277" y="71" font-size="11" text-anchor="start" fill="#666666" font-family="Verdana, sans-serif">install Done</text>
<path d="M160,89 L160,99 L165,94 Z" fill="#5cb85c" stroke="none" />
<text x="148" y="98" font-size="12" text-anchor="end" font-family="Consolas, monospace">IND</text>
<text x="207" y="97" font-size="11" text-anchor="start" fill="#888" font-style="italic" font-family="Verdana, sans-serif">Event</text>
<text x="277" y="97" font-size="11" text-anchor="start" fill="#666666" font-family="Verdana, sans-serif">Data was received</text>
<path d="M160,115 L160,125 L165,120 Z" fill="#5cb85c" stroke="none" />
<text x="148" y="124" font-size="12" text-anchor="end" font-family="Consolas, monospace">dataERR</text>
<text x="207" y="123" font-size="11" text-anchor="start" fill="#888" font-style="italic" font-family="Verdana, sans-serif">Event</text>
<path d="M160,141 L160,151 L165,146 Z" fill="#5cb85c" stroke="none" />
<text x="148" y="150" font-size="12" text-anchor="end" font-family="Consolas, monospace">pgnERR</text>
<text x="207" y="149" font-size="11" text-anchor="start" fill="#888" font-style="italic" font-family="Verdana, sans-serif">Event</text>
<path d="M160,222 L160,232 L165,227 Z" fill="#0066cc" stroke="none" />
<text x="148" y="231" font-size="12" text-anchor="end" font-family="Consolas, monospace">PGN_handle</text>
<text x="207" y="230" font-size="11" text-anchor="start" fill="#0066cc" font-style="italic" font-family="Verdana, sans-serif">INT</text>
<text x="277" y="230" font-size="11" text-anchor="start" fill="#666666" font-family="Verdana, sans-serif">PGN-handle on success, HANDLE_UNVALID in case of an error </text>
<path d="M160,248 L160,258 L165,253 Z" fill="#0066cc" stroke="none" />
<text x="148" y="257" font-size="12" text-anchor="end" font-family="Consolas, monospace">dataERRC</text>
<text x="207" y="256" font-size="11" text-anchor="start" fill="#0066cc" font-style="italic" font-family="Verdana, sans-serif">INT</text>
<text x="277" y="256" font-size="11" text-anchor="start" fill="#666666" font-family="Verdana, sans-serif">dataERR error Code</text>
<path d="M160,274 L160,284 L165,279 Z" fill="#0066cc" stroke="none" />
<text x="148" y="283" font-size="12" text-anchor="end" font-family="Consolas, monospace">pgnERRC</text>
<text x="207" y="282" font-size="11" text-anchor="start" fill="#0066cc" font-style="italic" font-family="Verdana, sans-serif">INT</text>
<text x="277" y="282" font-size="11" text-anchor="start" fill="#666666" font-family="Verdana, sans-serif">pgnERR error Code</text>
<path d="M160,300 L160,310 L165,305 Z" fill="#0066cc" stroke="none" />
<text x="148" y="309" font-size="12" text-anchor="end" font-family="Consolas, monospace">s32TimeStamp</text>
<text x="207" y="308" font-size="11" text-anchor="start" fill="#0066cc" font-style="italic" font-family="Verdana, sans-serif">DINT</text>
<text x="277" y="308" font-size="11" text-anchor="start" fill="#666666" font-family="Verdana, sans-serif">Time stamp of the message in ms</text>
<path d="M160,326 L160,336 L165,331 Z" fill="#0066cc" stroke="none" />
<text x="148" y="335" font-size="12" text-anchor="end" font-family="Consolas, monospace">Data</text>
<text x="207" y="334" font-size="11" text-anchor="start" fill="#0066cc" font-style="italic" font-family="Verdana, sans-serif">CAN_MSG</text>
<text x="277" y="334" font-size="11" text-anchor="start" fill="#666666" font-family="Verdana, sans-serif">data buffer</text>
<path d="M-12,68 L-12,305" stroke="#404040" stroke-width="1" />
<path d="M0,68 L-12,68" stroke="#404040" />
<rect x="-14" y="66" width="4" height="4" fill="white" stroke="black" stroke-width="1" />
<path d="M-12,227 L-5,227" stroke="#404040" />
<rect x="-14" y="225" width="4" height="4" fill="white" stroke="black" stroke-width="1" />
<path d="M-12,253 L-5,253" stroke="#404040" />
<rect x="-14" y="251" width="4" height="4" fill="white" stroke="black" stroke-width="1" />
<path d="M-12,279 L-5,279" stroke="#404040" />
<rect x="-14" y="277" width="4" height="4" fill="white" stroke="black" stroke-width="1" />
<path d="M-12,305 L-5,305" stroke="#404040" />
<rect x="-14" y="303" width="4" height="4" fill="white" stroke="black" stroke-width="1" />
<path d="M172,68 L172,227" stroke="#404040" stroke-width="1" />
<path d="M160,68 L172,68" stroke="#404040" />
<rect x="170" y="66" width="4" height="4" fill="white" stroke="black" stroke-width="1" />
<path d="M172,227 L165,227" stroke="#404040" />
<rect x="170" y="225" width="4" height="4" fill="white" stroke="black" stroke-width="1" />
<path d="M180,94 L180,331" stroke="#404040" stroke-width="1" />
<path d="M160,94 L180,94" stroke="#404040" />
<rect x="178" y="92" width="4" height="4" fill="white" stroke="black" stroke-width="1" />
<path d="M180,305 L165,305" stroke="#404040" />
<rect x="178" y="303" width="4" height="4" fill="white" stroke="black" stroke-width="1" />
<path d="M180,331 L165,331" stroke="#404040" />
<rect x="178" y="329" width="4" height="4" fill="white" stroke="black" stroke-width="1" />
<path d="M188,120 L188,253" stroke="#404040" stroke-width="1" />
<path d="M160,120 L188,120" stroke="#404040" />
<rect x="186" y="118" width="4" height="4" fill="white" stroke="black" stroke-width="1" />
<path d="M188,253 L165,253" stroke="#404040" />
<rect x="186" y="251" width="4" height="4" fill="white" stroke="black" stroke-width="1" />
<path d="M196,146 L196,279" stroke="#404040" stroke-width="1" />
<path d="M160,146 L196,146" stroke="#404040" />
<rect x="194" y="144" width="4" height="4" fill="white" stroke="black" stroke-width="1" />
<path d="M196,279 L165,279" stroke="#404040" />
<rect x="194" y="277" width="4" height="4" fill="white" stroke="black" stroke-width="1" />
</svg>