<?xml version="1.0" encoding="UTF-8"?>
<svg xmlns="http://www.w3.org/2000/svg" xmlns:xlink="http://www.w3.org/1999/xlink"
     width="1118" height="483" viewBox="-548 -20 1118 483">
<defs>
</defs>
<rect x="3" y="3" width="240" height="433" fill="#000000" fill-opacity="0.1" rx="2" ry="2" />
<path d="M0,0 H240 V196 H234 V236 H240 V433 H0 V236 H6 V196 H0 Z" fill="#ffffff" stroke="#606060" stroke-width="2" />
<path d="M0,30 L240,30" stroke="#606060" stroke-width="1" />
<text x="120.0" y="214.0" font-size="14" fontWeight="bold" font-family="Verdana, sans-serif" font-style="italic" text-anchor="middle" dominant-baseline="central">AlPgnRxNew8Bcylc_REQ</text>
<text x="120.0" y="228.0" font-size="10" fill="#000" font-family="Consolas, monospace" text-anchor="middle" dominant-baseline="central">1.0</text>
<path d="M-5,37 L-5,47 L0,42 Z" fill="#5cb85c" stroke="none" />
<text x="12" y="46" font-size="12" text-anchor="start" font-family="Consolas, monospace">INIT</text>
<text x="-23" y="45" font-size="11" text-anchor="end" fill="#888" font-style="italic" font-family="Verdana, sans-serif">Event</text>
<text x="-93" y="45" font-size="11" text-anchor="end" fill="#666666" font-family="Verdana, sans-serif">Service Initialization</text>
<path d="M-5,63 L-5,73 L0,68 Z" fill="#5cb85c" stroke="none" />
<text x="12" y="72" font-size="12" text-anchor="start" font-family="Consolas, monospace">install</text>
<text x="-23" y="71" font-size="11" text-anchor="end" fill="#888" font-style="italic" font-family="Verdana, sans-serif">Event</text>
<text x="-93" y="71" font-size="11" text-anchor="end" fill="#666666" font-family="Verdana, sans-serif">installs a Transmit PGN (TX) </text>
<path d="M-5,248 L-5,258 L0,253 Z" fill="#0066cc" stroke="none" />
<text x="12" y="257" font-size="12" text-anchor="start" font-family="Consolas, monospace">u32Pgn</text>
<text x="-23" y="256" font-size="11" text-anchor="end" fill="#0066cc" font-style="italic" font-family="Verdana, sans-serif">UDINT</text>
<text x="-93" y="256" font-size="11" text-anchor="end" fill="#666666" font-family="Verdana, sans-serif">PGN - Range: 0 - 0x3FFFF </text>
<path d="M-5,274 L-5,284 L0,279 Z" fill="#0066cc" stroke="none" />
<text x="12" y="283" font-size="12" text-anchor="start" font-family="Consolas, monospace">NmSource</text>
<text x="-23" y="282" font-size="11" text-anchor="end" fill="#0066cc" font-style="italic" font-family="Verdana, sans-serif">ISONETEVENT_T</text>
<text x="-93" y="282" font-size="11" text-anchor="end" fill="#666666" font-family="Verdana, sans-serif">Define the Communication Partner</text>
<path d="M-5,300 L-5,310 L0,305 Z" fill="#0066cc" stroke="none" />
<text x="12" y="309" font-size="12" text-anchor="start" font-family="Consolas, monospace">u16DaSize</text>
<text x="-23" y="308" font-size="11" text-anchor="end" fill="#0066cc" font-style="italic" font-family="Verdana, sans-serif">UINT</text>
<text x="-93" y="308" font-size="11" text-anchor="end" fill="#666666" font-family="Verdana, sans-serif">Data length of this PGN (0..8)</text>
<path d="M-5,326 L-5,336 L0,331 Z" fill="#0066cc" stroke="none" />
<text x="12" y="335" font-size="12" text-anchor="start" font-family="Consolas, monospace">u8Priority</text>
<text x="-23" y="334" font-size="11" text-anchor="end" fill="#0066cc" font-style="italic" font-family="Verdana, sans-serif">USINT</text>
<text x="-123" y="334" font-size="11" text-anchor="end" fill="#666666" font-family="Verdana, sans-serif">Default priority of this PGN (0..7) 0=highest</text>
<path d="M-5,352 L-5,362 L0,357 Z" fill="#0066cc" stroke="none" />
<text x="12" y="361" font-size="12" text-anchor="start" font-family="Consolas, monospace">u16DefRepRate</text>
<text x="-23" y="360" font-size="11" text-anchor="end" fill="#0066cc" font-style="italic" font-family="Verdana, sans-serif">UINT</text>
<text x="-133" y="360" font-size="11" text-anchor="end" fill="#666666" font-family="Verdana, sans-serif">0 ... 0xFDFF ms for time interval of cyclic transmission</text>
<path d="M-5,378 L-5,388 L0,383 Z" fill="#0066cc" stroke="none" />
<text x="12" y="387" font-size="12" text-anchor="start" font-family="Consolas, monospace">u16CtrlTime</text>
<text x="-23" y="386" font-size="11" text-anchor="end" fill="#0066cc" font-style="italic" font-family="Verdana, sans-serif">UINT</text>
<text x="-93" y="386" font-size="11" text-anchor="end" fill="#666666" font-family="Verdana, sans-serif">0 ... 0xFDFF ms Control time of a receive PGN</text>
<path d="M240,37 L240,47 L245,42 Z" fill="#5cb85c" stroke="none" />
<text x="228" y="46" font-size="12" text-anchor="end" font-family="Consolas, monospace">INITO</text>
<text x="295" y="45" font-size="11" text-anchor="start" fill="#888" font-style="italic" font-family="Verdana, sans-serif">Event</text>
<text x="365" y="45" font-size="11" text-anchor="start" fill="#666666" font-family="Verdana, sans-serif">Initialization Confirm</text>
<path d="M240,63 L240,73 L245,68 Z" fill="#5cb85c" stroke="none" />
<text x="228" y="72" font-size="12" text-anchor="end" font-family="Consolas, monospace">installO</text>
<text x="295" y="71" font-size="11" text-anchor="start" fill="#888" font-style="italic" font-family="Verdana, sans-serif">Event</text>
<text x="365" y="71" font-size="11" text-anchor="start" fill="#666666" font-family="Verdana, sans-serif">install Done</text>
<path d="M240,89 L240,99 L245,94 Z" fill="#5cb85c" stroke="none" />
<text x="228" y="98" font-size="12" text-anchor="end" font-family="Consolas, monospace">IND</text>
<text x="295" y="97" font-size="11" text-anchor="start" fill="#888" font-style="italic" font-family="Verdana, sans-serif">Event</text>
<text x="365" y="97" font-size="11" text-anchor="start" fill="#666666" font-family="Verdana, sans-serif">Data was received</text>
<path d="M240,115 L240,125 L245,120 Z" fill="#5cb85c" stroke="none" />
<text x="228" y="124" font-size="12" text-anchor="end" font-family="Consolas, monospace">TIMEOUT</text>
<text x="295" y="123" font-size="11" text-anchor="start" fill="#888" font-style="italic" font-family="Verdana, sans-serif">Event</text>
<path d="M240,141 L240,151 L245,146 Z" fill="#5cb85c" stroke="none" />
<text x="228" y="150" font-size="12" text-anchor="end" font-family="Consolas, monospace">dataERR</text>
<text x="295" y="149" font-size="11" text-anchor="start" fill="#888" font-style="italic" font-family="Verdana, sans-serif">Event</text>
<path d="M240,167 L240,177 L245,172 Z" fill="#5cb85c" stroke="none" />
<text x="228" y="176" font-size="12" text-anchor="end" font-family="Consolas, monospace">pgnERR</text>
<text x="295" y="175" font-size="11" text-anchor="start" fill="#888" font-style="italic" font-family="Verdana, sans-serif">Event</text>
<path d="M240,248 L240,258 L245,253 Z" fill="#0066cc" stroke="none" />
<text x="228" y="257" font-size="12" text-anchor="end" font-family="Consolas, monospace">PGN_handle</text>
<text x="295" y="256" font-size="11" text-anchor="start" fill="#0066cc" font-style="italic" font-family="Verdana, sans-serif">INT</text>
<text x="365" y="256" font-size="11" text-anchor="start" fill="#666666" font-family="Verdana, sans-serif">PGN-handle on success, HANDLE_UNVALID in case of an error </text>
<path d="M240,274 L240,284 L245,279 Z" fill="#0066cc" stroke="none" />
<text x="228" y="283" font-size="12" text-anchor="end" font-family="Consolas, monospace">dataERRC</text>
<text x="295" y="282" font-size="11" text-anchor="start" fill="#0066cc" font-style="italic" font-family="Verdana, sans-serif">INT</text>
<text x="365" y="282" font-size="11" text-anchor="start" fill="#666666" font-family="Verdana, sans-serif">dataERR error Code</text>
<path d="M240,300 L240,310 L245,305 Z" fill="#0066cc" stroke="none" />
<text x="228" y="309" font-size="12" text-anchor="end" font-family="Consolas, monospace">pgnERRC</text>
<text x="295" y="308" font-size="11" text-anchor="start" fill="#0066cc" font-style="italic" font-family="Verdana, sans-serif">INT</text>
<text x="365" y="308" font-size="11" text-anchor="start" fill="#666666" font-family="Verdana, sans-serif">pgnERR error Code</text>
<path d="M240,326 L240,336 L245,331 Z" fill="#0066cc" stroke="none" />
<text x="228" y="335" font-size="12" text-anchor="end" font-family="Consolas, monospace">bTimeout</text>
<text x="295" y="334" font-size="11" text-anchor="start" fill="#0066cc" font-style="italic" font-family="Verdana, sans-serif">BOOL</text>
<text x="365" y="334" font-size="11" text-anchor="start" fill="#666666" font-family="Verdana, sans-serif">Timeout occured TRUE = Timeout, FALSE = no Timeout</text>
<path d="M240,352 L240,362 L245,357 Z" fill="#0066cc" stroke="none" />
<text x="228" y="361" font-size="12" text-anchor="end" font-family="Consolas, monospace">s32TimeStamp_timeout</text>
<text x="295" y="360" font-size="11" text-anchor="start" fill="#0066cc" font-style="italic" font-family="Verdana, sans-serif">DINT</text>
<text x="365" y="360" font-size="11" text-anchor="start" fill="#666666" font-family="Verdana, sans-serif">Time stamp of the Timeout in ms</text>
<path d="M240,378 L240,388 L245,383 Z" fill="#0066cc" stroke="none" />
<text x="228" y="387" font-size="12" text-anchor="end" font-family="Consolas, monospace">s32TimeStamp</text>
<text x="295" y="386" font-size="11" text-anchor="start" fill="#0066cc" font-style="italic" font-family="Verdana, sans-serif">DINT</text>
<text x="365" y="386" font-size="11" text-anchor="start" fill="#666666" font-family="Verdana, sans-serif">Time stamp of the message in ms</text>
<path d="M240,404 L240,414 L245,409 Z" fill="#0066cc" stroke="none" />
<text x="228" y="413" font-size="12" text-anchor="end" font-family="Consolas, monospace">Data</text>
<text x="295" y="412" font-size="11" text-anchor="start" fill="#0066cc" font-style="italic" font-family="Verdana, sans-serif">CAN_MSG</text>
<text x="365" y="412" font-size="11" text-anchor="start" fill="#666666" font-family="Verdana, sans-serif">data buffer</text>
<path d="M-12,68 L-12,383" stroke="#404040" stroke-width="1" />
<path d="M0,68 L-12,68" stroke="#404040" />
<rect x="-14" y="66" width="4" height="4" fill="white" stroke="black" stroke-width="1" />
<path d="M-12,253 L-5,253" stroke="#404040" />
<rect x="-14" y="251" width="4" height="4" fill="white" stroke="black" stroke-width="1" />
<path d="M-12,279 L-5,279" stroke="#404040" />
<rect x="-14" y="277" width="4" height="4" fill="white" stroke="black" stroke-width="1" />
<path d="M-12,305 L-5,305" stroke="#404040" />
<rect x="-14" y="303" width="4" height="4" fill="white" stroke="black" stroke-width="1" />
<path d="M-12,331 L-5,331" stroke="#404040" />
<rect x="-14" y="329" width="4" height="4" fill="white" stroke="black" stroke-width="1" />
<path d="M-12,357 L-5,357" stroke="#404040" />
<rect x="-14" y="355" width="4" height="4" fill="white" stroke="black" stroke-width="1" />
<path d="M-12,383 L-5,383" stroke="#404040" />
<rect x="-14" y="381" width="4" height="4" fill="white" stroke="black" stroke-width="1" />
<path d="M252,68 L252,253" stroke="#404040" stroke-width="1" />
<path d="M240,68 L252,68" stroke="#404040" />
<rect x="250" y="66" width="4" height="4" fill="white" stroke="black" stroke-width="1" />
<path d="M252,253 L245,253" stroke="#404040" />
<rect x="250" y="251" width="4" height="4" fill="white" stroke="black" stroke-width="1" />
<path d="M260,94 L260,409" stroke="#404040" stroke-width="1" />
<path d="M240,94 L260,94" stroke="#404040" />
<rect x="258" y="92" width="4" height="4" fill="white" stroke="black" stroke-width="1" />
<path d="M260,331 L245,331" stroke="#404040" />
<rect x="258" y="329" width="4" height="4" fill="white" stroke="black" stroke-width="1" />
<path d="M260,383 L245,383" stroke="#404040" />
<rect x="258" y="381" width="4" height="4" fill="white" stroke="black" stroke-width="1" />
<path d="M260,409 L245,409" stroke="#404040" />
<rect x="258" y="407" width="4" height="4" fill="white" stroke="black" stroke-width="1" />
<path d="M268,120 L268,357" stroke="#404040" stroke-width="1" />
<path d="M240,120 L268,120" stroke="#404040" />
<rect x="266" y="118" width="4" height="4" fill="white" stroke="black" stroke-width="1" />
<path d="M268,331 L245,331" stroke="#404040" />
<rect x="266" y="329" width="4" height="4" fill="white" stroke="black" stroke-width="1" />
<path d="M268,357 L245,357" stroke="#404040" />
<rect x="266" y="355" width="4" height="4" fill="white" stroke="black" stroke-width="1" />
<path d="M276,146 L276,279" stroke="#404040" stroke-width="1" />
<path d="M240,146 L276,146" stroke="#404040" />
<rect x="274" y="144" width="4" height="4" fill="white" stroke="black" stroke-width="1" />
<path d="M276,279 L245,279" stroke="#404040" />
<rect x="274" y="277" width="4" height="4" fill="white" stroke="black" stroke-width="1" />
<path d="M284,172 L284,305" stroke="#404040" stroke-width="1" />
<path d="M240,172 L284,172" stroke="#404040" />
<rect x="282" y="170" width="4" height="4" fill="white" stroke="black" stroke-width="1" />
<path d="M284,305 L245,305" stroke="#404040" />
<rect x="282" y="303" width="4" height="4" fill="white" stroke="black" stroke-width="1" />
</svg>