<?xml version="1.0" encoding="UTF-8"?>
<svg xmlns="http://www.w3.org/2000/svg" xmlns:xlink="http://www.w3.org/1999/xlink"
     width="1360" height="379" viewBox="-556 -20 1360 379">
<defs>
</defs>
<rect x="3" y="3" width="240" height="329" fill="#000000" fill-opacity="0.1" rx="2" ry="2" />
<path d="M0,0 H240 V118 H234 V158 H240 V329 H0 V158 H6 V118 H0 Z" fill="#ffffff" stroke="#000000" stroke-width="2" />
<path d="M0,30 L240,30" stroke="#000000" stroke-width="1" />
<text x="120.0" y="136.0" font-size="14" fontWeight="bold" font-family="Verdana, sans-serif" font-style="italic" text-anchor="middle" dominant-baseline="central">DataPanel_MI_IW_FREQ</text>
<text x="120.0" y="150.0" font-size="10" fill="#000" font-family="Consolas, monospace" text-anchor="middle" dominant-baseline="central">1.0</text>
<path d="M-5,37 L-5,47 L0,42 Z" fill="#63B31F" stroke="none" />
<text x="12" y="46" font-size="12" text-anchor="start" font-family="Consolas, monospace">INIT</text>
<text x="-31" y="45" font-size="11" text-anchor="end" fill="#888" font-style="italic" font-family="Verdana, sans-serif">Event</text>
<text x="-157" y="45" font-size="11" text-anchor="end" fill="#666666" font-family="Verdana, sans-serif">Service Initialization</text>
<path d="M-5,63 L-5,73 L0,68 Z" fill="#63B31F" stroke="none" />
<text x="12" y="72" font-size="12" text-anchor="start" font-family="Consolas, monospace">REQ</text>
<text x="-31" y="71" font-size="11" text-anchor="end" fill="#888" font-style="italic" font-family="Verdana, sans-serif">Event</text>
<text x="-157" y="71" font-size="11" text-anchor="end" fill="#666666" font-family="Verdana, sans-serif">Service Request</text>
<path d="M-5,170 L-5,180 L0,175 Z" fill="#9FA48A" stroke="none" />
<text x="12" y="179" font-size="12" text-anchor="start" font-family="Consolas, monospace">QI</text>
<text x="-31" y="178" font-size="11" text-anchor="end" fill="#9FA48A" font-style="italic" font-family="Verdana, sans-serif">BOOL</text>
<text x="-157" y="178" font-size="11" text-anchor="end" fill="#666666" font-family="Verdana, sans-serif">Event Input Qualifier</text>
<path d="M-5,196 L-5,206 L0,201 Z" fill="#BD8663" stroke="none" />
<text x="12" y="205" font-size="12" text-anchor="start" font-family="Consolas, monospace">PARAMS</text>
<text x="-31" y="204" font-size="11" text-anchor="end" fill="#BD8663" font-style="italic" font-family="Verdana, sans-serif">STRING</text>
<text x="-157" y="204" font-size="11" text-anchor="end" fill="#666666" font-family="Verdana, sans-serif">Service Parameters</text>
<path d="M-5,222 L-5,232 L0,227 Z" fill="#18519E" stroke="none" />
<text x="12" y="231" font-size="12" text-anchor="start" font-family="Consolas, monospace">u8SAMember</text>
<text x="-31" y="230" font-size="11" text-anchor="end" fill="#18519E" font-style="italic" font-family="Verdana, sans-serif">USINT</text>
<text x="-157" y="230" font-size="11" text-anchor="end" fill="#666666" font-family="Verdana, sans-serif">Node SA 224..239</text>
<path d="M-5,248 L-5,258 L0,253 Z" fill="#000000" stroke="none" />
<text x="12" y="257" font-size="12" text-anchor="start" font-family="Consolas, monospace">Input</text>
<text x="-31" y="256" font-size="11" text-anchor="end" fill="#000000" font-style="italic" font-family="Verdana, sans-serif">DataPanel_MI_DI_S</text>
<text x="-157" y="256" font-size="11" text-anchor="end" fill="#666666" font-family="Verdana, sans-serif">Identify the Input (must be 7A or 8A)</text>
<path d="M-5,274 L-5,284 L0,279 Z" fill="#82A3A9" stroke="none" />
<text x="12" y="283" font-size="12" text-anchor="start" font-family="Consolas, monospace">FreqDelta</text>
<text x="-31" y="282" font-size="11" text-anchor="end" fill="#82A3A9" font-style="italic" font-family="Verdana, sans-serif">WORD</text>
<text x="-157" y="282" font-size="11" text-anchor="end" fill="#666666" font-family="Verdana, sans-serif">required change of Value to fire a IND</text>
<path d="M-5,300 L-5,310 L0,305 Z" fill="#82A3A9" stroke="none" />
<text x="12" y="309" font-size="12" text-anchor="start" font-family="Consolas, monospace">TimeDelta</text>
<text x="-31" y="308" font-size="11" text-anchor="end" fill="#82A3A9" font-style="italic" font-family="Verdana, sans-serif">DWORD</text>
<text x="-157" y="308" font-size="11" text-anchor="end" fill="#666666" font-family="Verdana, sans-serif">After How many ms an IND</text>
<path d="M240,37 L240,47 L245,42 Z" fill="#63B31F" stroke="none" />
<text x="228" y="46" font-size="12" text-anchor="end" font-family="Consolas, monospace">INITO</text>
<text x="279" y="45" font-size="11" text-anchor="start" fill="#888" font-style="italic" font-family="Verdana, sans-serif">Event</text>
<text x="349" y="45" font-size="11" text-anchor="start" fill="#666666" font-family="Verdana, sans-serif">Initialization Confirm</text>
<path d="M240,63 L240,73 L245,68 Z" fill="#63B31F" stroke="none" />
<text x="228" y="72" font-size="12" text-anchor="end" font-family="Consolas, monospace">CNF</text>
<text x="279" y="71" font-size="11" text-anchor="start" fill="#888" font-style="italic" font-family="Verdana, sans-serif">Event</text>
<text x="349" y="71" font-size="11" text-anchor="start" fill="#666666" font-family="Verdana, sans-serif">Confirmation of Requested Service</text>
<path d="M240,89 L240,99 L245,94 Z" fill="#63B31F" stroke="none" />
<text x="228" y="98" font-size="12" text-anchor="end" font-family="Consolas, monospace">IND</text>
<text x="279" y="97" font-size="11" text-anchor="start" fill="#888" font-style="italic" font-family="Verdana, sans-serif">Event</text>
<text x="349" y="97" font-size="11" text-anchor="start" fill="#666666" font-family="Verdana, sans-serif">Indication from Resource</text>
<path d="M240,170 L240,180 L245,175 Z" fill="#9FA48A" stroke="none" />
<text x="228" y="179" font-size="12" text-anchor="end" font-family="Consolas, monospace">QO</text>
<text x="279" y="178" font-size="11" text-anchor="start" fill="#9FA48A" font-style="italic" font-family="Verdana, sans-serif">BOOL</text>
<text x="349" y="178" font-size="11" text-anchor="start" fill="#666666" font-family="Verdana, sans-serif">Event Output Qualifier</text>
<path d="M240,196 L240,206 L245,201 Z" fill="#BD8663" stroke="none" />
<text x="228" y="205" font-size="12" text-anchor="end" font-family="Consolas, monospace">STATUS</text>
<text x="279" y="204" font-size="11" text-anchor="start" fill="#BD8663" font-style="italic" font-family="Verdana, sans-serif">STRING</text>
<text x="349" y="204" font-size="11" text-anchor="start" fill="#666666" font-family="Verdana, sans-serif">Service Status</text>
<path d="M240,222 L240,232 L245,227 Z" fill="#82A3A9" stroke="none" />
<text x="228" y="231" font-size="12" text-anchor="end" font-family="Consolas, monospace">IN</text>
<text x="279" y="230" font-size="11" text-anchor="start" fill="#82A3A9" font-style="italic" font-family="Verdana, sans-serif">WORD</text>
<text x="349" y="230" font-size="11" text-anchor="start" fill="#666666" font-family="Verdana, sans-serif">Frequency data in Hz</text>
<path d="M-12,42 L-12,305" stroke="#404040" stroke-width="1" />
<path d="M0,42 L-12,42" stroke="#404040" />
<rect x="-14" y="40" width="4" height="4" fill="white" stroke="black" stroke-width="1" />
<path d="M-12,175 L-5,175" stroke="#404040" />
<rect x="-14" y="173" width="4" height="4" fill="white" stroke="black" stroke-width="1" />
<path d="M-12,201 L-5,201" stroke="#404040" />
<rect x="-14" y="199" width="4" height="4" fill="white" stroke="black" stroke-width="1" />
<path d="M-12,227 L-5,227" stroke="#404040" />
<rect x="-14" y="225" width="4" height="4" fill="white" stroke="black" stroke-width="1" />
<path d="M-12,253 L-5,253" stroke="#404040" />
<rect x="-14" y="251" width="4" height="4" fill="white" stroke="black" stroke-width="1" />
<path d="M-12,279 L-5,279" stroke="#404040" />
<rect x="-14" y="277" width="4" height="4" fill="white" stroke="black" stroke-width="1" />
<path d="M-12,305 L-5,305" stroke="#404040" />
<rect x="-14" y="303" width="4" height="4" fill="white" stroke="black" stroke-width="1" />
<path d="M-20,68 L-20,175" stroke="#404040" stroke-width="1" />
<path d="M0,68 L-20,68" stroke="#404040" />
<rect x="-22" y="66" width="4" height="4" fill="white" stroke="black" stroke-width="1" />
<path d="M-20,175 L-5,175" stroke="#404040" />
<rect x="-22" y="173" width="4" height="4" fill="white" stroke="black" stroke-width="1" />
<path d="M252,42 L252,201" stroke="#404040" stroke-width="1" />
<path d="M240,42 L252,42" stroke="#404040" />
<rect x="250" y="40" width="4" height="4" fill="white" stroke="black" stroke-width="1" />
<path d="M252,175 L245,175" stroke="#404040" />
<rect x="250" y="173" width="4" height="4" fill="white" stroke="black" stroke-width="1" />
<path d="M252,201 L245,201" stroke="#404040" />
<rect x="250" y="199" width="4" height="4" fill="white" stroke="black" stroke-width="1" />
<path d="M260,68 L260,227" stroke="#404040" stroke-width="1" />
<path d="M240,68 L260,68" stroke="#404040" />
<rect x="258" y="66" width="4" height="4" fill="white" stroke="black" stroke-width="1" />
<path d="M260,175 L245,175" stroke="#404040" />
<rect x="258" y="173" width="4" height="4" fill="white" stroke="black" stroke-width="1" />
<path d="M260,201 L245,201" stroke="#404040" />
<rect x="258" y="199" width="4" height="4" fill="white" stroke="black" stroke-width="1" />
<path d="M260,227 L245,227" stroke="#404040" />
<rect x="258" y="225" width="4" height="4" fill="white" stroke="black" stroke-width="1" />
<path d="M268,94 L268,227" stroke="#404040" stroke-width="1" />
<path d="M240,94 L268,94" stroke="#404040" />
<rect x="266" y="92" width="4" height="4" fill="white" stroke="black" stroke-width="1" />
<path d="M268,175 L245,175" stroke="#404040" />
<rect x="266" y="173" width="4" height="4" fill="white" stroke="black" stroke-width="1" />
<path d="M268,201 L245,201" stroke="#404040" />
<rect x="266" y="199" width="4" height="4" fill="white" stroke="black" stroke-width="1" />
<path d="M268,227 L245,227" stroke="#404040" />
<rect x="266" y="225" width="4" height="4" fill="white" stroke="black" stroke-width="1" />
</svg>