<?xml version="1.0" encoding="UTF-8"?>
<svg xmlns="http://www.w3.org/2000/svg" xmlns:xlink="http://www.w3.org/1999/xlink"
     width="1276" height="379" viewBox="-548 -20 1276 379">
<defs>
</defs>
<rect x="3" y="3" width="180" height="329" fill="#000000" fill-opacity="0.1" rx="2" ry="2" />
<path d="M0,0 H180 V66 H174 V106 H180 V329 H0 V106 H6 V66 H0 Z" fill="#ffffff" stroke="#000000" stroke-width="2" />
<path d="M0,30 L180,30" stroke="#000000" stroke-width="1" />
<text x="90.0" y="84.0" font-size="14" fontWeight="bold" font-family="Verdana, sans-serif" font-style="italic" text-anchor="middle" dominant-baseline="central">ST08X_TO_BOOLS</text>
<text x="90.0" y="98.0" font-size="10" fill="#000" font-family="Consolas, monospace" text-anchor="middle" dominant-baseline="central">1.0</text>
<path d="M-5,37 L-5,47 L0,42 Z" fill="#63B31F" stroke="none" />
<text x="12" y="46" font-size="12" text-anchor="start" font-family="Consolas, monospace">REQ</text>
<text x="-23" y="45" font-size="11" text-anchor="end" fill="#888" font-style="italic" font-family="Verdana, sans-serif">Event</text>
<path d="M-5,118 L-5,128 L0,123 Z" fill="#000000" stroke="none" />
<text x="12" y="127" font-size="12" text-anchor="start" font-family="Consolas, monospace">IN</text>
<text x="-23" y="126" font-size="11" text-anchor="end" fill="#000000" font-style="italic" font-family="Verdana, sans-serif">ST08X</text>
<text x="-82" y="126" font-size="11" text-anchor="end" fill="#666666" font-family="Verdana, sans-serif">ST08X Input</text>
<path d="M180,37 L180,47 L185,42 Z" fill="#63B31F" stroke="none" />
<text x="168" y="46" font-size="12" text-anchor="end" font-family="Consolas, monospace">CNF</text>
<text x="203" y="45" font-size="11" text-anchor="start" fill="#888" font-style="italic" font-family="Verdana, sans-serif">Event</text>
<path d="M180,118 L180,128 L185,123 Z" fill="#9FA48A" stroke="none" />
<text x="168" y="127" font-size="12" text-anchor="end" font-family="Consolas, monospace">OUT_00</text>
<text x="203" y="126" font-size="11" text-anchor="start" fill="#9FA48A" font-style="italic" font-family="Verdana, sans-serif">BOOL</text>
<text x="273" y="126" font-size="11" text-anchor="start" fill="#666666" font-family="Verdana, sans-serif">BIT 00</text>
<path d="M180,144 L180,154 L185,149 Z" fill="#9FA48A" stroke="none" />
<text x="168" y="153" font-size="12" text-anchor="end" font-family="Consolas, monospace">OUT_01</text>
<text x="203" y="152" font-size="11" text-anchor="start" fill="#9FA48A" font-style="italic" font-family="Verdana, sans-serif">BOOL</text>
<text x="273" y="152" font-size="11" text-anchor="start" fill="#666666" font-family="Verdana, sans-serif">BIT 01</text>
<path d="M180,170 L180,180 L185,175 Z" fill="#9FA48A" stroke="none" />
<text x="168" y="179" font-size="12" text-anchor="end" font-family="Consolas, monospace">OUT_02</text>
<text x="203" y="178" font-size="11" text-anchor="start" fill="#9FA48A" font-style="italic" font-family="Verdana, sans-serif">BOOL</text>
<text x="273" y="178" font-size="11" text-anchor="start" fill="#666666" font-family="Verdana, sans-serif">BIT 02</text>
<path d="M180,196 L180,206 L185,201 Z" fill="#9FA48A" stroke="none" />
<text x="168" y="205" font-size="12" text-anchor="end" font-family="Consolas, monospace">OUT_03</text>
<text x="203" y="204" font-size="11" text-anchor="start" fill="#9FA48A" font-style="italic" font-family="Verdana, sans-serif">BOOL</text>
<text x="273" y="204" font-size="11" text-anchor="start" fill="#666666" font-family="Verdana, sans-serif">BIT 03</text>
<path d="M180,222 L180,232 L185,227 Z" fill="#9FA48A" stroke="none" />
<text x="168" y="231" font-size="12" text-anchor="end" font-family="Consolas, monospace">OUT_04</text>
<text x="203" y="230" font-size="11" text-anchor="start" fill="#9FA48A" font-style="italic" font-family="Verdana, sans-serif">BOOL</text>
<text x="273" y="230" font-size="11" text-anchor="start" fill="#666666" font-family="Verdana, sans-serif">BIT 04</text>
<path d="M180,248 L180,258 L185,253 Z" fill="#9FA48A" stroke="none" />
<text x="168" y="257" font-size="12" text-anchor="end" font-family="Consolas, monospace">OUT_05</text>
<text x="203" y="256" font-size="11" text-anchor="start" fill="#9FA48A" font-style="italic" font-family="Verdana, sans-serif">BOOL</text>
<text x="273" y="256" font-size="11" text-anchor="start" fill="#666666" font-family="Verdana, sans-serif">BIT 05</text>
<path d="M180,274 L180,284 L185,279 Z" fill="#9FA48A" stroke="none" />
<text x="168" y="283" font-size="12" text-anchor="end" font-family="Consolas, monospace">OUT_06</text>
<text x="203" y="282" font-size="11" text-anchor="start" fill="#9FA48A" font-style="italic" font-family="Verdana, sans-serif">BOOL</text>
<text x="273" y="282" font-size="11" text-anchor="start" fill="#666666" font-family="Verdana, sans-serif">BIT 06</text>
<path d="M180,300 L180,310 L185,305 Z" fill="#9FA48A" stroke="none" />
<text x="168" y="309" font-size="12" text-anchor="end" font-family="Consolas, monospace">OUT_07</text>
<text x="203" y="308" font-size="11" text-anchor="start" fill="#9FA48A" font-style="italic" font-family="Verdana, sans-serif">BOOL</text>
<text x="273" y="308" font-size="11" text-anchor="start" fill="#666666" font-family="Verdana, sans-serif">BIT 07</text>
<path d="M-12,42 L-12,123" stroke="#404040" stroke-width="1" />
<path d="M0,42 L-12,42" stroke="#404040" />
<rect x="-14" y="40" width="4" height="4" fill="white" stroke="black" stroke-width="1" />
<path d="M-12,123 L-5,123" stroke="#404040" />
<rect x="-14" y="121" width="4" height="4" fill="white" stroke="black" stroke-width="1" />
<path d="M192,42 L192,305" stroke="#404040" stroke-width="1" />
<path d="M180,42 L192,42" stroke="#404040" />
<rect x="190" y="40" width="4" height="4" fill="white" stroke="black" stroke-width="1" />
<path d="M192,123 L185,123" stroke="#404040" />
<rect x="190" y="121" width="4" height="4" fill="white" stroke="black" stroke-width="1" />
<path d="M192,149 L185,149" stroke="#404040" />
<rect x="190" y="147" width="4" height="4" fill="white" stroke="black" stroke-width="1" />
<path d="M192,175 L185,175" stroke="#404040" />
<rect x="190" y="173" width="4" height="4" fill="white" stroke="black" stroke-width="1" />
<path d="M192,201 L185,201" stroke="#404040" />
<rect x="190" y="199" width="4" height="4" fill="white" stroke="black" stroke-width="1" />
<path d="M192,227 L185,227" stroke="#404040" />
<rect x="190" y="225" width="4" height="4" fill="white" stroke="black" stroke-width="1" />
<path d="M192,253 L185,253" stroke="#404040" />
<rect x="190" y="251" width="4" height="4" fill="white" stroke="black" stroke-width="1" />
<path d="M192,279 L185,279" stroke="#404040" />
<rect x="190" y="277" width="4" height="4" fill="white" stroke="black" stroke-width="1" />
<path d="M192,305 L185,305" stroke="#404040" />
<rect x="190" y="303" width="4" height="4" fill="white" stroke="black" stroke-width="1" />
</svg>