<?xml version="1.0" encoding="UTF-8"?>
<svg xmlns="http://www.w3.org/2000/svg" xmlns:xlink="http://www.w3.org/1999/xlink"
     width="1261.0" height="800" viewBox="0 0 1261.0 800">
<defs>
</defs>
<rect x="0" y="0" width="1261.0" height="800" fill="#ffffff" />
<text x="630.0" y="25" font-size="14" fontWeight="bold" font-family="Verdana, sans-serif" fill="#000000" text-anchor="middle" dominant-baseline="central">ECC: Hysteresis_AR_AX</text>
<rect x="10.0" y="446.00787401574803" width="80" height="32" fill="#f5f5f5" stroke="#000000" stroke-width="2" rx="8" ry="8" />
<text x="50.0" y="462.00787401574803" font-size="12" fontWeight="bold" font-family="Verdana, sans-serif" fill="#000000" text-anchor="middle" dominant-baseline="central">START</text>
<rect x="128.11082677165356" y="516.8740157480315" width="80" height="32" fill="#f5f5f5" stroke="#000000" stroke-width="2" rx="8" ry="8" />
<text x="168.11082677165356" y="532.8740157480315" font-size="12" fontWeight="bold" font-family="Verdana, sans-serif" fill="#000000" text-anchor="middle" dominant-baseline="central">DeInit</text>
<rect x="218.11082677165356" y="516.8740157480315" width="161" height="22" fill="#ffffff" stroke="#cccccc" stroke-width="1" rx="4" ry="4" />
<path d="M208.11082677165356,532.8740157480315 L218.11082677165356,527.8740157480315" stroke="#000000" stroke-width="2" />
<path d="M298.1108267716536,516.8740157480315 L298.1108267716536,538.8740157480315" stroke="#cccccc" stroke-width="1" />
<rect x="218.11082677165356" y="520.8740157480315" width="80" height="14" fill="#e6f7e6" stroke="#cccccc" stroke-width="0.5" />
<text x="258.1108267716536" y="528.8740157480315" font-size="10" font-family="Consolas, monospace" fill="#000000" text-anchor="middle" dominant-baseline="central">deInitialize</text>
<rect x="299.1108267716536" y="520.8740157480315" width="80" height="14" fill="#ffe6e6" stroke="#cccccc" stroke-width="0.5" />
<text x="339.1108267716536" y="528.8740157480315" font-size="10" font-family="Consolas, monospace" fill="#000000" text-anchor="middle" dominant-baseline="central">INITO</text>
<rect x="130.4724409448819" y="321.99212598425197" width="80" height="32" fill="#f5f5f5" stroke="#000000" stroke-width="2" rx="8" ry="8" />
<text x="170.4724409448819" y="337.99212598425197" font-size="12" fontWeight="bold" font-family="Verdana, sans-serif" fill="#000000" text-anchor="middle" dominant-baseline="central">Init</text>
<rect x="220.4724409448819" y="321.99212598425197" width="161" height="22" fill="#ffffff" stroke="#cccccc" stroke-width="1" rx="4" ry="4" />
<path d="M210.4724409448819,337.99212598425197 L220.4724409448819,332.99212598425197" stroke="#000000" stroke-width="2" />
<path d="M300.4724409448819,321.99212598425197 L300.4724409448819,343.99212598425197" stroke="#cccccc" stroke-width="1" />
<rect x="220.4724409448819" y="325.99212598425197" width="80" height="14" fill="#e6f7e6" stroke="#cccccc" stroke-width="0.5" />
<text x="260.4724409448819" y="333.99212598425197" font-size="10" font-family="Consolas, monospace" fill="#000000" text-anchor="middle" dominant-baseline="central">initialize</text>
<rect x="301.4724409448819" y="325.99212598425197" width="80" height="14" fill="#ffe6e6" stroke="#cccccc" stroke-width="0.5" />
<text x="341.4724409448819" y="333.99212598425197" font-size="10" font-family="Consolas, monospace" fill="#000000" text-anchor="middle" dominant-baseline="central">INITO</text>
<rect x="262.75649606299214" y="449.55118110236225" width="80" height="32" fill="#f5f5f5" stroke="#000000" stroke-width="2" rx="8" ry="8" />
<text x="302.75649606299214" y="465.55118110236225" font-size="12" fontWeight="bold" font-family="Verdana, sans-serif" fill="#000000" text-anchor="middle" dominant-baseline="central">sOFF</text>
<rect x="352.75649606299214" y="449.55118110236225" width="161" height="22" fill="#ffffff" stroke="#cccccc" stroke-width="1" rx="4" ry="4" />
<path d="M342.75649606299214,465.55118110236225 L352.75649606299214,460.55118110236225" stroke="#000000" stroke-width="2" />
<path d="M432.75649606299214,449.55118110236225 L432.75649606299214,471.55118110236225" stroke="#cccccc" stroke-width="1" />
<rect x="352.75649606299214" y="453.55118110236225" width="80" height="14" fill="#e6f7e6" stroke="#cccccc" stroke-width="0.5" />
<text x="392.75649606299214" y="461.55118110236225" font-size="10" font-family="Consolas, monospace" fill="#000000" text-anchor="middle" dominant-baseline="central">alOff</text>
<rect x="433.75649606299214" y="453.55118110236225" width="80" height="14" fill="#ffe6e6" stroke="#cccccc" stroke-width="0.5" />
<text x="473.75649606299214" y="461.55118110236225" font-size="10" font-family="Consolas, monospace" fill="#000000" text-anchor="middle" dominant-baseline="central">OUTPUT.E1</text>
<rect x="910.0000000000001" y="251.12598425196848" width="80" height="32" fill="#f5f5f5" stroke="#000000" stroke-width="2" rx="8" ry="8" />
<text x="950.0000000000001" y="267.1259842519685" font-size="12" fontWeight="bold" font-family="Verdana, sans-serif" fill="#000000" text-anchor="middle" dominant-baseline="central">sON</text>
<rect x="1000.0000000000001" y="251.12598425196848" width="161" height="22" fill="#ffffff" stroke="#cccccc" stroke-width="1" rx="4" ry="4" />
<path d="M990.0000000000001,267.1259842519685 L1000.0000000000001,262.1259842519685" stroke="#000000" stroke-width="2" />
<path d="M1080.0,251.12598425196848 L1080.0,273.1259842519685" stroke="#cccccc" stroke-width="1" />
<rect x="1000.0000000000001" y="255.12598425196848" width="80" height="14" fill="#e6f7e6" stroke="#cccccc" stroke-width="0.5" />
<text x="1040.0" y="263.1259842519685" font-size="10" font-family="Consolas, monospace" fill="#000000" text-anchor="middle" dominant-baseline="central">alOn</text>
<rect x="1081.0" y="255.12598425196848" width="80" height="14" fill="#ffe6e6" stroke="#cccccc" stroke-width="0.5" />
<text x="1121.0" y="263.1259842519685" font-size="10" font-family="Consolas, monospace" fill="#000000" text-anchor="middle" dominant-baseline="central">OUTPUT.E1</text>
<path d="M90.0,462.00787401574803 C170.0,462.00787401574803,170.4724409448819,433.99212598425197,170.4724409448819,353.99212598425197" stroke="#404040" stroke-width="1.2" fill="none" />
<path d="M170.4724409448819,353.99212598425197 L174.4724409448819,360.9203292145275 L166.4724409448819,360.9203292145275 L170.4724409448819,353.99212598425197" fill="#404040" stroke="#404040" stroke-width="1" />
<g transform="translate(160.23622047244095,438.0)">
<rect x="-52.75" y="-7.5" width="105.5" height="15" fill="#ffffff" opacity="0.9" rx="3" ry="3" />
<text x="0" y="3.5" font-size="10" font-family="Consolas, monospace" fill="#000000" text-anchor="middle" dominant-baseline="central">INIT[TRUE = QI]</text>
</g>
<path d="M210.4724409448819,337.99212598425197 C290.4724409448819,337.99212598425197,295.25649606299214,369.55118110236225,295.25649606299214,449.55118110236225" stroke="#404040" stroke-width="1.2" fill="none" />
<path d="M295.25649606299214,449.55118110236225 L291.25649606299214,442.6229778720867 L299.25649606299214,442.6229778720867 L295.25649606299214,449.55118110236225" fill="#404040" stroke="#404040" stroke-width="1" />
<g transform="translate(282.864468503937,363.7716535433071)">
<rect x="-30.0" y="-7.5" width="60.0" height="15" fill="#ffffff" opacity="0.9" rx="3" ry="3" />
<text x="0" y="3.5" font-size="10" font-family="Consolas, monospace" fill="#000000" text-anchor="middle" dominant-baseline="central">INPUT.E1</text>
</g>
<path d="M262.75649606299214,465.55118110236225 C182.75649606299214,465.55118110236225,168.11082677165356,436.8740157480315,168.11082677165356,516.8740157480315" stroke="#404040" stroke-width="1.2" fill="none" />
<path d="M168.11082677165356,516.8740157480315 L164.11082677165356,509.945812517756 L172.11082677165356,509.945812517756 L168.11082677165356,516.8740157480315" fill="#404040" stroke="#404040" stroke-width="1" />
<g transform="translate(185.43366141732287,461.2125984251969)">
<rect x="-56.0" y="-7.5" width="112.0" height="15" fill="#ffffff" opacity="0.9" rx="3" ry="3" />
<text x="0" y="3.5" font-size="10" font-family="Consolas, monospace" fill="#000000" text-anchor="middle" dominant-baseline="central">INIT[FALSE = QI]</text>
</g>
<path d="M342.75649606299214,458.05118110236225 C595.5310193257116,458.05118110236225,950.0000000000001,535.9005075146879,950.0000000000001,283.1259842519685" stroke="#404040" stroke-width="1.2" fill="none" />
<path d="M950.0000000000001,283.1259842519685 L954.0000000000001,290.054187482244 L946.0000000000001,290.054187482244 L950.0000000000001,283.1259842519685" fill="#404040" stroke="#404040" stroke-width="1" />
<g transform="translate(741.1686942550159,465.37902890068517)">
<rect x="-208.75" y="-7.5" width="417.5" height="15" fill="#ffffff" opacity="0.9" rx="3" ry="3" />
<text x="0" y="3.5" font-size="10" font-family="Consolas, monospace" fill="#000000" text-anchor="middle" dominant-baseline="central">INPUT.E1[INPUT.D1 &gt;= THRESHOLD.D1 + (ABS(HYSTERESIS.D1) / 2.0)]</text>
</g>
<path d="M128.11082677165356,532.8740157480315 C48.110826771653564,532.8740157480315,50.0,558.007874015748,50.0,478.00787401574803" stroke="#404040" stroke-width="1.2" fill="none" />
<path d="M50.0,478.00787401574803 L54.0,484.93607724602356 L46.0,484.93607724602356 L50.0,478.00787401574803" fill="#404040" stroke="#404040" stroke-width="1" />
<g transform="translate(59.05541338582678,535.4409448818898)">
<rect x="-7.25" y="-7.5" width="14.5" height="15" fill="#ffffff" opacity="0.9" rx="3" ry="3" />
<text x="0" y="3.5" font-size="10" font-family="Consolas, monospace" fill="#000000" text-anchor="middle" dominant-baseline="central">1</text>
</g>
<path d="M910.0000000000001,274.6259842519685 C645.1068724409449,274.6259842519685,310.25649606299214,184.65805354330706,310.25649606299214,449.55118110236225" stroke="#404040" stroke-width="1.2" fill="none" />
<path d="M310.25649606299214,449.55118110236225 L306.25649606299214,442.6229778720867 L314.25649606299214,442.6229778720867 L310.25649606299214,449.55118110236225" fill="#404040" stroke="#404040" stroke-width="1" />
<g transform="translate(510.79332519685045,262.75365984251965)">
<rect x="-205.5" y="-7.5" width="411.0" height="15" fill="#ffffff" opacity="0.9" rx="3" ry="3" />
<text x="0" y="3.5" font-size="10" font-family="Consolas, monospace" fill="#000000" text-anchor="middle" dominant-baseline="central">INPUT.E1[INPUT.D1 &lt; THRESHOLD.D1 - (ABS(HYSTERESIS.D1) / 2.0)]</text>
</g>
</svg>