<?xml version="1.0" encoding="UTF-8"?>
<svg xmlns="http://www.w3.org/2000/svg" xmlns:xlink="http://www.w3.org/1999/xlink"
     width="1296" height="275" viewBox="-548 -20 1296 275">
<defs>
</defs>
<rect x="3" y="3" width="200" height="225" fill="#000000" fill-opacity="0.1" rx="2" ry="2" />
<path d="M0,0 H200 V66 H194 V106 H200 V225 H0 V106 H6 V66 H0 Z" fill="#ffffff" stroke="#000000" stroke-width="2" />
<path d="M0,30 L200,30" stroke="#000000" stroke-width="1" />
<text x="100.0" y="84.0" font-size="14" fontWeight="bold" font-family="Verdana, sans-serif" font-style="italic" text-anchor="middle" dominant-baseline="central">Hysteresis_AR_AX</text>
<text x="100.0" y="98.0" font-size="10" fill="#000" font-family="Consolas, monospace" text-anchor="middle" dominant-baseline="central">1.2</text>
<path d="M-5,37 L-5,47 L0,42 Z" fill="#63B31F" stroke="none" />
<text x="12" y="46" font-size="12" text-anchor="start" font-family="Consolas, monospace">INIT</text>
<text x="-23" y="45" font-size="11" text-anchor="end" fill="#888" font-style="italic" font-family="Verdana, sans-serif">Event</text>
<text x="-153" y="45" font-size="11" text-anchor="end" fill="#666666" font-family="Verdana, sans-serif">Initialization Request</text>
<rect x="-5.0" y="118.0" width="10" height="10" fill="white" stroke="#845DAF" stroke-width="2.5" />
<text x="12" y="127" font-size="12" text-anchor="start" font-family="Consolas, monospace">INPUT</text>
<text x="-23" y="126" font-size="11" text-anchor="end" fill="#000" font-style="italic" font-family="Verdana, sans-serif">AR</text>
<text x="-153" y="126" font-size="11" text-anchor="end" fill="#666666" font-family="Verdana, sans-serif">Input value</text>
<rect x="-5.0" y="144.0" width="10" height="10" fill="white" stroke="#845DAF" stroke-width="2.5" />
<text x="12" y="153" font-size="12" text-anchor="start" font-family="Consolas, monospace">THRESHOLD</text>
<text x="-23" y="152" font-size="11" text-anchor="end" fill="#000" font-style="italic" font-family="Verdana, sans-serif">AR</text>
<text x="-153" y="152" font-size="11" text-anchor="end" fill="#666666" font-family="Verdana, sans-serif">Center of the hysteresis band (Switch-on =</text>
<text x="-153" y="164" font-size="11" text-anchor="end" fill="#666666" font-family="Verdana, sans-serif">THRESHOLD + (HYSTERESIS / 2.0), Switch-off =</text>
<text x="-153" y="176" font-size="11" text-anchor="end" fill="#666666" font-family="Verdana, sans-serif">THRESHOLD - (HYSTERESIS / 2.0))</text>
<rect x="-5.0" y="170.0" width="10" height="10" fill="white" stroke="#845DAF" stroke-width="2.5" />
<text x="12" y="179" font-size="12" text-anchor="start" font-family="Consolas, monospace">HYSTERESIS</text>
<text x="-23" y="178" font-size="11" text-anchor="end" fill="#000" font-style="italic" font-family="Verdana, sans-serif">AR</text>
<text x="-153" y="178" font-size="11" text-anchor="end" fill="#666666" font-family="Verdana, sans-serif">Hysteresis value (Full width of the hysteresis</text>
<text x="-153" y="190" font-size="11" text-anchor="end" fill="#666666" font-family="Verdana, sans-serif">band)</text>
<path d="M-5,196 L-5,206 L0,201 Z" fill="#9FA48A" stroke="none" />
<text x="12" y="205" font-size="12" text-anchor="start" font-family="Consolas, monospace">QI</text>
<text x="-23" y="204" font-size="11" text-anchor="end" fill="#9FA48A" font-style="italic" font-family="Verdana, sans-serif">BOOL</text>
<text x="-153" y="204" font-size="11" text-anchor="end" fill="#666666" font-family="Verdana, sans-serif">Input event qualifier</text>
<path d="M200,37 L200,47 L205,42 Z" fill="#63B31F" stroke="none" />
<text x="188" y="46" font-size="12" text-anchor="end" font-family="Consolas, monospace">INITO</text>
<text x="223" y="45" font-size="11" text-anchor="start" fill="#888" font-style="italic" font-family="Verdana, sans-serif">Event</text>
<text x="293" y="45" font-size="11" text-anchor="start" fill="#666666" font-family="Verdana, sans-serif">Initialization Confirm</text>
<rect x="195.0" y="118.0" width="10" height="10" fill="#845DAF" stroke="none" />
<text x="188" y="127" font-size="12" text-anchor="end" font-family="Consolas, monospace">OUTPUT</text>
<text x="223" y="126" font-size="11" text-anchor="start" fill="#000" font-style="italic" font-family="Verdana, sans-serif">AX</text>
<text x="293" y="126" font-size="11" text-anchor="start" fill="#666666" font-family="Verdana, sans-serif">Hysteresis output</text>
<path d="M200,144 L200,154 L205,149 Z" fill="#9FA48A" stroke="none" />
<text x="188" y="153" font-size="12" text-anchor="end" font-family="Consolas, monospace">QO</text>
<text x="223" y="152" font-size="11" text-anchor="start" fill="#9FA48A" font-style="italic" font-family="Verdana, sans-serif">BOOL</text>
<path d="M-12,42 L-12,201" stroke="#404040" stroke-width="1" />
<path d="M0,42 L-12,42" stroke="#404040" />
<rect x="-14" y="40" width="4" height="4" fill="white" stroke="black" stroke-width="1" />
<path d="M-12,201 L-5,201" stroke="#404040" />
<rect x="-14" y="199" width="4" height="4" fill="white" stroke="black" stroke-width="1" />
<path d="M212,42 L212,149" stroke="#404040" stroke-width="1" />
<path d="M200,42 L212,42" stroke="#404040" />
<rect x="210" y="40" width="4" height="4" fill="white" stroke="black" stroke-width="1" />
<path d="M212,149 L205,149" stroke="#404040" />
<rect x="210" y="147" width="4" height="4" fill="white" stroke="black" stroke-width="1" />
</svg>