<?xml version="1.0" encoding="UTF-8"?>
<svg xmlns="http://www.w3.org/2000/svg" xmlns:xlink="http://www.w3.org/1999/xlink"
     width="1045" height="327" viewBox="-556 -20 1045 327">
<defs>
</defs>
<rect x="3" y="3" width="175" height="277" fill="#000000" fill-opacity="0.1" rx="2" ry="2" />
<path d="M0,0 H175 V118 H169 V158 H175 V277 H0 V158 H6 V118 H0 Z" fill="#ffffff" stroke="#606060" stroke-width="2" />
<path d="M0,30 L175,30" stroke="#606060" stroke-width="1" />
<text x="87.5" y="136.0" font-size="14" fontWeight="bold" font-family="Verdana, sans-serif" font-style="italic" text-anchor="middle" dominant-baseline="central">TC_ID</text>
<text x="87.5" y="150.0" font-size="10" fill="#000" font-family="Consolas, monospace" text-anchor="middle" dominant-baseline="central">1.0</text>
<path d="M-5,37 L-5,47 L0,42 Z" fill="#5cb85c" stroke="none" />
<text x="12" y="46" font-size="12" text-anchor="start" font-family="Consolas, monospace">INIT</text>
<text x="-31" y="45" font-size="11" text-anchor="end" fill="#888" font-style="italic" font-family="Verdana, sans-serif">Event</text>
<text x="-101" y="45" font-size="11" text-anchor="end" fill="#666666" font-family="Verdana, sans-serif">Service Initialization</text>
<path d="M-5,63 L-5,73 L0,68 Z" fill="#5cb85c" stroke="none" />
<text x="12" y="72" font-size="12" text-anchor="start" font-family="Consolas, monospace">REQ</text>
<text x="-31" y="71" font-size="11" text-anchor="end" fill="#888" font-style="italic" font-family="Verdana, sans-serif">Event</text>
<text x="-101" y="71" font-size="11" text-anchor="end" fill="#666666" font-family="Verdana, sans-serif">Service Request</text>
<path d="M-5,170 L-5,180 L0,175 Z" fill="#0066cc" stroke="none" />
<text x="12" y="179" font-size="12" text-anchor="start" font-family="Consolas, monospace">QI</text>
<text x="-31" y="178" font-size="11" text-anchor="end" fill="#0066cc" font-style="italic" font-family="Verdana, sans-serif">BOOL</text>
<text x="-101" y="178" font-size="11" text-anchor="end" fill="#666666" font-family="Verdana, sans-serif">Event Input Qualifier</text>
<path d="M-5,196 L-5,206 L0,201 Z" fill="#0066cc" stroke="none" />
<text x="12" y="205" font-size="12" text-anchor="start" font-family="Consolas, monospace">PARAMS</text>
<text x="-31" y="204" font-size="11" text-anchor="end" fill="#0066cc" font-style="italic" font-family="Verdana, sans-serif">STRING</text>
<text x="-101" y="204" font-size="11" text-anchor="end" fill="#666666" font-family="Verdana, sans-serif">Service Parameters</text>
<path d="M-5,222 L-5,232 L0,227 Z" fill="#0066cc" stroke="none" />
<text x="12" y="231" font-size="12" text-anchor="start" font-family="Consolas, monospace">wDevElementNumb</text>
<text x="-31" y="230" font-size="11" text-anchor="end" fill="#0066cc" font-style="italic" font-family="Verdana, sans-serif">UINT</text>
<text x="-101" y="230" font-size="11" text-anchor="end" fill="#666666" font-family="Verdana, sans-serif">Requested element number of TC of Input</text>
<path d="M-5,248 L-5,258 L0,253 Z" fill="#0066cc" stroke="none" />
<text x="12" y="257" font-size="12" text-anchor="start" font-family="Consolas, monospace">wDDI</text>
<text x="-31" y="256" font-size="11" text-anchor="end" fill="#0066cc" font-style="italic" font-family="Verdana, sans-serif">UINT</text>
<text x="-101" y="256" font-size="11" text-anchor="end" fill="#666666" font-family="Verdana, sans-serif">Data dictionary identifier of Input</text>
<path d="M175,37 L175,47 L180,42 Z" fill="#5cb85c" stroke="none" />
<text x="163" y="46" font-size="12" text-anchor="end" font-family="Consolas, monospace">INITO</text>
<text x="214" y="45" font-size="11" text-anchor="start" fill="#888" font-style="italic" font-family="Verdana, sans-serif">Event</text>
<text x="284" y="45" font-size="11" text-anchor="start" fill="#666666" font-family="Verdana, sans-serif">Initialization Confirm</text>
<path d="M175,63 L175,73 L180,68 Z" fill="#5cb85c" stroke="none" />
<text x="163" y="72" font-size="12" text-anchor="end" font-family="Consolas, monospace">CNF</text>
<text x="214" y="71" font-size="11" text-anchor="start" fill="#888" font-style="italic" font-family="Verdana, sans-serif">Event</text>
<text x="284" y="71" font-size="11" text-anchor="start" fill="#666666" font-family="Verdana, sans-serif">Confirmation of Requested Service</text>
<path d="M175,89 L175,99 L180,94 Z" fill="#5cb85c" stroke="none" />
<text x="163" y="98" font-size="12" text-anchor="end" font-family="Consolas, monospace">IND</text>
<text x="214" y="97" font-size="11" text-anchor="start" fill="#888" font-style="italic" font-family="Verdana, sans-serif">Event</text>
<text x="284" y="97" font-size="11" text-anchor="start" fill="#666666" font-family="Verdana, sans-serif">Indication from Resource</text>
<path d="M175,170 L175,180 L180,175 Z" fill="#0066cc" stroke="none" />
<text x="163" y="179" font-size="12" text-anchor="end" font-family="Consolas, monospace">QO</text>
<text x="214" y="178" font-size="11" text-anchor="start" fill="#0066cc" font-style="italic" font-family="Verdana, sans-serif">BOOL</text>
<text x="284" y="178" font-size="11" text-anchor="start" fill="#666666" font-family="Verdana, sans-serif">Event Output Qualifier</text>
<path d="M175,196 L175,206 L180,201 Z" fill="#0066cc" stroke="none" />
<text x="163" y="205" font-size="12" text-anchor="end" font-family="Consolas, monospace">STATUS</text>
<text x="214" y="204" font-size="11" text-anchor="start" fill="#0066cc" font-style="italic" font-family="Verdana, sans-serif">STRING</text>
<text x="284" y="204" font-size="11" text-anchor="start" fill="#666666" font-family="Verdana, sans-serif">Service Status</text>
<path d="M175,222 L175,232 L180,227 Z" fill="#0066cc" stroke="none" />
<text x="163" y="231" font-size="12" text-anchor="end" font-family="Consolas, monospace">IN</text>
<text x="214" y="230" font-size="11" text-anchor="start" fill="#0066cc" font-style="italic" font-family="Verdana, sans-serif">DWORD</text>
<text x="284" y="230" font-size="11" text-anchor="start" fill="#666666" font-family="Verdana, sans-serif">Input data from resource</text>
<path d="M-12,42 L-12,253" stroke="#404040" stroke-width="1" />
<path d="M0,42 L-12,42" stroke="#404040" />
<rect x="-14" y="40" width="4" height="4" fill="white" stroke="black" stroke-width="1" />
<path d="M-12,175 L-5,175" stroke="#404040" />
<rect x="-14" y="173" width="4" height="4" fill="white" stroke="black" stroke-width="1" />
<path d="M-12,201 L-5,201" stroke="#404040" />
<rect x="-14" y="199" width="4" height="4" fill="white" stroke="black" stroke-width="1" />
<path d="M-12,227 L-5,227" stroke="#404040" />
<rect x="-14" y="225" width="4" height="4" fill="white" stroke="black" stroke-width="1" />
<path d="M-12,253 L-5,253" stroke="#404040" />
<rect x="-14" y="251" width="4" height="4" fill="white" stroke="black" stroke-width="1" />
<path d="M-20,68 L-20,175" stroke="#404040" stroke-width="1" />
<path d="M0,68 L-20,68" stroke="#404040" />
<rect x="-22" y="66" width="4" height="4" fill="white" stroke="black" stroke-width="1" />
<path d="M-20,175 L-5,175" stroke="#404040" />
<rect x="-22" y="173" width="4" height="4" fill="white" stroke="black" stroke-width="1" />
<path d="M187,42 L187,201" stroke="#404040" stroke-width="1" />
<path d="M175,42 L187,42" stroke="#404040" />
<rect x="185" y="40" width="4" height="4" fill="white" stroke="black" stroke-width="1" />
<path d="M187,175 L180,175" stroke="#404040" />
<rect x="185" y="173" width="4" height="4" fill="white" stroke="black" stroke-width="1" />
<path d="M187,201 L180,201" stroke="#404040" />
<rect x="185" y="199" width="4" height="4" fill="white" stroke="black" stroke-width="1" />
<path d="M195,68 L195,227" stroke="#404040" stroke-width="1" />
<path d="M175,68 L195,68" stroke="#404040" />
<rect x="193" y="66" width="4" height="4" fill="white" stroke="black" stroke-width="1" />
<path d="M195,175 L180,175" stroke="#404040" />
<rect x="193" y="173" width="4" height="4" fill="white" stroke="black" stroke-width="1" />
<path d="M195,201 L180,201" stroke="#404040" />
<rect x="193" y="199" width="4" height="4" fill="white" stroke="black" stroke-width="1" />
<path d="M195,227 L180,227" stroke="#404040" />
<rect x="193" y="225" width="4" height="4" fill="white" stroke="black" stroke-width="1" />
<path d="M203,94 L203,227" stroke="#404040" stroke-width="1" />
<path d="M175,94 L203,94" stroke="#404040" />
<rect x="201" y="92" width="4" height="4" fill="white" stroke="black" stroke-width="1" />
<path d="M203,175 L180,175" stroke="#404040" />
<rect x="201" y="173" width="4" height="4" fill="white" stroke="black" stroke-width="1" />
<path d="M203,201 L180,201" stroke="#404040" />
<rect x="201" y="199" width="4" height="4" fill="white" stroke="black" stroke-width="1" />
<path d="M203,227 L180,227" stroke="#404040" />
<rect x="201" y="225" width="4" height="4" fill="white" stroke="black" stroke-width="1" />
</svg>