<?xml version="1.0" encoding="UTF-8"?>
<svg xmlns="http://www.w3.org/2000/svg" xmlns:xlink="http://www.w3.org/1999/xlink"
     width="988" height="197" viewBox="-540 -20 988 197">
<defs>
</defs>
<rect x="3" y="3" width="150" height="147" fill="#000000" fill-opacity="0.1" rx="2" ry="2" />
<path d="M0,0 H150 V66 H144 V106 H150 V147 H0 V106 H6 V66 H0 Z" fill="#ffffff" stroke="#000000" stroke-width="2" />
<path d="M0,30 L150,30" stroke="#000000" stroke-width="1" />
<text x="75.0" y="84.0" font-size="14" fontWeight="bold" font-family="Verdana, sans-serif" font-style="italic" text-anchor="middle" dominant-baseline="central">AI_I_TO_INT</text>
<text x="75.0" y="98.0" font-size="10" fill="#000" font-family="Consolas, monospace" text-anchor="middle" dominant-baseline="central">1.0</text>
<rect x="-5.0" y="118.0" width="10" height="10" fill="white" stroke="#845DAF" stroke-width="2.5" />
<text x="12" y="127" font-size="12" text-anchor="start" font-family="Consolas, monospace">AI_IN</text>
<text x="-15" y="126" font-size="11" text-anchor="end" fill="#000" font-style="italic" font-family="Verdana, sans-serif">AI</text>
<text x="-85" y="126" font-size="11" text-anchor="end" fill="#666666" font-family="Verdana, sans-serif">Adapter Input</text>
<path d="M150,37 L150,47 L155,42 Z" fill="#63B31F" stroke="none" />
<text x="138" y="46" font-size="12" text-anchor="end" font-family="Consolas, monospace">CNF</text>
<text x="173" y="45" font-size="11" text-anchor="start" fill="#888" font-style="italic" font-family="Verdana, sans-serif">Event</text>
<text x="243" y="45" font-size="11" text-anchor="start" fill="#666666" font-family="Verdana, sans-serif">Confirmation from Adapter</text>
<path d="M150,118 L150,128 L155,123 Z" fill="#18519E" stroke="none" />
<text x="138" y="127" font-size="12" text-anchor="end" font-family="Consolas, monospace">IN</text>
<text x="173" y="126" font-size="11" text-anchor="start" fill="#18519E" font-style="italic" font-family="Verdana, sans-serif">INT</text>
<text x="243" y="126" font-size="11" text-anchor="start" fill="#666666" font-family="Verdana, sans-serif">Input data from Adapter</text>
<path d="M162,42 L162,123" stroke="#404040" stroke-width="1" />
<path d="M150,42 L162,42" stroke="#404040" />
<rect x="160" y="40" width="4" height="4" fill="white" stroke="black" stroke-width="1" />
<path d="M162,123 L155,123" stroke="#404040" />
<rect x="160" y="121" width="4" height="4" fill="white" stroke="black" stroke-width="1" />
</svg>